G04 #@! TF.GenerationSoftware,KiCad,Pcbnew,(5.1.4)-1*
G04 #@! TF.CreationDate,2020-10-11T13:25:07+02:00*
G04 #@! TF.ProjectId,ram-adapter,72616d2d-6164-4617-9074-65722e6b6963,rev?*
G04 #@! TF.SameCoordinates,Original*
G04 #@! TF.FileFunction,Legend,Top*
G04 #@! TF.FilePolarity,Positive*
%FSLAX46Y46*%
G04 Gerber Fmt 4.6, Leading zero omitted, Abs format (unit mm)*
G04 Created by KiCad (PCBNEW (5.1.4)-1) date 2020-10-11 13:25:07*
%MOMM*%
%LPD*%
G04 APERTURE LIST*
%ADD10C,0.200000*%
%ADD11C,0.120000*%
%ADD12C,0.150000*%
G04 APERTURE END LIST*
D10*
X116181904Y-54157619D02*
X116229523Y-54110000D01*
X116324761Y-54062380D01*
X116562857Y-54062380D01*
X116658095Y-54110000D01*
X116705714Y-54157619D01*
X116753333Y-54252857D01*
X116753333Y-54348095D01*
X116705714Y-54490952D01*
X116134285Y-55062380D01*
X116753333Y-55062380D01*
X117086666Y-55062380D02*
X117610476Y-54395714D01*
X117086666Y-54395714D02*
X117610476Y-55062380D01*
X117943809Y-54157619D02*
X117991428Y-54110000D01*
X118086666Y-54062380D01*
X118324761Y-54062380D01*
X118420000Y-54110000D01*
X118467619Y-54157619D01*
X118515238Y-54252857D01*
X118515238Y-54348095D01*
X118467619Y-54490952D01*
X117896190Y-55062380D01*
X118515238Y-55062380D01*
X119467619Y-55062380D02*
X118896190Y-55062380D01*
X119181904Y-55062380D02*
X119181904Y-54062380D01*
X119086666Y-54205238D01*
X118991428Y-54300476D01*
X118896190Y-54348095D01*
X120420000Y-55062380D02*
X119848571Y-55062380D01*
X120134285Y-55062380D02*
X120134285Y-54062380D01*
X120039047Y-54205238D01*
X119943809Y-54300476D01*
X119848571Y-54348095D01*
X121277142Y-54395714D02*
X121277142Y-55062380D01*
X121039047Y-54014761D02*
X120800952Y-54729047D01*
X121420000Y-54729047D01*
X121800952Y-54681428D02*
X122562857Y-54681428D01*
X123039047Y-54395714D02*
X123800952Y-54681428D01*
X123039047Y-54967142D01*
X124705714Y-54062380D02*
X124515238Y-54062380D01*
X124420000Y-54110000D01*
X124372380Y-54157619D01*
X124277142Y-54300476D01*
X124229523Y-54490952D01*
X124229523Y-54871904D01*
X124277142Y-54967142D01*
X124324761Y-55014761D01*
X124420000Y-55062380D01*
X124610476Y-55062380D01*
X124705714Y-55014761D01*
X124753333Y-54967142D01*
X124800952Y-54871904D01*
X124800952Y-54633809D01*
X124753333Y-54538571D01*
X124705714Y-54490952D01*
X124610476Y-54443333D01*
X124420000Y-54443333D01*
X124324761Y-54490952D01*
X124277142Y-54538571D01*
X124229523Y-54633809D01*
X125753333Y-55062380D02*
X125181904Y-55062380D01*
X125467619Y-55062380D02*
X125467619Y-54062380D01*
X125372380Y-54205238D01*
X125277142Y-54300476D01*
X125181904Y-54348095D01*
X126705714Y-55062380D02*
X126134285Y-55062380D01*
X126420000Y-55062380D02*
X126420000Y-54062380D01*
X126324761Y-54205238D01*
X126229523Y-54300476D01*
X126134285Y-54348095D01*
X127562857Y-54062380D02*
X127372380Y-54062380D01*
X127277142Y-54110000D01*
X127229523Y-54157619D01*
X127134285Y-54300476D01*
X127086666Y-54490952D01*
X127086666Y-54871904D01*
X127134285Y-54967142D01*
X127181904Y-55014761D01*
X127277142Y-55062380D01*
X127467619Y-55062380D01*
X127562857Y-55014761D01*
X127610476Y-54967142D01*
X127658095Y-54871904D01*
X127658095Y-54633809D01*
X127610476Y-54538571D01*
X127562857Y-54490952D01*
X127467619Y-54443333D01*
X127277142Y-54443333D01*
X127181904Y-54490952D01*
X127134285Y-54538571D01*
X127086666Y-54633809D01*
D11*
X113140000Y-53280000D02*
X107680000Y-53280000D01*
X113140000Y-83880000D02*
X113140000Y-53280000D01*
X100220000Y-83880000D02*
X113140000Y-83880000D01*
X100220000Y-53280000D02*
X100220000Y-83880000D01*
X105680000Y-53280000D02*
X100220000Y-53280000D01*
X107680000Y-53280000D02*
G75*
G02X105680000Y-53280000I-1000000J0D01*
G01*
X118400000Y-81070000D02*
X118400000Y-78950000D01*
X125520000Y-81070000D02*
X125520000Y-78950000D01*
X125520000Y-78950000D02*
X118400000Y-78950000D01*
X125520000Y-81070000D02*
X118400000Y-81070000D01*
X97850000Y-76260000D02*
X96520000Y-76260000D01*
X97850000Y-74930000D02*
X97850000Y-76260000D01*
X97850000Y-73660000D02*
X95190000Y-73660000D01*
X95190000Y-73660000D02*
X95190000Y-65980000D01*
X97850000Y-73660000D02*
X97850000Y-65980000D01*
X97850000Y-65980000D02*
X95190000Y-65980000D01*
X108060000Y-55820000D02*
X106410000Y-55820000D01*
X108060000Y-78800000D02*
X108060000Y-55820000D01*
X102760000Y-78800000D02*
X108060000Y-78800000D01*
X102760000Y-55820000D02*
X102760000Y-78800000D01*
X104410000Y-55820000D02*
X102760000Y-55820000D01*
X106410000Y-55820000D02*
G75*
G02X104410000Y-55820000I-1000000J0D01*
G01*
X124570000Y-58360000D02*
X122920000Y-58360000D01*
X124570000Y-76260000D02*
X124570000Y-58360000D01*
X119270000Y-76260000D02*
X124570000Y-76260000D01*
X119270000Y-58360000D02*
X119270000Y-76260000D01*
X120920000Y-58360000D02*
X119270000Y-58360000D01*
X122920000Y-58360000D02*
G75*
G02X120920000Y-58360000I-1000000J0D01*
G01*
D12*
X95543809Y-54427380D02*
X95543809Y-53427380D01*
X96591428Y-54332142D02*
X96543809Y-54379761D01*
X96400952Y-54427380D01*
X96305714Y-54427380D01*
X96162857Y-54379761D01*
X96067619Y-54284523D01*
X96020000Y-54189285D01*
X95972380Y-53998809D01*
X95972380Y-53855952D01*
X96020000Y-53665476D01*
X96067619Y-53570238D01*
X96162857Y-53475000D01*
X96305714Y-53427380D01*
X96400952Y-53427380D01*
X96543809Y-53475000D01*
X96591428Y-53522619D01*
X96972380Y-53522619D02*
X97020000Y-53475000D01*
X97115238Y-53427380D01*
X97353333Y-53427380D01*
X97448571Y-53475000D01*
X97496190Y-53522619D01*
X97543809Y-53617857D01*
X97543809Y-53713095D01*
X97496190Y-53855952D01*
X96924761Y-54427380D01*
X97543809Y-54427380D01*
X121793333Y-82677142D02*
X121745714Y-82724761D01*
X121602857Y-82772380D01*
X121507619Y-82772380D01*
X121364761Y-82724761D01*
X121269523Y-82629523D01*
X121221904Y-82534285D01*
X121174285Y-82343809D01*
X121174285Y-82200952D01*
X121221904Y-82010476D01*
X121269523Y-81915238D01*
X121364761Y-81820000D01*
X121507619Y-81772380D01*
X121602857Y-81772380D01*
X121745714Y-81820000D01*
X121793333Y-81867619D01*
X122745714Y-82772380D02*
X122174285Y-82772380D01*
X122460000Y-82772380D02*
X122460000Y-81772380D01*
X122364761Y-81915238D01*
X122269523Y-82010476D01*
X122174285Y-82058095D01*
X104433809Y-58237380D02*
X104433809Y-57237380D01*
X105481428Y-58142142D02*
X105433809Y-58189761D01*
X105290952Y-58237380D01*
X105195714Y-58237380D01*
X105052857Y-58189761D01*
X104957619Y-58094523D01*
X104910000Y-57999285D01*
X104862380Y-57808809D01*
X104862380Y-57665952D01*
X104910000Y-57475476D01*
X104957619Y-57380238D01*
X105052857Y-57285000D01*
X105195714Y-57237380D01*
X105290952Y-57237380D01*
X105433809Y-57285000D01*
X105481428Y-57332619D01*
X106433809Y-58237380D02*
X105862380Y-58237380D01*
X106148095Y-58237380D02*
X106148095Y-57237380D01*
X106052857Y-57380238D01*
X105957619Y-57475476D01*
X105862380Y-57523095D01*
X117133809Y-57602380D02*
X117133809Y-56602380D01*
X118181428Y-57507142D02*
X118133809Y-57554761D01*
X117990952Y-57602380D01*
X117895714Y-57602380D01*
X117752857Y-57554761D01*
X117657619Y-57459523D01*
X117610000Y-57364285D01*
X117562380Y-57173809D01*
X117562380Y-57030952D01*
X117610000Y-56840476D01*
X117657619Y-56745238D01*
X117752857Y-56650000D01*
X117895714Y-56602380D01*
X117990952Y-56602380D01*
X118133809Y-56650000D01*
X118181428Y-56697619D01*
X118514761Y-56602380D02*
X119133809Y-56602380D01*
X118800476Y-56983333D01*
X118943333Y-56983333D01*
X119038571Y-57030952D01*
X119086190Y-57078571D01*
X119133809Y-57173809D01*
X119133809Y-57411904D01*
X119086190Y-57507142D01*
X119038571Y-57554761D01*
X118943333Y-57602380D01*
X118657619Y-57602380D01*
X118562380Y-57554761D01*
X118514761Y-57507142D01*
M02*
