M48
; DRILL file {KiCad (5.1.4)-1} date 11/10/2020 13:25:17
; FORMAT={-:-/ absolute / inch / decimal}
; #@! TF.CreationDate,2020-10-11T13:25:17+02:00
; #@! TF.GenerationSoftware,Kicad,Pcbnew,(5.1.4)-1
FMAT,2
INCH
T1C0.0315
%
G90
G05
T1
X3.9Y-2.15
X3.9Y-2.25
X3.9Y-2.35
X3.9Y-2.45
X3.9Y-2.55
X3.9Y-2.65
X3.9Y-2.75
X3.9Y-2.85
X3.9Y-2.95
X3.9Y-3.05
X3.9Y-3.15
X3.9Y-3.25
X4.5Y-2.15
X4.5Y-2.25
X4.5Y-2.35
X4.5Y-2.45
X4.5Y-2.55
X4.5Y-2.65
X4.5Y-2.75
X4.5Y-2.85
X4.5Y-2.95
X4.5Y-3.05
X4.5Y-3.15
X4.5Y-3.25
X4.0Y-2.25
X4.0Y-2.35
X4.0Y-2.45
X4.0Y-2.55
X4.0Y-2.65
X4.0Y-2.75
X4.0Y-2.85
X4.0Y-2.95
X4.0Y-3.05
X4.3Y-2.25
X4.3Y-2.35
X4.3Y-2.45
X4.3Y-2.55
X4.3Y-2.65
X4.3Y-2.75
X4.3Y-2.85
X4.3Y-2.95
X4.3Y-3.05
X3.8Y-2.65
X3.8Y-2.75
X3.8Y-2.85
X3.8Y-2.95
X4.7031Y-3.15
X4.9Y-3.15
X4.65Y-2.35
X4.65Y-2.45
X4.65Y-2.55
X4.65Y-2.65
X4.65Y-2.75
X4.65Y-2.85
X4.65Y-2.95
X4.95Y-2.35
X4.95Y-2.45
X4.95Y-2.55
X4.95Y-2.65
X4.95Y-2.75
X4.95Y-2.85
X4.95Y-2.95
T0
M30
