G04 #@! TF.GenerationSoftware,KiCad,Pcbnew,(5.1.4)-1*
G04 #@! TF.CreationDate,2020-10-11T11:48:53+02:00*
G04 #@! TF.ProjectId,junior-computer,6a756e69-6f72-42d6-936f-6d7075746572,rev?*
G04 #@! TF.SameCoordinates,Original*
G04 #@! TF.FileFunction,Legend,Bot*
G04 #@! TF.FilePolarity,Positive*
%FSLAX46Y46*%
G04 Gerber Fmt 4.6, Leading zero omitted, Abs format (unit mm)*
G04 Created by KiCad (PCBNEW (5.1.4)-1) date 2020-10-11 11:48:53*
%MOMM*%
%LPD*%
G04 APERTURE LIST*
%ADD10C,0.150000*%
%ADD11C,0.500000*%
%ADD12C,0.800000*%
%ADD13C,0.300000*%
%ADD14C,0.400000*%
%ADD15C,1.000000*%
%ADD16C,0.600000*%
%ADD17C,0.550000*%
%ADD18C,0.375000*%
%ADD19C,0.312500*%
%ADD20C,0.250000*%
G04 APERTURE END LIST*
D10*
X84094761Y-29932380D02*
X84094761Y-30646666D01*
X84142380Y-30789523D01*
X84237619Y-30884761D01*
X84380476Y-30932380D01*
X84475714Y-30932380D01*
X83189999Y-30265714D02*
X83189999Y-30932380D01*
X83618571Y-30265714D02*
X83618571Y-30789523D01*
X83570952Y-30884761D01*
X83475714Y-30932380D01*
X83332857Y-30932380D01*
X83237619Y-30884761D01*
X83189999Y-30837142D01*
X82713809Y-30265714D02*
X82713809Y-30932380D01*
X82713809Y-30360952D02*
X82666190Y-30313333D01*
X82570952Y-30265714D01*
X82428095Y-30265714D01*
X82332857Y-30313333D01*
X82285238Y-30408571D01*
X82285238Y-30932380D01*
X81809047Y-30932380D02*
X81809047Y-30265714D01*
X81809047Y-29932380D02*
X81856666Y-29980000D01*
X81809047Y-30027619D01*
X81761428Y-29980000D01*
X81809047Y-29932380D01*
X81809047Y-30027619D01*
X81189999Y-30932380D02*
X81285238Y-30884761D01*
X81332857Y-30837142D01*
X81380476Y-30741904D01*
X81380476Y-30456190D01*
X81332857Y-30360952D01*
X81285238Y-30313333D01*
X81189999Y-30265714D01*
X81047142Y-30265714D01*
X80951904Y-30313333D01*
X80904285Y-30360952D01*
X80856666Y-30456190D01*
X80856666Y-30741904D01*
X80904285Y-30837142D01*
X80951904Y-30884761D01*
X81047142Y-30932380D01*
X81189999Y-30932380D01*
X80428095Y-30932380D02*
X80428095Y-30265714D01*
X80428095Y-30456190D02*
X80380476Y-30360952D01*
X80332857Y-30313333D01*
X80237619Y-30265714D01*
X80142380Y-30265714D01*
X78475714Y-30837142D02*
X78523333Y-30884761D01*
X78666190Y-30932380D01*
X78761428Y-30932380D01*
X78904285Y-30884761D01*
X78999523Y-30789523D01*
X79047142Y-30694285D01*
X79094761Y-30503809D01*
X79094761Y-30360952D01*
X79047142Y-30170476D01*
X78999523Y-30075238D01*
X78904285Y-29980000D01*
X78761428Y-29932380D01*
X78666190Y-29932380D01*
X78523333Y-29980000D01*
X78475714Y-30027619D01*
X77904285Y-30932380D02*
X77999523Y-30884761D01*
X78047142Y-30837142D01*
X78094761Y-30741904D01*
X78094761Y-30456190D01*
X78047142Y-30360952D01*
X77999523Y-30313333D01*
X77904285Y-30265714D01*
X77761428Y-30265714D01*
X77666190Y-30313333D01*
X77618571Y-30360952D01*
X77570952Y-30456190D01*
X77570952Y-30741904D01*
X77618571Y-30837142D01*
X77666190Y-30884761D01*
X77761428Y-30932380D01*
X77904285Y-30932380D01*
X77142380Y-30932380D02*
X77142380Y-30265714D01*
X77142380Y-30360952D02*
X77094761Y-30313333D01*
X76999523Y-30265714D01*
X76856666Y-30265714D01*
X76761428Y-30313333D01*
X76713809Y-30408571D01*
X76713809Y-30932380D01*
X76713809Y-30408571D02*
X76666190Y-30313333D01*
X76570952Y-30265714D01*
X76428095Y-30265714D01*
X76332857Y-30313333D01*
X76285238Y-30408571D01*
X76285238Y-30932380D01*
X75809047Y-30265714D02*
X75809047Y-31265714D01*
X75809047Y-30313333D02*
X75713809Y-30265714D01*
X75523333Y-30265714D01*
X75428095Y-30313333D01*
X75380476Y-30360952D01*
X75332857Y-30456190D01*
X75332857Y-30741904D01*
X75380476Y-30837142D01*
X75428095Y-30884761D01*
X75523333Y-30932380D01*
X75713809Y-30932380D01*
X75809047Y-30884761D01*
X74475714Y-30265714D02*
X74475714Y-30932380D01*
X74904285Y-30265714D02*
X74904285Y-30789523D01*
X74856666Y-30884761D01*
X74761428Y-30932380D01*
X74618571Y-30932380D01*
X74523333Y-30884761D01*
X74475714Y-30837142D01*
X74142380Y-30265714D02*
X73761428Y-30265714D01*
X73999523Y-29932380D02*
X73999523Y-30789523D01*
X73951904Y-30884761D01*
X73856666Y-30932380D01*
X73761428Y-30932380D01*
X73047142Y-30884761D02*
X73142380Y-30932380D01*
X73332857Y-30932380D01*
X73428095Y-30884761D01*
X73475714Y-30789523D01*
X73475714Y-30408571D01*
X73428095Y-30313333D01*
X73332857Y-30265714D01*
X73142380Y-30265714D01*
X73047142Y-30313333D01*
X72999523Y-30408571D01*
X72999523Y-30503809D01*
X73475714Y-30599047D01*
X72570952Y-30932380D02*
X72570952Y-30265714D01*
X72570952Y-30456190D02*
X72523333Y-30360952D01*
X72475714Y-30313333D01*
X72380476Y-30265714D01*
X72285238Y-30265714D01*
X71189999Y-30408571D02*
X70856666Y-30408571D01*
X70713809Y-30932380D02*
X71189999Y-30932380D01*
X71189999Y-29932380D01*
X70713809Y-29932380D01*
X70142380Y-30932380D02*
X70237619Y-30884761D01*
X70285238Y-30789523D01*
X70285238Y-29932380D01*
X69380476Y-30884761D02*
X69475714Y-30932380D01*
X69666190Y-30932380D01*
X69761428Y-30884761D01*
X69809047Y-30789523D01*
X69809047Y-30408571D01*
X69761428Y-30313333D01*
X69666190Y-30265714D01*
X69475714Y-30265714D01*
X69380476Y-30313333D01*
X69332857Y-30408571D01*
X69332857Y-30503809D01*
X69809047Y-30599047D01*
X68904285Y-30932380D02*
X68904285Y-29932380D01*
X68809047Y-30551428D02*
X68523333Y-30932380D01*
X68523333Y-30265714D02*
X68904285Y-30646666D01*
X68237619Y-30265714D02*
X67856666Y-30265714D01*
X68094761Y-29932380D02*
X68094761Y-30789523D01*
X68047142Y-30884761D01*
X67951904Y-30932380D01*
X67856666Y-30932380D01*
X67380476Y-30932380D02*
X67475714Y-30884761D01*
X67523333Y-30837142D01*
X67570952Y-30741904D01*
X67570952Y-30456190D01*
X67523333Y-30360952D01*
X67475714Y-30313333D01*
X67380476Y-30265714D01*
X67237619Y-30265714D01*
X67142380Y-30313333D01*
X67094761Y-30360952D01*
X67047142Y-30456190D01*
X67047142Y-30741904D01*
X67094761Y-30837142D01*
X67142380Y-30884761D01*
X67237619Y-30932380D01*
X67380476Y-30932380D01*
X66618571Y-30932380D02*
X66618571Y-30265714D01*
X66618571Y-30456190D02*
X66570952Y-30360952D01*
X66523333Y-30313333D01*
X66428095Y-30265714D01*
X66332857Y-30265714D01*
X65047142Y-29932380D02*
X64951904Y-29932380D01*
X64856666Y-29980000D01*
X64809047Y-30027619D01*
X64761428Y-30122857D01*
X64713809Y-30313333D01*
X64713809Y-30551428D01*
X64761428Y-30741904D01*
X64809047Y-30837142D01*
X64856666Y-30884761D01*
X64951904Y-30932380D01*
X65047142Y-30932380D01*
X65142380Y-30884761D01*
X65189999Y-30837142D01*
X65237619Y-30741904D01*
X65285238Y-30551428D01*
X65285238Y-30313333D01*
X65237619Y-30122857D01*
X65189999Y-30027619D01*
X65142380Y-29980000D01*
X65047142Y-29932380D01*
X63856666Y-30265714D02*
X63856666Y-30932380D01*
X64094761Y-29884761D02*
X64332857Y-30599047D01*
X63713809Y-30599047D01*
X62618571Y-29884761D02*
X63475714Y-31170476D01*
X61761428Y-30932380D02*
X62332857Y-30932380D01*
X62047142Y-30932380D02*
X62047142Y-29932380D01*
X62142380Y-30075238D01*
X62237619Y-30170476D01*
X62332857Y-30218095D01*
X61285238Y-30932380D02*
X61094761Y-30932380D01*
X60999523Y-30884761D01*
X60951904Y-30837142D01*
X60856666Y-30694285D01*
X60809047Y-30503809D01*
X60809047Y-30122857D01*
X60856666Y-30027619D01*
X60904285Y-29980000D01*
X60999523Y-29932380D01*
X61190000Y-29932380D01*
X61285238Y-29980000D01*
X61332857Y-30027619D01*
X61380476Y-30122857D01*
X61380476Y-30360952D01*
X61332857Y-30456190D01*
X61285238Y-30503809D01*
X61190000Y-30551428D01*
X60999523Y-30551428D01*
X60904285Y-30503809D01*
X60856666Y-30456190D01*
X60809047Y-30360952D01*
X60237619Y-30360952D02*
X60332857Y-30313333D01*
X60380476Y-30265714D01*
X60428095Y-30170476D01*
X60428095Y-30122857D01*
X60380476Y-30027619D01*
X60332857Y-29980000D01*
X60237619Y-29932380D01*
X60047142Y-29932380D01*
X59951904Y-29980000D01*
X59904285Y-30027619D01*
X59856666Y-30122857D01*
X59856666Y-30170476D01*
X59904285Y-30265714D01*
X59951904Y-30313333D01*
X60047142Y-30360952D01*
X60237619Y-30360952D01*
X60332857Y-30408571D01*
X60380476Y-30456190D01*
X60428095Y-30551428D01*
X60428095Y-30741904D01*
X60380476Y-30837142D01*
X60332857Y-30884761D01*
X60237619Y-30932380D01*
X60047142Y-30932380D01*
X59951904Y-30884761D01*
X59904285Y-30837142D01*
X59856666Y-30741904D01*
X59856666Y-30551428D01*
X59904285Y-30456190D01*
X59951904Y-30408571D01*
X60047142Y-30360952D01*
X59237619Y-29932380D02*
X59142380Y-29932380D01*
X59047142Y-29980000D01*
X58999523Y-30027619D01*
X58951904Y-30122857D01*
X58904285Y-30313333D01*
X58904285Y-30551428D01*
X58951904Y-30741904D01*
X58999523Y-30837142D01*
X59047142Y-30884761D01*
X59142380Y-30932380D01*
X59237619Y-30932380D01*
X59332857Y-30884761D01*
X59380476Y-30837142D01*
X59428095Y-30741904D01*
X59475714Y-30551428D01*
X59475714Y-30313333D01*
X59428095Y-30122857D01*
X59380476Y-30027619D01*
X59332857Y-29980000D01*
X59237619Y-29932380D01*
X57475714Y-31265714D02*
X57475714Y-29837142D01*
X55428095Y-30932380D02*
X55761428Y-30456190D01*
X55999523Y-30932380D02*
X55999523Y-29932380D01*
X55618571Y-29932380D01*
X55523333Y-29980000D01*
X55475714Y-30027619D01*
X55428095Y-30122857D01*
X55428095Y-30265714D01*
X55475714Y-30360952D01*
X55523333Y-30408571D01*
X55618571Y-30456190D01*
X55999523Y-30456190D01*
X54618571Y-30884761D02*
X54713809Y-30932380D01*
X54904285Y-30932380D01*
X54999523Y-30884761D01*
X55047142Y-30789523D01*
X55047142Y-30408571D01*
X54999523Y-30313333D01*
X54904285Y-30265714D01*
X54713809Y-30265714D01*
X54618571Y-30313333D01*
X54570952Y-30408571D01*
X54570952Y-30503809D01*
X55047142Y-30599047D01*
X54142380Y-30265714D02*
X54142380Y-31265714D01*
X54142380Y-30313333D02*
X54047142Y-30265714D01*
X53856666Y-30265714D01*
X53761428Y-30313333D01*
X53713809Y-30360952D01*
X53666190Y-30456190D01*
X53666190Y-30741904D01*
X53713809Y-30837142D01*
X53761428Y-30884761D01*
X53856666Y-30932380D01*
X54047142Y-30932380D01*
X54142380Y-30884761D01*
X53094761Y-30932380D02*
X53190000Y-30884761D01*
X53237619Y-30789523D01*
X53237619Y-29932380D01*
X52713809Y-30932380D02*
X52713809Y-30265714D01*
X52713809Y-29932380D02*
X52761428Y-29980000D01*
X52713809Y-30027619D01*
X52666190Y-29980000D01*
X52713809Y-29932380D01*
X52713809Y-30027619D01*
X51809047Y-30884761D02*
X51904285Y-30932380D01*
X52094761Y-30932380D01*
X52190000Y-30884761D01*
X52237619Y-30837142D01*
X52285238Y-30741904D01*
X52285238Y-30456190D01*
X52237619Y-30360952D01*
X52190000Y-30313333D01*
X52094761Y-30265714D01*
X51904285Y-30265714D01*
X51809047Y-30313333D01*
X50951904Y-30932380D02*
X50951904Y-30408571D01*
X50999523Y-30313333D01*
X51094761Y-30265714D01*
X51285238Y-30265714D01*
X51380476Y-30313333D01*
X50951904Y-30884761D02*
X51047142Y-30932380D01*
X51285238Y-30932380D01*
X51380476Y-30884761D01*
X51428095Y-30789523D01*
X51428095Y-30694285D01*
X51380476Y-30599047D01*
X51285238Y-30551428D01*
X51047142Y-30551428D01*
X50951904Y-30503809D01*
X49094761Y-30456190D02*
X49142380Y-30408571D01*
X49237619Y-30360952D01*
X49332857Y-30360952D01*
X49428095Y-30408571D01*
X49475714Y-30456190D01*
X49523333Y-30551428D01*
X49523333Y-30646666D01*
X49475714Y-30741904D01*
X49428095Y-30789523D01*
X49332857Y-30837142D01*
X49237619Y-30837142D01*
X49142380Y-30789523D01*
X49094761Y-30741904D01*
X49094761Y-30360952D02*
X49094761Y-30741904D01*
X49047142Y-30789523D01*
X48999523Y-30789523D01*
X48904285Y-30741904D01*
X48856666Y-30646666D01*
X48856666Y-30408571D01*
X48951904Y-30265714D01*
X49094761Y-30170476D01*
X49285238Y-30122857D01*
X49475714Y-30170476D01*
X49618571Y-30265714D01*
X49713809Y-30408571D01*
X49761428Y-30599047D01*
X49713809Y-30789523D01*
X49618571Y-30932380D01*
X49475714Y-31027619D01*
X49285238Y-31075238D01*
X49094761Y-31027619D01*
X48951904Y-30932380D01*
X48666190Y-31027619D02*
X47904285Y-31027619D01*
X47190000Y-30932380D02*
X47666190Y-30932380D01*
X47666190Y-29932380D01*
X46428095Y-30932380D02*
X46428095Y-30408571D01*
X46475714Y-30313333D01*
X46570952Y-30265714D01*
X46761428Y-30265714D01*
X46856666Y-30313333D01*
X46428095Y-30884761D02*
X46523333Y-30932380D01*
X46761428Y-30932380D01*
X46856666Y-30884761D01*
X46904285Y-30789523D01*
X46904285Y-30694285D01*
X46856666Y-30599047D01*
X46761428Y-30551428D01*
X46523333Y-30551428D01*
X46428095Y-30503809D01*
X45523333Y-30265714D02*
X45523333Y-30932380D01*
X45951904Y-30265714D02*
X45951904Y-30789523D01*
X45904285Y-30884761D01*
X45809047Y-30932380D01*
X45666190Y-30932380D01*
X45570952Y-30884761D01*
X45523333Y-30837142D01*
X45047142Y-30932380D02*
X45047142Y-30265714D01*
X45047142Y-30456190D02*
X44999523Y-30360952D01*
X44951904Y-30313333D01*
X44856666Y-30265714D01*
X44761428Y-30265714D01*
X44047142Y-30884761D02*
X44142380Y-30932380D01*
X44332857Y-30932380D01*
X44428095Y-30884761D01*
X44475714Y-30789523D01*
X44475714Y-30408571D01*
X44428095Y-30313333D01*
X44332857Y-30265714D01*
X44142380Y-30265714D01*
X44047142Y-30313333D01*
X43999523Y-30408571D01*
X43999523Y-30503809D01*
X44475714Y-30599047D01*
X43570952Y-30265714D02*
X43570952Y-30932380D01*
X43570952Y-30360952D02*
X43523333Y-30313333D01*
X43428095Y-30265714D01*
X43285238Y-30265714D01*
X43190000Y-30313333D01*
X43142380Y-30408571D01*
X43142380Y-30932380D01*
X42809047Y-30265714D02*
X42428095Y-30265714D01*
X42666190Y-29932380D02*
X42666190Y-30789523D01*
X42618571Y-30884761D01*
X42523333Y-30932380D01*
X42428095Y-30932380D01*
X42332857Y-31027619D02*
X41570952Y-31027619D01*
X40999523Y-30408571D02*
X41332857Y-30408571D01*
X41332857Y-30932380D02*
X41332857Y-29932380D01*
X40856666Y-29932380D01*
X40475714Y-30932380D02*
X40475714Y-30265714D01*
X40475714Y-30456190D02*
X40428095Y-30360952D01*
X40380476Y-30313333D01*
X40285238Y-30265714D01*
X40190000Y-30265714D01*
X40094761Y-31027619D02*
X39332857Y-31027619D01*
X38380476Y-30027619D02*
X38332857Y-29980000D01*
X38237619Y-29932380D01*
X37999523Y-29932380D01*
X37904285Y-29980000D01*
X37856666Y-30027619D01*
X37809047Y-30122857D01*
X37809047Y-30218095D01*
X37856666Y-30360952D01*
X38428095Y-30932380D01*
X37809047Y-30932380D01*
X37190000Y-29932380D02*
X37094761Y-29932380D01*
X36999523Y-29980000D01*
X36951904Y-30027619D01*
X36904285Y-30122857D01*
X36856666Y-30313333D01*
X36856666Y-30551428D01*
X36904285Y-30741904D01*
X36951904Y-30837142D01*
X36999523Y-30884761D01*
X37094761Y-30932380D01*
X37190000Y-30932380D01*
X37285238Y-30884761D01*
X37332857Y-30837142D01*
X37380476Y-30741904D01*
X37428095Y-30551428D01*
X37428095Y-30313333D01*
X37380476Y-30122857D01*
X37332857Y-30027619D01*
X37285238Y-29980000D01*
X37190000Y-29932380D01*
X36475714Y-30027619D02*
X36428095Y-29980000D01*
X36332857Y-29932380D01*
X36094761Y-29932380D01*
X35999523Y-29980000D01*
X35951904Y-30027619D01*
X35904285Y-30122857D01*
X35904285Y-30218095D01*
X35951904Y-30360952D01*
X36523333Y-30932380D01*
X35904285Y-30932380D01*
X35285238Y-29932380D02*
X35190000Y-29932380D01*
X35094761Y-29980000D01*
X35047142Y-30027619D01*
X34999523Y-30122857D01*
X34951904Y-30313333D01*
X34951904Y-30551428D01*
X34999523Y-30741904D01*
X35047142Y-30837142D01*
X35094761Y-30884761D01*
X35190000Y-30932380D01*
X35285238Y-30932380D01*
X35380476Y-30884761D01*
X35428095Y-30837142D01*
X35475714Y-30741904D01*
X35523333Y-30551428D01*
X35523333Y-30313333D01*
X35475714Y-30122857D01*
X35428095Y-30027619D01*
X35380476Y-29980000D01*
X35285238Y-29932380D01*
D11*
X69850000Y-123444000D02*
X69850000Y-124460000D01*
X69850000Y-127000000D02*
X69850000Y-125476000D01*
X69850000Y-128740000D02*
X69850000Y-128016000D01*
D12*
X70650000Y-129540000D02*
G75*
G03X70650000Y-129540000I-800000J0D01*
G01*
D13*
X68072000Y-120142000D02*
X71628000Y-120142000D01*
X68072000Y-118618000D02*
X68072000Y-120142000D01*
X71628000Y-118618000D02*
X68072000Y-118618000D01*
X71628000Y-120142000D02*
X71628000Y-118618000D01*
X67564000Y-120650000D02*
X72136000Y-120650000D01*
X67564000Y-118110000D02*
X72136000Y-118110000D01*
D10*
X69723000Y-117856000D02*
X69977000Y-117856000D01*
D12*
X70650000Y-121920000D02*
G75*
G03X70650000Y-121920000I-800000J0D01*
G01*
X70650000Y-116840000D02*
G75*
G03X70650000Y-116840000I-800000J0D01*
G01*
D14*
X212090000Y-77470000D02*
X212090000Y-64770000D01*
X207010000Y-77470000D02*
X217170000Y-77470000D01*
X207010000Y-64770000D02*
X207010000Y-77470000D01*
X217170000Y-64770000D02*
X207010000Y-64770000D01*
D12*
X210820000Y-76200000D02*
X208280000Y-76200000D01*
X215900000Y-76200000D02*
X213360000Y-76200000D01*
D14*
X217170000Y-64770000D02*
X217170000Y-77470000D01*
D15*
X215130000Y-66040000D02*
G75*
G03X215130000Y-66040000I-500000J0D01*
G01*
D12*
X215900000Y-66040000D02*
X213360000Y-66040000D01*
D14*
X221310000Y-66040000D02*
G75*
G03X221310000Y-66040000I-1600000J0D01*
G01*
X215130000Y-66040000D02*
X218110000Y-66040000D01*
D15*
X215130000Y-71120000D02*
G75*
G03X215130000Y-71120000I-500000J0D01*
G01*
D12*
X215900000Y-71120000D02*
X213360000Y-71120000D01*
D14*
X221310000Y-71120000D02*
G75*
G03X221310000Y-71120000I-1600000J0D01*
G01*
X215130000Y-71120000D02*
X218110000Y-71120000D01*
D15*
X210050000Y-71120000D02*
G75*
G03X210050000Y-71120000I-500000J0D01*
G01*
D12*
X208280000Y-71120000D02*
X210820000Y-71120000D01*
D14*
X206070000Y-71120000D02*
G75*
G03X206070000Y-71120000I-1600000J0D01*
G01*
X209050000Y-71120000D02*
X206070000Y-71120000D01*
X209050000Y-66040000D02*
X206070000Y-66040000D01*
X206070000Y-66040000D02*
G75*
G03X206070000Y-66040000I-1600000J0D01*
G01*
D12*
X208280000Y-66040000D02*
X210820000Y-66040000D01*
D15*
X210050000Y-66040000D02*
G75*
G03X210050000Y-66040000I-500000J0D01*
G01*
D14*
X231775000Y-73660000D02*
X222885000Y-73660000D01*
X231775000Y-68580000D02*
X222885000Y-68580000D01*
X222885000Y-77470000D02*
X231775000Y-77470000D01*
X222885000Y-64770000D02*
X222885000Y-77470000D01*
X231775000Y-64770000D02*
X222885000Y-64770000D01*
D12*
X228600000Y-76200000D02*
X226060000Y-76200000D01*
D14*
X231775000Y-64770000D02*
X231775000Y-77470000D01*
D15*
X227830000Y-66040000D02*
G75*
G03X227830000Y-66040000I-500000J0D01*
G01*
D12*
X228600000Y-66040000D02*
X226060000Y-66040000D01*
D14*
X236550000Y-66040000D02*
G75*
G03X236550000Y-66040000I-1600000J0D01*
G01*
X227330000Y-66040000D02*
X233350000Y-66040000D01*
X236550000Y-71120000D02*
G75*
G03X236550000Y-71120000I-1600000J0D01*
G01*
X229870000Y-71120000D02*
X233350000Y-71120000D01*
D10*
X75311000Y-133985000D02*
X75438000Y-133985000D01*
D12*
X74295000Y-133985000D02*
X73406000Y-134493000D01*
X73406000Y-133604000D02*
X74295000Y-133985000D01*
X73406000Y-134493000D02*
X73406000Y-133604000D01*
D13*
X73152000Y-132969000D02*
X73152000Y-135001000D01*
X75184000Y-133985000D02*
X73152000Y-132969000D01*
X73152000Y-135001000D02*
X75184000Y-133985000D01*
D10*
X75819000Y-132969000D02*
X75819000Y-134874000D01*
X75946000Y-132969000D02*
X75819000Y-132969000D01*
X75946000Y-135001000D02*
X75946000Y-132969000D01*
X75692000Y-135001000D02*
X75946000Y-135001000D01*
D14*
X75692000Y-132842000D02*
X75692000Y-135001000D01*
D10*
X76073000Y-132842000D02*
X75692000Y-132842000D01*
X76073000Y-135128000D02*
X76073000Y-132842000D01*
X75692000Y-135128000D02*
X76073000Y-135128000D01*
D14*
X75184000Y-133985000D02*
X70748026Y-133985000D01*
X79111974Y-133985000D02*
X76200000Y-133985000D01*
D10*
X75565000Y-135255000D02*
X76200000Y-135255000D01*
X75565000Y-132715000D02*
X75565000Y-135255000D01*
X76200000Y-132715000D02*
X75565000Y-132715000D01*
X76200000Y-135255000D02*
X76200000Y-132715000D01*
X75565000Y-133985000D02*
X73025000Y-135255000D01*
X73025000Y-132715000D02*
X75565000Y-133985000D01*
X73025000Y-135255000D02*
X73025000Y-132715000D01*
D11*
X80908026Y-133985000D02*
G75*
G03X80908026Y-133985000I-898026J0D01*
G01*
X70748026Y-133985000D02*
G75*
G03X70748026Y-133985000I-898026J0D01*
G01*
D10*
X230505000Y-121031000D02*
X230505000Y-121158000D01*
D12*
X230505000Y-120015000D02*
X229997000Y-119126000D01*
X230886000Y-119126000D02*
X230505000Y-120015000D01*
X229997000Y-119126000D02*
X230886000Y-119126000D01*
D13*
X231521000Y-118872000D02*
X229489000Y-118872000D01*
X230505000Y-120904000D02*
X231521000Y-118872000D01*
X229489000Y-118872000D02*
X230505000Y-120904000D01*
D10*
X231521000Y-121539000D02*
X229616000Y-121539000D01*
X231521000Y-121666000D02*
X231521000Y-121539000D01*
X229489000Y-121666000D02*
X231521000Y-121666000D01*
X229489000Y-121412000D02*
X229489000Y-121666000D01*
D14*
X231648000Y-121412000D02*
X229489000Y-121412000D01*
D10*
X231648000Y-121793000D02*
X231648000Y-121412000D01*
X229362000Y-121793000D02*
X231648000Y-121793000D01*
X229362000Y-121412000D02*
X229362000Y-121793000D01*
D14*
X230505000Y-120904000D02*
X230505000Y-116468026D01*
X230505000Y-124831974D02*
X230505000Y-121920000D01*
D10*
X229235000Y-121285000D02*
X229235000Y-121920000D01*
X231775000Y-121285000D02*
X229235000Y-121285000D01*
X231775000Y-121920000D02*
X231775000Y-121285000D01*
X229235000Y-121920000D02*
X231775000Y-121920000D01*
X230505000Y-121285000D02*
X229235000Y-118745000D01*
X231775000Y-118745000D02*
X230505000Y-121285000D01*
X229235000Y-118745000D02*
X231775000Y-118745000D01*
D11*
X231403026Y-125730000D02*
G75*
G03X231403026Y-125730000I-898026J0D01*
G01*
X231403026Y-115570000D02*
G75*
G03X231403026Y-115570000I-898026J0D01*
G01*
X69380000Y-74930000D02*
G75*
G03X69380000Y-74930000I-800000J0D01*
G01*
X69380000Y-57150000D02*
G75*
G03X69380000Y-57150000I-800000J0D01*
G01*
X69380000Y-59690000D02*
G75*
G03X69380000Y-59690000I-800000J0D01*
G01*
X69380000Y-62230000D02*
G75*
G03X69380000Y-62230000I-800000J0D01*
G01*
X69380000Y-64770000D02*
G75*
G03X69380000Y-64770000I-800000J0D01*
G01*
X69380000Y-67310000D02*
G75*
G03X69380000Y-67310000I-800000J0D01*
G01*
X69380000Y-69850000D02*
G75*
G03X69380000Y-69850000I-800000J0D01*
G01*
X69380000Y-72390000D02*
G75*
G03X69380000Y-72390000I-800000J0D01*
G01*
X69380000Y-77470000D02*
G75*
G03X69380000Y-77470000I-800000J0D01*
G01*
X69380000Y-80010000D02*
G75*
G03X69380000Y-80010000I-800000J0D01*
G01*
X69380000Y-82550000D02*
G75*
G03X69380000Y-82550000I-800000J0D01*
G01*
X54140000Y-57150000D02*
G75*
G03X54140000Y-57150000I-800000J0D01*
G01*
X54140000Y-59690000D02*
G75*
G03X54140000Y-59690000I-800000J0D01*
G01*
X54140000Y-62230000D02*
G75*
G03X54140000Y-62230000I-800000J0D01*
G01*
X54140000Y-64770000D02*
G75*
G03X54140000Y-64770000I-800000J0D01*
G01*
X54140000Y-67310000D02*
G75*
G03X54140000Y-67310000I-800000J0D01*
G01*
X54140000Y-69850000D02*
G75*
G03X54140000Y-69850000I-800000J0D01*
G01*
X54140000Y-72390000D02*
G75*
G03X54140000Y-72390000I-800000J0D01*
G01*
X54140000Y-74930000D02*
G75*
G03X54140000Y-74930000I-800000J0D01*
G01*
X54140000Y-77470000D02*
G75*
G03X54140000Y-77470000I-800000J0D01*
G01*
X54140000Y-80010000D02*
G75*
G03X54140000Y-80010000I-800000J0D01*
G01*
X54140000Y-82550000D02*
G75*
G03X54140000Y-82550000I-800000J0D01*
G01*
X69380000Y-87630000D02*
G75*
G03X69380000Y-87630000I-800000J0D01*
G01*
X69380000Y-85090000D02*
G75*
G03X69380000Y-85090000I-800000J0D01*
G01*
X54140000Y-85090000D02*
G75*
G03X54140000Y-85090000I-800000J0D01*
G01*
X54140000Y-87630000D02*
G75*
G03X54140000Y-87630000I-800000J0D01*
G01*
X59944000Y-107188000D02*
X54102000Y-107188000D01*
X61976000Y-107188000D02*
X67818000Y-107188000D01*
X61976000Y-107188000D02*
G75*
G03X59944000Y-107188000I-1016000J0D01*
G01*
X54140000Y-90170000D02*
G75*
G03X54140000Y-90170000I-800000J0D01*
G01*
X54140000Y-92710000D02*
G75*
G03X54140000Y-92710000I-800000J0D01*
G01*
X54140000Y-95250000D02*
G75*
G03X54140000Y-95250000I-800000J0D01*
G01*
X54140000Y-97790000D02*
G75*
G03X54140000Y-97790000I-800000J0D01*
G01*
X54140000Y-100330000D02*
G75*
G03X54140000Y-100330000I-800000J0D01*
G01*
X54140000Y-102870000D02*
G75*
G03X54140000Y-102870000I-800000J0D01*
G01*
X54140000Y-105410000D02*
G75*
G03X54140000Y-105410000I-800000J0D01*
G01*
X69380000Y-90170000D02*
G75*
G03X69380000Y-90170000I-800000J0D01*
G01*
X69380000Y-92710000D02*
G75*
G03X69380000Y-92710000I-800000J0D01*
G01*
X69380000Y-95250000D02*
G75*
G03X69380000Y-95250000I-800000J0D01*
G01*
X69380000Y-97790000D02*
G75*
G03X69380000Y-97790000I-800000J0D01*
G01*
X69380000Y-100330000D02*
G75*
G03X69380000Y-100330000I-800000J0D01*
G01*
X67818000Y-107188000D02*
X67818000Y-55245000D01*
X54102000Y-55245000D02*
X54102000Y-107188000D01*
X67818000Y-55245000D02*
X54102000Y-55245000D01*
X69380000Y-102870000D02*
G75*
G03X69380000Y-102870000I-800000J0D01*
G01*
X69380000Y-105410000D02*
G75*
G03X69380000Y-105410000I-800000J0D01*
G01*
X94780000Y-74930000D02*
G75*
G03X94780000Y-74930000I-800000J0D01*
G01*
X94780000Y-57150000D02*
G75*
G03X94780000Y-57150000I-800000J0D01*
G01*
X94780000Y-59690000D02*
G75*
G03X94780000Y-59690000I-800000J0D01*
G01*
X94780000Y-62230000D02*
G75*
G03X94780000Y-62230000I-800000J0D01*
G01*
X94780000Y-64770000D02*
G75*
G03X94780000Y-64770000I-800000J0D01*
G01*
X94780000Y-67310000D02*
G75*
G03X94780000Y-67310000I-800000J0D01*
G01*
X94780000Y-69850000D02*
G75*
G03X94780000Y-69850000I-800000J0D01*
G01*
X94780000Y-72390000D02*
G75*
G03X94780000Y-72390000I-800000J0D01*
G01*
X94780000Y-77470000D02*
G75*
G03X94780000Y-77470000I-800000J0D01*
G01*
X94780000Y-80010000D02*
G75*
G03X94780000Y-80010000I-800000J0D01*
G01*
X94780000Y-82550000D02*
G75*
G03X94780000Y-82550000I-800000J0D01*
G01*
X79540000Y-57150000D02*
G75*
G03X79540000Y-57150000I-800000J0D01*
G01*
X79540000Y-59690000D02*
G75*
G03X79540000Y-59690000I-800000J0D01*
G01*
X79540000Y-62230000D02*
G75*
G03X79540000Y-62230000I-800000J0D01*
G01*
X79540000Y-64770000D02*
G75*
G03X79540000Y-64770000I-800000J0D01*
G01*
X79540000Y-67310000D02*
G75*
G03X79540000Y-67310000I-800000J0D01*
G01*
X79540000Y-69850000D02*
G75*
G03X79540000Y-69850000I-800000J0D01*
G01*
X79540000Y-72390000D02*
G75*
G03X79540000Y-72390000I-800000J0D01*
G01*
X79540000Y-74930000D02*
G75*
G03X79540000Y-74930000I-800000J0D01*
G01*
X79540000Y-77470000D02*
G75*
G03X79540000Y-77470000I-800000J0D01*
G01*
X79540000Y-80010000D02*
G75*
G03X79540000Y-80010000I-800000J0D01*
G01*
X79540000Y-82550000D02*
G75*
G03X79540000Y-82550000I-800000J0D01*
G01*
X94780000Y-87630000D02*
G75*
G03X94780000Y-87630000I-800000J0D01*
G01*
X94780000Y-85090000D02*
G75*
G03X94780000Y-85090000I-800000J0D01*
G01*
X79540000Y-85090000D02*
G75*
G03X79540000Y-85090000I-800000J0D01*
G01*
X79540000Y-87630000D02*
G75*
G03X79540000Y-87630000I-800000J0D01*
G01*
X85344000Y-107188000D02*
X79502000Y-107188000D01*
X87376000Y-107188000D02*
X93218000Y-107188000D01*
X87376000Y-107188000D02*
G75*
G03X85344000Y-107188000I-1016000J0D01*
G01*
X79540000Y-90170000D02*
G75*
G03X79540000Y-90170000I-800000J0D01*
G01*
X79540000Y-92710000D02*
G75*
G03X79540000Y-92710000I-800000J0D01*
G01*
X79540000Y-95250000D02*
G75*
G03X79540000Y-95250000I-800000J0D01*
G01*
X79540000Y-97790000D02*
G75*
G03X79540000Y-97790000I-800000J0D01*
G01*
X79540000Y-100330000D02*
G75*
G03X79540000Y-100330000I-800000J0D01*
G01*
X79540000Y-102870000D02*
G75*
G03X79540000Y-102870000I-800000J0D01*
G01*
X79540000Y-105410000D02*
G75*
G03X79540000Y-105410000I-800000J0D01*
G01*
X94780000Y-90170000D02*
G75*
G03X94780000Y-90170000I-800000J0D01*
G01*
X94780000Y-92710000D02*
G75*
G03X94780000Y-92710000I-800000J0D01*
G01*
X94780000Y-95250000D02*
G75*
G03X94780000Y-95250000I-800000J0D01*
G01*
X94780000Y-97790000D02*
G75*
G03X94780000Y-97790000I-800000J0D01*
G01*
X94780000Y-100330000D02*
G75*
G03X94780000Y-100330000I-800000J0D01*
G01*
X93218000Y-107188000D02*
X93218000Y-55245000D01*
X79502000Y-55245000D02*
X79502000Y-107188000D01*
X93218000Y-55245000D02*
X79502000Y-55245000D01*
X94780000Y-102870000D02*
G75*
G03X94780000Y-102870000I-800000J0D01*
G01*
X94780000Y-105410000D02*
G75*
G03X94780000Y-105410000I-800000J0D01*
G01*
X121450000Y-77470000D02*
G75*
G03X121450000Y-77470000I-800000J0D01*
G01*
X121450000Y-80010000D02*
G75*
G03X121450000Y-80010000I-800000J0D01*
G01*
X121450000Y-82550000D02*
G75*
G03X121450000Y-82550000I-800000J0D01*
G01*
X106210000Y-77470000D02*
G75*
G03X106210000Y-77470000I-800000J0D01*
G01*
X106210000Y-80010000D02*
G75*
G03X106210000Y-80010000I-800000J0D01*
G01*
X106210000Y-82550000D02*
G75*
G03X106210000Y-82550000I-800000J0D01*
G01*
X121450000Y-87630000D02*
G75*
G03X121450000Y-87630000I-800000J0D01*
G01*
X121450000Y-85090000D02*
G75*
G03X121450000Y-85090000I-800000J0D01*
G01*
X106210000Y-85090000D02*
G75*
G03X106210000Y-85090000I-800000J0D01*
G01*
X106210000Y-87630000D02*
G75*
G03X106210000Y-87630000I-800000J0D01*
G01*
X112014000Y-107188000D02*
X106172000Y-107188000D01*
X114046000Y-107188000D02*
X119888000Y-107188000D01*
X114046000Y-107188000D02*
G75*
G03X112014000Y-107188000I-1016000J0D01*
G01*
X106210000Y-90170000D02*
G75*
G03X106210000Y-90170000I-800000J0D01*
G01*
X106210000Y-92710000D02*
G75*
G03X106210000Y-92710000I-800000J0D01*
G01*
X106210000Y-95250000D02*
G75*
G03X106210000Y-95250000I-800000J0D01*
G01*
X106210000Y-97790000D02*
G75*
G03X106210000Y-97790000I-800000J0D01*
G01*
X106210000Y-100330000D02*
G75*
G03X106210000Y-100330000I-800000J0D01*
G01*
X106210000Y-102870000D02*
G75*
G03X106210000Y-102870000I-800000J0D01*
G01*
X106210000Y-105410000D02*
G75*
G03X106210000Y-105410000I-800000J0D01*
G01*
X121450000Y-90170000D02*
G75*
G03X121450000Y-90170000I-800000J0D01*
G01*
X121450000Y-92710000D02*
G75*
G03X121450000Y-92710000I-800000J0D01*
G01*
X121450000Y-95250000D02*
G75*
G03X121450000Y-95250000I-800000J0D01*
G01*
X121450000Y-97790000D02*
G75*
G03X121450000Y-97790000I-800000J0D01*
G01*
X121450000Y-100330000D02*
G75*
G03X121450000Y-100330000I-800000J0D01*
G01*
X119888000Y-107188000D02*
X119888000Y-75565000D01*
X106172000Y-75565000D02*
X106172000Y-107188000D01*
X119888000Y-75565000D02*
X106172000Y-75565000D01*
X121450000Y-102870000D02*
G75*
G03X121450000Y-102870000I-800000J0D01*
G01*
X121450000Y-105410000D02*
G75*
G03X121450000Y-105410000I-800000J0D01*
G01*
X108750000Y-54610000D02*
G75*
G03X108750000Y-54610000I-800000J0D01*
G01*
X108750000Y-52070000D02*
G75*
G03X108750000Y-52070000I-800000J0D01*
G01*
X101130000Y-52070000D02*
G75*
G03X101130000Y-52070000I-800000J0D01*
G01*
X101130000Y-54610000D02*
G75*
G03X101130000Y-54610000I-800000J0D01*
G01*
X103124000Y-74168000D02*
X101092000Y-74168000D01*
X105156000Y-74168000D02*
X107188000Y-74168000D01*
X105156000Y-74168000D02*
G75*
G03X103124000Y-74168000I-1016000J0D01*
G01*
X101130000Y-57150000D02*
G75*
G03X101130000Y-57150000I-800000J0D01*
G01*
X101130000Y-59690000D02*
G75*
G03X101130000Y-59690000I-800000J0D01*
G01*
X101130000Y-62230000D02*
G75*
G03X101130000Y-62230000I-800000J0D01*
G01*
X101130000Y-64770000D02*
G75*
G03X101130000Y-64770000I-800000J0D01*
G01*
X101130000Y-67310000D02*
G75*
G03X101130000Y-67310000I-800000J0D01*
G01*
X101130000Y-69850000D02*
G75*
G03X101130000Y-69850000I-800000J0D01*
G01*
X101130000Y-72390000D02*
G75*
G03X101130000Y-72390000I-800000J0D01*
G01*
X108750000Y-57150000D02*
G75*
G03X108750000Y-57150000I-800000J0D01*
G01*
X108750000Y-59690000D02*
G75*
G03X108750000Y-59690000I-800000J0D01*
G01*
X108750000Y-62230000D02*
G75*
G03X108750000Y-62230000I-800000J0D01*
G01*
X108750000Y-64770000D02*
G75*
G03X108750000Y-64770000I-800000J0D01*
G01*
X108750000Y-67310000D02*
G75*
G03X108750000Y-67310000I-800000J0D01*
G01*
X107188000Y-74168000D02*
X107188000Y-50165000D01*
X101092000Y-50165000D02*
X101092000Y-74168000D01*
X107188000Y-50165000D02*
X101092000Y-50165000D01*
X108750000Y-69850000D02*
G75*
G03X108750000Y-69850000I-800000J0D01*
G01*
X108750000Y-72390000D02*
G75*
G03X108750000Y-72390000I-800000J0D01*
G01*
X121450000Y-54610000D02*
G75*
G03X121450000Y-54610000I-800000J0D01*
G01*
X121450000Y-52070000D02*
G75*
G03X121450000Y-52070000I-800000J0D01*
G01*
X113830000Y-52070000D02*
G75*
G03X113830000Y-52070000I-800000J0D01*
G01*
X113830000Y-54610000D02*
G75*
G03X113830000Y-54610000I-800000J0D01*
G01*
X115824000Y-74168000D02*
X113792000Y-74168000D01*
X117856000Y-74168000D02*
X119888000Y-74168000D01*
X117856000Y-74168000D02*
G75*
G03X115824000Y-74168000I-1016000J0D01*
G01*
X113830000Y-57150000D02*
G75*
G03X113830000Y-57150000I-800000J0D01*
G01*
X113830000Y-59690000D02*
G75*
G03X113830000Y-59690000I-800000J0D01*
G01*
X113830000Y-62230000D02*
G75*
G03X113830000Y-62230000I-800000J0D01*
G01*
X113830000Y-64770000D02*
G75*
G03X113830000Y-64770000I-800000J0D01*
G01*
X113830000Y-67310000D02*
G75*
G03X113830000Y-67310000I-800000J0D01*
G01*
X113830000Y-69850000D02*
G75*
G03X113830000Y-69850000I-800000J0D01*
G01*
X113830000Y-72390000D02*
G75*
G03X113830000Y-72390000I-800000J0D01*
G01*
X121450000Y-57150000D02*
G75*
G03X121450000Y-57150000I-800000J0D01*
G01*
X121450000Y-59690000D02*
G75*
G03X121450000Y-59690000I-800000J0D01*
G01*
X121450000Y-62230000D02*
G75*
G03X121450000Y-62230000I-800000J0D01*
G01*
X121450000Y-64770000D02*
G75*
G03X121450000Y-64770000I-800000J0D01*
G01*
X121450000Y-67310000D02*
G75*
G03X121450000Y-67310000I-800000J0D01*
G01*
X119888000Y-74168000D02*
X119888000Y-50165000D01*
X113792000Y-50165000D02*
X113792000Y-74168000D01*
X119888000Y-50165000D02*
X113792000Y-50165000D01*
X121450000Y-69850000D02*
G75*
G03X121450000Y-69850000I-800000J0D01*
G01*
X121450000Y-72390000D02*
G75*
G03X121450000Y-72390000I-800000J0D01*
G01*
X197650000Y-52070000D02*
G75*
G03X197650000Y-52070000I-800000J0D01*
G01*
X197650000Y-44450000D02*
G75*
G03X197650000Y-44450000I-800000J0D01*
G01*
X177292000Y-47244000D02*
X177292000Y-45212000D01*
X177292000Y-49276000D02*
X177292000Y-51308000D01*
X177292000Y-49276000D02*
G75*
G03X177292000Y-47244000I0J1016000D01*
G01*
X195110000Y-44450000D02*
G75*
G03X195110000Y-44450000I-800000J0D01*
G01*
X192570000Y-44450000D02*
G75*
G03X192570000Y-44450000I-800000J0D01*
G01*
X190030000Y-44450000D02*
G75*
G03X190030000Y-44450000I-800000J0D01*
G01*
X187490000Y-44450000D02*
G75*
G03X187490000Y-44450000I-800000J0D01*
G01*
X184950000Y-44450000D02*
G75*
G03X184950000Y-44450000I-800000J0D01*
G01*
X182410000Y-44450000D02*
G75*
G03X182410000Y-44450000I-800000J0D01*
G01*
X179870000Y-44450000D02*
G75*
G03X179870000Y-44450000I-800000J0D01*
G01*
X195110000Y-52070000D02*
G75*
G03X195110000Y-52070000I-800000J0D01*
G01*
X192570000Y-52070000D02*
G75*
G03X192570000Y-52070000I-800000J0D01*
G01*
X190030000Y-52070000D02*
G75*
G03X190030000Y-52070000I-800000J0D01*
G01*
X187490000Y-52070000D02*
G75*
G03X187490000Y-52070000I-800000J0D01*
G01*
X184950000Y-52070000D02*
G75*
G03X184950000Y-52070000I-800000J0D01*
G01*
X177292000Y-51308000D02*
X198755000Y-51308000D01*
X198755000Y-45212000D02*
X177292000Y-45212000D01*
X198755000Y-51308000D02*
X198755000Y-45212000D01*
X182410000Y-52070000D02*
G75*
G03X182410000Y-52070000I-800000J0D01*
G01*
X179870000Y-52070000D02*
G75*
G03X179870000Y-52070000I-800000J0D01*
G01*
X151930000Y-52070000D02*
G75*
G03X151930000Y-52070000I-800000J0D01*
G01*
X151930000Y-44450000D02*
G75*
G03X151930000Y-44450000I-800000J0D01*
G01*
X131572000Y-47244000D02*
X131572000Y-45212000D01*
X131572000Y-49276000D02*
X131572000Y-51308000D01*
X131572000Y-49276000D02*
G75*
G03X131572000Y-47244000I0J1016000D01*
G01*
X149390000Y-44450000D02*
G75*
G03X149390000Y-44450000I-800000J0D01*
G01*
X146850000Y-44450000D02*
G75*
G03X146850000Y-44450000I-800000J0D01*
G01*
X144310000Y-44450000D02*
G75*
G03X144310000Y-44450000I-800000J0D01*
G01*
X141770000Y-44450000D02*
G75*
G03X141770000Y-44450000I-800000J0D01*
G01*
X139230000Y-44450000D02*
G75*
G03X139230000Y-44450000I-800000J0D01*
G01*
X136690000Y-44450000D02*
G75*
G03X136690000Y-44450000I-800000J0D01*
G01*
X134150000Y-44450000D02*
G75*
G03X134150000Y-44450000I-800000J0D01*
G01*
X149390000Y-52070000D02*
G75*
G03X149390000Y-52070000I-800000J0D01*
G01*
X146850000Y-52070000D02*
G75*
G03X146850000Y-52070000I-800000J0D01*
G01*
X144310000Y-52070000D02*
G75*
G03X144310000Y-52070000I-800000J0D01*
G01*
X141770000Y-52070000D02*
G75*
G03X141770000Y-52070000I-800000J0D01*
G01*
X139230000Y-52070000D02*
G75*
G03X139230000Y-52070000I-800000J0D01*
G01*
X131572000Y-51308000D02*
X153035000Y-51308000D01*
X153035000Y-45212000D02*
X131572000Y-45212000D01*
X153035000Y-51308000D02*
X153035000Y-45212000D01*
X136690000Y-52070000D02*
G75*
G03X136690000Y-52070000I-800000J0D01*
G01*
X134150000Y-52070000D02*
G75*
G03X134150000Y-52070000I-800000J0D01*
G01*
X61760000Y-113030000D02*
G75*
G03X61760000Y-113030000I-800000J0D01*
G01*
X54140000Y-113030000D02*
G75*
G03X54140000Y-113030000I-800000J0D01*
G01*
X56134000Y-132588000D02*
X54102000Y-132588000D01*
X58166000Y-132588000D02*
X60198000Y-132588000D01*
X58166000Y-132588000D02*
G75*
G03X56134000Y-132588000I-1016000J0D01*
G01*
X54140000Y-115570000D02*
G75*
G03X54140000Y-115570000I-800000J0D01*
G01*
X54140000Y-118110000D02*
G75*
G03X54140000Y-118110000I-800000J0D01*
G01*
X54140000Y-120650000D02*
G75*
G03X54140000Y-120650000I-800000J0D01*
G01*
X54140000Y-123190000D02*
G75*
G03X54140000Y-123190000I-800000J0D01*
G01*
X54140000Y-125730000D02*
G75*
G03X54140000Y-125730000I-800000J0D01*
G01*
X54140000Y-128270000D02*
G75*
G03X54140000Y-128270000I-800000J0D01*
G01*
X54140000Y-130810000D02*
G75*
G03X54140000Y-130810000I-800000J0D01*
G01*
X61760000Y-115570000D02*
G75*
G03X61760000Y-115570000I-800000J0D01*
G01*
X61760000Y-118110000D02*
G75*
G03X61760000Y-118110000I-800000J0D01*
G01*
X61760000Y-120650000D02*
G75*
G03X61760000Y-120650000I-800000J0D01*
G01*
X61760000Y-123190000D02*
G75*
G03X61760000Y-123190000I-800000J0D01*
G01*
X61760000Y-125730000D02*
G75*
G03X61760000Y-125730000I-800000J0D01*
G01*
X60198000Y-132588000D02*
X60198000Y-111125000D01*
X54102000Y-111125000D02*
X54102000Y-132588000D01*
X60198000Y-111125000D02*
X54102000Y-111125000D01*
X61760000Y-128270000D02*
G75*
G03X61760000Y-128270000I-800000J0D01*
G01*
X61760000Y-130810000D02*
G75*
G03X61760000Y-130810000I-800000J0D01*
G01*
X115824000Y-133858000D02*
X113792000Y-133858000D01*
X117856000Y-133858000D02*
X119888000Y-133858000D01*
X117856000Y-133858000D02*
G75*
G03X115824000Y-133858000I-1016000J0D01*
G01*
X113830000Y-116840000D02*
G75*
G03X113830000Y-116840000I-800000J0D01*
G01*
X113830000Y-119380000D02*
G75*
G03X113830000Y-119380000I-800000J0D01*
G01*
X113830000Y-121920000D02*
G75*
G03X113830000Y-121920000I-800000J0D01*
G01*
X113830000Y-124460000D02*
G75*
G03X113830000Y-124460000I-800000J0D01*
G01*
X113830000Y-127000000D02*
G75*
G03X113830000Y-127000000I-800000J0D01*
G01*
X113830000Y-129540000D02*
G75*
G03X113830000Y-129540000I-800000J0D01*
G01*
X113830000Y-132080000D02*
G75*
G03X113830000Y-132080000I-800000J0D01*
G01*
X121450000Y-116840000D02*
G75*
G03X121450000Y-116840000I-800000J0D01*
G01*
X121450000Y-119380000D02*
G75*
G03X121450000Y-119380000I-800000J0D01*
G01*
X121450000Y-121920000D02*
G75*
G03X121450000Y-121920000I-800000J0D01*
G01*
X121450000Y-124460000D02*
G75*
G03X121450000Y-124460000I-800000J0D01*
G01*
X121450000Y-127000000D02*
G75*
G03X121450000Y-127000000I-800000J0D01*
G01*
X119888000Y-133858000D02*
X119888000Y-115062000D01*
X113792000Y-115062000D02*
X113792000Y-133858000D01*
X119888000Y-115062000D02*
X113792000Y-115062000D01*
X121450000Y-129540000D02*
G75*
G03X121450000Y-129540000I-800000J0D01*
G01*
X121450000Y-132080000D02*
G75*
G03X121450000Y-132080000I-800000J0D01*
G01*
X89154000Y-133858000D02*
X87122000Y-133858000D01*
X91186000Y-133858000D02*
X93218000Y-133858000D01*
X91186000Y-133858000D02*
G75*
G03X89154000Y-133858000I-1016000J0D01*
G01*
X87160000Y-116840000D02*
G75*
G03X87160000Y-116840000I-800000J0D01*
G01*
X87160000Y-119380000D02*
G75*
G03X87160000Y-119380000I-800000J0D01*
G01*
X87160000Y-121920000D02*
G75*
G03X87160000Y-121920000I-800000J0D01*
G01*
X87160000Y-124460000D02*
G75*
G03X87160000Y-124460000I-800000J0D01*
G01*
X87160000Y-127000000D02*
G75*
G03X87160000Y-127000000I-800000J0D01*
G01*
X87160000Y-129540000D02*
G75*
G03X87160000Y-129540000I-800000J0D01*
G01*
X87160000Y-132080000D02*
G75*
G03X87160000Y-132080000I-800000J0D01*
G01*
X94780000Y-116840000D02*
G75*
G03X94780000Y-116840000I-800000J0D01*
G01*
X94780000Y-119380000D02*
G75*
G03X94780000Y-119380000I-800000J0D01*
G01*
X94780000Y-121920000D02*
G75*
G03X94780000Y-121920000I-800000J0D01*
G01*
X94780000Y-124460000D02*
G75*
G03X94780000Y-124460000I-800000J0D01*
G01*
X94780000Y-127000000D02*
G75*
G03X94780000Y-127000000I-800000J0D01*
G01*
X93218000Y-133858000D02*
X93218000Y-115062000D01*
X87122000Y-115062000D02*
X87122000Y-133858000D01*
X93218000Y-115062000D02*
X87122000Y-115062000D01*
X94780000Y-129540000D02*
G75*
G03X94780000Y-129540000I-800000J0D01*
G01*
X94780000Y-132080000D02*
G75*
G03X94780000Y-132080000I-800000J0D01*
G01*
X103124000Y-133858000D02*
X101092000Y-133858000D01*
X105156000Y-133858000D02*
X107188000Y-133858000D01*
X105156000Y-133858000D02*
G75*
G03X103124000Y-133858000I-1016000J0D01*
G01*
X101130000Y-116840000D02*
G75*
G03X101130000Y-116840000I-800000J0D01*
G01*
X101130000Y-119380000D02*
G75*
G03X101130000Y-119380000I-800000J0D01*
G01*
X101130000Y-121920000D02*
G75*
G03X101130000Y-121920000I-800000J0D01*
G01*
X101130000Y-124460000D02*
G75*
G03X101130000Y-124460000I-800000J0D01*
G01*
X101130000Y-127000000D02*
G75*
G03X101130000Y-127000000I-800000J0D01*
G01*
X101130000Y-129540000D02*
G75*
G03X101130000Y-129540000I-800000J0D01*
G01*
X101130000Y-132080000D02*
G75*
G03X101130000Y-132080000I-800000J0D01*
G01*
X108750000Y-116840000D02*
G75*
G03X108750000Y-116840000I-800000J0D01*
G01*
X108750000Y-119380000D02*
G75*
G03X108750000Y-119380000I-800000J0D01*
G01*
X108750000Y-121920000D02*
G75*
G03X108750000Y-121920000I-800000J0D01*
G01*
X108750000Y-124460000D02*
G75*
G03X108750000Y-124460000I-800000J0D01*
G01*
X108750000Y-127000000D02*
G75*
G03X108750000Y-127000000I-800000J0D01*
G01*
X107188000Y-133858000D02*
X107188000Y-115062000D01*
X101092000Y-115062000D02*
X101092000Y-133858000D01*
X107188000Y-115062000D02*
X101092000Y-115062000D01*
X108750000Y-129540000D02*
G75*
G03X108750000Y-129540000I-800000J0D01*
G01*
X108750000Y-132080000D02*
G75*
G03X108750000Y-132080000I-800000J0D01*
G01*
X77098026Y-129540000D02*
G75*
G03X77098026Y-129540000I-898026J0D01*
G01*
X77098026Y-116840000D02*
G75*
G03X77098026Y-116840000I-898026J0D01*
G01*
X78105000Y-118745000D02*
X76200000Y-118745000D01*
X78105000Y-127635000D02*
X78105000Y-118745000D01*
X76200000Y-127635000D02*
X78105000Y-127635000D01*
X76200000Y-127635000D02*
X76200000Y-128641974D01*
X74295000Y-127635000D02*
X76200000Y-127635000D01*
X74295000Y-118745000D02*
X74295000Y-127635000D01*
X76200000Y-118745000D02*
X74295000Y-118745000D01*
X76200000Y-117738026D02*
X76200000Y-118745000D01*
X108848026Y-109220000D02*
G75*
G03X108848026Y-109220000I-898026J0D01*
G01*
X121548026Y-109220000D02*
G75*
G03X121548026Y-109220000I-898026J0D01*
G01*
X118745000Y-111125000D02*
X118745000Y-109220000D01*
X109855000Y-111125000D02*
X118745000Y-111125000D01*
X109855000Y-109220000D02*
X109855000Y-111125000D01*
X109855000Y-109220000D02*
X108848026Y-109220000D01*
X109855000Y-107315000D02*
X109855000Y-109220000D01*
X118745000Y-107315000D02*
X109855000Y-107315000D01*
X118745000Y-109220000D02*
X118745000Y-107315000D01*
X119751974Y-109220000D02*
X118745000Y-109220000D01*
X108848026Y-113030000D02*
G75*
G03X108848026Y-113030000I-898026J0D01*
G01*
X121548026Y-113030000D02*
G75*
G03X121548026Y-113030000I-898026J0D01*
G01*
X118745000Y-114935000D02*
X118745000Y-113030000D01*
X109855000Y-114935000D02*
X118745000Y-114935000D01*
X109855000Y-113030000D02*
X109855000Y-114935000D01*
X109855000Y-113030000D02*
X108848026Y-113030000D01*
X109855000Y-111125000D02*
X109855000Y-113030000D01*
X118745000Y-111125000D02*
X109855000Y-111125000D01*
X118745000Y-113030000D02*
X118745000Y-111125000D01*
X119751974Y-113030000D02*
X118745000Y-113030000D01*
X93608026Y-53340000D02*
G75*
G03X93608026Y-53340000I-898026J0D01*
G01*
X80908026Y-53340000D02*
G75*
G03X80908026Y-53340000I-898026J0D01*
G01*
X81915000Y-51435000D02*
X81915000Y-53340000D01*
X90805000Y-51435000D02*
X81915000Y-51435000D01*
X90805000Y-53340000D02*
X90805000Y-51435000D01*
X90805000Y-53340000D02*
X91811974Y-53340000D01*
X90805000Y-55245000D02*
X90805000Y-53340000D01*
X81915000Y-55245000D02*
X90805000Y-55245000D01*
X81915000Y-53340000D02*
X81915000Y-55245000D01*
X80908026Y-53340000D02*
X81915000Y-53340000D01*
X221878026Y-92710000D02*
G75*
G03X221878026Y-92710000I-898026J0D01*
G01*
X221878026Y-80010000D02*
G75*
G03X221878026Y-80010000I-898026J0D01*
G01*
X222885000Y-81915000D02*
X220980000Y-81915000D01*
X222885000Y-90805000D02*
X222885000Y-81915000D01*
X220980000Y-90805000D02*
X222885000Y-90805000D01*
X220980000Y-90805000D02*
X220980000Y-91811974D01*
X219075000Y-90805000D02*
X220980000Y-90805000D01*
X219075000Y-81915000D02*
X219075000Y-90805000D01*
X220980000Y-81915000D02*
X219075000Y-81915000D01*
X220980000Y-80908026D02*
X220980000Y-81915000D01*
X221878026Y-113030000D02*
G75*
G03X221878026Y-113030000I-898026J0D01*
G01*
X221878026Y-125730000D02*
G75*
G03X221878026Y-125730000I-898026J0D01*
G01*
X219075000Y-123825000D02*
X220980000Y-123825000D01*
X219075000Y-114935000D02*
X219075000Y-123825000D01*
X220980000Y-114935000D02*
X219075000Y-114935000D01*
X220980000Y-114935000D02*
X220980000Y-113928026D01*
X222885000Y-114935000D02*
X220980000Y-114935000D01*
X222885000Y-123825000D02*
X222885000Y-114935000D01*
X220980000Y-123825000D02*
X222885000Y-123825000D01*
X220980000Y-124831974D02*
X220980000Y-123825000D01*
X221878026Y-109220000D02*
G75*
G03X221878026Y-109220000I-898026J0D01*
G01*
X221878026Y-96520000D02*
G75*
G03X221878026Y-96520000I-898026J0D01*
G01*
X222885000Y-98425000D02*
X220980000Y-98425000D01*
X222885000Y-107315000D02*
X222885000Y-98425000D01*
X220980000Y-107315000D02*
X222885000Y-107315000D01*
X220980000Y-107315000D02*
X220980000Y-108321974D01*
X219075000Y-107315000D02*
X220980000Y-107315000D01*
X219075000Y-98425000D02*
X219075000Y-107315000D01*
X220980000Y-98425000D02*
X219075000Y-98425000D01*
X220980000Y-97418026D02*
X220980000Y-98425000D01*
X226958026Y-113030000D02*
G75*
G03X226958026Y-113030000I-898026J0D01*
G01*
X226958026Y-125730000D02*
G75*
G03X226958026Y-125730000I-898026J0D01*
G01*
X224155000Y-123825000D02*
X226060000Y-123825000D01*
X224155000Y-114935000D02*
X224155000Y-123825000D01*
X226060000Y-114935000D02*
X224155000Y-114935000D01*
X226060000Y-114935000D02*
X226060000Y-113928026D01*
X227965000Y-114935000D02*
X226060000Y-114935000D01*
X227965000Y-123825000D02*
X227965000Y-114935000D01*
X226060000Y-123825000D02*
X227965000Y-123825000D01*
X226060000Y-124831974D02*
X226060000Y-123825000D01*
X226958026Y-109220000D02*
G75*
G03X226958026Y-109220000I-898026J0D01*
G01*
X226958026Y-96520000D02*
G75*
G03X226958026Y-96520000I-898026J0D01*
G01*
X227965000Y-98425000D02*
X226060000Y-98425000D01*
X227965000Y-107315000D02*
X227965000Y-98425000D01*
X226060000Y-107315000D02*
X227965000Y-107315000D01*
X226060000Y-107315000D02*
X226060000Y-108321974D01*
X224155000Y-107315000D02*
X226060000Y-107315000D01*
X224155000Y-98425000D02*
X224155000Y-107315000D01*
X226060000Y-98425000D02*
X224155000Y-98425000D01*
X226060000Y-97418026D02*
X226060000Y-98425000D01*
X82178026Y-116840000D02*
G75*
G03X82178026Y-116840000I-898026J0D01*
G01*
X82178026Y-129540000D02*
G75*
G03X82178026Y-129540000I-898026J0D01*
G01*
X79375000Y-127635000D02*
X81280000Y-127635000D01*
X79375000Y-118745000D02*
X79375000Y-127635000D01*
X81280000Y-118745000D02*
X79375000Y-118745000D01*
X81280000Y-118745000D02*
X81280000Y-117738026D01*
X83185000Y-118745000D02*
X81280000Y-118745000D01*
X83185000Y-127635000D02*
X83185000Y-118745000D01*
X81280000Y-127635000D02*
X83185000Y-127635000D01*
X81280000Y-128641974D02*
X81280000Y-127635000D01*
X126628026Y-114300000D02*
G75*
G03X126628026Y-114300000I-898026J0D01*
G01*
X126628026Y-101600000D02*
G75*
G03X126628026Y-101600000I-898026J0D01*
G01*
X127635000Y-103505000D02*
X125730000Y-103505000D01*
X127635000Y-112395000D02*
X127635000Y-103505000D01*
X125730000Y-112395000D02*
X127635000Y-112395000D01*
X125730000Y-112395000D02*
X125730000Y-113401974D01*
X123825000Y-112395000D02*
X125730000Y-112395000D01*
X123825000Y-103505000D02*
X123825000Y-112395000D01*
X125730000Y-103505000D02*
X123825000Y-103505000D01*
X125730000Y-102498026D02*
X125730000Y-103505000D01*
D14*
X72390000Y-100838000D02*
X72390000Y-102070000D01*
X72390000Y-99822000D02*
X72390000Y-98590000D01*
D16*
X70866000Y-100838000D02*
X73914000Y-100838000D01*
X70866000Y-99822000D02*
X73914000Y-99822000D01*
D11*
X73190000Y-102870000D02*
G75*
G03X73190000Y-102870000I-800000J0D01*
G01*
X73190000Y-97790000D02*
G75*
G03X73190000Y-97790000I-800000J0D01*
G01*
X103768026Y-109220000D02*
G75*
G03X103768026Y-109220000I-898026J0D01*
G01*
X91068026Y-109220000D02*
G75*
G03X91068026Y-109220000I-898026J0D01*
G01*
X92075000Y-107315000D02*
X92075000Y-109220000D01*
X100965000Y-107315000D02*
X92075000Y-107315000D01*
X100965000Y-109220000D02*
X100965000Y-107315000D01*
X100965000Y-109220000D02*
X101971974Y-109220000D01*
X100965000Y-111125000D02*
X100965000Y-109220000D01*
X92075000Y-111125000D02*
X100965000Y-111125000D01*
X92075000Y-109220000D02*
X92075000Y-111125000D01*
X91068026Y-109220000D02*
X92075000Y-109220000D01*
D10*
X76454000Y-44577000D02*
X75692000Y-44577000D01*
X76454000Y-44323000D02*
X76454000Y-44577000D01*
X75692000Y-44323000D02*
X76454000Y-44323000D01*
D16*
X74422000Y-43180000D02*
X74422000Y-45720000D01*
D10*
X74168000Y-42926000D02*
X74676000Y-42926000D01*
X74168000Y-45974000D02*
X74168000Y-42926000D01*
X74676000Y-45974000D02*
X74168000Y-45974000D01*
X74676000Y-42926000D02*
X74676000Y-45974000D01*
X75692000Y-45974000D02*
X75438000Y-45974000D01*
X75692000Y-42926000D02*
X75692000Y-45974000D01*
X75438000Y-42926000D02*
X75692000Y-42926000D01*
X75184000Y-45974000D02*
X75184000Y-42926000D01*
X75438000Y-45974000D02*
X75184000Y-45974000D01*
X75184000Y-42926000D02*
X75438000Y-42926000D01*
D11*
X73288026Y-44450000D02*
G75*
G03X73288026Y-44450000I-898026J0D01*
G01*
X78368026Y-44450000D02*
G75*
G03X78368026Y-44450000I-898026J0D01*
G01*
D14*
X74168000Y-44450000D02*
X73288026Y-44450000D01*
X76571974Y-44450000D02*
X75946000Y-44450000D01*
D11*
X220608026Y-44450000D02*
G75*
G03X220608026Y-44450000I-898026J0D01*
G01*
X233308026Y-44450000D02*
G75*
G03X233308026Y-44450000I-898026J0D01*
G01*
X230505000Y-46355000D02*
X230505000Y-44450000D01*
X221615000Y-46355000D02*
X230505000Y-46355000D01*
X221615000Y-44450000D02*
X221615000Y-46355000D01*
X221615000Y-44450000D02*
X220608026Y-44450000D01*
X221615000Y-42545000D02*
X221615000Y-44450000D01*
X230505000Y-42545000D02*
X221615000Y-42545000D01*
X230505000Y-44450000D02*
X230505000Y-42545000D01*
X231511974Y-44450000D02*
X230505000Y-44450000D01*
X202828026Y-52070000D02*
G75*
G03X202828026Y-52070000I-898026J0D01*
G01*
X215528026Y-52070000D02*
G75*
G03X215528026Y-52070000I-898026J0D01*
G01*
X212725000Y-53975000D02*
X212725000Y-52070000D01*
X203835000Y-53975000D02*
X212725000Y-53975000D01*
X203835000Y-52070000D02*
X203835000Y-53975000D01*
X203835000Y-52070000D02*
X202828026Y-52070000D01*
X203835000Y-50165000D02*
X203835000Y-52070000D01*
X212725000Y-50165000D02*
X203835000Y-50165000D01*
X212725000Y-52070000D02*
X212725000Y-50165000D01*
X213731974Y-52070000D02*
X212725000Y-52070000D01*
X202828026Y-44450000D02*
G75*
G03X202828026Y-44450000I-898026J0D01*
G01*
X215528026Y-44450000D02*
G75*
G03X215528026Y-44450000I-898026J0D01*
G01*
X212725000Y-46355000D02*
X212725000Y-44450000D01*
X203835000Y-46355000D02*
X212725000Y-46355000D01*
X203835000Y-44450000D02*
X203835000Y-46355000D01*
X203835000Y-44450000D02*
X202828026Y-44450000D01*
X203835000Y-42545000D02*
X203835000Y-44450000D01*
X212725000Y-42545000D02*
X203835000Y-42545000D01*
X212725000Y-44450000D02*
X212725000Y-42545000D01*
X213731974Y-44450000D02*
X212725000Y-44450000D01*
X202828026Y-48260000D02*
G75*
G03X202828026Y-48260000I-898026J0D01*
G01*
X215528026Y-48260000D02*
G75*
G03X215528026Y-48260000I-898026J0D01*
G01*
X212725000Y-50165000D02*
X212725000Y-48260000D01*
X203835000Y-50165000D02*
X212725000Y-50165000D01*
X203835000Y-48260000D02*
X203835000Y-50165000D01*
X203835000Y-48260000D02*
X202828026Y-48260000D01*
X203835000Y-46355000D02*
X203835000Y-48260000D01*
X212725000Y-46355000D02*
X203835000Y-46355000D01*
X212725000Y-48260000D02*
X212725000Y-46355000D01*
X213731974Y-48260000D02*
X212725000Y-48260000D01*
X162188026Y-44450000D02*
G75*
G03X162188026Y-44450000I-898026J0D01*
G01*
X174888026Y-44450000D02*
G75*
G03X174888026Y-44450000I-898026J0D01*
G01*
X172085000Y-46355000D02*
X172085000Y-44450000D01*
X163195000Y-46355000D02*
X172085000Y-46355000D01*
X163195000Y-44450000D02*
X163195000Y-46355000D01*
X163195000Y-44450000D02*
X162188026Y-44450000D01*
X163195000Y-42545000D02*
X163195000Y-44450000D01*
X172085000Y-42545000D02*
X163195000Y-42545000D01*
X172085000Y-44450000D02*
X172085000Y-42545000D01*
X173091974Y-44450000D02*
X172085000Y-44450000D01*
X162188026Y-48260000D02*
G75*
G03X162188026Y-48260000I-898026J0D01*
G01*
X174888026Y-48260000D02*
G75*
G03X174888026Y-48260000I-898026J0D01*
G01*
X172085000Y-50165000D02*
X172085000Y-48260000D01*
X163195000Y-50165000D02*
X172085000Y-50165000D01*
X163195000Y-48260000D02*
X163195000Y-50165000D01*
X163195000Y-48260000D02*
X162188026Y-48260000D01*
X163195000Y-46355000D02*
X163195000Y-48260000D01*
X172085000Y-46355000D02*
X163195000Y-46355000D01*
X172085000Y-48260000D02*
X172085000Y-46355000D01*
X173091974Y-48260000D02*
X172085000Y-48260000D01*
X162188026Y-52070000D02*
G75*
G03X162188026Y-52070000I-898026J0D01*
G01*
X174888026Y-52070000D02*
G75*
G03X174888026Y-52070000I-898026J0D01*
G01*
X172085000Y-53975000D02*
X172085000Y-52070000D01*
X163195000Y-53975000D02*
X172085000Y-53975000D01*
X163195000Y-52070000D02*
X163195000Y-53975000D01*
X163195000Y-52070000D02*
X162188026Y-52070000D01*
X163195000Y-50165000D02*
X163195000Y-52070000D01*
X172085000Y-50165000D02*
X163195000Y-50165000D01*
X172085000Y-52070000D02*
X172085000Y-50165000D01*
X173091974Y-52070000D02*
X172085000Y-52070000D01*
X49158026Y-115570000D02*
G75*
G03X49158026Y-115570000I-898026J0D01*
G01*
X49158026Y-128270000D02*
G75*
G03X49158026Y-128270000I-898026J0D01*
G01*
X46355000Y-126365000D02*
X48260000Y-126365000D01*
X46355000Y-117475000D02*
X46355000Y-126365000D01*
X48260000Y-117475000D02*
X46355000Y-117475000D01*
X48260000Y-117475000D02*
X48260000Y-116468026D01*
X50165000Y-117475000D02*
X48260000Y-117475000D01*
X50165000Y-126365000D02*
X50165000Y-117475000D01*
X48260000Y-126365000D02*
X50165000Y-126365000D01*
X48260000Y-127371974D02*
X48260000Y-126365000D01*
D10*
X233934000Y-48387000D02*
X228092000Y-48387000D01*
X228092000Y-48133000D02*
X233934000Y-48133000D01*
D16*
X226822000Y-46990000D02*
X226822000Y-49530000D01*
D10*
X226568000Y-46736000D02*
X227076000Y-46736000D01*
X226568000Y-49784000D02*
X226568000Y-46736000D01*
X227076000Y-49784000D02*
X226568000Y-49784000D01*
X227076000Y-46736000D02*
X227076000Y-49784000D01*
X228092000Y-49784000D02*
X227838000Y-49784000D01*
X228092000Y-46736000D02*
X228092000Y-49784000D01*
X227838000Y-46736000D02*
X228092000Y-46736000D01*
X227584000Y-49784000D02*
X227584000Y-46736000D01*
X227838000Y-49784000D02*
X227584000Y-49784000D01*
X227584000Y-46736000D02*
X227838000Y-46736000D01*
D11*
X220608026Y-48260000D02*
G75*
G03X220608026Y-48260000I-898026J0D01*
G01*
X235848026Y-48260000D02*
G75*
G03X235848026Y-48260000I-898026J0D01*
G01*
D14*
X226568000Y-48260000D02*
X220608026Y-48260000D01*
X233934000Y-48260000D02*
X228346000Y-48260000D01*
D17*
X222250000Y-133858000D02*
X219710000Y-133858000D01*
D10*
X220853000Y-136398000D02*
X220853000Y-134112000D01*
X221107000Y-134112000D02*
X221107000Y-136398000D01*
D16*
X222250000Y-132842000D02*
X219710000Y-132842000D01*
D10*
X222504000Y-132588000D02*
X222504000Y-133096000D01*
X219456000Y-132588000D02*
X222504000Y-132588000D01*
X219456000Y-133096000D02*
X219456000Y-132588000D01*
X222504000Y-133096000D02*
X219456000Y-133096000D01*
X219456000Y-134112000D02*
X219456000Y-133858000D01*
X222504000Y-134112000D02*
X219456000Y-134112000D01*
X222504000Y-133858000D02*
X222504000Y-134112000D01*
X219456000Y-133604000D02*
X222504000Y-133604000D01*
X219456000Y-133858000D02*
X219456000Y-133604000D01*
X222504000Y-133604000D02*
X222504000Y-133858000D01*
D11*
X221878026Y-129540000D02*
G75*
G03X221878026Y-129540000I-898026J0D01*
G01*
X221878026Y-137160000D02*
G75*
G03X221878026Y-137160000I-898026J0D01*
G01*
D14*
X220980000Y-132588000D02*
X220980000Y-130438026D01*
X220980000Y-136261974D02*
X220980000Y-134366000D01*
D17*
X227330000Y-133858000D02*
X224790000Y-133858000D01*
D10*
X225933000Y-136398000D02*
X225933000Y-134112000D01*
X226187000Y-134112000D02*
X226187000Y-136398000D01*
D16*
X227330000Y-132842000D02*
X224790000Y-132842000D01*
D10*
X227584000Y-132588000D02*
X227584000Y-133096000D01*
X224536000Y-132588000D02*
X227584000Y-132588000D01*
X224536000Y-133096000D02*
X224536000Y-132588000D01*
X227584000Y-133096000D02*
X224536000Y-133096000D01*
X224536000Y-134112000D02*
X224536000Y-133858000D01*
X227584000Y-134112000D02*
X224536000Y-134112000D01*
X227584000Y-133858000D02*
X227584000Y-134112000D01*
X224536000Y-133604000D02*
X227584000Y-133604000D01*
X224536000Y-133858000D02*
X224536000Y-133604000D01*
X227584000Y-133604000D02*
X227584000Y-133858000D01*
D11*
X226958026Y-129540000D02*
G75*
G03X226958026Y-129540000I-898026J0D01*
G01*
X226958026Y-137160000D02*
G75*
G03X226958026Y-137160000I-898026J0D01*
G01*
D14*
X226060000Y-132588000D02*
X226060000Y-130438026D01*
X226060000Y-136261974D02*
X226060000Y-134366000D01*
D10*
X103759000Y-113157000D02*
X102997000Y-113157000D01*
X103759000Y-112903000D02*
X103759000Y-113157000D01*
X102997000Y-112903000D02*
X103759000Y-112903000D01*
D16*
X101727000Y-111760000D02*
X101727000Y-114300000D01*
D10*
X101473000Y-111506000D02*
X101981000Y-111506000D01*
X101473000Y-114554000D02*
X101473000Y-111506000D01*
X101981000Y-114554000D02*
X101473000Y-114554000D01*
X101981000Y-111506000D02*
X101981000Y-114554000D01*
X102997000Y-114554000D02*
X102743000Y-114554000D01*
X102997000Y-111506000D02*
X102997000Y-114554000D01*
X102743000Y-111506000D02*
X102997000Y-111506000D01*
X102489000Y-114554000D02*
X102489000Y-111506000D01*
X102743000Y-114554000D02*
X102489000Y-114554000D01*
X102489000Y-111506000D02*
X102743000Y-111506000D01*
D11*
X100593026Y-113030000D02*
G75*
G03X100593026Y-113030000I-898026J0D01*
G01*
X105673026Y-113030000D02*
G75*
G03X105673026Y-113030000I-898026J0D01*
G01*
D14*
X101473000Y-113030000D02*
X100593026Y-113030000D01*
X103876974Y-113030000D02*
X103251000Y-113030000D01*
D10*
X101092000Y-136398000D02*
X103378000Y-136398000D01*
X103378000Y-136652000D02*
X101092000Y-136652000D01*
D16*
X104648000Y-137795000D02*
X104648000Y-135255000D01*
D10*
X104902000Y-138049000D02*
X104394000Y-138049000D01*
X104902000Y-135001000D02*
X104902000Y-138049000D01*
X104394000Y-135001000D02*
X104902000Y-135001000D01*
X104394000Y-138049000D02*
X104394000Y-135001000D01*
X103378000Y-135001000D02*
X103632000Y-135001000D01*
X103378000Y-138049000D02*
X103378000Y-135001000D01*
X103632000Y-138049000D02*
X103378000Y-138049000D01*
X103886000Y-135001000D02*
X103886000Y-138049000D01*
X103632000Y-135001000D02*
X103886000Y-135001000D01*
X103886000Y-138049000D02*
X103632000Y-138049000D01*
D11*
X108848026Y-136525000D02*
G75*
G03X108848026Y-136525000I-898026J0D01*
G01*
X101228026Y-136525000D02*
G75*
G03X101228026Y-136525000I-898026J0D01*
G01*
D14*
X104902000Y-136525000D02*
X107051974Y-136525000D01*
X101228026Y-136525000D02*
X103124000Y-136525000D01*
D10*
X60198000Y-136017000D02*
X57912000Y-136017000D01*
X57912000Y-135763000D02*
X60198000Y-135763000D01*
D16*
X56642000Y-134620000D02*
X56642000Y-137160000D01*
D10*
X56388000Y-134366000D02*
X56896000Y-134366000D01*
X56388000Y-137414000D02*
X56388000Y-134366000D01*
X56896000Y-137414000D02*
X56388000Y-137414000D01*
X56896000Y-134366000D02*
X56896000Y-137414000D01*
X57912000Y-137414000D02*
X57658000Y-137414000D01*
X57912000Y-134366000D02*
X57912000Y-137414000D01*
X57658000Y-134366000D02*
X57912000Y-134366000D01*
X57404000Y-137414000D02*
X57404000Y-134366000D01*
X57658000Y-137414000D02*
X57404000Y-137414000D01*
X57404000Y-134366000D02*
X57658000Y-134366000D01*
D11*
X54238026Y-135890000D02*
G75*
G03X54238026Y-135890000I-898026J0D01*
G01*
X61858026Y-135890000D02*
G75*
G03X61858026Y-135890000I-898026J0D01*
G01*
D14*
X56388000Y-135890000D02*
X54238026Y-135890000D01*
X60061974Y-135890000D02*
X58166000Y-135890000D01*
D10*
X42418000Y-44577000D02*
X40132000Y-44577000D01*
X40132000Y-44323000D02*
X42418000Y-44323000D01*
D16*
X38862000Y-43180000D02*
X38862000Y-45720000D01*
D10*
X38608000Y-42926000D02*
X39116000Y-42926000D01*
X38608000Y-45974000D02*
X38608000Y-42926000D01*
X39116000Y-45974000D02*
X38608000Y-45974000D01*
X39116000Y-42926000D02*
X39116000Y-45974000D01*
X40132000Y-45974000D02*
X39878000Y-45974000D01*
X40132000Y-42926000D02*
X40132000Y-45974000D01*
X39878000Y-42926000D02*
X40132000Y-42926000D01*
X39624000Y-45974000D02*
X39624000Y-42926000D01*
X39878000Y-45974000D02*
X39624000Y-45974000D01*
X39624000Y-42926000D02*
X39878000Y-42926000D01*
D11*
X36458026Y-44450000D02*
G75*
G03X36458026Y-44450000I-898026J0D01*
G01*
X44078026Y-44450000D02*
G75*
G03X44078026Y-44450000I-898026J0D01*
G01*
D14*
X38608000Y-44450000D02*
X36458026Y-44450000D01*
X42281974Y-44450000D02*
X40386000Y-44450000D01*
D10*
X88392000Y-112903000D02*
X90678000Y-112903000D01*
X90678000Y-113157000D02*
X88392000Y-113157000D01*
D16*
X91948000Y-114300000D02*
X91948000Y-111760000D01*
D10*
X92202000Y-114554000D02*
X91694000Y-114554000D01*
X92202000Y-111506000D02*
X92202000Y-114554000D01*
X91694000Y-111506000D02*
X92202000Y-111506000D01*
X91694000Y-114554000D02*
X91694000Y-111506000D01*
X90678000Y-111506000D02*
X90932000Y-111506000D01*
X90678000Y-114554000D02*
X90678000Y-111506000D01*
X90932000Y-114554000D02*
X90678000Y-114554000D01*
X91186000Y-111506000D02*
X91186000Y-114554000D01*
X90932000Y-111506000D02*
X91186000Y-111506000D01*
X91186000Y-114554000D02*
X90932000Y-114554000D01*
D11*
X96148026Y-113030000D02*
G75*
G03X96148026Y-113030000I-898026J0D01*
G01*
X88528026Y-113030000D02*
G75*
G03X88528026Y-113030000I-898026J0D01*
G01*
D14*
X92202000Y-113030000D02*
X94351974Y-113030000D01*
X88528026Y-113030000D02*
X90424000Y-113030000D01*
D10*
X156083000Y-51308000D02*
X156083000Y-49022000D01*
X156337000Y-49022000D02*
X156337000Y-51308000D01*
D16*
X157480000Y-47752000D02*
X154940000Y-47752000D01*
D10*
X157734000Y-47498000D02*
X157734000Y-48006000D01*
X154686000Y-47498000D02*
X157734000Y-47498000D01*
X154686000Y-48006000D02*
X154686000Y-47498000D01*
X157734000Y-48006000D02*
X154686000Y-48006000D01*
X154686000Y-49022000D02*
X154686000Y-48768000D01*
X157734000Y-49022000D02*
X154686000Y-49022000D01*
X157734000Y-48768000D02*
X157734000Y-49022000D01*
X154686000Y-48514000D02*
X157734000Y-48514000D01*
X154686000Y-48768000D02*
X154686000Y-48514000D01*
X157734000Y-48514000D02*
X157734000Y-48768000D01*
D11*
X157108026Y-44450000D02*
G75*
G03X157108026Y-44450000I-898026J0D01*
G01*
X157108026Y-52070000D02*
G75*
G03X157108026Y-52070000I-898026J0D01*
G01*
D14*
X156210000Y-47498000D02*
X156210000Y-45348026D01*
X156210000Y-51171974D02*
X156210000Y-49276000D01*
D16*
X99187000Y-74295000D02*
X99187000Y-76835000D01*
D10*
X98933000Y-74041000D02*
X99441000Y-74041000D01*
X98933000Y-77089000D02*
X98933000Y-74041000D01*
X99441000Y-77089000D02*
X98933000Y-77089000D01*
X99441000Y-74041000D02*
X99441000Y-77089000D01*
X100457000Y-77089000D02*
X100203000Y-77089000D01*
X100457000Y-74041000D02*
X100457000Y-77089000D01*
X100203000Y-74041000D02*
X100457000Y-74041000D01*
X99949000Y-77089000D02*
X99949000Y-74041000D01*
X100203000Y-77089000D02*
X99949000Y-77089000D01*
X99949000Y-74041000D02*
X100203000Y-74041000D01*
D11*
X98688026Y-75565000D02*
G75*
G03X98688026Y-75565000I-898026J0D01*
G01*
X102498026Y-75565000D02*
G75*
G03X102498026Y-75565000I-898026J0D01*
G01*
X113928026Y-136525000D02*
G75*
G03X113928026Y-136525000I-898026J0D01*
G01*
X126628026Y-136525000D02*
G75*
G03X126628026Y-136525000I-898026J0D01*
G01*
X123825000Y-138430000D02*
X123825000Y-136525000D01*
X114935000Y-138430000D02*
X123825000Y-138430000D01*
X114935000Y-136525000D02*
X114935000Y-138430000D01*
X114935000Y-136525000D02*
X113928026Y-136525000D01*
X114935000Y-134620000D02*
X114935000Y-136525000D01*
X123825000Y-134620000D02*
X114935000Y-134620000D01*
X123825000Y-136525000D02*
X123825000Y-134620000D01*
X124831974Y-136525000D02*
X123825000Y-136525000D01*
X98053026Y-136525000D02*
G75*
G03X98053026Y-136525000I-898026J0D01*
G01*
X85353026Y-136525000D02*
G75*
G03X85353026Y-136525000I-898026J0D01*
G01*
X86360000Y-134620000D02*
X86360000Y-136525000D01*
X95250000Y-134620000D02*
X86360000Y-134620000D01*
X95250000Y-136525000D02*
X95250000Y-134620000D01*
X95250000Y-136525000D02*
X96256974Y-136525000D01*
X95250000Y-138430000D02*
X95250000Y-136525000D01*
X86360000Y-138430000D02*
X95250000Y-138430000D01*
X86360000Y-136525000D02*
X86360000Y-138430000D01*
X85353026Y-136525000D02*
X86360000Y-136525000D01*
X232038026Y-109220000D02*
G75*
G03X232038026Y-109220000I-898026J0D01*
G01*
X232038026Y-96520000D02*
G75*
G03X232038026Y-96520000I-898026J0D01*
G01*
X233045000Y-98425000D02*
X231140000Y-98425000D01*
X233045000Y-107315000D02*
X233045000Y-98425000D01*
X231140000Y-107315000D02*
X233045000Y-107315000D01*
X231140000Y-107315000D02*
X231140000Y-108321974D01*
X229235000Y-107315000D02*
X231140000Y-107315000D01*
X229235000Y-98425000D02*
X229235000Y-107315000D01*
X231140000Y-98425000D02*
X229235000Y-98425000D01*
X231140000Y-97418026D02*
X231140000Y-98425000D01*
D17*
X229108000Y-91440000D02*
X229108000Y-93980000D01*
D16*
X228092000Y-91440000D02*
X228092000Y-93980000D01*
D10*
X227838000Y-91186000D02*
X228346000Y-91186000D01*
X227838000Y-94234000D02*
X227838000Y-91186000D01*
X228346000Y-94234000D02*
X227838000Y-94234000D01*
X228346000Y-91186000D02*
X228346000Y-94234000D01*
X229362000Y-94234000D02*
X229108000Y-94234000D01*
X229362000Y-91186000D02*
X229362000Y-94234000D01*
X229108000Y-91186000D02*
X229362000Y-91186000D01*
X228854000Y-94234000D02*
X228854000Y-91186000D01*
X229108000Y-94234000D02*
X228854000Y-94234000D01*
X228854000Y-91186000D02*
X229108000Y-91186000D01*
D11*
X226958026Y-92710000D02*
G75*
G03X226958026Y-92710000I-898026J0D01*
G01*
X232038026Y-92710000D02*
G75*
G03X232038026Y-92710000I-898026J0D01*
G01*
D14*
X227838000Y-92710000D02*
X226949000Y-92710000D01*
X230241974Y-92710000D02*
X229108000Y-92710000D01*
D13*
X67865333Y-121770857D02*
X66932000Y-122970857D01*
X66932000Y-121770857D02*
X67865333Y-122970857D01*
X66398666Y-122856571D02*
X66332000Y-122913714D01*
X66398666Y-122970857D01*
X66465333Y-122913714D01*
X66398666Y-122856571D01*
X66398666Y-122970857D01*
X65932000Y-121770857D02*
X65132000Y-121770857D01*
X65532000Y-122970857D02*
X65532000Y-121770857D01*
X64065333Y-122970857D02*
X64065333Y-122342285D01*
X64132000Y-122228000D01*
X64265333Y-122170857D01*
X64532000Y-122170857D01*
X64665333Y-122228000D01*
X64065333Y-122913714D02*
X64198666Y-122970857D01*
X64532000Y-122970857D01*
X64665333Y-122913714D01*
X64732000Y-122799428D01*
X64732000Y-122685142D01*
X64665333Y-122570857D01*
X64532000Y-122513714D01*
X64198666Y-122513714D01*
X64065333Y-122456571D01*
X63198666Y-122970857D02*
X63332000Y-122913714D01*
X63398666Y-122799428D01*
X63398666Y-121770857D01*
D18*
X76152190Y-137838571D02*
X76152190Y-136338571D01*
X75676000Y-136338571D01*
X75390285Y-136410000D01*
X75199809Y-136552857D01*
X75104571Y-136695714D01*
X75009333Y-136981428D01*
X75009333Y-137195714D01*
X75104571Y-137481428D01*
X75199809Y-137624285D01*
X75390285Y-137767142D01*
X75676000Y-137838571D01*
X76152190Y-137838571D01*
X73104571Y-137838571D02*
X74247428Y-137838571D01*
X73676000Y-137838571D02*
X73676000Y-136338571D01*
X73866476Y-136552857D01*
X74056952Y-136695714D01*
X74247428Y-136767142D01*
X233001428Y-121872190D02*
X234501428Y-121872190D01*
X234501428Y-121396000D01*
X234430000Y-121110285D01*
X234287142Y-120919809D01*
X234144285Y-120824571D01*
X233858571Y-120729333D01*
X233644285Y-120729333D01*
X233358571Y-120824571D01*
X233215714Y-120919809D01*
X233072857Y-121110285D01*
X233001428Y-121396000D01*
X233001428Y-121872190D01*
X234501428Y-120062666D02*
X234501428Y-118824571D01*
X233930000Y-119491238D01*
X233930000Y-119205523D01*
X233858571Y-119015047D01*
X233787142Y-118919809D01*
X233644285Y-118824571D01*
X233287142Y-118824571D01*
X233144285Y-118919809D01*
X233072857Y-119015047D01*
X233001428Y-119205523D01*
X233001428Y-119776952D01*
X233072857Y-119967428D01*
X233144285Y-120062666D01*
X62912380Y-80688571D02*
X62912380Y-79188571D01*
X60817142Y-80545714D02*
X60912380Y-80617142D01*
X61198095Y-80688571D01*
X61388571Y-80688571D01*
X61674285Y-80617142D01*
X61864761Y-80474285D01*
X61960000Y-80331428D01*
X62055238Y-80045714D01*
X62055238Y-79831428D01*
X61960000Y-79545714D01*
X61864761Y-79402857D01*
X61674285Y-79260000D01*
X61388571Y-79188571D01*
X61198095Y-79188571D01*
X60912380Y-79260000D01*
X60817142Y-79331428D01*
X58912380Y-80688571D02*
X60055238Y-80688571D01*
X59483809Y-80688571D02*
X59483809Y-79188571D01*
X59674285Y-79402857D01*
X59864761Y-79545714D01*
X60055238Y-79617142D01*
D13*
X50228571Y-105952857D02*
X51371428Y-105952857D01*
X50800000Y-105952857D02*
X50800000Y-104752857D01*
X50990476Y-104924285D01*
X51180952Y-105038571D01*
X51371428Y-105095714D01*
D18*
X88312380Y-80688571D02*
X88312380Y-79188571D01*
X86217142Y-80545714D02*
X86312380Y-80617142D01*
X86598095Y-80688571D01*
X86788571Y-80688571D01*
X87074285Y-80617142D01*
X87264761Y-80474285D01*
X87360000Y-80331428D01*
X87455238Y-80045714D01*
X87455238Y-79831428D01*
X87360000Y-79545714D01*
X87264761Y-79402857D01*
X87074285Y-79260000D01*
X86788571Y-79188571D01*
X86598095Y-79188571D01*
X86312380Y-79260000D01*
X86217142Y-79331428D01*
X85550476Y-79188571D02*
X84312380Y-79188571D01*
X84979047Y-79760000D01*
X84693333Y-79760000D01*
X84502857Y-79831428D01*
X84407619Y-79902857D01*
X84312380Y-80045714D01*
X84312380Y-80402857D01*
X84407619Y-80545714D01*
X84502857Y-80617142D01*
X84693333Y-80688571D01*
X85264761Y-80688571D01*
X85455238Y-80617142D01*
X85550476Y-80545714D01*
D13*
X75628571Y-105952857D02*
X76771428Y-105952857D01*
X76200000Y-105952857D02*
X76200000Y-104752857D01*
X76390476Y-104924285D01*
X76580952Y-105038571D01*
X76771428Y-105095714D01*
D18*
X114982380Y-90848571D02*
X114982380Y-89348571D01*
X112887142Y-90705714D02*
X112982380Y-90777142D01*
X113268095Y-90848571D01*
X113458571Y-90848571D01*
X113744285Y-90777142D01*
X113934761Y-90634285D01*
X114030000Y-90491428D01*
X114125238Y-90205714D01*
X114125238Y-89991428D01*
X114030000Y-89705714D01*
X113934761Y-89562857D01*
X113744285Y-89420000D01*
X113458571Y-89348571D01*
X113268095Y-89348571D01*
X112982380Y-89420000D01*
X112887142Y-89491428D01*
X112125238Y-89491428D02*
X112030000Y-89420000D01*
X111839523Y-89348571D01*
X111363333Y-89348571D01*
X111172857Y-89420000D01*
X111077619Y-89491428D01*
X110982380Y-89634285D01*
X110982380Y-89777142D01*
X111077619Y-89991428D01*
X112220476Y-90848571D01*
X110982380Y-90848571D01*
D13*
X102298571Y-105952857D02*
X103441428Y-105952857D01*
X102870000Y-105952857D02*
X102870000Y-104752857D01*
X103060476Y-104924285D01*
X103250952Y-105038571D01*
X103441428Y-105095714D01*
D18*
X103461428Y-65452380D02*
X104961428Y-65452380D01*
X103604285Y-63357142D02*
X103532857Y-63452380D01*
X103461428Y-63738095D01*
X103461428Y-63928571D01*
X103532857Y-64214285D01*
X103675714Y-64404761D01*
X103818571Y-64500000D01*
X104104285Y-64595238D01*
X104318571Y-64595238D01*
X104604285Y-64500000D01*
X104747142Y-64404761D01*
X104890000Y-64214285D01*
X104961428Y-63928571D01*
X104961428Y-63738095D01*
X104890000Y-63452380D01*
X104818571Y-63357142D01*
X104961428Y-61547619D02*
X104961428Y-62500000D01*
X104247142Y-62595238D01*
X104318571Y-62500000D01*
X104390000Y-62309523D01*
X104390000Y-61833333D01*
X104318571Y-61642857D01*
X104247142Y-61547619D01*
X104104285Y-61452380D01*
X103747142Y-61452380D01*
X103604285Y-61547619D01*
X103532857Y-61642857D01*
X103461428Y-61833333D01*
X103461428Y-62309523D01*
X103532857Y-62500000D01*
X103604285Y-62595238D01*
D13*
X97218571Y-72932857D02*
X98361428Y-72932857D01*
X97790000Y-72932857D02*
X97790000Y-71732857D01*
X97980476Y-71904285D01*
X98170952Y-72018571D01*
X98361428Y-72075714D01*
D18*
X116161428Y-65452380D02*
X117661428Y-65452380D01*
X116304285Y-63357142D02*
X116232857Y-63452380D01*
X116161428Y-63738095D01*
X116161428Y-63928571D01*
X116232857Y-64214285D01*
X116375714Y-64404761D01*
X116518571Y-64500000D01*
X116804285Y-64595238D01*
X117018571Y-64595238D01*
X117304285Y-64500000D01*
X117447142Y-64404761D01*
X117590000Y-64214285D01*
X117661428Y-63928571D01*
X117661428Y-63738095D01*
X117590000Y-63452380D01*
X117518571Y-63357142D01*
X117161428Y-61642857D02*
X116161428Y-61642857D01*
X117732857Y-62119047D02*
X116661428Y-62595238D01*
X116661428Y-61357142D01*
D13*
X109918571Y-72932857D02*
X111061428Y-72932857D01*
X110490000Y-72932857D02*
X110490000Y-71732857D01*
X110680476Y-71904285D01*
X110870952Y-72018571D01*
X111061428Y-72075714D01*
D18*
X191182380Y-48938571D02*
X191182380Y-47438571D01*
X189087142Y-48795714D02*
X189182380Y-48867142D01*
X189468095Y-48938571D01*
X189658571Y-48938571D01*
X189944285Y-48867142D01*
X190134761Y-48724285D01*
X190230000Y-48581428D01*
X190325238Y-48295714D01*
X190325238Y-48081428D01*
X190230000Y-47795714D01*
X190134761Y-47652857D01*
X189944285Y-47510000D01*
X189658571Y-47438571D01*
X189468095Y-47438571D01*
X189182380Y-47510000D01*
X189087142Y-47581428D01*
X188420476Y-47438571D02*
X187087142Y-47438571D01*
X187944285Y-48938571D01*
D13*
X175958571Y-43722857D02*
X177101428Y-43722857D01*
X176530000Y-43722857D02*
X176530000Y-42522857D01*
X176720476Y-42694285D01*
X176910952Y-42808571D01*
X177101428Y-42865714D01*
D18*
X146414761Y-48938571D02*
X146414761Y-47438571D01*
X144319523Y-48795714D02*
X144414761Y-48867142D01*
X144700476Y-48938571D01*
X144890952Y-48938571D01*
X145176666Y-48867142D01*
X145367142Y-48724285D01*
X145462380Y-48581428D01*
X145557619Y-48295714D01*
X145557619Y-48081428D01*
X145462380Y-47795714D01*
X145367142Y-47652857D01*
X145176666Y-47510000D01*
X144890952Y-47438571D01*
X144700476Y-47438571D01*
X144414761Y-47510000D01*
X144319523Y-47581428D01*
X142414761Y-48938571D02*
X143557619Y-48938571D01*
X142986190Y-48938571D02*
X142986190Y-47438571D01*
X143176666Y-47652857D01*
X143367142Y-47795714D01*
X143557619Y-47867142D01*
X140510000Y-48938571D02*
X141652857Y-48938571D01*
X141081428Y-48938571D02*
X141081428Y-47438571D01*
X141271904Y-47652857D01*
X141462380Y-47795714D01*
X141652857Y-47867142D01*
D13*
X130238571Y-43722857D02*
X131381428Y-43722857D01*
X130810000Y-43722857D02*
X130810000Y-42522857D01*
X131000476Y-42694285D01*
X131190952Y-42808571D01*
X131381428Y-42865714D01*
D18*
X56471428Y-122602380D02*
X57971428Y-122602380D01*
X56614285Y-120507142D02*
X56542857Y-120602380D01*
X56471428Y-120888095D01*
X56471428Y-121078571D01*
X56542857Y-121364285D01*
X56685714Y-121554761D01*
X56828571Y-121650000D01*
X57114285Y-121745238D01*
X57328571Y-121745238D01*
X57614285Y-121650000D01*
X57757142Y-121554761D01*
X57900000Y-121364285D01*
X57971428Y-121078571D01*
X57971428Y-120888095D01*
X57900000Y-120602380D01*
X57828571Y-120507142D01*
X57971428Y-118792857D02*
X57971428Y-119173809D01*
X57900000Y-119364285D01*
X57828571Y-119459523D01*
X57614285Y-119650000D01*
X57328571Y-119745238D01*
X56757142Y-119745238D01*
X56614285Y-119650000D01*
X56542857Y-119554761D01*
X56471428Y-119364285D01*
X56471428Y-118983333D01*
X56542857Y-118792857D01*
X56614285Y-118697619D01*
X56757142Y-118602380D01*
X57114285Y-118602380D01*
X57257142Y-118697619D01*
X57328571Y-118792857D01*
X57400000Y-118983333D01*
X57400000Y-119364285D01*
X57328571Y-119554761D01*
X57257142Y-119650000D01*
X57114285Y-119745238D01*
D13*
X50228571Y-131352857D02*
X51371428Y-131352857D01*
X50800000Y-131352857D02*
X50800000Y-130152857D01*
X50990476Y-130324285D01*
X51180952Y-130438571D01*
X51371428Y-130495714D01*
D18*
X116161428Y-125142380D02*
X117661428Y-125142380D01*
X116304285Y-123047142D02*
X116232857Y-123142380D01*
X116161428Y-123428095D01*
X116161428Y-123618571D01*
X116232857Y-123904285D01*
X116375714Y-124094761D01*
X116518571Y-124190000D01*
X116804285Y-124285238D01*
X117018571Y-124285238D01*
X117304285Y-124190000D01*
X117447142Y-124094761D01*
X117590000Y-123904285D01*
X117661428Y-123618571D01*
X117661428Y-123428095D01*
X117590000Y-123142380D01*
X117518571Y-123047142D01*
X117018571Y-121904285D02*
X117090000Y-122094761D01*
X117161428Y-122190000D01*
X117304285Y-122285238D01*
X117375714Y-122285238D01*
X117518571Y-122190000D01*
X117590000Y-122094761D01*
X117661428Y-121904285D01*
X117661428Y-121523333D01*
X117590000Y-121332857D01*
X117518571Y-121237619D01*
X117375714Y-121142380D01*
X117304285Y-121142380D01*
X117161428Y-121237619D01*
X117090000Y-121332857D01*
X117018571Y-121523333D01*
X117018571Y-121904285D01*
X116947142Y-122094761D01*
X116875714Y-122190000D01*
X116732857Y-122285238D01*
X116447142Y-122285238D01*
X116304285Y-122190000D01*
X116232857Y-122094761D01*
X116161428Y-121904285D01*
X116161428Y-121523333D01*
X116232857Y-121332857D01*
X116304285Y-121237619D01*
X116447142Y-121142380D01*
X116732857Y-121142380D01*
X116875714Y-121237619D01*
X116947142Y-121332857D01*
X117018571Y-121523333D01*
D13*
X109918571Y-132622857D02*
X111061428Y-132622857D01*
X110490000Y-132622857D02*
X110490000Y-131422857D01*
X110680476Y-131594285D01*
X110870952Y-131708571D01*
X111061428Y-131765714D01*
D18*
X89491428Y-125142380D02*
X90991428Y-125142380D01*
X89634285Y-123047142D02*
X89562857Y-123142380D01*
X89491428Y-123428095D01*
X89491428Y-123618571D01*
X89562857Y-123904285D01*
X89705714Y-124094761D01*
X89848571Y-124190000D01*
X90134285Y-124285238D01*
X90348571Y-124285238D01*
X90634285Y-124190000D01*
X90777142Y-124094761D01*
X90920000Y-123904285D01*
X90991428Y-123618571D01*
X90991428Y-123428095D01*
X90920000Y-123142380D01*
X90848571Y-123047142D01*
X89491428Y-122094761D02*
X89491428Y-121713809D01*
X89562857Y-121523333D01*
X89634285Y-121428095D01*
X89848571Y-121237619D01*
X90134285Y-121142380D01*
X90705714Y-121142380D01*
X90848571Y-121237619D01*
X90920000Y-121332857D01*
X90991428Y-121523333D01*
X90991428Y-121904285D01*
X90920000Y-122094761D01*
X90848571Y-122190000D01*
X90705714Y-122285238D01*
X90348571Y-122285238D01*
X90205714Y-122190000D01*
X90134285Y-122094761D01*
X90062857Y-121904285D01*
X90062857Y-121523333D01*
X90134285Y-121332857D01*
X90205714Y-121237619D01*
X90348571Y-121142380D01*
D13*
X83248571Y-132622857D02*
X84391428Y-132622857D01*
X83820000Y-132622857D02*
X83820000Y-131422857D01*
X84010476Y-131594285D01*
X84200952Y-131708571D01*
X84391428Y-131765714D01*
D18*
X103461428Y-126094761D02*
X104961428Y-126094761D01*
X103604285Y-123999523D02*
X103532857Y-124094761D01*
X103461428Y-124380476D01*
X103461428Y-124570952D01*
X103532857Y-124856666D01*
X103675714Y-125047142D01*
X103818571Y-125142380D01*
X104104285Y-125237619D01*
X104318571Y-125237619D01*
X104604285Y-125142380D01*
X104747142Y-125047142D01*
X104890000Y-124856666D01*
X104961428Y-124570952D01*
X104961428Y-124380476D01*
X104890000Y-124094761D01*
X104818571Y-123999523D01*
X103461428Y-122094761D02*
X103461428Y-123237619D01*
X103461428Y-122666190D02*
X104961428Y-122666190D01*
X104747142Y-122856666D01*
X104604285Y-123047142D01*
X104532857Y-123237619D01*
X104961428Y-120856666D02*
X104961428Y-120666190D01*
X104890000Y-120475714D01*
X104818571Y-120380476D01*
X104675714Y-120285238D01*
X104390000Y-120190000D01*
X104032857Y-120190000D01*
X103747142Y-120285238D01*
X103604285Y-120380476D01*
X103532857Y-120475714D01*
X103461428Y-120666190D01*
X103461428Y-120856666D01*
X103532857Y-121047142D01*
X103604285Y-121142380D01*
X103747142Y-121237619D01*
X104032857Y-121332857D01*
X104390000Y-121332857D01*
X104675714Y-121237619D01*
X104818571Y-121142380D01*
X104890000Y-121047142D01*
X104961428Y-120856666D01*
D13*
X97218571Y-132622857D02*
X98361428Y-132622857D01*
X97790000Y-132622857D02*
X97790000Y-131422857D01*
X97980476Y-131594285D01*
X98170952Y-131708571D01*
X98361428Y-131765714D01*
D18*
X75521428Y-123523333D02*
X76235714Y-124190000D01*
X75521428Y-124666190D02*
X77021428Y-124666190D01*
X77021428Y-123904285D01*
X76950000Y-123713809D01*
X76878571Y-123618571D01*
X76735714Y-123523333D01*
X76521428Y-123523333D01*
X76378571Y-123618571D01*
X76307142Y-123713809D01*
X76235714Y-123904285D01*
X76235714Y-124666190D01*
X75521428Y-121618571D02*
X75521428Y-122761428D01*
X75521428Y-122190000D02*
X77021428Y-122190000D01*
X76807142Y-122380476D01*
X76664285Y-122570952D01*
X76592857Y-122761428D01*
X114633333Y-109898571D02*
X115300000Y-109184285D01*
X115776190Y-109898571D02*
X115776190Y-108398571D01*
X115014285Y-108398571D01*
X114823809Y-108470000D01*
X114728571Y-108541428D01*
X114633333Y-108684285D01*
X114633333Y-108898571D01*
X114728571Y-109041428D01*
X114823809Y-109112857D01*
X115014285Y-109184285D01*
X115776190Y-109184285D01*
X113871428Y-108541428D02*
X113776190Y-108470000D01*
X113585714Y-108398571D01*
X113109523Y-108398571D01*
X112919047Y-108470000D01*
X112823809Y-108541428D01*
X112728571Y-108684285D01*
X112728571Y-108827142D01*
X112823809Y-109041428D01*
X113966666Y-109898571D01*
X112728571Y-109898571D01*
X114633333Y-113708571D02*
X115300000Y-112994285D01*
X115776190Y-113708571D02*
X115776190Y-112208571D01*
X115014285Y-112208571D01*
X114823809Y-112280000D01*
X114728571Y-112351428D01*
X114633333Y-112494285D01*
X114633333Y-112708571D01*
X114728571Y-112851428D01*
X114823809Y-112922857D01*
X115014285Y-112994285D01*
X115776190Y-112994285D01*
X113966666Y-112208571D02*
X112728571Y-112208571D01*
X113395238Y-112780000D01*
X113109523Y-112780000D01*
X112919047Y-112851428D01*
X112823809Y-112922857D01*
X112728571Y-113065714D01*
X112728571Y-113422857D01*
X112823809Y-113565714D01*
X112919047Y-113637142D01*
X113109523Y-113708571D01*
X113680952Y-113708571D01*
X113871428Y-113637142D01*
X113966666Y-113565714D01*
X86693333Y-54018571D02*
X87360000Y-53304285D01*
X87836190Y-54018571D02*
X87836190Y-52518571D01*
X87074285Y-52518571D01*
X86883809Y-52590000D01*
X86788571Y-52661428D01*
X86693333Y-52804285D01*
X86693333Y-53018571D01*
X86788571Y-53161428D01*
X86883809Y-53232857D01*
X87074285Y-53304285D01*
X87836190Y-53304285D01*
X84979047Y-53018571D02*
X84979047Y-54018571D01*
X85455238Y-52447142D02*
X85931428Y-53518571D01*
X84693333Y-53518571D01*
X220301428Y-86693333D02*
X221015714Y-87360000D01*
X220301428Y-87836190D02*
X221801428Y-87836190D01*
X221801428Y-87074285D01*
X221730000Y-86883809D01*
X221658571Y-86788571D01*
X221515714Y-86693333D01*
X221301428Y-86693333D01*
X221158571Y-86788571D01*
X221087142Y-86883809D01*
X221015714Y-87074285D01*
X221015714Y-87836190D01*
X221801428Y-84979047D02*
X221801428Y-85360000D01*
X221730000Y-85550476D01*
X221658571Y-85645714D01*
X221444285Y-85836190D01*
X221158571Y-85931428D01*
X220587142Y-85931428D01*
X220444285Y-85836190D01*
X220372857Y-85740952D01*
X220301428Y-85550476D01*
X220301428Y-85169523D01*
X220372857Y-84979047D01*
X220444285Y-84883809D01*
X220587142Y-84788571D01*
X220944285Y-84788571D01*
X221087142Y-84883809D01*
X221158571Y-84979047D01*
X221230000Y-85169523D01*
X221230000Y-85550476D01*
X221158571Y-85740952D01*
X221087142Y-85836190D01*
X220944285Y-85931428D01*
X220301428Y-120665714D02*
X221015714Y-121332380D01*
X220301428Y-121808571D02*
X221801428Y-121808571D01*
X221801428Y-121046666D01*
X221730000Y-120856190D01*
X221658571Y-120760952D01*
X221515714Y-120665714D01*
X221301428Y-120665714D01*
X221158571Y-120760952D01*
X221087142Y-120856190D01*
X221015714Y-121046666D01*
X221015714Y-121808571D01*
X220301428Y-118760952D02*
X220301428Y-119903809D01*
X220301428Y-119332380D02*
X221801428Y-119332380D01*
X221587142Y-119522857D01*
X221444285Y-119713333D01*
X221372857Y-119903809D01*
X221801428Y-118094285D02*
X221801428Y-116760952D01*
X220301428Y-117618095D01*
X220301428Y-104155714D02*
X221015714Y-104822380D01*
X220301428Y-105298571D02*
X221801428Y-105298571D01*
X221801428Y-104536666D01*
X221730000Y-104346190D01*
X221658571Y-104250952D01*
X221515714Y-104155714D01*
X221301428Y-104155714D01*
X221158571Y-104250952D01*
X221087142Y-104346190D01*
X221015714Y-104536666D01*
X221015714Y-105298571D01*
X220301428Y-102250952D02*
X220301428Y-103393809D01*
X220301428Y-102822380D02*
X221801428Y-102822380D01*
X221587142Y-103012857D01*
X221444285Y-103203333D01*
X221372857Y-103393809D01*
X221158571Y-101108095D02*
X221230000Y-101298571D01*
X221301428Y-101393809D01*
X221444285Y-101489047D01*
X221515714Y-101489047D01*
X221658571Y-101393809D01*
X221730000Y-101298571D01*
X221801428Y-101108095D01*
X221801428Y-100727142D01*
X221730000Y-100536666D01*
X221658571Y-100441428D01*
X221515714Y-100346190D01*
X221444285Y-100346190D01*
X221301428Y-100441428D01*
X221230000Y-100536666D01*
X221158571Y-100727142D01*
X221158571Y-101108095D01*
X221087142Y-101298571D01*
X221015714Y-101393809D01*
X220872857Y-101489047D01*
X220587142Y-101489047D01*
X220444285Y-101393809D01*
X220372857Y-101298571D01*
X220301428Y-101108095D01*
X220301428Y-100727142D01*
X220372857Y-100536666D01*
X220444285Y-100441428D01*
X220587142Y-100346190D01*
X220872857Y-100346190D01*
X221015714Y-100441428D01*
X221087142Y-100536666D01*
X221158571Y-100727142D01*
X225381428Y-120665714D02*
X226095714Y-121332380D01*
X225381428Y-121808571D02*
X226881428Y-121808571D01*
X226881428Y-121046666D01*
X226810000Y-120856190D01*
X226738571Y-120760952D01*
X226595714Y-120665714D01*
X226381428Y-120665714D01*
X226238571Y-120760952D01*
X226167142Y-120856190D01*
X226095714Y-121046666D01*
X226095714Y-121808571D01*
X225381428Y-118760952D02*
X225381428Y-119903809D01*
X225381428Y-119332380D02*
X226881428Y-119332380D01*
X226667142Y-119522857D01*
X226524285Y-119713333D01*
X226452857Y-119903809D01*
X225381428Y-117808571D02*
X225381428Y-117427619D01*
X225452857Y-117237142D01*
X225524285Y-117141904D01*
X225738571Y-116951428D01*
X226024285Y-116856190D01*
X226595714Y-116856190D01*
X226738571Y-116951428D01*
X226810000Y-117046666D01*
X226881428Y-117237142D01*
X226881428Y-117618095D01*
X226810000Y-117808571D01*
X226738571Y-117903809D01*
X226595714Y-117999047D01*
X226238571Y-117999047D01*
X226095714Y-117903809D01*
X226024285Y-117808571D01*
X225952857Y-117618095D01*
X225952857Y-117237142D01*
X226024285Y-117046666D01*
X226095714Y-116951428D01*
X226238571Y-116856190D01*
X225381428Y-104155714D02*
X226095714Y-104822380D01*
X225381428Y-105298571D02*
X226881428Y-105298571D01*
X226881428Y-104536666D01*
X226810000Y-104346190D01*
X226738571Y-104250952D01*
X226595714Y-104155714D01*
X226381428Y-104155714D01*
X226238571Y-104250952D01*
X226167142Y-104346190D01*
X226095714Y-104536666D01*
X226095714Y-105298571D01*
X226738571Y-103393809D02*
X226810000Y-103298571D01*
X226881428Y-103108095D01*
X226881428Y-102631904D01*
X226810000Y-102441428D01*
X226738571Y-102346190D01*
X226595714Y-102250952D01*
X226452857Y-102250952D01*
X226238571Y-102346190D01*
X225381428Y-103489047D01*
X225381428Y-102250952D01*
X226881428Y-101012857D02*
X226881428Y-100822380D01*
X226810000Y-100631904D01*
X226738571Y-100536666D01*
X226595714Y-100441428D01*
X226310000Y-100346190D01*
X225952857Y-100346190D01*
X225667142Y-100441428D01*
X225524285Y-100536666D01*
X225452857Y-100631904D01*
X225381428Y-100822380D01*
X225381428Y-101012857D01*
X225452857Y-101203333D01*
X225524285Y-101298571D01*
X225667142Y-101393809D01*
X225952857Y-101489047D01*
X226310000Y-101489047D01*
X226595714Y-101393809D01*
X226738571Y-101298571D01*
X226810000Y-101203333D01*
X226881428Y-101012857D01*
X80601428Y-124475714D02*
X81315714Y-125142380D01*
X80601428Y-125618571D02*
X82101428Y-125618571D01*
X82101428Y-124856666D01*
X82030000Y-124666190D01*
X81958571Y-124570952D01*
X81815714Y-124475714D01*
X81601428Y-124475714D01*
X81458571Y-124570952D01*
X81387142Y-124666190D01*
X81315714Y-124856666D01*
X81315714Y-125618571D01*
X80601428Y-122570952D02*
X80601428Y-123713809D01*
X80601428Y-123142380D02*
X82101428Y-123142380D01*
X81887142Y-123332857D01*
X81744285Y-123523333D01*
X81672857Y-123713809D01*
X81601428Y-120856666D02*
X80601428Y-120856666D01*
X82172857Y-121332857D02*
X81101428Y-121809047D01*
X81101428Y-120570952D01*
X125051428Y-109235714D02*
X125765714Y-109902380D01*
X125051428Y-110378571D02*
X126551428Y-110378571D01*
X126551428Y-109616666D01*
X126480000Y-109426190D01*
X126408571Y-109330952D01*
X126265714Y-109235714D01*
X126051428Y-109235714D01*
X125908571Y-109330952D01*
X125837142Y-109426190D01*
X125765714Y-109616666D01*
X125765714Y-110378571D01*
X125051428Y-107330952D02*
X125051428Y-108473809D01*
X125051428Y-107902380D02*
X126551428Y-107902380D01*
X126337142Y-108092857D01*
X126194285Y-108283333D01*
X126122857Y-108473809D01*
X126551428Y-105616666D02*
X126551428Y-105997619D01*
X126480000Y-106188095D01*
X126408571Y-106283333D01*
X126194285Y-106473809D01*
X125908571Y-106569047D01*
X125337142Y-106569047D01*
X125194285Y-106473809D01*
X125122857Y-106378571D01*
X125051428Y-106188095D01*
X125051428Y-105807142D01*
X125122857Y-105616666D01*
X125194285Y-105521428D01*
X125337142Y-105426190D01*
X125694285Y-105426190D01*
X125837142Y-105521428D01*
X125908571Y-105616666D01*
X125980000Y-105807142D01*
X125980000Y-106188095D01*
X125908571Y-106378571D01*
X125837142Y-106473809D01*
X125694285Y-106569047D01*
X73358333Y-95785714D02*
X73453571Y-95857142D01*
X73739285Y-95928571D01*
X73929761Y-95928571D01*
X74215476Y-95857142D01*
X74405952Y-95714285D01*
X74501190Y-95571428D01*
X74596428Y-95285714D01*
X74596428Y-95071428D01*
X74501190Y-94785714D01*
X74405952Y-94642857D01*
X74215476Y-94500000D01*
X73929761Y-94428571D01*
X73739285Y-94428571D01*
X73453571Y-94500000D01*
X73358333Y-94571428D01*
X71453571Y-95928571D02*
X72596428Y-95928571D01*
X72025000Y-95928571D02*
X72025000Y-94428571D01*
X72215476Y-94642857D01*
X72405952Y-94785714D01*
X72596428Y-94857142D01*
X96853333Y-109898571D02*
X97520000Y-109184285D01*
X97996190Y-109898571D02*
X97996190Y-108398571D01*
X97234285Y-108398571D01*
X97043809Y-108470000D01*
X96948571Y-108541428D01*
X96853333Y-108684285D01*
X96853333Y-108898571D01*
X96948571Y-109041428D01*
X97043809Y-109112857D01*
X97234285Y-109184285D01*
X97996190Y-109184285D01*
X95043809Y-108398571D02*
X95996190Y-108398571D01*
X96091428Y-109112857D01*
X95996190Y-109041428D01*
X95805714Y-108970000D01*
X95329523Y-108970000D01*
X95139047Y-109041428D01*
X95043809Y-109112857D01*
X94948571Y-109255714D01*
X94948571Y-109612857D01*
X95043809Y-109755714D01*
X95139047Y-109827142D01*
X95329523Y-109898571D01*
X95805714Y-109898571D01*
X95996190Y-109827142D01*
X96091428Y-109755714D01*
D19*
X75894285Y-42356428D02*
X75965714Y-42415952D01*
X76180000Y-42475476D01*
X76322857Y-42475476D01*
X76537142Y-42415952D01*
X76680000Y-42296904D01*
X76751428Y-42177857D01*
X76822857Y-41939761D01*
X76822857Y-41761190D01*
X76751428Y-41523095D01*
X76680000Y-41404047D01*
X76537142Y-41285000D01*
X76322857Y-41225476D01*
X76180000Y-41225476D01*
X75965714Y-41285000D01*
X75894285Y-41344523D01*
X74465714Y-42475476D02*
X75322857Y-42475476D01*
X74894285Y-42475476D02*
X74894285Y-41225476D01*
X75037142Y-41404047D01*
X75180000Y-41523095D01*
X75322857Y-41582619D01*
X73537142Y-41225476D02*
X73394285Y-41225476D01*
X73251428Y-41285000D01*
X73180000Y-41344523D01*
X73108571Y-41463571D01*
X73037142Y-41701666D01*
X73037142Y-41999285D01*
X73108571Y-42237380D01*
X73180000Y-42356428D01*
X73251428Y-42415952D01*
X73394285Y-42475476D01*
X73537142Y-42475476D01*
X73680000Y-42415952D01*
X73751428Y-42356428D01*
X73822857Y-42237380D01*
X73894285Y-41999285D01*
X73894285Y-41701666D01*
X73822857Y-41463571D01*
X73751428Y-41344523D01*
X73680000Y-41285000D01*
X73537142Y-41225476D01*
D18*
X226393333Y-45128571D02*
X227060000Y-44414285D01*
X227536190Y-45128571D02*
X227536190Y-43628571D01*
X226774285Y-43628571D01*
X226583809Y-43700000D01*
X226488571Y-43771428D01*
X226393333Y-43914285D01*
X226393333Y-44128571D01*
X226488571Y-44271428D01*
X226583809Y-44342857D01*
X226774285Y-44414285D01*
X227536190Y-44414285D01*
X225726666Y-43628571D02*
X224393333Y-43628571D01*
X225250476Y-45128571D01*
X208613333Y-52748571D02*
X209280000Y-52034285D01*
X209756190Y-52748571D02*
X209756190Y-51248571D01*
X208994285Y-51248571D01*
X208803809Y-51320000D01*
X208708571Y-51391428D01*
X208613333Y-51534285D01*
X208613333Y-51748571D01*
X208708571Y-51891428D01*
X208803809Y-51962857D01*
X208994285Y-52034285D01*
X209756190Y-52034285D01*
X207470476Y-51891428D02*
X207660952Y-51820000D01*
X207756190Y-51748571D01*
X207851428Y-51605714D01*
X207851428Y-51534285D01*
X207756190Y-51391428D01*
X207660952Y-51320000D01*
X207470476Y-51248571D01*
X207089523Y-51248571D01*
X206899047Y-51320000D01*
X206803809Y-51391428D01*
X206708571Y-51534285D01*
X206708571Y-51605714D01*
X206803809Y-51748571D01*
X206899047Y-51820000D01*
X207089523Y-51891428D01*
X207470476Y-51891428D01*
X207660952Y-51962857D01*
X207756190Y-52034285D01*
X207851428Y-52177142D01*
X207851428Y-52462857D01*
X207756190Y-52605714D01*
X207660952Y-52677142D01*
X207470476Y-52748571D01*
X207089523Y-52748571D01*
X206899047Y-52677142D01*
X206803809Y-52605714D01*
X206708571Y-52462857D01*
X206708571Y-52177142D01*
X206803809Y-52034285D01*
X206899047Y-51962857D01*
X207089523Y-51891428D01*
X208613333Y-45128571D02*
X209280000Y-44414285D01*
X209756190Y-45128571D02*
X209756190Y-43628571D01*
X208994285Y-43628571D01*
X208803809Y-43700000D01*
X208708571Y-43771428D01*
X208613333Y-43914285D01*
X208613333Y-44128571D01*
X208708571Y-44271428D01*
X208803809Y-44342857D01*
X208994285Y-44414285D01*
X209756190Y-44414285D01*
X207660952Y-45128571D02*
X207280000Y-45128571D01*
X207089523Y-45057142D01*
X206994285Y-44985714D01*
X206803809Y-44771428D01*
X206708571Y-44485714D01*
X206708571Y-43914285D01*
X206803809Y-43771428D01*
X206899047Y-43700000D01*
X207089523Y-43628571D01*
X207470476Y-43628571D01*
X207660952Y-43700000D01*
X207756190Y-43771428D01*
X207851428Y-43914285D01*
X207851428Y-44271428D01*
X207756190Y-44414285D01*
X207660952Y-44485714D01*
X207470476Y-44557142D01*
X207089523Y-44557142D01*
X206899047Y-44485714D01*
X206803809Y-44414285D01*
X206708571Y-44271428D01*
X209565714Y-48938571D02*
X210232380Y-48224285D01*
X210708571Y-48938571D02*
X210708571Y-47438571D01*
X209946666Y-47438571D01*
X209756190Y-47510000D01*
X209660952Y-47581428D01*
X209565714Y-47724285D01*
X209565714Y-47938571D01*
X209660952Y-48081428D01*
X209756190Y-48152857D01*
X209946666Y-48224285D01*
X210708571Y-48224285D01*
X207660952Y-48938571D02*
X208803809Y-48938571D01*
X208232380Y-48938571D02*
X208232380Y-47438571D01*
X208422857Y-47652857D01*
X208613333Y-47795714D01*
X208803809Y-47867142D01*
X206422857Y-47438571D02*
X206232380Y-47438571D01*
X206041904Y-47510000D01*
X205946666Y-47581428D01*
X205851428Y-47724285D01*
X205756190Y-48010000D01*
X205756190Y-48367142D01*
X205851428Y-48652857D01*
X205946666Y-48795714D01*
X206041904Y-48867142D01*
X206232380Y-48938571D01*
X206422857Y-48938571D01*
X206613333Y-48867142D01*
X206708571Y-48795714D01*
X206803809Y-48652857D01*
X206899047Y-48367142D01*
X206899047Y-48010000D01*
X206803809Y-47724285D01*
X206708571Y-47581428D01*
X206613333Y-47510000D01*
X206422857Y-47438571D01*
X168925714Y-45128571D02*
X169592380Y-44414285D01*
X170068571Y-45128571D02*
X170068571Y-43628571D01*
X169306666Y-43628571D01*
X169116190Y-43700000D01*
X169020952Y-43771428D01*
X168925714Y-43914285D01*
X168925714Y-44128571D01*
X169020952Y-44271428D01*
X169116190Y-44342857D01*
X169306666Y-44414285D01*
X170068571Y-44414285D01*
X167020952Y-45128571D02*
X168163809Y-45128571D01*
X167592380Y-45128571D02*
X167592380Y-43628571D01*
X167782857Y-43842857D01*
X167973333Y-43985714D01*
X168163809Y-44057142D01*
X165116190Y-45128571D02*
X166259047Y-45128571D01*
X165687619Y-45128571D02*
X165687619Y-43628571D01*
X165878095Y-43842857D01*
X166068571Y-43985714D01*
X166259047Y-44057142D01*
X168925714Y-48938571D02*
X169592380Y-48224285D01*
X170068571Y-48938571D02*
X170068571Y-47438571D01*
X169306666Y-47438571D01*
X169116190Y-47510000D01*
X169020952Y-47581428D01*
X168925714Y-47724285D01*
X168925714Y-47938571D01*
X169020952Y-48081428D01*
X169116190Y-48152857D01*
X169306666Y-48224285D01*
X170068571Y-48224285D01*
X167020952Y-48938571D02*
X168163809Y-48938571D01*
X167592380Y-48938571D02*
X167592380Y-47438571D01*
X167782857Y-47652857D01*
X167973333Y-47795714D01*
X168163809Y-47867142D01*
X166259047Y-47581428D02*
X166163809Y-47510000D01*
X165973333Y-47438571D01*
X165497142Y-47438571D01*
X165306666Y-47510000D01*
X165211428Y-47581428D01*
X165116190Y-47724285D01*
X165116190Y-47867142D01*
X165211428Y-48081428D01*
X166354285Y-48938571D01*
X165116190Y-48938571D01*
X168925714Y-52748571D02*
X169592380Y-52034285D01*
X170068571Y-52748571D02*
X170068571Y-51248571D01*
X169306666Y-51248571D01*
X169116190Y-51320000D01*
X169020952Y-51391428D01*
X168925714Y-51534285D01*
X168925714Y-51748571D01*
X169020952Y-51891428D01*
X169116190Y-51962857D01*
X169306666Y-52034285D01*
X170068571Y-52034285D01*
X167020952Y-52748571D02*
X168163809Y-52748571D01*
X167592380Y-52748571D02*
X167592380Y-51248571D01*
X167782857Y-51462857D01*
X167973333Y-51605714D01*
X168163809Y-51677142D01*
X166354285Y-51248571D02*
X165116190Y-51248571D01*
X165782857Y-51820000D01*
X165497142Y-51820000D01*
X165306666Y-51891428D01*
X165211428Y-51962857D01*
X165116190Y-52105714D01*
X165116190Y-52462857D01*
X165211428Y-52605714D01*
X165306666Y-52677142D01*
X165497142Y-52748571D01*
X166068571Y-52748571D01*
X166259047Y-52677142D01*
X166354285Y-52605714D01*
X47581428Y-123205714D02*
X48295714Y-123872380D01*
X47581428Y-124348571D02*
X49081428Y-124348571D01*
X49081428Y-123586666D01*
X49010000Y-123396190D01*
X48938571Y-123300952D01*
X48795714Y-123205714D01*
X48581428Y-123205714D01*
X48438571Y-123300952D01*
X48367142Y-123396190D01*
X48295714Y-123586666D01*
X48295714Y-124348571D01*
X47581428Y-121300952D02*
X47581428Y-122443809D01*
X47581428Y-121872380D02*
X49081428Y-121872380D01*
X48867142Y-122062857D01*
X48724285Y-122253333D01*
X48652857Y-122443809D01*
X49081428Y-119491428D02*
X49081428Y-120443809D01*
X48367142Y-120539047D01*
X48438571Y-120443809D01*
X48510000Y-120253333D01*
X48510000Y-119777142D01*
X48438571Y-119586666D01*
X48367142Y-119491428D01*
X48224285Y-119396190D01*
X47867142Y-119396190D01*
X47724285Y-119491428D01*
X47652857Y-119586666D01*
X47581428Y-119777142D01*
X47581428Y-120253333D01*
X47652857Y-120443809D01*
X47724285Y-120539047D01*
X227663333Y-52605714D02*
X227758571Y-52677142D01*
X228044285Y-52748571D01*
X228234761Y-52748571D01*
X228520476Y-52677142D01*
X228710952Y-52534285D01*
X228806190Y-52391428D01*
X228901428Y-52105714D01*
X228901428Y-51891428D01*
X228806190Y-51605714D01*
X228710952Y-51462857D01*
X228520476Y-51320000D01*
X228234761Y-51248571D01*
X228044285Y-51248571D01*
X227758571Y-51320000D01*
X227663333Y-51391428D01*
X226901428Y-51391428D02*
X226806190Y-51320000D01*
X226615714Y-51248571D01*
X226139523Y-51248571D01*
X225949047Y-51320000D01*
X225853809Y-51391428D01*
X225758571Y-51534285D01*
X225758571Y-51677142D01*
X225853809Y-51891428D01*
X226996666Y-52748571D01*
X225758571Y-52748571D01*
X217503333Y-136425714D02*
X217598571Y-136497142D01*
X217884285Y-136568571D01*
X218074761Y-136568571D01*
X218360476Y-136497142D01*
X218550952Y-136354285D01*
X218646190Y-136211428D01*
X218741428Y-135925714D01*
X218741428Y-135711428D01*
X218646190Y-135425714D01*
X218550952Y-135282857D01*
X218360476Y-135140000D01*
X218074761Y-135068571D01*
X217884285Y-135068571D01*
X217598571Y-135140000D01*
X217503333Y-135211428D01*
X216836666Y-135068571D02*
X215598571Y-135068571D01*
X216265238Y-135640000D01*
X215979523Y-135640000D01*
X215789047Y-135711428D01*
X215693809Y-135782857D01*
X215598571Y-135925714D01*
X215598571Y-136282857D01*
X215693809Y-136425714D01*
X215789047Y-136497142D01*
X215979523Y-136568571D01*
X216550952Y-136568571D01*
X216741428Y-136497142D01*
X216836666Y-136425714D01*
X230203333Y-131345714D02*
X230298571Y-131417142D01*
X230584285Y-131488571D01*
X230774761Y-131488571D01*
X231060476Y-131417142D01*
X231250952Y-131274285D01*
X231346190Y-131131428D01*
X231441428Y-130845714D01*
X231441428Y-130631428D01*
X231346190Y-130345714D01*
X231250952Y-130202857D01*
X231060476Y-130060000D01*
X230774761Y-129988571D01*
X230584285Y-129988571D01*
X230298571Y-130060000D01*
X230203333Y-130131428D01*
X228489047Y-130488571D02*
X228489047Y-131488571D01*
X228965238Y-129917142D02*
X229441428Y-130988571D01*
X228203333Y-130988571D01*
D20*
X105660000Y-111101142D02*
X105731428Y-111148761D01*
X105945714Y-111196380D01*
X106088571Y-111196380D01*
X106302857Y-111148761D01*
X106445714Y-111053523D01*
X106517142Y-110958285D01*
X106588571Y-110767809D01*
X106588571Y-110624952D01*
X106517142Y-110434476D01*
X106445714Y-110339238D01*
X106302857Y-110244000D01*
X106088571Y-110196380D01*
X105945714Y-110196380D01*
X105731428Y-110244000D01*
X105660000Y-110291619D01*
X104302857Y-110196380D02*
X105017142Y-110196380D01*
X105088571Y-110672571D01*
X105017142Y-110624952D01*
X104874285Y-110577333D01*
X104517142Y-110577333D01*
X104374285Y-110624952D01*
X104302857Y-110672571D01*
X104231428Y-110767809D01*
X104231428Y-111005904D01*
X104302857Y-111101142D01*
X104374285Y-111148761D01*
X104517142Y-111196380D01*
X104874285Y-111196380D01*
X105017142Y-111148761D01*
X105088571Y-111101142D01*
D18*
X104473333Y-140235714D02*
X104568571Y-140307142D01*
X104854285Y-140378571D01*
X105044761Y-140378571D01*
X105330476Y-140307142D01*
X105520952Y-140164285D01*
X105616190Y-140021428D01*
X105711428Y-139735714D01*
X105711428Y-139521428D01*
X105616190Y-139235714D01*
X105520952Y-139092857D01*
X105330476Y-138950000D01*
X105044761Y-138878571D01*
X104854285Y-138878571D01*
X104568571Y-138950000D01*
X104473333Y-139021428D01*
X102759047Y-138878571D02*
X103140000Y-138878571D01*
X103330476Y-138950000D01*
X103425714Y-139021428D01*
X103616190Y-139235714D01*
X103711428Y-139521428D01*
X103711428Y-140092857D01*
X103616190Y-140235714D01*
X103520952Y-140307142D01*
X103330476Y-140378571D01*
X102949523Y-140378571D01*
X102759047Y-140307142D01*
X102663809Y-140235714D01*
X102568571Y-140092857D01*
X102568571Y-139735714D01*
X102663809Y-139592857D01*
X102759047Y-139521428D01*
X102949523Y-139450000D01*
X103330476Y-139450000D01*
X103520952Y-139521428D01*
X103616190Y-139592857D01*
X103711428Y-139735714D01*
X57483333Y-139600714D02*
X57578571Y-139672142D01*
X57864285Y-139743571D01*
X58054761Y-139743571D01*
X58340476Y-139672142D01*
X58530952Y-139529285D01*
X58626190Y-139386428D01*
X58721428Y-139100714D01*
X58721428Y-138886428D01*
X58626190Y-138600714D01*
X58530952Y-138457857D01*
X58340476Y-138315000D01*
X58054761Y-138243571D01*
X57864285Y-138243571D01*
X57578571Y-138315000D01*
X57483333Y-138386428D01*
X56530952Y-139743571D02*
X56150000Y-139743571D01*
X55959523Y-139672142D01*
X55864285Y-139600714D01*
X55673809Y-139386428D01*
X55578571Y-139100714D01*
X55578571Y-138529285D01*
X55673809Y-138386428D01*
X55769047Y-138315000D01*
X55959523Y-138243571D01*
X56340476Y-138243571D01*
X56530952Y-138315000D01*
X56626190Y-138386428D01*
X56721428Y-138529285D01*
X56721428Y-138886428D01*
X56626190Y-139029285D01*
X56530952Y-139100714D01*
X56340476Y-139172142D01*
X55959523Y-139172142D01*
X55769047Y-139100714D01*
X55673809Y-139029285D01*
X55578571Y-138886428D01*
D19*
X40334285Y-42356428D02*
X40405714Y-42415952D01*
X40620000Y-42475476D01*
X40762857Y-42475476D01*
X40977142Y-42415952D01*
X41120000Y-42296904D01*
X41191428Y-42177857D01*
X41262857Y-41939761D01*
X41262857Y-41761190D01*
X41191428Y-41523095D01*
X41120000Y-41404047D01*
X40977142Y-41285000D01*
X40762857Y-41225476D01*
X40620000Y-41225476D01*
X40405714Y-41285000D01*
X40334285Y-41344523D01*
X38905714Y-42475476D02*
X39762857Y-42475476D01*
X39334285Y-42475476D02*
X39334285Y-41225476D01*
X39477142Y-41404047D01*
X39620000Y-41523095D01*
X39762857Y-41582619D01*
X37477142Y-42475476D02*
X38334285Y-42475476D01*
X37905714Y-42475476D02*
X37905714Y-41225476D01*
X38048571Y-41404047D01*
X38191428Y-41523095D01*
X38334285Y-41582619D01*
D18*
X84470714Y-113565714D02*
X84565952Y-113637142D01*
X84851666Y-113708571D01*
X85042142Y-113708571D01*
X85327857Y-113637142D01*
X85518333Y-113494285D01*
X85613571Y-113351428D01*
X85708809Y-113065714D01*
X85708809Y-112851428D01*
X85613571Y-112565714D01*
X85518333Y-112422857D01*
X85327857Y-112280000D01*
X85042142Y-112208571D01*
X84851666Y-112208571D01*
X84565952Y-112280000D01*
X84470714Y-112351428D01*
X82565952Y-113708571D02*
X83708809Y-113708571D01*
X83137380Y-113708571D02*
X83137380Y-112208571D01*
X83327857Y-112422857D01*
X83518333Y-112565714D01*
X83708809Y-112637142D01*
X80851666Y-112708571D02*
X80851666Y-113708571D01*
X81327857Y-112137142D02*
X81804047Y-113208571D01*
X80565952Y-113208571D01*
X156543333Y-55780714D02*
X156638571Y-55852142D01*
X156924285Y-55923571D01*
X157114761Y-55923571D01*
X157400476Y-55852142D01*
X157590952Y-55709285D01*
X157686190Y-55566428D01*
X157781428Y-55280714D01*
X157781428Y-55066428D01*
X157686190Y-54780714D01*
X157590952Y-54637857D01*
X157400476Y-54495000D01*
X157114761Y-54423571D01*
X156924285Y-54423571D01*
X156638571Y-54495000D01*
X156543333Y-54566428D01*
X155876666Y-54423571D02*
X154543333Y-54423571D01*
X155400476Y-55923571D01*
X100028333Y-79275714D02*
X100123571Y-79347142D01*
X100409285Y-79418571D01*
X100599761Y-79418571D01*
X100885476Y-79347142D01*
X101075952Y-79204285D01*
X101171190Y-79061428D01*
X101266428Y-78775714D01*
X101266428Y-78561428D01*
X101171190Y-78275714D01*
X101075952Y-78132857D01*
X100885476Y-77990000D01*
X100599761Y-77918571D01*
X100409285Y-77918571D01*
X100123571Y-77990000D01*
X100028333Y-78061428D01*
X98885476Y-78561428D02*
X99075952Y-78490000D01*
X99171190Y-78418571D01*
X99266428Y-78275714D01*
X99266428Y-78204285D01*
X99171190Y-78061428D01*
X99075952Y-77990000D01*
X98885476Y-77918571D01*
X98504523Y-77918571D01*
X98314047Y-77990000D01*
X98218809Y-78061428D01*
X98123571Y-78204285D01*
X98123571Y-78275714D01*
X98218809Y-78418571D01*
X98314047Y-78490000D01*
X98504523Y-78561428D01*
X98885476Y-78561428D01*
X99075952Y-78632857D01*
X99171190Y-78704285D01*
X99266428Y-78847142D01*
X99266428Y-79132857D01*
X99171190Y-79275714D01*
X99075952Y-79347142D01*
X98885476Y-79418571D01*
X98504523Y-79418571D01*
X98314047Y-79347142D01*
X98218809Y-79275714D01*
X98123571Y-79132857D01*
X98123571Y-78847142D01*
X98218809Y-78704285D01*
X98314047Y-78632857D01*
X98504523Y-78561428D01*
X120665714Y-137203571D02*
X121332380Y-136489285D01*
X121808571Y-137203571D02*
X121808571Y-135703571D01*
X121046666Y-135703571D01*
X120856190Y-135775000D01*
X120760952Y-135846428D01*
X120665714Y-135989285D01*
X120665714Y-136203571D01*
X120760952Y-136346428D01*
X120856190Y-136417857D01*
X121046666Y-136489285D01*
X121808571Y-136489285D01*
X119903809Y-135846428D02*
X119808571Y-135775000D01*
X119618095Y-135703571D01*
X119141904Y-135703571D01*
X118951428Y-135775000D01*
X118856190Y-135846428D01*
X118760952Y-135989285D01*
X118760952Y-136132142D01*
X118856190Y-136346428D01*
X119999047Y-137203571D01*
X118760952Y-137203571D01*
X116856190Y-137203571D02*
X117999047Y-137203571D01*
X117427619Y-137203571D02*
X117427619Y-135703571D01*
X117618095Y-135917857D01*
X117808571Y-136060714D01*
X117999047Y-136132142D01*
X92090714Y-137203571D02*
X92757380Y-136489285D01*
X93233571Y-137203571D02*
X93233571Y-135703571D01*
X92471666Y-135703571D01*
X92281190Y-135775000D01*
X92185952Y-135846428D01*
X92090714Y-135989285D01*
X92090714Y-136203571D01*
X92185952Y-136346428D01*
X92281190Y-136417857D01*
X92471666Y-136489285D01*
X93233571Y-136489285D01*
X91328809Y-135846428D02*
X91233571Y-135775000D01*
X91043095Y-135703571D01*
X90566904Y-135703571D01*
X90376428Y-135775000D01*
X90281190Y-135846428D01*
X90185952Y-135989285D01*
X90185952Y-136132142D01*
X90281190Y-136346428D01*
X91424047Y-137203571D01*
X90185952Y-137203571D01*
X89424047Y-135846428D02*
X89328809Y-135775000D01*
X89138333Y-135703571D01*
X88662142Y-135703571D01*
X88471666Y-135775000D01*
X88376428Y-135846428D01*
X88281190Y-135989285D01*
X88281190Y-136132142D01*
X88376428Y-136346428D01*
X89519285Y-137203571D01*
X88281190Y-137203571D01*
X230461428Y-104155714D02*
X231175714Y-104822380D01*
X230461428Y-105298571D02*
X231961428Y-105298571D01*
X231961428Y-104536666D01*
X231890000Y-104346190D01*
X231818571Y-104250952D01*
X231675714Y-104155714D01*
X231461428Y-104155714D01*
X231318571Y-104250952D01*
X231247142Y-104346190D01*
X231175714Y-104536666D01*
X231175714Y-105298571D01*
X231818571Y-103393809D02*
X231890000Y-103298571D01*
X231961428Y-103108095D01*
X231961428Y-102631904D01*
X231890000Y-102441428D01*
X231818571Y-102346190D01*
X231675714Y-102250952D01*
X231532857Y-102250952D01*
X231318571Y-102346190D01*
X230461428Y-103489047D01*
X230461428Y-102250952D01*
X231961428Y-101584285D02*
X231961428Y-100346190D01*
X231390000Y-101012857D01*
X231390000Y-100727142D01*
X231318571Y-100536666D01*
X231247142Y-100441428D01*
X231104285Y-100346190D01*
X230747142Y-100346190D01*
X230604285Y-100441428D01*
X230532857Y-100536666D01*
X230461428Y-100727142D01*
X230461428Y-101298571D01*
X230532857Y-101489047D01*
X230604285Y-101584285D01*
X230393714Y-89689714D02*
X230488952Y-89761142D01*
X230774666Y-89832571D01*
X230965142Y-89832571D01*
X231250857Y-89761142D01*
X231441333Y-89618285D01*
X231536571Y-89475428D01*
X231631809Y-89189714D01*
X231631809Y-88975428D01*
X231536571Y-88689714D01*
X231441333Y-88546857D01*
X231250857Y-88404000D01*
X230965142Y-88332571D01*
X230774666Y-88332571D01*
X230488952Y-88404000D01*
X230393714Y-88475428D01*
X228488952Y-89832571D02*
X229631809Y-89832571D01*
X229060380Y-89832571D02*
X229060380Y-88332571D01*
X229250857Y-88546857D01*
X229441333Y-88689714D01*
X229631809Y-88761142D01*
X227727047Y-88475428D02*
X227631809Y-88404000D01*
X227441333Y-88332571D01*
X226965142Y-88332571D01*
X226774666Y-88404000D01*
X226679428Y-88475428D01*
X226584190Y-88618285D01*
X226584190Y-88761142D01*
X226679428Y-88975428D01*
X227822285Y-89832571D01*
X226584190Y-89832571D01*
M02*
