M48
; DRILL file {KiCad (5.1.4)-1} date 11/10/2020 11:49:54
; FORMAT={-:-/ absolute / inch / decimal}
; #@! TF.CreationDate,2020-10-11T11:49:54+02:00
; #@! TF.GenerationSoftware,Kicad,Pcbnew,(5.1.4)-1
FMAT,2
INCH
T1C0.0236
T2C0.0315
T3C0.0394
T4C0.0492
T5C0.1063
T6C0.1102
T7C0.2500
%
G90
G05
T1
X1.55Y-3.25
X1.65Y-4.775
X1.8Y-2.275
X1.825Y-2.15
X2.25Y-4.95
X2.4Y-3.1
X2.4Y-3.375
X2.4Y-4.1
X2.575Y-2.5
X2.575Y-4.325
X2.85Y-4.175
X2.85Y-4.375
X3.3Y-4.3
X3.925Y-3.5
X4.15Y-5.3
X4.5Y-3.75
X4.5Y-4.2
X4.75Y-1.7
X4.9Y-1.45
X4.95Y-5.15
X5.025Y-1.95
X5.025Y-2.05
X5.025Y-2.15
X5.025Y-2.25
X5.25Y-1.325
X5.25Y-4.75
X5.35Y-5.225
X5.35Y-5.475
X6.75Y-1.3
T2
X8.2Y-2.35
X8.65Y-1.9
X9.25Y-1.9
X3.925Y-4.45
X4.125Y-4.45
X6.35Y-1.75
X6.85Y-1.75
X8.65Y-1.75
X9.15Y-1.75
X8.7Y-5.1
X8.7Y-5.4
X7.95Y-1.9
X8.45Y-1.9
X3.15Y-2.1
X3.65Y-2.1
X3.95Y-2.05
X3.95Y-2.15
X3.95Y-2.25
X3.95Y-2.35
X3.95Y-2.45
X3.95Y-2.55
X3.95Y-2.65
X3.95Y-2.75
X3.95Y-2.85
X4.25Y-2.05
X4.25Y-2.15
X4.25Y-2.25
X4.25Y-2.35
X4.25Y-2.45
X4.25Y-2.55
X4.25Y-2.65
X4.25Y-2.75
X4.25Y-2.85
X1.4Y-1.75
X1.7Y-1.75
X4.15Y-3.05
X4.15Y-3.15
X4.15Y-3.25
X4.15Y-3.35
X4.15Y-3.45
X4.15Y-3.55
X4.15Y-3.65
X4.15Y-3.75
X4.15Y-3.85
X4.15Y-3.95
X4.15Y-4.05
X4.15Y-4.15
X4.75Y-3.05
X4.75Y-3.15
X4.75Y-3.25
X4.75Y-3.35
X4.75Y-3.45
X4.75Y-3.55
X4.75Y-3.65
X4.75Y-3.75
X4.75Y-3.85
X4.75Y-3.95
X4.75Y-4.05
X4.75Y-4.15
X2.75Y-5.275
X3.15Y-5.275
X8.7Y-3.15
X8.7Y-3.65
X9.1Y-3.8
X9.1Y-4.3
X7.95Y-2.05
X8.45Y-2.05
X4.45Y-2.05
X4.45Y-2.15
X4.45Y-2.25
X4.45Y-2.35
X4.45Y-2.45
X4.45Y-2.55
X4.45Y-2.65
X4.45Y-2.75
X4.45Y-2.85
X4.75Y-2.05
X4.75Y-2.15
X4.75Y-2.25
X4.75Y-2.35
X4.75Y-2.45
X4.75Y-2.55
X4.75Y-2.65
X4.75Y-2.75
X4.75Y-2.85
X1.9Y-4.55
X1.9Y-5.05
X8.2Y-3.3
X8.3Y-3.3
X5.25Y-1.75
X5.25Y-2.05
X5.35Y-1.75
X5.35Y-2.05
X5.45Y-1.75
X5.45Y-2.05
X5.55Y-1.75
X5.55Y-2.05
X5.65Y-1.75
X5.65Y-2.05
X5.75Y-1.75
X5.75Y-2.05
X5.85Y-1.75
X5.85Y-2.05
X5.95Y-1.75
X5.95Y-2.05
X3.45Y-4.45
X3.75Y-4.45
X3.325Y-5.375
X3.825Y-5.375
X3.2Y-4.6
X3.2Y-5.1
X1.2Y-2.05
X1.2Y-2.15
X1.2Y-2.25
X1.2Y-2.35
X1.2Y-2.45
X1.2Y-2.55
X1.2Y-2.65
X1.2Y-2.75
X1.2Y-2.85
X1.2Y-2.95
X1.2Y-3.05
X1.2Y-3.15
X1.2Y-3.25
X1.2Y-3.35
X1.2Y-3.45
X1.2Y-3.55
X1.2Y-3.65
X1.2Y-3.75
X1.2Y-3.85
X1.2Y-3.95
X1.2Y-4.05
X1.2Y-4.15
X1.2Y-4.25
X1.2Y-4.35
X1.2Y-4.45
X1.2Y-4.55
X1.2Y-4.65
X1.2Y-4.75
X1.2Y-4.85
X1.2Y-4.95
X1.2Y-5.05
X1.2Y-5.15
X1.4Y-2.05
X1.4Y-2.15
X1.4Y-2.25
X1.4Y-2.35
X1.4Y-2.45
X1.4Y-2.55
X1.4Y-2.65
X1.4Y-2.75
X1.4Y-2.85
X1.4Y-2.95
X1.4Y-3.05
X1.4Y-3.15
X1.4Y-3.25
X1.4Y-3.35
X1.4Y-3.45
X1.4Y-3.55
X1.4Y-3.65
X1.4Y-3.75
X1.4Y-3.85
X1.4Y-3.95
X1.4Y-4.05
X1.4Y-4.15
X1.4Y-4.25
X1.4Y-4.35
X1.4Y-4.45
X1.4Y-4.55
X1.4Y-4.65
X1.4Y-4.75
X1.4Y-4.85
X1.4Y-4.95
X1.4Y-5.05
X1.4Y-5.15
X3.0Y-4.6
X3.0Y-5.1
X6.35Y-1.9
X6.85Y-1.9
X3.55Y-4.3
X4.05Y-4.3
X2.1Y-2.25
X2.1Y-2.35
X2.1Y-2.45
X2.1Y-2.55
X2.1Y-2.65
X2.1Y-2.75
X2.1Y-2.85
X2.1Y-2.95
X2.1Y-3.05
X2.1Y-3.15
X2.1Y-3.25
X2.1Y-3.35
X2.1Y-3.45
X2.1Y-3.55
X2.1Y-3.65
X2.1Y-3.75
X2.1Y-3.85
X2.1Y-3.95
X2.1Y-4.05
X2.1Y-4.15
X2.7Y-2.25
X2.7Y-2.35
X2.7Y-2.45
X2.7Y-2.55
X2.7Y-2.65
X2.7Y-2.75
X2.7Y-2.85
X2.7Y-2.95
X2.7Y-3.05
X2.7Y-3.15
X2.7Y-3.25
X2.7Y-3.35
X2.7Y-3.45
X2.7Y-3.55
X2.7Y-3.65
X2.7Y-3.75
X2.7Y-3.85
X2.7Y-3.95
X2.7Y-4.05
X2.7Y-4.15
X3.95Y-4.6
X3.95Y-4.7
X3.95Y-4.8
X3.95Y-4.9
X3.95Y-5.0
X3.95Y-5.1
X3.95Y-5.2
X4.25Y-4.6
X4.25Y-4.7
X4.25Y-4.8
X4.25Y-4.9
X4.25Y-5.0
X4.25Y-5.1
X4.25Y-5.2
X4.45Y-5.375
X4.95Y-5.375
X8.9Y-4.45
X8.9Y-4.95
X2.1Y-4.45
X2.1Y-4.55
X2.1Y-4.65
X2.1Y-4.75
X2.1Y-4.85
X2.1Y-4.95
X2.1Y-5.05
X2.1Y-5.15
X2.4Y-4.45
X2.4Y-4.55
X2.4Y-4.65
X2.4Y-4.75
X2.4Y-4.85
X2.4Y-4.95
X2.4Y-5.05
X2.4Y-5.15
X8.9Y-5.1
X8.9Y-5.4
X8.7Y-4.45
X8.7Y-4.95
X6.35Y-2.05
X6.85Y-2.05
X7.95Y-1.75
X8.45Y-1.75
X4.45Y-4.6
X4.45Y-4.7
X4.45Y-4.8
X4.45Y-4.9
X4.45Y-5.0
X4.45Y-5.1
X4.45Y-5.2
X4.75Y-4.6
X4.75Y-4.7
X4.75Y-4.8
X4.75Y-4.9
X4.75Y-5.0
X4.75Y-5.1
X4.75Y-5.2
X5.5Y-1.45
X5.6Y-1.45
X5.7Y-1.45
X5.8Y-1.45
X5.9Y-1.45
X6.0Y-1.45
X6.1Y-1.45
X6.95Y-1.45
X7.05Y-1.45
X7.15Y-1.45
X7.25Y-1.45
X7.35Y-1.45
X7.45Y-1.45
X6.15Y-1.75
X6.15Y-2.05
X8.7Y-3.8
X8.7Y-4.3
X3.85Y-2.975
X4.0Y-2.975
X4.25Y-4.3
X4.75Y-4.3
X4.95Y-4.0
X4.95Y-4.5
X8.9Y-3.65
X9.1Y-3.65
X8.9Y-3.8
X8.9Y-4.3
X3.95Y-5.375
X4.25Y-5.375
X9.075Y-4.55
X9.075Y-4.95
X2.1Y-5.35
X2.4Y-5.35
X2.85Y-3.85
X2.85Y-4.05
X4.25Y-4.45
X4.75Y-4.45
X3.4Y-4.6
X3.4Y-4.7
X3.4Y-4.8
X3.4Y-4.9
X3.4Y-5.0
X3.4Y-5.1
X3.4Y-5.2
X3.7Y-4.6
X3.7Y-4.7
X3.7Y-4.8
X3.7Y-4.9
X3.7Y-5.0
X3.7Y-5.1
X3.7Y-5.2
X2.85Y-1.75
X3.05Y-1.75
X3.1Y-2.25
X3.1Y-2.35
X3.1Y-2.45
X3.1Y-2.55
X3.1Y-2.65
X3.1Y-2.75
X3.1Y-2.85
X3.1Y-2.95
X3.1Y-3.05
X3.1Y-3.15
X3.1Y-3.25
X3.1Y-3.35
X3.1Y-3.45
X3.1Y-3.55
X3.1Y-3.65
X3.1Y-3.75
X3.1Y-3.85
X3.1Y-3.95
X3.1Y-4.05
X3.1Y-4.15
X3.7Y-2.25
X3.7Y-2.35
X3.7Y-2.45
X3.7Y-2.55
X3.7Y-2.65
X3.7Y-2.75
X3.7Y-2.85
X3.7Y-2.95
X3.7Y-3.05
X3.7Y-3.15
X3.7Y-3.25
X3.7Y-3.35
X3.7Y-3.45
X3.7Y-3.55
X3.7Y-3.65
X3.7Y-3.75
X3.7Y-3.85
X3.7Y-3.95
X3.7Y-4.05
X3.7Y-4.15
X7.05Y-1.75
X7.05Y-2.05
X7.15Y-1.75
X7.15Y-2.05
X7.25Y-1.75
X7.25Y-2.05
X7.35Y-1.75
X7.35Y-2.05
X7.45Y-1.75
X7.45Y-2.05
X7.55Y-1.75
X7.55Y-2.05
X7.65Y-1.75
X7.65Y-2.05
X7.75Y-1.75
X7.75Y-2.05
X9.25Y-2.6
X9.25Y-2.8
X8.05Y-2.6
X8.05Y-2.8
X8.65Y-2.6
X8.65Y-2.8
T3
X2.75Y-4.8
X6.65Y-3.5
X6.65Y-3.7
X6.65Y-3.8
X6.85Y-3.5
X6.85Y-3.7
X6.95Y-3.2
X6.95Y-3.5
X6.95Y-3.7
X6.15Y-2.8
X6.15Y-3.0
X6.15Y-3.1
X6.35Y-2.8
X6.35Y-3.0
X6.45Y-2.5
X6.45Y-2.8
X6.45Y-3.0
X5.15Y-3.5
X5.15Y-3.7
X5.15Y-3.8
X5.35Y-3.5
X5.35Y-3.7
X5.45Y-3.2
X5.45Y-3.5
X5.45Y-3.7
X5.15Y-2.8
X5.15Y-3.0
X5.15Y-3.1
X5.35Y-2.8
X5.35Y-3.0
X5.45Y-2.5
X5.45Y-2.8
X5.45Y-3.0
X2.1Y-4.3
X2.25Y-4.3
X2.45Y-4.3
X6.65Y-4.9
X6.65Y-5.1
X6.65Y-5.2
X6.85Y-4.9
X6.85Y-5.1
X6.95Y-4.6
X6.95Y-4.9
X6.95Y-5.1
X2.55Y-4.45
X2.55Y-4.55
X2.55Y-4.65
X7.6Y-4.2
X7.6Y-4.4
X7.6Y-4.5
X7.8Y-4.2
X7.8Y-4.4
X7.9Y-3.9
X7.9Y-4.2
X7.9Y-4.4
X1.45Y-1.35
X1.5531Y-1.5469
X1.6516Y-1.35
X1.75Y-1.5469
X1.8484Y-1.35
X1.95Y-1.5469
X2.0453Y-1.35
X2.1437Y-1.5469
X2.2421Y-1.35
X2.3406Y-1.5469
X2.439Y-1.35
X2.5374Y-1.5469
X2.6358Y-1.35
X2.7343Y-1.5469
X2.8327Y-1.35
X2.9311Y-1.5469
X3.0295Y-1.35
X3.128Y-1.5469
X3.2264Y-1.35
X3.3248Y-1.5469
X3.4232Y-1.35
X3.5217Y-1.5469
X3.6201Y-1.35
X3.7185Y-1.5469
X3.8169Y-1.35
X3.9154Y-1.5469
X4.0138Y-1.35
X4.1122Y-1.5469
X4.2106Y-1.35
X4.3091Y-1.5469
X4.4075Y-1.35
X6.65Y-2.8
X6.65Y-3.0
X6.65Y-3.1
X6.85Y-2.8
X6.85Y-3.0
X6.95Y-2.5
X6.95Y-2.8
X6.95Y-3.0
X6.15Y-3.5
X6.15Y-3.7
X6.15Y-3.8
X6.35Y-3.5
X6.35Y-3.7
X6.45Y-3.2
X6.45Y-3.5
X6.45Y-3.7
X5.65Y-4.2
X5.65Y-4.4
X5.65Y-4.5
X5.85Y-4.2
X5.85Y-4.4
X5.95Y-3.9
X5.95Y-4.2
X5.95Y-4.4
X8.1Y-3.5
X8.1Y-3.7
X8.1Y-3.8
X8.3Y-3.5
X8.3Y-3.7
X8.4Y-3.2
X8.4Y-3.5
X8.4Y-3.7
X7.6Y-2.8
X7.6Y-3.0
X7.6Y-3.1
X7.8Y-2.8
X7.8Y-3.0
X7.9Y-2.5
X7.9Y-2.8
X7.9Y-3.0
X6.15Y-4.9
X6.15Y-5.1
X6.15Y-5.2
X6.35Y-4.9
X6.35Y-5.1
X6.45Y-4.6
X6.45Y-4.9
X6.45Y-5.1
X8.1Y-4.9
X8.1Y-5.1
X8.1Y-5.2
X8.3Y-4.9
X8.3Y-5.1
X8.4Y-4.6
X8.4Y-4.9
X8.4Y-5.1
X6.15Y-4.2
X6.15Y-4.4
X6.15Y-4.5
X6.35Y-4.2
X6.35Y-4.4
X6.45Y-3.9
X6.45Y-4.2
X6.45Y-4.4
X5.65Y-3.5
X5.65Y-3.7
X5.65Y-3.8
X5.85Y-3.5
X5.85Y-3.7
X5.95Y-3.2
X5.95Y-3.5
X5.95Y-3.7
X5.65Y-2.8
X5.65Y-3.0
X5.65Y-3.1
X5.85Y-2.8
X5.85Y-3.0
X5.95Y-2.5
X5.95Y-2.8
X5.95Y-3.0
X5.15Y-4.9
X5.15Y-5.1
X5.15Y-5.2
X5.35Y-4.9
X5.35Y-5.1
X5.45Y-4.6
X5.45Y-4.9
X5.45Y-5.1
X8.1Y-4.2
X8.1Y-4.4
X8.1Y-4.5
X8.3Y-4.2
X8.3Y-4.4
X8.4Y-3.9
X8.4Y-4.2
X8.4Y-4.4
X7.6Y-3.5
X7.6Y-3.7
X7.6Y-3.8
X7.8Y-3.5
X7.8Y-3.7
X7.9Y-3.2
X7.9Y-3.5
X7.9Y-3.7
X5.15Y-4.2
X5.15Y-4.4
X5.15Y-4.5
X5.35Y-4.2
X5.35Y-4.4
X5.45Y-3.9
X5.45Y-4.2
X5.45Y-4.4
X6.65Y-4.2
X6.65Y-4.4
X6.65Y-4.5
X6.85Y-4.2
X6.85Y-4.4
X6.95Y-3.9
X6.95Y-4.2
X6.95Y-4.4
X5.65Y-4.9
X5.65Y-5.1
X5.65Y-5.2
X5.85Y-4.9
X5.85Y-5.1
X5.95Y-4.6
X5.95Y-4.9
X5.95Y-5.1
X7.6Y-4.9
X7.6Y-5.1
X7.6Y-5.2
X7.8Y-4.9
X7.8Y-5.1
X7.9Y-4.6
X7.9Y-4.9
X7.9Y-5.1
T4
X2.75Y-4.6
X2.75Y-5.1
T5
X7.25Y-3.5
X9.35Y-1.3
X1.6Y-5.4
X9.35Y-5.35
T6
X1.2579Y-1.45
X4.6043Y-1.4484
X1.1Y-1.85
X1.1Y-5.35
T7
X8.95Y-2.8
X8.35Y-2.8
T0
M30
