G04 #@! TF.GenerationSoftware,KiCad,Pcbnew,(5.1.4)-1*
G04 #@! TF.CreationDate,2020-10-11T13:25:07+02:00*
G04 #@! TF.ProjectId,ram-adapter,72616d2d-6164-4617-9074-65722e6b6963,rev?*
G04 #@! TF.SameCoordinates,Original*
G04 #@! TF.FileFunction,Copper,L2,Bot*
G04 #@! TF.FilePolarity,Positive*
%FSLAX46Y46*%
G04 Gerber Fmt 4.6, Leading zero omitted, Abs format (unit mm)*
G04 Created by KiCad (PCBNEW (5.1.4)-1) date 2020-10-11 13:25:07*
%MOMM*%
%LPD*%
G04 APERTURE LIST*
%ADD10O,1.600000X1.600000*%
%ADD11R,1.600000X1.600000*%
%ADD12C,1.600000*%
%ADD13O,1.700000X1.700000*%
%ADD14C,1.700000*%
%ADD15C,0.500000*%
%ADD16C,0.250000*%
G04 APERTURE END LIST*
D10*
X114300000Y-54610000D03*
X99060000Y-82550000D03*
X114300000Y-57150000D03*
X99060000Y-80010000D03*
X114300000Y-59690000D03*
X99060000Y-77470000D03*
X114300000Y-62230000D03*
X99060000Y-74930000D03*
X114300000Y-64770000D03*
X99060000Y-72390000D03*
X114300000Y-67310000D03*
X99060000Y-69850000D03*
X114300000Y-69850000D03*
X99060000Y-67310000D03*
X114300000Y-72390000D03*
X99060000Y-64770000D03*
X114300000Y-74930000D03*
X99060000Y-62230000D03*
X114300000Y-77470000D03*
X99060000Y-59690000D03*
X114300000Y-80010000D03*
X99060000Y-57150000D03*
X114300000Y-82550000D03*
D11*
X99060000Y-54610000D03*
D12*
X119460000Y-80010000D03*
X124460000Y-80010000D03*
D13*
X96520000Y-67310000D03*
X96520000Y-69850000D03*
X96520000Y-72390000D03*
D14*
X96520000Y-74930000D03*
D10*
X109220000Y-57150000D03*
X101600000Y-77470000D03*
X109220000Y-59690000D03*
X101600000Y-74930000D03*
X109220000Y-62230000D03*
X101600000Y-72390000D03*
X109220000Y-64770000D03*
X101600000Y-69850000D03*
X109220000Y-67310000D03*
X101600000Y-67310000D03*
X109220000Y-69850000D03*
X101600000Y-64770000D03*
X109220000Y-72390000D03*
X101600000Y-62230000D03*
X109220000Y-74930000D03*
X101600000Y-59690000D03*
X109220000Y-77470000D03*
D11*
X101600000Y-57150000D03*
D10*
X125730000Y-59690000D03*
X118110000Y-74930000D03*
X125730000Y-62230000D03*
X118110000Y-72390000D03*
X125730000Y-64770000D03*
X118110000Y-69850000D03*
X125730000Y-67310000D03*
X118110000Y-67310000D03*
X125730000Y-69850000D03*
X118110000Y-64770000D03*
X125730000Y-72390000D03*
X118110000Y-62230000D03*
X125730000Y-74930000D03*
D11*
X118110000Y-59690000D03*
D15*
X114300000Y-54610000D02*
X111760000Y-54610000D01*
X111760000Y-54610000D02*
X109220000Y-57150000D01*
X120650000Y-54610000D02*
X125730000Y-59690000D01*
X114300000Y-54610000D02*
X119380000Y-54610000D01*
X119380000Y-54610000D02*
X120650000Y-54610000D01*
D16*
X99060000Y-54610000D02*
X102870000Y-54610000D01*
X102870000Y-54610000D02*
X107950000Y-59690000D01*
X107950000Y-59690000D02*
X109220000Y-59690000D01*
X101600000Y-74930000D02*
X103505000Y-74930000D01*
X103505000Y-74930000D02*
X104775000Y-73660000D01*
X104775000Y-73660000D02*
X104775000Y-69850000D01*
X104775000Y-69850000D02*
X106045000Y-68580000D01*
X106045000Y-68580000D02*
X111760000Y-68580000D01*
X111760000Y-68580000D02*
X113030000Y-69850000D01*
X113030000Y-69850000D02*
X114300000Y-69850000D01*
X114300000Y-57150000D02*
X113030000Y-57150000D01*
X111760000Y-59690000D02*
X111760000Y-58420000D01*
X111760000Y-59690000D02*
X109220000Y-62230000D01*
X111760000Y-58420000D02*
X113030000Y-57150000D01*
X100330000Y-66040000D02*
X99060000Y-67310000D01*
X102870000Y-66040000D02*
X100330000Y-66040000D01*
X103505000Y-66675000D02*
X102870000Y-66040000D01*
X103505000Y-71755000D02*
X103505000Y-66675000D01*
X101600000Y-72390000D02*
X102870000Y-72390000D01*
X102870000Y-72390000D02*
X103505000Y-71755000D01*
X114300000Y-59690000D02*
X113030000Y-59690000D01*
X113030000Y-59690000D02*
X111760000Y-60960000D01*
X111760000Y-60960000D02*
X111760000Y-62230000D01*
X111760000Y-62230000D02*
X109220000Y-64770000D01*
X105410000Y-67310000D02*
X109220000Y-67310000D01*
X104140000Y-68580000D02*
X105410000Y-67310000D01*
X104140000Y-72390000D02*
X104140000Y-68580000D01*
X102870000Y-73660000D02*
X104140000Y-72390000D01*
X99060000Y-74930000D02*
X100330000Y-73660000D01*
X100330000Y-73660000D02*
X102870000Y-73660000D01*
X101600000Y-67310000D02*
X100330000Y-68580000D01*
X100330000Y-68580000D02*
X100330000Y-71120000D01*
X100330000Y-71120000D02*
X99060000Y-72390000D01*
X106680000Y-69850000D02*
X109220000Y-69850000D01*
X105410000Y-71120000D02*
X106680000Y-69850000D01*
X105410000Y-74930000D02*
X105410000Y-71120000D01*
X104140000Y-76200000D02*
X105410000Y-74930000D01*
X99060000Y-77470000D02*
X100330000Y-76200000D01*
X100330000Y-76200000D02*
X104140000Y-76200000D01*
X101600000Y-64770000D02*
X99060000Y-64770000D01*
X107950000Y-72390000D02*
X109220000Y-72390000D01*
X106680000Y-73660000D02*
X107950000Y-72390000D01*
X106680000Y-78740000D02*
X106680000Y-73660000D01*
X99060000Y-80010000D02*
X105410000Y-80010000D01*
X105410000Y-80010000D02*
X106680000Y-78740000D01*
X101600000Y-62230000D02*
X99060000Y-62230000D01*
X107950000Y-82550000D02*
X114300000Y-82550000D01*
X107315000Y-81915000D02*
X107950000Y-82550000D01*
X107315000Y-75565000D02*
X107315000Y-81915000D01*
X109220000Y-74930000D02*
X107950000Y-74930000D01*
X107950000Y-74930000D02*
X107315000Y-75565000D01*
X101600000Y-59690000D02*
X99060000Y-59690000D01*
X118110000Y-59690000D02*
X118110000Y-62230000D01*
X109220000Y-77470000D02*
X110490000Y-77470000D01*
X115570000Y-62230000D02*
X114300000Y-62230000D01*
X116840000Y-62230000D02*
X115570000Y-62230000D01*
X114695002Y-76200000D02*
X111760000Y-76200000D01*
X111760000Y-76200000D02*
X110490000Y-77470000D01*
X114695002Y-76200000D02*
X115570000Y-76200000D01*
X115570000Y-76200000D02*
X116205000Y-75565000D01*
X116205000Y-75565000D02*
X116205000Y-62230000D01*
X116205000Y-62230000D02*
X116840000Y-62230000D01*
X116840000Y-62230000D02*
X118110000Y-62230000D01*
X101600000Y-57150000D02*
X99060000Y-57150000D01*
X125730000Y-62230000D02*
X125730000Y-64770000D01*
X118110000Y-67310000D02*
X118110000Y-69850000D01*
X125730000Y-64770000D02*
X123190000Y-64770000D01*
X123190000Y-64770000D02*
X121920000Y-66040000D01*
X121920000Y-66040000D02*
X121920000Y-69850000D01*
X118110000Y-69850000D02*
X121920000Y-69850000D01*
X121920000Y-69850000D02*
X125730000Y-69850000D01*
X125730000Y-69850000D02*
X125730000Y-72390000D01*
M02*
