G04 #@! TF.GenerationSoftware,KiCad,Pcbnew,(5.1.4)-1*
G04 #@! TF.CreationDate,2020-10-11T13:25:07+02:00*
G04 #@! TF.ProjectId,ram-adapter,72616d2d-6164-4617-9074-65722e6b6963,rev?*
G04 #@! TF.SameCoordinates,Original*
G04 #@! TF.FileFunction,Soldermask,Top*
G04 #@! TF.FilePolarity,Negative*
%FSLAX46Y46*%
G04 Gerber Fmt 4.6, Leading zero omitted, Abs format (unit mm)*
G04 Created by KiCad (PCBNEW (5.1.4)-1) date 2020-10-11 13:25:07*
%MOMM*%
%LPD*%
G04 APERTURE LIST*
%ADD10C,0.100000*%
G04 APERTURE END LIST*
D10*
G36*
X114466823Y-81711313D02*
G01*
X114627242Y-81759976D01*
X114759906Y-81830886D01*
X114775078Y-81838996D01*
X114904659Y-81945341D01*
X115011004Y-82074922D01*
X115011005Y-82074924D01*
X115090024Y-82222758D01*
X115138687Y-82383177D01*
X115155117Y-82550000D01*
X115138687Y-82716823D01*
X115090024Y-82877242D01*
X115019114Y-83009906D01*
X115011004Y-83025078D01*
X114904659Y-83154659D01*
X114775078Y-83261004D01*
X114775076Y-83261005D01*
X114627242Y-83340024D01*
X114466823Y-83388687D01*
X114341804Y-83401000D01*
X114258196Y-83401000D01*
X114133177Y-83388687D01*
X113972758Y-83340024D01*
X113824924Y-83261005D01*
X113824922Y-83261004D01*
X113695341Y-83154659D01*
X113588996Y-83025078D01*
X113580886Y-83009906D01*
X113509976Y-82877242D01*
X113461313Y-82716823D01*
X113444883Y-82550000D01*
X113461313Y-82383177D01*
X113509976Y-82222758D01*
X113588995Y-82074924D01*
X113588996Y-82074922D01*
X113695341Y-81945341D01*
X113824922Y-81838996D01*
X113840094Y-81830886D01*
X113972758Y-81759976D01*
X114133177Y-81711313D01*
X114258196Y-81699000D01*
X114341804Y-81699000D01*
X114466823Y-81711313D01*
X114466823Y-81711313D01*
G37*
G36*
X99226823Y-81711313D02*
G01*
X99387242Y-81759976D01*
X99519906Y-81830886D01*
X99535078Y-81838996D01*
X99664659Y-81945341D01*
X99771004Y-82074922D01*
X99771005Y-82074924D01*
X99850024Y-82222758D01*
X99898687Y-82383177D01*
X99915117Y-82550000D01*
X99898687Y-82716823D01*
X99850024Y-82877242D01*
X99779114Y-83009906D01*
X99771004Y-83025078D01*
X99664659Y-83154659D01*
X99535078Y-83261004D01*
X99535076Y-83261005D01*
X99387242Y-83340024D01*
X99226823Y-83388687D01*
X99101804Y-83401000D01*
X99018196Y-83401000D01*
X98893177Y-83388687D01*
X98732758Y-83340024D01*
X98584924Y-83261005D01*
X98584922Y-83261004D01*
X98455341Y-83154659D01*
X98348996Y-83025078D01*
X98340886Y-83009906D01*
X98269976Y-82877242D01*
X98221313Y-82716823D01*
X98204883Y-82550000D01*
X98221313Y-82383177D01*
X98269976Y-82222758D01*
X98348995Y-82074924D01*
X98348996Y-82074922D01*
X98455341Y-81945341D01*
X98584922Y-81838996D01*
X98600094Y-81830886D01*
X98732758Y-81759976D01*
X98893177Y-81711313D01*
X99018196Y-81699000D01*
X99101804Y-81699000D01*
X99226823Y-81711313D01*
X99226823Y-81711313D01*
G37*
G36*
X124708228Y-79191703D02*
G01*
X124863100Y-79255853D01*
X125002481Y-79348985D01*
X125121015Y-79467519D01*
X125214147Y-79606900D01*
X125278297Y-79761772D01*
X125311000Y-79926184D01*
X125311000Y-80093816D01*
X125278297Y-80258228D01*
X125214147Y-80413100D01*
X125121015Y-80552481D01*
X125002481Y-80671015D01*
X124863100Y-80764147D01*
X124708228Y-80828297D01*
X124543816Y-80861000D01*
X124376184Y-80861000D01*
X124211772Y-80828297D01*
X124056900Y-80764147D01*
X123917519Y-80671015D01*
X123798985Y-80552481D01*
X123705853Y-80413100D01*
X123641703Y-80258228D01*
X123609000Y-80093816D01*
X123609000Y-79926184D01*
X123641703Y-79761772D01*
X123705853Y-79606900D01*
X123798985Y-79467519D01*
X123917519Y-79348985D01*
X124056900Y-79255853D01*
X124211772Y-79191703D01*
X124376184Y-79159000D01*
X124543816Y-79159000D01*
X124708228Y-79191703D01*
X124708228Y-79191703D01*
G37*
G36*
X114466823Y-79171313D02*
G01*
X114627242Y-79219976D01*
X114694361Y-79255852D01*
X114775078Y-79298996D01*
X114904659Y-79405341D01*
X115011004Y-79534922D01*
X115011005Y-79534924D01*
X115090024Y-79682758D01*
X115138687Y-79843177D01*
X115155117Y-80010000D01*
X115138687Y-80176823D01*
X115090024Y-80337242D01*
X115049477Y-80413100D01*
X115011004Y-80485078D01*
X114904659Y-80614659D01*
X114775078Y-80721004D01*
X114775076Y-80721005D01*
X114627242Y-80800024D01*
X114466823Y-80848687D01*
X114341804Y-80861000D01*
X114258196Y-80861000D01*
X114133177Y-80848687D01*
X113972758Y-80800024D01*
X113824924Y-80721005D01*
X113824922Y-80721004D01*
X113695341Y-80614659D01*
X113588996Y-80485078D01*
X113550523Y-80413100D01*
X113509976Y-80337242D01*
X113461313Y-80176823D01*
X113444883Y-80010000D01*
X113461313Y-79843177D01*
X113509976Y-79682758D01*
X113588995Y-79534924D01*
X113588996Y-79534922D01*
X113695341Y-79405341D01*
X113824922Y-79298996D01*
X113905639Y-79255852D01*
X113972758Y-79219976D01*
X114133177Y-79171313D01*
X114258196Y-79159000D01*
X114341804Y-79159000D01*
X114466823Y-79171313D01*
X114466823Y-79171313D01*
G37*
G36*
X119708228Y-79191703D02*
G01*
X119863100Y-79255853D01*
X120002481Y-79348985D01*
X120121015Y-79467519D01*
X120214147Y-79606900D01*
X120278297Y-79761772D01*
X120311000Y-79926184D01*
X120311000Y-80093816D01*
X120278297Y-80258228D01*
X120214147Y-80413100D01*
X120121015Y-80552481D01*
X120002481Y-80671015D01*
X119863100Y-80764147D01*
X119708228Y-80828297D01*
X119543816Y-80861000D01*
X119376184Y-80861000D01*
X119211772Y-80828297D01*
X119056900Y-80764147D01*
X118917519Y-80671015D01*
X118798985Y-80552481D01*
X118705853Y-80413100D01*
X118641703Y-80258228D01*
X118609000Y-80093816D01*
X118609000Y-79926184D01*
X118641703Y-79761772D01*
X118705853Y-79606900D01*
X118798985Y-79467519D01*
X118917519Y-79348985D01*
X119056900Y-79255853D01*
X119211772Y-79191703D01*
X119376184Y-79159000D01*
X119543816Y-79159000D01*
X119708228Y-79191703D01*
X119708228Y-79191703D01*
G37*
G36*
X99226823Y-79171313D02*
G01*
X99387242Y-79219976D01*
X99454361Y-79255852D01*
X99535078Y-79298996D01*
X99664659Y-79405341D01*
X99771004Y-79534922D01*
X99771005Y-79534924D01*
X99850024Y-79682758D01*
X99898687Y-79843177D01*
X99915117Y-80010000D01*
X99898687Y-80176823D01*
X99850024Y-80337242D01*
X99809477Y-80413100D01*
X99771004Y-80485078D01*
X99664659Y-80614659D01*
X99535078Y-80721004D01*
X99535076Y-80721005D01*
X99387242Y-80800024D01*
X99226823Y-80848687D01*
X99101804Y-80861000D01*
X99018196Y-80861000D01*
X98893177Y-80848687D01*
X98732758Y-80800024D01*
X98584924Y-80721005D01*
X98584922Y-80721004D01*
X98455341Y-80614659D01*
X98348996Y-80485078D01*
X98310523Y-80413100D01*
X98269976Y-80337242D01*
X98221313Y-80176823D01*
X98204883Y-80010000D01*
X98221313Y-79843177D01*
X98269976Y-79682758D01*
X98348995Y-79534924D01*
X98348996Y-79534922D01*
X98455341Y-79405341D01*
X98584922Y-79298996D01*
X98665639Y-79255852D01*
X98732758Y-79219976D01*
X98893177Y-79171313D01*
X99018196Y-79159000D01*
X99101804Y-79159000D01*
X99226823Y-79171313D01*
X99226823Y-79171313D01*
G37*
G36*
X101766823Y-76631313D02*
G01*
X101927242Y-76679976D01*
X102059906Y-76750886D01*
X102075078Y-76758996D01*
X102204659Y-76865341D01*
X102311004Y-76994922D01*
X102311005Y-76994924D01*
X102390024Y-77142758D01*
X102438687Y-77303177D01*
X102455117Y-77470000D01*
X102438687Y-77636823D01*
X102390024Y-77797242D01*
X102319114Y-77929906D01*
X102311004Y-77945078D01*
X102204659Y-78074659D01*
X102075078Y-78181004D01*
X102075076Y-78181005D01*
X101927242Y-78260024D01*
X101766823Y-78308687D01*
X101641804Y-78321000D01*
X101558196Y-78321000D01*
X101433177Y-78308687D01*
X101272758Y-78260024D01*
X101124924Y-78181005D01*
X101124922Y-78181004D01*
X100995341Y-78074659D01*
X100888996Y-77945078D01*
X100880886Y-77929906D01*
X100809976Y-77797242D01*
X100761313Y-77636823D01*
X100744883Y-77470000D01*
X100761313Y-77303177D01*
X100809976Y-77142758D01*
X100888995Y-76994924D01*
X100888996Y-76994922D01*
X100995341Y-76865341D01*
X101124922Y-76758996D01*
X101140094Y-76750886D01*
X101272758Y-76679976D01*
X101433177Y-76631313D01*
X101558196Y-76619000D01*
X101641804Y-76619000D01*
X101766823Y-76631313D01*
X101766823Y-76631313D01*
G37*
G36*
X114466823Y-76631313D02*
G01*
X114627242Y-76679976D01*
X114759906Y-76750886D01*
X114775078Y-76758996D01*
X114904659Y-76865341D01*
X115011004Y-76994922D01*
X115011005Y-76994924D01*
X115090024Y-77142758D01*
X115138687Y-77303177D01*
X115155117Y-77470000D01*
X115138687Y-77636823D01*
X115090024Y-77797242D01*
X115019114Y-77929906D01*
X115011004Y-77945078D01*
X114904659Y-78074659D01*
X114775078Y-78181004D01*
X114775076Y-78181005D01*
X114627242Y-78260024D01*
X114466823Y-78308687D01*
X114341804Y-78321000D01*
X114258196Y-78321000D01*
X114133177Y-78308687D01*
X113972758Y-78260024D01*
X113824924Y-78181005D01*
X113824922Y-78181004D01*
X113695341Y-78074659D01*
X113588996Y-77945078D01*
X113580886Y-77929906D01*
X113509976Y-77797242D01*
X113461313Y-77636823D01*
X113444883Y-77470000D01*
X113461313Y-77303177D01*
X113509976Y-77142758D01*
X113588995Y-76994924D01*
X113588996Y-76994922D01*
X113695341Y-76865341D01*
X113824922Y-76758996D01*
X113840094Y-76750886D01*
X113972758Y-76679976D01*
X114133177Y-76631313D01*
X114258196Y-76619000D01*
X114341804Y-76619000D01*
X114466823Y-76631313D01*
X114466823Y-76631313D01*
G37*
G36*
X109386823Y-76631313D02*
G01*
X109547242Y-76679976D01*
X109679906Y-76750886D01*
X109695078Y-76758996D01*
X109824659Y-76865341D01*
X109931004Y-76994922D01*
X109931005Y-76994924D01*
X110010024Y-77142758D01*
X110058687Y-77303177D01*
X110075117Y-77470000D01*
X110058687Y-77636823D01*
X110010024Y-77797242D01*
X109939114Y-77929906D01*
X109931004Y-77945078D01*
X109824659Y-78074659D01*
X109695078Y-78181004D01*
X109695076Y-78181005D01*
X109547242Y-78260024D01*
X109386823Y-78308687D01*
X109261804Y-78321000D01*
X109178196Y-78321000D01*
X109053177Y-78308687D01*
X108892758Y-78260024D01*
X108744924Y-78181005D01*
X108744922Y-78181004D01*
X108615341Y-78074659D01*
X108508996Y-77945078D01*
X108500886Y-77929906D01*
X108429976Y-77797242D01*
X108381313Y-77636823D01*
X108364883Y-77470000D01*
X108381313Y-77303177D01*
X108429976Y-77142758D01*
X108508995Y-76994924D01*
X108508996Y-76994922D01*
X108615341Y-76865341D01*
X108744922Y-76758996D01*
X108760094Y-76750886D01*
X108892758Y-76679976D01*
X109053177Y-76631313D01*
X109178196Y-76619000D01*
X109261804Y-76619000D01*
X109386823Y-76631313D01*
X109386823Y-76631313D01*
G37*
G36*
X99226823Y-76631313D02*
G01*
X99387242Y-76679976D01*
X99519906Y-76750886D01*
X99535078Y-76758996D01*
X99664659Y-76865341D01*
X99771004Y-76994922D01*
X99771005Y-76994924D01*
X99850024Y-77142758D01*
X99898687Y-77303177D01*
X99915117Y-77470000D01*
X99898687Y-77636823D01*
X99850024Y-77797242D01*
X99779114Y-77929906D01*
X99771004Y-77945078D01*
X99664659Y-78074659D01*
X99535078Y-78181004D01*
X99535076Y-78181005D01*
X99387242Y-78260024D01*
X99226823Y-78308687D01*
X99101804Y-78321000D01*
X99018196Y-78321000D01*
X98893177Y-78308687D01*
X98732758Y-78260024D01*
X98584924Y-78181005D01*
X98584922Y-78181004D01*
X98455341Y-78074659D01*
X98348996Y-77945078D01*
X98340886Y-77929906D01*
X98269976Y-77797242D01*
X98221313Y-77636823D01*
X98204883Y-77470000D01*
X98221313Y-77303177D01*
X98269976Y-77142758D01*
X98348995Y-76994924D01*
X98348996Y-76994922D01*
X98455341Y-76865341D01*
X98584922Y-76758996D01*
X98600094Y-76750886D01*
X98732758Y-76679976D01*
X98893177Y-76631313D01*
X99018196Y-76619000D01*
X99101804Y-76619000D01*
X99226823Y-76631313D01*
X99226823Y-76631313D01*
G37*
G36*
X96633512Y-74033927D02*
G01*
X96782812Y-74063624D01*
X96946784Y-74131544D01*
X97094354Y-74230147D01*
X97219853Y-74355646D01*
X97318456Y-74503216D01*
X97386376Y-74667188D01*
X97421000Y-74841259D01*
X97421000Y-75018741D01*
X97386376Y-75192812D01*
X97318456Y-75356784D01*
X97219853Y-75504354D01*
X97094354Y-75629853D01*
X96946784Y-75728456D01*
X96782812Y-75796376D01*
X96633512Y-75826073D01*
X96608742Y-75831000D01*
X96431258Y-75831000D01*
X96406488Y-75826073D01*
X96257188Y-75796376D01*
X96093216Y-75728456D01*
X95945646Y-75629853D01*
X95820147Y-75504354D01*
X95721544Y-75356784D01*
X95653624Y-75192812D01*
X95619000Y-75018741D01*
X95619000Y-74841259D01*
X95653624Y-74667188D01*
X95721544Y-74503216D01*
X95820147Y-74355646D01*
X95945646Y-74230147D01*
X96093216Y-74131544D01*
X96257188Y-74063624D01*
X96406488Y-74033927D01*
X96431258Y-74029000D01*
X96608742Y-74029000D01*
X96633512Y-74033927D01*
X96633512Y-74033927D01*
G37*
G36*
X109386823Y-74091313D02*
G01*
X109547242Y-74139976D01*
X109679906Y-74210886D01*
X109695078Y-74218996D01*
X109824659Y-74325341D01*
X109931004Y-74454922D01*
X109931005Y-74454924D01*
X110010024Y-74602758D01*
X110058687Y-74763177D01*
X110075117Y-74930000D01*
X110058687Y-75096823D01*
X110010024Y-75257242D01*
X109939114Y-75389906D01*
X109931004Y-75405078D01*
X109824659Y-75534659D01*
X109695078Y-75641004D01*
X109695076Y-75641005D01*
X109547242Y-75720024D01*
X109386823Y-75768687D01*
X109261804Y-75781000D01*
X109178196Y-75781000D01*
X109053177Y-75768687D01*
X108892758Y-75720024D01*
X108744924Y-75641005D01*
X108744922Y-75641004D01*
X108615341Y-75534659D01*
X108508996Y-75405078D01*
X108500886Y-75389906D01*
X108429976Y-75257242D01*
X108381313Y-75096823D01*
X108364883Y-74930000D01*
X108381313Y-74763177D01*
X108429976Y-74602758D01*
X108508995Y-74454924D01*
X108508996Y-74454922D01*
X108615341Y-74325341D01*
X108744922Y-74218996D01*
X108760094Y-74210886D01*
X108892758Y-74139976D01*
X109053177Y-74091313D01*
X109178196Y-74079000D01*
X109261804Y-74079000D01*
X109386823Y-74091313D01*
X109386823Y-74091313D01*
G37*
G36*
X114466823Y-74091313D02*
G01*
X114627242Y-74139976D01*
X114759906Y-74210886D01*
X114775078Y-74218996D01*
X114904659Y-74325341D01*
X115011004Y-74454922D01*
X115011005Y-74454924D01*
X115090024Y-74602758D01*
X115138687Y-74763177D01*
X115155117Y-74930000D01*
X115138687Y-75096823D01*
X115090024Y-75257242D01*
X115019114Y-75389906D01*
X115011004Y-75405078D01*
X114904659Y-75534659D01*
X114775078Y-75641004D01*
X114775076Y-75641005D01*
X114627242Y-75720024D01*
X114466823Y-75768687D01*
X114341804Y-75781000D01*
X114258196Y-75781000D01*
X114133177Y-75768687D01*
X113972758Y-75720024D01*
X113824924Y-75641005D01*
X113824922Y-75641004D01*
X113695341Y-75534659D01*
X113588996Y-75405078D01*
X113580886Y-75389906D01*
X113509976Y-75257242D01*
X113461313Y-75096823D01*
X113444883Y-74930000D01*
X113461313Y-74763177D01*
X113509976Y-74602758D01*
X113588995Y-74454924D01*
X113588996Y-74454922D01*
X113695341Y-74325341D01*
X113824922Y-74218996D01*
X113840094Y-74210886D01*
X113972758Y-74139976D01*
X114133177Y-74091313D01*
X114258196Y-74079000D01*
X114341804Y-74079000D01*
X114466823Y-74091313D01*
X114466823Y-74091313D01*
G37*
G36*
X99226823Y-74091313D02*
G01*
X99387242Y-74139976D01*
X99519906Y-74210886D01*
X99535078Y-74218996D01*
X99664659Y-74325341D01*
X99771004Y-74454922D01*
X99771005Y-74454924D01*
X99850024Y-74602758D01*
X99898687Y-74763177D01*
X99915117Y-74930000D01*
X99898687Y-75096823D01*
X99850024Y-75257242D01*
X99779114Y-75389906D01*
X99771004Y-75405078D01*
X99664659Y-75534659D01*
X99535078Y-75641004D01*
X99535076Y-75641005D01*
X99387242Y-75720024D01*
X99226823Y-75768687D01*
X99101804Y-75781000D01*
X99018196Y-75781000D01*
X98893177Y-75768687D01*
X98732758Y-75720024D01*
X98584924Y-75641005D01*
X98584922Y-75641004D01*
X98455341Y-75534659D01*
X98348996Y-75405078D01*
X98340886Y-75389906D01*
X98269976Y-75257242D01*
X98221313Y-75096823D01*
X98204883Y-74930000D01*
X98221313Y-74763177D01*
X98269976Y-74602758D01*
X98348995Y-74454924D01*
X98348996Y-74454922D01*
X98455341Y-74325341D01*
X98584922Y-74218996D01*
X98600094Y-74210886D01*
X98732758Y-74139976D01*
X98893177Y-74091313D01*
X99018196Y-74079000D01*
X99101804Y-74079000D01*
X99226823Y-74091313D01*
X99226823Y-74091313D01*
G37*
G36*
X101766823Y-74091313D02*
G01*
X101927242Y-74139976D01*
X102059906Y-74210886D01*
X102075078Y-74218996D01*
X102204659Y-74325341D01*
X102311004Y-74454922D01*
X102311005Y-74454924D01*
X102390024Y-74602758D01*
X102438687Y-74763177D01*
X102455117Y-74930000D01*
X102438687Y-75096823D01*
X102390024Y-75257242D01*
X102319114Y-75389906D01*
X102311004Y-75405078D01*
X102204659Y-75534659D01*
X102075078Y-75641004D01*
X102075076Y-75641005D01*
X101927242Y-75720024D01*
X101766823Y-75768687D01*
X101641804Y-75781000D01*
X101558196Y-75781000D01*
X101433177Y-75768687D01*
X101272758Y-75720024D01*
X101124924Y-75641005D01*
X101124922Y-75641004D01*
X100995341Y-75534659D01*
X100888996Y-75405078D01*
X100880886Y-75389906D01*
X100809976Y-75257242D01*
X100761313Y-75096823D01*
X100744883Y-74930000D01*
X100761313Y-74763177D01*
X100809976Y-74602758D01*
X100888995Y-74454924D01*
X100888996Y-74454922D01*
X100995341Y-74325341D01*
X101124922Y-74218996D01*
X101140094Y-74210886D01*
X101272758Y-74139976D01*
X101433177Y-74091313D01*
X101558196Y-74079000D01*
X101641804Y-74079000D01*
X101766823Y-74091313D01*
X101766823Y-74091313D01*
G37*
G36*
X118276823Y-74091313D02*
G01*
X118437242Y-74139976D01*
X118569906Y-74210886D01*
X118585078Y-74218996D01*
X118714659Y-74325341D01*
X118821004Y-74454922D01*
X118821005Y-74454924D01*
X118900024Y-74602758D01*
X118948687Y-74763177D01*
X118965117Y-74930000D01*
X118948687Y-75096823D01*
X118900024Y-75257242D01*
X118829114Y-75389906D01*
X118821004Y-75405078D01*
X118714659Y-75534659D01*
X118585078Y-75641004D01*
X118585076Y-75641005D01*
X118437242Y-75720024D01*
X118276823Y-75768687D01*
X118151804Y-75781000D01*
X118068196Y-75781000D01*
X117943177Y-75768687D01*
X117782758Y-75720024D01*
X117634924Y-75641005D01*
X117634922Y-75641004D01*
X117505341Y-75534659D01*
X117398996Y-75405078D01*
X117390886Y-75389906D01*
X117319976Y-75257242D01*
X117271313Y-75096823D01*
X117254883Y-74930000D01*
X117271313Y-74763177D01*
X117319976Y-74602758D01*
X117398995Y-74454924D01*
X117398996Y-74454922D01*
X117505341Y-74325341D01*
X117634922Y-74218996D01*
X117650094Y-74210886D01*
X117782758Y-74139976D01*
X117943177Y-74091313D01*
X118068196Y-74079000D01*
X118151804Y-74079000D01*
X118276823Y-74091313D01*
X118276823Y-74091313D01*
G37*
G36*
X125896823Y-74091313D02*
G01*
X126057242Y-74139976D01*
X126189906Y-74210886D01*
X126205078Y-74218996D01*
X126334659Y-74325341D01*
X126441004Y-74454922D01*
X126441005Y-74454924D01*
X126520024Y-74602758D01*
X126568687Y-74763177D01*
X126585117Y-74930000D01*
X126568687Y-75096823D01*
X126520024Y-75257242D01*
X126449114Y-75389906D01*
X126441004Y-75405078D01*
X126334659Y-75534659D01*
X126205078Y-75641004D01*
X126205076Y-75641005D01*
X126057242Y-75720024D01*
X125896823Y-75768687D01*
X125771804Y-75781000D01*
X125688196Y-75781000D01*
X125563177Y-75768687D01*
X125402758Y-75720024D01*
X125254924Y-75641005D01*
X125254922Y-75641004D01*
X125125341Y-75534659D01*
X125018996Y-75405078D01*
X125010886Y-75389906D01*
X124939976Y-75257242D01*
X124891313Y-75096823D01*
X124874883Y-74930000D01*
X124891313Y-74763177D01*
X124939976Y-74602758D01*
X125018995Y-74454924D01*
X125018996Y-74454922D01*
X125125341Y-74325341D01*
X125254922Y-74218996D01*
X125270094Y-74210886D01*
X125402758Y-74139976D01*
X125563177Y-74091313D01*
X125688196Y-74079000D01*
X125771804Y-74079000D01*
X125896823Y-74091313D01*
X125896823Y-74091313D01*
G37*
G36*
X96630443Y-71495519D02*
G01*
X96696627Y-71502037D01*
X96866466Y-71553557D01*
X97022991Y-71637222D01*
X97058729Y-71666552D01*
X97160186Y-71749814D01*
X97243448Y-71851271D01*
X97272778Y-71887009D01*
X97356443Y-72043534D01*
X97407963Y-72213373D01*
X97425359Y-72390000D01*
X97407963Y-72566627D01*
X97356443Y-72736466D01*
X97272778Y-72892991D01*
X97243448Y-72928729D01*
X97160186Y-73030186D01*
X97058729Y-73113448D01*
X97022991Y-73142778D01*
X96866466Y-73226443D01*
X96696627Y-73277963D01*
X96630443Y-73284481D01*
X96564260Y-73291000D01*
X96475740Y-73291000D01*
X96409557Y-73284481D01*
X96343373Y-73277963D01*
X96173534Y-73226443D01*
X96017009Y-73142778D01*
X95981271Y-73113448D01*
X95879814Y-73030186D01*
X95796552Y-72928729D01*
X95767222Y-72892991D01*
X95683557Y-72736466D01*
X95632037Y-72566627D01*
X95614641Y-72390000D01*
X95632037Y-72213373D01*
X95683557Y-72043534D01*
X95767222Y-71887009D01*
X95796552Y-71851271D01*
X95879814Y-71749814D01*
X95981271Y-71666552D01*
X96017009Y-71637222D01*
X96173534Y-71553557D01*
X96343373Y-71502037D01*
X96409557Y-71495519D01*
X96475740Y-71489000D01*
X96564260Y-71489000D01*
X96630443Y-71495519D01*
X96630443Y-71495519D01*
G37*
G36*
X125896823Y-71551313D02*
G01*
X126057242Y-71599976D01*
X126126922Y-71637221D01*
X126205078Y-71678996D01*
X126334659Y-71785341D01*
X126441004Y-71914922D01*
X126441005Y-71914924D01*
X126520024Y-72062758D01*
X126568687Y-72223177D01*
X126585117Y-72390000D01*
X126568687Y-72556823D01*
X126520024Y-72717242D01*
X126509747Y-72736468D01*
X126441004Y-72865078D01*
X126334659Y-72994659D01*
X126205078Y-73101004D01*
X126205076Y-73101005D01*
X126057242Y-73180024D01*
X125896823Y-73228687D01*
X125771804Y-73241000D01*
X125688196Y-73241000D01*
X125563177Y-73228687D01*
X125402758Y-73180024D01*
X125254924Y-73101005D01*
X125254922Y-73101004D01*
X125125341Y-72994659D01*
X125018996Y-72865078D01*
X124950253Y-72736468D01*
X124939976Y-72717242D01*
X124891313Y-72556823D01*
X124874883Y-72390000D01*
X124891313Y-72223177D01*
X124939976Y-72062758D01*
X125018995Y-71914924D01*
X125018996Y-71914922D01*
X125125341Y-71785341D01*
X125254922Y-71678996D01*
X125333078Y-71637221D01*
X125402758Y-71599976D01*
X125563177Y-71551313D01*
X125688196Y-71539000D01*
X125771804Y-71539000D01*
X125896823Y-71551313D01*
X125896823Y-71551313D01*
G37*
G36*
X99226823Y-71551313D02*
G01*
X99387242Y-71599976D01*
X99456922Y-71637221D01*
X99535078Y-71678996D01*
X99664659Y-71785341D01*
X99771004Y-71914922D01*
X99771005Y-71914924D01*
X99850024Y-72062758D01*
X99898687Y-72223177D01*
X99915117Y-72390000D01*
X99898687Y-72556823D01*
X99850024Y-72717242D01*
X99839747Y-72736468D01*
X99771004Y-72865078D01*
X99664659Y-72994659D01*
X99535078Y-73101004D01*
X99535076Y-73101005D01*
X99387242Y-73180024D01*
X99226823Y-73228687D01*
X99101804Y-73241000D01*
X99018196Y-73241000D01*
X98893177Y-73228687D01*
X98732758Y-73180024D01*
X98584924Y-73101005D01*
X98584922Y-73101004D01*
X98455341Y-72994659D01*
X98348996Y-72865078D01*
X98280253Y-72736468D01*
X98269976Y-72717242D01*
X98221313Y-72556823D01*
X98204883Y-72390000D01*
X98221313Y-72223177D01*
X98269976Y-72062758D01*
X98348995Y-71914924D01*
X98348996Y-71914922D01*
X98455341Y-71785341D01*
X98584922Y-71678996D01*
X98663078Y-71637221D01*
X98732758Y-71599976D01*
X98893177Y-71551313D01*
X99018196Y-71539000D01*
X99101804Y-71539000D01*
X99226823Y-71551313D01*
X99226823Y-71551313D01*
G37*
G36*
X101766823Y-71551313D02*
G01*
X101927242Y-71599976D01*
X101996922Y-71637221D01*
X102075078Y-71678996D01*
X102204659Y-71785341D01*
X102311004Y-71914922D01*
X102311005Y-71914924D01*
X102390024Y-72062758D01*
X102438687Y-72223177D01*
X102455117Y-72390000D01*
X102438687Y-72556823D01*
X102390024Y-72717242D01*
X102379747Y-72736468D01*
X102311004Y-72865078D01*
X102204659Y-72994659D01*
X102075078Y-73101004D01*
X102075076Y-73101005D01*
X101927242Y-73180024D01*
X101766823Y-73228687D01*
X101641804Y-73241000D01*
X101558196Y-73241000D01*
X101433177Y-73228687D01*
X101272758Y-73180024D01*
X101124924Y-73101005D01*
X101124922Y-73101004D01*
X100995341Y-72994659D01*
X100888996Y-72865078D01*
X100820253Y-72736468D01*
X100809976Y-72717242D01*
X100761313Y-72556823D01*
X100744883Y-72390000D01*
X100761313Y-72223177D01*
X100809976Y-72062758D01*
X100888995Y-71914924D01*
X100888996Y-71914922D01*
X100995341Y-71785341D01*
X101124922Y-71678996D01*
X101203078Y-71637221D01*
X101272758Y-71599976D01*
X101433177Y-71551313D01*
X101558196Y-71539000D01*
X101641804Y-71539000D01*
X101766823Y-71551313D01*
X101766823Y-71551313D01*
G37*
G36*
X109386823Y-71551313D02*
G01*
X109547242Y-71599976D01*
X109616922Y-71637221D01*
X109695078Y-71678996D01*
X109824659Y-71785341D01*
X109931004Y-71914922D01*
X109931005Y-71914924D01*
X110010024Y-72062758D01*
X110058687Y-72223177D01*
X110075117Y-72390000D01*
X110058687Y-72556823D01*
X110010024Y-72717242D01*
X109999747Y-72736468D01*
X109931004Y-72865078D01*
X109824659Y-72994659D01*
X109695078Y-73101004D01*
X109695076Y-73101005D01*
X109547242Y-73180024D01*
X109386823Y-73228687D01*
X109261804Y-73241000D01*
X109178196Y-73241000D01*
X109053177Y-73228687D01*
X108892758Y-73180024D01*
X108744924Y-73101005D01*
X108744922Y-73101004D01*
X108615341Y-72994659D01*
X108508996Y-72865078D01*
X108440253Y-72736468D01*
X108429976Y-72717242D01*
X108381313Y-72556823D01*
X108364883Y-72390000D01*
X108381313Y-72223177D01*
X108429976Y-72062758D01*
X108508995Y-71914924D01*
X108508996Y-71914922D01*
X108615341Y-71785341D01*
X108744922Y-71678996D01*
X108823078Y-71637221D01*
X108892758Y-71599976D01*
X109053177Y-71551313D01*
X109178196Y-71539000D01*
X109261804Y-71539000D01*
X109386823Y-71551313D01*
X109386823Y-71551313D01*
G37*
G36*
X114466823Y-71551313D02*
G01*
X114627242Y-71599976D01*
X114696922Y-71637221D01*
X114775078Y-71678996D01*
X114904659Y-71785341D01*
X115011004Y-71914922D01*
X115011005Y-71914924D01*
X115090024Y-72062758D01*
X115138687Y-72223177D01*
X115155117Y-72390000D01*
X115138687Y-72556823D01*
X115090024Y-72717242D01*
X115079747Y-72736468D01*
X115011004Y-72865078D01*
X114904659Y-72994659D01*
X114775078Y-73101004D01*
X114775076Y-73101005D01*
X114627242Y-73180024D01*
X114466823Y-73228687D01*
X114341804Y-73241000D01*
X114258196Y-73241000D01*
X114133177Y-73228687D01*
X113972758Y-73180024D01*
X113824924Y-73101005D01*
X113824922Y-73101004D01*
X113695341Y-72994659D01*
X113588996Y-72865078D01*
X113520253Y-72736468D01*
X113509976Y-72717242D01*
X113461313Y-72556823D01*
X113444883Y-72390000D01*
X113461313Y-72223177D01*
X113509976Y-72062758D01*
X113588995Y-71914924D01*
X113588996Y-71914922D01*
X113695341Y-71785341D01*
X113824922Y-71678996D01*
X113903078Y-71637221D01*
X113972758Y-71599976D01*
X114133177Y-71551313D01*
X114258196Y-71539000D01*
X114341804Y-71539000D01*
X114466823Y-71551313D01*
X114466823Y-71551313D01*
G37*
G36*
X118276823Y-71551313D02*
G01*
X118437242Y-71599976D01*
X118506922Y-71637221D01*
X118585078Y-71678996D01*
X118714659Y-71785341D01*
X118821004Y-71914922D01*
X118821005Y-71914924D01*
X118900024Y-72062758D01*
X118948687Y-72223177D01*
X118965117Y-72390000D01*
X118948687Y-72556823D01*
X118900024Y-72717242D01*
X118889747Y-72736468D01*
X118821004Y-72865078D01*
X118714659Y-72994659D01*
X118585078Y-73101004D01*
X118585076Y-73101005D01*
X118437242Y-73180024D01*
X118276823Y-73228687D01*
X118151804Y-73241000D01*
X118068196Y-73241000D01*
X117943177Y-73228687D01*
X117782758Y-73180024D01*
X117634924Y-73101005D01*
X117634922Y-73101004D01*
X117505341Y-72994659D01*
X117398996Y-72865078D01*
X117330253Y-72736468D01*
X117319976Y-72717242D01*
X117271313Y-72556823D01*
X117254883Y-72390000D01*
X117271313Y-72223177D01*
X117319976Y-72062758D01*
X117398995Y-71914924D01*
X117398996Y-71914922D01*
X117505341Y-71785341D01*
X117634922Y-71678996D01*
X117713078Y-71637221D01*
X117782758Y-71599976D01*
X117943177Y-71551313D01*
X118068196Y-71539000D01*
X118151804Y-71539000D01*
X118276823Y-71551313D01*
X118276823Y-71551313D01*
G37*
G36*
X96630443Y-68955519D02*
G01*
X96696627Y-68962037D01*
X96866466Y-69013557D01*
X97022991Y-69097222D01*
X97058729Y-69126552D01*
X97160186Y-69209814D01*
X97243448Y-69311271D01*
X97272778Y-69347009D01*
X97356443Y-69503534D01*
X97407963Y-69673373D01*
X97425359Y-69850000D01*
X97407963Y-70026627D01*
X97356443Y-70196466D01*
X97272778Y-70352991D01*
X97243448Y-70388729D01*
X97160186Y-70490186D01*
X97058729Y-70573448D01*
X97022991Y-70602778D01*
X96866466Y-70686443D01*
X96696627Y-70737963D01*
X96630443Y-70744481D01*
X96564260Y-70751000D01*
X96475740Y-70751000D01*
X96409557Y-70744481D01*
X96343373Y-70737963D01*
X96173534Y-70686443D01*
X96017009Y-70602778D01*
X95981271Y-70573448D01*
X95879814Y-70490186D01*
X95796552Y-70388729D01*
X95767222Y-70352991D01*
X95683557Y-70196466D01*
X95632037Y-70026627D01*
X95614641Y-69850000D01*
X95632037Y-69673373D01*
X95683557Y-69503534D01*
X95767222Y-69347009D01*
X95796552Y-69311271D01*
X95879814Y-69209814D01*
X95981271Y-69126552D01*
X96017009Y-69097222D01*
X96173534Y-69013557D01*
X96343373Y-68962037D01*
X96409557Y-68955519D01*
X96475740Y-68949000D01*
X96564260Y-68949000D01*
X96630443Y-68955519D01*
X96630443Y-68955519D01*
G37*
G36*
X118276823Y-69011313D02*
G01*
X118437242Y-69059976D01*
X118506922Y-69097221D01*
X118585078Y-69138996D01*
X118714659Y-69245341D01*
X118821004Y-69374922D01*
X118821005Y-69374924D01*
X118900024Y-69522758D01*
X118948687Y-69683177D01*
X118965117Y-69850000D01*
X118948687Y-70016823D01*
X118900024Y-70177242D01*
X118889747Y-70196468D01*
X118821004Y-70325078D01*
X118714659Y-70454659D01*
X118585078Y-70561004D01*
X118585076Y-70561005D01*
X118437242Y-70640024D01*
X118276823Y-70688687D01*
X118151804Y-70701000D01*
X118068196Y-70701000D01*
X117943177Y-70688687D01*
X117782758Y-70640024D01*
X117634924Y-70561005D01*
X117634922Y-70561004D01*
X117505341Y-70454659D01*
X117398996Y-70325078D01*
X117330253Y-70196468D01*
X117319976Y-70177242D01*
X117271313Y-70016823D01*
X117254883Y-69850000D01*
X117271313Y-69683177D01*
X117319976Y-69522758D01*
X117398995Y-69374924D01*
X117398996Y-69374922D01*
X117505341Y-69245341D01*
X117634922Y-69138996D01*
X117713078Y-69097221D01*
X117782758Y-69059976D01*
X117943177Y-69011313D01*
X118068196Y-68999000D01*
X118151804Y-68999000D01*
X118276823Y-69011313D01*
X118276823Y-69011313D01*
G37*
G36*
X125896823Y-69011313D02*
G01*
X126057242Y-69059976D01*
X126126922Y-69097221D01*
X126205078Y-69138996D01*
X126334659Y-69245341D01*
X126441004Y-69374922D01*
X126441005Y-69374924D01*
X126520024Y-69522758D01*
X126568687Y-69683177D01*
X126585117Y-69850000D01*
X126568687Y-70016823D01*
X126520024Y-70177242D01*
X126509747Y-70196468D01*
X126441004Y-70325078D01*
X126334659Y-70454659D01*
X126205078Y-70561004D01*
X126205076Y-70561005D01*
X126057242Y-70640024D01*
X125896823Y-70688687D01*
X125771804Y-70701000D01*
X125688196Y-70701000D01*
X125563177Y-70688687D01*
X125402758Y-70640024D01*
X125254924Y-70561005D01*
X125254922Y-70561004D01*
X125125341Y-70454659D01*
X125018996Y-70325078D01*
X124950253Y-70196468D01*
X124939976Y-70177242D01*
X124891313Y-70016823D01*
X124874883Y-69850000D01*
X124891313Y-69683177D01*
X124939976Y-69522758D01*
X125018995Y-69374924D01*
X125018996Y-69374922D01*
X125125341Y-69245341D01*
X125254922Y-69138996D01*
X125333078Y-69097221D01*
X125402758Y-69059976D01*
X125563177Y-69011313D01*
X125688196Y-68999000D01*
X125771804Y-68999000D01*
X125896823Y-69011313D01*
X125896823Y-69011313D01*
G37*
G36*
X109386823Y-69011313D02*
G01*
X109547242Y-69059976D01*
X109616922Y-69097221D01*
X109695078Y-69138996D01*
X109824659Y-69245341D01*
X109931004Y-69374922D01*
X109931005Y-69374924D01*
X110010024Y-69522758D01*
X110058687Y-69683177D01*
X110075117Y-69850000D01*
X110058687Y-70016823D01*
X110010024Y-70177242D01*
X109999747Y-70196468D01*
X109931004Y-70325078D01*
X109824659Y-70454659D01*
X109695078Y-70561004D01*
X109695076Y-70561005D01*
X109547242Y-70640024D01*
X109386823Y-70688687D01*
X109261804Y-70701000D01*
X109178196Y-70701000D01*
X109053177Y-70688687D01*
X108892758Y-70640024D01*
X108744924Y-70561005D01*
X108744922Y-70561004D01*
X108615341Y-70454659D01*
X108508996Y-70325078D01*
X108440253Y-70196468D01*
X108429976Y-70177242D01*
X108381313Y-70016823D01*
X108364883Y-69850000D01*
X108381313Y-69683177D01*
X108429976Y-69522758D01*
X108508995Y-69374924D01*
X108508996Y-69374922D01*
X108615341Y-69245341D01*
X108744922Y-69138996D01*
X108823078Y-69097221D01*
X108892758Y-69059976D01*
X109053177Y-69011313D01*
X109178196Y-68999000D01*
X109261804Y-68999000D01*
X109386823Y-69011313D01*
X109386823Y-69011313D01*
G37*
G36*
X99226823Y-69011313D02*
G01*
X99387242Y-69059976D01*
X99456922Y-69097221D01*
X99535078Y-69138996D01*
X99664659Y-69245341D01*
X99771004Y-69374922D01*
X99771005Y-69374924D01*
X99850024Y-69522758D01*
X99898687Y-69683177D01*
X99915117Y-69850000D01*
X99898687Y-70016823D01*
X99850024Y-70177242D01*
X99839747Y-70196468D01*
X99771004Y-70325078D01*
X99664659Y-70454659D01*
X99535078Y-70561004D01*
X99535076Y-70561005D01*
X99387242Y-70640024D01*
X99226823Y-70688687D01*
X99101804Y-70701000D01*
X99018196Y-70701000D01*
X98893177Y-70688687D01*
X98732758Y-70640024D01*
X98584924Y-70561005D01*
X98584922Y-70561004D01*
X98455341Y-70454659D01*
X98348996Y-70325078D01*
X98280253Y-70196468D01*
X98269976Y-70177242D01*
X98221313Y-70016823D01*
X98204883Y-69850000D01*
X98221313Y-69683177D01*
X98269976Y-69522758D01*
X98348995Y-69374924D01*
X98348996Y-69374922D01*
X98455341Y-69245341D01*
X98584922Y-69138996D01*
X98663078Y-69097221D01*
X98732758Y-69059976D01*
X98893177Y-69011313D01*
X99018196Y-68999000D01*
X99101804Y-68999000D01*
X99226823Y-69011313D01*
X99226823Y-69011313D01*
G37*
G36*
X114466823Y-69011313D02*
G01*
X114627242Y-69059976D01*
X114696922Y-69097221D01*
X114775078Y-69138996D01*
X114904659Y-69245341D01*
X115011004Y-69374922D01*
X115011005Y-69374924D01*
X115090024Y-69522758D01*
X115138687Y-69683177D01*
X115155117Y-69850000D01*
X115138687Y-70016823D01*
X115090024Y-70177242D01*
X115079747Y-70196468D01*
X115011004Y-70325078D01*
X114904659Y-70454659D01*
X114775078Y-70561004D01*
X114775076Y-70561005D01*
X114627242Y-70640024D01*
X114466823Y-70688687D01*
X114341804Y-70701000D01*
X114258196Y-70701000D01*
X114133177Y-70688687D01*
X113972758Y-70640024D01*
X113824924Y-70561005D01*
X113824922Y-70561004D01*
X113695341Y-70454659D01*
X113588996Y-70325078D01*
X113520253Y-70196468D01*
X113509976Y-70177242D01*
X113461313Y-70016823D01*
X113444883Y-69850000D01*
X113461313Y-69683177D01*
X113509976Y-69522758D01*
X113588995Y-69374924D01*
X113588996Y-69374922D01*
X113695341Y-69245341D01*
X113824922Y-69138996D01*
X113903078Y-69097221D01*
X113972758Y-69059976D01*
X114133177Y-69011313D01*
X114258196Y-68999000D01*
X114341804Y-68999000D01*
X114466823Y-69011313D01*
X114466823Y-69011313D01*
G37*
G36*
X101766823Y-69011313D02*
G01*
X101927242Y-69059976D01*
X101996922Y-69097221D01*
X102075078Y-69138996D01*
X102204659Y-69245341D01*
X102311004Y-69374922D01*
X102311005Y-69374924D01*
X102390024Y-69522758D01*
X102438687Y-69683177D01*
X102455117Y-69850000D01*
X102438687Y-70016823D01*
X102390024Y-70177242D01*
X102379747Y-70196468D01*
X102311004Y-70325078D01*
X102204659Y-70454659D01*
X102075078Y-70561004D01*
X102075076Y-70561005D01*
X101927242Y-70640024D01*
X101766823Y-70688687D01*
X101641804Y-70701000D01*
X101558196Y-70701000D01*
X101433177Y-70688687D01*
X101272758Y-70640024D01*
X101124924Y-70561005D01*
X101124922Y-70561004D01*
X100995341Y-70454659D01*
X100888996Y-70325078D01*
X100820253Y-70196468D01*
X100809976Y-70177242D01*
X100761313Y-70016823D01*
X100744883Y-69850000D01*
X100761313Y-69683177D01*
X100809976Y-69522758D01*
X100888995Y-69374924D01*
X100888996Y-69374922D01*
X100995341Y-69245341D01*
X101124922Y-69138996D01*
X101203078Y-69097221D01*
X101272758Y-69059976D01*
X101433177Y-69011313D01*
X101558196Y-68999000D01*
X101641804Y-68999000D01*
X101766823Y-69011313D01*
X101766823Y-69011313D01*
G37*
G36*
X96630443Y-66415519D02*
G01*
X96696627Y-66422037D01*
X96866466Y-66473557D01*
X97022991Y-66557222D01*
X97058729Y-66586552D01*
X97160186Y-66669814D01*
X97243448Y-66771271D01*
X97272778Y-66807009D01*
X97356443Y-66963534D01*
X97407963Y-67133373D01*
X97425359Y-67310000D01*
X97407963Y-67486627D01*
X97356443Y-67656466D01*
X97272778Y-67812991D01*
X97243448Y-67848729D01*
X97160186Y-67950186D01*
X97058729Y-68033448D01*
X97022991Y-68062778D01*
X96866466Y-68146443D01*
X96696627Y-68197963D01*
X96630443Y-68204481D01*
X96564260Y-68211000D01*
X96475740Y-68211000D01*
X96409557Y-68204481D01*
X96343373Y-68197963D01*
X96173534Y-68146443D01*
X96017009Y-68062778D01*
X95981271Y-68033448D01*
X95879814Y-67950186D01*
X95796552Y-67848729D01*
X95767222Y-67812991D01*
X95683557Y-67656466D01*
X95632037Y-67486627D01*
X95614641Y-67310000D01*
X95632037Y-67133373D01*
X95683557Y-66963534D01*
X95767222Y-66807009D01*
X95796552Y-66771271D01*
X95879814Y-66669814D01*
X95981271Y-66586552D01*
X96017009Y-66557222D01*
X96173534Y-66473557D01*
X96343373Y-66422037D01*
X96409557Y-66415519D01*
X96475740Y-66409000D01*
X96564260Y-66409000D01*
X96630443Y-66415519D01*
X96630443Y-66415519D01*
G37*
G36*
X125896823Y-66471313D02*
G01*
X126057242Y-66519976D01*
X126126922Y-66557221D01*
X126205078Y-66598996D01*
X126334659Y-66705341D01*
X126441004Y-66834922D01*
X126441005Y-66834924D01*
X126520024Y-66982758D01*
X126568687Y-67143177D01*
X126585117Y-67310000D01*
X126568687Y-67476823D01*
X126520024Y-67637242D01*
X126509747Y-67656468D01*
X126441004Y-67785078D01*
X126334659Y-67914659D01*
X126205078Y-68021004D01*
X126205076Y-68021005D01*
X126057242Y-68100024D01*
X125896823Y-68148687D01*
X125771804Y-68161000D01*
X125688196Y-68161000D01*
X125563177Y-68148687D01*
X125402758Y-68100024D01*
X125254924Y-68021005D01*
X125254922Y-68021004D01*
X125125341Y-67914659D01*
X125018996Y-67785078D01*
X124950253Y-67656468D01*
X124939976Y-67637242D01*
X124891313Y-67476823D01*
X124874883Y-67310000D01*
X124891313Y-67143177D01*
X124939976Y-66982758D01*
X125018995Y-66834924D01*
X125018996Y-66834922D01*
X125125341Y-66705341D01*
X125254922Y-66598996D01*
X125333078Y-66557221D01*
X125402758Y-66519976D01*
X125563177Y-66471313D01*
X125688196Y-66459000D01*
X125771804Y-66459000D01*
X125896823Y-66471313D01*
X125896823Y-66471313D01*
G37*
G36*
X99226823Y-66471313D02*
G01*
X99387242Y-66519976D01*
X99456922Y-66557221D01*
X99535078Y-66598996D01*
X99664659Y-66705341D01*
X99771004Y-66834922D01*
X99771005Y-66834924D01*
X99850024Y-66982758D01*
X99898687Y-67143177D01*
X99915117Y-67310000D01*
X99898687Y-67476823D01*
X99850024Y-67637242D01*
X99839747Y-67656468D01*
X99771004Y-67785078D01*
X99664659Y-67914659D01*
X99535078Y-68021004D01*
X99535076Y-68021005D01*
X99387242Y-68100024D01*
X99226823Y-68148687D01*
X99101804Y-68161000D01*
X99018196Y-68161000D01*
X98893177Y-68148687D01*
X98732758Y-68100024D01*
X98584924Y-68021005D01*
X98584922Y-68021004D01*
X98455341Y-67914659D01*
X98348996Y-67785078D01*
X98280253Y-67656468D01*
X98269976Y-67637242D01*
X98221313Y-67476823D01*
X98204883Y-67310000D01*
X98221313Y-67143177D01*
X98269976Y-66982758D01*
X98348995Y-66834924D01*
X98348996Y-66834922D01*
X98455341Y-66705341D01*
X98584922Y-66598996D01*
X98663078Y-66557221D01*
X98732758Y-66519976D01*
X98893177Y-66471313D01*
X99018196Y-66459000D01*
X99101804Y-66459000D01*
X99226823Y-66471313D01*
X99226823Y-66471313D01*
G37*
G36*
X101766823Y-66471313D02*
G01*
X101927242Y-66519976D01*
X101996922Y-66557221D01*
X102075078Y-66598996D01*
X102204659Y-66705341D01*
X102311004Y-66834922D01*
X102311005Y-66834924D01*
X102390024Y-66982758D01*
X102438687Y-67143177D01*
X102455117Y-67310000D01*
X102438687Y-67476823D01*
X102390024Y-67637242D01*
X102379747Y-67656468D01*
X102311004Y-67785078D01*
X102204659Y-67914659D01*
X102075078Y-68021004D01*
X102075076Y-68021005D01*
X101927242Y-68100024D01*
X101766823Y-68148687D01*
X101641804Y-68161000D01*
X101558196Y-68161000D01*
X101433177Y-68148687D01*
X101272758Y-68100024D01*
X101124924Y-68021005D01*
X101124922Y-68021004D01*
X100995341Y-67914659D01*
X100888996Y-67785078D01*
X100820253Y-67656468D01*
X100809976Y-67637242D01*
X100761313Y-67476823D01*
X100744883Y-67310000D01*
X100761313Y-67143177D01*
X100809976Y-66982758D01*
X100888995Y-66834924D01*
X100888996Y-66834922D01*
X100995341Y-66705341D01*
X101124922Y-66598996D01*
X101203078Y-66557221D01*
X101272758Y-66519976D01*
X101433177Y-66471313D01*
X101558196Y-66459000D01*
X101641804Y-66459000D01*
X101766823Y-66471313D01*
X101766823Y-66471313D01*
G37*
G36*
X109386823Y-66471313D02*
G01*
X109547242Y-66519976D01*
X109616922Y-66557221D01*
X109695078Y-66598996D01*
X109824659Y-66705341D01*
X109931004Y-66834922D01*
X109931005Y-66834924D01*
X110010024Y-66982758D01*
X110058687Y-67143177D01*
X110075117Y-67310000D01*
X110058687Y-67476823D01*
X110010024Y-67637242D01*
X109999747Y-67656468D01*
X109931004Y-67785078D01*
X109824659Y-67914659D01*
X109695078Y-68021004D01*
X109695076Y-68021005D01*
X109547242Y-68100024D01*
X109386823Y-68148687D01*
X109261804Y-68161000D01*
X109178196Y-68161000D01*
X109053177Y-68148687D01*
X108892758Y-68100024D01*
X108744924Y-68021005D01*
X108744922Y-68021004D01*
X108615341Y-67914659D01*
X108508996Y-67785078D01*
X108440253Y-67656468D01*
X108429976Y-67637242D01*
X108381313Y-67476823D01*
X108364883Y-67310000D01*
X108381313Y-67143177D01*
X108429976Y-66982758D01*
X108508995Y-66834924D01*
X108508996Y-66834922D01*
X108615341Y-66705341D01*
X108744922Y-66598996D01*
X108823078Y-66557221D01*
X108892758Y-66519976D01*
X109053177Y-66471313D01*
X109178196Y-66459000D01*
X109261804Y-66459000D01*
X109386823Y-66471313D01*
X109386823Y-66471313D01*
G37*
G36*
X114466823Y-66471313D02*
G01*
X114627242Y-66519976D01*
X114696922Y-66557221D01*
X114775078Y-66598996D01*
X114904659Y-66705341D01*
X115011004Y-66834922D01*
X115011005Y-66834924D01*
X115090024Y-66982758D01*
X115138687Y-67143177D01*
X115155117Y-67310000D01*
X115138687Y-67476823D01*
X115090024Y-67637242D01*
X115079747Y-67656468D01*
X115011004Y-67785078D01*
X114904659Y-67914659D01*
X114775078Y-68021004D01*
X114775076Y-68021005D01*
X114627242Y-68100024D01*
X114466823Y-68148687D01*
X114341804Y-68161000D01*
X114258196Y-68161000D01*
X114133177Y-68148687D01*
X113972758Y-68100024D01*
X113824924Y-68021005D01*
X113824922Y-68021004D01*
X113695341Y-67914659D01*
X113588996Y-67785078D01*
X113520253Y-67656468D01*
X113509976Y-67637242D01*
X113461313Y-67476823D01*
X113444883Y-67310000D01*
X113461313Y-67143177D01*
X113509976Y-66982758D01*
X113588995Y-66834924D01*
X113588996Y-66834922D01*
X113695341Y-66705341D01*
X113824922Y-66598996D01*
X113903078Y-66557221D01*
X113972758Y-66519976D01*
X114133177Y-66471313D01*
X114258196Y-66459000D01*
X114341804Y-66459000D01*
X114466823Y-66471313D01*
X114466823Y-66471313D01*
G37*
G36*
X118276823Y-66471313D02*
G01*
X118437242Y-66519976D01*
X118506922Y-66557221D01*
X118585078Y-66598996D01*
X118714659Y-66705341D01*
X118821004Y-66834922D01*
X118821005Y-66834924D01*
X118900024Y-66982758D01*
X118948687Y-67143177D01*
X118965117Y-67310000D01*
X118948687Y-67476823D01*
X118900024Y-67637242D01*
X118889747Y-67656468D01*
X118821004Y-67785078D01*
X118714659Y-67914659D01*
X118585078Y-68021004D01*
X118585076Y-68021005D01*
X118437242Y-68100024D01*
X118276823Y-68148687D01*
X118151804Y-68161000D01*
X118068196Y-68161000D01*
X117943177Y-68148687D01*
X117782758Y-68100024D01*
X117634924Y-68021005D01*
X117634922Y-68021004D01*
X117505341Y-67914659D01*
X117398996Y-67785078D01*
X117330253Y-67656468D01*
X117319976Y-67637242D01*
X117271313Y-67476823D01*
X117254883Y-67310000D01*
X117271313Y-67143177D01*
X117319976Y-66982758D01*
X117398995Y-66834924D01*
X117398996Y-66834922D01*
X117505341Y-66705341D01*
X117634922Y-66598996D01*
X117713078Y-66557221D01*
X117782758Y-66519976D01*
X117943177Y-66471313D01*
X118068196Y-66459000D01*
X118151804Y-66459000D01*
X118276823Y-66471313D01*
X118276823Y-66471313D01*
G37*
G36*
X99226823Y-63931313D02*
G01*
X99387242Y-63979976D01*
X99519906Y-64050886D01*
X99535078Y-64058996D01*
X99664659Y-64165341D01*
X99771004Y-64294922D01*
X99771005Y-64294924D01*
X99850024Y-64442758D01*
X99898687Y-64603177D01*
X99915117Y-64770000D01*
X99898687Y-64936823D01*
X99850024Y-65097242D01*
X99779114Y-65229906D01*
X99771004Y-65245078D01*
X99664659Y-65374659D01*
X99535078Y-65481004D01*
X99535076Y-65481005D01*
X99387242Y-65560024D01*
X99226823Y-65608687D01*
X99101804Y-65621000D01*
X99018196Y-65621000D01*
X98893177Y-65608687D01*
X98732758Y-65560024D01*
X98584924Y-65481005D01*
X98584922Y-65481004D01*
X98455341Y-65374659D01*
X98348996Y-65245078D01*
X98340886Y-65229906D01*
X98269976Y-65097242D01*
X98221313Y-64936823D01*
X98204883Y-64770000D01*
X98221313Y-64603177D01*
X98269976Y-64442758D01*
X98348995Y-64294924D01*
X98348996Y-64294922D01*
X98455341Y-64165341D01*
X98584922Y-64058996D01*
X98600094Y-64050886D01*
X98732758Y-63979976D01*
X98893177Y-63931313D01*
X99018196Y-63919000D01*
X99101804Y-63919000D01*
X99226823Y-63931313D01*
X99226823Y-63931313D01*
G37*
G36*
X101766823Y-63931313D02*
G01*
X101927242Y-63979976D01*
X102059906Y-64050886D01*
X102075078Y-64058996D01*
X102204659Y-64165341D01*
X102311004Y-64294922D01*
X102311005Y-64294924D01*
X102390024Y-64442758D01*
X102438687Y-64603177D01*
X102455117Y-64770000D01*
X102438687Y-64936823D01*
X102390024Y-65097242D01*
X102319114Y-65229906D01*
X102311004Y-65245078D01*
X102204659Y-65374659D01*
X102075078Y-65481004D01*
X102075076Y-65481005D01*
X101927242Y-65560024D01*
X101766823Y-65608687D01*
X101641804Y-65621000D01*
X101558196Y-65621000D01*
X101433177Y-65608687D01*
X101272758Y-65560024D01*
X101124924Y-65481005D01*
X101124922Y-65481004D01*
X100995341Y-65374659D01*
X100888996Y-65245078D01*
X100880886Y-65229906D01*
X100809976Y-65097242D01*
X100761313Y-64936823D01*
X100744883Y-64770000D01*
X100761313Y-64603177D01*
X100809976Y-64442758D01*
X100888995Y-64294924D01*
X100888996Y-64294922D01*
X100995341Y-64165341D01*
X101124922Y-64058996D01*
X101140094Y-64050886D01*
X101272758Y-63979976D01*
X101433177Y-63931313D01*
X101558196Y-63919000D01*
X101641804Y-63919000D01*
X101766823Y-63931313D01*
X101766823Y-63931313D01*
G37*
G36*
X109386823Y-63931313D02*
G01*
X109547242Y-63979976D01*
X109679906Y-64050886D01*
X109695078Y-64058996D01*
X109824659Y-64165341D01*
X109931004Y-64294922D01*
X109931005Y-64294924D01*
X110010024Y-64442758D01*
X110058687Y-64603177D01*
X110075117Y-64770000D01*
X110058687Y-64936823D01*
X110010024Y-65097242D01*
X109939114Y-65229906D01*
X109931004Y-65245078D01*
X109824659Y-65374659D01*
X109695078Y-65481004D01*
X109695076Y-65481005D01*
X109547242Y-65560024D01*
X109386823Y-65608687D01*
X109261804Y-65621000D01*
X109178196Y-65621000D01*
X109053177Y-65608687D01*
X108892758Y-65560024D01*
X108744924Y-65481005D01*
X108744922Y-65481004D01*
X108615341Y-65374659D01*
X108508996Y-65245078D01*
X108500886Y-65229906D01*
X108429976Y-65097242D01*
X108381313Y-64936823D01*
X108364883Y-64770000D01*
X108381313Y-64603177D01*
X108429976Y-64442758D01*
X108508995Y-64294924D01*
X108508996Y-64294922D01*
X108615341Y-64165341D01*
X108744922Y-64058996D01*
X108760094Y-64050886D01*
X108892758Y-63979976D01*
X109053177Y-63931313D01*
X109178196Y-63919000D01*
X109261804Y-63919000D01*
X109386823Y-63931313D01*
X109386823Y-63931313D01*
G37*
G36*
X125896823Y-63931313D02*
G01*
X126057242Y-63979976D01*
X126189906Y-64050886D01*
X126205078Y-64058996D01*
X126334659Y-64165341D01*
X126441004Y-64294922D01*
X126441005Y-64294924D01*
X126520024Y-64442758D01*
X126568687Y-64603177D01*
X126585117Y-64770000D01*
X126568687Y-64936823D01*
X126520024Y-65097242D01*
X126449114Y-65229906D01*
X126441004Y-65245078D01*
X126334659Y-65374659D01*
X126205078Y-65481004D01*
X126205076Y-65481005D01*
X126057242Y-65560024D01*
X125896823Y-65608687D01*
X125771804Y-65621000D01*
X125688196Y-65621000D01*
X125563177Y-65608687D01*
X125402758Y-65560024D01*
X125254924Y-65481005D01*
X125254922Y-65481004D01*
X125125341Y-65374659D01*
X125018996Y-65245078D01*
X125010886Y-65229906D01*
X124939976Y-65097242D01*
X124891313Y-64936823D01*
X124874883Y-64770000D01*
X124891313Y-64603177D01*
X124939976Y-64442758D01*
X125018995Y-64294924D01*
X125018996Y-64294922D01*
X125125341Y-64165341D01*
X125254922Y-64058996D01*
X125270094Y-64050886D01*
X125402758Y-63979976D01*
X125563177Y-63931313D01*
X125688196Y-63919000D01*
X125771804Y-63919000D01*
X125896823Y-63931313D01*
X125896823Y-63931313D01*
G37*
G36*
X118276823Y-63931313D02*
G01*
X118437242Y-63979976D01*
X118569906Y-64050886D01*
X118585078Y-64058996D01*
X118714659Y-64165341D01*
X118821004Y-64294922D01*
X118821005Y-64294924D01*
X118900024Y-64442758D01*
X118948687Y-64603177D01*
X118965117Y-64770000D01*
X118948687Y-64936823D01*
X118900024Y-65097242D01*
X118829114Y-65229906D01*
X118821004Y-65245078D01*
X118714659Y-65374659D01*
X118585078Y-65481004D01*
X118585076Y-65481005D01*
X118437242Y-65560024D01*
X118276823Y-65608687D01*
X118151804Y-65621000D01*
X118068196Y-65621000D01*
X117943177Y-65608687D01*
X117782758Y-65560024D01*
X117634924Y-65481005D01*
X117634922Y-65481004D01*
X117505341Y-65374659D01*
X117398996Y-65245078D01*
X117390886Y-65229906D01*
X117319976Y-65097242D01*
X117271313Y-64936823D01*
X117254883Y-64770000D01*
X117271313Y-64603177D01*
X117319976Y-64442758D01*
X117398995Y-64294924D01*
X117398996Y-64294922D01*
X117505341Y-64165341D01*
X117634922Y-64058996D01*
X117650094Y-64050886D01*
X117782758Y-63979976D01*
X117943177Y-63931313D01*
X118068196Y-63919000D01*
X118151804Y-63919000D01*
X118276823Y-63931313D01*
X118276823Y-63931313D01*
G37*
G36*
X114466823Y-63931313D02*
G01*
X114627242Y-63979976D01*
X114759906Y-64050886D01*
X114775078Y-64058996D01*
X114904659Y-64165341D01*
X115011004Y-64294922D01*
X115011005Y-64294924D01*
X115090024Y-64442758D01*
X115138687Y-64603177D01*
X115155117Y-64770000D01*
X115138687Y-64936823D01*
X115090024Y-65097242D01*
X115019114Y-65229906D01*
X115011004Y-65245078D01*
X114904659Y-65374659D01*
X114775078Y-65481004D01*
X114775076Y-65481005D01*
X114627242Y-65560024D01*
X114466823Y-65608687D01*
X114341804Y-65621000D01*
X114258196Y-65621000D01*
X114133177Y-65608687D01*
X113972758Y-65560024D01*
X113824924Y-65481005D01*
X113824922Y-65481004D01*
X113695341Y-65374659D01*
X113588996Y-65245078D01*
X113580886Y-65229906D01*
X113509976Y-65097242D01*
X113461313Y-64936823D01*
X113444883Y-64770000D01*
X113461313Y-64603177D01*
X113509976Y-64442758D01*
X113588995Y-64294924D01*
X113588996Y-64294922D01*
X113695341Y-64165341D01*
X113824922Y-64058996D01*
X113840094Y-64050886D01*
X113972758Y-63979976D01*
X114133177Y-63931313D01*
X114258196Y-63919000D01*
X114341804Y-63919000D01*
X114466823Y-63931313D01*
X114466823Y-63931313D01*
G37*
G36*
X109386823Y-61391313D02*
G01*
X109547242Y-61439976D01*
X109679906Y-61510886D01*
X109695078Y-61518996D01*
X109824659Y-61625341D01*
X109931004Y-61754922D01*
X109931005Y-61754924D01*
X110010024Y-61902758D01*
X110058687Y-62063177D01*
X110075117Y-62230000D01*
X110058687Y-62396823D01*
X110010024Y-62557242D01*
X109939114Y-62689906D01*
X109931004Y-62705078D01*
X109824659Y-62834659D01*
X109695078Y-62941004D01*
X109695076Y-62941005D01*
X109547242Y-63020024D01*
X109386823Y-63068687D01*
X109261804Y-63081000D01*
X109178196Y-63081000D01*
X109053177Y-63068687D01*
X108892758Y-63020024D01*
X108744924Y-62941005D01*
X108744922Y-62941004D01*
X108615341Y-62834659D01*
X108508996Y-62705078D01*
X108500886Y-62689906D01*
X108429976Y-62557242D01*
X108381313Y-62396823D01*
X108364883Y-62230000D01*
X108381313Y-62063177D01*
X108429976Y-61902758D01*
X108508995Y-61754924D01*
X108508996Y-61754922D01*
X108615341Y-61625341D01*
X108744922Y-61518996D01*
X108760094Y-61510886D01*
X108892758Y-61439976D01*
X109053177Y-61391313D01*
X109178196Y-61379000D01*
X109261804Y-61379000D01*
X109386823Y-61391313D01*
X109386823Y-61391313D01*
G37*
G36*
X99226823Y-61391313D02*
G01*
X99387242Y-61439976D01*
X99519906Y-61510886D01*
X99535078Y-61518996D01*
X99664659Y-61625341D01*
X99771004Y-61754922D01*
X99771005Y-61754924D01*
X99850024Y-61902758D01*
X99898687Y-62063177D01*
X99915117Y-62230000D01*
X99898687Y-62396823D01*
X99850024Y-62557242D01*
X99779114Y-62689906D01*
X99771004Y-62705078D01*
X99664659Y-62834659D01*
X99535078Y-62941004D01*
X99535076Y-62941005D01*
X99387242Y-63020024D01*
X99226823Y-63068687D01*
X99101804Y-63081000D01*
X99018196Y-63081000D01*
X98893177Y-63068687D01*
X98732758Y-63020024D01*
X98584924Y-62941005D01*
X98584922Y-62941004D01*
X98455341Y-62834659D01*
X98348996Y-62705078D01*
X98340886Y-62689906D01*
X98269976Y-62557242D01*
X98221313Y-62396823D01*
X98204883Y-62230000D01*
X98221313Y-62063177D01*
X98269976Y-61902758D01*
X98348995Y-61754924D01*
X98348996Y-61754922D01*
X98455341Y-61625341D01*
X98584922Y-61518996D01*
X98600094Y-61510886D01*
X98732758Y-61439976D01*
X98893177Y-61391313D01*
X99018196Y-61379000D01*
X99101804Y-61379000D01*
X99226823Y-61391313D01*
X99226823Y-61391313D01*
G37*
G36*
X101766823Y-61391313D02*
G01*
X101927242Y-61439976D01*
X102059906Y-61510886D01*
X102075078Y-61518996D01*
X102204659Y-61625341D01*
X102311004Y-61754922D01*
X102311005Y-61754924D01*
X102390024Y-61902758D01*
X102438687Y-62063177D01*
X102455117Y-62230000D01*
X102438687Y-62396823D01*
X102390024Y-62557242D01*
X102319114Y-62689906D01*
X102311004Y-62705078D01*
X102204659Y-62834659D01*
X102075078Y-62941004D01*
X102075076Y-62941005D01*
X101927242Y-63020024D01*
X101766823Y-63068687D01*
X101641804Y-63081000D01*
X101558196Y-63081000D01*
X101433177Y-63068687D01*
X101272758Y-63020024D01*
X101124924Y-62941005D01*
X101124922Y-62941004D01*
X100995341Y-62834659D01*
X100888996Y-62705078D01*
X100880886Y-62689906D01*
X100809976Y-62557242D01*
X100761313Y-62396823D01*
X100744883Y-62230000D01*
X100761313Y-62063177D01*
X100809976Y-61902758D01*
X100888995Y-61754924D01*
X100888996Y-61754922D01*
X100995341Y-61625341D01*
X101124922Y-61518996D01*
X101140094Y-61510886D01*
X101272758Y-61439976D01*
X101433177Y-61391313D01*
X101558196Y-61379000D01*
X101641804Y-61379000D01*
X101766823Y-61391313D01*
X101766823Y-61391313D01*
G37*
G36*
X114466823Y-61391313D02*
G01*
X114627242Y-61439976D01*
X114759906Y-61510886D01*
X114775078Y-61518996D01*
X114904659Y-61625341D01*
X115011004Y-61754922D01*
X115011005Y-61754924D01*
X115090024Y-61902758D01*
X115138687Y-62063177D01*
X115155117Y-62230000D01*
X115138687Y-62396823D01*
X115090024Y-62557242D01*
X115019114Y-62689906D01*
X115011004Y-62705078D01*
X114904659Y-62834659D01*
X114775078Y-62941004D01*
X114775076Y-62941005D01*
X114627242Y-63020024D01*
X114466823Y-63068687D01*
X114341804Y-63081000D01*
X114258196Y-63081000D01*
X114133177Y-63068687D01*
X113972758Y-63020024D01*
X113824924Y-62941005D01*
X113824922Y-62941004D01*
X113695341Y-62834659D01*
X113588996Y-62705078D01*
X113580886Y-62689906D01*
X113509976Y-62557242D01*
X113461313Y-62396823D01*
X113444883Y-62230000D01*
X113461313Y-62063177D01*
X113509976Y-61902758D01*
X113588995Y-61754924D01*
X113588996Y-61754922D01*
X113695341Y-61625341D01*
X113824922Y-61518996D01*
X113840094Y-61510886D01*
X113972758Y-61439976D01*
X114133177Y-61391313D01*
X114258196Y-61379000D01*
X114341804Y-61379000D01*
X114466823Y-61391313D01*
X114466823Y-61391313D01*
G37*
G36*
X118276823Y-61391313D02*
G01*
X118437242Y-61439976D01*
X118569906Y-61510886D01*
X118585078Y-61518996D01*
X118714659Y-61625341D01*
X118821004Y-61754922D01*
X118821005Y-61754924D01*
X118900024Y-61902758D01*
X118948687Y-62063177D01*
X118965117Y-62230000D01*
X118948687Y-62396823D01*
X118900024Y-62557242D01*
X118829114Y-62689906D01*
X118821004Y-62705078D01*
X118714659Y-62834659D01*
X118585078Y-62941004D01*
X118585076Y-62941005D01*
X118437242Y-63020024D01*
X118276823Y-63068687D01*
X118151804Y-63081000D01*
X118068196Y-63081000D01*
X117943177Y-63068687D01*
X117782758Y-63020024D01*
X117634924Y-62941005D01*
X117634922Y-62941004D01*
X117505341Y-62834659D01*
X117398996Y-62705078D01*
X117390886Y-62689906D01*
X117319976Y-62557242D01*
X117271313Y-62396823D01*
X117254883Y-62230000D01*
X117271313Y-62063177D01*
X117319976Y-61902758D01*
X117398995Y-61754924D01*
X117398996Y-61754922D01*
X117505341Y-61625341D01*
X117634922Y-61518996D01*
X117650094Y-61510886D01*
X117782758Y-61439976D01*
X117943177Y-61391313D01*
X118068196Y-61379000D01*
X118151804Y-61379000D01*
X118276823Y-61391313D01*
X118276823Y-61391313D01*
G37*
G36*
X125896823Y-61391313D02*
G01*
X126057242Y-61439976D01*
X126189906Y-61510886D01*
X126205078Y-61518996D01*
X126334659Y-61625341D01*
X126441004Y-61754922D01*
X126441005Y-61754924D01*
X126520024Y-61902758D01*
X126568687Y-62063177D01*
X126585117Y-62230000D01*
X126568687Y-62396823D01*
X126520024Y-62557242D01*
X126449114Y-62689906D01*
X126441004Y-62705078D01*
X126334659Y-62834659D01*
X126205078Y-62941004D01*
X126205076Y-62941005D01*
X126057242Y-63020024D01*
X125896823Y-63068687D01*
X125771804Y-63081000D01*
X125688196Y-63081000D01*
X125563177Y-63068687D01*
X125402758Y-63020024D01*
X125254924Y-62941005D01*
X125254922Y-62941004D01*
X125125341Y-62834659D01*
X125018996Y-62705078D01*
X125010886Y-62689906D01*
X124939976Y-62557242D01*
X124891313Y-62396823D01*
X124874883Y-62230000D01*
X124891313Y-62063177D01*
X124939976Y-61902758D01*
X125018995Y-61754924D01*
X125018996Y-61754922D01*
X125125341Y-61625341D01*
X125254922Y-61518996D01*
X125270094Y-61510886D01*
X125402758Y-61439976D01*
X125563177Y-61391313D01*
X125688196Y-61379000D01*
X125771804Y-61379000D01*
X125896823Y-61391313D01*
X125896823Y-61391313D01*
G37*
G36*
X118961000Y-60541000D02*
G01*
X117259000Y-60541000D01*
X117259000Y-58839000D01*
X118961000Y-58839000D01*
X118961000Y-60541000D01*
X118961000Y-60541000D01*
G37*
G36*
X125896823Y-58851313D02*
G01*
X126057242Y-58899976D01*
X126189906Y-58970886D01*
X126205078Y-58978996D01*
X126334659Y-59085341D01*
X126441004Y-59214922D01*
X126441005Y-59214924D01*
X126520024Y-59362758D01*
X126568687Y-59523177D01*
X126585117Y-59690000D01*
X126568687Y-59856823D01*
X126520024Y-60017242D01*
X126449114Y-60149906D01*
X126441004Y-60165078D01*
X126334659Y-60294659D01*
X126205078Y-60401004D01*
X126205076Y-60401005D01*
X126057242Y-60480024D01*
X125896823Y-60528687D01*
X125771804Y-60541000D01*
X125688196Y-60541000D01*
X125563177Y-60528687D01*
X125402758Y-60480024D01*
X125254924Y-60401005D01*
X125254922Y-60401004D01*
X125125341Y-60294659D01*
X125018996Y-60165078D01*
X125010886Y-60149906D01*
X124939976Y-60017242D01*
X124891313Y-59856823D01*
X124874883Y-59690000D01*
X124891313Y-59523177D01*
X124939976Y-59362758D01*
X125018995Y-59214924D01*
X125018996Y-59214922D01*
X125125341Y-59085341D01*
X125254922Y-58978996D01*
X125270094Y-58970886D01*
X125402758Y-58899976D01*
X125563177Y-58851313D01*
X125688196Y-58839000D01*
X125771804Y-58839000D01*
X125896823Y-58851313D01*
X125896823Y-58851313D01*
G37*
G36*
X101766823Y-58851313D02*
G01*
X101927242Y-58899976D01*
X102059906Y-58970886D01*
X102075078Y-58978996D01*
X102204659Y-59085341D01*
X102311004Y-59214922D01*
X102311005Y-59214924D01*
X102390024Y-59362758D01*
X102438687Y-59523177D01*
X102455117Y-59690000D01*
X102438687Y-59856823D01*
X102390024Y-60017242D01*
X102319114Y-60149906D01*
X102311004Y-60165078D01*
X102204659Y-60294659D01*
X102075078Y-60401004D01*
X102075076Y-60401005D01*
X101927242Y-60480024D01*
X101766823Y-60528687D01*
X101641804Y-60541000D01*
X101558196Y-60541000D01*
X101433177Y-60528687D01*
X101272758Y-60480024D01*
X101124924Y-60401005D01*
X101124922Y-60401004D01*
X100995341Y-60294659D01*
X100888996Y-60165078D01*
X100880886Y-60149906D01*
X100809976Y-60017242D01*
X100761313Y-59856823D01*
X100744883Y-59690000D01*
X100761313Y-59523177D01*
X100809976Y-59362758D01*
X100888995Y-59214924D01*
X100888996Y-59214922D01*
X100995341Y-59085341D01*
X101124922Y-58978996D01*
X101140094Y-58970886D01*
X101272758Y-58899976D01*
X101433177Y-58851313D01*
X101558196Y-58839000D01*
X101641804Y-58839000D01*
X101766823Y-58851313D01*
X101766823Y-58851313D01*
G37*
G36*
X109386823Y-58851313D02*
G01*
X109547242Y-58899976D01*
X109679906Y-58970886D01*
X109695078Y-58978996D01*
X109824659Y-59085341D01*
X109931004Y-59214922D01*
X109931005Y-59214924D01*
X110010024Y-59362758D01*
X110058687Y-59523177D01*
X110075117Y-59690000D01*
X110058687Y-59856823D01*
X110010024Y-60017242D01*
X109939114Y-60149906D01*
X109931004Y-60165078D01*
X109824659Y-60294659D01*
X109695078Y-60401004D01*
X109695076Y-60401005D01*
X109547242Y-60480024D01*
X109386823Y-60528687D01*
X109261804Y-60541000D01*
X109178196Y-60541000D01*
X109053177Y-60528687D01*
X108892758Y-60480024D01*
X108744924Y-60401005D01*
X108744922Y-60401004D01*
X108615341Y-60294659D01*
X108508996Y-60165078D01*
X108500886Y-60149906D01*
X108429976Y-60017242D01*
X108381313Y-59856823D01*
X108364883Y-59690000D01*
X108381313Y-59523177D01*
X108429976Y-59362758D01*
X108508995Y-59214924D01*
X108508996Y-59214922D01*
X108615341Y-59085341D01*
X108744922Y-58978996D01*
X108760094Y-58970886D01*
X108892758Y-58899976D01*
X109053177Y-58851313D01*
X109178196Y-58839000D01*
X109261804Y-58839000D01*
X109386823Y-58851313D01*
X109386823Y-58851313D01*
G37*
G36*
X99226823Y-58851313D02*
G01*
X99387242Y-58899976D01*
X99519906Y-58970886D01*
X99535078Y-58978996D01*
X99664659Y-59085341D01*
X99771004Y-59214922D01*
X99771005Y-59214924D01*
X99850024Y-59362758D01*
X99898687Y-59523177D01*
X99915117Y-59690000D01*
X99898687Y-59856823D01*
X99850024Y-60017242D01*
X99779114Y-60149906D01*
X99771004Y-60165078D01*
X99664659Y-60294659D01*
X99535078Y-60401004D01*
X99535076Y-60401005D01*
X99387242Y-60480024D01*
X99226823Y-60528687D01*
X99101804Y-60541000D01*
X99018196Y-60541000D01*
X98893177Y-60528687D01*
X98732758Y-60480024D01*
X98584924Y-60401005D01*
X98584922Y-60401004D01*
X98455341Y-60294659D01*
X98348996Y-60165078D01*
X98340886Y-60149906D01*
X98269976Y-60017242D01*
X98221313Y-59856823D01*
X98204883Y-59690000D01*
X98221313Y-59523177D01*
X98269976Y-59362758D01*
X98348995Y-59214924D01*
X98348996Y-59214922D01*
X98455341Y-59085341D01*
X98584922Y-58978996D01*
X98600094Y-58970886D01*
X98732758Y-58899976D01*
X98893177Y-58851313D01*
X99018196Y-58839000D01*
X99101804Y-58839000D01*
X99226823Y-58851313D01*
X99226823Y-58851313D01*
G37*
G36*
X114466823Y-58851313D02*
G01*
X114627242Y-58899976D01*
X114759906Y-58970886D01*
X114775078Y-58978996D01*
X114904659Y-59085341D01*
X115011004Y-59214922D01*
X115011005Y-59214924D01*
X115090024Y-59362758D01*
X115138687Y-59523177D01*
X115155117Y-59690000D01*
X115138687Y-59856823D01*
X115090024Y-60017242D01*
X115019114Y-60149906D01*
X115011004Y-60165078D01*
X114904659Y-60294659D01*
X114775078Y-60401004D01*
X114775076Y-60401005D01*
X114627242Y-60480024D01*
X114466823Y-60528687D01*
X114341804Y-60541000D01*
X114258196Y-60541000D01*
X114133177Y-60528687D01*
X113972758Y-60480024D01*
X113824924Y-60401005D01*
X113824922Y-60401004D01*
X113695341Y-60294659D01*
X113588996Y-60165078D01*
X113580886Y-60149906D01*
X113509976Y-60017242D01*
X113461313Y-59856823D01*
X113444883Y-59690000D01*
X113461313Y-59523177D01*
X113509976Y-59362758D01*
X113588995Y-59214924D01*
X113588996Y-59214922D01*
X113695341Y-59085341D01*
X113824922Y-58978996D01*
X113840094Y-58970886D01*
X113972758Y-58899976D01*
X114133177Y-58851313D01*
X114258196Y-58839000D01*
X114341804Y-58839000D01*
X114466823Y-58851313D01*
X114466823Y-58851313D01*
G37*
G36*
X109386823Y-56311313D02*
G01*
X109547242Y-56359976D01*
X109679906Y-56430886D01*
X109695078Y-56438996D01*
X109824659Y-56545341D01*
X109931004Y-56674922D01*
X109931005Y-56674924D01*
X110010024Y-56822758D01*
X110058687Y-56983177D01*
X110075117Y-57150000D01*
X110058687Y-57316823D01*
X110010024Y-57477242D01*
X109939114Y-57609906D01*
X109931004Y-57625078D01*
X109824659Y-57754659D01*
X109695078Y-57861004D01*
X109695076Y-57861005D01*
X109547242Y-57940024D01*
X109386823Y-57988687D01*
X109261804Y-58001000D01*
X109178196Y-58001000D01*
X109053177Y-57988687D01*
X108892758Y-57940024D01*
X108744924Y-57861005D01*
X108744922Y-57861004D01*
X108615341Y-57754659D01*
X108508996Y-57625078D01*
X108500886Y-57609906D01*
X108429976Y-57477242D01*
X108381313Y-57316823D01*
X108364883Y-57150000D01*
X108381313Y-56983177D01*
X108429976Y-56822758D01*
X108508995Y-56674924D01*
X108508996Y-56674922D01*
X108615341Y-56545341D01*
X108744922Y-56438996D01*
X108760094Y-56430886D01*
X108892758Y-56359976D01*
X109053177Y-56311313D01*
X109178196Y-56299000D01*
X109261804Y-56299000D01*
X109386823Y-56311313D01*
X109386823Y-56311313D01*
G37*
G36*
X114466823Y-56311313D02*
G01*
X114627242Y-56359976D01*
X114759906Y-56430886D01*
X114775078Y-56438996D01*
X114904659Y-56545341D01*
X115011004Y-56674922D01*
X115011005Y-56674924D01*
X115090024Y-56822758D01*
X115138687Y-56983177D01*
X115155117Y-57150000D01*
X115138687Y-57316823D01*
X115090024Y-57477242D01*
X115019114Y-57609906D01*
X115011004Y-57625078D01*
X114904659Y-57754659D01*
X114775078Y-57861004D01*
X114775076Y-57861005D01*
X114627242Y-57940024D01*
X114466823Y-57988687D01*
X114341804Y-58001000D01*
X114258196Y-58001000D01*
X114133177Y-57988687D01*
X113972758Y-57940024D01*
X113824924Y-57861005D01*
X113824922Y-57861004D01*
X113695341Y-57754659D01*
X113588996Y-57625078D01*
X113580886Y-57609906D01*
X113509976Y-57477242D01*
X113461313Y-57316823D01*
X113444883Y-57150000D01*
X113461313Y-56983177D01*
X113509976Y-56822758D01*
X113588995Y-56674924D01*
X113588996Y-56674922D01*
X113695341Y-56545341D01*
X113824922Y-56438996D01*
X113840094Y-56430886D01*
X113972758Y-56359976D01*
X114133177Y-56311313D01*
X114258196Y-56299000D01*
X114341804Y-56299000D01*
X114466823Y-56311313D01*
X114466823Y-56311313D01*
G37*
G36*
X102451000Y-58001000D02*
G01*
X100749000Y-58001000D01*
X100749000Y-56299000D01*
X102451000Y-56299000D01*
X102451000Y-58001000D01*
X102451000Y-58001000D01*
G37*
G36*
X99226823Y-56311313D02*
G01*
X99387242Y-56359976D01*
X99519906Y-56430886D01*
X99535078Y-56438996D01*
X99664659Y-56545341D01*
X99771004Y-56674922D01*
X99771005Y-56674924D01*
X99850024Y-56822758D01*
X99898687Y-56983177D01*
X99915117Y-57150000D01*
X99898687Y-57316823D01*
X99850024Y-57477242D01*
X99779114Y-57609906D01*
X99771004Y-57625078D01*
X99664659Y-57754659D01*
X99535078Y-57861004D01*
X99535076Y-57861005D01*
X99387242Y-57940024D01*
X99226823Y-57988687D01*
X99101804Y-58001000D01*
X99018196Y-58001000D01*
X98893177Y-57988687D01*
X98732758Y-57940024D01*
X98584924Y-57861005D01*
X98584922Y-57861004D01*
X98455341Y-57754659D01*
X98348996Y-57625078D01*
X98340886Y-57609906D01*
X98269976Y-57477242D01*
X98221313Y-57316823D01*
X98204883Y-57150000D01*
X98221313Y-56983177D01*
X98269976Y-56822758D01*
X98348995Y-56674924D01*
X98348996Y-56674922D01*
X98455341Y-56545341D01*
X98584922Y-56438996D01*
X98600094Y-56430886D01*
X98732758Y-56359976D01*
X98893177Y-56311313D01*
X99018196Y-56299000D01*
X99101804Y-56299000D01*
X99226823Y-56311313D01*
X99226823Y-56311313D01*
G37*
G36*
X114466823Y-53771313D02*
G01*
X114627242Y-53819976D01*
X114759906Y-53890886D01*
X114775078Y-53898996D01*
X114904659Y-54005341D01*
X115011004Y-54134922D01*
X115011005Y-54134924D01*
X115090024Y-54282758D01*
X115138687Y-54443177D01*
X115155117Y-54610000D01*
X115138687Y-54776823D01*
X115090024Y-54937242D01*
X115019114Y-55069906D01*
X115011004Y-55085078D01*
X114904659Y-55214659D01*
X114775078Y-55321004D01*
X114775076Y-55321005D01*
X114627242Y-55400024D01*
X114466823Y-55448687D01*
X114341804Y-55461000D01*
X114258196Y-55461000D01*
X114133177Y-55448687D01*
X113972758Y-55400024D01*
X113824924Y-55321005D01*
X113824922Y-55321004D01*
X113695341Y-55214659D01*
X113588996Y-55085078D01*
X113580886Y-55069906D01*
X113509976Y-54937242D01*
X113461313Y-54776823D01*
X113444883Y-54610000D01*
X113461313Y-54443177D01*
X113509976Y-54282758D01*
X113588995Y-54134924D01*
X113588996Y-54134922D01*
X113695341Y-54005341D01*
X113824922Y-53898996D01*
X113840094Y-53890886D01*
X113972758Y-53819976D01*
X114133177Y-53771313D01*
X114258196Y-53759000D01*
X114341804Y-53759000D01*
X114466823Y-53771313D01*
X114466823Y-53771313D01*
G37*
G36*
X99911000Y-55461000D02*
G01*
X98209000Y-55461000D01*
X98209000Y-53759000D01*
X99911000Y-53759000D01*
X99911000Y-55461000D01*
X99911000Y-55461000D01*
G37*
M02*
