G04 #@! TF.GenerationSoftware,KiCad,Pcbnew,8.0.2*
G04 #@! TF.CreationDate,2024-11-11T10:43:17+01:00*
G04 #@! TF.ProjectId,junior-interface-conn,6a756e69-6f72-42d6-996e-746572666163,rev?*
G04 #@! TF.SameCoordinates,Original*
G04 #@! TF.FileFunction,Copper,L2,Bot*
G04 #@! TF.FilePolarity,Positive*
%FSLAX46Y46*%
G04 Gerber Fmt 4.6, Leading zero omitted, Abs format (unit mm)*
G04 Created by KiCad (PCBNEW 8.0.2) date 2024-11-11 10:43:17*
%MOMM*%
%LPD*%
G01*
G04 APERTURE LIST*
G04 Aperture macros list*
%AMFreePoly0*
4,1,21,0.738000,0.762000,0.762000,0.762000,0.762000,0.738000,1.000000,0.500000,1.000000,-0.500000,0.762000,-0.738000,0.762000,-0.762000,0.738000,-0.762000,0.500000,-1.000000,-0.500000,-1.000000,-0.738000,-0.762000,-0.762000,-0.762000,-0.762000,-0.738000,-1.000000,-0.500000,-1.000000,0.500000,-0.762000,0.738000,-0.762000,0.762000,-0.738000,0.762000,-0.500000,1.000000,0.500000,1.000000,
0.738000,0.762000,0.738000,0.762000,$1*%
%AMFreePoly1*
4,1,9,1.500000,0.600000,1.500000,-0.600000,0.600000,-1.500000,-0.600000,-1.500000,-1.500000,-0.600000,-1.500000,0.600000,-0.600000,1.500000,0.600000,1.500000,1.500000,0.600000,1.500000,0.600000,$1*%
%AMFreePoly2*
4,1,9,0.900000,0.350000,0.900000,-0.350000,0.350000,-0.900000,-0.350000,-0.900000,-0.900000,-0.350000,-0.900000,0.350000,-0.350000,0.900000,0.350000,0.900000,0.900000,0.350000,0.900000,0.350000,$1*%
%AMFreePoly3*
4,1,9,1.200000,0.500000,1.200000,-0.500000,0.500000,-1.200000,-0.500000,-1.200000,-1.200000,-0.500000,-1.200000,0.500000,-0.500000,1.200000,0.500000,1.200000,1.200000,0.500000,1.200000,0.500000,$1*%
G04 Aperture macros list end*
G04 #@! TA.AperFunction,ComponentPad*
%ADD10FreePoly0,0.000000*%
G04 #@! TD*
G04 #@! TA.AperFunction,ComponentPad*
%ADD11FreePoly0,180.000000*%
G04 #@! TD*
G04 #@! TA.AperFunction,ComponentPad*
%ADD12FreePoly1,0.000000*%
G04 #@! TD*
G04 #@! TA.AperFunction,ComponentPad*
%ADD13FreePoly2,0.000000*%
G04 #@! TD*
G04 #@! TA.AperFunction,ComponentPad*
%ADD14FreePoly3,180.000000*%
G04 #@! TD*
G04 #@! TA.AperFunction,Conductor*
%ADD15C,1.000000*%
G04 #@! TD*
G04 #@! TA.AperFunction,Conductor*
%ADD16C,0.750000*%
G04 #@! TD*
G04 APERTURE END LIST*
D10*
X180340000Y-63500000D03*
X177800000Y-63500000D03*
D11*
X160020000Y-63500000D03*
X162560000Y-63500000D03*
D12*
X101600000Y-63500000D03*
D13*
X106680000Y-63500000D03*
X109220000Y-63500000D03*
X111760000Y-63500000D03*
X114300000Y-63500000D03*
X116840000Y-63500000D03*
X119380000Y-63500000D03*
X121920000Y-63500000D03*
X124460000Y-63500000D03*
X137160000Y-63500000D03*
X139700000Y-63500000D03*
X142240000Y-63500000D03*
X144780000Y-63500000D03*
X147320000Y-63500000D03*
X149860000Y-63500000D03*
X152400000Y-63500000D03*
X154940000Y-63500000D03*
D12*
X96520000Y-63500000D03*
X167640000Y-63500000D03*
X172720000Y-63500000D03*
X132080000Y-63500000D03*
D14*
X99820000Y-71080000D03*
X102320000Y-68580000D03*
X104820000Y-71080000D03*
X107320000Y-68580000D03*
X109820000Y-71080000D03*
X112320000Y-68580000D03*
X114820000Y-71080000D03*
X117320000Y-68580000D03*
X119820000Y-71080000D03*
X122320000Y-68580000D03*
X124820000Y-71080000D03*
X127320000Y-68580000D03*
X129820000Y-71080000D03*
X132320000Y-68580000D03*
X134820000Y-71080000D03*
X137320000Y-68580000D03*
X139820000Y-71080000D03*
X142320000Y-68580000D03*
X144820000Y-71080000D03*
X147320000Y-68580000D03*
X149820000Y-71080000D03*
X152320000Y-68580000D03*
X154820000Y-71080000D03*
X157320000Y-68580000D03*
X159820000Y-71080000D03*
X162240000Y-68580000D03*
X164820000Y-71080000D03*
X167320000Y-68580000D03*
X169820000Y-71080000D03*
X172320000Y-68580000D03*
X174940000Y-71080000D03*
D15*
X161290000Y-60325000D02*
X179070000Y-60325000D01*
X160020000Y-61595000D02*
X160020000Y-60325000D01*
X179070000Y-60325000D02*
X180340000Y-61595000D01*
X96520000Y-63500000D02*
X96520000Y-61595000D01*
X97790000Y-60325000D02*
X158750000Y-60325000D01*
X160020000Y-60325000D02*
X161290000Y-60325000D01*
X180340000Y-61595000D02*
X180340000Y-63500000D01*
X96395000Y-63500000D02*
X96395000Y-67780000D01*
X158750000Y-60325000D02*
X160020000Y-60325000D01*
X96520000Y-61595000D02*
X97790000Y-60325000D01*
X160020000Y-61595000D02*
X161290000Y-60325000D01*
X160020000Y-63500000D02*
X160020000Y-61595000D01*
X160020000Y-61595000D02*
X158750000Y-60325000D01*
X96395000Y-67780000D02*
X99695000Y-71080000D01*
D16*
X139700000Y-71080000D02*
X139700000Y-68065000D01*
X137040000Y-65405000D02*
X133865000Y-65405000D01*
D15*
X102320000Y-68580000D02*
X104860000Y-66040000D01*
X104860000Y-66040000D02*
X129540000Y-66040000D01*
D16*
X133865000Y-65405000D02*
X131960000Y-63500000D01*
X139700000Y-68065000D02*
X137040000Y-65405000D01*
D15*
X129540000Y-66040000D02*
X132080000Y-63500000D01*
M02*
