G04 #@! TF.GenerationSoftware,KiCad,Pcbnew,8.0.2*
G04 #@! TF.CreationDate,2024-11-11T10:43:17+01:00*
G04 #@! TF.ProjectId,junior-interface-conn,6a756e69-6f72-42d6-996e-746572666163,rev?*
G04 #@! TF.SameCoordinates,Original*
G04 #@! TF.FileFunction,Soldermask,Top*
G04 #@! TF.FilePolarity,Negative*
%FSLAX46Y46*%
G04 Gerber Fmt 4.6, Leading zero omitted, Abs format (unit mm)*
G04 Created by KiCad (PCBNEW 8.0.2) date 2024-11-11 10:43:17*
%MOMM*%
%LPD*%
G01*
G04 APERTURE LIST*
G04 APERTURE END LIST*
G36*
X94878066Y-72133956D02*
G01*
X94939823Y-72133956D01*
X94994950Y-72143155D01*
X95046929Y-72147246D01*
X95109525Y-72162274D01*
X95176199Y-72173400D01*
X95223488Y-72189634D01*
X95268263Y-72200384D01*
X95333437Y-72227380D01*
X95402860Y-72251213D01*
X95441636Y-72272197D01*
X95478565Y-72287494D01*
X95544016Y-72327602D01*
X95613622Y-72365271D01*
X95643740Y-72388713D01*
X95672650Y-72406429D01*
X95735833Y-72460392D01*
X95802736Y-72512465D01*
X95824557Y-72536169D01*
X95845739Y-72554260D01*
X95903899Y-72622357D01*
X95965043Y-72688777D01*
X95979416Y-72710776D01*
X95993570Y-72727349D01*
X96043867Y-72809427D01*
X96096116Y-72889400D01*
X96104280Y-72908012D01*
X96112505Y-72921434D01*
X96152139Y-73017120D01*
X96192381Y-73108861D01*
X96195906Y-73122782D01*
X96199615Y-73131736D01*
X96225924Y-73241323D01*
X96251210Y-73341173D01*
X96251902Y-73349526D01*
X96252753Y-73353070D01*
X96263292Y-73486985D01*
X96271000Y-73580000D01*
X96263291Y-73673022D01*
X96252753Y-73806929D01*
X96251902Y-73810472D01*
X96251210Y-73818827D01*
X96225920Y-73918695D01*
X96199615Y-74028263D01*
X96195907Y-74037214D01*
X96192381Y-74051139D01*
X96152132Y-74142896D01*
X96112505Y-74238565D01*
X96104281Y-74251984D01*
X96096116Y-74270600D01*
X96043857Y-74350587D01*
X95993570Y-74432650D01*
X95979419Y-74449218D01*
X95965043Y-74471223D01*
X95903887Y-74537655D01*
X95845739Y-74605739D01*
X95824561Y-74623825D01*
X95802736Y-74647535D01*
X95735820Y-74699617D01*
X95672650Y-74753570D01*
X95643746Y-74771281D01*
X95613622Y-74794729D01*
X95544003Y-74832404D01*
X95478565Y-74872505D01*
X95441644Y-74887797D01*
X95402860Y-74908787D01*
X95333423Y-74932624D01*
X95268263Y-74959615D01*
X95223497Y-74970362D01*
X95176199Y-74986600D01*
X95109511Y-74997728D01*
X95046929Y-75012753D01*
X94994962Y-75016842D01*
X94939823Y-75026044D01*
X94878054Y-75026044D01*
X94820000Y-75030613D01*
X94761946Y-75026044D01*
X94700177Y-75026044D01*
X94645038Y-75016843D01*
X94593070Y-75012753D01*
X94530484Y-74997727D01*
X94463801Y-74986600D01*
X94416504Y-74970363D01*
X94371736Y-74959615D01*
X94306570Y-74932622D01*
X94237140Y-74908787D01*
X94198358Y-74887799D01*
X94161434Y-74872505D01*
X94095988Y-74832400D01*
X94026378Y-74794729D01*
X93996257Y-74771284D01*
X93967349Y-74753570D01*
X93904168Y-74699608D01*
X93837264Y-74647535D01*
X93815441Y-74623829D01*
X93794260Y-74605739D01*
X93736098Y-74537640D01*
X93674957Y-74471223D01*
X93660584Y-74449223D01*
X93646429Y-74432650D01*
X93596126Y-74350562D01*
X93543884Y-74270600D01*
X93535720Y-74251990D01*
X93527494Y-74238565D01*
X93487850Y-74142856D01*
X93447619Y-74051139D01*
X93444094Y-74037220D01*
X93440384Y-74028263D01*
X93414060Y-73918619D01*
X93388790Y-73818827D01*
X93388098Y-73810478D01*
X93387246Y-73806929D01*
X93376688Y-73672781D01*
X93369000Y-73580000D01*
X93376687Y-73487225D01*
X93387246Y-73353070D01*
X93388098Y-73349519D01*
X93388790Y-73341173D01*
X93414056Y-73241399D01*
X93440384Y-73131736D01*
X93444095Y-73122776D01*
X93447619Y-73108861D01*
X93487842Y-73017160D01*
X93527494Y-72921434D01*
X93535722Y-72908006D01*
X93543884Y-72889400D01*
X93596116Y-72809452D01*
X93646429Y-72727349D01*
X93660587Y-72710771D01*
X93674957Y-72688777D01*
X93736087Y-72622372D01*
X93794260Y-72554260D01*
X93815446Y-72536165D01*
X93837264Y-72512465D01*
X93904155Y-72460401D01*
X93967349Y-72406429D01*
X93996263Y-72388710D01*
X94026378Y-72365271D01*
X94095974Y-72327607D01*
X94161434Y-72287494D01*
X94198366Y-72272196D01*
X94237140Y-72251213D01*
X94306556Y-72227382D01*
X94371736Y-72200384D01*
X94416514Y-72189633D01*
X94463801Y-72173400D01*
X94530471Y-72162274D01*
X94593070Y-72147246D01*
X94645049Y-72143155D01*
X94700177Y-72133956D01*
X94761933Y-72133956D01*
X94820000Y-72129386D01*
X94878066Y-72133956D01*
G37*
G36*
X179878066Y-72133956D02*
G01*
X179939823Y-72133956D01*
X179994950Y-72143155D01*
X180046929Y-72147246D01*
X180109525Y-72162274D01*
X180176199Y-72173400D01*
X180223488Y-72189634D01*
X180268263Y-72200384D01*
X180333437Y-72227380D01*
X180402860Y-72251213D01*
X180441636Y-72272197D01*
X180478565Y-72287494D01*
X180544016Y-72327602D01*
X180613622Y-72365271D01*
X180643740Y-72388713D01*
X180672650Y-72406429D01*
X180735833Y-72460392D01*
X180802736Y-72512465D01*
X180824557Y-72536169D01*
X180845739Y-72554260D01*
X180903899Y-72622357D01*
X180965043Y-72688777D01*
X180979416Y-72710776D01*
X180993570Y-72727349D01*
X181043867Y-72809427D01*
X181096116Y-72889400D01*
X181104280Y-72908012D01*
X181112505Y-72921434D01*
X181152139Y-73017120D01*
X181192381Y-73108861D01*
X181195906Y-73122782D01*
X181199615Y-73131736D01*
X181225924Y-73241323D01*
X181251210Y-73341173D01*
X181251902Y-73349526D01*
X181252753Y-73353070D01*
X181263292Y-73486985D01*
X181271000Y-73580000D01*
X181263291Y-73673022D01*
X181252753Y-73806929D01*
X181251902Y-73810472D01*
X181251210Y-73818827D01*
X181225920Y-73918695D01*
X181199615Y-74028263D01*
X181195907Y-74037214D01*
X181192381Y-74051139D01*
X181152132Y-74142896D01*
X181112505Y-74238565D01*
X181104281Y-74251984D01*
X181096116Y-74270600D01*
X181043857Y-74350587D01*
X180993570Y-74432650D01*
X180979419Y-74449218D01*
X180965043Y-74471223D01*
X180903887Y-74537655D01*
X180845739Y-74605739D01*
X180824561Y-74623825D01*
X180802736Y-74647535D01*
X180735820Y-74699617D01*
X180672650Y-74753570D01*
X180643746Y-74771281D01*
X180613622Y-74794729D01*
X180544003Y-74832404D01*
X180478565Y-74872505D01*
X180441644Y-74887797D01*
X180402860Y-74908787D01*
X180333423Y-74932624D01*
X180268263Y-74959615D01*
X180223497Y-74970362D01*
X180176199Y-74986600D01*
X180109511Y-74997728D01*
X180046929Y-75012753D01*
X179994962Y-75016842D01*
X179939823Y-75026044D01*
X179878054Y-75026044D01*
X179820000Y-75030613D01*
X179761946Y-75026044D01*
X179700177Y-75026044D01*
X179645038Y-75016843D01*
X179593070Y-75012753D01*
X179530484Y-74997727D01*
X179463801Y-74986600D01*
X179416504Y-74970363D01*
X179371736Y-74959615D01*
X179306570Y-74932622D01*
X179237140Y-74908787D01*
X179198358Y-74887799D01*
X179161434Y-74872505D01*
X179095988Y-74832400D01*
X179026378Y-74794729D01*
X178996257Y-74771284D01*
X178967349Y-74753570D01*
X178904168Y-74699608D01*
X178837264Y-74647535D01*
X178815441Y-74623829D01*
X178794260Y-74605739D01*
X178736098Y-74537640D01*
X178674957Y-74471223D01*
X178660584Y-74449223D01*
X178646429Y-74432650D01*
X178596126Y-74350562D01*
X178543884Y-74270600D01*
X178535720Y-74251990D01*
X178527494Y-74238565D01*
X178487850Y-74142856D01*
X178447619Y-74051139D01*
X178444094Y-74037220D01*
X178440384Y-74028263D01*
X178414060Y-73918619D01*
X178388790Y-73818827D01*
X178388098Y-73810478D01*
X178387246Y-73806929D01*
X178376688Y-73672781D01*
X178369000Y-73580000D01*
X178376687Y-73487225D01*
X178387246Y-73353070D01*
X178388098Y-73349519D01*
X178388790Y-73341173D01*
X178414056Y-73241399D01*
X178440384Y-73131736D01*
X178444095Y-73122776D01*
X178447619Y-73108861D01*
X178487842Y-73017160D01*
X178527494Y-72921434D01*
X178535722Y-72908006D01*
X178543884Y-72889400D01*
X178596116Y-72809452D01*
X178646429Y-72727349D01*
X178660587Y-72710771D01*
X178674957Y-72688777D01*
X178736087Y-72622372D01*
X178794260Y-72554260D01*
X178815446Y-72536165D01*
X178837264Y-72512465D01*
X178904155Y-72460401D01*
X178967349Y-72406429D01*
X178996263Y-72388710D01*
X179026378Y-72365271D01*
X179095974Y-72327607D01*
X179161434Y-72287494D01*
X179198366Y-72272196D01*
X179237140Y-72251213D01*
X179306556Y-72227382D01*
X179371736Y-72200384D01*
X179416514Y-72189633D01*
X179463801Y-72173400D01*
X179530471Y-72162274D01*
X179593070Y-72147246D01*
X179645049Y-72143155D01*
X179700177Y-72133956D01*
X179761933Y-72133956D01*
X179820000Y-72129386D01*
X179878066Y-72133956D01*
G37*
G36*
X100342302Y-69833237D02*
G01*
X100350060Y-69835150D01*
X100354106Y-69838127D01*
X100359598Y-69840402D01*
X101059598Y-70540402D01*
X101068835Y-70562703D01*
X101072969Y-70569541D01*
X101073724Y-70574507D01*
X101076000Y-70580000D01*
X101076000Y-71580000D01*
X101066759Y-71602307D01*
X101064849Y-71610060D01*
X101061873Y-71614103D01*
X101059598Y-71619598D01*
X100359598Y-72319598D01*
X100337293Y-72328836D01*
X100330458Y-72332969D01*
X100325493Y-72333724D01*
X100320000Y-72336000D01*
X100310543Y-72336000D01*
X99335178Y-72336000D01*
X99320000Y-72336000D01*
X99297693Y-72326760D01*
X99289939Y-72324849D01*
X99285894Y-72321872D01*
X99280402Y-72319598D01*
X98580402Y-71619598D01*
X98571165Y-71597298D01*
X98567030Y-71590458D01*
X98566274Y-71585490D01*
X98564000Y-71580000D01*
X98564000Y-70580000D01*
X98573237Y-70557698D01*
X98575150Y-70549939D01*
X98578128Y-70545891D01*
X98580402Y-70540402D01*
X98587082Y-70533721D01*
X98587085Y-70533718D01*
X99269670Y-69851133D01*
X99269672Y-69851131D01*
X99280402Y-69840402D01*
X99302698Y-69831166D01*
X99309541Y-69827030D01*
X99314510Y-69826274D01*
X99320000Y-69824000D01*
X100320000Y-69824000D01*
X100342302Y-69833237D01*
G37*
G36*
X105342302Y-69833237D02*
G01*
X105350060Y-69835150D01*
X105354106Y-69838127D01*
X105359598Y-69840402D01*
X106059598Y-70540402D01*
X106068835Y-70562703D01*
X106072969Y-70569541D01*
X106073724Y-70574507D01*
X106076000Y-70580000D01*
X106076000Y-71580000D01*
X106066759Y-71602307D01*
X106064849Y-71610060D01*
X106061873Y-71614103D01*
X106059598Y-71619598D01*
X105359598Y-72319598D01*
X105337293Y-72328836D01*
X105330458Y-72332969D01*
X105325493Y-72333724D01*
X105320000Y-72336000D01*
X105310543Y-72336000D01*
X104335178Y-72336000D01*
X104320000Y-72336000D01*
X104297693Y-72326760D01*
X104289939Y-72324849D01*
X104285894Y-72321872D01*
X104280402Y-72319598D01*
X103580402Y-71619598D01*
X103571165Y-71597298D01*
X103567030Y-71590458D01*
X103566274Y-71585490D01*
X103564000Y-71580000D01*
X103564000Y-70580000D01*
X103573237Y-70557698D01*
X103575150Y-70549939D01*
X103578128Y-70545891D01*
X103580402Y-70540402D01*
X103587082Y-70533721D01*
X103587085Y-70533718D01*
X104269670Y-69851133D01*
X104269672Y-69851131D01*
X104280402Y-69840402D01*
X104302698Y-69831166D01*
X104309541Y-69827030D01*
X104314510Y-69826274D01*
X104320000Y-69824000D01*
X105320000Y-69824000D01*
X105342302Y-69833237D01*
G37*
G36*
X110342302Y-69833237D02*
G01*
X110350060Y-69835150D01*
X110354106Y-69838127D01*
X110359598Y-69840402D01*
X111059598Y-70540402D01*
X111068835Y-70562703D01*
X111072969Y-70569541D01*
X111073724Y-70574507D01*
X111076000Y-70580000D01*
X111076000Y-71580000D01*
X111066759Y-71602307D01*
X111064849Y-71610060D01*
X111061873Y-71614103D01*
X111059598Y-71619598D01*
X110359598Y-72319598D01*
X110337293Y-72328836D01*
X110330458Y-72332969D01*
X110325493Y-72333724D01*
X110320000Y-72336000D01*
X110310543Y-72336000D01*
X109335178Y-72336000D01*
X109320000Y-72336000D01*
X109297693Y-72326760D01*
X109289939Y-72324849D01*
X109285894Y-72321872D01*
X109280402Y-72319598D01*
X108580402Y-71619598D01*
X108571165Y-71597298D01*
X108567030Y-71590458D01*
X108566274Y-71585490D01*
X108564000Y-71580000D01*
X108564000Y-70580000D01*
X108573237Y-70557698D01*
X108575150Y-70549939D01*
X108578128Y-70545891D01*
X108580402Y-70540402D01*
X108587082Y-70533721D01*
X108587085Y-70533718D01*
X109269670Y-69851133D01*
X109269672Y-69851131D01*
X109280402Y-69840402D01*
X109302698Y-69831166D01*
X109309541Y-69827030D01*
X109314510Y-69826274D01*
X109320000Y-69824000D01*
X110320000Y-69824000D01*
X110342302Y-69833237D01*
G37*
G36*
X115342302Y-69833237D02*
G01*
X115350060Y-69835150D01*
X115354106Y-69838127D01*
X115359598Y-69840402D01*
X116059598Y-70540402D01*
X116068835Y-70562703D01*
X116072969Y-70569541D01*
X116073724Y-70574507D01*
X116076000Y-70580000D01*
X116076000Y-71580000D01*
X116066759Y-71602307D01*
X116064849Y-71610060D01*
X116061873Y-71614103D01*
X116059598Y-71619598D01*
X115359598Y-72319598D01*
X115337293Y-72328836D01*
X115330458Y-72332969D01*
X115325493Y-72333724D01*
X115320000Y-72336000D01*
X115310543Y-72336000D01*
X114335178Y-72336000D01*
X114320000Y-72336000D01*
X114297693Y-72326760D01*
X114289939Y-72324849D01*
X114285894Y-72321872D01*
X114280402Y-72319598D01*
X113580402Y-71619598D01*
X113571165Y-71597298D01*
X113567030Y-71590458D01*
X113566274Y-71585490D01*
X113564000Y-71580000D01*
X113564000Y-70580000D01*
X113573237Y-70557698D01*
X113575150Y-70549939D01*
X113578128Y-70545891D01*
X113580402Y-70540402D01*
X113587082Y-70533721D01*
X113587085Y-70533718D01*
X114269670Y-69851133D01*
X114269672Y-69851131D01*
X114280402Y-69840402D01*
X114302698Y-69831166D01*
X114309541Y-69827030D01*
X114314510Y-69826274D01*
X114320000Y-69824000D01*
X115320000Y-69824000D01*
X115342302Y-69833237D01*
G37*
G36*
X120342302Y-69833237D02*
G01*
X120350060Y-69835150D01*
X120354106Y-69838127D01*
X120359598Y-69840402D01*
X121059598Y-70540402D01*
X121068835Y-70562703D01*
X121072969Y-70569541D01*
X121073724Y-70574507D01*
X121076000Y-70580000D01*
X121076000Y-71580000D01*
X121066759Y-71602307D01*
X121064849Y-71610060D01*
X121061873Y-71614103D01*
X121059598Y-71619598D01*
X120359598Y-72319598D01*
X120337293Y-72328836D01*
X120330458Y-72332969D01*
X120325493Y-72333724D01*
X120320000Y-72336000D01*
X120310543Y-72336000D01*
X119335178Y-72336000D01*
X119320000Y-72336000D01*
X119297693Y-72326760D01*
X119289939Y-72324849D01*
X119285894Y-72321872D01*
X119280402Y-72319598D01*
X118580402Y-71619598D01*
X118571165Y-71597298D01*
X118567030Y-71590458D01*
X118566274Y-71585490D01*
X118564000Y-71580000D01*
X118564000Y-70580000D01*
X118573237Y-70557698D01*
X118575150Y-70549939D01*
X118578128Y-70545891D01*
X118580402Y-70540402D01*
X118587082Y-70533721D01*
X118587085Y-70533718D01*
X119269670Y-69851133D01*
X119269672Y-69851131D01*
X119280402Y-69840402D01*
X119302698Y-69831166D01*
X119309541Y-69827030D01*
X119314510Y-69826274D01*
X119320000Y-69824000D01*
X120320000Y-69824000D01*
X120342302Y-69833237D01*
G37*
G36*
X125342302Y-69833237D02*
G01*
X125350060Y-69835150D01*
X125354106Y-69838127D01*
X125359598Y-69840402D01*
X126059598Y-70540402D01*
X126068835Y-70562703D01*
X126072969Y-70569541D01*
X126073724Y-70574507D01*
X126076000Y-70580000D01*
X126076000Y-71580000D01*
X126066759Y-71602307D01*
X126064849Y-71610060D01*
X126061873Y-71614103D01*
X126059598Y-71619598D01*
X125359598Y-72319598D01*
X125337293Y-72328836D01*
X125330458Y-72332969D01*
X125325493Y-72333724D01*
X125320000Y-72336000D01*
X125310543Y-72336000D01*
X124335178Y-72336000D01*
X124320000Y-72336000D01*
X124297693Y-72326760D01*
X124289939Y-72324849D01*
X124285894Y-72321872D01*
X124280402Y-72319598D01*
X123580402Y-71619598D01*
X123571165Y-71597298D01*
X123567030Y-71590458D01*
X123566274Y-71585490D01*
X123564000Y-71580000D01*
X123564000Y-70580000D01*
X123573237Y-70557698D01*
X123575150Y-70549939D01*
X123578128Y-70545891D01*
X123580402Y-70540402D01*
X123587082Y-70533721D01*
X123587085Y-70533718D01*
X124269670Y-69851133D01*
X124269672Y-69851131D01*
X124280402Y-69840402D01*
X124302698Y-69831166D01*
X124309541Y-69827030D01*
X124314510Y-69826274D01*
X124320000Y-69824000D01*
X125320000Y-69824000D01*
X125342302Y-69833237D01*
G37*
G36*
X130342302Y-69833237D02*
G01*
X130350060Y-69835150D01*
X130354106Y-69838127D01*
X130359598Y-69840402D01*
X131059598Y-70540402D01*
X131068835Y-70562703D01*
X131072969Y-70569541D01*
X131073724Y-70574507D01*
X131076000Y-70580000D01*
X131076000Y-71580000D01*
X131066759Y-71602307D01*
X131064849Y-71610060D01*
X131061873Y-71614103D01*
X131059598Y-71619598D01*
X130359598Y-72319598D01*
X130337293Y-72328836D01*
X130330458Y-72332969D01*
X130325493Y-72333724D01*
X130320000Y-72336000D01*
X130310543Y-72336000D01*
X129335178Y-72336000D01*
X129320000Y-72336000D01*
X129297693Y-72326760D01*
X129289939Y-72324849D01*
X129285894Y-72321872D01*
X129280402Y-72319598D01*
X128580402Y-71619598D01*
X128571165Y-71597298D01*
X128567030Y-71590458D01*
X128566274Y-71585490D01*
X128564000Y-71580000D01*
X128564000Y-70580000D01*
X128573237Y-70557698D01*
X128575150Y-70549939D01*
X128578128Y-70545891D01*
X128580402Y-70540402D01*
X128587082Y-70533721D01*
X128587085Y-70533718D01*
X129269670Y-69851133D01*
X129269672Y-69851131D01*
X129280402Y-69840402D01*
X129302698Y-69831166D01*
X129309541Y-69827030D01*
X129314510Y-69826274D01*
X129320000Y-69824000D01*
X130320000Y-69824000D01*
X130342302Y-69833237D01*
G37*
G36*
X135342302Y-69833237D02*
G01*
X135350060Y-69835150D01*
X135354106Y-69838127D01*
X135359598Y-69840402D01*
X136059598Y-70540402D01*
X136068835Y-70562703D01*
X136072969Y-70569541D01*
X136073724Y-70574507D01*
X136076000Y-70580000D01*
X136076000Y-71580000D01*
X136066759Y-71602307D01*
X136064849Y-71610060D01*
X136061873Y-71614103D01*
X136059598Y-71619598D01*
X135359598Y-72319598D01*
X135337293Y-72328836D01*
X135330458Y-72332969D01*
X135325493Y-72333724D01*
X135320000Y-72336000D01*
X135310543Y-72336000D01*
X134335178Y-72336000D01*
X134320000Y-72336000D01*
X134297693Y-72326760D01*
X134289939Y-72324849D01*
X134285894Y-72321872D01*
X134280402Y-72319598D01*
X133580402Y-71619598D01*
X133571165Y-71597298D01*
X133567030Y-71590458D01*
X133566274Y-71585490D01*
X133564000Y-71580000D01*
X133564000Y-70580000D01*
X133573237Y-70557698D01*
X133575150Y-70549939D01*
X133578128Y-70545891D01*
X133580402Y-70540402D01*
X133587082Y-70533721D01*
X133587085Y-70533718D01*
X134269670Y-69851133D01*
X134269672Y-69851131D01*
X134280402Y-69840402D01*
X134302698Y-69831166D01*
X134309541Y-69827030D01*
X134314510Y-69826274D01*
X134320000Y-69824000D01*
X135320000Y-69824000D01*
X135342302Y-69833237D01*
G37*
G36*
X140342302Y-69833237D02*
G01*
X140350060Y-69835150D01*
X140354106Y-69838127D01*
X140359598Y-69840402D01*
X141059598Y-70540402D01*
X141068835Y-70562703D01*
X141072969Y-70569541D01*
X141073724Y-70574507D01*
X141076000Y-70580000D01*
X141076000Y-71580000D01*
X141066759Y-71602307D01*
X141064849Y-71610060D01*
X141061873Y-71614103D01*
X141059598Y-71619598D01*
X140359598Y-72319598D01*
X140337293Y-72328836D01*
X140330458Y-72332969D01*
X140325493Y-72333724D01*
X140320000Y-72336000D01*
X140310543Y-72336000D01*
X139335178Y-72336000D01*
X139320000Y-72336000D01*
X139297693Y-72326760D01*
X139289939Y-72324849D01*
X139285894Y-72321872D01*
X139280402Y-72319598D01*
X138580402Y-71619598D01*
X138571165Y-71597298D01*
X138567030Y-71590458D01*
X138566274Y-71585490D01*
X138564000Y-71580000D01*
X138564000Y-70580000D01*
X138573237Y-70557698D01*
X138575150Y-70549939D01*
X138578128Y-70545891D01*
X138580402Y-70540402D01*
X138587082Y-70533721D01*
X138587085Y-70533718D01*
X139269670Y-69851133D01*
X139269672Y-69851131D01*
X139280402Y-69840402D01*
X139302698Y-69831166D01*
X139309541Y-69827030D01*
X139314510Y-69826274D01*
X139320000Y-69824000D01*
X140320000Y-69824000D01*
X140342302Y-69833237D01*
G37*
G36*
X145342302Y-69833237D02*
G01*
X145350060Y-69835150D01*
X145354106Y-69838127D01*
X145359598Y-69840402D01*
X146059598Y-70540402D01*
X146068835Y-70562703D01*
X146072969Y-70569541D01*
X146073724Y-70574507D01*
X146076000Y-70580000D01*
X146076000Y-71580000D01*
X146066759Y-71602307D01*
X146064849Y-71610060D01*
X146061873Y-71614103D01*
X146059598Y-71619598D01*
X145359598Y-72319598D01*
X145337293Y-72328836D01*
X145330458Y-72332969D01*
X145325493Y-72333724D01*
X145320000Y-72336000D01*
X145310543Y-72336000D01*
X144335178Y-72336000D01*
X144320000Y-72336000D01*
X144297693Y-72326760D01*
X144289939Y-72324849D01*
X144285894Y-72321872D01*
X144280402Y-72319598D01*
X143580402Y-71619598D01*
X143571165Y-71597298D01*
X143567030Y-71590458D01*
X143566274Y-71585490D01*
X143564000Y-71580000D01*
X143564000Y-70580000D01*
X143573237Y-70557698D01*
X143575150Y-70549939D01*
X143578128Y-70545891D01*
X143580402Y-70540402D01*
X143587082Y-70533721D01*
X143587085Y-70533718D01*
X144269670Y-69851133D01*
X144269672Y-69851131D01*
X144280402Y-69840402D01*
X144302698Y-69831166D01*
X144309541Y-69827030D01*
X144314510Y-69826274D01*
X144320000Y-69824000D01*
X145320000Y-69824000D01*
X145342302Y-69833237D01*
G37*
G36*
X150342302Y-69833237D02*
G01*
X150350060Y-69835150D01*
X150354106Y-69838127D01*
X150359598Y-69840402D01*
X151059598Y-70540402D01*
X151068835Y-70562703D01*
X151072969Y-70569541D01*
X151073724Y-70574507D01*
X151076000Y-70580000D01*
X151076000Y-71580000D01*
X151066759Y-71602307D01*
X151064849Y-71610060D01*
X151061873Y-71614103D01*
X151059598Y-71619598D01*
X150359598Y-72319598D01*
X150337293Y-72328836D01*
X150330458Y-72332969D01*
X150325493Y-72333724D01*
X150320000Y-72336000D01*
X150310543Y-72336000D01*
X149335178Y-72336000D01*
X149320000Y-72336000D01*
X149297693Y-72326760D01*
X149289939Y-72324849D01*
X149285894Y-72321872D01*
X149280402Y-72319598D01*
X148580402Y-71619598D01*
X148571165Y-71597298D01*
X148567030Y-71590458D01*
X148566274Y-71585490D01*
X148564000Y-71580000D01*
X148564000Y-70580000D01*
X148573237Y-70557698D01*
X148575150Y-70549939D01*
X148578128Y-70545891D01*
X148580402Y-70540402D01*
X148587082Y-70533721D01*
X148587085Y-70533718D01*
X149269670Y-69851133D01*
X149269672Y-69851131D01*
X149280402Y-69840402D01*
X149302698Y-69831166D01*
X149309541Y-69827030D01*
X149314510Y-69826274D01*
X149320000Y-69824000D01*
X150320000Y-69824000D01*
X150342302Y-69833237D01*
G37*
G36*
X155342302Y-69833237D02*
G01*
X155350060Y-69835150D01*
X155354106Y-69838127D01*
X155359598Y-69840402D01*
X156059598Y-70540402D01*
X156068835Y-70562703D01*
X156072969Y-70569541D01*
X156073724Y-70574507D01*
X156076000Y-70580000D01*
X156076000Y-71580000D01*
X156066759Y-71602307D01*
X156064849Y-71610060D01*
X156061873Y-71614103D01*
X156059598Y-71619598D01*
X155359598Y-72319598D01*
X155337293Y-72328836D01*
X155330458Y-72332969D01*
X155325493Y-72333724D01*
X155320000Y-72336000D01*
X155310543Y-72336000D01*
X154335178Y-72336000D01*
X154320000Y-72336000D01*
X154297693Y-72326760D01*
X154289939Y-72324849D01*
X154285894Y-72321872D01*
X154280402Y-72319598D01*
X153580402Y-71619598D01*
X153571165Y-71597298D01*
X153567030Y-71590458D01*
X153566274Y-71585490D01*
X153564000Y-71580000D01*
X153564000Y-70580000D01*
X153573237Y-70557698D01*
X153575150Y-70549939D01*
X153578128Y-70545891D01*
X153580402Y-70540402D01*
X153587082Y-70533721D01*
X153587085Y-70533718D01*
X154269670Y-69851133D01*
X154269672Y-69851131D01*
X154280402Y-69840402D01*
X154302698Y-69831166D01*
X154309541Y-69827030D01*
X154314510Y-69826274D01*
X154320000Y-69824000D01*
X155320000Y-69824000D01*
X155342302Y-69833237D01*
G37*
G36*
X160342302Y-69833237D02*
G01*
X160350060Y-69835150D01*
X160354106Y-69838127D01*
X160359598Y-69840402D01*
X161059598Y-70540402D01*
X161068835Y-70562703D01*
X161072969Y-70569541D01*
X161073724Y-70574507D01*
X161076000Y-70580000D01*
X161076000Y-71580000D01*
X161066759Y-71602307D01*
X161064849Y-71610060D01*
X161061873Y-71614103D01*
X161059598Y-71619598D01*
X160359598Y-72319598D01*
X160337293Y-72328836D01*
X160330458Y-72332969D01*
X160325493Y-72333724D01*
X160320000Y-72336000D01*
X160310543Y-72336000D01*
X159335178Y-72336000D01*
X159320000Y-72336000D01*
X159297693Y-72326760D01*
X159289939Y-72324849D01*
X159285894Y-72321872D01*
X159280402Y-72319598D01*
X158580402Y-71619598D01*
X158571165Y-71597298D01*
X158567030Y-71590458D01*
X158566274Y-71585490D01*
X158564000Y-71580000D01*
X158564000Y-70580000D01*
X158573237Y-70557698D01*
X158575150Y-70549939D01*
X158578128Y-70545891D01*
X158580402Y-70540402D01*
X158587082Y-70533721D01*
X158587085Y-70533718D01*
X159269670Y-69851133D01*
X159269672Y-69851131D01*
X159280402Y-69840402D01*
X159302698Y-69831166D01*
X159309541Y-69827030D01*
X159314510Y-69826274D01*
X159320000Y-69824000D01*
X160320000Y-69824000D01*
X160342302Y-69833237D01*
G37*
G36*
X165342302Y-69833237D02*
G01*
X165350060Y-69835150D01*
X165354106Y-69838127D01*
X165359598Y-69840402D01*
X166059598Y-70540402D01*
X166068835Y-70562703D01*
X166072969Y-70569541D01*
X166073724Y-70574507D01*
X166076000Y-70580000D01*
X166076000Y-71580000D01*
X166066759Y-71602307D01*
X166064849Y-71610060D01*
X166061873Y-71614103D01*
X166059598Y-71619598D01*
X165359598Y-72319598D01*
X165337293Y-72328836D01*
X165330458Y-72332969D01*
X165325493Y-72333724D01*
X165320000Y-72336000D01*
X165310543Y-72336000D01*
X164335178Y-72336000D01*
X164320000Y-72336000D01*
X164297693Y-72326760D01*
X164289939Y-72324849D01*
X164285894Y-72321872D01*
X164280402Y-72319598D01*
X163580402Y-71619598D01*
X163571165Y-71597298D01*
X163567030Y-71590458D01*
X163566274Y-71585490D01*
X163564000Y-71580000D01*
X163564000Y-70580000D01*
X163573237Y-70557698D01*
X163575150Y-70549939D01*
X163578128Y-70545891D01*
X163580402Y-70540402D01*
X163587082Y-70533721D01*
X163587085Y-70533718D01*
X164269670Y-69851133D01*
X164269672Y-69851131D01*
X164280402Y-69840402D01*
X164302698Y-69831166D01*
X164309541Y-69827030D01*
X164314510Y-69826274D01*
X164320000Y-69824000D01*
X165320000Y-69824000D01*
X165342302Y-69833237D01*
G37*
G36*
X170342302Y-69833237D02*
G01*
X170350060Y-69835150D01*
X170354106Y-69838127D01*
X170359598Y-69840402D01*
X171059598Y-70540402D01*
X171068835Y-70562703D01*
X171072969Y-70569541D01*
X171073724Y-70574507D01*
X171076000Y-70580000D01*
X171076000Y-71580000D01*
X171066759Y-71602307D01*
X171064849Y-71610060D01*
X171061873Y-71614103D01*
X171059598Y-71619598D01*
X170359598Y-72319598D01*
X170337293Y-72328836D01*
X170330458Y-72332969D01*
X170325493Y-72333724D01*
X170320000Y-72336000D01*
X170310543Y-72336000D01*
X169335178Y-72336000D01*
X169320000Y-72336000D01*
X169297693Y-72326760D01*
X169289939Y-72324849D01*
X169285894Y-72321872D01*
X169280402Y-72319598D01*
X168580402Y-71619598D01*
X168571165Y-71597298D01*
X168567030Y-71590458D01*
X168566274Y-71585490D01*
X168564000Y-71580000D01*
X168564000Y-70580000D01*
X168573237Y-70557698D01*
X168575150Y-70549939D01*
X168578128Y-70545891D01*
X168580402Y-70540402D01*
X168587082Y-70533721D01*
X168587085Y-70533718D01*
X169269670Y-69851133D01*
X169269672Y-69851131D01*
X169280402Y-69840402D01*
X169302698Y-69831166D01*
X169309541Y-69827030D01*
X169314510Y-69826274D01*
X169320000Y-69824000D01*
X170320000Y-69824000D01*
X170342302Y-69833237D01*
G37*
G36*
X175462302Y-69833237D02*
G01*
X175470060Y-69835150D01*
X175474106Y-69838127D01*
X175479598Y-69840402D01*
X176179598Y-70540402D01*
X176188835Y-70562703D01*
X176192969Y-70569541D01*
X176193724Y-70574507D01*
X176196000Y-70580000D01*
X176196000Y-71580000D01*
X176186759Y-71602307D01*
X176184849Y-71610060D01*
X176181873Y-71614103D01*
X176179598Y-71619598D01*
X175479598Y-72319598D01*
X175457293Y-72328836D01*
X175450458Y-72332969D01*
X175445493Y-72333724D01*
X175440000Y-72336000D01*
X175430543Y-72336000D01*
X174455178Y-72336000D01*
X174440000Y-72336000D01*
X174417693Y-72326760D01*
X174409939Y-72324849D01*
X174405894Y-72321872D01*
X174400402Y-72319598D01*
X173700402Y-71619598D01*
X173691165Y-71597298D01*
X173687030Y-71590458D01*
X173686274Y-71585490D01*
X173684000Y-71580000D01*
X173684000Y-70580000D01*
X173693237Y-70557698D01*
X173695150Y-70549939D01*
X173698128Y-70545891D01*
X173700402Y-70540402D01*
X173707082Y-70533721D01*
X173707085Y-70533718D01*
X174389670Y-69851133D01*
X174389672Y-69851131D01*
X174400402Y-69840402D01*
X174422698Y-69831166D01*
X174429541Y-69827030D01*
X174434510Y-69826274D01*
X174440000Y-69824000D01*
X175440000Y-69824000D01*
X175462302Y-69833237D01*
G37*
G36*
X102842302Y-67333237D02*
G01*
X102850060Y-67335150D01*
X102854106Y-67338127D01*
X102859598Y-67340402D01*
X103559598Y-68040402D01*
X103568835Y-68062703D01*
X103572969Y-68069541D01*
X103573724Y-68074507D01*
X103576000Y-68080000D01*
X103576000Y-69080000D01*
X103566759Y-69102307D01*
X103564849Y-69110060D01*
X103561873Y-69114103D01*
X103559598Y-69119598D01*
X102859598Y-69819598D01*
X102837293Y-69828836D01*
X102830458Y-69832969D01*
X102825493Y-69833724D01*
X102820000Y-69836000D01*
X102810543Y-69836000D01*
X101835178Y-69836000D01*
X101820000Y-69836000D01*
X101797693Y-69826760D01*
X101789939Y-69824849D01*
X101785894Y-69821872D01*
X101780402Y-69819598D01*
X101080402Y-69119598D01*
X101071165Y-69097298D01*
X101067030Y-69090458D01*
X101066274Y-69085490D01*
X101064000Y-69080000D01*
X101064000Y-68080000D01*
X101073237Y-68057698D01*
X101075150Y-68049939D01*
X101078128Y-68045891D01*
X101080402Y-68040402D01*
X101087082Y-68033721D01*
X101087085Y-68033718D01*
X101769670Y-67351133D01*
X101769672Y-67351131D01*
X101780402Y-67340402D01*
X101802698Y-67331166D01*
X101809541Y-67327030D01*
X101814510Y-67326274D01*
X101820000Y-67324000D01*
X102820000Y-67324000D01*
X102842302Y-67333237D01*
G37*
G36*
X107842302Y-67333237D02*
G01*
X107850060Y-67335150D01*
X107854106Y-67338127D01*
X107859598Y-67340402D01*
X108559598Y-68040402D01*
X108568835Y-68062703D01*
X108572969Y-68069541D01*
X108573724Y-68074507D01*
X108576000Y-68080000D01*
X108576000Y-69080000D01*
X108566759Y-69102307D01*
X108564849Y-69110060D01*
X108561873Y-69114103D01*
X108559598Y-69119598D01*
X107859598Y-69819598D01*
X107837293Y-69828836D01*
X107830458Y-69832969D01*
X107825493Y-69833724D01*
X107820000Y-69836000D01*
X107810543Y-69836000D01*
X106835178Y-69836000D01*
X106820000Y-69836000D01*
X106797693Y-69826760D01*
X106789939Y-69824849D01*
X106785894Y-69821872D01*
X106780402Y-69819598D01*
X106080402Y-69119598D01*
X106071165Y-69097298D01*
X106067030Y-69090458D01*
X106066274Y-69085490D01*
X106064000Y-69080000D01*
X106064000Y-68080000D01*
X106073237Y-68057698D01*
X106075150Y-68049939D01*
X106078128Y-68045891D01*
X106080402Y-68040402D01*
X106087082Y-68033721D01*
X106087085Y-68033718D01*
X106769670Y-67351133D01*
X106769672Y-67351131D01*
X106780402Y-67340402D01*
X106802698Y-67331166D01*
X106809541Y-67327030D01*
X106814510Y-67326274D01*
X106820000Y-67324000D01*
X107820000Y-67324000D01*
X107842302Y-67333237D01*
G37*
G36*
X112842302Y-67333237D02*
G01*
X112850060Y-67335150D01*
X112854106Y-67338127D01*
X112859598Y-67340402D01*
X113559598Y-68040402D01*
X113568835Y-68062703D01*
X113572969Y-68069541D01*
X113573724Y-68074507D01*
X113576000Y-68080000D01*
X113576000Y-69080000D01*
X113566759Y-69102307D01*
X113564849Y-69110060D01*
X113561873Y-69114103D01*
X113559598Y-69119598D01*
X112859598Y-69819598D01*
X112837293Y-69828836D01*
X112830458Y-69832969D01*
X112825493Y-69833724D01*
X112820000Y-69836000D01*
X112810543Y-69836000D01*
X111835178Y-69836000D01*
X111820000Y-69836000D01*
X111797693Y-69826760D01*
X111789939Y-69824849D01*
X111785894Y-69821872D01*
X111780402Y-69819598D01*
X111080402Y-69119598D01*
X111071165Y-69097298D01*
X111067030Y-69090458D01*
X111066274Y-69085490D01*
X111064000Y-69080000D01*
X111064000Y-68080000D01*
X111073237Y-68057698D01*
X111075150Y-68049939D01*
X111078128Y-68045891D01*
X111080402Y-68040402D01*
X111087082Y-68033721D01*
X111087085Y-68033718D01*
X111769670Y-67351133D01*
X111769672Y-67351131D01*
X111780402Y-67340402D01*
X111802698Y-67331166D01*
X111809541Y-67327030D01*
X111814510Y-67326274D01*
X111820000Y-67324000D01*
X112820000Y-67324000D01*
X112842302Y-67333237D01*
G37*
G36*
X117842302Y-67333237D02*
G01*
X117850060Y-67335150D01*
X117854106Y-67338127D01*
X117859598Y-67340402D01*
X118559598Y-68040402D01*
X118568835Y-68062703D01*
X118572969Y-68069541D01*
X118573724Y-68074507D01*
X118576000Y-68080000D01*
X118576000Y-69080000D01*
X118566759Y-69102307D01*
X118564849Y-69110060D01*
X118561873Y-69114103D01*
X118559598Y-69119598D01*
X117859598Y-69819598D01*
X117837293Y-69828836D01*
X117830458Y-69832969D01*
X117825493Y-69833724D01*
X117820000Y-69836000D01*
X117810543Y-69836000D01*
X116835178Y-69836000D01*
X116820000Y-69836000D01*
X116797693Y-69826760D01*
X116789939Y-69824849D01*
X116785894Y-69821872D01*
X116780402Y-69819598D01*
X116080402Y-69119598D01*
X116071165Y-69097298D01*
X116067030Y-69090458D01*
X116066274Y-69085490D01*
X116064000Y-69080000D01*
X116064000Y-68080000D01*
X116073237Y-68057698D01*
X116075150Y-68049939D01*
X116078128Y-68045891D01*
X116080402Y-68040402D01*
X116087082Y-68033721D01*
X116087085Y-68033718D01*
X116769670Y-67351133D01*
X116769672Y-67351131D01*
X116780402Y-67340402D01*
X116802698Y-67331166D01*
X116809541Y-67327030D01*
X116814510Y-67326274D01*
X116820000Y-67324000D01*
X117820000Y-67324000D01*
X117842302Y-67333237D01*
G37*
G36*
X122842302Y-67333237D02*
G01*
X122850060Y-67335150D01*
X122854106Y-67338127D01*
X122859598Y-67340402D01*
X123559598Y-68040402D01*
X123568835Y-68062703D01*
X123572969Y-68069541D01*
X123573724Y-68074507D01*
X123576000Y-68080000D01*
X123576000Y-69080000D01*
X123566759Y-69102307D01*
X123564849Y-69110060D01*
X123561873Y-69114103D01*
X123559598Y-69119598D01*
X122859598Y-69819598D01*
X122837293Y-69828836D01*
X122830458Y-69832969D01*
X122825493Y-69833724D01*
X122820000Y-69836000D01*
X122810543Y-69836000D01*
X121835178Y-69836000D01*
X121820000Y-69836000D01*
X121797693Y-69826760D01*
X121789939Y-69824849D01*
X121785894Y-69821872D01*
X121780402Y-69819598D01*
X121080402Y-69119598D01*
X121071165Y-69097298D01*
X121067030Y-69090458D01*
X121066274Y-69085490D01*
X121064000Y-69080000D01*
X121064000Y-68080000D01*
X121073237Y-68057698D01*
X121075150Y-68049939D01*
X121078128Y-68045891D01*
X121080402Y-68040402D01*
X121087082Y-68033721D01*
X121087085Y-68033718D01*
X121769670Y-67351133D01*
X121769672Y-67351131D01*
X121780402Y-67340402D01*
X121802698Y-67331166D01*
X121809541Y-67327030D01*
X121814510Y-67326274D01*
X121820000Y-67324000D01*
X122820000Y-67324000D01*
X122842302Y-67333237D01*
G37*
G36*
X127842302Y-67333237D02*
G01*
X127850060Y-67335150D01*
X127854106Y-67338127D01*
X127859598Y-67340402D01*
X128559598Y-68040402D01*
X128568835Y-68062703D01*
X128572969Y-68069541D01*
X128573724Y-68074507D01*
X128576000Y-68080000D01*
X128576000Y-69080000D01*
X128566759Y-69102307D01*
X128564849Y-69110060D01*
X128561873Y-69114103D01*
X128559598Y-69119598D01*
X127859598Y-69819598D01*
X127837293Y-69828836D01*
X127830458Y-69832969D01*
X127825493Y-69833724D01*
X127820000Y-69836000D01*
X127810543Y-69836000D01*
X126835178Y-69836000D01*
X126820000Y-69836000D01*
X126797693Y-69826760D01*
X126789939Y-69824849D01*
X126785894Y-69821872D01*
X126780402Y-69819598D01*
X126080402Y-69119598D01*
X126071165Y-69097298D01*
X126067030Y-69090458D01*
X126066274Y-69085490D01*
X126064000Y-69080000D01*
X126064000Y-68080000D01*
X126073237Y-68057698D01*
X126075150Y-68049939D01*
X126078128Y-68045891D01*
X126080402Y-68040402D01*
X126087082Y-68033721D01*
X126087085Y-68033718D01*
X126769670Y-67351133D01*
X126769672Y-67351131D01*
X126780402Y-67340402D01*
X126802698Y-67331166D01*
X126809541Y-67327030D01*
X126814510Y-67326274D01*
X126820000Y-67324000D01*
X127820000Y-67324000D01*
X127842302Y-67333237D01*
G37*
G36*
X132842302Y-67333237D02*
G01*
X132850060Y-67335150D01*
X132854106Y-67338127D01*
X132859598Y-67340402D01*
X133559598Y-68040402D01*
X133568835Y-68062703D01*
X133572969Y-68069541D01*
X133573724Y-68074507D01*
X133576000Y-68080000D01*
X133576000Y-69080000D01*
X133566759Y-69102307D01*
X133564849Y-69110060D01*
X133561873Y-69114103D01*
X133559598Y-69119598D01*
X132859598Y-69819598D01*
X132837293Y-69828836D01*
X132830458Y-69832969D01*
X132825493Y-69833724D01*
X132820000Y-69836000D01*
X132810543Y-69836000D01*
X131835178Y-69836000D01*
X131820000Y-69836000D01*
X131797693Y-69826760D01*
X131789939Y-69824849D01*
X131785894Y-69821872D01*
X131780402Y-69819598D01*
X131080402Y-69119598D01*
X131071165Y-69097298D01*
X131067030Y-69090458D01*
X131066274Y-69085490D01*
X131064000Y-69080000D01*
X131064000Y-68080000D01*
X131073237Y-68057698D01*
X131075150Y-68049939D01*
X131078128Y-68045891D01*
X131080402Y-68040402D01*
X131087082Y-68033721D01*
X131087085Y-68033718D01*
X131769670Y-67351133D01*
X131769672Y-67351131D01*
X131780402Y-67340402D01*
X131802698Y-67331166D01*
X131809541Y-67327030D01*
X131814510Y-67326274D01*
X131820000Y-67324000D01*
X132820000Y-67324000D01*
X132842302Y-67333237D01*
G37*
G36*
X137842302Y-67333237D02*
G01*
X137850060Y-67335150D01*
X137854106Y-67338127D01*
X137859598Y-67340402D01*
X138559598Y-68040402D01*
X138568835Y-68062703D01*
X138572969Y-68069541D01*
X138573724Y-68074507D01*
X138576000Y-68080000D01*
X138576000Y-69080000D01*
X138566759Y-69102307D01*
X138564849Y-69110060D01*
X138561873Y-69114103D01*
X138559598Y-69119598D01*
X137859598Y-69819598D01*
X137837293Y-69828836D01*
X137830458Y-69832969D01*
X137825493Y-69833724D01*
X137820000Y-69836000D01*
X137810543Y-69836000D01*
X136835178Y-69836000D01*
X136820000Y-69836000D01*
X136797693Y-69826760D01*
X136789939Y-69824849D01*
X136785894Y-69821872D01*
X136780402Y-69819598D01*
X136080402Y-69119598D01*
X136071165Y-69097298D01*
X136067030Y-69090458D01*
X136066274Y-69085490D01*
X136064000Y-69080000D01*
X136064000Y-68080000D01*
X136073237Y-68057698D01*
X136075150Y-68049939D01*
X136078128Y-68045891D01*
X136080402Y-68040402D01*
X136087082Y-68033721D01*
X136087085Y-68033718D01*
X136769670Y-67351133D01*
X136769672Y-67351131D01*
X136780402Y-67340402D01*
X136802698Y-67331166D01*
X136809541Y-67327030D01*
X136814510Y-67326274D01*
X136820000Y-67324000D01*
X137820000Y-67324000D01*
X137842302Y-67333237D01*
G37*
G36*
X142842302Y-67333237D02*
G01*
X142850060Y-67335150D01*
X142854106Y-67338127D01*
X142859598Y-67340402D01*
X143559598Y-68040402D01*
X143568835Y-68062703D01*
X143572969Y-68069541D01*
X143573724Y-68074507D01*
X143576000Y-68080000D01*
X143576000Y-69080000D01*
X143566759Y-69102307D01*
X143564849Y-69110060D01*
X143561873Y-69114103D01*
X143559598Y-69119598D01*
X142859598Y-69819598D01*
X142837293Y-69828836D01*
X142830458Y-69832969D01*
X142825493Y-69833724D01*
X142820000Y-69836000D01*
X142810543Y-69836000D01*
X141835178Y-69836000D01*
X141820000Y-69836000D01*
X141797693Y-69826760D01*
X141789939Y-69824849D01*
X141785894Y-69821872D01*
X141780402Y-69819598D01*
X141080402Y-69119598D01*
X141071165Y-69097298D01*
X141067030Y-69090458D01*
X141066274Y-69085490D01*
X141064000Y-69080000D01*
X141064000Y-68080000D01*
X141073237Y-68057698D01*
X141075150Y-68049939D01*
X141078128Y-68045891D01*
X141080402Y-68040402D01*
X141087082Y-68033721D01*
X141087085Y-68033718D01*
X141769670Y-67351133D01*
X141769672Y-67351131D01*
X141780402Y-67340402D01*
X141802698Y-67331166D01*
X141809541Y-67327030D01*
X141814510Y-67326274D01*
X141820000Y-67324000D01*
X142820000Y-67324000D01*
X142842302Y-67333237D01*
G37*
G36*
X147842302Y-67333237D02*
G01*
X147850060Y-67335150D01*
X147854106Y-67338127D01*
X147859598Y-67340402D01*
X148559598Y-68040402D01*
X148568835Y-68062703D01*
X148572969Y-68069541D01*
X148573724Y-68074507D01*
X148576000Y-68080000D01*
X148576000Y-69080000D01*
X148566759Y-69102307D01*
X148564849Y-69110060D01*
X148561873Y-69114103D01*
X148559598Y-69119598D01*
X147859598Y-69819598D01*
X147837293Y-69828836D01*
X147830458Y-69832969D01*
X147825493Y-69833724D01*
X147820000Y-69836000D01*
X147810543Y-69836000D01*
X146835178Y-69836000D01*
X146820000Y-69836000D01*
X146797693Y-69826760D01*
X146789939Y-69824849D01*
X146785894Y-69821872D01*
X146780402Y-69819598D01*
X146080402Y-69119598D01*
X146071165Y-69097298D01*
X146067030Y-69090458D01*
X146066274Y-69085490D01*
X146064000Y-69080000D01*
X146064000Y-68080000D01*
X146073237Y-68057698D01*
X146075150Y-68049939D01*
X146078128Y-68045891D01*
X146080402Y-68040402D01*
X146087082Y-68033721D01*
X146087085Y-68033718D01*
X146769670Y-67351133D01*
X146769672Y-67351131D01*
X146780402Y-67340402D01*
X146802698Y-67331166D01*
X146809541Y-67327030D01*
X146814510Y-67326274D01*
X146820000Y-67324000D01*
X147820000Y-67324000D01*
X147842302Y-67333237D01*
G37*
G36*
X152842302Y-67333237D02*
G01*
X152850060Y-67335150D01*
X152854106Y-67338127D01*
X152859598Y-67340402D01*
X153559598Y-68040402D01*
X153568835Y-68062703D01*
X153572969Y-68069541D01*
X153573724Y-68074507D01*
X153576000Y-68080000D01*
X153576000Y-69080000D01*
X153566759Y-69102307D01*
X153564849Y-69110060D01*
X153561873Y-69114103D01*
X153559598Y-69119598D01*
X152859598Y-69819598D01*
X152837293Y-69828836D01*
X152830458Y-69832969D01*
X152825493Y-69833724D01*
X152820000Y-69836000D01*
X152810543Y-69836000D01*
X151835178Y-69836000D01*
X151820000Y-69836000D01*
X151797693Y-69826760D01*
X151789939Y-69824849D01*
X151785894Y-69821872D01*
X151780402Y-69819598D01*
X151080402Y-69119598D01*
X151071165Y-69097298D01*
X151067030Y-69090458D01*
X151066274Y-69085490D01*
X151064000Y-69080000D01*
X151064000Y-68080000D01*
X151073237Y-68057698D01*
X151075150Y-68049939D01*
X151078128Y-68045891D01*
X151080402Y-68040402D01*
X151087082Y-68033721D01*
X151087085Y-68033718D01*
X151769670Y-67351133D01*
X151769672Y-67351131D01*
X151780402Y-67340402D01*
X151802698Y-67331166D01*
X151809541Y-67327030D01*
X151814510Y-67326274D01*
X151820000Y-67324000D01*
X152820000Y-67324000D01*
X152842302Y-67333237D01*
G37*
G36*
X157842302Y-67333237D02*
G01*
X157850060Y-67335150D01*
X157854106Y-67338127D01*
X157859598Y-67340402D01*
X158559598Y-68040402D01*
X158568835Y-68062703D01*
X158572969Y-68069541D01*
X158573724Y-68074507D01*
X158576000Y-68080000D01*
X158576000Y-69080000D01*
X158566759Y-69102307D01*
X158564849Y-69110060D01*
X158561873Y-69114103D01*
X158559598Y-69119598D01*
X157859598Y-69819598D01*
X157837293Y-69828836D01*
X157830458Y-69832969D01*
X157825493Y-69833724D01*
X157820000Y-69836000D01*
X157810543Y-69836000D01*
X156835178Y-69836000D01*
X156820000Y-69836000D01*
X156797693Y-69826760D01*
X156789939Y-69824849D01*
X156785894Y-69821872D01*
X156780402Y-69819598D01*
X156080402Y-69119598D01*
X156071165Y-69097298D01*
X156067030Y-69090458D01*
X156066274Y-69085490D01*
X156064000Y-69080000D01*
X156064000Y-68080000D01*
X156073237Y-68057698D01*
X156075150Y-68049939D01*
X156078128Y-68045891D01*
X156080402Y-68040402D01*
X156087082Y-68033721D01*
X156087085Y-68033718D01*
X156769670Y-67351133D01*
X156769672Y-67351131D01*
X156780402Y-67340402D01*
X156802698Y-67331166D01*
X156809541Y-67327030D01*
X156814510Y-67326274D01*
X156820000Y-67324000D01*
X157820000Y-67324000D01*
X157842302Y-67333237D01*
G37*
G36*
X162762302Y-67333237D02*
G01*
X162770060Y-67335150D01*
X162774106Y-67338127D01*
X162779598Y-67340402D01*
X163479598Y-68040402D01*
X163488835Y-68062703D01*
X163492969Y-68069541D01*
X163493724Y-68074507D01*
X163496000Y-68080000D01*
X163496000Y-69080000D01*
X163486759Y-69102307D01*
X163484849Y-69110060D01*
X163481873Y-69114103D01*
X163479598Y-69119598D01*
X162779598Y-69819598D01*
X162757293Y-69828836D01*
X162750458Y-69832969D01*
X162745493Y-69833724D01*
X162740000Y-69836000D01*
X162730543Y-69836000D01*
X161755178Y-69836000D01*
X161740000Y-69836000D01*
X161717693Y-69826760D01*
X161709939Y-69824849D01*
X161705894Y-69821872D01*
X161700402Y-69819598D01*
X161000402Y-69119598D01*
X160991165Y-69097298D01*
X160987030Y-69090458D01*
X160986274Y-69085490D01*
X160984000Y-69080000D01*
X160984000Y-68080000D01*
X160993237Y-68057698D01*
X160995150Y-68049939D01*
X160998128Y-68045891D01*
X161000402Y-68040402D01*
X161007082Y-68033721D01*
X161007085Y-68033718D01*
X161689670Y-67351133D01*
X161689672Y-67351131D01*
X161700402Y-67340402D01*
X161722698Y-67331166D01*
X161729541Y-67327030D01*
X161734510Y-67326274D01*
X161740000Y-67324000D01*
X162740000Y-67324000D01*
X162762302Y-67333237D01*
G37*
G36*
X167842302Y-67333237D02*
G01*
X167850060Y-67335150D01*
X167854106Y-67338127D01*
X167859598Y-67340402D01*
X168559598Y-68040402D01*
X168568835Y-68062703D01*
X168572969Y-68069541D01*
X168573724Y-68074507D01*
X168576000Y-68080000D01*
X168576000Y-69080000D01*
X168566759Y-69102307D01*
X168564849Y-69110060D01*
X168561873Y-69114103D01*
X168559598Y-69119598D01*
X167859598Y-69819598D01*
X167837293Y-69828836D01*
X167830458Y-69832969D01*
X167825493Y-69833724D01*
X167820000Y-69836000D01*
X167810543Y-69836000D01*
X166835178Y-69836000D01*
X166820000Y-69836000D01*
X166797693Y-69826760D01*
X166789939Y-69824849D01*
X166785894Y-69821872D01*
X166780402Y-69819598D01*
X166080402Y-69119598D01*
X166071165Y-69097298D01*
X166067030Y-69090458D01*
X166066274Y-69085490D01*
X166064000Y-69080000D01*
X166064000Y-68080000D01*
X166073237Y-68057698D01*
X166075150Y-68049939D01*
X166078128Y-68045891D01*
X166080402Y-68040402D01*
X166087082Y-68033721D01*
X166087085Y-68033718D01*
X166769670Y-67351133D01*
X166769672Y-67351131D01*
X166780402Y-67340402D01*
X166802698Y-67331166D01*
X166809541Y-67327030D01*
X166814510Y-67326274D01*
X166820000Y-67324000D01*
X167820000Y-67324000D01*
X167842302Y-67333237D01*
G37*
G36*
X172842302Y-67333237D02*
G01*
X172850060Y-67335150D01*
X172854106Y-67338127D01*
X172859598Y-67340402D01*
X173559598Y-68040402D01*
X173568835Y-68062703D01*
X173572969Y-68069541D01*
X173573724Y-68074507D01*
X173576000Y-68080000D01*
X173576000Y-69080000D01*
X173566759Y-69102307D01*
X173564849Y-69110060D01*
X173561873Y-69114103D01*
X173559598Y-69119598D01*
X172859598Y-69819598D01*
X172837293Y-69828836D01*
X172830458Y-69832969D01*
X172825493Y-69833724D01*
X172820000Y-69836000D01*
X172810543Y-69836000D01*
X171835178Y-69836000D01*
X171820000Y-69836000D01*
X171797693Y-69826760D01*
X171789939Y-69824849D01*
X171785894Y-69821872D01*
X171780402Y-69819598D01*
X171080402Y-69119598D01*
X171071165Y-69097298D01*
X171067030Y-69090458D01*
X171066274Y-69085490D01*
X171064000Y-69080000D01*
X171064000Y-68080000D01*
X171073237Y-68057698D01*
X171075150Y-68049939D01*
X171078128Y-68045891D01*
X171080402Y-68040402D01*
X171087082Y-68033721D01*
X171087085Y-68033718D01*
X171769670Y-67351133D01*
X171769672Y-67351131D01*
X171780402Y-67340402D01*
X171802698Y-67331166D01*
X171809541Y-67327030D01*
X171814510Y-67326274D01*
X171820000Y-67324000D01*
X172820000Y-67324000D01*
X172842302Y-67333237D01*
G37*
G36*
X97142302Y-61953237D02*
G01*
X97150060Y-61955150D01*
X97154106Y-61958127D01*
X97159598Y-61960402D01*
X98059598Y-62860402D01*
X98068835Y-62882703D01*
X98072969Y-62889541D01*
X98073724Y-62894507D01*
X98076000Y-62900000D01*
X98076000Y-64100000D01*
X98066759Y-64122307D01*
X98064849Y-64130060D01*
X98061873Y-64134103D01*
X98059598Y-64139598D01*
X97159598Y-65039598D01*
X97137293Y-65048836D01*
X97130458Y-65052969D01*
X97125493Y-65053724D01*
X97120000Y-65056000D01*
X97110543Y-65056000D01*
X95935178Y-65056000D01*
X95920000Y-65056000D01*
X95897693Y-65046760D01*
X95889939Y-65044849D01*
X95885894Y-65041872D01*
X95880402Y-65039598D01*
X94980402Y-64139598D01*
X94971165Y-64117298D01*
X94967030Y-64110458D01*
X94966274Y-64105490D01*
X94964000Y-64100000D01*
X94964000Y-62900000D01*
X94973237Y-62877698D01*
X94975150Y-62869939D01*
X94978128Y-62865891D01*
X94980402Y-62860402D01*
X94987082Y-62853721D01*
X94987085Y-62853718D01*
X95869670Y-61971133D01*
X95869672Y-61971131D01*
X95880402Y-61960402D01*
X95902698Y-61951166D01*
X95909541Y-61947030D01*
X95914510Y-61946274D01*
X95920000Y-61944000D01*
X97120000Y-61944000D01*
X97142302Y-61953237D01*
G37*
G36*
X102222302Y-61953237D02*
G01*
X102230060Y-61955150D01*
X102234106Y-61958127D01*
X102239598Y-61960402D01*
X103139598Y-62860402D01*
X103148835Y-62882703D01*
X103152969Y-62889541D01*
X103153724Y-62894507D01*
X103156000Y-62900000D01*
X103156000Y-64100000D01*
X103146759Y-64122307D01*
X103144849Y-64130060D01*
X103141873Y-64134103D01*
X103139598Y-64139598D01*
X102239598Y-65039598D01*
X102217293Y-65048836D01*
X102210458Y-65052969D01*
X102205493Y-65053724D01*
X102200000Y-65056000D01*
X102190543Y-65056000D01*
X101015178Y-65056000D01*
X101000000Y-65056000D01*
X100977693Y-65046760D01*
X100969939Y-65044849D01*
X100965894Y-65041872D01*
X100960402Y-65039598D01*
X100060402Y-64139598D01*
X100051165Y-64117298D01*
X100047030Y-64110458D01*
X100046274Y-64105490D01*
X100044000Y-64100000D01*
X100044000Y-62900000D01*
X100053237Y-62877698D01*
X100055150Y-62869939D01*
X100058128Y-62865891D01*
X100060402Y-62860402D01*
X100067082Y-62853721D01*
X100067085Y-62853718D01*
X100949670Y-61971133D01*
X100949672Y-61971131D01*
X100960402Y-61960402D01*
X100982698Y-61951166D01*
X100989541Y-61947030D01*
X100994510Y-61946274D01*
X101000000Y-61944000D01*
X102200000Y-61944000D01*
X102222302Y-61953237D01*
G37*
G36*
X132702302Y-61953237D02*
G01*
X132710060Y-61955150D01*
X132714106Y-61958127D01*
X132719598Y-61960402D01*
X133619598Y-62860402D01*
X133628835Y-62882703D01*
X133632969Y-62889541D01*
X133633724Y-62894507D01*
X133636000Y-62900000D01*
X133636000Y-64100000D01*
X133626759Y-64122307D01*
X133624849Y-64130060D01*
X133621873Y-64134103D01*
X133619598Y-64139598D01*
X132719598Y-65039598D01*
X132697293Y-65048836D01*
X132690458Y-65052969D01*
X132685493Y-65053724D01*
X132680000Y-65056000D01*
X132670543Y-65056000D01*
X131495178Y-65056000D01*
X131480000Y-65056000D01*
X131457693Y-65046760D01*
X131449939Y-65044849D01*
X131445894Y-65041872D01*
X131440402Y-65039598D01*
X130540402Y-64139598D01*
X130531165Y-64117298D01*
X130527030Y-64110458D01*
X130526274Y-64105490D01*
X130524000Y-64100000D01*
X130524000Y-62900000D01*
X130533237Y-62877698D01*
X130535150Y-62869939D01*
X130538128Y-62865891D01*
X130540402Y-62860402D01*
X130547082Y-62853721D01*
X130547085Y-62853718D01*
X131429670Y-61971133D01*
X131429672Y-61971131D01*
X131440402Y-61960402D01*
X131462698Y-61951166D01*
X131469541Y-61947030D01*
X131474510Y-61946274D01*
X131480000Y-61944000D01*
X132680000Y-61944000D01*
X132702302Y-61953237D01*
G37*
G36*
X168262302Y-61953237D02*
G01*
X168270060Y-61955150D01*
X168274106Y-61958127D01*
X168279598Y-61960402D01*
X169179598Y-62860402D01*
X169188835Y-62882703D01*
X169192969Y-62889541D01*
X169193724Y-62894507D01*
X169196000Y-62900000D01*
X169196000Y-64100000D01*
X169186759Y-64122307D01*
X169184849Y-64130060D01*
X169181873Y-64134103D01*
X169179598Y-64139598D01*
X168279598Y-65039598D01*
X168257293Y-65048836D01*
X168250458Y-65052969D01*
X168245493Y-65053724D01*
X168240000Y-65056000D01*
X168230543Y-65056000D01*
X167055178Y-65056000D01*
X167040000Y-65056000D01*
X167017693Y-65046760D01*
X167009939Y-65044849D01*
X167005894Y-65041872D01*
X167000402Y-65039598D01*
X166100402Y-64139598D01*
X166091165Y-64117298D01*
X166087030Y-64110458D01*
X166086274Y-64105490D01*
X166084000Y-64100000D01*
X166084000Y-62900000D01*
X166093237Y-62877698D01*
X166095150Y-62869939D01*
X166098128Y-62865891D01*
X166100402Y-62860402D01*
X166107082Y-62853721D01*
X166107085Y-62853718D01*
X166989670Y-61971133D01*
X166989672Y-61971131D01*
X167000402Y-61960402D01*
X167022698Y-61951166D01*
X167029541Y-61947030D01*
X167034510Y-61946274D01*
X167040000Y-61944000D01*
X168240000Y-61944000D01*
X168262302Y-61953237D01*
G37*
G36*
X173342302Y-61953237D02*
G01*
X173350060Y-61955150D01*
X173354106Y-61958127D01*
X173359598Y-61960402D01*
X174259598Y-62860402D01*
X174268835Y-62882703D01*
X174272969Y-62889541D01*
X174273724Y-62894507D01*
X174276000Y-62900000D01*
X174276000Y-64100000D01*
X174266759Y-64122307D01*
X174264849Y-64130060D01*
X174261873Y-64134103D01*
X174259598Y-64139598D01*
X173359598Y-65039598D01*
X173337293Y-65048836D01*
X173330458Y-65052969D01*
X173325493Y-65053724D01*
X173320000Y-65056000D01*
X173310543Y-65056000D01*
X172135178Y-65056000D01*
X172120000Y-65056000D01*
X172097693Y-65046760D01*
X172089939Y-65044849D01*
X172085894Y-65041872D01*
X172080402Y-65039598D01*
X171180402Y-64139598D01*
X171171165Y-64117298D01*
X171167030Y-64110458D01*
X171166274Y-64105490D01*
X171164000Y-64100000D01*
X171164000Y-62900000D01*
X171173237Y-62877698D01*
X171175150Y-62869939D01*
X171178128Y-62865891D01*
X171180402Y-62860402D01*
X171187082Y-62853721D01*
X171187085Y-62853718D01*
X172069670Y-61971133D01*
X172069672Y-61971131D01*
X172080402Y-61960402D01*
X172102698Y-61951166D01*
X172109541Y-61947030D01*
X172114510Y-61946274D01*
X172120000Y-61944000D01*
X173320000Y-61944000D01*
X173342302Y-61953237D01*
G37*
G36*
X160542302Y-62453237D02*
G01*
X160550060Y-62455150D01*
X160554106Y-62458127D01*
X160559598Y-62460402D01*
X160566282Y-62467086D01*
X160773348Y-62674151D01*
X160801820Y-62690210D01*
X160804300Y-62691237D01*
X160806285Y-62691726D01*
X160806991Y-62692351D01*
X160821598Y-62698402D01*
X160834332Y-62729145D01*
X160845291Y-62746095D01*
X161059598Y-62960402D01*
X161068835Y-62982703D01*
X161072969Y-62989541D01*
X161073724Y-62994507D01*
X161076000Y-63000000D01*
X161076000Y-64000000D01*
X161066759Y-64022307D01*
X161064849Y-64030060D01*
X161061873Y-64034103D01*
X161059598Y-64039598D01*
X161052911Y-64046285D01*
X160845847Y-64253349D01*
X160829790Y-64281819D01*
X160828757Y-64284312D01*
X160828271Y-64286287D01*
X160827649Y-64286988D01*
X160821598Y-64301598D01*
X160790854Y-64314332D01*
X160773905Y-64325291D01*
X160559598Y-64539598D01*
X160537293Y-64548836D01*
X160530458Y-64552969D01*
X160525493Y-64553724D01*
X160520000Y-64556000D01*
X160510543Y-64556000D01*
X159535178Y-64556000D01*
X159520000Y-64556000D01*
X159497693Y-64546760D01*
X159489939Y-64544849D01*
X159485894Y-64541873D01*
X159480402Y-64539598D01*
X159373718Y-64432914D01*
X159266650Y-64325847D01*
X159238180Y-64309790D01*
X159235688Y-64308758D01*
X159233712Y-64308271D01*
X159233009Y-64307648D01*
X159218402Y-64301598D01*
X159205669Y-64270858D01*
X159194707Y-64253904D01*
X158991133Y-64050329D01*
X158980402Y-64039598D01*
X158971165Y-64017298D01*
X158967030Y-64010458D01*
X158966274Y-64005490D01*
X158964000Y-64000000D01*
X158964000Y-63000000D01*
X158973237Y-62977698D01*
X158975150Y-62969939D01*
X158978128Y-62965891D01*
X158980402Y-62960402D01*
X158987082Y-62953721D01*
X158987088Y-62953714D01*
X159194151Y-62746651D01*
X159210210Y-62718179D01*
X159211237Y-62715699D01*
X159211726Y-62713715D01*
X159212351Y-62713008D01*
X159218402Y-62698402D01*
X159249137Y-62685670D01*
X159266095Y-62674707D01*
X159469667Y-62471135D01*
X159469672Y-62471131D01*
X159480402Y-62460402D01*
X159502698Y-62451166D01*
X159509541Y-62447030D01*
X159514510Y-62446274D01*
X159520000Y-62444000D01*
X160520000Y-62444000D01*
X160542302Y-62453237D01*
G37*
G36*
X163082302Y-62453237D02*
G01*
X163090060Y-62455150D01*
X163094106Y-62458127D01*
X163099598Y-62460402D01*
X163106282Y-62467086D01*
X163313348Y-62674151D01*
X163341820Y-62690210D01*
X163344300Y-62691237D01*
X163346285Y-62691726D01*
X163346991Y-62692351D01*
X163361598Y-62698402D01*
X163374332Y-62729145D01*
X163385291Y-62746095D01*
X163599598Y-62960402D01*
X163608835Y-62982703D01*
X163612969Y-62989541D01*
X163613724Y-62994507D01*
X163616000Y-63000000D01*
X163616000Y-64000000D01*
X163606759Y-64022307D01*
X163604849Y-64030060D01*
X163601873Y-64034103D01*
X163599598Y-64039598D01*
X163592911Y-64046285D01*
X163385847Y-64253349D01*
X163369790Y-64281819D01*
X163368757Y-64284312D01*
X163368271Y-64286287D01*
X163367649Y-64286988D01*
X163361598Y-64301598D01*
X163330854Y-64314332D01*
X163313905Y-64325291D01*
X163099598Y-64539598D01*
X163077293Y-64548836D01*
X163070458Y-64552969D01*
X163065493Y-64553724D01*
X163060000Y-64556000D01*
X163050543Y-64556000D01*
X162075178Y-64556000D01*
X162060000Y-64556000D01*
X162037693Y-64546760D01*
X162029939Y-64544849D01*
X162025894Y-64541873D01*
X162020402Y-64539598D01*
X161913718Y-64432914D01*
X161806650Y-64325847D01*
X161778180Y-64309790D01*
X161775688Y-64308758D01*
X161773712Y-64308271D01*
X161773009Y-64307648D01*
X161758402Y-64301598D01*
X161745669Y-64270858D01*
X161734707Y-64253904D01*
X161531133Y-64050329D01*
X161520402Y-64039598D01*
X161511165Y-64017298D01*
X161507030Y-64010458D01*
X161506274Y-64005490D01*
X161504000Y-64000000D01*
X161504000Y-63000000D01*
X161513237Y-62977698D01*
X161515150Y-62969939D01*
X161518128Y-62965891D01*
X161520402Y-62960402D01*
X161527082Y-62953721D01*
X161527088Y-62953714D01*
X161734151Y-62746651D01*
X161750210Y-62718179D01*
X161751237Y-62715699D01*
X161751726Y-62713715D01*
X161752351Y-62713008D01*
X161758402Y-62698402D01*
X161789137Y-62685670D01*
X161806095Y-62674707D01*
X162009667Y-62471135D01*
X162009672Y-62471131D01*
X162020402Y-62460402D01*
X162042698Y-62451166D01*
X162049541Y-62447030D01*
X162054510Y-62446274D01*
X162060000Y-62444000D01*
X163060000Y-62444000D01*
X163082302Y-62453237D01*
G37*
G36*
X178322302Y-62453237D02*
G01*
X178330060Y-62455150D01*
X178334106Y-62458127D01*
X178339598Y-62460402D01*
X178346282Y-62467086D01*
X178553348Y-62674151D01*
X178581820Y-62690210D01*
X178584300Y-62691237D01*
X178586285Y-62691726D01*
X178586991Y-62692351D01*
X178601598Y-62698402D01*
X178614332Y-62729145D01*
X178625291Y-62746095D01*
X178839598Y-62960402D01*
X178848835Y-62982703D01*
X178852969Y-62989541D01*
X178853724Y-62994507D01*
X178856000Y-63000000D01*
X178856000Y-64000000D01*
X178846759Y-64022307D01*
X178844849Y-64030060D01*
X178841873Y-64034103D01*
X178839598Y-64039598D01*
X178832911Y-64046285D01*
X178625847Y-64253349D01*
X178609790Y-64281819D01*
X178608757Y-64284312D01*
X178608271Y-64286287D01*
X178607649Y-64286988D01*
X178601598Y-64301598D01*
X178570854Y-64314332D01*
X178553905Y-64325291D01*
X178339598Y-64539598D01*
X178317293Y-64548836D01*
X178310458Y-64552969D01*
X178305493Y-64553724D01*
X178300000Y-64556000D01*
X178290543Y-64556000D01*
X177315178Y-64556000D01*
X177300000Y-64556000D01*
X177277693Y-64546760D01*
X177269939Y-64544849D01*
X177265894Y-64541873D01*
X177260402Y-64539598D01*
X177153718Y-64432914D01*
X177046650Y-64325847D01*
X177018180Y-64309790D01*
X177015688Y-64308758D01*
X177013712Y-64308271D01*
X177013009Y-64307648D01*
X176998402Y-64301598D01*
X176985669Y-64270858D01*
X176974707Y-64253904D01*
X176771133Y-64050329D01*
X176760402Y-64039598D01*
X176751165Y-64017298D01*
X176747030Y-64010458D01*
X176746274Y-64005490D01*
X176744000Y-64000000D01*
X176744000Y-63000000D01*
X176753237Y-62977698D01*
X176755150Y-62969939D01*
X176758128Y-62965891D01*
X176760402Y-62960402D01*
X176767082Y-62953721D01*
X176767088Y-62953714D01*
X176974151Y-62746651D01*
X176990210Y-62718179D01*
X176991237Y-62715699D01*
X176991726Y-62713715D01*
X176992351Y-62713008D01*
X176998402Y-62698402D01*
X177029137Y-62685670D01*
X177046095Y-62674707D01*
X177249667Y-62471135D01*
X177249672Y-62471131D01*
X177260402Y-62460402D01*
X177282698Y-62451166D01*
X177289541Y-62447030D01*
X177294510Y-62446274D01*
X177300000Y-62444000D01*
X178300000Y-62444000D01*
X178322302Y-62453237D01*
G37*
G36*
X180862302Y-62453237D02*
G01*
X180870060Y-62455150D01*
X180874106Y-62458127D01*
X180879598Y-62460402D01*
X180886282Y-62467086D01*
X181093348Y-62674151D01*
X181121820Y-62690210D01*
X181124300Y-62691237D01*
X181126285Y-62691726D01*
X181126991Y-62692351D01*
X181141598Y-62698402D01*
X181154332Y-62729145D01*
X181165291Y-62746095D01*
X181379598Y-62960402D01*
X181388835Y-62982703D01*
X181392969Y-62989541D01*
X181393724Y-62994507D01*
X181396000Y-63000000D01*
X181396000Y-64000000D01*
X181386759Y-64022307D01*
X181384849Y-64030060D01*
X181381873Y-64034103D01*
X181379598Y-64039598D01*
X181372911Y-64046285D01*
X181165847Y-64253349D01*
X181149790Y-64281819D01*
X181148757Y-64284312D01*
X181148271Y-64286287D01*
X181147649Y-64286988D01*
X181141598Y-64301598D01*
X181110854Y-64314332D01*
X181093905Y-64325291D01*
X180879598Y-64539598D01*
X180857293Y-64548836D01*
X180850458Y-64552969D01*
X180845493Y-64553724D01*
X180840000Y-64556000D01*
X180830543Y-64556000D01*
X179855178Y-64556000D01*
X179840000Y-64556000D01*
X179817693Y-64546760D01*
X179809939Y-64544849D01*
X179805894Y-64541873D01*
X179800402Y-64539598D01*
X179693718Y-64432914D01*
X179586650Y-64325847D01*
X179558180Y-64309790D01*
X179555688Y-64308758D01*
X179553712Y-64308271D01*
X179553009Y-64307648D01*
X179538402Y-64301598D01*
X179525669Y-64270858D01*
X179514707Y-64253904D01*
X179311133Y-64050329D01*
X179300402Y-64039598D01*
X179291165Y-64017298D01*
X179287030Y-64010458D01*
X179286274Y-64005490D01*
X179284000Y-64000000D01*
X179284000Y-63000000D01*
X179293237Y-62977698D01*
X179295150Y-62969939D01*
X179298128Y-62965891D01*
X179300402Y-62960402D01*
X179307082Y-62953721D01*
X179307088Y-62953714D01*
X179514151Y-62746651D01*
X179530210Y-62718179D01*
X179531237Y-62715699D01*
X179531726Y-62713715D01*
X179532351Y-62713008D01*
X179538402Y-62698402D01*
X179569137Y-62685670D01*
X179586095Y-62674707D01*
X179789667Y-62471135D01*
X179789672Y-62471131D01*
X179800402Y-62460402D01*
X179822698Y-62451166D01*
X179829541Y-62447030D01*
X179834510Y-62446274D01*
X179840000Y-62444000D01*
X180840000Y-62444000D01*
X180862302Y-62453237D01*
G37*
G36*
X107052302Y-62553237D02*
G01*
X107060060Y-62555150D01*
X107064106Y-62558127D01*
X107069598Y-62560402D01*
X107619598Y-63110402D01*
X107628835Y-63132703D01*
X107632969Y-63139541D01*
X107633724Y-63144507D01*
X107636000Y-63150000D01*
X107636000Y-63850000D01*
X107626759Y-63872307D01*
X107624849Y-63880060D01*
X107621873Y-63884103D01*
X107619598Y-63889598D01*
X107069598Y-64439598D01*
X107047293Y-64448836D01*
X107040458Y-64452969D01*
X107035493Y-64453724D01*
X107030000Y-64456000D01*
X107020543Y-64456000D01*
X106345178Y-64456000D01*
X106330000Y-64456000D01*
X106307693Y-64446760D01*
X106299939Y-64444849D01*
X106295894Y-64441872D01*
X106290402Y-64439598D01*
X105740402Y-63889598D01*
X105731165Y-63867298D01*
X105727030Y-63860458D01*
X105726274Y-63855490D01*
X105724000Y-63850000D01*
X105724000Y-63150000D01*
X105733237Y-63127698D01*
X105735150Y-63119939D01*
X105738128Y-63115891D01*
X105740402Y-63110402D01*
X105747082Y-63103721D01*
X105747085Y-63103718D01*
X106279670Y-62571133D01*
X106279672Y-62571131D01*
X106290402Y-62560402D01*
X106312698Y-62551166D01*
X106319541Y-62547030D01*
X106324510Y-62546274D01*
X106330000Y-62544000D01*
X107030000Y-62544000D01*
X107052302Y-62553237D01*
G37*
G36*
X109592302Y-62553237D02*
G01*
X109600060Y-62555150D01*
X109604106Y-62558127D01*
X109609598Y-62560402D01*
X110159598Y-63110402D01*
X110168835Y-63132703D01*
X110172969Y-63139541D01*
X110173724Y-63144507D01*
X110176000Y-63150000D01*
X110176000Y-63850000D01*
X110166759Y-63872307D01*
X110164849Y-63880060D01*
X110161873Y-63884103D01*
X110159598Y-63889598D01*
X109609598Y-64439598D01*
X109587293Y-64448836D01*
X109580458Y-64452969D01*
X109575493Y-64453724D01*
X109570000Y-64456000D01*
X109560543Y-64456000D01*
X108885178Y-64456000D01*
X108870000Y-64456000D01*
X108847693Y-64446760D01*
X108839939Y-64444849D01*
X108835894Y-64441872D01*
X108830402Y-64439598D01*
X108280402Y-63889598D01*
X108271165Y-63867298D01*
X108267030Y-63860458D01*
X108266274Y-63855490D01*
X108264000Y-63850000D01*
X108264000Y-63150000D01*
X108273237Y-63127698D01*
X108275150Y-63119939D01*
X108278128Y-63115891D01*
X108280402Y-63110402D01*
X108287082Y-63103721D01*
X108287085Y-63103718D01*
X108819670Y-62571133D01*
X108819672Y-62571131D01*
X108830402Y-62560402D01*
X108852698Y-62551166D01*
X108859541Y-62547030D01*
X108864510Y-62546274D01*
X108870000Y-62544000D01*
X109570000Y-62544000D01*
X109592302Y-62553237D01*
G37*
G36*
X112132302Y-62553237D02*
G01*
X112140060Y-62555150D01*
X112144106Y-62558127D01*
X112149598Y-62560402D01*
X112699598Y-63110402D01*
X112708835Y-63132703D01*
X112712969Y-63139541D01*
X112713724Y-63144507D01*
X112716000Y-63150000D01*
X112716000Y-63850000D01*
X112706759Y-63872307D01*
X112704849Y-63880060D01*
X112701873Y-63884103D01*
X112699598Y-63889598D01*
X112149598Y-64439598D01*
X112127293Y-64448836D01*
X112120458Y-64452969D01*
X112115493Y-64453724D01*
X112110000Y-64456000D01*
X112100543Y-64456000D01*
X111425178Y-64456000D01*
X111410000Y-64456000D01*
X111387693Y-64446760D01*
X111379939Y-64444849D01*
X111375894Y-64441872D01*
X111370402Y-64439598D01*
X110820402Y-63889598D01*
X110811165Y-63867298D01*
X110807030Y-63860458D01*
X110806274Y-63855490D01*
X110804000Y-63850000D01*
X110804000Y-63150000D01*
X110813237Y-63127698D01*
X110815150Y-63119939D01*
X110818128Y-63115891D01*
X110820402Y-63110402D01*
X110827082Y-63103721D01*
X110827085Y-63103718D01*
X111359670Y-62571133D01*
X111359672Y-62571131D01*
X111370402Y-62560402D01*
X111392698Y-62551166D01*
X111399541Y-62547030D01*
X111404510Y-62546274D01*
X111410000Y-62544000D01*
X112110000Y-62544000D01*
X112132302Y-62553237D01*
G37*
G36*
X114672302Y-62553237D02*
G01*
X114680060Y-62555150D01*
X114684106Y-62558127D01*
X114689598Y-62560402D01*
X115239598Y-63110402D01*
X115248835Y-63132703D01*
X115252969Y-63139541D01*
X115253724Y-63144507D01*
X115256000Y-63150000D01*
X115256000Y-63850000D01*
X115246759Y-63872307D01*
X115244849Y-63880060D01*
X115241873Y-63884103D01*
X115239598Y-63889598D01*
X114689598Y-64439598D01*
X114667293Y-64448836D01*
X114660458Y-64452969D01*
X114655493Y-64453724D01*
X114650000Y-64456000D01*
X114640543Y-64456000D01*
X113965178Y-64456000D01*
X113950000Y-64456000D01*
X113927693Y-64446760D01*
X113919939Y-64444849D01*
X113915894Y-64441872D01*
X113910402Y-64439598D01*
X113360402Y-63889598D01*
X113351165Y-63867298D01*
X113347030Y-63860458D01*
X113346274Y-63855490D01*
X113344000Y-63850000D01*
X113344000Y-63150000D01*
X113353237Y-63127698D01*
X113355150Y-63119939D01*
X113358128Y-63115891D01*
X113360402Y-63110402D01*
X113367082Y-63103721D01*
X113367085Y-63103718D01*
X113899670Y-62571133D01*
X113899672Y-62571131D01*
X113910402Y-62560402D01*
X113932698Y-62551166D01*
X113939541Y-62547030D01*
X113944510Y-62546274D01*
X113950000Y-62544000D01*
X114650000Y-62544000D01*
X114672302Y-62553237D01*
G37*
G36*
X117212302Y-62553237D02*
G01*
X117220060Y-62555150D01*
X117224106Y-62558127D01*
X117229598Y-62560402D01*
X117779598Y-63110402D01*
X117788835Y-63132703D01*
X117792969Y-63139541D01*
X117793724Y-63144507D01*
X117796000Y-63150000D01*
X117796000Y-63850000D01*
X117786759Y-63872307D01*
X117784849Y-63880060D01*
X117781873Y-63884103D01*
X117779598Y-63889598D01*
X117229598Y-64439598D01*
X117207293Y-64448836D01*
X117200458Y-64452969D01*
X117195493Y-64453724D01*
X117190000Y-64456000D01*
X117180543Y-64456000D01*
X116505178Y-64456000D01*
X116490000Y-64456000D01*
X116467693Y-64446760D01*
X116459939Y-64444849D01*
X116455894Y-64441872D01*
X116450402Y-64439598D01*
X115900402Y-63889598D01*
X115891165Y-63867298D01*
X115887030Y-63860458D01*
X115886274Y-63855490D01*
X115884000Y-63850000D01*
X115884000Y-63150000D01*
X115893237Y-63127698D01*
X115895150Y-63119939D01*
X115898128Y-63115891D01*
X115900402Y-63110402D01*
X115907082Y-63103721D01*
X115907085Y-63103718D01*
X116439670Y-62571133D01*
X116439672Y-62571131D01*
X116450402Y-62560402D01*
X116472698Y-62551166D01*
X116479541Y-62547030D01*
X116484510Y-62546274D01*
X116490000Y-62544000D01*
X117190000Y-62544000D01*
X117212302Y-62553237D01*
G37*
G36*
X119752302Y-62553237D02*
G01*
X119760060Y-62555150D01*
X119764106Y-62558127D01*
X119769598Y-62560402D01*
X120319598Y-63110402D01*
X120328835Y-63132703D01*
X120332969Y-63139541D01*
X120333724Y-63144507D01*
X120336000Y-63150000D01*
X120336000Y-63850000D01*
X120326759Y-63872307D01*
X120324849Y-63880060D01*
X120321873Y-63884103D01*
X120319598Y-63889598D01*
X119769598Y-64439598D01*
X119747293Y-64448836D01*
X119740458Y-64452969D01*
X119735493Y-64453724D01*
X119730000Y-64456000D01*
X119720543Y-64456000D01*
X119045178Y-64456000D01*
X119030000Y-64456000D01*
X119007693Y-64446760D01*
X118999939Y-64444849D01*
X118995894Y-64441872D01*
X118990402Y-64439598D01*
X118440402Y-63889598D01*
X118431165Y-63867298D01*
X118427030Y-63860458D01*
X118426274Y-63855490D01*
X118424000Y-63850000D01*
X118424000Y-63150000D01*
X118433237Y-63127698D01*
X118435150Y-63119939D01*
X118438128Y-63115891D01*
X118440402Y-63110402D01*
X118447082Y-63103721D01*
X118447085Y-63103718D01*
X118979670Y-62571133D01*
X118979672Y-62571131D01*
X118990402Y-62560402D01*
X119012698Y-62551166D01*
X119019541Y-62547030D01*
X119024510Y-62546274D01*
X119030000Y-62544000D01*
X119730000Y-62544000D01*
X119752302Y-62553237D01*
G37*
G36*
X122292302Y-62553237D02*
G01*
X122300060Y-62555150D01*
X122304106Y-62558127D01*
X122309598Y-62560402D01*
X122859598Y-63110402D01*
X122868835Y-63132703D01*
X122872969Y-63139541D01*
X122873724Y-63144507D01*
X122876000Y-63150000D01*
X122876000Y-63850000D01*
X122866759Y-63872307D01*
X122864849Y-63880060D01*
X122861873Y-63884103D01*
X122859598Y-63889598D01*
X122309598Y-64439598D01*
X122287293Y-64448836D01*
X122280458Y-64452969D01*
X122275493Y-64453724D01*
X122270000Y-64456000D01*
X122260543Y-64456000D01*
X121585178Y-64456000D01*
X121570000Y-64456000D01*
X121547693Y-64446760D01*
X121539939Y-64444849D01*
X121535894Y-64441872D01*
X121530402Y-64439598D01*
X120980402Y-63889598D01*
X120971165Y-63867298D01*
X120967030Y-63860458D01*
X120966274Y-63855490D01*
X120964000Y-63850000D01*
X120964000Y-63150000D01*
X120973237Y-63127698D01*
X120975150Y-63119939D01*
X120978128Y-63115891D01*
X120980402Y-63110402D01*
X120987082Y-63103721D01*
X120987085Y-63103718D01*
X121519670Y-62571133D01*
X121519672Y-62571131D01*
X121530402Y-62560402D01*
X121552698Y-62551166D01*
X121559541Y-62547030D01*
X121564510Y-62546274D01*
X121570000Y-62544000D01*
X122270000Y-62544000D01*
X122292302Y-62553237D01*
G37*
G36*
X124832302Y-62553237D02*
G01*
X124840060Y-62555150D01*
X124844106Y-62558127D01*
X124849598Y-62560402D01*
X125399598Y-63110402D01*
X125408835Y-63132703D01*
X125412969Y-63139541D01*
X125413724Y-63144507D01*
X125416000Y-63150000D01*
X125416000Y-63850000D01*
X125406759Y-63872307D01*
X125404849Y-63880060D01*
X125401873Y-63884103D01*
X125399598Y-63889598D01*
X124849598Y-64439598D01*
X124827293Y-64448836D01*
X124820458Y-64452969D01*
X124815493Y-64453724D01*
X124810000Y-64456000D01*
X124800543Y-64456000D01*
X124125178Y-64456000D01*
X124110000Y-64456000D01*
X124087693Y-64446760D01*
X124079939Y-64444849D01*
X124075894Y-64441872D01*
X124070402Y-64439598D01*
X123520402Y-63889598D01*
X123511165Y-63867298D01*
X123507030Y-63860458D01*
X123506274Y-63855490D01*
X123504000Y-63850000D01*
X123504000Y-63150000D01*
X123513237Y-63127698D01*
X123515150Y-63119939D01*
X123518128Y-63115891D01*
X123520402Y-63110402D01*
X123527082Y-63103721D01*
X123527085Y-63103718D01*
X124059670Y-62571133D01*
X124059672Y-62571131D01*
X124070402Y-62560402D01*
X124092698Y-62551166D01*
X124099541Y-62547030D01*
X124104510Y-62546274D01*
X124110000Y-62544000D01*
X124810000Y-62544000D01*
X124832302Y-62553237D01*
G37*
G36*
X137532302Y-62553237D02*
G01*
X137540060Y-62555150D01*
X137544106Y-62558127D01*
X137549598Y-62560402D01*
X138099598Y-63110402D01*
X138108835Y-63132703D01*
X138112969Y-63139541D01*
X138113724Y-63144507D01*
X138116000Y-63150000D01*
X138116000Y-63850000D01*
X138106759Y-63872307D01*
X138104849Y-63880060D01*
X138101873Y-63884103D01*
X138099598Y-63889598D01*
X137549598Y-64439598D01*
X137527293Y-64448836D01*
X137520458Y-64452969D01*
X137515493Y-64453724D01*
X137510000Y-64456000D01*
X137500543Y-64456000D01*
X136825178Y-64456000D01*
X136810000Y-64456000D01*
X136787693Y-64446760D01*
X136779939Y-64444849D01*
X136775894Y-64441872D01*
X136770402Y-64439598D01*
X136220402Y-63889598D01*
X136211165Y-63867298D01*
X136207030Y-63860458D01*
X136206274Y-63855490D01*
X136204000Y-63850000D01*
X136204000Y-63150000D01*
X136213237Y-63127698D01*
X136215150Y-63119939D01*
X136218128Y-63115891D01*
X136220402Y-63110402D01*
X136227082Y-63103721D01*
X136227085Y-63103718D01*
X136759670Y-62571133D01*
X136759672Y-62571131D01*
X136770402Y-62560402D01*
X136792698Y-62551166D01*
X136799541Y-62547030D01*
X136804510Y-62546274D01*
X136810000Y-62544000D01*
X137510000Y-62544000D01*
X137532302Y-62553237D01*
G37*
G36*
X140072302Y-62553237D02*
G01*
X140080060Y-62555150D01*
X140084106Y-62558127D01*
X140089598Y-62560402D01*
X140639598Y-63110402D01*
X140648835Y-63132703D01*
X140652969Y-63139541D01*
X140653724Y-63144507D01*
X140656000Y-63150000D01*
X140656000Y-63850000D01*
X140646759Y-63872307D01*
X140644849Y-63880060D01*
X140641873Y-63884103D01*
X140639598Y-63889598D01*
X140089598Y-64439598D01*
X140067293Y-64448836D01*
X140060458Y-64452969D01*
X140055493Y-64453724D01*
X140050000Y-64456000D01*
X140040543Y-64456000D01*
X139365178Y-64456000D01*
X139350000Y-64456000D01*
X139327693Y-64446760D01*
X139319939Y-64444849D01*
X139315894Y-64441872D01*
X139310402Y-64439598D01*
X138760402Y-63889598D01*
X138751165Y-63867298D01*
X138747030Y-63860458D01*
X138746274Y-63855490D01*
X138744000Y-63850000D01*
X138744000Y-63150000D01*
X138753237Y-63127698D01*
X138755150Y-63119939D01*
X138758128Y-63115891D01*
X138760402Y-63110402D01*
X138767082Y-63103721D01*
X138767085Y-63103718D01*
X139299670Y-62571133D01*
X139299672Y-62571131D01*
X139310402Y-62560402D01*
X139332698Y-62551166D01*
X139339541Y-62547030D01*
X139344510Y-62546274D01*
X139350000Y-62544000D01*
X140050000Y-62544000D01*
X140072302Y-62553237D01*
G37*
G36*
X142612302Y-62553237D02*
G01*
X142620060Y-62555150D01*
X142624106Y-62558127D01*
X142629598Y-62560402D01*
X143179598Y-63110402D01*
X143188835Y-63132703D01*
X143192969Y-63139541D01*
X143193724Y-63144507D01*
X143196000Y-63150000D01*
X143196000Y-63850000D01*
X143186759Y-63872307D01*
X143184849Y-63880060D01*
X143181873Y-63884103D01*
X143179598Y-63889598D01*
X142629598Y-64439598D01*
X142607293Y-64448836D01*
X142600458Y-64452969D01*
X142595493Y-64453724D01*
X142590000Y-64456000D01*
X142580543Y-64456000D01*
X141905178Y-64456000D01*
X141890000Y-64456000D01*
X141867693Y-64446760D01*
X141859939Y-64444849D01*
X141855894Y-64441872D01*
X141850402Y-64439598D01*
X141300402Y-63889598D01*
X141291165Y-63867298D01*
X141287030Y-63860458D01*
X141286274Y-63855490D01*
X141284000Y-63850000D01*
X141284000Y-63150000D01*
X141293237Y-63127698D01*
X141295150Y-63119939D01*
X141298128Y-63115891D01*
X141300402Y-63110402D01*
X141307082Y-63103721D01*
X141307085Y-63103718D01*
X141839670Y-62571133D01*
X141839672Y-62571131D01*
X141850402Y-62560402D01*
X141872698Y-62551166D01*
X141879541Y-62547030D01*
X141884510Y-62546274D01*
X141890000Y-62544000D01*
X142590000Y-62544000D01*
X142612302Y-62553237D01*
G37*
G36*
X145152302Y-62553237D02*
G01*
X145160060Y-62555150D01*
X145164106Y-62558127D01*
X145169598Y-62560402D01*
X145719598Y-63110402D01*
X145728835Y-63132703D01*
X145732969Y-63139541D01*
X145733724Y-63144507D01*
X145736000Y-63150000D01*
X145736000Y-63850000D01*
X145726759Y-63872307D01*
X145724849Y-63880060D01*
X145721873Y-63884103D01*
X145719598Y-63889598D01*
X145169598Y-64439598D01*
X145147293Y-64448836D01*
X145140458Y-64452969D01*
X145135493Y-64453724D01*
X145130000Y-64456000D01*
X145120543Y-64456000D01*
X144445178Y-64456000D01*
X144430000Y-64456000D01*
X144407693Y-64446760D01*
X144399939Y-64444849D01*
X144395894Y-64441872D01*
X144390402Y-64439598D01*
X143840402Y-63889598D01*
X143831165Y-63867298D01*
X143827030Y-63860458D01*
X143826274Y-63855490D01*
X143824000Y-63850000D01*
X143824000Y-63150000D01*
X143833237Y-63127698D01*
X143835150Y-63119939D01*
X143838128Y-63115891D01*
X143840402Y-63110402D01*
X143847082Y-63103721D01*
X143847085Y-63103718D01*
X144379670Y-62571133D01*
X144379672Y-62571131D01*
X144390402Y-62560402D01*
X144412698Y-62551166D01*
X144419541Y-62547030D01*
X144424510Y-62546274D01*
X144430000Y-62544000D01*
X145130000Y-62544000D01*
X145152302Y-62553237D01*
G37*
G36*
X147692302Y-62553237D02*
G01*
X147700060Y-62555150D01*
X147704106Y-62558127D01*
X147709598Y-62560402D01*
X148259598Y-63110402D01*
X148268835Y-63132703D01*
X148272969Y-63139541D01*
X148273724Y-63144507D01*
X148276000Y-63150000D01*
X148276000Y-63850000D01*
X148266759Y-63872307D01*
X148264849Y-63880060D01*
X148261873Y-63884103D01*
X148259598Y-63889598D01*
X147709598Y-64439598D01*
X147687293Y-64448836D01*
X147680458Y-64452969D01*
X147675493Y-64453724D01*
X147670000Y-64456000D01*
X147660543Y-64456000D01*
X146985178Y-64456000D01*
X146970000Y-64456000D01*
X146947693Y-64446760D01*
X146939939Y-64444849D01*
X146935894Y-64441872D01*
X146930402Y-64439598D01*
X146380402Y-63889598D01*
X146371165Y-63867298D01*
X146367030Y-63860458D01*
X146366274Y-63855490D01*
X146364000Y-63850000D01*
X146364000Y-63150000D01*
X146373237Y-63127698D01*
X146375150Y-63119939D01*
X146378128Y-63115891D01*
X146380402Y-63110402D01*
X146387082Y-63103721D01*
X146387085Y-63103718D01*
X146919670Y-62571133D01*
X146919672Y-62571131D01*
X146930402Y-62560402D01*
X146952698Y-62551166D01*
X146959541Y-62547030D01*
X146964510Y-62546274D01*
X146970000Y-62544000D01*
X147670000Y-62544000D01*
X147692302Y-62553237D01*
G37*
G36*
X150232302Y-62553237D02*
G01*
X150240060Y-62555150D01*
X150244106Y-62558127D01*
X150249598Y-62560402D01*
X150799598Y-63110402D01*
X150808835Y-63132703D01*
X150812969Y-63139541D01*
X150813724Y-63144507D01*
X150816000Y-63150000D01*
X150816000Y-63850000D01*
X150806759Y-63872307D01*
X150804849Y-63880060D01*
X150801873Y-63884103D01*
X150799598Y-63889598D01*
X150249598Y-64439598D01*
X150227293Y-64448836D01*
X150220458Y-64452969D01*
X150215493Y-64453724D01*
X150210000Y-64456000D01*
X150200543Y-64456000D01*
X149525178Y-64456000D01*
X149510000Y-64456000D01*
X149487693Y-64446760D01*
X149479939Y-64444849D01*
X149475894Y-64441872D01*
X149470402Y-64439598D01*
X148920402Y-63889598D01*
X148911165Y-63867298D01*
X148907030Y-63860458D01*
X148906274Y-63855490D01*
X148904000Y-63850000D01*
X148904000Y-63150000D01*
X148913237Y-63127698D01*
X148915150Y-63119939D01*
X148918128Y-63115891D01*
X148920402Y-63110402D01*
X148927082Y-63103721D01*
X148927085Y-63103718D01*
X149459670Y-62571133D01*
X149459672Y-62571131D01*
X149470402Y-62560402D01*
X149492698Y-62551166D01*
X149499541Y-62547030D01*
X149504510Y-62546274D01*
X149510000Y-62544000D01*
X150210000Y-62544000D01*
X150232302Y-62553237D01*
G37*
G36*
X152772302Y-62553237D02*
G01*
X152780060Y-62555150D01*
X152784106Y-62558127D01*
X152789598Y-62560402D01*
X153339598Y-63110402D01*
X153348835Y-63132703D01*
X153352969Y-63139541D01*
X153353724Y-63144507D01*
X153356000Y-63150000D01*
X153356000Y-63850000D01*
X153346759Y-63872307D01*
X153344849Y-63880060D01*
X153341873Y-63884103D01*
X153339598Y-63889598D01*
X152789598Y-64439598D01*
X152767293Y-64448836D01*
X152760458Y-64452969D01*
X152755493Y-64453724D01*
X152750000Y-64456000D01*
X152740543Y-64456000D01*
X152065178Y-64456000D01*
X152050000Y-64456000D01*
X152027693Y-64446760D01*
X152019939Y-64444849D01*
X152015894Y-64441872D01*
X152010402Y-64439598D01*
X151460402Y-63889598D01*
X151451165Y-63867298D01*
X151447030Y-63860458D01*
X151446274Y-63855490D01*
X151444000Y-63850000D01*
X151444000Y-63150000D01*
X151453237Y-63127698D01*
X151455150Y-63119939D01*
X151458128Y-63115891D01*
X151460402Y-63110402D01*
X151467082Y-63103721D01*
X151467085Y-63103718D01*
X151999670Y-62571133D01*
X151999672Y-62571131D01*
X152010402Y-62560402D01*
X152032698Y-62551166D01*
X152039541Y-62547030D01*
X152044510Y-62546274D01*
X152050000Y-62544000D01*
X152750000Y-62544000D01*
X152772302Y-62553237D01*
G37*
G36*
X155312302Y-62553237D02*
G01*
X155320060Y-62555150D01*
X155324106Y-62558127D01*
X155329598Y-62560402D01*
X155879598Y-63110402D01*
X155888835Y-63132703D01*
X155892969Y-63139541D01*
X155893724Y-63144507D01*
X155896000Y-63150000D01*
X155896000Y-63850000D01*
X155886759Y-63872307D01*
X155884849Y-63880060D01*
X155881873Y-63884103D01*
X155879598Y-63889598D01*
X155329598Y-64439598D01*
X155307293Y-64448836D01*
X155300458Y-64452969D01*
X155295493Y-64453724D01*
X155290000Y-64456000D01*
X155280543Y-64456000D01*
X154605178Y-64456000D01*
X154590000Y-64456000D01*
X154567693Y-64446760D01*
X154559939Y-64444849D01*
X154555894Y-64441872D01*
X154550402Y-64439598D01*
X154000402Y-63889598D01*
X153991165Y-63867298D01*
X153987030Y-63860458D01*
X153986274Y-63855490D01*
X153984000Y-63850000D01*
X153984000Y-63150000D01*
X153993237Y-63127698D01*
X153995150Y-63119939D01*
X153998128Y-63115891D01*
X154000402Y-63110402D01*
X154007082Y-63103721D01*
X154007085Y-63103718D01*
X154539670Y-62571133D01*
X154539672Y-62571131D01*
X154550402Y-62560402D01*
X154572698Y-62551166D01*
X154579541Y-62547030D01*
X154584510Y-62546274D01*
X154590000Y-62544000D01*
X155290000Y-62544000D01*
X155312302Y-62553237D01*
G37*
M02*
