M48
; DRILL file {KiCad 8.0.2} date 2024-11-11T10:43:19+0100
; FORMAT={-:-/ absolute / inch / decimal}
; #@! TF.CreationDate,2024-11-11T10:43:19+01:00
; #@! TF.GenerationSoftware,Kicad,Pcbnew,8.0.2
; #@! TF.FileFunction,Plated,1,2,PTH
FMAT,2
INCH
; #@! TA.AperFunction,Plated,PTH,ComponentDrill
T1C0.0315
; #@! TA.AperFunction,Plated,PTH,ComponentDrill
T2C0.0319
; #@! TA.AperFunction,Plated,PTH,ComponentDrill
T3C0.0394
; #@! TA.AperFunction,Plated,PTH,ComponentDrill
T4C0.0472
%
G90
G05
T1
X6.3Y-2.5
X6.4Y-2.5
X7.0Y-2.5
X7.1Y-2.5
T2
X4.2Y-2.5
X4.3Y-2.5
X4.4Y-2.5
X4.5Y-2.5
X4.6Y-2.5
X4.7Y-2.5
X4.8Y-2.5
X4.9Y-2.5
X5.4Y-2.5
X5.5Y-2.5
X5.6Y-2.5
X5.7Y-2.5
X5.8Y-2.5
X5.9Y-2.5
X6.0Y-2.5
X6.1Y-2.5
T3
X3.9299Y-2.7984
X4.0283Y-2.7
X4.1268Y-2.7984
X4.2252Y-2.7
X4.3236Y-2.7984
X4.422Y-2.7
X4.5205Y-2.7984
X4.6189Y-2.7
X4.7173Y-2.7984
X4.8157Y-2.7
X4.9142Y-2.7984
X5.0126Y-2.7
X5.111Y-2.7984
X5.2094Y-2.7
X5.3079Y-2.7984
X5.4063Y-2.7
X5.5047Y-2.7984
X5.6031Y-2.7
X5.7016Y-2.7984
X5.8Y-2.7
X5.8984Y-2.7984
X5.9969Y-2.7
X6.0953Y-2.7984
X6.1937Y-2.7
X6.2921Y-2.7984
X6.3874Y-2.7
X6.489Y-2.7984
X6.5874Y-2.7
X6.6858Y-2.7984
X6.7843Y-2.7
X6.8874Y-2.7984
T4
X3.8Y-2.5
X4.0Y-2.5
X5.2Y-2.5
X6.6Y-2.5
X6.8Y-2.5
M30
