G04 #@! TF.GenerationSoftware,KiCad,Pcbnew,8.0.2*
G04 #@! TF.CreationDate,2024-11-11T10:43:17+01:00*
G04 #@! TF.ProjectId,junior-interface-conn,6a756e69-6f72-42d6-996e-746572666163,rev?*
G04 #@! TF.SameCoordinates,Original*
G04 #@! TF.FileFunction,Legend,Top*
G04 #@! TF.FilePolarity,Positive*
%FSLAX46Y46*%
G04 Gerber Fmt 4.6, Leading zero omitted, Abs format (unit mm)*
G04 Created by KiCad (PCBNEW 8.0.2) date 2024-11-11 10:43:17*
%MOMM*%
%LPD*%
G01*
G04 APERTURE LIST*
%ADD10C,0.250000*%
%ADD11C,0.150000*%
%ADD12C,0.650000*%
%ADD13C,1.000000*%
%ADD14C,0.500000*%
G04 APERTURE END LIST*
D10*
X119879619Y-61779812D02*
X118879619Y-61779812D01*
X118879619Y-61779812D02*
X118879619Y-61322669D01*
X118879619Y-61322669D02*
X118927238Y-61208384D01*
X118927238Y-61208384D02*
X118974857Y-61151241D01*
X118974857Y-61151241D02*
X119070095Y-61094098D01*
X119070095Y-61094098D02*
X119212952Y-61094098D01*
X119212952Y-61094098D02*
X119308190Y-61151241D01*
X119308190Y-61151241D02*
X119355809Y-61208384D01*
X119355809Y-61208384D02*
X119403428Y-61322669D01*
X119403428Y-61322669D02*
X119403428Y-61779812D01*
X119593904Y-60636955D02*
X119593904Y-60065527D01*
X119879619Y-60751241D02*
X118879619Y-60351241D01*
X118879619Y-60351241D02*
X119879619Y-59951241D01*
X118879619Y-58979813D02*
X118879619Y-59551241D01*
X118879619Y-59551241D02*
X119355809Y-59608384D01*
X119355809Y-59608384D02*
X119308190Y-59551241D01*
X119308190Y-59551241D02*
X119260571Y-59436956D01*
X119260571Y-59436956D02*
X119260571Y-59151241D01*
X119260571Y-59151241D02*
X119308190Y-59036956D01*
X119308190Y-59036956D02*
X119355809Y-58979813D01*
X119355809Y-58979813D02*
X119451047Y-58922670D01*
X119451047Y-58922670D02*
X119689142Y-58922670D01*
X119689142Y-58922670D02*
X119784380Y-58979813D01*
X119784380Y-58979813D02*
X119832000Y-59036956D01*
X119832000Y-59036956D02*
X119879619Y-59151241D01*
X119879619Y-59151241D02*
X119879619Y-59436956D01*
X119879619Y-59436956D02*
X119832000Y-59551241D01*
X119832000Y-59551241D02*
X119784380Y-59608384D01*
X114799619Y-61779812D02*
X113799619Y-61779812D01*
X113799619Y-61779812D02*
X113799619Y-61322669D01*
X113799619Y-61322669D02*
X113847238Y-61208384D01*
X113847238Y-61208384D02*
X113894857Y-61151241D01*
X113894857Y-61151241D02*
X113990095Y-61094098D01*
X113990095Y-61094098D02*
X114132952Y-61094098D01*
X114132952Y-61094098D02*
X114228190Y-61151241D01*
X114228190Y-61151241D02*
X114275809Y-61208384D01*
X114275809Y-61208384D02*
X114323428Y-61322669D01*
X114323428Y-61322669D02*
X114323428Y-61779812D01*
X114513904Y-60636955D02*
X114513904Y-60065527D01*
X114799619Y-60751241D02*
X113799619Y-60351241D01*
X113799619Y-60351241D02*
X114799619Y-59951241D01*
X113799619Y-59665527D02*
X113799619Y-58922670D01*
X113799619Y-58922670D02*
X114180571Y-59322670D01*
X114180571Y-59322670D02*
X114180571Y-59151241D01*
X114180571Y-59151241D02*
X114228190Y-59036956D01*
X114228190Y-59036956D02*
X114275809Y-58979813D01*
X114275809Y-58979813D02*
X114371047Y-58922670D01*
X114371047Y-58922670D02*
X114609142Y-58922670D01*
X114609142Y-58922670D02*
X114704380Y-58979813D01*
X114704380Y-58979813D02*
X114752000Y-59036956D01*
X114752000Y-59036956D02*
X114799619Y-59151241D01*
X114799619Y-59151241D02*
X114799619Y-59494098D01*
X114799619Y-59494098D02*
X114752000Y-59608384D01*
X114752000Y-59608384D02*
X114704380Y-59665527D01*
X145279619Y-61779812D02*
X144279619Y-61779812D01*
X144279619Y-61779812D02*
X144279619Y-61322669D01*
X144279619Y-61322669D02*
X144327238Y-61208384D01*
X144327238Y-61208384D02*
X144374857Y-61151241D01*
X144374857Y-61151241D02*
X144470095Y-61094098D01*
X144470095Y-61094098D02*
X144612952Y-61094098D01*
X144612952Y-61094098D02*
X144708190Y-61151241D01*
X144708190Y-61151241D02*
X144755809Y-61208384D01*
X144755809Y-61208384D02*
X144803428Y-61322669D01*
X144803428Y-61322669D02*
X144803428Y-61779812D01*
X144755809Y-60179812D02*
X144803428Y-60008384D01*
X144803428Y-60008384D02*
X144851047Y-59951241D01*
X144851047Y-59951241D02*
X144946285Y-59894098D01*
X144946285Y-59894098D02*
X145089142Y-59894098D01*
X145089142Y-59894098D02*
X145184380Y-59951241D01*
X145184380Y-59951241D02*
X145232000Y-60008384D01*
X145232000Y-60008384D02*
X145279619Y-60122669D01*
X145279619Y-60122669D02*
X145279619Y-60579812D01*
X145279619Y-60579812D02*
X144279619Y-60579812D01*
X144279619Y-60579812D02*
X144279619Y-60179812D01*
X144279619Y-60179812D02*
X144327238Y-60065527D01*
X144327238Y-60065527D02*
X144374857Y-60008384D01*
X144374857Y-60008384D02*
X144470095Y-59951241D01*
X144470095Y-59951241D02*
X144565333Y-59951241D01*
X144565333Y-59951241D02*
X144660571Y-60008384D01*
X144660571Y-60008384D02*
X144708190Y-60065527D01*
X144708190Y-60065527D02*
X144755809Y-60179812D01*
X144755809Y-60179812D02*
X144755809Y-60579812D01*
X144279619Y-59494098D02*
X144279619Y-58694098D01*
X144279619Y-58694098D02*
X145279619Y-59208384D01*
X166256615Y-60824619D02*
X166256615Y-59824619D01*
X166256615Y-59824619D02*
X166613758Y-59824619D01*
X166613758Y-59824619D02*
X166828044Y-59872238D01*
X166828044Y-59872238D02*
X166970901Y-59967476D01*
X166970901Y-59967476D02*
X167042330Y-60062714D01*
X167042330Y-60062714D02*
X167113758Y-60253190D01*
X167113758Y-60253190D02*
X167113758Y-60396047D01*
X167113758Y-60396047D02*
X167042330Y-60586523D01*
X167042330Y-60586523D02*
X166970901Y-60681761D01*
X166970901Y-60681761D02*
X166828044Y-60777000D01*
X166828044Y-60777000D02*
X166613758Y-60824619D01*
X166613758Y-60824619D02*
X166256615Y-60824619D01*
X168470901Y-59824619D02*
X167756615Y-59824619D01*
X167756615Y-59824619D02*
X167685187Y-60300809D01*
X167685187Y-60300809D02*
X167756615Y-60253190D01*
X167756615Y-60253190D02*
X167899473Y-60205571D01*
X167899473Y-60205571D02*
X168256615Y-60205571D01*
X168256615Y-60205571D02*
X168399473Y-60253190D01*
X168399473Y-60253190D02*
X168470901Y-60300809D01*
X168470901Y-60300809D02*
X168542330Y-60396047D01*
X168542330Y-60396047D02*
X168542330Y-60634142D01*
X168542330Y-60634142D02*
X168470901Y-60729380D01*
X168470901Y-60729380D02*
X168399473Y-60777000D01*
X168399473Y-60777000D02*
X168256615Y-60824619D01*
X168256615Y-60824619D02*
X167899473Y-60824619D01*
X167899473Y-60824619D02*
X167756615Y-60777000D01*
X167756615Y-60777000D02*
X167685187Y-60729380D01*
X171971615Y-60824619D02*
X171971615Y-59824619D01*
X171971615Y-59824619D02*
X172328758Y-59824619D01*
X172328758Y-59824619D02*
X172543044Y-59872238D01*
X172543044Y-59872238D02*
X172685901Y-59967476D01*
X172685901Y-59967476D02*
X172757330Y-60062714D01*
X172757330Y-60062714D02*
X172828758Y-60253190D01*
X172828758Y-60253190D02*
X172828758Y-60396047D01*
X172828758Y-60396047D02*
X172757330Y-60586523D01*
X172757330Y-60586523D02*
X172685901Y-60681761D01*
X172685901Y-60681761D02*
X172543044Y-60777000D01*
X172543044Y-60777000D02*
X172328758Y-60824619D01*
X172328758Y-60824619D02*
X171971615Y-60824619D01*
X174114473Y-60157952D02*
X174114473Y-60824619D01*
X173757330Y-59777000D02*
X173400187Y-60491285D01*
X173400187Y-60491285D02*
X174328758Y-60491285D01*
X152899619Y-61779812D02*
X151899619Y-61779812D01*
X151899619Y-61779812D02*
X151899619Y-61322669D01*
X151899619Y-61322669D02*
X151947238Y-61208384D01*
X151947238Y-61208384D02*
X151994857Y-61151241D01*
X151994857Y-61151241D02*
X152090095Y-61094098D01*
X152090095Y-61094098D02*
X152232952Y-61094098D01*
X152232952Y-61094098D02*
X152328190Y-61151241D01*
X152328190Y-61151241D02*
X152375809Y-61208384D01*
X152375809Y-61208384D02*
X152423428Y-61322669D01*
X152423428Y-61322669D02*
X152423428Y-61779812D01*
X152375809Y-60179812D02*
X152423428Y-60008384D01*
X152423428Y-60008384D02*
X152471047Y-59951241D01*
X152471047Y-59951241D02*
X152566285Y-59894098D01*
X152566285Y-59894098D02*
X152709142Y-59894098D01*
X152709142Y-59894098D02*
X152804380Y-59951241D01*
X152804380Y-59951241D02*
X152852000Y-60008384D01*
X152852000Y-60008384D02*
X152899619Y-60122669D01*
X152899619Y-60122669D02*
X152899619Y-60579812D01*
X152899619Y-60579812D02*
X151899619Y-60579812D01*
X151899619Y-60579812D02*
X151899619Y-60179812D01*
X151899619Y-60179812D02*
X151947238Y-60065527D01*
X151947238Y-60065527D02*
X151994857Y-60008384D01*
X151994857Y-60008384D02*
X152090095Y-59951241D01*
X152090095Y-59951241D02*
X152185333Y-59951241D01*
X152185333Y-59951241D02*
X152280571Y-60008384D01*
X152280571Y-60008384D02*
X152328190Y-60065527D01*
X152328190Y-60065527D02*
X152375809Y-60179812D01*
X152375809Y-60179812D02*
X152375809Y-60579812D01*
X151994857Y-59436955D02*
X151947238Y-59379812D01*
X151947238Y-59379812D02*
X151899619Y-59265527D01*
X151899619Y-59265527D02*
X151899619Y-58979812D01*
X151899619Y-58979812D02*
X151947238Y-58865527D01*
X151947238Y-58865527D02*
X151994857Y-58808384D01*
X151994857Y-58808384D02*
X152090095Y-58751241D01*
X152090095Y-58751241D02*
X152185333Y-58751241D01*
X152185333Y-58751241D02*
X152328190Y-58808384D01*
X152328190Y-58808384D02*
X152899619Y-59494098D01*
X152899619Y-59494098D02*
X152899619Y-58751241D01*
X122419619Y-61779812D02*
X121419619Y-61779812D01*
X121419619Y-61779812D02*
X121419619Y-61322669D01*
X121419619Y-61322669D02*
X121467238Y-61208384D01*
X121467238Y-61208384D02*
X121514857Y-61151241D01*
X121514857Y-61151241D02*
X121610095Y-61094098D01*
X121610095Y-61094098D02*
X121752952Y-61094098D01*
X121752952Y-61094098D02*
X121848190Y-61151241D01*
X121848190Y-61151241D02*
X121895809Y-61208384D01*
X121895809Y-61208384D02*
X121943428Y-61322669D01*
X121943428Y-61322669D02*
X121943428Y-61779812D01*
X122133904Y-60636955D02*
X122133904Y-60065527D01*
X122419619Y-60751241D02*
X121419619Y-60351241D01*
X121419619Y-60351241D02*
X122419619Y-59951241D01*
X121419619Y-59036956D02*
X121419619Y-59265527D01*
X121419619Y-59265527D02*
X121467238Y-59379813D01*
X121467238Y-59379813D02*
X121514857Y-59436956D01*
X121514857Y-59436956D02*
X121657714Y-59551241D01*
X121657714Y-59551241D02*
X121848190Y-59608384D01*
X121848190Y-59608384D02*
X122229142Y-59608384D01*
X122229142Y-59608384D02*
X122324380Y-59551241D01*
X122324380Y-59551241D02*
X122372000Y-59494098D01*
X122372000Y-59494098D02*
X122419619Y-59379813D01*
X122419619Y-59379813D02*
X122419619Y-59151241D01*
X122419619Y-59151241D02*
X122372000Y-59036956D01*
X122372000Y-59036956D02*
X122324380Y-58979813D01*
X122324380Y-58979813D02*
X122229142Y-58922670D01*
X122229142Y-58922670D02*
X121991047Y-58922670D01*
X121991047Y-58922670D02*
X121895809Y-58979813D01*
X121895809Y-58979813D02*
X121848190Y-59036956D01*
X121848190Y-59036956D02*
X121800571Y-59151241D01*
X121800571Y-59151241D02*
X121800571Y-59379813D01*
X121800571Y-59379813D02*
X121848190Y-59494098D01*
X121848190Y-59494098D02*
X121895809Y-59551241D01*
X121895809Y-59551241D02*
X121991047Y-59608384D01*
X96692330Y-59824619D02*
X96835187Y-59824619D01*
X96835187Y-59824619D02*
X96978044Y-59872238D01*
X96978044Y-59872238D02*
X97049473Y-59919857D01*
X97049473Y-59919857D02*
X97120901Y-60015095D01*
X97120901Y-60015095D02*
X97192330Y-60205571D01*
X97192330Y-60205571D02*
X97192330Y-60443666D01*
X97192330Y-60443666D02*
X97120901Y-60634142D01*
X97120901Y-60634142D02*
X97049473Y-60729380D01*
X97049473Y-60729380D02*
X96978044Y-60777000D01*
X96978044Y-60777000D02*
X96835187Y-60824619D01*
X96835187Y-60824619D02*
X96692330Y-60824619D01*
X96692330Y-60824619D02*
X96549473Y-60777000D01*
X96549473Y-60777000D02*
X96478044Y-60729380D01*
X96478044Y-60729380D02*
X96406615Y-60634142D01*
X96406615Y-60634142D02*
X96335187Y-60443666D01*
X96335187Y-60443666D02*
X96335187Y-60205571D01*
X96335187Y-60205571D02*
X96406615Y-60015095D01*
X96406615Y-60015095D02*
X96478044Y-59919857D01*
X96478044Y-59919857D02*
X96549473Y-59872238D01*
X96549473Y-59872238D02*
X96692330Y-59824619D01*
X140199619Y-61779812D02*
X139199619Y-61779812D01*
X139199619Y-61779812D02*
X139199619Y-61322669D01*
X139199619Y-61322669D02*
X139247238Y-61208384D01*
X139247238Y-61208384D02*
X139294857Y-61151241D01*
X139294857Y-61151241D02*
X139390095Y-61094098D01*
X139390095Y-61094098D02*
X139532952Y-61094098D01*
X139532952Y-61094098D02*
X139628190Y-61151241D01*
X139628190Y-61151241D02*
X139675809Y-61208384D01*
X139675809Y-61208384D02*
X139723428Y-61322669D01*
X139723428Y-61322669D02*
X139723428Y-61779812D01*
X139675809Y-60179812D02*
X139723428Y-60008384D01*
X139723428Y-60008384D02*
X139771047Y-59951241D01*
X139771047Y-59951241D02*
X139866285Y-59894098D01*
X139866285Y-59894098D02*
X140009142Y-59894098D01*
X140009142Y-59894098D02*
X140104380Y-59951241D01*
X140104380Y-59951241D02*
X140152000Y-60008384D01*
X140152000Y-60008384D02*
X140199619Y-60122669D01*
X140199619Y-60122669D02*
X140199619Y-60579812D01*
X140199619Y-60579812D02*
X139199619Y-60579812D01*
X139199619Y-60579812D02*
X139199619Y-60179812D01*
X139199619Y-60179812D02*
X139247238Y-60065527D01*
X139247238Y-60065527D02*
X139294857Y-60008384D01*
X139294857Y-60008384D02*
X139390095Y-59951241D01*
X139390095Y-59951241D02*
X139485333Y-59951241D01*
X139485333Y-59951241D02*
X139580571Y-60008384D01*
X139580571Y-60008384D02*
X139628190Y-60065527D01*
X139628190Y-60065527D02*
X139675809Y-60179812D01*
X139675809Y-60179812D02*
X139675809Y-60579812D01*
X139199619Y-58808384D02*
X139199619Y-59379812D01*
X139199619Y-59379812D02*
X139675809Y-59436955D01*
X139675809Y-59436955D02*
X139628190Y-59379812D01*
X139628190Y-59379812D02*
X139580571Y-59265527D01*
X139580571Y-59265527D02*
X139580571Y-58979812D01*
X139580571Y-58979812D02*
X139628190Y-58865527D01*
X139628190Y-58865527D02*
X139675809Y-58808384D01*
X139675809Y-58808384D02*
X139771047Y-58751241D01*
X139771047Y-58751241D02*
X140009142Y-58751241D01*
X140009142Y-58751241D02*
X140104380Y-58808384D01*
X140104380Y-58808384D02*
X140152000Y-58865527D01*
X140152000Y-58865527D02*
X140199619Y-58979812D01*
X140199619Y-58979812D02*
X140199619Y-59265527D01*
X140199619Y-59265527D02*
X140152000Y-59379812D01*
X140152000Y-59379812D02*
X140104380Y-59436955D01*
X155439619Y-61779812D02*
X154439619Y-61779812D01*
X154439619Y-61779812D02*
X154439619Y-61322669D01*
X154439619Y-61322669D02*
X154487238Y-61208384D01*
X154487238Y-61208384D02*
X154534857Y-61151241D01*
X154534857Y-61151241D02*
X154630095Y-61094098D01*
X154630095Y-61094098D02*
X154772952Y-61094098D01*
X154772952Y-61094098D02*
X154868190Y-61151241D01*
X154868190Y-61151241D02*
X154915809Y-61208384D01*
X154915809Y-61208384D02*
X154963428Y-61322669D01*
X154963428Y-61322669D02*
X154963428Y-61779812D01*
X154915809Y-60179812D02*
X154963428Y-60008384D01*
X154963428Y-60008384D02*
X155011047Y-59951241D01*
X155011047Y-59951241D02*
X155106285Y-59894098D01*
X155106285Y-59894098D02*
X155249142Y-59894098D01*
X155249142Y-59894098D02*
X155344380Y-59951241D01*
X155344380Y-59951241D02*
X155392000Y-60008384D01*
X155392000Y-60008384D02*
X155439619Y-60122669D01*
X155439619Y-60122669D02*
X155439619Y-60579812D01*
X155439619Y-60579812D02*
X154439619Y-60579812D01*
X154439619Y-60579812D02*
X154439619Y-60179812D01*
X154439619Y-60179812D02*
X154487238Y-60065527D01*
X154487238Y-60065527D02*
X154534857Y-60008384D01*
X154534857Y-60008384D02*
X154630095Y-59951241D01*
X154630095Y-59951241D02*
X154725333Y-59951241D01*
X154725333Y-59951241D02*
X154820571Y-60008384D01*
X154820571Y-60008384D02*
X154868190Y-60065527D01*
X154868190Y-60065527D02*
X154915809Y-60179812D01*
X154915809Y-60179812D02*
X154915809Y-60579812D01*
X154439619Y-59494098D02*
X154439619Y-58751241D01*
X154439619Y-58751241D02*
X154820571Y-59151241D01*
X154820571Y-59151241D02*
X154820571Y-58979812D01*
X154820571Y-58979812D02*
X154868190Y-58865527D01*
X154868190Y-58865527D02*
X154915809Y-58808384D01*
X154915809Y-58808384D02*
X155011047Y-58751241D01*
X155011047Y-58751241D02*
X155249142Y-58751241D01*
X155249142Y-58751241D02*
X155344380Y-58808384D01*
X155344380Y-58808384D02*
X155392000Y-58865527D01*
X155392000Y-58865527D02*
X155439619Y-58979812D01*
X155439619Y-58979812D02*
X155439619Y-59322669D01*
X155439619Y-59322669D02*
X155392000Y-59436955D01*
X155392000Y-59436955D02*
X155344380Y-59494098D01*
X112259619Y-61779812D02*
X111259619Y-61779812D01*
X111259619Y-61779812D02*
X111259619Y-61322669D01*
X111259619Y-61322669D02*
X111307238Y-61208384D01*
X111307238Y-61208384D02*
X111354857Y-61151241D01*
X111354857Y-61151241D02*
X111450095Y-61094098D01*
X111450095Y-61094098D02*
X111592952Y-61094098D01*
X111592952Y-61094098D02*
X111688190Y-61151241D01*
X111688190Y-61151241D02*
X111735809Y-61208384D01*
X111735809Y-61208384D02*
X111783428Y-61322669D01*
X111783428Y-61322669D02*
X111783428Y-61779812D01*
X111973904Y-60636955D02*
X111973904Y-60065527D01*
X112259619Y-60751241D02*
X111259619Y-60351241D01*
X111259619Y-60351241D02*
X112259619Y-59951241D01*
X111354857Y-59608384D02*
X111307238Y-59551241D01*
X111307238Y-59551241D02*
X111259619Y-59436956D01*
X111259619Y-59436956D02*
X111259619Y-59151241D01*
X111259619Y-59151241D02*
X111307238Y-59036956D01*
X111307238Y-59036956D02*
X111354857Y-58979813D01*
X111354857Y-58979813D02*
X111450095Y-58922670D01*
X111450095Y-58922670D02*
X111545333Y-58922670D01*
X111545333Y-58922670D02*
X111688190Y-58979813D01*
X111688190Y-58979813D02*
X112259619Y-59665527D01*
X112259619Y-59665527D02*
X112259619Y-58922670D01*
X124959619Y-61779812D02*
X123959619Y-61779812D01*
X123959619Y-61779812D02*
X123959619Y-61322669D01*
X123959619Y-61322669D02*
X124007238Y-61208384D01*
X124007238Y-61208384D02*
X124054857Y-61151241D01*
X124054857Y-61151241D02*
X124150095Y-61094098D01*
X124150095Y-61094098D02*
X124292952Y-61094098D01*
X124292952Y-61094098D02*
X124388190Y-61151241D01*
X124388190Y-61151241D02*
X124435809Y-61208384D01*
X124435809Y-61208384D02*
X124483428Y-61322669D01*
X124483428Y-61322669D02*
X124483428Y-61779812D01*
X124673904Y-60636955D02*
X124673904Y-60065527D01*
X124959619Y-60751241D02*
X123959619Y-60351241D01*
X123959619Y-60351241D02*
X124959619Y-59951241D01*
X123959619Y-59665527D02*
X123959619Y-58865527D01*
X123959619Y-58865527D02*
X124959619Y-59379813D01*
X137659619Y-61779812D02*
X136659619Y-61779812D01*
X136659619Y-61779812D02*
X136659619Y-61322669D01*
X136659619Y-61322669D02*
X136707238Y-61208384D01*
X136707238Y-61208384D02*
X136754857Y-61151241D01*
X136754857Y-61151241D02*
X136850095Y-61094098D01*
X136850095Y-61094098D02*
X136992952Y-61094098D01*
X136992952Y-61094098D02*
X137088190Y-61151241D01*
X137088190Y-61151241D02*
X137135809Y-61208384D01*
X137135809Y-61208384D02*
X137183428Y-61322669D01*
X137183428Y-61322669D02*
X137183428Y-61779812D01*
X137135809Y-60179812D02*
X137183428Y-60008384D01*
X137183428Y-60008384D02*
X137231047Y-59951241D01*
X137231047Y-59951241D02*
X137326285Y-59894098D01*
X137326285Y-59894098D02*
X137469142Y-59894098D01*
X137469142Y-59894098D02*
X137564380Y-59951241D01*
X137564380Y-59951241D02*
X137612000Y-60008384D01*
X137612000Y-60008384D02*
X137659619Y-60122669D01*
X137659619Y-60122669D02*
X137659619Y-60579812D01*
X137659619Y-60579812D02*
X136659619Y-60579812D01*
X136659619Y-60579812D02*
X136659619Y-60179812D01*
X136659619Y-60179812D02*
X136707238Y-60065527D01*
X136707238Y-60065527D02*
X136754857Y-60008384D01*
X136754857Y-60008384D02*
X136850095Y-59951241D01*
X136850095Y-59951241D02*
X136945333Y-59951241D01*
X136945333Y-59951241D02*
X137040571Y-60008384D01*
X137040571Y-60008384D02*
X137088190Y-60065527D01*
X137088190Y-60065527D02*
X137135809Y-60179812D01*
X137135809Y-60179812D02*
X137135809Y-60579812D01*
X136992952Y-58865527D02*
X137659619Y-58865527D01*
X136612000Y-59151241D02*
X137326285Y-59436955D01*
X137326285Y-59436955D02*
X137326285Y-58694098D01*
X147819619Y-61779812D02*
X146819619Y-61779812D01*
X146819619Y-61779812D02*
X146819619Y-61322669D01*
X146819619Y-61322669D02*
X146867238Y-61208384D01*
X146867238Y-61208384D02*
X146914857Y-61151241D01*
X146914857Y-61151241D02*
X147010095Y-61094098D01*
X147010095Y-61094098D02*
X147152952Y-61094098D01*
X147152952Y-61094098D02*
X147248190Y-61151241D01*
X147248190Y-61151241D02*
X147295809Y-61208384D01*
X147295809Y-61208384D02*
X147343428Y-61322669D01*
X147343428Y-61322669D02*
X147343428Y-61779812D01*
X147295809Y-60179812D02*
X147343428Y-60008384D01*
X147343428Y-60008384D02*
X147391047Y-59951241D01*
X147391047Y-59951241D02*
X147486285Y-59894098D01*
X147486285Y-59894098D02*
X147629142Y-59894098D01*
X147629142Y-59894098D02*
X147724380Y-59951241D01*
X147724380Y-59951241D02*
X147772000Y-60008384D01*
X147772000Y-60008384D02*
X147819619Y-60122669D01*
X147819619Y-60122669D02*
X147819619Y-60579812D01*
X147819619Y-60579812D02*
X146819619Y-60579812D01*
X146819619Y-60579812D02*
X146819619Y-60179812D01*
X146819619Y-60179812D02*
X146867238Y-60065527D01*
X146867238Y-60065527D02*
X146914857Y-60008384D01*
X146914857Y-60008384D02*
X147010095Y-59951241D01*
X147010095Y-59951241D02*
X147105333Y-59951241D01*
X147105333Y-59951241D02*
X147200571Y-60008384D01*
X147200571Y-60008384D02*
X147248190Y-60065527D01*
X147248190Y-60065527D02*
X147295809Y-60179812D01*
X147295809Y-60179812D02*
X147295809Y-60579812D01*
X146819619Y-59151241D02*
X146819619Y-59036955D01*
X146819619Y-59036955D02*
X146867238Y-58922669D01*
X146867238Y-58922669D02*
X146914857Y-58865527D01*
X146914857Y-58865527D02*
X147010095Y-58808384D01*
X147010095Y-58808384D02*
X147200571Y-58751241D01*
X147200571Y-58751241D02*
X147438666Y-58751241D01*
X147438666Y-58751241D02*
X147629142Y-58808384D01*
X147629142Y-58808384D02*
X147724380Y-58865527D01*
X147724380Y-58865527D02*
X147772000Y-58922669D01*
X147772000Y-58922669D02*
X147819619Y-59036955D01*
X147819619Y-59036955D02*
X147819619Y-59151241D01*
X147819619Y-59151241D02*
X147772000Y-59265527D01*
X147772000Y-59265527D02*
X147724380Y-59322669D01*
X147724380Y-59322669D02*
X147629142Y-59379812D01*
X147629142Y-59379812D02*
X147438666Y-59436955D01*
X147438666Y-59436955D02*
X147200571Y-59436955D01*
X147200571Y-59436955D02*
X147010095Y-59379812D01*
X147010095Y-59379812D02*
X146914857Y-59322669D01*
X146914857Y-59322669D02*
X146867238Y-59265527D01*
X146867238Y-59265527D02*
X146819619Y-59151241D01*
X117339619Y-61779812D02*
X116339619Y-61779812D01*
X116339619Y-61779812D02*
X116339619Y-61322669D01*
X116339619Y-61322669D02*
X116387238Y-61208384D01*
X116387238Y-61208384D02*
X116434857Y-61151241D01*
X116434857Y-61151241D02*
X116530095Y-61094098D01*
X116530095Y-61094098D02*
X116672952Y-61094098D01*
X116672952Y-61094098D02*
X116768190Y-61151241D01*
X116768190Y-61151241D02*
X116815809Y-61208384D01*
X116815809Y-61208384D02*
X116863428Y-61322669D01*
X116863428Y-61322669D02*
X116863428Y-61779812D01*
X117053904Y-60636955D02*
X117053904Y-60065527D01*
X117339619Y-60751241D02*
X116339619Y-60351241D01*
X116339619Y-60351241D02*
X117339619Y-59951241D01*
X116672952Y-59036956D02*
X117339619Y-59036956D01*
X116292000Y-59322670D02*
X117006285Y-59608384D01*
X117006285Y-59608384D02*
X117006285Y-58865527D01*
X150359619Y-61779812D02*
X149359619Y-61779812D01*
X149359619Y-61779812D02*
X149359619Y-61322669D01*
X149359619Y-61322669D02*
X149407238Y-61208384D01*
X149407238Y-61208384D02*
X149454857Y-61151241D01*
X149454857Y-61151241D02*
X149550095Y-61094098D01*
X149550095Y-61094098D02*
X149692952Y-61094098D01*
X149692952Y-61094098D02*
X149788190Y-61151241D01*
X149788190Y-61151241D02*
X149835809Y-61208384D01*
X149835809Y-61208384D02*
X149883428Y-61322669D01*
X149883428Y-61322669D02*
X149883428Y-61779812D01*
X149835809Y-60179812D02*
X149883428Y-60008384D01*
X149883428Y-60008384D02*
X149931047Y-59951241D01*
X149931047Y-59951241D02*
X150026285Y-59894098D01*
X150026285Y-59894098D02*
X150169142Y-59894098D01*
X150169142Y-59894098D02*
X150264380Y-59951241D01*
X150264380Y-59951241D02*
X150312000Y-60008384D01*
X150312000Y-60008384D02*
X150359619Y-60122669D01*
X150359619Y-60122669D02*
X150359619Y-60579812D01*
X150359619Y-60579812D02*
X149359619Y-60579812D01*
X149359619Y-60579812D02*
X149359619Y-60179812D01*
X149359619Y-60179812D02*
X149407238Y-60065527D01*
X149407238Y-60065527D02*
X149454857Y-60008384D01*
X149454857Y-60008384D02*
X149550095Y-59951241D01*
X149550095Y-59951241D02*
X149645333Y-59951241D01*
X149645333Y-59951241D02*
X149740571Y-60008384D01*
X149740571Y-60008384D02*
X149788190Y-60065527D01*
X149788190Y-60065527D02*
X149835809Y-60179812D01*
X149835809Y-60179812D02*
X149835809Y-60579812D01*
X150359619Y-58751241D02*
X150359619Y-59436955D01*
X150359619Y-59094098D02*
X149359619Y-59094098D01*
X149359619Y-59094098D02*
X149502476Y-59208384D01*
X149502476Y-59208384D02*
X149597714Y-59322669D01*
X149597714Y-59322669D02*
X149645333Y-59436955D01*
X109719619Y-61779812D02*
X108719619Y-61779812D01*
X108719619Y-61779812D02*
X108719619Y-61322669D01*
X108719619Y-61322669D02*
X108767238Y-61208384D01*
X108767238Y-61208384D02*
X108814857Y-61151241D01*
X108814857Y-61151241D02*
X108910095Y-61094098D01*
X108910095Y-61094098D02*
X109052952Y-61094098D01*
X109052952Y-61094098D02*
X109148190Y-61151241D01*
X109148190Y-61151241D02*
X109195809Y-61208384D01*
X109195809Y-61208384D02*
X109243428Y-61322669D01*
X109243428Y-61322669D02*
X109243428Y-61779812D01*
X109433904Y-60636955D02*
X109433904Y-60065527D01*
X109719619Y-60751241D02*
X108719619Y-60351241D01*
X108719619Y-60351241D02*
X109719619Y-59951241D01*
X109719619Y-58922670D02*
X109719619Y-59608384D01*
X109719619Y-59265527D02*
X108719619Y-59265527D01*
X108719619Y-59265527D02*
X108862476Y-59379813D01*
X108862476Y-59379813D02*
X108957714Y-59494098D01*
X108957714Y-59494098D02*
X109005333Y-59608384D01*
X107179619Y-61779812D02*
X106179619Y-61779812D01*
X106179619Y-61779812D02*
X106179619Y-61322669D01*
X106179619Y-61322669D02*
X106227238Y-61208384D01*
X106227238Y-61208384D02*
X106274857Y-61151241D01*
X106274857Y-61151241D02*
X106370095Y-61094098D01*
X106370095Y-61094098D02*
X106512952Y-61094098D01*
X106512952Y-61094098D02*
X106608190Y-61151241D01*
X106608190Y-61151241D02*
X106655809Y-61208384D01*
X106655809Y-61208384D02*
X106703428Y-61322669D01*
X106703428Y-61322669D02*
X106703428Y-61779812D01*
X106893904Y-60636955D02*
X106893904Y-60065527D01*
X107179619Y-60751241D02*
X106179619Y-60351241D01*
X106179619Y-60351241D02*
X107179619Y-59951241D01*
X106179619Y-59322670D02*
X106179619Y-59208384D01*
X106179619Y-59208384D02*
X106227238Y-59094098D01*
X106227238Y-59094098D02*
X106274857Y-59036956D01*
X106274857Y-59036956D02*
X106370095Y-58979813D01*
X106370095Y-58979813D02*
X106560571Y-58922670D01*
X106560571Y-58922670D02*
X106798666Y-58922670D01*
X106798666Y-58922670D02*
X106989142Y-58979813D01*
X106989142Y-58979813D02*
X107084380Y-59036956D01*
X107084380Y-59036956D02*
X107132000Y-59094098D01*
X107132000Y-59094098D02*
X107179619Y-59208384D01*
X107179619Y-59208384D02*
X107179619Y-59322670D01*
X107179619Y-59322670D02*
X107132000Y-59436956D01*
X107132000Y-59436956D02*
X107084380Y-59494098D01*
X107084380Y-59494098D02*
X106989142Y-59551241D01*
X106989142Y-59551241D02*
X106798666Y-59608384D01*
X106798666Y-59608384D02*
X106560571Y-59608384D01*
X106560571Y-59608384D02*
X106370095Y-59551241D01*
X106370095Y-59551241D02*
X106274857Y-59494098D01*
X106274857Y-59494098D02*
X106227238Y-59436956D01*
X106227238Y-59436956D02*
X106179619Y-59322670D01*
X130061615Y-60443666D02*
X131204473Y-60443666D01*
X130633044Y-60824619D02*
X130633044Y-60062714D01*
X132633044Y-59824619D02*
X131918758Y-59824619D01*
X131918758Y-59824619D02*
X131847330Y-60300809D01*
X131847330Y-60300809D02*
X131918758Y-60253190D01*
X131918758Y-60253190D02*
X132061616Y-60205571D01*
X132061616Y-60205571D02*
X132418758Y-60205571D01*
X132418758Y-60205571D02*
X132561616Y-60253190D01*
X132561616Y-60253190D02*
X132633044Y-60300809D01*
X132633044Y-60300809D02*
X132704473Y-60396047D01*
X132704473Y-60396047D02*
X132704473Y-60634142D01*
X132704473Y-60634142D02*
X132633044Y-60729380D01*
X132633044Y-60729380D02*
X132561616Y-60777000D01*
X132561616Y-60777000D02*
X132418758Y-60824619D01*
X132418758Y-60824619D02*
X132061616Y-60824619D01*
X132061616Y-60824619D02*
X131918758Y-60777000D01*
X131918758Y-60777000D02*
X131847330Y-60729380D01*
X133133044Y-59824619D02*
X133633044Y-60824619D01*
X133633044Y-60824619D02*
X134133044Y-59824619D01*
X99581615Y-60443666D02*
X100724473Y-60443666D01*
X100153044Y-60824619D02*
X100153044Y-60062714D01*
X102153044Y-59824619D02*
X101438758Y-59824619D01*
X101438758Y-59824619D02*
X101367330Y-60300809D01*
X101367330Y-60300809D02*
X101438758Y-60253190D01*
X101438758Y-60253190D02*
X101581616Y-60205571D01*
X101581616Y-60205571D02*
X101938758Y-60205571D01*
X101938758Y-60205571D02*
X102081616Y-60253190D01*
X102081616Y-60253190D02*
X102153044Y-60300809D01*
X102153044Y-60300809D02*
X102224473Y-60396047D01*
X102224473Y-60396047D02*
X102224473Y-60634142D01*
X102224473Y-60634142D02*
X102153044Y-60729380D01*
X102153044Y-60729380D02*
X102081616Y-60777000D01*
X102081616Y-60777000D02*
X101938758Y-60824619D01*
X101938758Y-60824619D02*
X101581616Y-60824619D01*
X101581616Y-60824619D02*
X101438758Y-60777000D01*
X101438758Y-60777000D02*
X101367330Y-60729380D01*
X102653044Y-59824619D02*
X103153044Y-60824619D01*
X103153044Y-60824619D02*
X103653044Y-59824619D01*
X142739619Y-61779812D02*
X141739619Y-61779812D01*
X141739619Y-61779812D02*
X141739619Y-61322669D01*
X141739619Y-61322669D02*
X141787238Y-61208384D01*
X141787238Y-61208384D02*
X141834857Y-61151241D01*
X141834857Y-61151241D02*
X141930095Y-61094098D01*
X141930095Y-61094098D02*
X142072952Y-61094098D01*
X142072952Y-61094098D02*
X142168190Y-61151241D01*
X142168190Y-61151241D02*
X142215809Y-61208384D01*
X142215809Y-61208384D02*
X142263428Y-61322669D01*
X142263428Y-61322669D02*
X142263428Y-61779812D01*
X142215809Y-60179812D02*
X142263428Y-60008384D01*
X142263428Y-60008384D02*
X142311047Y-59951241D01*
X142311047Y-59951241D02*
X142406285Y-59894098D01*
X142406285Y-59894098D02*
X142549142Y-59894098D01*
X142549142Y-59894098D02*
X142644380Y-59951241D01*
X142644380Y-59951241D02*
X142692000Y-60008384D01*
X142692000Y-60008384D02*
X142739619Y-60122669D01*
X142739619Y-60122669D02*
X142739619Y-60579812D01*
X142739619Y-60579812D02*
X141739619Y-60579812D01*
X141739619Y-60579812D02*
X141739619Y-60179812D01*
X141739619Y-60179812D02*
X141787238Y-60065527D01*
X141787238Y-60065527D02*
X141834857Y-60008384D01*
X141834857Y-60008384D02*
X141930095Y-59951241D01*
X141930095Y-59951241D02*
X142025333Y-59951241D01*
X142025333Y-59951241D02*
X142120571Y-60008384D01*
X142120571Y-60008384D02*
X142168190Y-60065527D01*
X142168190Y-60065527D02*
X142215809Y-60179812D01*
X142215809Y-60179812D02*
X142215809Y-60579812D01*
X141739619Y-58865527D02*
X141739619Y-59094098D01*
X141739619Y-59094098D02*
X141787238Y-59208384D01*
X141787238Y-59208384D02*
X141834857Y-59265527D01*
X141834857Y-59265527D02*
X141977714Y-59379812D01*
X141977714Y-59379812D02*
X142168190Y-59436955D01*
X142168190Y-59436955D02*
X142549142Y-59436955D01*
X142549142Y-59436955D02*
X142644380Y-59379812D01*
X142644380Y-59379812D02*
X142692000Y-59322669D01*
X142692000Y-59322669D02*
X142739619Y-59208384D01*
X142739619Y-59208384D02*
X142739619Y-58979812D01*
X142739619Y-58979812D02*
X142692000Y-58865527D01*
X142692000Y-58865527D02*
X142644380Y-58808384D01*
X142644380Y-58808384D02*
X142549142Y-58751241D01*
X142549142Y-58751241D02*
X142311047Y-58751241D01*
X142311047Y-58751241D02*
X142215809Y-58808384D01*
X142215809Y-58808384D02*
X142168190Y-58865527D01*
X142168190Y-58865527D02*
X142120571Y-58979812D01*
X142120571Y-58979812D02*
X142120571Y-59208384D01*
X142120571Y-59208384D02*
X142168190Y-59322669D01*
X142168190Y-59322669D02*
X142215809Y-59379812D01*
X142215809Y-59379812D02*
X142311047Y-59436955D01*
D11*
X176022000Y-61214000D02*
X176022000Y-61341000D01*
X176022000Y-61214000D02*
X176149000Y-61214000D01*
X176022000Y-61214000D02*
X176149000Y-61341000D01*
X176149000Y-61214000D02*
X176022000Y-61214000D01*
X176403000Y-60833000D02*
X176403000Y-60960000D01*
X176403000Y-60833000D02*
X176530000Y-60833000D01*
X176403000Y-60960000D02*
X176403000Y-60833000D01*
X176530000Y-61722000D02*
X176149000Y-61341000D01*
X176911000Y-61341000D02*
X176403000Y-60833000D01*
X177546000Y-61976000D02*
X177546000Y-65024000D01*
X177546000Y-61976000D02*
X180340000Y-63500000D01*
X177673000Y-62103000D02*
X177673000Y-64897000D01*
D12*
X177800000Y-62484000D02*
X179578000Y-63500000D01*
X177800000Y-64516000D02*
X177800000Y-62484000D01*
D13*
X178308000Y-63500000D02*
X178816000Y-63500000D01*
D12*
X179578000Y-63500000D02*
X177800000Y-64516000D01*
D11*
X179832000Y-63373000D02*
X179959000Y-63500000D01*
X179832000Y-63627000D02*
X180213000Y-63500000D01*
X180213000Y-63500000D02*
X179832000Y-63373000D01*
X180340000Y-61976000D02*
X180848000Y-61976000D01*
X180340000Y-63500000D02*
X177546000Y-65024000D01*
X180340000Y-65024000D02*
X180340000Y-61976000D01*
D14*
X180594000Y-62230000D02*
X180594000Y-64770000D01*
D11*
X180848000Y-61976000D02*
X180848000Y-65024000D01*
X180848000Y-65024000D02*
X180340000Y-65024000D01*
X181764077Y-63500000D02*
G75*
G02*
X176375923Y-63500000I-2694077J0D01*
G01*
X176375923Y-63500000D02*
G75*
G02*
X181764077Y-63500000I2694077J0D01*
G01*
X159512000Y-61976000D02*
X160020000Y-61976000D01*
X159512000Y-65024000D02*
X159512000Y-61976000D01*
D14*
X159766000Y-64770000D02*
X159766000Y-62230000D01*
D11*
X160020000Y-61976000D02*
X160020000Y-65024000D01*
X160020000Y-63500000D02*
X162814000Y-61976000D01*
X160020000Y-65024000D02*
X159512000Y-65024000D01*
X160147000Y-63500000D02*
X160528000Y-63627000D01*
X160528000Y-63373000D02*
X160147000Y-63500000D01*
X160528000Y-63627000D02*
X160401000Y-63500000D01*
D12*
X160782000Y-63500000D02*
X162560000Y-62484000D01*
D13*
X162052000Y-63500000D02*
X161544000Y-63500000D01*
D12*
X162560000Y-62484000D02*
X162560000Y-64516000D01*
X162560000Y-64516000D02*
X160782000Y-63500000D01*
D11*
X162687000Y-64897000D02*
X162687000Y-62103000D01*
X162814000Y-65024000D02*
X160020000Y-63500000D01*
X162814000Y-65024000D02*
X162814000Y-61976000D01*
X163449000Y-65659000D02*
X163957000Y-66167000D01*
X163830000Y-65278000D02*
X164211000Y-65659000D01*
X163957000Y-66040000D02*
X163957000Y-66167000D01*
X163957000Y-66167000D02*
X163830000Y-66167000D01*
X163957000Y-66167000D02*
X163957000Y-66040000D01*
X164211000Y-65786000D02*
X164338000Y-65786000D01*
X164338000Y-65786000D02*
X164211000Y-65659000D01*
X164338000Y-65786000D02*
X164211000Y-65786000D01*
X164338000Y-65786000D02*
X164338000Y-65659000D01*
X163984077Y-63500000D02*
G75*
G02*
X158595923Y-63500000I-2694077J0D01*
G01*
X158595923Y-63500000D02*
G75*
G02*
X163984077Y-63500000I2694077J0D01*
G01*
M02*
