M48
; DRILL file {KiCad (5.1.4)-1} date 11/10/2020 13:11:09
; FORMAT={-:-/ absolute / inch / decimal}
; #@! TF.CreationDate,2020-10-11T13:11:09+02:00
; #@! TF.GenerationSoftware,Kicad,Pcbnew,(5.1.4)-1
FMAT,2
INCH
T1C0.0315
T2C0.1063
%
G90
G05
T1
X4.7Y-4.25
X4.8Y-4.25
X4.9Y-4.25
X5.0Y-4.25
X5.1Y-4.25
X5.2Y-4.25
X5.3Y-4.25
X6.15Y-4.25
X6.25Y-4.25
X6.35Y-4.25
X6.45Y-4.25
X6.55Y-4.25
X6.65Y-4.25
X5.75Y-3.3
X5.75Y-3.4
X5.75Y-3.6
X5.75Y-3.8
X5.75Y-3.9
X6.05Y-3.3
X6.05Y-3.4
X6.05Y-3.5
X6.05Y-3.8
X6.05Y-3.9
X5.35Y-3.3
X5.35Y-3.4
X5.35Y-3.6
X5.35Y-3.8
X5.35Y-3.9
X5.65Y-3.3
X5.65Y-3.4
X5.65Y-3.5
X5.65Y-3.8
X5.65Y-3.9
X6.15Y-3.3
X6.15Y-3.4
X6.15Y-3.6
X6.15Y-3.8
X6.15Y-3.9
X6.45Y-3.3
X6.45Y-3.4
X6.45Y-3.5
X6.45Y-3.8
X6.45Y-3.9
X4.55Y-3.3
X4.55Y-3.4
X4.55Y-3.6
X4.55Y-3.8
X4.55Y-3.9
X4.85Y-3.3
X4.85Y-3.4
X4.85Y-3.5
X4.85Y-3.8
X4.85Y-3.9
X4.95Y-3.3
X4.95Y-3.4
X4.95Y-3.6
X4.95Y-3.8
X4.95Y-3.9
X5.25Y-3.3
X5.25Y-3.4
X5.25Y-3.5
X5.25Y-3.8
X5.25Y-3.9
X6.55Y-3.3
X6.55Y-3.4
X6.55Y-3.6
X6.55Y-3.8
X6.55Y-3.9
X6.85Y-3.3
X6.85Y-3.4
X6.85Y-3.5
X6.85Y-3.8
X6.85Y-3.9
T2
X4.275Y-3.3
X4.275Y-4.3
X7.075Y-3.3
X7.075Y-4.3
T0
M30
