G04 #@! TF.GenerationSoftware,KiCad,Pcbnew,(5.1.4)-1*
G04 #@! TF.CreationDate,2020-10-11T13:11:02+02:00*
G04 #@! TF.ProjectId,junior-computer-display,6a756e69-6f72-42d6-936f-6d7075746572,rev?*
G04 #@! TF.SameCoordinates,Original*
G04 #@! TF.FileFunction,Legend,Top*
G04 #@! TF.FilePolarity,Positive*
%FSLAX46Y46*%
G04 Gerber Fmt 4.6, Leading zero omitted, Abs format (unit mm)*
G04 Created by KiCad (PCBNEW (5.1.4)-1) date 2020-10-11 13:11:02*
%MOMM*%
%LPD*%
G04 APERTURE LIST*
%ADD10C,0.850000*%
%ADD11C,0.800000*%
%ADD12C,0.300000*%
%ADD13C,0.250000*%
%ADD14C,0.375000*%
G04 APERTURE END LIST*
D10*
X164630000Y-107950000D02*
G75*
G03X164630000Y-107950000I-800000J0D01*
G01*
X167170000Y-107950000D02*
G75*
G03X167170000Y-107950000I-800000J0D01*
G01*
X162090000Y-107950000D02*
G75*
G03X162090000Y-107950000I-800000J0D01*
G01*
X157010000Y-107950000D02*
G75*
G03X157010000Y-107950000I-800000J0D01*
G01*
X169710000Y-107950000D02*
G75*
G03X169710000Y-107950000I-800000J0D01*
G01*
X159550000Y-107950000D02*
G75*
G03X159550000Y-107950000I-800000J0D01*
G01*
X135420000Y-107950000D02*
G75*
G03X135420000Y-107950000I-800000J0D01*
G01*
X132880000Y-107950000D02*
G75*
G03X132880000Y-107950000I-800000J0D01*
G01*
X130340000Y-107950000D02*
G75*
G03X130340000Y-107950000I-800000J0D01*
G01*
X127800000Y-107950000D02*
G75*
G03X127800000Y-107950000I-800000J0D01*
G01*
X125260000Y-107950000D02*
G75*
G03X125260000Y-107950000I-800000J0D01*
G01*
X122720000Y-107950000D02*
G75*
G03X122720000Y-107950000I-800000J0D01*
G01*
X120180000Y-107950000D02*
G75*
G03X120180000Y-107950000I-800000J0D01*
G01*
D11*
X120650000Y-97155000D02*
X116205000Y-97155000D01*
X121285000Y-91440000D02*
X116840000Y-91440000D01*
X121920000Y-85725000D02*
X117475000Y-85725000D01*
X121920000Y-90805000D02*
X122555000Y-86360000D01*
X121285000Y-96520000D02*
X121920000Y-92075000D01*
X116205000Y-90805000D02*
X116840000Y-86360000D01*
X115570000Y-96520000D02*
X116205000Y-92075000D01*
D12*
X114300000Y-100330000D02*
X114300000Y-82550000D01*
X124460000Y-100330000D02*
X114300000Y-100330000D01*
X124460000Y-82550000D02*
X124460000Y-100330000D01*
X114300000Y-82550000D02*
X124460000Y-82550000D01*
D11*
X130810000Y-97155000D02*
X126365000Y-97155000D01*
X131445000Y-91440000D02*
X127000000Y-91440000D01*
X132080000Y-85725000D02*
X127635000Y-85725000D01*
X132080000Y-90805000D02*
X132715000Y-86360000D01*
X131445000Y-96520000D02*
X132080000Y-92075000D01*
X126365000Y-90805000D02*
X127000000Y-86360000D01*
X125730000Y-96520000D02*
X126365000Y-92075000D01*
D12*
X124460000Y-100330000D02*
X124460000Y-82550000D01*
X134620000Y-100330000D02*
X124460000Y-100330000D01*
X134620000Y-82550000D02*
X134620000Y-100330000D01*
X124460000Y-82550000D02*
X134620000Y-82550000D01*
D11*
X140970000Y-97155000D02*
X136525000Y-97155000D01*
X141605000Y-91440000D02*
X137160000Y-91440000D01*
X142240000Y-85725000D02*
X137795000Y-85725000D01*
X142240000Y-90805000D02*
X142875000Y-86360000D01*
X141605000Y-96520000D02*
X142240000Y-92075000D01*
X136525000Y-90805000D02*
X137160000Y-86360000D01*
X135890000Y-96520000D02*
X136525000Y-92075000D01*
D12*
X134620000Y-100330000D02*
X134620000Y-82550000D01*
X144780000Y-100330000D02*
X134620000Y-100330000D01*
X144780000Y-82550000D02*
X144780000Y-100330000D01*
X134620000Y-82550000D02*
X144780000Y-82550000D01*
D11*
X151130000Y-97155000D02*
X146685000Y-97155000D01*
X151765000Y-91440000D02*
X147320000Y-91440000D01*
X152400000Y-85725000D02*
X147955000Y-85725000D01*
X152400000Y-90805000D02*
X153035000Y-86360000D01*
X151765000Y-96520000D02*
X152400000Y-92075000D01*
X146685000Y-90805000D02*
X147320000Y-86360000D01*
X146050000Y-96520000D02*
X146685000Y-92075000D01*
D12*
X144780000Y-100330000D02*
X144780000Y-82550000D01*
X154940000Y-100330000D02*
X144780000Y-100330000D01*
X154940000Y-82550000D02*
X154940000Y-100330000D01*
X144780000Y-82550000D02*
X154940000Y-82550000D01*
D11*
X161290000Y-97155000D02*
X156845000Y-97155000D01*
X161925000Y-91440000D02*
X157480000Y-91440000D01*
X162560000Y-85725000D02*
X158115000Y-85725000D01*
X162560000Y-90805000D02*
X163195000Y-86360000D01*
X161925000Y-96520000D02*
X162560000Y-92075000D01*
X156845000Y-90805000D02*
X157480000Y-86360000D01*
X156210000Y-96520000D02*
X156845000Y-92075000D01*
D12*
X154940000Y-100330000D02*
X154940000Y-82550000D01*
X165100000Y-100330000D02*
X154940000Y-100330000D01*
X165100000Y-82550000D02*
X165100000Y-100330000D01*
X154940000Y-82550000D02*
X165100000Y-82550000D01*
D11*
X171450000Y-97155000D02*
X167005000Y-97155000D01*
X172085000Y-91440000D02*
X167640000Y-91440000D01*
X172720000Y-85725000D02*
X168275000Y-85725000D01*
X172720000Y-90805000D02*
X173355000Y-86360000D01*
X172085000Y-96520000D02*
X172720000Y-92075000D01*
X167005000Y-90805000D02*
X167640000Y-86360000D01*
X166370000Y-96520000D02*
X167005000Y-92075000D01*
D12*
X165100000Y-100330000D02*
X165100000Y-82550000D01*
X175260000Y-100330000D02*
X165100000Y-100330000D01*
X175260000Y-82550000D02*
X175260000Y-100330000D01*
X165100000Y-82550000D02*
X175260000Y-82550000D01*
D13*
X158235714Y-104776666D02*
X158321428Y-104710000D01*
X158492857Y-104643333D01*
X158921428Y-104643333D01*
X159092857Y-104710000D01*
X159178571Y-104776666D01*
X159264285Y-104910000D01*
X159264285Y-105043333D01*
X159178571Y-105243333D01*
X158150000Y-106043333D01*
X159264285Y-106043333D01*
X156724285Y-106043333D02*
X155695714Y-106043333D01*
X156210000Y-106043333D02*
X156210000Y-104643333D01*
X156038571Y-104843333D01*
X155867142Y-104976666D01*
X155695714Y-105043333D01*
X169252857Y-104643333D02*
X168910000Y-104643333D01*
X168738571Y-104710000D01*
X168652857Y-104776666D01*
X168481428Y-104976666D01*
X168395714Y-105243333D01*
X168395714Y-105776666D01*
X168481428Y-105910000D01*
X168567142Y-105976666D01*
X168738571Y-106043333D01*
X169081428Y-106043333D01*
X169252857Y-105976666D01*
X169338571Y-105910000D01*
X169424285Y-105776666D01*
X169424285Y-105443333D01*
X169338571Y-105310000D01*
X169252857Y-105243333D01*
X169081428Y-105176666D01*
X168738571Y-105176666D01*
X168567142Y-105243333D01*
X168481428Y-105310000D01*
X168395714Y-105443333D01*
X164172857Y-105110000D02*
X164172857Y-106043333D01*
X163744285Y-104576666D02*
X163315714Y-105576666D01*
X164430000Y-105576666D01*
X160690000Y-104643333D02*
X161804285Y-104643333D01*
X161204285Y-105176666D01*
X161461428Y-105176666D01*
X161632857Y-105243333D01*
X161718571Y-105310000D01*
X161804285Y-105443333D01*
X161804285Y-105776666D01*
X161718571Y-105910000D01*
X161632857Y-105976666D01*
X161461428Y-106043333D01*
X160947142Y-106043333D01*
X160775714Y-105976666D01*
X160690000Y-105910000D01*
X166798571Y-104643333D02*
X165941428Y-104643333D01*
X165855714Y-105310000D01*
X165941428Y-105243333D01*
X166112857Y-105176666D01*
X166541428Y-105176666D01*
X166712857Y-105243333D01*
X166798571Y-105310000D01*
X166884285Y-105443333D01*
X166884285Y-105776666D01*
X166798571Y-105910000D01*
X166712857Y-105976666D01*
X166541428Y-106043333D01*
X166112857Y-106043333D01*
X165941428Y-105976666D01*
X165855714Y-105910000D01*
X119765714Y-105110000D02*
X119765714Y-106243333D01*
X119680000Y-106376666D01*
X119594285Y-106443333D01*
X119422857Y-106510000D01*
X119165714Y-106510000D01*
X118994285Y-106443333D01*
X119765714Y-105976666D02*
X119594285Y-106043333D01*
X119251428Y-106043333D01*
X119080000Y-105976666D01*
X118994285Y-105910000D01*
X118908571Y-105776666D01*
X118908571Y-105376666D01*
X118994285Y-105243333D01*
X119080000Y-105176666D01*
X119251428Y-105110000D01*
X119594285Y-105110000D01*
X119765714Y-105176666D01*
X121577142Y-105110000D02*
X122262857Y-105110000D01*
X121834285Y-106043333D02*
X121834285Y-104843333D01*
X121920000Y-104710000D01*
X122091428Y-104643333D01*
X122262857Y-104643333D01*
X124802857Y-105976666D02*
X124631428Y-106043333D01*
X124288571Y-106043333D01*
X124117142Y-105976666D01*
X124031428Y-105843333D01*
X124031428Y-105310000D01*
X124117142Y-105176666D01*
X124288571Y-105110000D01*
X124631428Y-105110000D01*
X124802857Y-105176666D01*
X124888571Y-105310000D01*
X124888571Y-105443333D01*
X124031428Y-105576666D01*
X127385714Y-106043333D02*
X127385714Y-104643333D01*
X127385714Y-105976666D02*
X127214285Y-106043333D01*
X126871428Y-106043333D01*
X126700000Y-105976666D01*
X126614285Y-105910000D01*
X126528571Y-105776666D01*
X126528571Y-105376666D01*
X126614285Y-105243333D01*
X126700000Y-105176666D01*
X126871428Y-105110000D01*
X127214285Y-105110000D01*
X127385714Y-105176666D01*
X129968571Y-105976666D02*
X129797142Y-106043333D01*
X129454285Y-106043333D01*
X129282857Y-105976666D01*
X129197142Y-105910000D01*
X129111428Y-105776666D01*
X129111428Y-105376666D01*
X129197142Y-105243333D01*
X129282857Y-105176666D01*
X129454285Y-105110000D01*
X129797142Y-105110000D01*
X129968571Y-105176666D01*
X131694285Y-106043333D02*
X131694285Y-104643333D01*
X131694285Y-105176666D02*
X131865714Y-105110000D01*
X132208571Y-105110000D01*
X132380000Y-105176666D01*
X132465714Y-105243333D01*
X132551428Y-105376666D01*
X132551428Y-105776666D01*
X132465714Y-105910000D01*
X132380000Y-105976666D01*
X132208571Y-106043333D01*
X131865714Y-106043333D01*
X131694285Y-105976666D01*
X135005714Y-106043333D02*
X135005714Y-105310000D01*
X134920000Y-105176666D01*
X134748571Y-105110000D01*
X134405714Y-105110000D01*
X134234285Y-105176666D01*
X135005714Y-105976666D02*
X134834285Y-106043333D01*
X134405714Y-106043333D01*
X134234285Y-105976666D01*
X134148571Y-105843333D01*
X134148571Y-105710000D01*
X134234285Y-105576666D01*
X134405714Y-105510000D01*
X134834285Y-105510000D01*
X135005714Y-105443333D01*
D14*
X116157619Y-103548571D02*
X116157619Y-102048571D01*
X116633809Y-102048571D01*
X116919523Y-102120000D01*
X117110000Y-102262857D01*
X117205238Y-102405714D01*
X117300476Y-102691428D01*
X117300476Y-102905714D01*
X117205238Y-103191428D01*
X117110000Y-103334285D01*
X116919523Y-103477142D01*
X116633809Y-103548571D01*
X116157619Y-103548571D01*
X118157619Y-103548571D02*
X118157619Y-102548571D01*
X118157619Y-102048571D02*
X118062380Y-102120000D01*
X118157619Y-102191428D01*
X118252857Y-102120000D01*
X118157619Y-102048571D01*
X118157619Y-102191428D01*
X120157619Y-103548571D02*
X119014761Y-103548571D01*
X119586190Y-103548571D02*
X119586190Y-102048571D01*
X119395714Y-102262857D01*
X119205238Y-102405714D01*
X119014761Y-102477142D01*
X126317619Y-103548571D02*
X126317619Y-102048571D01*
X126793809Y-102048571D01*
X127079523Y-102120000D01*
X127270000Y-102262857D01*
X127365238Y-102405714D01*
X127460476Y-102691428D01*
X127460476Y-102905714D01*
X127365238Y-103191428D01*
X127270000Y-103334285D01*
X127079523Y-103477142D01*
X126793809Y-103548571D01*
X126317619Y-103548571D01*
X128317619Y-103548571D02*
X128317619Y-102548571D01*
X128317619Y-102048571D02*
X128222380Y-102120000D01*
X128317619Y-102191428D01*
X128412857Y-102120000D01*
X128317619Y-102048571D01*
X128317619Y-102191428D01*
X129174761Y-102191428D02*
X129270000Y-102120000D01*
X129460476Y-102048571D01*
X129936666Y-102048571D01*
X130127142Y-102120000D01*
X130222380Y-102191428D01*
X130317619Y-102334285D01*
X130317619Y-102477142D01*
X130222380Y-102691428D01*
X129079523Y-103548571D01*
X130317619Y-103548571D01*
X136477619Y-103548571D02*
X136477619Y-102048571D01*
X136953809Y-102048571D01*
X137239523Y-102120000D01*
X137430000Y-102262857D01*
X137525238Y-102405714D01*
X137620476Y-102691428D01*
X137620476Y-102905714D01*
X137525238Y-103191428D01*
X137430000Y-103334285D01*
X137239523Y-103477142D01*
X136953809Y-103548571D01*
X136477619Y-103548571D01*
X138477619Y-103548571D02*
X138477619Y-102548571D01*
X138477619Y-102048571D02*
X138382380Y-102120000D01*
X138477619Y-102191428D01*
X138572857Y-102120000D01*
X138477619Y-102048571D01*
X138477619Y-102191428D01*
X139239523Y-102048571D02*
X140477619Y-102048571D01*
X139810952Y-102620000D01*
X140096666Y-102620000D01*
X140287142Y-102691428D01*
X140382380Y-102762857D01*
X140477619Y-102905714D01*
X140477619Y-103262857D01*
X140382380Y-103405714D01*
X140287142Y-103477142D01*
X140096666Y-103548571D01*
X139525238Y-103548571D01*
X139334761Y-103477142D01*
X139239523Y-103405714D01*
X146637619Y-103548571D02*
X146637619Y-102048571D01*
X147113809Y-102048571D01*
X147399523Y-102120000D01*
X147590000Y-102262857D01*
X147685238Y-102405714D01*
X147780476Y-102691428D01*
X147780476Y-102905714D01*
X147685238Y-103191428D01*
X147590000Y-103334285D01*
X147399523Y-103477142D01*
X147113809Y-103548571D01*
X146637619Y-103548571D01*
X148637619Y-103548571D02*
X148637619Y-102548571D01*
X148637619Y-102048571D02*
X148542380Y-102120000D01*
X148637619Y-102191428D01*
X148732857Y-102120000D01*
X148637619Y-102048571D01*
X148637619Y-102191428D01*
X150447142Y-102548571D02*
X150447142Y-103548571D01*
X149970952Y-101977142D02*
X149494761Y-103048571D01*
X150732857Y-103048571D01*
X156797619Y-103548571D02*
X156797619Y-102048571D01*
X157273809Y-102048571D01*
X157559523Y-102120000D01*
X157750000Y-102262857D01*
X157845238Y-102405714D01*
X157940476Y-102691428D01*
X157940476Y-102905714D01*
X157845238Y-103191428D01*
X157750000Y-103334285D01*
X157559523Y-103477142D01*
X157273809Y-103548571D01*
X156797619Y-103548571D01*
X158797619Y-103548571D02*
X158797619Y-102548571D01*
X158797619Y-102048571D02*
X158702380Y-102120000D01*
X158797619Y-102191428D01*
X158892857Y-102120000D01*
X158797619Y-102048571D01*
X158797619Y-102191428D01*
X160702380Y-102048571D02*
X159750000Y-102048571D01*
X159654761Y-102762857D01*
X159750000Y-102691428D01*
X159940476Y-102620000D01*
X160416666Y-102620000D01*
X160607142Y-102691428D01*
X160702380Y-102762857D01*
X160797619Y-102905714D01*
X160797619Y-103262857D01*
X160702380Y-103405714D01*
X160607142Y-103477142D01*
X160416666Y-103548571D01*
X159940476Y-103548571D01*
X159750000Y-103477142D01*
X159654761Y-103405714D01*
X166957619Y-103548571D02*
X166957619Y-102048571D01*
X167433809Y-102048571D01*
X167719523Y-102120000D01*
X167910000Y-102262857D01*
X168005238Y-102405714D01*
X168100476Y-102691428D01*
X168100476Y-102905714D01*
X168005238Y-103191428D01*
X167910000Y-103334285D01*
X167719523Y-103477142D01*
X167433809Y-103548571D01*
X166957619Y-103548571D01*
X168957619Y-103548571D02*
X168957619Y-102548571D01*
X168957619Y-102048571D02*
X168862380Y-102120000D01*
X168957619Y-102191428D01*
X169052857Y-102120000D01*
X168957619Y-102048571D01*
X168957619Y-102191428D01*
X170767142Y-102048571D02*
X170386190Y-102048571D01*
X170195714Y-102120000D01*
X170100476Y-102191428D01*
X169910000Y-102405714D01*
X169814761Y-102691428D01*
X169814761Y-103262857D01*
X169910000Y-103405714D01*
X170005238Y-103477142D01*
X170195714Y-103548571D01*
X170576666Y-103548571D01*
X170767142Y-103477142D01*
X170862380Y-103405714D01*
X170957619Y-103262857D01*
X170957619Y-102905714D01*
X170862380Y-102762857D01*
X170767142Y-102691428D01*
X170576666Y-102620000D01*
X170195714Y-102620000D01*
X170005238Y-102691428D01*
X169910000Y-102762857D01*
X169814761Y-102905714D01*
M02*
