G04 #@! TF.GenerationSoftware,KiCad,Pcbnew,8.0.2*
G04 #@! TF.CreationDate,2024-12-08T11:20:59+01:00*
G04 #@! TF.ProjectId,junior-interface,6a756e69-6f72-42d6-996e-746572666163,rev?*
G04 #@! TF.SameCoordinates,Original*
G04 #@! TF.FileFunction,Copper,L2,Bot*
G04 #@! TF.FilePolarity,Positive*
%FSLAX46Y46*%
G04 Gerber Fmt 4.6, Leading zero omitted, Abs format (unit mm)*
G04 Created by KiCad (PCBNEW 8.0.2) date 2024-12-08 11:20:59*
%MOMM*%
%LPD*%
G01*
G04 APERTURE LIST*
G04 Aperture macros list*
%AMRoundRect*
0 Rectangle with rounded corners*
0 $1 Rounding radius*
0 $2 $3 $4 $5 $6 $7 $8 $9 X,Y pos of 4 corners*
0 Add a 4 corners polygon primitive as box body*
4,1,4,$2,$3,$4,$5,$6,$7,$8,$9,$2,$3,0*
0 Add four circle primitives for the rounded corners*
1,1,$1+$1,$2,$3*
1,1,$1+$1,$4,$5*
1,1,$1+$1,$6,$7*
1,1,$1+$1,$8,$9*
0 Add four rect primitives between the rounded corners*
20,1,$1+$1,$2,$3,$4,$5,0*
20,1,$1+$1,$4,$5,$6,$7,0*
20,1,$1+$1,$6,$7,$8,$9,0*
20,1,$1+$1,$8,$9,$2,$3,0*%
%AMOutline5P*
0 Free polygon, 5 corners , with rotation*
0 The origin of the aperture is its center*
0 number of corners: always 5*
0 $1 to $10 corner X, Y*
0 $11 Rotation angle, in degrees counterclockwise*
0 create outline with 5 corners*
4,1,5,$1,$2,$3,$4,$5,$6,$7,$8,$9,$10,$1,$2,$11*%
%AMOutline6P*
0 Free polygon, 6 corners , with rotation*
0 The origin of the aperture is its center*
0 number of corners: always 6*
0 $1 to $12 corner X, Y*
0 $13 Rotation angle, in degrees counterclockwise*
0 create outline with 6 corners*
4,1,6,$1,$2,$3,$4,$5,$6,$7,$8,$9,$10,$11,$12,$1,$2,$13*%
%AMOutline7P*
0 Free polygon, 7 corners , with rotation*
0 The origin of the aperture is its center*
0 number of corners: always 7*
0 $1 to $14 corner X, Y*
0 $15 Rotation angle, in degrees counterclockwise*
0 create outline with 7 corners*
4,1,7,$1,$2,$3,$4,$5,$6,$7,$8,$9,$10,$11,$12,$13,$14,$1,$2,$15*%
%AMOutline8P*
0 Free polygon, 8 corners , with rotation*
0 The origin of the aperture is its center*
0 number of corners: always 8*
0 $1 to $16 corner X, Y*
0 $17 Rotation angle, in degrees counterclockwise*
0 create outline with 8 corners*
4,1,8,$1,$2,$3,$4,$5,$6,$7,$8,$9,$10,$11,$12,$13,$14,$15,$16,$1,$2,$17*%
%AMFreePoly0*
4,1,9,1.200000,0.500000,1.200000,-0.500000,0.500000,-1.200000,-0.500000,-1.200000,-1.200000,-0.500000,-1.200000,0.500000,-0.500000,1.200000,0.500000,1.200000,1.200000,0.500000,1.200000,0.500000,$1*%
%AMFreePoly1*
4,1,9,1.500000,0.600000,1.500000,-0.600000,0.600000,-1.500000,-0.600000,-1.500000,-1.500000,-0.600000,-1.500000,0.600000,-0.600000,1.500000,0.600000,1.500000,1.500000,0.600000,1.500000,0.600000,$1*%
%AMFreePoly2*
4,1,9,0.900000,0.350000,0.900000,-0.350000,0.350000,-0.900000,-0.350000,-0.900000,-0.900000,-0.350000,-0.900000,0.350000,-0.350000,0.900000,0.350000,0.900000,0.900000,0.350000,0.900000,0.350000,$1*%
%AMFreePoly3*
4,1,9,0.800000,0.350000,0.800000,-0.350000,0.350000,-0.800000,-0.350000,-0.800000,-0.800000,-0.350000,-0.800000,0.350000,-0.350000,0.800000,0.350000,0.800000,0.800000,0.350000,0.800000,0.350000,$1*%
G04 Aperture macros list end*
G04 #@! TA.AperFunction,ComponentPad*
%ADD10RoundRect,0.350000X0.350000X1.150000X-0.350000X1.150000X-0.350000X-1.150000X0.350000X-1.150000X0*%
G04 #@! TD*
G04 #@! TA.AperFunction,ComponentPad*
%ADD11RoundRect,0.350000X-1.150000X0.350000X-1.150000X-0.350000X1.150000X-0.350000X1.150000X0.350000X0*%
G04 #@! TD*
G04 #@! TA.AperFunction,ComponentPad*
%ADD12RoundRect,0.350000X0.900000X-0.350000X0.900000X0.350000X-0.900000X0.350000X-0.900000X-0.350000X0*%
G04 #@! TD*
G04 #@! TA.AperFunction,ComponentPad*
%ADD13RoundRect,0.350000X1.150000X-0.350000X1.150000X0.350000X-1.150000X0.350000X-1.150000X-0.350000X0*%
G04 #@! TD*
G04 #@! TA.AperFunction,ComponentPad*
%ADD14FreePoly0,0.000000*%
G04 #@! TD*
G04 #@! TA.AperFunction,ComponentPad*
%ADD15FreePoly0,180.000000*%
G04 #@! TD*
G04 #@! TA.AperFunction,ComponentPad*
%ADD16FreePoly0,270.000000*%
G04 #@! TD*
G04 #@! TA.AperFunction,ComponentPad*
%ADD17RoundRect,0.350000X0.350000X1.050000X-0.350000X1.050000X-0.350000X-1.050000X0.350000X-1.050000X0*%
G04 #@! TD*
G04 #@! TA.AperFunction,ComponentPad*
%ADD18C,1.800000*%
G04 #@! TD*
G04 #@! TA.AperFunction,ComponentPad*
%ADD19FreePoly0,90.000000*%
G04 #@! TD*
G04 #@! TA.AperFunction,ComponentPad*
%ADD20C,2.000000*%
G04 #@! TD*
G04 #@! TA.AperFunction,ComponentPad*
%ADD21FreePoly1,0.000000*%
G04 #@! TD*
G04 #@! TA.AperFunction,ComponentPad*
%ADD22FreePoly2,270.000000*%
G04 #@! TD*
G04 #@! TA.AperFunction,ComponentPad*
%ADD23FreePoly2,90.000000*%
G04 #@! TD*
G04 #@! TA.AperFunction,ComponentPad*
%ADD24Outline8P,-1.250000X2.000000X-0.750000X2.500000X0.750000X2.500000X1.250000X2.000000X1.250000X-2.000000X0.750000X-2.500000X-0.750000X-2.500000X-1.250000X-2.000000X0.000000*%
G04 #@! TD*
G04 #@! TA.AperFunction,ComponentPad*
%ADD25FreePoly3,270.000000*%
G04 #@! TD*
G04 #@! TA.AperFunction,ViaPad*
%ADD26C,1.500000*%
G04 #@! TD*
G04 #@! TA.AperFunction,ViaPad*
%ADD27C,2.000000*%
G04 #@! TD*
G04 #@! TA.AperFunction,ViaPad*
%ADD28C,1.800000*%
G04 #@! TD*
G04 #@! TA.AperFunction,ViaPad*
%ADD29C,0.800000*%
G04 #@! TD*
G04 #@! TA.AperFunction,Conductor*
%ADD30C,0.750000*%
G04 #@! TD*
G04 #@! TA.AperFunction,Conductor*
%ADD31C,0.500000*%
G04 #@! TD*
G04 #@! TA.AperFunction,Conductor*
%ADD32C,0.250000*%
G04 #@! TD*
G04 #@! TA.AperFunction,Conductor*
%ADD33C,1.000000*%
G04 #@! TD*
G04 #@! TA.AperFunction,Conductor*
%ADD34C,1.500000*%
G04 #@! TD*
G04 #@! TA.AperFunction,Conductor*
%ADD35C,0.700000*%
G04 #@! TD*
G04 #@! TA.AperFunction,Conductor*
%ADD36C,0.450000*%
G04 #@! TD*
G04 #@! TA.AperFunction,Conductor*
%ADD37C,0.600000*%
G04 #@! TD*
G04 APERTURE END LIST*
D10*
X163830000Y-86360000D03*
X161290000Y-86360000D03*
X158750000Y-86360000D03*
X156210000Y-86360000D03*
X153670000Y-86360000D03*
X151130000Y-86360000D03*
X148590000Y-86360000D03*
X146050000Y-86360000D03*
X143510000Y-86360000D03*
X143510000Y-93980000D03*
X146050000Y-93980000D03*
X148590000Y-93980000D03*
X151130000Y-93980000D03*
X153670000Y-93980000D03*
X156210000Y-93980000D03*
X158750000Y-93980000D03*
X161290000Y-93980000D03*
X163830000Y-93980000D03*
X163830000Y-99060000D03*
X161290000Y-99060000D03*
X158750000Y-99060000D03*
X156210000Y-99060000D03*
X153670000Y-99060000D03*
X151130000Y-99060000D03*
X148590000Y-99060000D03*
X146050000Y-99060000D03*
X143510000Y-99060000D03*
X143510000Y-106680000D03*
X146050000Y-106680000D03*
X148590000Y-106680000D03*
X151130000Y-106680000D03*
X153670000Y-106680000D03*
X156210000Y-106680000D03*
X158750000Y-106680000D03*
X161290000Y-106680000D03*
X163830000Y-106680000D03*
D11*
X187960000Y-115570000D03*
X187960000Y-118110000D03*
X187960000Y-120650000D03*
X187960000Y-123190000D03*
X187960000Y-125730000D03*
X187960000Y-128270000D03*
X187960000Y-130810000D03*
X187960000Y-133350000D03*
X187960000Y-135890000D03*
X187960000Y-138430000D03*
X187960000Y-140970000D03*
X187960000Y-143510000D03*
X203200000Y-143510000D03*
X203200000Y-140970000D03*
X203200000Y-138430000D03*
X203200000Y-135890000D03*
X203200000Y-133350000D03*
X203200000Y-130810000D03*
X203200000Y-128270000D03*
X203200000Y-125730000D03*
X203200000Y-123190000D03*
X203200000Y-120650000D03*
X203200000Y-118110000D03*
X203200000Y-115570000D03*
X109220000Y-111760000D03*
X109220000Y-114300000D03*
X109220000Y-116840000D03*
X109220000Y-119380000D03*
X116840000Y-119380000D03*
X116840000Y-116840000D03*
X116840000Y-114300000D03*
X116840000Y-111760000D03*
X66040000Y-135890000D03*
X66040000Y-138430000D03*
X66040000Y-140970000D03*
X66040000Y-143510000D03*
X73660000Y-143510000D03*
X73660000Y-140970000D03*
X73660000Y-138430000D03*
X73660000Y-135890000D03*
X222250000Y-86360000D03*
X222250000Y-88900000D03*
X222250000Y-91440000D03*
X222250000Y-93980000D03*
X222250000Y-96520000D03*
X222250000Y-99060000D03*
X222250000Y-101600000D03*
X222250000Y-104140000D03*
X222250000Y-106680000D03*
X222250000Y-109220000D03*
X229870000Y-109220000D03*
X229870000Y-106680000D03*
X229870000Y-104140000D03*
X229870000Y-101600000D03*
X229870000Y-99060000D03*
X229870000Y-96520000D03*
X229870000Y-93980000D03*
X229870000Y-91440000D03*
X229870000Y-88900000D03*
X229870000Y-86360000D03*
X222250000Y-120650000D03*
X222250000Y-123190000D03*
X222250000Y-125730000D03*
X222250000Y-128270000D03*
X222250000Y-130810000D03*
X222250000Y-133350000D03*
X222250000Y-135890000D03*
X222250000Y-138430000D03*
X222250000Y-140970000D03*
X222250000Y-143510000D03*
X229870000Y-143510000D03*
X229870000Y-140970000D03*
X229870000Y-138430000D03*
X229870000Y-135890000D03*
X229870000Y-133350000D03*
X229870000Y-130810000D03*
X229870000Y-128270000D03*
X229870000Y-125730000D03*
X229870000Y-123190000D03*
X229870000Y-120650000D03*
D12*
X215130000Y-74930000D03*
X215130000Y-72390000D03*
D13*
X214630000Y-69850000D03*
X214630000Y-67310000D03*
X214630000Y-64770000D03*
X214630000Y-62230000D03*
X214630000Y-59690000D03*
X207010000Y-59690000D03*
X207010000Y-62230000D03*
X207010000Y-64770000D03*
X207010000Y-67310000D03*
X207010000Y-69850000D03*
X207010000Y-72390000D03*
X207010000Y-74930000D03*
D10*
X196850000Y-86360000D03*
X194310000Y-86360000D03*
X191770000Y-86360000D03*
X189230000Y-86360000D03*
X186690000Y-86360000D03*
X184150000Y-86360000D03*
X181610000Y-86360000D03*
X181610000Y-93980000D03*
X184150000Y-93980000D03*
X186690000Y-93980000D03*
X189230000Y-93980000D03*
X191770000Y-93980000D03*
X194310000Y-93980000D03*
X196850000Y-93980000D03*
D11*
X144780000Y-128270000D03*
X144780000Y-130810000D03*
X144780000Y-133350000D03*
X144780000Y-135890000D03*
X144780000Y-138430000D03*
X144780000Y-140970000D03*
X144780000Y-143510000D03*
X152400000Y-143510000D03*
X152400000Y-140970000D03*
X152400000Y-138430000D03*
X152400000Y-135890000D03*
X152400000Y-133350000D03*
X152400000Y-130810000D03*
X152400000Y-128270000D03*
D10*
X196850000Y-99060000D03*
X194310000Y-99060000D03*
X191770000Y-99060000D03*
X189230000Y-99060000D03*
X186690000Y-99060000D03*
X184150000Y-99060000D03*
X181610000Y-99060000D03*
X181610000Y-106680000D03*
X184150000Y-106680000D03*
X186690000Y-106680000D03*
X189230000Y-106680000D03*
X191770000Y-106680000D03*
X194310000Y-106680000D03*
X196850000Y-106680000D03*
X163830000Y-72390000D03*
X161290000Y-72390000D03*
X158750000Y-72390000D03*
X156210000Y-72390000D03*
X153670000Y-72390000D03*
X151130000Y-72390000D03*
X148590000Y-72390000D03*
X146050000Y-72390000D03*
X143510000Y-72390000D03*
X140970000Y-72390000D03*
X140970000Y-80010000D03*
X143510000Y-80010000D03*
X146050000Y-80010000D03*
X148590000Y-80010000D03*
X151130000Y-80010000D03*
X153670000Y-80010000D03*
X156210000Y-80010000D03*
X158750000Y-80010000D03*
X161290000Y-80010000D03*
X163830000Y-80010000D03*
D13*
X229870000Y-74930000D03*
X229870000Y-72390000D03*
X229870000Y-69850000D03*
X229870000Y-67310000D03*
X229870000Y-64770000D03*
X229870000Y-62230000D03*
X229870000Y-59690000D03*
X222250000Y-59690000D03*
X222250000Y-62230000D03*
X222250000Y-64770000D03*
X222250000Y-67310000D03*
X222250000Y-69850000D03*
X222250000Y-72390000D03*
X222250000Y-74930000D03*
D10*
X76200000Y-72390000D03*
X73660000Y-72390000D03*
X71120000Y-72390000D03*
X68580000Y-72390000D03*
X66040000Y-72390000D03*
X63500000Y-72390000D03*
X60960000Y-72390000D03*
X60960000Y-80010000D03*
X63500000Y-80010000D03*
X66040000Y-80010000D03*
X68580000Y-80010000D03*
X71120000Y-80010000D03*
X73660000Y-80010000D03*
X76200000Y-80010000D03*
D11*
X167640000Y-115570000D03*
X167640000Y-118110000D03*
X167640000Y-120650000D03*
X167640000Y-123190000D03*
X167640000Y-125730000D03*
X167640000Y-128270000D03*
X167640000Y-130810000D03*
X167640000Y-133350000D03*
X167640000Y-135890000D03*
X167640000Y-138430000D03*
X167640000Y-140970000D03*
X167640000Y-143510000D03*
X182880000Y-143510000D03*
X182880000Y-140970000D03*
X182880000Y-138430000D03*
X182880000Y-135890000D03*
X182880000Y-133350000D03*
X182880000Y-130810000D03*
X182880000Y-128270000D03*
X182880000Y-125730000D03*
X182880000Y-123190000D03*
X182880000Y-120650000D03*
X182880000Y-118110000D03*
X182880000Y-115570000D03*
D14*
X125730000Y-146050000D03*
X138430000Y-146050000D03*
D15*
X138430000Y-140970000D03*
X125730000Y-140970000D03*
D14*
X125730000Y-135890000D03*
X138430000Y-135890000D03*
D15*
X138430000Y-130810000D03*
X125730000Y-130810000D03*
D14*
X125730000Y-125730000D03*
X138430000Y-125730000D03*
D16*
X121285000Y-135890000D03*
X121285000Y-143510000D03*
D15*
X191770000Y-58420000D03*
X179070000Y-58420000D03*
X191770000Y-63500000D03*
X179070000Y-63500000D03*
X138430000Y-120650000D03*
X125730000Y-120650000D03*
D17*
X153670000Y-40640000D03*
X151130000Y-40640000D03*
X148590000Y-40640000D03*
X146050000Y-40640000D03*
X143510000Y-40640000D03*
X140970000Y-40640000D03*
X138430000Y-40640000D03*
X135890000Y-40640000D03*
X133350000Y-40640000D03*
X130810000Y-40640000D03*
X128270000Y-40640000D03*
X125730000Y-40640000D03*
X123190000Y-40640000D03*
X120650000Y-40640000D03*
X118110000Y-40640000D03*
X115570000Y-40640000D03*
X113030000Y-40640000D03*
X110490000Y-40640000D03*
X107950000Y-40640000D03*
X105410000Y-40640000D03*
D14*
X73660000Y-105410000D03*
X63500000Y-105410000D03*
X60960000Y-110490000D03*
X73660000Y-110490000D03*
D16*
X57150000Y-105410000D03*
X57150000Y-118110000D03*
D14*
X60960000Y-115570000D03*
X73660000Y-115570000D03*
D18*
X81280000Y-110490000D03*
X78740000Y-107950000D03*
X81280000Y-105410000D03*
D11*
X109220000Y-128270000D03*
X109220000Y-130810000D03*
X109220000Y-133350000D03*
X109220000Y-135890000D03*
X109220000Y-138430000D03*
X109220000Y-140970000D03*
X109220000Y-143510000D03*
X116840000Y-143510000D03*
X116840000Y-140970000D03*
X116840000Y-138430000D03*
X116840000Y-135890000D03*
X116840000Y-133350000D03*
X116840000Y-130810000D03*
X116840000Y-128270000D03*
D10*
X163830000Y-52070000D03*
X161290000Y-52070000D03*
X158750000Y-52070000D03*
X156210000Y-52070000D03*
X153670000Y-52070000D03*
X151130000Y-52070000D03*
X148590000Y-52070000D03*
X146050000Y-52070000D03*
X143510000Y-52070000D03*
X140970000Y-52070000D03*
X138430000Y-52070000D03*
X135890000Y-52070000D03*
X133350000Y-52070000D03*
X130810000Y-52070000D03*
X128270000Y-52070000D03*
X125730000Y-52070000D03*
X123190000Y-52070000D03*
X120650000Y-52070000D03*
X118110000Y-52070000D03*
X115570000Y-52070000D03*
X115570000Y-67310000D03*
X118110000Y-67310000D03*
X120650000Y-67310000D03*
X123190000Y-67310000D03*
X125730000Y-67310000D03*
X128270000Y-67310000D03*
X130810000Y-67310000D03*
X133350000Y-67310000D03*
X135890000Y-67310000D03*
X138430000Y-67310000D03*
X140970000Y-67310000D03*
X143510000Y-67310000D03*
X146050000Y-67310000D03*
X148590000Y-67310000D03*
X151130000Y-67310000D03*
X153670000Y-67310000D03*
X156210000Y-67310000D03*
X158750000Y-67310000D03*
X161290000Y-67310000D03*
X163830000Y-67310000D03*
D16*
X81280000Y-138430000D03*
X81280000Y-146050000D03*
D19*
X60960000Y-146050000D03*
X60960000Y-138430000D03*
D15*
X101600000Y-146050000D03*
X88900000Y-146050000D03*
X101600000Y-135890000D03*
X88900000Y-135890000D03*
D14*
X88900000Y-130810000D03*
X101600000Y-130810000D03*
X60960000Y-130810000D03*
X73660000Y-130810000D03*
D15*
X73660000Y-125730000D03*
X60960000Y-125730000D03*
X73660000Y-120650000D03*
X60960000Y-120650000D03*
X101600000Y-140970000D03*
X88900000Y-140970000D03*
D19*
X110490000Y-52070000D03*
X110490000Y-46990000D03*
D15*
X101600000Y-46990000D03*
X88900000Y-46990000D03*
X101600000Y-52070000D03*
X88900000Y-52070000D03*
D19*
X109220000Y-85090000D03*
X109220000Y-72390000D03*
X116840000Y-85090000D03*
X116840000Y-72390000D03*
D10*
X76200000Y-46990000D03*
X73660000Y-46990000D03*
X71120000Y-46990000D03*
X68580000Y-46990000D03*
X66040000Y-46990000D03*
X63500000Y-46990000D03*
X60960000Y-46990000D03*
X60960000Y-54610000D03*
X63500000Y-54610000D03*
X66040000Y-54610000D03*
X68580000Y-54610000D03*
X71120000Y-54610000D03*
X73660000Y-54610000D03*
X76200000Y-54610000D03*
X76200000Y-59690000D03*
X73660000Y-59690000D03*
X71120000Y-59690000D03*
X68580000Y-59690000D03*
X66040000Y-59690000D03*
X63500000Y-59690000D03*
X60960000Y-59690000D03*
X60960000Y-67310000D03*
X63500000Y-67310000D03*
X66040000Y-67310000D03*
X68580000Y-67310000D03*
X71120000Y-67310000D03*
X73660000Y-67310000D03*
X76200000Y-67310000D03*
D18*
X88900000Y-59690000D03*
X91440000Y-57150000D03*
X93980000Y-59690000D03*
X99060000Y-59690000D03*
X101600000Y-57150000D03*
X104140000Y-59690000D03*
D15*
X133350000Y-105410000D03*
X125730000Y-105410000D03*
D14*
X134620000Y-100330000D03*
X132080000Y-90170000D03*
X132080000Y-95250000D03*
X129540000Y-100330000D03*
D15*
X138430000Y-115570000D03*
X125730000Y-115570000D03*
X101600000Y-125730000D03*
X88900000Y-125730000D03*
X138430000Y-110490000D03*
X125730000Y-110490000D03*
X68580000Y-92710000D03*
X60960000Y-92710000D03*
D14*
X109220000Y-106680000D03*
X116840000Y-106680000D03*
D16*
X81280000Y-118110000D03*
X81280000Y-125730000D03*
D15*
X101600000Y-120650000D03*
X93980000Y-120650000D03*
D16*
X127000000Y-77470000D03*
X127000000Y-85090000D03*
D15*
X80010000Y-92710000D03*
X72390000Y-92710000D03*
D16*
X121920000Y-99060000D03*
X121920000Y-88900000D03*
X121920000Y-85090000D03*
X121920000Y-74930000D03*
D15*
X74930000Y-100330000D03*
X67310000Y-97790000D03*
X62230000Y-100330000D03*
X101600000Y-80010000D03*
X88900000Y-80010000D03*
D14*
X88900000Y-105410000D03*
X101600000Y-105410000D03*
D15*
X101600000Y-110490000D03*
X88900000Y-110490000D03*
D14*
X88900000Y-115570000D03*
X101600000Y-115570000D03*
X88900000Y-74930000D03*
X101600000Y-74930000D03*
D16*
X109220000Y-88900000D03*
X109220000Y-101600000D03*
X116840000Y-88900000D03*
X116840000Y-101600000D03*
D15*
X68580000Y-85090000D03*
X60960000Y-85090000D03*
D16*
X85090000Y-93980000D03*
X85090000Y-101600000D03*
D14*
X72390000Y-85090000D03*
X80010000Y-85090000D03*
X88900000Y-90170000D03*
X101600000Y-90170000D03*
D15*
X101600000Y-64770000D03*
X88900000Y-64770000D03*
D14*
X88900000Y-69850000D03*
X101600000Y-69850000D03*
D15*
X101600000Y-85090000D03*
X88900000Y-85090000D03*
D14*
X60960000Y-88900000D03*
X73660000Y-88900000D03*
D15*
X229870000Y-115570000D03*
X222250000Y-115570000D03*
D19*
X218440000Y-74930000D03*
X218440000Y-67310000D03*
D16*
X172720000Y-86360000D03*
X172720000Y-93980000D03*
X160020000Y-139700000D03*
X160020000Y-144780000D03*
D20*
X51816000Y-98375000D03*
X51816000Y-101145000D03*
X51816000Y-103915000D03*
X51816000Y-106685000D03*
X51816000Y-109455000D03*
X51816000Y-112225000D03*
X51816000Y-114995000D03*
X51816000Y-117765000D03*
X51816000Y-120535000D03*
X51816000Y-123305000D03*
X51816000Y-126075000D03*
X51816000Y-128845000D03*
X51816000Y-131615000D03*
X48976000Y-99760000D03*
X48976000Y-102530000D03*
X48976000Y-105300000D03*
X48976000Y-108070000D03*
X48976000Y-110840000D03*
X48976000Y-113610000D03*
X48976000Y-116380000D03*
X48976000Y-119150000D03*
X48976000Y-121920000D03*
X48976000Y-124690000D03*
X48976000Y-127460000D03*
X48976000Y-130230000D03*
D15*
X116840000Y-124460000D03*
X109220000Y-124460000D03*
D21*
X194310000Y-53340000D03*
X201930000Y-53340000D03*
X205740000Y-53340000D03*
X161290000Y-48260000D03*
X198120000Y-53340000D03*
D14*
X195580000Y-49530000D03*
X243840000Y-49530000D03*
X167640000Y-49530000D03*
X193040000Y-49530000D03*
D19*
X179070000Y-81280000D03*
X179070000Y-73660000D03*
X198120000Y-62865000D03*
X198120000Y-56515000D03*
D21*
X66040000Y-41910000D03*
X91440000Y-41910000D03*
X86360000Y-41910000D03*
X81280000Y-41910000D03*
X71120000Y-41910000D03*
X60960000Y-41910000D03*
X50800000Y-41910000D03*
X55880000Y-41910000D03*
X96520000Y-41910000D03*
X76200000Y-41910000D03*
D22*
X45466000Y-104145000D03*
X45466000Y-106685000D03*
X45466000Y-109225000D03*
X45466000Y-111765000D03*
X45466000Y-114305000D03*
X45466000Y-116845000D03*
D23*
X135890000Y-77470000D03*
X135890000Y-74930000D03*
X135890000Y-72390000D03*
X177165000Y-99060000D03*
X177165000Y-96520000D03*
X177165000Y-93980000D03*
D16*
X55880000Y-138430000D03*
X55880000Y-146050000D03*
D24*
X43180000Y-63500000D03*
X48680000Y-63500000D03*
X53180000Y-63500000D03*
X43180000Y-73660000D03*
X48680000Y-73660000D03*
X53180000Y-73660000D03*
X43180000Y-83820000D03*
X48680000Y-83820000D03*
X53180000Y-83820000D03*
X43180000Y-53340000D03*
X48680000Y-53340000D03*
X53180000Y-53340000D03*
D13*
X250190000Y-62230000D03*
X250190000Y-64770000D03*
X250190000Y-67310000D03*
X250190000Y-69850000D03*
X250190000Y-72390000D03*
X250190000Y-74930000D03*
X250190000Y-77470000D03*
X250190000Y-80010000D03*
X250190000Y-82550000D03*
X250190000Y-85090000D03*
X250190000Y-87630000D03*
X250190000Y-90170000D03*
X250190000Y-92710000D03*
X250190000Y-95250000D03*
X250190000Y-97790000D03*
X250190000Y-100330000D03*
X250190000Y-102870000D03*
X250190000Y-105410000D03*
X250190000Y-107950000D03*
X250190000Y-110490000D03*
X250190000Y-113030000D03*
X250190000Y-115570000D03*
X250190000Y-118110000D03*
X250190000Y-120650000D03*
X250190000Y-123190000D03*
X250190000Y-125730000D03*
X250190000Y-128270000D03*
X250190000Y-130810000D03*
X250190000Y-133350000D03*
X250190000Y-135890000D03*
X250190000Y-138430000D03*
X250190000Y-140970000D03*
X245110000Y-62230000D03*
X245110000Y-64770000D03*
X245110000Y-67310000D03*
X245110000Y-69850000D03*
X245110000Y-72390000D03*
X245110000Y-74930000D03*
X245110000Y-77470000D03*
X245110000Y-80010000D03*
X245110000Y-82550000D03*
X245110000Y-85090000D03*
X245110000Y-87630000D03*
X245110000Y-90170000D03*
X245110000Y-92710000D03*
X245110000Y-95250000D03*
X245110000Y-97790000D03*
X245110000Y-100330000D03*
X245110000Y-102870000D03*
X245110000Y-105410000D03*
X245110000Y-107950000D03*
X245110000Y-110490000D03*
X245110000Y-113030000D03*
X245110000Y-115570000D03*
X245110000Y-118110000D03*
X245110000Y-120650000D03*
X245110000Y-123190000D03*
X245110000Y-125730000D03*
X245110000Y-128270000D03*
X245110000Y-130810000D03*
X245110000Y-133350000D03*
X245110000Y-135890000D03*
X245110000Y-138430000D03*
X245110000Y-140970000D03*
D22*
X163830000Y-43180000D03*
X166370000Y-43180000D03*
X168910000Y-43180000D03*
X171450000Y-43180000D03*
X173990000Y-43180000D03*
X176530000Y-43180000D03*
X179070000Y-43180000D03*
X181610000Y-43180000D03*
X184150000Y-43180000D03*
X186690000Y-43180000D03*
X189230000Y-43180000D03*
X191770000Y-43180000D03*
X194310000Y-43180000D03*
X196850000Y-43180000D03*
X199390000Y-43180000D03*
X201930000Y-43180000D03*
X204470000Y-43180000D03*
X207010000Y-43180000D03*
X209550000Y-43180000D03*
X212090000Y-43180000D03*
X214630000Y-43180000D03*
X217170000Y-43180000D03*
X219710000Y-43180000D03*
X222250000Y-43180000D03*
X224790000Y-43180000D03*
X227330000Y-43180000D03*
X229870000Y-43180000D03*
X232410000Y-43180000D03*
X234950000Y-43180000D03*
X237490000Y-43180000D03*
X240030000Y-43180000D03*
X242570000Y-43180000D03*
X163830000Y-45720000D03*
X166370000Y-45720000D03*
X168910000Y-45720000D03*
X171450000Y-45720000D03*
X173990000Y-45720000D03*
X176530000Y-45720000D03*
X179070000Y-45720000D03*
X181610000Y-45720000D03*
X184150000Y-45720000D03*
X186690000Y-45720000D03*
X189230000Y-45720000D03*
X191770000Y-45720000D03*
X194310000Y-45720000D03*
X196850000Y-45720000D03*
X199390000Y-45720000D03*
D25*
X201930000Y-45720000D03*
X204470000Y-45720000D03*
D22*
X207010000Y-45720000D03*
X209550000Y-45720000D03*
X212090000Y-45720000D03*
X214630000Y-45720000D03*
X217170000Y-45720000D03*
X219710000Y-45720000D03*
X222250000Y-45720000D03*
X224790000Y-45720000D03*
X227330000Y-45720000D03*
X229870000Y-45720000D03*
X232410000Y-45720000D03*
X234950000Y-45720000D03*
X237490000Y-45720000D03*
X240030000Y-45720000D03*
X242570000Y-45720000D03*
D26*
X152400000Y-58420000D03*
X156210000Y-57150000D03*
D27*
X209550000Y-86360000D03*
D26*
X166370000Y-108585000D03*
X175895000Y-106680000D03*
D28*
X198120000Y-73660000D03*
D26*
X144145000Y-63500000D03*
X217170000Y-90170000D03*
D28*
X195580000Y-73660000D03*
X200660000Y-73660000D03*
D26*
X175895000Y-104775000D03*
X172085000Y-106680000D03*
D28*
X190500000Y-73660000D03*
D26*
X188595000Y-48260000D03*
X204470000Y-48260000D03*
D28*
X193040000Y-73660000D03*
D26*
X175895000Y-102870000D03*
X170815000Y-104775000D03*
X217170000Y-96520000D03*
X217170000Y-143510000D03*
X176530000Y-145415000D03*
X175895000Y-108585000D03*
D29*
X177800000Y-143510000D03*
D26*
X140335000Y-128270000D03*
X203200000Y-95250000D03*
X205740000Y-95250000D03*
X152400000Y-120015000D03*
X149225000Y-120015000D03*
X146050000Y-120015000D03*
X146050000Y-114935000D03*
X146050000Y-117475000D03*
X205740000Y-101600000D03*
D29*
X167640000Y-80645000D03*
X167640000Y-79375000D03*
X167640000Y-78105000D03*
D26*
X161290000Y-76200000D03*
X158750000Y-76200000D03*
X109220000Y-62230000D03*
D30*
X55880000Y-73660000D02*
X48680000Y-73660000D01*
X56515000Y-74295000D02*
X55880000Y-73660000D01*
X57150000Y-81280000D02*
X56515000Y-80645000D01*
X60960000Y-88900000D02*
X60960000Y-85090000D01*
X56515000Y-80645000D02*
X56515000Y-74295000D01*
X60960000Y-85090000D02*
X57150000Y-81280000D01*
D31*
X73660000Y-71120000D02*
X74930000Y-69850000D01*
X74930000Y-69850000D02*
X83820000Y-69850000D01*
X83820000Y-69850000D02*
X88900000Y-64770000D01*
D32*
X73660000Y-72390000D02*
X73660000Y-71120000D01*
X72390000Y-78740000D02*
X72390000Y-85090000D01*
X63500000Y-78740000D02*
X64770000Y-77470000D01*
X63500000Y-80010000D02*
X63500000Y-78740000D01*
X71120000Y-77470000D02*
X72390000Y-78740000D01*
X64770000Y-77470000D02*
X71120000Y-77470000D01*
D31*
X63500000Y-92710000D02*
X63500000Y-97790000D01*
X63500000Y-83820000D02*
X63500000Y-92710000D01*
X60960000Y-81280000D02*
X63500000Y-83820000D01*
X60960000Y-80010000D02*
X60960000Y-81280000D01*
X63500000Y-97790000D02*
X67310000Y-97790000D01*
X62230000Y-99060000D02*
X62230000Y-100330000D01*
X63500000Y-92710000D02*
X60960000Y-92710000D01*
X63500000Y-97790000D02*
X62230000Y-99060000D01*
D32*
X77920009Y-77019991D02*
X82550000Y-81649982D01*
X82550000Y-81649982D02*
X82550000Y-90170000D01*
X82550000Y-90170000D02*
X80010000Y-92710000D01*
X60960000Y-72390000D02*
X60960000Y-74930000D01*
X60960000Y-74930000D02*
X63049991Y-77019991D01*
X63049991Y-77019991D02*
X77920009Y-77019991D01*
D31*
X101600000Y-115570000D02*
X101600000Y-120650000D01*
X109220000Y-116840000D02*
X101600000Y-116840000D01*
X69850000Y-137160000D02*
X71120000Y-138430000D01*
X60960000Y-118745000D02*
X53910000Y-111695000D01*
X71120000Y-138430000D02*
X73660000Y-138430000D01*
X53316000Y-105456000D02*
X53316000Y-105415000D01*
X53316000Y-105415000D02*
X51816000Y-103915000D01*
X53910000Y-106050000D02*
X53316000Y-105456000D01*
X69850000Y-134620000D02*
X67310000Y-132080000D01*
X69850000Y-134620000D02*
X69850000Y-137160000D01*
X53910000Y-111695000D02*
X53910000Y-106050000D01*
X60960000Y-120650000D02*
X60960000Y-118745000D01*
X67310000Y-132080000D02*
X67310000Y-127000000D01*
X67310000Y-127000000D02*
X60960000Y-120650000D01*
X88900000Y-93980000D02*
X88900000Y-90170000D01*
X123190000Y-92710000D02*
X127000000Y-88900000D01*
X86360000Y-96520000D02*
X88900000Y-93980000D01*
X105410000Y-90170000D02*
X107950000Y-92710000D01*
X107950000Y-92710000D02*
X123190000Y-92710000D01*
X87630000Y-90170000D02*
X88900000Y-90170000D01*
X70485000Y-90805000D02*
X74295000Y-90805000D01*
X105410000Y-83820000D02*
X105410000Y-90170000D01*
X66040000Y-86360000D02*
X70485000Y-90805000D01*
X95250000Y-80010000D02*
X92710000Y-77470000D01*
X85090000Y-78740000D02*
X85090000Y-87630000D01*
X127000000Y-88900000D02*
X127000000Y-85090000D01*
X80010000Y-96520000D02*
X86360000Y-96520000D01*
X101600000Y-80010000D02*
X95250000Y-80010000D01*
X85090000Y-87630000D02*
X87630000Y-90170000D01*
X74295000Y-90805000D02*
X80010000Y-96520000D01*
X92710000Y-77470000D02*
X86360000Y-77470000D01*
X101600000Y-80010000D02*
X105410000Y-83820000D01*
X86360000Y-77470000D02*
X85090000Y-78740000D01*
X66040000Y-80010000D02*
X66040000Y-86360000D01*
X55880000Y-138430000D02*
X58420000Y-140970000D01*
X60960000Y-133350000D02*
X55880000Y-138430000D01*
X60960000Y-130810000D02*
X60960000Y-133350000D01*
X58420000Y-140970000D02*
X66040000Y-140970000D01*
X60960000Y-125730000D02*
X60960000Y-130810000D01*
X59690000Y-107950000D02*
X73660000Y-107950000D01*
X57150000Y-105410000D02*
X59690000Y-107950000D01*
X78740000Y-107950000D02*
X73660000Y-107950000D01*
X73660000Y-110490000D02*
X73660000Y-105410000D01*
D32*
X121920000Y-85090000D02*
X121920000Y-88900000D01*
X161290000Y-65405000D02*
X154305000Y-58420000D01*
X161290000Y-67310000D02*
X161290000Y-65405000D01*
X154305000Y-58420000D02*
X152400000Y-58420000D01*
X163830000Y-67310000D02*
X163830000Y-64770000D01*
X163830000Y-64770000D02*
X156210000Y-57150000D01*
X185420000Y-125095000D02*
X185420000Y-113665000D01*
X189230000Y-109980000D02*
X187960000Y-111250000D01*
X185420000Y-113665000D02*
X185420000Y-112500000D01*
X189230000Y-106680000D02*
X189230000Y-109980000D01*
X186670000Y-111250000D02*
X185420000Y-112500000D01*
X182880000Y-125730000D02*
X184785000Y-125730000D01*
X184785000Y-125730000D02*
X185420000Y-125095000D01*
X187960000Y-111250000D02*
X186670000Y-111250000D01*
X193040000Y-109220000D02*
X193040000Y-104775000D01*
X193040000Y-104775000D02*
X191770000Y-103505000D01*
X191770000Y-103505000D02*
X191770000Y-99060000D01*
X193040000Y-120650000D02*
X193040000Y-109220000D01*
X198120000Y-125730000D02*
X193040000Y-120650000D01*
X203200000Y-125730000D02*
X198120000Y-125730000D01*
D30*
X152400000Y-125730000D02*
X156210000Y-121920000D01*
X113030000Y-68580000D02*
X114300000Y-69850000D01*
D32*
X229870000Y-123190000D02*
X229870000Y-120650000D01*
D30*
X182880000Y-115570000D02*
X180340000Y-115570000D01*
X134620000Y-102870000D02*
X140970000Y-109220000D01*
X152400000Y-125730000D02*
X152400000Y-127000000D01*
D31*
X198755000Y-94615000D02*
X198120000Y-93980000D01*
D30*
X179070000Y-121285000D02*
X180975000Y-123190000D01*
X134620000Y-95250000D02*
X134620000Y-96520000D01*
X144780000Y-125730000D02*
X151130000Y-125730000D01*
X116840000Y-88900000D02*
X119380000Y-86360000D01*
X104140000Y-60764802D02*
X104140000Y-59690000D01*
X113030000Y-53340000D02*
X113030000Y-68580000D01*
X132080000Y-99060000D02*
X132080000Y-101600000D01*
D33*
X112395000Y-149860000D02*
X121920000Y-149860000D01*
D30*
X151130000Y-125730000D02*
X152400000Y-125730000D01*
D33*
X88900000Y-146050000D02*
X92710000Y-149860000D01*
X120650000Y-133350000D02*
X121285000Y-133985000D01*
D30*
X218440000Y-74930000D02*
X218440000Y-76200000D01*
X134620000Y-87630000D02*
X134620000Y-95250000D01*
X156210000Y-121920000D02*
X156210000Y-118110000D01*
D33*
X116840000Y-133350000D02*
X120650000Y-133350000D01*
D30*
X104140000Y-71120000D02*
X104140000Y-60764802D01*
X217170000Y-77470000D02*
X210820000Y-77470000D01*
D33*
X88900000Y-140970000D02*
X88900000Y-146050000D01*
D30*
X208280000Y-77470000D02*
X207010000Y-76200000D01*
D31*
X196850000Y-106680000D02*
X198120000Y-106680000D01*
D30*
X120015000Y-128270000D02*
X122555000Y-125730000D01*
D32*
X200025000Y-123175000D02*
X200025000Y-123190000D01*
D30*
X180975000Y-123190000D02*
X182880000Y-123190000D01*
D31*
X198120000Y-93980000D02*
X196850000Y-93980000D01*
D30*
X209550000Y-77470000D02*
X208280000Y-77470000D01*
X128270000Y-81280000D02*
X134620000Y-87630000D01*
X128270000Y-125730000D02*
X135890000Y-118110000D01*
D33*
X121920000Y-149860000D02*
X125730000Y-146050000D01*
D30*
X152400000Y-127000000D02*
X151130000Y-125730000D01*
D32*
X194310000Y-49530000D02*
X193040000Y-49530000D01*
D30*
X222250000Y-74930000D02*
X218440000Y-74930000D01*
D34*
X194310000Y-53340000D02*
X194310000Y-49530000D01*
D30*
X119380000Y-81280000D02*
X128270000Y-81280000D01*
X134620000Y-96520000D02*
X132080000Y-99060000D01*
D31*
X198755000Y-94615000D02*
X198755000Y-106045000D01*
D35*
X110490000Y-77470000D02*
X104140000Y-71120000D01*
D30*
X115570000Y-52070000D02*
X114300000Y-52070000D01*
X113030000Y-52070000D02*
X113030000Y-53340000D01*
X163830000Y-110490000D02*
X163830000Y-106680000D01*
X119380000Y-86360000D02*
X119380000Y-81280000D01*
X208280000Y-77470000D02*
X209550000Y-78740000D01*
X113030000Y-52070000D02*
X111760000Y-52070000D01*
X111760000Y-52070000D02*
X110490000Y-52070000D01*
X179070000Y-63500000D02*
X163830000Y-78740000D01*
X210820000Y-77470000D02*
X209550000Y-77470000D01*
D31*
X200025000Y-123190000D02*
X203200000Y-123190000D01*
D30*
X209550000Y-86360000D02*
X209550000Y-78740000D01*
X140970000Y-118110000D02*
X140970000Y-121920000D01*
D33*
X109220000Y-133350000D02*
X111125000Y-133350000D01*
D31*
X196850000Y-120000000D02*
X200025000Y-123175000D01*
D30*
X125730000Y-125730000D02*
X128270000Y-125730000D01*
D33*
X111125000Y-133350000D02*
X112395000Y-134620000D01*
D30*
X156210000Y-118110000D02*
X163830000Y-110490000D01*
X179070000Y-116840000D02*
X179070000Y-121285000D01*
X122555000Y-125730000D02*
X125730000Y-125730000D01*
X140970000Y-118110000D02*
X135890000Y-118110000D01*
D33*
X111760000Y-149860000D02*
X112395000Y-149860000D01*
D34*
X163830000Y-43180000D02*
X163830000Y-45720000D01*
D30*
X116840000Y-128270000D02*
X120015000Y-128270000D01*
X209550000Y-78740000D02*
X209550000Y-77470000D01*
X133350000Y-102870000D02*
X132080000Y-101600000D01*
X118110000Y-69850000D02*
X119380000Y-71120000D01*
X119380000Y-71120000D02*
X119380000Y-77470000D01*
X180340000Y-115570000D02*
X179070000Y-116840000D01*
X207010000Y-76200000D02*
X207010000Y-74930000D01*
D31*
X198120000Y-106680000D02*
X198755000Y-106045000D01*
D30*
X114300000Y-69850000D02*
X118110000Y-69850000D01*
X113030000Y-53340000D02*
X114300000Y-52070000D01*
D33*
X92710000Y-149860000D02*
X111760000Y-149860000D01*
X121285000Y-133985000D02*
X121285000Y-135890000D01*
D30*
X140970000Y-109220000D02*
X140970000Y-118110000D01*
D33*
X112395000Y-134620000D02*
X112395000Y-149860000D01*
D30*
X113030000Y-53340000D02*
X111760000Y-52070000D01*
X133350000Y-102870000D02*
X134620000Y-102870000D01*
X218440000Y-76200000D02*
X217170000Y-77470000D01*
D33*
X88900000Y-135890000D02*
X88900000Y-140970000D01*
D35*
X119380000Y-77470000D02*
X110490000Y-77470000D01*
D30*
X140970000Y-121920000D02*
X144780000Y-125730000D01*
D32*
X163830000Y-78740000D02*
X163830000Y-80010000D01*
D31*
X196850000Y-106680000D02*
X196850000Y-109855000D01*
D30*
X152400000Y-127000000D02*
X152400000Y-128270000D01*
D31*
X196850000Y-109855000D02*
X196850000Y-120000000D01*
D30*
X114300000Y-52070000D02*
X113030000Y-52070000D01*
X209550000Y-78740000D02*
X210820000Y-77470000D01*
D33*
X179070000Y-58420000D02*
X179070000Y-63500000D01*
D34*
X193040000Y-49530000D02*
X195580000Y-49530000D01*
D30*
X119380000Y-81280000D02*
X119380000Y-77470000D01*
D31*
X65405000Y-76200000D02*
X63500000Y-74295000D01*
X88900000Y-74930000D02*
X86360000Y-74930000D01*
X63500000Y-74295000D02*
X63500000Y-72390000D01*
X85090000Y-76200000D02*
X65405000Y-76200000D01*
X86360000Y-74930000D02*
X85090000Y-76200000D01*
X72390000Y-74930000D02*
X83820000Y-74930000D01*
X71120000Y-73660000D02*
X72390000Y-74930000D01*
X83820000Y-74930000D02*
X88900000Y-69850000D01*
X71120000Y-72390000D02*
X71120000Y-73660000D01*
D32*
X175260000Y-146685000D02*
X231140000Y-146685000D01*
X189230000Y-100965000D02*
X187960000Y-102235000D01*
X235585000Y-142240000D02*
X235585000Y-136525000D01*
X155575000Y-128905000D02*
X155575000Y-124460000D01*
X247015000Y-99060000D02*
X248285000Y-97790000D01*
X157480000Y-122555000D02*
X157480000Y-118745000D01*
X175895000Y-106680000D02*
X174625000Y-106680000D01*
X173355000Y-108585000D02*
X172085000Y-108585000D01*
X241935000Y-104140000D02*
X243205000Y-102870000D01*
X241935000Y-105410000D02*
X241935000Y-104140000D01*
X166370000Y-108585000D02*
X166370000Y-109855000D01*
X187960000Y-102235000D02*
X179705000Y-102235000D01*
X231140000Y-146685000D02*
X235585000Y-142240000D01*
X179070000Y-101600000D02*
X175260000Y-101600000D01*
X248285000Y-97790000D02*
X250190000Y-97790000D01*
X174625000Y-115570000D02*
X174625000Y-146050000D01*
X175260000Y-101600000D02*
X174625000Y-102235000D01*
X243205000Y-99695000D02*
X243840000Y-99060000D01*
X149225000Y-129540000D02*
X153584610Y-129540000D01*
X189230000Y-99060000D02*
X189230000Y-100965000D01*
X153584610Y-129540000D02*
X154940000Y-129540000D01*
X142875000Y-128270000D02*
X144780000Y-128270000D01*
X138430000Y-130810000D02*
X140335000Y-130810000D01*
X174625000Y-107315000D02*
X173355000Y-108585000D01*
X170815000Y-109855000D02*
X170815000Y-111760000D01*
X172085000Y-108585000D02*
X170815000Y-109855000D01*
X147320000Y-128270000D02*
X147955000Y-128270000D01*
X147955000Y-128270000D02*
X149225000Y-129540000D01*
X243205000Y-102870000D02*
X243205000Y-99695000D01*
X243840000Y-99060000D02*
X247015000Y-99060000D01*
X240665000Y-106680000D02*
X241935000Y-105410000D01*
X157480000Y-118745000D02*
X166370000Y-109855000D01*
X179705000Y-102235000D02*
X179070000Y-101600000D01*
X155575000Y-124460000D02*
X157480000Y-122555000D01*
X140335000Y-130810000D02*
X142875000Y-128270000D01*
X144780000Y-128270000D02*
X147320000Y-128270000D01*
X174625000Y-146050000D02*
X175260000Y-146685000D01*
X154940000Y-129540000D02*
X155575000Y-128905000D01*
X240665000Y-131445000D02*
X240665000Y-106680000D01*
X174625000Y-102235000D02*
X174625000Y-107315000D01*
X170815000Y-111760000D02*
X174625000Y-115570000D01*
X235585000Y-136525000D02*
X240665000Y-131445000D01*
X193040000Y-46736000D02*
X190500000Y-49276000D01*
X194945000Y-56769000D02*
X194945000Y-65405000D01*
X190500000Y-49276000D02*
X190500000Y-52324000D01*
X188595000Y-67310000D02*
X185420000Y-70485000D01*
X190500000Y-52324000D02*
X194945000Y-56769000D01*
X187960000Y-78740000D02*
X195580000Y-78740000D01*
X198120000Y-76200000D02*
X198120000Y-73660000D01*
X185420000Y-76200000D02*
X187960000Y-78740000D01*
X193040000Y-44450000D02*
X193040000Y-46736000D01*
X185420000Y-70485000D02*
X185420000Y-76200000D01*
X191770000Y-43180000D02*
X193040000Y-44450000D01*
X194945000Y-65405000D02*
X193040000Y-67310000D01*
X193040000Y-67310000D02*
X188595000Y-67310000D01*
X195580000Y-78740000D02*
X198120000Y-76200000D01*
X240030000Y-130810000D02*
X234950000Y-135890000D01*
X165735000Y-78105000D02*
X165735000Y-81915000D01*
X165735000Y-81915000D02*
X165100000Y-82550000D01*
X157480000Y-81915000D02*
X157480000Y-78105000D01*
X194310000Y-86360000D02*
X194310000Y-84455000D01*
X218440000Y-97790000D02*
X218440000Y-91440000D01*
X157480000Y-78105000D02*
X154305000Y-74930000D01*
X186690000Y-81915000D02*
X180975000Y-76200000D01*
X152400000Y-74295000D02*
X153035000Y-74930000D01*
X146050000Y-63500000D02*
X144145000Y-63500000D01*
X151765000Y-69850000D02*
X152400000Y-70485000D01*
X220980000Y-145415000D02*
X217805000Y-142240000D01*
X234950000Y-141605000D02*
X231140000Y-145415000D01*
X241300000Y-104775000D02*
X240030000Y-106045000D01*
X147320000Y-64770000D02*
X146050000Y-63500000D01*
X243205000Y-97790000D02*
X242570000Y-98425000D01*
X234950000Y-135890000D02*
X234950000Y-141605000D01*
X152400000Y-70485000D02*
X152400000Y-74295000D01*
X158115000Y-82550000D02*
X157480000Y-81915000D01*
X245110000Y-97790000D02*
X243205000Y-97790000D01*
X231140000Y-145415000D02*
X220980000Y-145415000D01*
X149225000Y-69850000D02*
X148590000Y-69850000D01*
X148590000Y-69850000D02*
X147320000Y-68580000D01*
X154305000Y-74930000D02*
X153035000Y-74930000D01*
X241300000Y-103505000D02*
X241300000Y-104775000D01*
X147320000Y-68580000D02*
X147320000Y-64770000D01*
X194310000Y-84455000D02*
X191770000Y-81915000D01*
X165100000Y-82550000D02*
X158115000Y-82550000D01*
X218440000Y-91440000D02*
X217170000Y-90170000D01*
X191770000Y-81915000D02*
X186690000Y-81915000D01*
X217805000Y-142240000D02*
X217805000Y-98425000D01*
X242570000Y-98425000D02*
X242570000Y-102235000D01*
X240030000Y-106045000D02*
X240030000Y-130810000D01*
X180975000Y-76200000D02*
X167640000Y-76200000D01*
X167640000Y-76200000D02*
X165735000Y-78105000D01*
X149225000Y-69850000D02*
X151765000Y-69850000D01*
X217805000Y-98425000D02*
X218440000Y-97790000D01*
X242570000Y-102235000D02*
X241300000Y-103505000D01*
X196215000Y-52070000D02*
X196215000Y-65405000D01*
X195580000Y-76200000D02*
X195580000Y-73660000D01*
X194310000Y-77470000D02*
X195580000Y-76200000D01*
X188595000Y-77470000D02*
X194310000Y-77470000D01*
X186690000Y-71120000D02*
X186690000Y-75565000D01*
X189230000Y-68580000D02*
X186690000Y-71120000D01*
X186690000Y-75565000D02*
X188595000Y-77470000D01*
X196215000Y-65405000D02*
X193040000Y-68580000D01*
X193040000Y-68580000D02*
X189230000Y-68580000D01*
X196850000Y-43180000D02*
X198120000Y-44450000D01*
X198120000Y-50165000D02*
X196215000Y-52070000D01*
X198120000Y-44450000D02*
X198120000Y-50165000D01*
X187325000Y-80010000D02*
X196850000Y-80010000D01*
X193040000Y-66040000D02*
X188595000Y-66040000D01*
X196850000Y-80010000D02*
X200660000Y-76200000D01*
X194310000Y-64770000D02*
X193040000Y-66040000D01*
X188595000Y-66040000D02*
X184150000Y-70485000D01*
X191770000Y-45720000D02*
X191770000Y-46990000D01*
X189865000Y-48895000D02*
X189865000Y-52705000D01*
X184150000Y-70485000D02*
X184150000Y-76835000D01*
X191770000Y-46990000D02*
X189865000Y-48895000D01*
X194310000Y-57150000D02*
X194310000Y-64770000D01*
X184150000Y-76835000D02*
X187325000Y-80010000D01*
X189865000Y-52705000D02*
X194310000Y-57150000D01*
X200660000Y-76200000D02*
X200660000Y-73660000D01*
X245110000Y-105410000D02*
X244339290Y-106180710D01*
X156845000Y-125730000D02*
X156845000Y-131445000D01*
X172085000Y-146050000D02*
X172720000Y-146685000D01*
X241935000Y-107950000D02*
X241935000Y-132715000D01*
X149225000Y-133350000D02*
X147955000Y-134620000D01*
X142875000Y-134620000D02*
X138430000Y-139065000D01*
X168275000Y-104775000D02*
X168275000Y-110490000D01*
X168275000Y-110490000D02*
X158750000Y-120015000D01*
X184150000Y-104775000D02*
X183515000Y-104140000D01*
X232410000Y-147955000D02*
X179070000Y-147955000D01*
X147955000Y-134620000D02*
X142875000Y-134620000D01*
X152400000Y-133350000D02*
X149225000Y-133350000D01*
X138430000Y-139065000D02*
X138430000Y-140970000D01*
X154940000Y-133350000D02*
X152400000Y-133350000D01*
X172085000Y-106680000D02*
X172085000Y-103505000D01*
X236855000Y-137795000D02*
X236855000Y-143510000D01*
X177800000Y-104775000D02*
X175895000Y-104775000D01*
X243704290Y-106180710D02*
X241935000Y-107950000D01*
X169545000Y-107950000D02*
X169545000Y-113030000D01*
X170815000Y-106680000D02*
X169545000Y-107950000D01*
X169545000Y-113030000D02*
X172085000Y-115570000D01*
X183515000Y-104140000D02*
X178435000Y-104140000D01*
X172085000Y-106680000D02*
X170815000Y-106680000D01*
X172085000Y-115570000D02*
X172085000Y-146050000D01*
X179070000Y-147955000D02*
X173990000Y-147955000D01*
X170180000Y-102870000D02*
X168275000Y-104775000D01*
X158750000Y-120015000D02*
X158750000Y-123825000D01*
X156845000Y-131445000D02*
X154940000Y-133350000D01*
X173990000Y-147955000D02*
X172720000Y-146685000D01*
X241935000Y-132715000D02*
X236855000Y-137795000D01*
X184150000Y-106680000D02*
X184150000Y-104775000D01*
X236855000Y-143510000D02*
X232410000Y-147955000D01*
X172085000Y-103505000D02*
X171450000Y-102870000D01*
X244339290Y-106180710D02*
X243704290Y-106180710D01*
X158750000Y-123825000D02*
X156845000Y-125730000D01*
X178435000Y-104140000D02*
X177800000Y-104775000D01*
X171450000Y-102870000D02*
X170180000Y-102870000D01*
D31*
X190500000Y-73660000D02*
X190500000Y-72390000D01*
X200660000Y-67310000D02*
X200660000Y-60960000D01*
X190500000Y-72390000D02*
X191770000Y-71120000D01*
X207010000Y-52070000D02*
X205740000Y-53340000D01*
X191770000Y-71120000D02*
X196850000Y-71120000D01*
X196850000Y-71120000D02*
X200660000Y-67310000D01*
X207010000Y-45720000D02*
X207010000Y-52070000D01*
X200660000Y-60960000D02*
X205740000Y-55880000D01*
X205740000Y-55880000D02*
X205740000Y-53340000D01*
D30*
X204470000Y-48895000D02*
X204470000Y-50800000D01*
D31*
X174625000Y-48895000D02*
X187960000Y-48895000D01*
D30*
X106680000Y-121920000D02*
X114300000Y-121920000D01*
X81280000Y-138430000D02*
X81280000Y-125730000D01*
X191770000Y-76200000D02*
X189230000Y-76200000D01*
D36*
X203200000Y-44450000D02*
X203200000Y-46990000D01*
D30*
X201930000Y-57150000D02*
X198120000Y-60960000D01*
X189865000Y-69850000D02*
X194310000Y-69850000D01*
X194310000Y-69850000D02*
X198120000Y-66040000D01*
X198120000Y-66040000D02*
X198120000Y-62865000D01*
D36*
X204470000Y-43180000D02*
X203200000Y-44450000D01*
D31*
X187960000Y-48895000D02*
X188595000Y-48260000D01*
D30*
X105410000Y-123190000D02*
X106680000Y-121920000D01*
X127000000Y-77470000D02*
X124460000Y-74930000D01*
X114300000Y-121920000D02*
X114300000Y-113030000D01*
X93980000Y-120650000D02*
X96520000Y-123190000D01*
X193040000Y-74930000D02*
X191770000Y-76200000D01*
X193040000Y-73660000D02*
X193040000Y-74930000D01*
X81280000Y-125730000D02*
X86360000Y-120650000D01*
X115570000Y-111760000D02*
X116840000Y-111760000D01*
X124460000Y-74930000D02*
X121920000Y-74930000D01*
X96520000Y-123190000D02*
X105410000Y-123190000D01*
X86360000Y-120650000D02*
X93980000Y-120650000D01*
X69850000Y-123190000D02*
X72390000Y-120650000D01*
D31*
X168275000Y-55245000D02*
X174625000Y-48895000D01*
D30*
X201930000Y-53340000D02*
X201930000Y-57150000D01*
X204470000Y-50800000D02*
X201930000Y-53340000D01*
X114300000Y-113030000D02*
X115570000Y-111760000D01*
X189865000Y-69850000D02*
X187960000Y-71755000D01*
X114300000Y-121920000D02*
X116840000Y-124460000D01*
D36*
X204470000Y-48260000D02*
X203200000Y-46990000D01*
D30*
X189230000Y-76200000D02*
X187960000Y-74930000D01*
X73660000Y-135890000D02*
X69850000Y-132080000D01*
X72390000Y-120650000D02*
X73660000Y-120650000D01*
D31*
X130810000Y-55245000D02*
X168275000Y-55245000D01*
D30*
X116840000Y-111760000D02*
X116840000Y-106680000D01*
X69850000Y-132080000D02*
X69850000Y-123190000D01*
X187960000Y-74930000D02*
X187960000Y-71755000D01*
X198120000Y-60960000D02*
X198120000Y-62865000D01*
D31*
X121920000Y-74930000D02*
X121920000Y-64135000D01*
X121920000Y-64135000D02*
X130810000Y-55245000D01*
D32*
X241300000Y-132080000D02*
X241300000Y-107315000D01*
X143510000Y-130810000D02*
X144780000Y-130810000D01*
X241300000Y-107315000D02*
X242570000Y-106045000D01*
X173355000Y-101600000D02*
X173355000Y-100965000D01*
X147955000Y-130810000D02*
X144780000Y-130810000D01*
X149225000Y-132080000D02*
X147955000Y-130810000D01*
X180340000Y-101600000D02*
X186055000Y-101600000D01*
X154940000Y-132080000D02*
X149225000Y-132080000D01*
X171450000Y-107950000D02*
X170180000Y-109220000D01*
X158115000Y-119380000D02*
X158115000Y-123190000D01*
X242570000Y-104775000D02*
X243205000Y-104140000D01*
X247015000Y-104140000D02*
X248285000Y-102870000D01*
X173355000Y-115570000D02*
X173355000Y-146050000D01*
X167640000Y-109855000D02*
X158115000Y-119380000D01*
X167640000Y-104140000D02*
X167640000Y-102870000D01*
X156210000Y-125095000D02*
X156210000Y-130810000D01*
X186055000Y-101600000D02*
X186690000Y-100965000D01*
X179705000Y-100965000D02*
X180340000Y-101600000D01*
X167640000Y-104140000D02*
X167640000Y-109855000D01*
X169545000Y-100965000D02*
X179705000Y-100965000D01*
X170180000Y-109220000D02*
X170180000Y-112395000D01*
X173355000Y-146050000D02*
X174625000Y-147320000D01*
X174625000Y-147320000D02*
X231775000Y-147320000D01*
X236220000Y-142875000D02*
X236220000Y-137160000D01*
X173355000Y-107315000D02*
X172720000Y-107950000D01*
X138430000Y-135890000D02*
X143510000Y-130810000D01*
X158115000Y-123190000D02*
X156210000Y-125095000D01*
X231775000Y-147320000D02*
X236220000Y-142875000D01*
X173355000Y-101600000D02*
X173355000Y-107315000D01*
X170180000Y-112395000D02*
X173355000Y-115570000D01*
X248285000Y-102870000D02*
X250190000Y-102870000D01*
X243205000Y-104140000D02*
X247015000Y-104140000D01*
X242570000Y-106045000D02*
X242570000Y-104775000D01*
X236220000Y-137160000D02*
X241300000Y-132080000D01*
X186690000Y-100965000D02*
X186690000Y-99060000D01*
X172720000Y-107950000D02*
X171450000Y-107950000D01*
X167640000Y-102870000D02*
X169545000Y-100965000D01*
X156210000Y-130810000D02*
X154940000Y-132080000D01*
D31*
X106680000Y-140970000D02*
X101600000Y-146050000D01*
X109220000Y-140970000D02*
X106680000Y-140970000D01*
D32*
X249555000Y-52705000D02*
X249555000Y-58420000D01*
X254000000Y-62865000D02*
X254000000Y-140335000D01*
X241935000Y-141605000D02*
X241935000Y-140335000D01*
X241300000Y-47625000D02*
X244475000Y-47625000D01*
X254000000Y-140335000D02*
X254000000Y-140968590D01*
X252093590Y-142875000D02*
X251460000Y-142875000D01*
X248285000Y-138430000D02*
X250190000Y-138430000D01*
X254000000Y-140968590D02*
X252093590Y-142875000D01*
X241935000Y-140335000D02*
X242570000Y-139700000D01*
X243205000Y-142875000D02*
X241935000Y-141605000D01*
X249555000Y-58420000D02*
X254000000Y-62865000D01*
X244475000Y-47625000D02*
X249555000Y-52705000D01*
X241300000Y-47625000D02*
X240665000Y-46990000D01*
X242570000Y-139700000D02*
X247015000Y-139700000D01*
X251460000Y-142875000D02*
X243205000Y-142875000D01*
X240030000Y-45720000D02*
X240030000Y-46355000D01*
X247015000Y-139700000D02*
X248285000Y-138430000D01*
X240665000Y-46990000D02*
X240030000Y-46355000D01*
X233045000Y-149225000D02*
X233680000Y-149225000D01*
X247015000Y-134620000D02*
X243205000Y-134620000D01*
X240030000Y-137795000D02*
X240030000Y-142240000D01*
X156845000Y-145415000D02*
X156845000Y-144145000D01*
X250190000Y-133350000D02*
X248285000Y-133350000D01*
X240030000Y-142240000D02*
X240030000Y-142875000D01*
X248285000Y-133350000D02*
X247015000Y-134620000D01*
X243205000Y-134620000D02*
X240030000Y-137795000D01*
X154940000Y-142240000D02*
X148590000Y-142240000D01*
X135763000Y-149098000D02*
X143637000Y-149098000D01*
X133350000Y-146685000D02*
X135763000Y-149098000D01*
X147320000Y-140970000D02*
X144780000Y-140970000D01*
X135890000Y-125730000D02*
X133350000Y-128270000D01*
X138430000Y-125730000D02*
X135890000Y-125730000D01*
X233045000Y-149225000D02*
X160655000Y-149225000D01*
X148590000Y-144145000D02*
X148590000Y-142240000D01*
X160655000Y-149225000D02*
X156845000Y-145415000D01*
X240030000Y-142875000D02*
X233680000Y-149225000D01*
X133350000Y-128270000D02*
X133350000Y-146685000D01*
X148590000Y-142240000D02*
X147320000Y-140970000D01*
X143637000Y-149098000D02*
X148590000Y-144145000D01*
X156845000Y-144145000D02*
X154940000Y-142240000D01*
X168910000Y-113665000D02*
X170815000Y-115570000D01*
X148590000Y-135890000D02*
X149860000Y-134620000D01*
X185420000Y-103505000D02*
X178435000Y-103505000D01*
X236220000Y-145413590D02*
X233043590Y-148590000D01*
X173355000Y-148590000D02*
X170815000Y-146050000D01*
X237490000Y-144145000D02*
X236221410Y-145413590D01*
X170815000Y-146050000D02*
X170815000Y-139065000D01*
X237490000Y-138430000D02*
X237490000Y-144145000D01*
X170815000Y-104775000D02*
X168910000Y-106680000D01*
X185420000Y-103505000D02*
X186690000Y-104775000D01*
X233043590Y-148590000D02*
X173355000Y-148590000D01*
X168910000Y-106680000D02*
X168910000Y-113665000D01*
X178435000Y-103505000D02*
X177800000Y-102870000D01*
X243205000Y-130810000D02*
X242570000Y-131445000D01*
X170815000Y-136525000D02*
X170815000Y-139065000D01*
X186690000Y-104775000D02*
X186690000Y-106680000D01*
X144780000Y-135890000D02*
X147955000Y-135890000D01*
X141605000Y-137160000D02*
X142875000Y-135890000D01*
X138430000Y-146050000D02*
X140335000Y-146050000D01*
X245110000Y-130810000D02*
X243205000Y-130810000D01*
X149860000Y-134620000D02*
X151130000Y-134620000D01*
X177800000Y-102870000D02*
X175895000Y-102870000D01*
X236221410Y-145413590D02*
X236220000Y-145413590D01*
X170815000Y-115570000D02*
X170815000Y-134620000D01*
X242570000Y-131445000D02*
X242570000Y-133350000D01*
X170815000Y-136525000D02*
X170815000Y-134620000D01*
X141605000Y-144780000D02*
X141605000Y-137160000D01*
X151130000Y-134620000D02*
X170815000Y-134620000D01*
X147955000Y-135890000D02*
X148590000Y-135890000D01*
X142875000Y-135890000D02*
X144780000Y-135890000D01*
X242570000Y-133350000D02*
X237490000Y-138430000D01*
X140335000Y-146050000D02*
X141605000Y-144780000D01*
X242570000Y-143510000D02*
X252730000Y-143510000D01*
X194310000Y-106680000D02*
X194310000Y-104140000D01*
X177165000Y-55880000D02*
X175260000Y-57785000D01*
X252095000Y-133985000D02*
X251460000Y-134620000D01*
X154941410Y-64771410D02*
X150495000Y-60325000D01*
X241300000Y-139065000D02*
X241300000Y-142240000D01*
X241300000Y-142240000D02*
X242570000Y-143510000D01*
X251460000Y-128270000D02*
X252095000Y-128905000D01*
X154941410Y-74293590D02*
X154941410Y-64771410D01*
X245110000Y-46990000D02*
X241935000Y-46990000D01*
X155575000Y-74927180D02*
X154941410Y-74293590D01*
X241300000Y-45085000D02*
X240665000Y-44450000D01*
X250190000Y-52070000D02*
X245110000Y-46990000D01*
X251460000Y-134620000D02*
X248285000Y-134620000D01*
X231140000Y-44450000D02*
X229870000Y-45720000D01*
X163195000Y-77470000D02*
X158115000Y-77470000D01*
X240665000Y-44450000D02*
X231140000Y-44450000D01*
X182880000Y-58420000D02*
X180340000Y-55880000D01*
X195580000Y-95885000D02*
X195580000Y-83185000D01*
X158115000Y-77470000D02*
X155575000Y-74930000D01*
X196850000Y-101600000D02*
X196850000Y-99060000D01*
X196850000Y-99060000D02*
X196850000Y-97155000D01*
X252730000Y-143510000D02*
X254635000Y-141605000D01*
X217170000Y-141605000D02*
X217170000Y-143510000D01*
X247015000Y-137160000D02*
X243205000Y-137160000D01*
X182880000Y-76835000D02*
X182880000Y-58420000D01*
X180340000Y-55880000D02*
X177165000Y-55880000D01*
X155575000Y-74930000D02*
X155575000Y-74927180D01*
X125730000Y-64135000D02*
X125730000Y-67310000D01*
X248285000Y-134620000D02*
X247650000Y-135255000D01*
X195580000Y-83185000D02*
X193675000Y-81280000D01*
X252095000Y-128905000D02*
X252095000Y-133985000D01*
X250190000Y-57785000D02*
X250190000Y-52070000D01*
X254635000Y-62230000D02*
X250190000Y-57785000D01*
X247650000Y-136525000D02*
X247015000Y-137160000D01*
X193675000Y-81280000D02*
X187325000Y-81280000D01*
X150495000Y-60325000D02*
X129540000Y-60325000D01*
X129540000Y-60325000D02*
X125730000Y-64135000D01*
X243205000Y-137160000D02*
X241300000Y-139065000D01*
X250190000Y-128270000D02*
X251460000Y-128270000D01*
X247650000Y-135255000D02*
X247650000Y-136525000D01*
X175260000Y-57785000D02*
X175260000Y-65405000D01*
X254635000Y-141605000D02*
X254635000Y-62230000D01*
X187325000Y-81280000D02*
X182880000Y-76835000D01*
X175260000Y-65405000D02*
X163195000Y-77470000D01*
X241300000Y-46355000D02*
X241300000Y-45085000D01*
X196850000Y-97155000D02*
X195580000Y-95885000D01*
X241935000Y-46990000D02*
X241300000Y-46355000D01*
X217170000Y-96520000D02*
X217170000Y-141605000D01*
X194310000Y-104140000D02*
X196850000Y-101600000D01*
X173990000Y-109220000D02*
X173990000Y-109855000D01*
X173990000Y-113665000D02*
X175895000Y-115570000D01*
X173990000Y-109855000D02*
X173990000Y-113665000D01*
X175895000Y-115570000D02*
X175895000Y-144145000D01*
X174625000Y-108585000D02*
X173990000Y-109220000D01*
X175895000Y-144780000D02*
X176530000Y-145415000D01*
X175895000Y-144145000D02*
X175895000Y-144780000D01*
X175895000Y-108585000D02*
X174625000Y-108585000D01*
D33*
X55880000Y-46990000D02*
X49530000Y-46990000D01*
X49212500Y-47307500D02*
X48260000Y-48260000D01*
X49530000Y-46990000D02*
X48260000Y-48260000D01*
X60960000Y-46990000D02*
X55880000Y-46990000D01*
X48260000Y-48260000D02*
X43180000Y-53340000D01*
X76200000Y-53340000D02*
X74295000Y-51435000D01*
X57785000Y-51435000D02*
X55880000Y-53340000D01*
X76200000Y-54610000D02*
X76200000Y-53340000D01*
D30*
X47910000Y-51435000D02*
X49530000Y-51435000D01*
D33*
X74295000Y-51435000D02*
X57785000Y-51435000D01*
X55880000Y-53340000D02*
X53180000Y-53340000D01*
X53180000Y-53340000D02*
X48680000Y-53340000D01*
X59690000Y-58420000D02*
X48260000Y-58420000D01*
X48260000Y-58420000D02*
X43180000Y-63500000D01*
X60960000Y-59690000D02*
X59690000Y-58420000D01*
D37*
X214630000Y-59690000D02*
X218440000Y-59690000D01*
D34*
X43180000Y-71120000D02*
X43180000Y-73660000D01*
D30*
X219710000Y-86995000D02*
X219710000Y-109220000D01*
D34*
X245110000Y-140970000D02*
X250190000Y-140970000D01*
X41910000Y-95250000D02*
X41910000Y-134620000D01*
D30*
X219075000Y-121920000D02*
X219075000Y-120650000D01*
D33*
X250190000Y-100330000D02*
X251714000Y-100330000D01*
D30*
X109220000Y-111760000D02*
X111125000Y-111760000D01*
D37*
X227584000Y-59690000D02*
X229870000Y-59690000D01*
D30*
X219075000Y-120650000D02*
X220345000Y-120650000D01*
D33*
X160020000Y-144780000D02*
X166370000Y-144780000D01*
X252984000Y-70612000D02*
X252222000Y-69850000D01*
D30*
X219710000Y-109220000D02*
X222250000Y-109220000D01*
D34*
X171450000Y-43180000D02*
X171450000Y-41910000D01*
D30*
X163830000Y-52070000D02*
X168910000Y-52070000D01*
X171450000Y-49530000D02*
X171450000Y-45720000D01*
D37*
X218440000Y-59182000D02*
X219456000Y-58166000D01*
D34*
X43180000Y-93980000D02*
X41910000Y-95250000D01*
D30*
X222250000Y-86360000D02*
X220345000Y-86360000D01*
D34*
X171450000Y-41910000D02*
X169545000Y-40005000D01*
D33*
X252222000Y-69850000D02*
X250190000Y-69850000D01*
D31*
X141224000Y-148336000D02*
X144780000Y-144780000D01*
D30*
X168910000Y-52070000D02*
X171450000Y-49530000D01*
X220345000Y-120650000D02*
X219075000Y-121920000D01*
D37*
X226568000Y-58166000D02*
X219456000Y-58166000D01*
D31*
X182880000Y-130810000D02*
X179705000Y-130810000D01*
D30*
X106680000Y-111760000D02*
X109220000Y-111760000D01*
D34*
X39370000Y-50800000D02*
X39370000Y-67310000D01*
X43180000Y-73660000D02*
X43180000Y-83820000D01*
D32*
X252984000Y-101092000D02*
X252984000Y-100584000D01*
D37*
X218440000Y-67310000D02*
X218440000Y-59690000D01*
D34*
X43180000Y-83820000D02*
X43180000Y-93980000D01*
D30*
X219710000Y-115570000D02*
X222250000Y-115570000D01*
D34*
X171450000Y-41910000D02*
X171450000Y-40005000D01*
D37*
X227584000Y-59690000D02*
X227584000Y-59182000D01*
D31*
X134620000Y-129540000D02*
X134620000Y-146304000D01*
D30*
X77470000Y-125730000D02*
X85090000Y-118110000D01*
D33*
X252730000Y-100330000D02*
X250190000Y-100330000D01*
D37*
X227584000Y-79756000D02*
X227584000Y-59690000D01*
D30*
X219710000Y-115570000D02*
X219710000Y-116205000D01*
D31*
X144780000Y-144780000D02*
X144780000Y-143510000D01*
D34*
X110490000Y-44450000D02*
X158750000Y-44450000D01*
D33*
X41910000Y-134620000D02*
X53086000Y-134620000D01*
D34*
X105410000Y-44450000D02*
X110490000Y-44450000D01*
D33*
X252984000Y-101600000D02*
X252984000Y-101092000D01*
D34*
X201930000Y-40005000D02*
X201930000Y-41910000D01*
D31*
X135890000Y-128270000D02*
X134620000Y-129540000D01*
D30*
X77470000Y-149860000D02*
X77470000Y-125730000D01*
D34*
X158750000Y-44450000D02*
X163195000Y-40005000D01*
D33*
X81280000Y-146050000D02*
X77470000Y-149860000D01*
X252984000Y-100584000D02*
X252730000Y-100330000D01*
X59690000Y-149860000D02*
X55880000Y-146050000D01*
D30*
X220345000Y-120650000D02*
X222250000Y-120650000D01*
X219075000Y-135255000D02*
X219075000Y-121920000D01*
X219075000Y-120650000D02*
X219075000Y-119380000D01*
D33*
X252984000Y-140208000D02*
X252984000Y-101600000D01*
X252984000Y-101092000D02*
X252984000Y-99568000D01*
D34*
X201930000Y-40005000D02*
X203835000Y-40005000D01*
X240665000Y-40005000D02*
X242570000Y-41910000D01*
D30*
X220345000Y-120650000D02*
X219075000Y-119380000D01*
D34*
X201930000Y-49530000D02*
X198120000Y-53340000D01*
D31*
X136652000Y-148336000D02*
X141224000Y-148336000D01*
D30*
X140970000Y-96520000D02*
X143510000Y-99060000D01*
D33*
X252984000Y-99060000D02*
X251714000Y-100330000D01*
D30*
X85090000Y-118110000D02*
X85090000Y-114300000D01*
X112395000Y-118110000D02*
X111125000Y-119380000D01*
X133350000Y-73660000D02*
X133350000Y-78740000D01*
D32*
X252984000Y-100076000D02*
X252984000Y-99568000D01*
D33*
X53141000Y-114995000D02*
X51816000Y-114995000D01*
D32*
X203200000Y-130810000D02*
X200200000Y-130810000D01*
D30*
X92075000Y-104775000D02*
X88900000Y-101600000D01*
D34*
X171450000Y-40005000D02*
X173990000Y-40005000D01*
X51720710Y-40989290D02*
X53340000Y-39370000D01*
D37*
X226822000Y-58420000D02*
X226568000Y-58166000D01*
D34*
X41910000Y-134620000D02*
X41910000Y-135890000D01*
D30*
X219710000Y-116205000D02*
X219075000Y-116840000D01*
D32*
X198930000Y-129540000D02*
X186055000Y-129540000D01*
D37*
X218440000Y-59690000D02*
X218440000Y-59182000D01*
D33*
X166370000Y-144780000D02*
X167640000Y-143510000D01*
D34*
X110490000Y-44450000D02*
X110490000Y-46990000D01*
X245110000Y-100330000D02*
X250190000Y-100330000D01*
D32*
X222250000Y-143510000D02*
X220980000Y-143510000D01*
D34*
X43815000Y-48895000D02*
X41275000Y-48895000D01*
D30*
X134620000Y-72390000D02*
X133350000Y-73660000D01*
D37*
X222250000Y-85090000D02*
X227584000Y-79756000D01*
D34*
X200025000Y-40005000D02*
X201930000Y-40005000D01*
D30*
X112395000Y-113030000D02*
X112395000Y-118110000D01*
D31*
X134620000Y-146304000D02*
X136652000Y-148336000D01*
D34*
X173990000Y-40005000D02*
X200025000Y-40005000D01*
X201930000Y-41910000D02*
X201930000Y-43180000D01*
X242570000Y-43180000D02*
X242570000Y-45720000D01*
D31*
X140335000Y-128270000D02*
X135890000Y-128270000D01*
D30*
X86360000Y-113030000D02*
X92075000Y-113030000D01*
D34*
X163195000Y-40005000D02*
X169545000Y-40005000D01*
X171450000Y-45720000D02*
X171450000Y-43180000D01*
D33*
X252222000Y-140970000D02*
X252984000Y-140208000D01*
D30*
X220980000Y-143510000D02*
X219075000Y-141605000D01*
X140970000Y-86360000D02*
X140970000Y-96520000D01*
X92075000Y-113030000D02*
X92075000Y-104775000D01*
D34*
X101600000Y-40640000D02*
X105410000Y-44450000D01*
D32*
X186055000Y-129540000D02*
X184785000Y-130810000D01*
D34*
X173355000Y-40005000D02*
X173990000Y-40005000D01*
D31*
X79375000Y-103505000D02*
X81280000Y-105410000D01*
D34*
X41910000Y-135890000D02*
X52070000Y-146050000D01*
D33*
X77470000Y-149860000D02*
X59690000Y-149860000D01*
D30*
X220345000Y-86360000D02*
X219710000Y-86995000D01*
D34*
X201930000Y-43180000D02*
X201930000Y-45720000D01*
D32*
X50800000Y-41910000D02*
X51720710Y-40989290D01*
D34*
X50800000Y-41910000D02*
X43815000Y-48895000D01*
D31*
X177800000Y-132715000D02*
X177800000Y-143510000D01*
D33*
X252730000Y-100330000D02*
X252984000Y-100076000D01*
X198120000Y-53340000D02*
X198120000Y-56515000D01*
D34*
X203835000Y-40005000D02*
X240665000Y-40005000D01*
D37*
X222250000Y-86360000D02*
X222250000Y-85090000D01*
D30*
X111125000Y-111760000D02*
X112395000Y-113030000D01*
X105410000Y-113030000D02*
X106680000Y-111760000D01*
X133350000Y-78740000D02*
X140970000Y-86360000D01*
X111125000Y-119380000D02*
X109220000Y-119380000D01*
X219075000Y-141605000D02*
X219075000Y-135255000D01*
D34*
X41275000Y-48895000D02*
X39370000Y-50800000D01*
D33*
X252984000Y-99568000D02*
X252984000Y-99060000D01*
D30*
X140970000Y-86360000D02*
X143510000Y-86360000D01*
D31*
X179705000Y-130810000D02*
X177800000Y-132715000D01*
D34*
X39370000Y-67310000D02*
X43180000Y-71120000D01*
D37*
X227584000Y-59182000D02*
X226822000Y-58420000D01*
D34*
X52070000Y-146050000D02*
X55880000Y-146050000D01*
X201930000Y-41910000D02*
X203835000Y-40005000D01*
D30*
X92075000Y-113030000D02*
X105410000Y-113030000D01*
D34*
X169545000Y-40005000D02*
X171450000Y-40005000D01*
X101600000Y-40640000D02*
X100330000Y-39370000D01*
D30*
X219710000Y-115570000D02*
X219710000Y-109220000D01*
X88900000Y-101600000D02*
X85090000Y-101600000D01*
D33*
X53086000Y-134620000D02*
X54356000Y-133350000D01*
X251714000Y-100330000D02*
X252984000Y-101600000D01*
X54356000Y-116210000D02*
X53141000Y-114995000D01*
D30*
X85090000Y-114300000D02*
X86360000Y-113030000D01*
D34*
X100330000Y-39370000D02*
X53340000Y-39370000D01*
X201930000Y-45720000D02*
X201930000Y-49530000D01*
D31*
X65405000Y-103505000D02*
X79375000Y-103505000D01*
D33*
X252984000Y-99060000D02*
X252984000Y-70612000D01*
X54356000Y-133350000D02*
X54356000Y-116210000D01*
D30*
X135890000Y-72390000D02*
X134620000Y-72390000D01*
D32*
X200200000Y-130810000D02*
X198930000Y-129540000D01*
D34*
X242570000Y-41910000D02*
X242570000Y-43180000D01*
D32*
X184785000Y-130810000D02*
X182880000Y-130810000D01*
D33*
X250190000Y-140970000D02*
X252222000Y-140970000D01*
D34*
X171450000Y-41910000D02*
X173355000Y-40005000D01*
D31*
X63500000Y-105410000D02*
X65405000Y-103505000D01*
D34*
X201930000Y-41910000D02*
X200025000Y-40005000D01*
X250190000Y-69850000D02*
X245110000Y-69850000D01*
D30*
X219075000Y-119380000D02*
X219075000Y-116840000D01*
D32*
X233045000Y-106680000D02*
X233045000Y-104140000D01*
X234950000Y-52705000D02*
X224155000Y-52705000D01*
X233045000Y-104140000D02*
X234315000Y-102870000D01*
X236855000Y-54610000D02*
X234950000Y-52705000D01*
X224155000Y-52705000D02*
X218440000Y-46990000D01*
X226060000Y-106680000D02*
X227330000Y-107950000D01*
X235585000Y-99060000D02*
X235585000Y-97790000D01*
X227330000Y-107950000D02*
X231775000Y-107950000D01*
X236855000Y-96520000D02*
X236855000Y-54610000D01*
X205105000Y-118110000D02*
X203200000Y-118110000D01*
X201930000Y-109220000D02*
X201930000Y-113030000D01*
X222250000Y-106680000D02*
X226060000Y-106680000D01*
X203200000Y-95250000D02*
X203200000Y-107950000D01*
X234315000Y-102870000D02*
X234315000Y-100330000D01*
X235585000Y-97790000D02*
X236855000Y-96520000D01*
X202565000Y-113665000D02*
X204470000Y-113665000D01*
X218440000Y-46990000D02*
X218440000Y-44450000D01*
X218440000Y-44450000D02*
X217170000Y-43180000D01*
X234315000Y-100330000D02*
X235585000Y-99060000D01*
X205740000Y-117475000D02*
X205105000Y-118110000D01*
X203200000Y-107950000D02*
X201930000Y-109220000D01*
X204470000Y-113665000D02*
X205740000Y-114935000D01*
X231775000Y-107950000D02*
X233045000Y-106680000D01*
X201930000Y-113030000D02*
X202565000Y-113665000D01*
X205740000Y-114935000D02*
X205740000Y-117475000D01*
X234950000Y-97155000D02*
X234950000Y-98425000D01*
X234315000Y-53340000D02*
X236220000Y-55245000D01*
X232410000Y-103505000D02*
X232410000Y-106045000D01*
X217170000Y-46992792D02*
X217802208Y-47625000D01*
X231775000Y-106680000D02*
X229870000Y-106680000D01*
X205740000Y-93345000D02*
X205740000Y-95250000D01*
X196850000Y-88265000D02*
X200025000Y-91440000D01*
X200025000Y-119380000D02*
X200025000Y-107950000D01*
X200025000Y-107950000D02*
X200660000Y-107315000D01*
X200025000Y-91440000D02*
X200660000Y-91440000D01*
X201295000Y-120650000D02*
X200025000Y-119380000D01*
X203835000Y-91440000D02*
X205740000Y-93345000D01*
X217802208Y-47625000D02*
X217805000Y-47625000D01*
X234950000Y-98425000D02*
X233680000Y-99695000D01*
X217170000Y-45720000D02*
X217170000Y-46992792D01*
X217805000Y-47625000D02*
X223520000Y-53340000D01*
X203200000Y-120650000D02*
X201295000Y-120650000D01*
X236220000Y-95885000D02*
X234950000Y-97155000D01*
X196850000Y-86360000D02*
X196850000Y-88265000D01*
X233680000Y-99695000D02*
X233680000Y-102235000D01*
X233680000Y-102235000D02*
X232410000Y-103505000D01*
X223520000Y-53340000D02*
X234315000Y-53340000D01*
X236220000Y-55245000D02*
X236220000Y-95885000D01*
X200660000Y-107315000D02*
X200660000Y-91440000D01*
X200660000Y-91440000D02*
X203835000Y-91440000D01*
X232410000Y-106045000D02*
X231775000Y-106680000D01*
X239395000Y-52070000D02*
X239395000Y-99060000D01*
X227330000Y-132080000D02*
X226060000Y-130810000D01*
X238125000Y-100330000D02*
X238125000Y-101600000D01*
X239395000Y-99060000D02*
X238125000Y-100330000D01*
X236855000Y-102870000D02*
X236855000Y-127000000D01*
X231775000Y-132080000D02*
X227330000Y-132080000D01*
X238125000Y-101600000D02*
X236855000Y-102870000D01*
X223520000Y-44450000D02*
X223520000Y-46990000D01*
X236855000Y-127000000D02*
X231775000Y-132080000D01*
X223520000Y-46990000D02*
X226695000Y-50165000D01*
X222250000Y-43180000D02*
X223520000Y-44450000D01*
X237490000Y-50165000D02*
X239395000Y-52070000D01*
X226695000Y-50165000D02*
X237490000Y-50165000D01*
X226060000Y-130810000D02*
X222250000Y-130810000D01*
X225425000Y-62230000D02*
X226060000Y-62865000D01*
X153670000Y-95250000D02*
X153670000Y-93980000D01*
X200025000Y-145415000D02*
X190500000Y-135890000D01*
X160020000Y-110490000D02*
X160020000Y-104140000D01*
X210185000Y-145415000D02*
X200025000Y-145415000D01*
X147320000Y-81915000D02*
X147955000Y-82550000D01*
X147320000Y-69850000D02*
X147320000Y-81915000D01*
X152400000Y-118110000D02*
X160020000Y-110490000D01*
X154940000Y-96520000D02*
X153670000Y-95250000D01*
X226060000Y-62865000D02*
X226060000Y-76835000D01*
X147955000Y-82550000D02*
X151130000Y-82550000D01*
X226060000Y-76835000D02*
X213995000Y-88900000D01*
X154940000Y-100965000D02*
X154940000Y-96520000D01*
X157480000Y-101600000D02*
X155575000Y-101600000D01*
X222250000Y-62230000D02*
X225425000Y-62230000D01*
X213995000Y-88900000D02*
X213995000Y-98425000D01*
X152400000Y-90170000D02*
X153670000Y-91440000D01*
X213995000Y-98425000D02*
X215265000Y-99695000D01*
X152400000Y-83820000D02*
X152400000Y-90170000D01*
X146050000Y-68580000D02*
X147320000Y-69850000D01*
X215265000Y-99695000D02*
X215265000Y-140335000D01*
X146050000Y-67310000D02*
X146050000Y-68580000D01*
X215265000Y-140335000D02*
X210185000Y-145415000D01*
X190500000Y-135890000D02*
X187960000Y-135890000D01*
X160020000Y-104140000D02*
X157480000Y-101600000D01*
X152400000Y-120015000D02*
X152400000Y-118110000D01*
X155575000Y-101600000D02*
X154940000Y-100965000D01*
X153670000Y-91440000D02*
X153670000Y-93980000D01*
X151130000Y-82550000D02*
X152400000Y-83820000D01*
X157480000Y-110490000D02*
X157480000Y-104140000D01*
X143510000Y-68580000D02*
X144780000Y-69850000D01*
X149860000Y-83820000D02*
X149225000Y-83185000D01*
X143510000Y-67310000D02*
X143510000Y-68580000D01*
X151130000Y-91440000D02*
X151130000Y-93980000D01*
X152400000Y-96520000D02*
X151130000Y-95250000D01*
X216535000Y-140335000D02*
X210820000Y-146050000D01*
X210820000Y-146050000D02*
X198120000Y-146050000D01*
X149225000Y-83185000D02*
X147320000Y-83185000D01*
X156210000Y-102870000D02*
X154305000Y-102870000D01*
X157480000Y-104140000D02*
X156210000Y-102870000D01*
X149225000Y-118745000D02*
X157480000Y-110490000D01*
X149860000Y-83820000D02*
X149860000Y-90170000D01*
X144780000Y-69850000D02*
X144780000Y-81915000D01*
X149225000Y-120015000D02*
X149225000Y-118745000D01*
X190500000Y-138430000D02*
X187960000Y-138430000D01*
X222250000Y-59690000D02*
X224790000Y-59690000D01*
X152400000Y-100965000D02*
X152400000Y-96520000D01*
X144966401Y-82099991D02*
X145416410Y-82550000D01*
X214630000Y-89535000D02*
X214630000Y-97790000D01*
X151130000Y-95250000D02*
X151130000Y-93980000D01*
X214630000Y-97790000D02*
X216535000Y-99695000D01*
X224790000Y-59690000D02*
X226695000Y-61595000D01*
X152400000Y-100965000D02*
X154305000Y-102870000D01*
X144964990Y-82099990D02*
X144966401Y-82099991D01*
X144780000Y-81915000D02*
X144964990Y-82099990D01*
X216535000Y-99695000D02*
X216535000Y-140335000D01*
X146685000Y-82550000D02*
X147320000Y-83185000D01*
X145416410Y-82550000D02*
X146685000Y-82550000D01*
X226695000Y-61595000D02*
X226695000Y-77470000D01*
X149860000Y-90170000D02*
X151130000Y-91440000D01*
X198120000Y-146050000D02*
X190500000Y-138430000D01*
X226695000Y-77470000D02*
X214630000Y-89535000D01*
X149860000Y-100965000D02*
X150495000Y-101600000D01*
X142875000Y-82550000D02*
X144145000Y-82550000D01*
X146685000Y-83820000D02*
X147320000Y-84455000D01*
X222250000Y-67310000D02*
X224155000Y-67310000D01*
X140970000Y-68580000D02*
X142240000Y-69850000D01*
X147320000Y-90170000D02*
X148590000Y-91440000D01*
X142240000Y-81915000D02*
X142875000Y-82550000D01*
X224790000Y-67945000D02*
X224790000Y-75565000D01*
X154940000Y-104775000D02*
X154940000Y-110490000D01*
X148590000Y-91440000D02*
X148590000Y-93980000D01*
X185420000Y-135255000D02*
X185420000Y-140335000D01*
X151765000Y-101600000D02*
X154940000Y-104775000D01*
X224155000Y-67310000D02*
X224790000Y-67945000D01*
X146799999Y-118630001D02*
X146799999Y-119265001D01*
X224790000Y-75565000D02*
X212725000Y-87630000D01*
X140970000Y-67310000D02*
X140970000Y-68580000D01*
X148590000Y-95250000D02*
X149860000Y-96520000D01*
X212725000Y-139065000D02*
X209550000Y-142240000D01*
X199390000Y-142240000D02*
X191770000Y-134620000D01*
X186055000Y-134620000D02*
X185420000Y-135255000D01*
X186055000Y-140970000D02*
X187960000Y-140970000D01*
X142240000Y-69850000D02*
X142240000Y-81915000D01*
X185420000Y-140335000D02*
X186055000Y-140970000D01*
X146799999Y-119265001D02*
X146050000Y-120015000D01*
X154940000Y-110490000D02*
X146799999Y-118630001D01*
X145415000Y-83820000D02*
X146685000Y-83820000D01*
X144145000Y-82550000D02*
X145415000Y-83820000D01*
X150495000Y-101600000D02*
X151765000Y-101600000D01*
X148590000Y-93980000D02*
X148590000Y-95250000D01*
X212725000Y-87630000D02*
X212725000Y-139065000D01*
X209550000Y-142240000D02*
X199390000Y-142240000D01*
X147320000Y-84455000D02*
X147320000Y-90170000D01*
X191770000Y-134620000D02*
X186055000Y-134620000D01*
X149860000Y-96520000D02*
X149860000Y-100965000D01*
X224790000Y-52070000D02*
X235585000Y-52070000D01*
X219710000Y-45720000D02*
X219710000Y-46990000D01*
X236220000Y-99695000D02*
X234950000Y-100965000D01*
X234950000Y-122555000D02*
X231775000Y-125730000D01*
X234950000Y-100965000D02*
X234950000Y-122555000D01*
X237490000Y-97155000D02*
X236220000Y-98425000D01*
X219710000Y-46990000D02*
X224790000Y-52070000D01*
X237490000Y-53975000D02*
X237490000Y-97155000D01*
X236220000Y-98425000D02*
X236220000Y-99695000D01*
X235585000Y-52070000D02*
X237490000Y-53975000D01*
X231775000Y-125730000D02*
X229870000Y-125730000D01*
X236855000Y-100330000D02*
X236855000Y-99060000D01*
X236855000Y-99060000D02*
X238125000Y-97790000D01*
X231775000Y-127000000D02*
X235585000Y-123190000D01*
X227330000Y-127000000D02*
X231775000Y-127000000D01*
X226060000Y-125730000D02*
X227330000Y-127000000D01*
X222250000Y-125730000D02*
X226060000Y-125730000D01*
X225425000Y-51435000D02*
X220980000Y-46990000D01*
X235585000Y-123190000D02*
X235585000Y-101600000D01*
X235585000Y-101600000D02*
X236855000Y-100330000D01*
X238125000Y-97790000D02*
X238125000Y-53340000D01*
X220980000Y-44450000D02*
X219710000Y-43180000D01*
X236220000Y-51435000D02*
X225425000Y-51435000D01*
X220980000Y-46990000D02*
X220980000Y-44450000D01*
X238125000Y-53340000D02*
X236220000Y-51435000D01*
X238760000Y-98425000D02*
X237490000Y-99695000D01*
X236855000Y-50800000D02*
X238760000Y-52705000D01*
X237490000Y-99695000D02*
X237490000Y-100965000D01*
X222250000Y-45720000D02*
X222250000Y-46990000D01*
X236220000Y-126365000D02*
X231775000Y-130810000D01*
X222250000Y-46990000D02*
X226060000Y-50800000D01*
X231775000Y-130810000D02*
X229870000Y-130810000D01*
X226060000Y-50800000D02*
X236855000Y-50800000D01*
X236220000Y-102235000D02*
X236220000Y-126365000D01*
X238760000Y-52705000D02*
X238760000Y-98425000D01*
X237490000Y-100965000D02*
X236220000Y-102235000D01*
X224790000Y-45720000D02*
X224790000Y-46992792D01*
X232410000Y-135255000D02*
X231775000Y-135890000D01*
X238760000Y-102235000D02*
X237490000Y-103505000D01*
X225422208Y-47625000D02*
X225425000Y-47625000D01*
X240030000Y-51435000D02*
X240030000Y-99695000D01*
X232410000Y-133350000D02*
X232410000Y-135255000D01*
X237490000Y-128270000D02*
X232410000Y-133350000D01*
X224790000Y-46992792D02*
X225422208Y-47625000D01*
X225425000Y-47625000D02*
X227330000Y-49530000D01*
X238760000Y-100965000D02*
X238760000Y-102235000D01*
X240030000Y-99695000D02*
X238760000Y-100965000D01*
X231775000Y-135890000D02*
X229870000Y-135890000D01*
X238125000Y-49530000D02*
X240030000Y-51435000D01*
X227330000Y-49530000D02*
X238125000Y-49530000D01*
X237490000Y-103505000D02*
X237490000Y-128270000D01*
X226060000Y-135890000D02*
X222250000Y-135890000D01*
X240665000Y-100330000D02*
X239395000Y-101600000D01*
X227965000Y-48895000D02*
X238760000Y-48895000D01*
X227330000Y-137160000D02*
X226060000Y-135890000D01*
X231775000Y-137160000D02*
X227330000Y-137160000D01*
X233045000Y-133985000D02*
X233045000Y-135890000D01*
X238125000Y-104140000D02*
X238125000Y-128905000D01*
X238125000Y-128905000D02*
X233045000Y-133985000D01*
X226060000Y-44450000D02*
X226060000Y-46990000D01*
X226060000Y-46990000D02*
X227965000Y-48895000D01*
X233045000Y-135890000D02*
X231775000Y-137160000D01*
X240665000Y-50800000D02*
X240665000Y-100330000D01*
X224790000Y-43180000D02*
X226060000Y-44450000D01*
X239395000Y-102870000D02*
X238125000Y-104140000D01*
X239395000Y-101600000D02*
X239395000Y-102870000D01*
X238760000Y-48895000D02*
X240665000Y-50800000D01*
X227330000Y-46990000D02*
X227330000Y-45720000D01*
X233680000Y-134620000D02*
X238760000Y-129540000D01*
X240030000Y-102235000D02*
X241300000Y-100965000D01*
X229870000Y-140970000D02*
X231775000Y-140970000D01*
X228600000Y-48260000D02*
X227330000Y-46990000D01*
X240030000Y-103505000D02*
X240030000Y-102235000D01*
X239395000Y-48260000D02*
X228600000Y-48260000D01*
X238760000Y-129540000D02*
X238760000Y-104775000D01*
X233680000Y-139065000D02*
X233680000Y-134620000D01*
X241300000Y-100965000D02*
X241300000Y-50165000D01*
X231775000Y-140970000D02*
X233680000Y-139065000D01*
X238760000Y-104775000D02*
X240030000Y-103505000D01*
X241300000Y-50165000D02*
X239395000Y-48260000D01*
X240665000Y-104140000D02*
X239395000Y-105410000D01*
X227330000Y-142240000D02*
X226060000Y-140970000D01*
X240665000Y-102870000D02*
X240665000Y-104140000D01*
X228600000Y-44450000D02*
X228600000Y-46990000D01*
X239395000Y-105410000D02*
X239395000Y-130175000D01*
X234315000Y-139700000D02*
X231775000Y-142240000D01*
X240030000Y-47625000D02*
X241935000Y-49530000D01*
X239395000Y-130175000D02*
X234315000Y-135255000D01*
X231775000Y-142240000D02*
X227330000Y-142240000D01*
X226060000Y-140970000D02*
X222250000Y-140970000D01*
X241935000Y-101600000D02*
X240665000Y-102870000D01*
X227330000Y-43180000D02*
X228600000Y-44450000D01*
X234315000Y-135255000D02*
X234315000Y-139700000D01*
X229235000Y-47625000D02*
X240030000Y-47625000D01*
X241935000Y-49530000D02*
X241935000Y-101600000D01*
X228600000Y-46990000D02*
X229235000Y-47625000D01*
X144780000Y-84455000D02*
X143510000Y-83185000D01*
X139700000Y-83185000D02*
X143510000Y-83185000D01*
X222250000Y-64770000D02*
X224790000Y-64770000D01*
X213995000Y-139700000D02*
X210185000Y-143510000D01*
X213360000Y-88265000D02*
X213360000Y-99060000D01*
X146050000Y-91440000D02*
X146050000Y-93980000D01*
X210185000Y-143510000D02*
X203200000Y-143510000D01*
X225425000Y-65405000D02*
X225425000Y-76200000D01*
X138430000Y-81915000D02*
X139700000Y-83185000D01*
X213995000Y-99695000D02*
X213995000Y-139700000D01*
X138430000Y-67310000D02*
X138430000Y-81915000D01*
X225425000Y-76200000D02*
X213360000Y-88265000D01*
X144780000Y-84455000D02*
X144780000Y-90170000D01*
X224790000Y-64770000D02*
X225425000Y-65405000D01*
X144780000Y-90170000D02*
X146050000Y-91440000D01*
X213360000Y-99060000D02*
X213995000Y-99695000D01*
X130175000Y-64770000D02*
X127635000Y-64770000D01*
X144780000Y-103505000D02*
X146050000Y-104775000D01*
X146050000Y-104775000D02*
X146050000Y-106680000D01*
X208915000Y-91440000D02*
X208915000Y-135255000D01*
X127000000Y-70485000D02*
X130175000Y-73660000D01*
X140335000Y-103505000D02*
X144780000Y-103505000D01*
X130810000Y-65405000D02*
X130175000Y-64770000D01*
X203200000Y-85725000D02*
X208915000Y-91440000D01*
X208915000Y-135255000D02*
X208280000Y-135890000D01*
X203200000Y-60960000D02*
X203200000Y-85725000D01*
X127635000Y-64770000D02*
X127000000Y-65405000D01*
X204470000Y-59690000D02*
X203200000Y-60960000D01*
X137795000Y-100965000D02*
X140335000Y-103505000D01*
X207010000Y-59690000D02*
X204470000Y-59690000D01*
X208280000Y-135890000D02*
X203200000Y-135890000D01*
X130175000Y-73660000D02*
X130175000Y-81280000D01*
X130175000Y-81280000D02*
X137795000Y-88900000D01*
X130810000Y-67310000D02*
X130810000Y-65405000D01*
X127000000Y-65405000D02*
X127000000Y-70485000D01*
X137795000Y-88900000D02*
X137795000Y-100965000D01*
X209550000Y-59055000D02*
X208915000Y-58420000D01*
X128270000Y-67310000D02*
X128270000Y-70485000D01*
X207010000Y-62230000D02*
X208915000Y-62230000D01*
X130810000Y-73025000D02*
X130810000Y-80645000D01*
X138430000Y-100330000D02*
X140970000Y-102870000D01*
X208915000Y-58420000D02*
X204470000Y-58420000D01*
X202565000Y-60325000D02*
X202565000Y-86360000D01*
X207645000Y-91440000D02*
X207645000Y-132715000D01*
X202565000Y-86360000D02*
X207645000Y-91440000D01*
X207645000Y-132715000D02*
X207010000Y-133350000D01*
X207010000Y-133350000D02*
X203200000Y-133350000D01*
X140970000Y-102870000D02*
X146685000Y-102870000D01*
X208915000Y-62230000D02*
X209550000Y-61595000D01*
X209550000Y-61595000D02*
X209550000Y-59055000D01*
X148590000Y-104775000D02*
X148590000Y-106680000D01*
X204470000Y-58420000D02*
X202565000Y-60325000D01*
X146685000Y-102870000D02*
X148590000Y-104775000D01*
X138430000Y-88265000D02*
X138430000Y-100330000D01*
X128270000Y-70485000D02*
X130810000Y-73025000D01*
X130810000Y-80645000D02*
X138430000Y-88265000D01*
X208915000Y-138430000D02*
X203200000Y-138430000D01*
X131445000Y-72390000D02*
X131445000Y-80010000D01*
X210185000Y-91440000D02*
X210185000Y-137160000D01*
X151130000Y-106680000D02*
X151130000Y-109220000D01*
X133350000Y-69850000D02*
X133350000Y-70485000D01*
X203835000Y-67945000D02*
X203835000Y-85090000D01*
X207010000Y-67310000D02*
X204470000Y-67310000D01*
X133350000Y-67310000D02*
X133350000Y-69850000D01*
X203835000Y-85090000D02*
X210185000Y-91440000D01*
X131445000Y-80010000D02*
X133985000Y-82550000D01*
X133350000Y-70485000D02*
X131445000Y-72390000D01*
X133985000Y-82550000D02*
X139065000Y-87630000D01*
X148590000Y-102235000D02*
X151130000Y-104775000D01*
X146050000Y-114300000D02*
X146050000Y-114935000D01*
X204470000Y-67310000D02*
X203835000Y-67945000D01*
X151130000Y-109220000D02*
X146050000Y-114300000D01*
X210185000Y-137160000D02*
X208915000Y-138430000D01*
X139065000Y-87630000D02*
X139065000Y-99695000D01*
X139065000Y-99695000D02*
X141605000Y-102235000D01*
X151130000Y-104775000D02*
X151130000Y-106680000D01*
X141605000Y-102235000D02*
X148590000Y-102235000D01*
X205105000Y-68580000D02*
X204470000Y-69215000D01*
X132080000Y-79375000D02*
X139700000Y-86995000D01*
X153035000Y-105410000D02*
X152899290Y-105545710D01*
X153670000Y-109220000D02*
X153670000Y-106680000D01*
X207010000Y-64770000D02*
X208915000Y-64770000D01*
X135890000Y-67310000D02*
X135890000Y-69215000D01*
X135890000Y-69215000D02*
X132080000Y-73025000D01*
X208915000Y-68580000D02*
X205105000Y-68580000D01*
X204470000Y-84455000D02*
X211455000Y-91440000D01*
X204470000Y-69215000D02*
X204470000Y-84455000D01*
X152899290Y-105545710D02*
X152899290Y-105909290D01*
X211455000Y-138430000D02*
X208915000Y-140970000D01*
X149225000Y-101600000D02*
X153035000Y-105410000D01*
X211455000Y-91440000D02*
X211455000Y-138430000D01*
X209550000Y-67945000D02*
X208915000Y-68580000D01*
X139700000Y-86995000D02*
X139700000Y-99060000D01*
X209550000Y-65405000D02*
X209550000Y-67945000D01*
X208915000Y-64770000D02*
X209550000Y-65405000D01*
X142240000Y-101600000D02*
X149225000Y-101600000D01*
X146050000Y-117475000D02*
X153670000Y-109855000D01*
X139700000Y-99060000D02*
X142240000Y-101600000D01*
X153670000Y-109855000D02*
X153670000Y-109220000D01*
X208915000Y-140970000D02*
X203200000Y-140970000D01*
X152899290Y-105909290D02*
X153670000Y-106680000D01*
X132080000Y-73025000D02*
X132080000Y-79375000D01*
D33*
X76200000Y-66040000D02*
X74295000Y-64135000D01*
X57150000Y-63500000D02*
X48680000Y-63500000D01*
X57785000Y-64135000D02*
X57150000Y-63500000D01*
X74295000Y-64135000D02*
X57785000Y-64135000D01*
D30*
X76200000Y-67310000D02*
X76200000Y-66040000D01*
D32*
X206375000Y-114300000D02*
X206375000Y-127635000D01*
X204470000Y-109220000D02*
X204470000Y-112395000D01*
X227330000Y-102870000D02*
X231775000Y-102870000D01*
X205740000Y-128270000D02*
X203200000Y-128270000D01*
X234315000Y-96520000D02*
X235585000Y-95250000D01*
X206375000Y-127635000D02*
X205740000Y-128270000D01*
X233680000Y-53975000D02*
X222885000Y-53975000D01*
X231775000Y-102870000D02*
X233045000Y-101600000D01*
X226060000Y-101600000D02*
X227330000Y-102870000D01*
X204470000Y-112395000D02*
X206375000Y-114300000D01*
X235585000Y-55880000D02*
X233680000Y-53975000D01*
X205740000Y-107950000D02*
X204470000Y-109220000D01*
X215900000Y-44450000D02*
X214630000Y-43180000D01*
X222885000Y-53975000D02*
X215900000Y-46990000D01*
X234315000Y-97790000D02*
X234315000Y-96520000D01*
X235585000Y-95250000D02*
X235585000Y-55880000D01*
X233045000Y-99060000D02*
X234315000Y-97790000D01*
X205740000Y-101600000D02*
X205740000Y-107950000D01*
X222250000Y-101600000D02*
X226060000Y-101600000D01*
X215900000Y-46990000D02*
X215900000Y-44450000D01*
X233045000Y-101600000D02*
X233045000Y-99060000D01*
X212090000Y-45720000D02*
X212090000Y-46992792D01*
X179705000Y-78740000D02*
X184785000Y-83820000D01*
X212722208Y-47625000D02*
X212725000Y-47625000D01*
X186055000Y-83820000D02*
X186690000Y-84455000D01*
X186690000Y-84455000D02*
X186690000Y-86360000D01*
X232410000Y-95885000D02*
X231775000Y-96520000D01*
X232410000Y-94615000D02*
X232410000Y-95885000D01*
X233680000Y-57785000D02*
X233680000Y-93345000D01*
X220980000Y-55880000D02*
X231775000Y-55880000D01*
X170180000Y-78740000D02*
X179705000Y-78740000D01*
X231775000Y-55880000D02*
X233680000Y-57785000D01*
X231775000Y-96520000D02*
X229870000Y-96520000D01*
X184785000Y-83820000D02*
X186055000Y-83820000D01*
X168275000Y-80645000D02*
X170180000Y-78740000D01*
X212725000Y-47625000D02*
X220980000Y-55880000D01*
X167640000Y-80645000D02*
X168275000Y-80645000D01*
X212090000Y-46992792D02*
X212722208Y-47625000D01*
X233680000Y-93345000D02*
X232410000Y-94615000D01*
X222250000Y-91440000D02*
X226060000Y-91440000D01*
X231140000Y-56515000D02*
X220345000Y-56515000D01*
X210820000Y-46990000D02*
X210820000Y-44450000D01*
X210820000Y-44450000D02*
X209550000Y-43180000D01*
X189230000Y-84455000D02*
X189230000Y-86360000D01*
X233045000Y-58420000D02*
X231140000Y-56515000D01*
X187960000Y-83185000D02*
X189230000Y-84455000D01*
X226060000Y-91440000D02*
X227330000Y-92710000D01*
X233045000Y-91440000D02*
X233045000Y-58420000D01*
X167640000Y-79375000D02*
X168275000Y-79375000D01*
X185420000Y-83185000D02*
X187960000Y-83185000D01*
X180340000Y-78105000D02*
X185420000Y-83185000D01*
X231775000Y-92710000D02*
X233045000Y-91440000D01*
X220345000Y-56515000D02*
X210820000Y-46990000D01*
X169545000Y-78105000D02*
X180340000Y-78105000D01*
X227330000Y-92710000D02*
X231775000Y-92710000D01*
X168275000Y-79375000D02*
X169545000Y-78105000D01*
X180975000Y-77470000D02*
X186055000Y-82550000D01*
X229870000Y-91440000D02*
X231140000Y-91440000D01*
X189865000Y-82550000D02*
X191770000Y-84455000D01*
X168275000Y-77470000D02*
X180975000Y-77470000D01*
X209550000Y-46990000D02*
X209550000Y-45720000D01*
X232410000Y-90170000D02*
X232410000Y-59055000D01*
X230505000Y-57150000D02*
X219710000Y-57150000D01*
X191770000Y-84455000D02*
X191770000Y-86360000D01*
X186055000Y-82550000D02*
X189865000Y-82550000D01*
X232410000Y-59055000D02*
X230505000Y-57150000D01*
X231140000Y-91440000D02*
X232410000Y-90170000D01*
X167640000Y-78105000D02*
X168275000Y-77470000D01*
X219710000Y-57150000D02*
X209550000Y-46990000D01*
X146050000Y-149860000D02*
X152400000Y-143510000D01*
X129540000Y-140970000D02*
X129540000Y-148590000D01*
X118110000Y-135890000D02*
X120650000Y-138430000D01*
X127000000Y-138430000D02*
X129540000Y-140970000D01*
X129540000Y-148590000D02*
X130810000Y-149860000D01*
X116840000Y-135890000D02*
X118110000Y-135890000D01*
X120650000Y-138430000D02*
X127000000Y-138430000D01*
X130810000Y-149860000D02*
X146050000Y-149860000D01*
X120650000Y-130810000D02*
X123190000Y-128270000D01*
X130810000Y-128270000D02*
X138430000Y-120650000D01*
X123190000Y-128270000D02*
X130810000Y-128270000D01*
X116840000Y-130810000D02*
X120650000Y-130810000D01*
X184150000Y-90805000D02*
X182880000Y-89535000D01*
X191770000Y-91440000D02*
X191135000Y-90805000D01*
X151130000Y-74295000D02*
X151130000Y-72390000D01*
X167005000Y-83185000D02*
X156210000Y-83185000D01*
X167640000Y-83820000D02*
X167005000Y-83185000D01*
X154940000Y-81915000D02*
X154940000Y-78105000D01*
X182880000Y-85090000D02*
X181610000Y-83820000D01*
X181610000Y-83820000D02*
X167640000Y-83820000D01*
X182880000Y-89535000D02*
X182880000Y-85090000D01*
X191770000Y-93980000D02*
X191770000Y-91440000D01*
X154940000Y-78105000D02*
X151130000Y-74295000D01*
X191135000Y-90805000D02*
X184150000Y-90805000D01*
X156210000Y-83185000D02*
X154940000Y-81915000D01*
X190500000Y-65405000D02*
X193038590Y-65405000D01*
X173990000Y-65405000D02*
X173990000Y-57785000D01*
X189230000Y-64135000D02*
X190500000Y-65405000D01*
X193675000Y-60325000D02*
X191770000Y-58420000D01*
X193675000Y-64768590D02*
X193675000Y-60325000D01*
X176657000Y-55118000D02*
X181483000Y-55118000D01*
X189230000Y-62865000D02*
X189230000Y-64135000D01*
X161290000Y-76200000D02*
X163195000Y-76200000D01*
X193038590Y-65405000D02*
X193675000Y-64768590D01*
X173990000Y-57785000D02*
X176657000Y-55118000D01*
X163195000Y-76200000D02*
X173990000Y-65405000D01*
X181483000Y-55118000D02*
X189230000Y-62865000D01*
X191770000Y-63500000D02*
X182245000Y-53975000D01*
X207010000Y-72390000D02*
X210820000Y-72390000D01*
X218440000Y-72390000D02*
X222250000Y-72390000D01*
X212090000Y-73660000D02*
X217170000Y-73660000D01*
X172720000Y-63500000D02*
X166370000Y-69850000D01*
X182245000Y-53975000D02*
X175895000Y-53975000D01*
X175895000Y-53975000D02*
X172720000Y-57150000D01*
X210820000Y-72390000D02*
X212090000Y-73660000D01*
X160020000Y-70485000D02*
X160020000Y-74295000D01*
X172720000Y-57150000D02*
X172720000Y-63500000D01*
X166370000Y-69850000D02*
X160655000Y-69850000D01*
X160655000Y-69850000D02*
X160020000Y-70485000D01*
X217170000Y-73660000D02*
X218440000Y-72390000D01*
X160020000Y-74295000D02*
X158750000Y-75565000D01*
X233045000Y-95250000D02*
X234315000Y-93980000D01*
X221615000Y-55245000D02*
X213360000Y-46990000D01*
X213360000Y-44450000D02*
X212090000Y-43180000D01*
X234315000Y-57150000D02*
X232410000Y-55245000D01*
X213360000Y-46990000D02*
X213360000Y-44450000D01*
X231775000Y-97790000D02*
X233045000Y-96520000D01*
X222250000Y-96520000D02*
X226060000Y-96520000D01*
X232410000Y-55245000D02*
X221615000Y-55245000D01*
X233045000Y-96520000D02*
X233045000Y-95250000D01*
X226060000Y-96520000D02*
X227330000Y-97790000D01*
X234315000Y-93980000D02*
X234315000Y-57150000D01*
X227330000Y-97790000D02*
X231775000Y-97790000D01*
X233680000Y-97155000D02*
X232410000Y-98425000D01*
X234950000Y-94615000D02*
X233680000Y-95885000D01*
X233045000Y-54610000D02*
X234950000Y-56515000D01*
X233680000Y-95885000D02*
X233680000Y-97155000D01*
X214630000Y-46992792D02*
X215262208Y-47625000D01*
X232410000Y-98425000D02*
X232410000Y-100965000D01*
X214630000Y-45720000D02*
X214630000Y-46992792D01*
X231775000Y-101600000D02*
X229870000Y-101600000D01*
X215262208Y-47625000D02*
X215265000Y-47625000D01*
X234950000Y-56515000D02*
X234950000Y-94615000D01*
X215265000Y-47625000D02*
X222250000Y-54610000D01*
X222250000Y-54610000D02*
X233045000Y-54610000D01*
X232410000Y-100965000D02*
X231775000Y-101600000D01*
D31*
X88900000Y-99060000D02*
X92710000Y-102870000D01*
X92710000Y-102870000D02*
X101600000Y-102870000D01*
X59055000Y-102235000D02*
X77470000Y-102235000D01*
X55880000Y-83820000D02*
X57150000Y-85090000D01*
X109220000Y-95250000D02*
X132080000Y-95250000D01*
X77470000Y-102235000D02*
X80645000Y-99060000D01*
X48680000Y-83820000D02*
X55880000Y-83820000D01*
X101600000Y-102870000D02*
X109220000Y-95250000D01*
X57150000Y-100330000D02*
X59055000Y-102235000D01*
X132080000Y-90170000D02*
X132080000Y-95250000D01*
X57150000Y-85090000D02*
X57150000Y-100330000D01*
X80645000Y-99060000D02*
X88900000Y-99060000D01*
D30*
X107950000Y-60960000D02*
X109220000Y-62230000D01*
X109220000Y-49530000D02*
X107950000Y-50800000D01*
X160020000Y-46990000D02*
X114935000Y-46990000D01*
X114935000Y-46990000D02*
X112395000Y-49530000D01*
X107950000Y-50800000D02*
X107950000Y-60960000D01*
X161290000Y-48260000D02*
X160020000Y-46990000D01*
X112395000Y-49530000D02*
X109220000Y-49530000D01*
D31*
X101600000Y-130810000D02*
X101600000Y-135890000D01*
X109220000Y-135890000D02*
X101600000Y-135890000D01*
X54927500Y-108902500D02*
X54927500Y-102557500D01*
X54927500Y-102557500D02*
X53515000Y-101145000D01*
X54927500Y-108902500D02*
X56515000Y-110490000D01*
X51816000Y-101145000D02*
X53515000Y-101145000D01*
X56515000Y-110490000D02*
X60960000Y-110490000D01*
X129540000Y-100330000D02*
X125730000Y-104140000D01*
D32*
X125730000Y-104140000D02*
X125730000Y-105410000D01*
X133350000Y-105410000D02*
X134270710Y-106330710D01*
X134270710Y-106330710D02*
X138430000Y-110490000D01*
D31*
X109220000Y-101600000D02*
X116840000Y-101600000D01*
X120650000Y-113030000D02*
X119380000Y-114300000D01*
X116840000Y-101600000D02*
X120650000Y-105410000D01*
X119380000Y-114300000D02*
X116840000Y-114300000D01*
X120650000Y-105410000D02*
X120650000Y-113030000D01*
D32*
X117475000Y-126365000D02*
X121920000Y-121920000D01*
X125730000Y-110490000D02*
X124460000Y-110490000D01*
X102870000Y-127000000D02*
X109220000Y-127000000D01*
X101600000Y-125730000D02*
X102870000Y-127000000D01*
X111125000Y-126365000D02*
X117475000Y-126365000D01*
X121920000Y-121920000D02*
X121920000Y-113030000D01*
X109220000Y-127000000D02*
X109220000Y-128270000D01*
X124460000Y-110490000D02*
X121920000Y-113030000D01*
X110490000Y-127000000D02*
X111125000Y-126365000D01*
X109220000Y-127000000D02*
X110490000Y-127000000D01*
D31*
X101600000Y-106680000D02*
X101600000Y-105410000D01*
X109220000Y-106680000D02*
X101600000Y-106680000D01*
X101600000Y-105410000D02*
X101600000Y-110490000D01*
X81280000Y-114300000D02*
X85090000Y-110490000D01*
X81280000Y-118110000D02*
X81280000Y-114300000D01*
X85090000Y-110490000D02*
X88900000Y-110490000D01*
X101600000Y-69850000D02*
X101600000Y-64770000D01*
D32*
X51816000Y-97325000D02*
X51016000Y-96525000D01*
X51816000Y-98375000D02*
X51816000Y-97325000D01*
X51016000Y-96525000D02*
X47371000Y-96525000D01*
X47371000Y-96525000D02*
X45466000Y-98430000D01*
X45466000Y-98430000D02*
X45466000Y-104780000D01*
X46101000Y-106685000D02*
X45466000Y-107320000D01*
X51816000Y-106685000D02*
X46101000Y-106685000D01*
X46966000Y-109455000D02*
X46736000Y-109225000D01*
X51816000Y-109455000D02*
X47371000Y-109455000D01*
X46736000Y-109225000D02*
X45466000Y-109225000D01*
X47371000Y-109455000D02*
X46966000Y-109455000D01*
D31*
X77470000Y-97790000D02*
X88265000Y-97790000D01*
X92075000Y-93980000D02*
X92075000Y-83185000D01*
X74930000Y-100330000D02*
X77470000Y-97790000D01*
X88265000Y-97790000D02*
X92075000Y-93980000D01*
X92075000Y-83185000D02*
X88900000Y-80010000D01*
D32*
X47196000Y-112225000D02*
X46736000Y-111765000D01*
X51816000Y-112225000D02*
X47371000Y-112225000D01*
X47371000Y-112225000D02*
X47196000Y-112225000D01*
X46736000Y-111765000D02*
X45466000Y-111765000D01*
X46846000Y-123305000D02*
X45466000Y-121925000D01*
X45466000Y-121925000D02*
X45466000Y-117480000D01*
X51816000Y-123305000D02*
X46846000Y-123305000D01*
D31*
X109220000Y-138430000D02*
X104140000Y-138430000D01*
X104140000Y-138430000D02*
X101600000Y-140970000D01*
D32*
X114300000Y-137160000D02*
X115570000Y-138430000D01*
X118110000Y-127000000D02*
X121920000Y-123190000D01*
X115570000Y-138430000D02*
X116840000Y-138430000D01*
X127000000Y-123190000D02*
X134620000Y-115570000D01*
X114300000Y-133350000D02*
X114300000Y-137160000D01*
X114300000Y-127635000D02*
X114935000Y-127000000D01*
X111760000Y-130810000D02*
X114300000Y-130810000D01*
X114300000Y-133350000D02*
X114300000Y-130810000D01*
X134620000Y-115570000D02*
X138430000Y-115570000D01*
X121920000Y-123190000D02*
X127000000Y-123190000D01*
X109220000Y-130810000D02*
X111760000Y-130810000D01*
X114300000Y-130810000D02*
X114300000Y-127635000D01*
X114935000Y-127000000D02*
X118110000Y-127000000D01*
X49276000Y-116845000D02*
X49276000Y-116680000D01*
X46736000Y-114305000D02*
X49276000Y-116845000D01*
X45466000Y-114305000D02*
X46736000Y-114305000D01*
X49276000Y-116680000D02*
X48976000Y-116380000D01*
X154305000Y-84455000D02*
X165735000Y-84455000D01*
X175260000Y-98425000D02*
X175895000Y-99060000D01*
X150495000Y-81915000D02*
X149860000Y-81280000D01*
X179070000Y-98425000D02*
X179070000Y-94615000D01*
X178435000Y-99060000D02*
X179070000Y-98425000D01*
X167005000Y-85725000D02*
X167005000Y-88900000D01*
X166370000Y-85090000D02*
X167005000Y-85725000D01*
X151765000Y-81915000D02*
X154305000Y-84455000D01*
X149860000Y-77470000D02*
X148590000Y-76200000D01*
X179070000Y-94615000D02*
X179705000Y-93980000D01*
X177165000Y-99060000D02*
X178435000Y-99060000D01*
X151765000Y-81915000D02*
X150495000Y-81915000D01*
X149860000Y-81280000D02*
X149860000Y-77470000D01*
X175260000Y-92075000D02*
X173355000Y-90170000D01*
X173355000Y-90170000D02*
X168275000Y-90170000D01*
X175895000Y-99060000D02*
X177165000Y-99060000D01*
X167005000Y-88900000D02*
X168275000Y-90170000D01*
X148590000Y-76200000D02*
X148590000Y-72390000D01*
X179705000Y-93980000D02*
X181610000Y-93980000D01*
X175260000Y-92075000D02*
X175260000Y-95250000D01*
X165735000Y-84455000D02*
X166370000Y-85090000D01*
X175260000Y-95250000D02*
X175260000Y-98425000D01*
X168910000Y-89535000D02*
X175895000Y-89535000D01*
X154940000Y-83820000D02*
X166370000Y-83820000D01*
X175895000Y-89535000D02*
X177165000Y-90805000D01*
X167640000Y-88265000D02*
X168910000Y-89535000D01*
X153670000Y-82550000D02*
X154940000Y-83820000D01*
X177165000Y-90805000D02*
X177165000Y-93980000D01*
X153670000Y-80010000D02*
X153670000Y-82550000D01*
X167640000Y-85090000D02*
X167640000Y-88265000D01*
X166370000Y-83820000D02*
X167640000Y-85090000D01*
X113665000Y-72390000D02*
X116840000Y-72390000D01*
X102870000Y-43815000D02*
X106680000Y-47625000D01*
X62865000Y-43815000D02*
X102870000Y-43815000D01*
X106680000Y-62230000D02*
X111125000Y-66675000D01*
X111125000Y-66675000D02*
X111125000Y-69850000D01*
X106680000Y-47625000D02*
X106680000Y-62230000D01*
X111125000Y-69850000D02*
X113665000Y-72390000D01*
X60960000Y-41910000D02*
X62865000Y-43815000D01*
X57120000Y-44450000D02*
X102235000Y-44450000D01*
X106045000Y-48260000D02*
X106045000Y-63500000D01*
X109220000Y-66675000D02*
X109220000Y-72390000D01*
X102235000Y-44450000D02*
X106045000Y-48260000D01*
X106045000Y-63500000D02*
X109220000Y-66675000D01*
X55880000Y-43210000D02*
X57120000Y-44450000D01*
X55880000Y-41910000D02*
X55880000Y-43210000D01*
D31*
X101600000Y-57150000D02*
X101600000Y-52070000D01*
X99060000Y-59690000D02*
X99060000Y-71120000D01*
X92710000Y-49530000D02*
X96520000Y-53340000D01*
X96520000Y-53340000D02*
X96520000Y-57150000D01*
X64770000Y-49530000D02*
X92710000Y-49530000D01*
X63500000Y-48260000D02*
X64770000Y-49530000D01*
X99060000Y-71120000D02*
X100330000Y-72390000D01*
X96520000Y-57150000D02*
X99060000Y-59690000D01*
X102870000Y-72390000D02*
X115570000Y-85090000D01*
X100330000Y-72390000D02*
X102870000Y-72390000D01*
X63500000Y-46990000D02*
X63500000Y-48260000D01*
X115570000Y-85090000D02*
X116840000Y-85090000D01*
X91440000Y-62230000D02*
X96520000Y-67310000D01*
X109220000Y-83820000D02*
X109220000Y-85090000D01*
X64770000Y-62230000D02*
X88900000Y-62230000D01*
X88900000Y-62230000D02*
X88900000Y-59690000D01*
X63500000Y-59690000D02*
X63500000Y-60960000D01*
X96520000Y-73660000D02*
X100330000Y-77470000D01*
X88900000Y-62230000D02*
X91440000Y-62230000D01*
X63500000Y-60960000D02*
X64770000Y-62230000D01*
X100330000Y-77470000D02*
X102870000Y-77470000D01*
X96520000Y-67310000D02*
X96520000Y-73660000D01*
X102870000Y-77470000D02*
X109220000Y-83820000D01*
M02*
