G04 #@! TF.GenerationSoftware,KiCad,Pcbnew,8.0.2*
G04 #@! TF.CreationDate,2024-11-11T11:32:27+01:00*
G04 #@! TF.ProjectId,junior-interface,6a756e69-6f72-42d6-996e-746572666163,rev?*
G04 #@! TF.SameCoordinates,Original*
G04 #@! TF.FileFunction,Copper,L1,Top*
G04 #@! TF.FilePolarity,Positive*
%FSLAX46Y46*%
G04 Gerber Fmt 4.6, Leading zero omitted, Abs format (unit mm)*
G04 Created by KiCad (PCBNEW 8.0.2) date 2024-11-11 11:32:27*
%MOMM*%
%LPD*%
G01*
G04 APERTURE LIST*
G04 Aperture macros list*
%AMRoundRect*
0 Rectangle with rounded corners*
0 $1 Rounding radius*
0 $2 $3 $4 $5 $6 $7 $8 $9 X,Y pos of 4 corners*
0 Add a 4 corners polygon primitive as box body*
4,1,4,$2,$3,$4,$5,$6,$7,$8,$9,$2,$3,0*
0 Add four circle primitives for the rounded corners*
1,1,$1+$1,$2,$3*
1,1,$1+$1,$4,$5*
1,1,$1+$1,$6,$7*
1,1,$1+$1,$8,$9*
0 Add four rect primitives between the rounded corners*
20,1,$1+$1,$2,$3,$4,$5,0*
20,1,$1+$1,$4,$5,$6,$7,0*
20,1,$1+$1,$6,$7,$8,$9,0*
20,1,$1+$1,$8,$9,$2,$3,0*%
%AMOutline5P*
0 Free polygon, 5 corners , with rotation*
0 The origin of the aperture is its center*
0 number of corners: always 5*
0 $1 to $10 corner X, Y*
0 $11 Rotation angle, in degrees counterclockwise*
0 create outline with 5 corners*
4,1,5,$1,$2,$3,$4,$5,$6,$7,$8,$9,$10,$1,$2,$11*%
%AMOutline6P*
0 Free polygon, 6 corners , with rotation*
0 The origin of the aperture is its center*
0 number of corners: always 6*
0 $1 to $12 corner X, Y*
0 $13 Rotation angle, in degrees counterclockwise*
0 create outline with 6 corners*
4,1,6,$1,$2,$3,$4,$5,$6,$7,$8,$9,$10,$11,$12,$1,$2,$13*%
%AMOutline7P*
0 Free polygon, 7 corners , with rotation*
0 The origin of the aperture is its center*
0 number of corners: always 7*
0 $1 to $14 corner X, Y*
0 $15 Rotation angle, in degrees counterclockwise*
0 create outline with 7 corners*
4,1,7,$1,$2,$3,$4,$5,$6,$7,$8,$9,$10,$11,$12,$13,$14,$1,$2,$15*%
%AMOutline8P*
0 Free polygon, 8 corners , with rotation*
0 The origin of the aperture is its center*
0 number of corners: always 8*
0 $1 to $16 corner X, Y*
0 $17 Rotation angle, in degrees counterclockwise*
0 create outline with 8 corners*
4,1,8,$1,$2,$3,$4,$5,$6,$7,$8,$9,$10,$11,$12,$13,$14,$15,$16,$1,$2,$17*%
%AMFreePoly0*
4,1,9,1.200000,0.500000,1.200000,-0.500000,0.500000,-1.200000,-0.500000,-1.200000,-1.200000,-0.500000,-1.200000,0.500000,-0.500000,1.200000,0.500000,1.200000,1.200000,0.500000,1.200000,0.500000,$1*%
%AMFreePoly1*
4,1,9,1.500000,0.600000,1.500000,-0.600000,0.600000,-1.500000,-0.600000,-1.500000,-1.500000,-0.600000,-1.500000,0.600000,-0.600000,1.500000,0.600000,1.500000,1.500000,0.600000,1.500000,0.600000,$1*%
%AMFreePoly2*
4,1,9,0.900000,0.350000,0.900000,-0.350000,0.350000,-0.900000,-0.350000,-0.900000,-0.900000,-0.350000,-0.900000,0.350000,-0.350000,0.900000,0.350000,0.900000,0.900000,0.350000,0.900000,0.350000,$1*%
%AMFreePoly3*
4,1,9,0.800000,0.350000,0.800000,-0.350000,0.350000,-0.800000,-0.350000,-0.800000,-0.800000,-0.350000,-0.800000,0.350000,-0.350000,0.800000,0.350000,0.800000,0.800000,0.350000,0.800000,0.350000,$1*%
G04 Aperture macros list end*
G04 #@! TA.AperFunction,Conductor*
%ADD10C,1.000000*%
G04 #@! TD*
G04 #@! TA.AperFunction,ComponentPad*
%ADD11FreePoly0,0.000000*%
G04 #@! TD*
G04 #@! TA.AperFunction,ComponentPad*
%ADD12FreePoly1,0.000000*%
G04 #@! TD*
G04 #@! TA.AperFunction,ComponentPad*
%ADD13RoundRect,0.350000X0.350000X1.150000X-0.350000X1.150000X-0.350000X-1.150000X0.350000X-1.150000X0*%
G04 #@! TD*
G04 #@! TA.AperFunction,ComponentPad*
%ADD14RoundRect,0.350000X-1.150000X0.350000X-1.150000X-0.350000X1.150000X-0.350000X1.150000X0.350000X0*%
G04 #@! TD*
G04 #@! TA.AperFunction,ComponentPad*
%ADD15RoundRect,0.350000X0.900000X-0.350000X0.900000X0.350000X-0.900000X0.350000X-0.900000X-0.350000X0*%
G04 #@! TD*
G04 #@! TA.AperFunction,ComponentPad*
%ADD16RoundRect,0.350000X1.150000X-0.350000X1.150000X0.350000X-1.150000X0.350000X-1.150000X-0.350000X0*%
G04 #@! TD*
G04 #@! TA.AperFunction,ComponentPad*
%ADD17FreePoly0,180.000000*%
G04 #@! TD*
G04 #@! TA.AperFunction,ComponentPad*
%ADD18FreePoly0,270.000000*%
G04 #@! TD*
G04 #@! TA.AperFunction,ComponentPad*
%ADD19RoundRect,0.350000X0.350000X1.050000X-0.350000X1.050000X-0.350000X-1.050000X0.350000X-1.050000X0*%
G04 #@! TD*
G04 #@! TA.AperFunction,ComponentPad*
%ADD20C,1.800000*%
G04 #@! TD*
G04 #@! TA.AperFunction,ComponentPad*
%ADD21FreePoly0,90.000000*%
G04 #@! TD*
G04 #@! TA.AperFunction,ComponentPad*
%ADD22C,2.000000*%
G04 #@! TD*
G04 #@! TA.AperFunction,ComponentPad*
%ADD23FreePoly2,270.000000*%
G04 #@! TD*
G04 #@! TA.AperFunction,ComponentPad*
%ADD24FreePoly2,90.000000*%
G04 #@! TD*
G04 #@! TA.AperFunction,ComponentPad*
%ADD25Outline8P,-1.250000X2.000000X-0.750000X2.500000X0.750000X2.500000X1.250000X2.000000X1.250000X-2.000000X0.750000X-2.500000X-0.750000X-2.500000X-1.250000X-2.000000X0.000000*%
G04 #@! TD*
G04 #@! TA.AperFunction,ComponentPad*
%ADD26FreePoly3,270.000000*%
G04 #@! TD*
G04 #@! TA.AperFunction,ViaPad*
%ADD27C,1.500000*%
G04 #@! TD*
G04 #@! TA.AperFunction,ViaPad*
%ADD28C,2.000000*%
G04 #@! TD*
G04 #@! TA.AperFunction,ViaPad*
%ADD29C,1.800000*%
G04 #@! TD*
G04 #@! TA.AperFunction,ViaPad*
%ADD30C,0.800000*%
G04 #@! TD*
G04 #@! TA.AperFunction,Conductor*
%ADD31C,0.250000*%
G04 #@! TD*
G04 #@! TA.AperFunction,Conductor*
%ADD32C,0.500000*%
G04 #@! TD*
G04 #@! TA.AperFunction,Conductor*
%ADD33C,1.500000*%
G04 #@! TD*
G04 #@! TA.AperFunction,Conductor*
%ADD34C,0.750000*%
G04 #@! TD*
G04 #@! TA.AperFunction,Conductor*
%ADD35C,0.450000*%
G04 #@! TD*
G04 #@! TA.AperFunction,Conductor*
%ADD36C,0.400000*%
G04 #@! TD*
G04 APERTURE END LIST*
D10*
X203200000Y-113665000D02*
X203200000Y-111760000D01*
X203200000Y-111760000D02*
X198120000Y-106680000D01*
X198120000Y-106680000D02*
X196850000Y-106680000D01*
X203200000Y-115570000D02*
X203200000Y-113665000D01*
D11*
X193040000Y-49530000D03*
X167640000Y-49530000D03*
X243840000Y-49530000D03*
X195580000Y-49530000D03*
D12*
X66040000Y-41910000D03*
X55880000Y-41910000D03*
X50800000Y-41910000D03*
X60960000Y-41910000D03*
X71120000Y-41910000D03*
X76200000Y-41910000D03*
X81280000Y-41910000D03*
X96520000Y-41910000D03*
X86360000Y-41910000D03*
X198120000Y-53340000D03*
X161290000Y-48260000D03*
X205740000Y-53340000D03*
X201930000Y-53340000D03*
X194310000Y-53340000D03*
X91440000Y-41910000D03*
D13*
X163830000Y-86360000D03*
X161290000Y-86360000D03*
X158750000Y-86360000D03*
X156210000Y-86360000D03*
X153670000Y-86360000D03*
X151130000Y-86360000D03*
X148590000Y-86360000D03*
X146050000Y-86360000D03*
X143510000Y-86360000D03*
X143510000Y-93980000D03*
X146050000Y-93980000D03*
X148590000Y-93980000D03*
X151130000Y-93980000D03*
X153670000Y-93980000D03*
X156210000Y-93980000D03*
X158750000Y-93980000D03*
X161290000Y-93980000D03*
X163830000Y-93980000D03*
X163830000Y-99060000D03*
X161290000Y-99060000D03*
X158750000Y-99060000D03*
X156210000Y-99060000D03*
X153670000Y-99060000D03*
X151130000Y-99060000D03*
X148590000Y-99060000D03*
X146050000Y-99060000D03*
X143510000Y-99060000D03*
X143510000Y-106680000D03*
X146050000Y-106680000D03*
X148590000Y-106680000D03*
X151130000Y-106680000D03*
X153670000Y-106680000D03*
X156210000Y-106680000D03*
X158750000Y-106680000D03*
X161290000Y-106680000D03*
X163830000Y-106680000D03*
D14*
X187960000Y-115570000D03*
X187960000Y-118110000D03*
X187960000Y-120650000D03*
X187960000Y-123190000D03*
X187960000Y-125730000D03*
X187960000Y-128270000D03*
X187960000Y-130810000D03*
X187960000Y-133350000D03*
X187960000Y-135890000D03*
X187960000Y-138430000D03*
X187960000Y-140970000D03*
X187960000Y-143510000D03*
X203200000Y-143510000D03*
X203200000Y-140970000D03*
X203200000Y-138430000D03*
X203200000Y-135890000D03*
X203200000Y-133350000D03*
X203200000Y-130810000D03*
X203200000Y-128270000D03*
X203200000Y-125730000D03*
X203200000Y-123190000D03*
X203200000Y-120650000D03*
X203200000Y-118110000D03*
X203200000Y-115570000D03*
X109220000Y-111760000D03*
X109220000Y-114300000D03*
X109220000Y-116840000D03*
X109220000Y-119380000D03*
X116840000Y-119380000D03*
X116840000Y-116840000D03*
X116840000Y-114300000D03*
X116840000Y-111760000D03*
X66040000Y-135890000D03*
X66040000Y-138430000D03*
X66040000Y-140970000D03*
X66040000Y-143510000D03*
X73660000Y-143510000D03*
X73660000Y-140970000D03*
X73660000Y-138430000D03*
X73660000Y-135890000D03*
X222250000Y-86360000D03*
X222250000Y-88900000D03*
X222250000Y-91440000D03*
X222250000Y-93980000D03*
X222250000Y-96520000D03*
X222250000Y-99060000D03*
X222250000Y-101600000D03*
X222250000Y-104140000D03*
X222250000Y-106680000D03*
X222250000Y-109220000D03*
X229870000Y-109220000D03*
X229870000Y-106680000D03*
X229870000Y-104140000D03*
X229870000Y-101600000D03*
X229870000Y-99060000D03*
X229870000Y-96520000D03*
X229870000Y-93980000D03*
X229870000Y-91440000D03*
X229870000Y-88900000D03*
X229870000Y-86360000D03*
X222250000Y-120650000D03*
X222250000Y-123190000D03*
X222250000Y-125730000D03*
X222250000Y-128270000D03*
X222250000Y-130810000D03*
X222250000Y-133350000D03*
X222250000Y-135890000D03*
X222250000Y-138430000D03*
X222250000Y-140970000D03*
X222250000Y-143510000D03*
X229870000Y-143510000D03*
X229870000Y-140970000D03*
X229870000Y-138430000D03*
X229870000Y-135890000D03*
X229870000Y-133350000D03*
X229870000Y-130810000D03*
X229870000Y-128270000D03*
X229870000Y-125730000D03*
X229870000Y-123190000D03*
X229870000Y-120650000D03*
D15*
X215130000Y-74930000D03*
X215130000Y-72390000D03*
D16*
X214630000Y-69850000D03*
X214630000Y-67310000D03*
X214630000Y-64770000D03*
X214630000Y-62230000D03*
X214630000Y-59690000D03*
X207010000Y-59690000D03*
X207010000Y-62230000D03*
X207010000Y-64770000D03*
X207010000Y-67310000D03*
X207010000Y-69850000D03*
X207010000Y-72390000D03*
X207010000Y-74930000D03*
D13*
X196850000Y-86360000D03*
X194310000Y-86360000D03*
X191770000Y-86360000D03*
X189230000Y-86360000D03*
X186690000Y-86360000D03*
X184150000Y-86360000D03*
X181610000Y-86360000D03*
X181610000Y-93980000D03*
X184150000Y-93980000D03*
X186690000Y-93980000D03*
X189230000Y-93980000D03*
X191770000Y-93980000D03*
X194310000Y-93980000D03*
X196850000Y-93980000D03*
D14*
X144780000Y-128270000D03*
X144780000Y-130810000D03*
X144780000Y-133350000D03*
X144780000Y-135890000D03*
X144780000Y-138430000D03*
X144780000Y-140970000D03*
X144780000Y-143510000D03*
X152400000Y-143510000D03*
X152400000Y-140970000D03*
X152400000Y-138430000D03*
X152400000Y-135890000D03*
X152400000Y-133350000D03*
X152400000Y-130810000D03*
X152400000Y-128270000D03*
D13*
X196850000Y-99060000D03*
X194310000Y-99060000D03*
X191770000Y-99060000D03*
X189230000Y-99060000D03*
X186690000Y-99060000D03*
X184150000Y-99060000D03*
X181610000Y-99060000D03*
X181610000Y-106680000D03*
X184150000Y-106680000D03*
X186690000Y-106680000D03*
X189230000Y-106680000D03*
X191770000Y-106680000D03*
X194310000Y-106680000D03*
X196850000Y-106680000D03*
X163830000Y-72390000D03*
X161290000Y-72390000D03*
X158750000Y-72390000D03*
X156210000Y-72390000D03*
X153670000Y-72390000D03*
X151130000Y-72390000D03*
X148590000Y-72390000D03*
X146050000Y-72390000D03*
X143510000Y-72390000D03*
X140970000Y-72390000D03*
X140970000Y-80010000D03*
X143510000Y-80010000D03*
X146050000Y-80010000D03*
X148590000Y-80010000D03*
X151130000Y-80010000D03*
X153670000Y-80010000D03*
X156210000Y-80010000D03*
X158750000Y-80010000D03*
X161290000Y-80010000D03*
X163830000Y-80010000D03*
D16*
X229870000Y-74930000D03*
X229870000Y-72390000D03*
X229870000Y-69850000D03*
X229870000Y-67310000D03*
X229870000Y-64770000D03*
X229870000Y-62230000D03*
X229870000Y-59690000D03*
X222250000Y-59690000D03*
X222250000Y-62230000D03*
X222250000Y-64770000D03*
X222250000Y-67310000D03*
X222250000Y-69850000D03*
X222250000Y-72390000D03*
X222250000Y-74930000D03*
D13*
X76200000Y-72390000D03*
X73660000Y-72390000D03*
X71120000Y-72390000D03*
X68580000Y-72390000D03*
X66040000Y-72390000D03*
X63500000Y-72390000D03*
X60960000Y-72390000D03*
X60960000Y-80010000D03*
X63500000Y-80010000D03*
X66040000Y-80010000D03*
X68580000Y-80010000D03*
X71120000Y-80010000D03*
X73660000Y-80010000D03*
X76200000Y-80010000D03*
D14*
X167640000Y-115570000D03*
X167640000Y-118110000D03*
X167640000Y-120650000D03*
X167640000Y-123190000D03*
X167640000Y-125730000D03*
X167640000Y-128270000D03*
X167640000Y-130810000D03*
X167640000Y-133350000D03*
X167640000Y-135890000D03*
X167640000Y-138430000D03*
X167640000Y-140970000D03*
X167640000Y-143510000D03*
X182880000Y-143510000D03*
X182880000Y-140970000D03*
X182880000Y-138430000D03*
X182880000Y-135890000D03*
X182880000Y-133350000D03*
X182880000Y-130810000D03*
X182880000Y-128270000D03*
X182880000Y-125730000D03*
X182880000Y-123190000D03*
X182880000Y-120650000D03*
X182880000Y-118110000D03*
X182880000Y-115570000D03*
D11*
X125730000Y-146050000D03*
X138430000Y-146050000D03*
D17*
X138430000Y-140970000D03*
X125730000Y-140970000D03*
D11*
X125730000Y-135890000D03*
X138430000Y-135890000D03*
D17*
X138430000Y-130810000D03*
X125730000Y-130810000D03*
D11*
X125730000Y-125730000D03*
X138430000Y-125730000D03*
D18*
X121285000Y-135890000D03*
X121285000Y-143510000D03*
D17*
X191770000Y-58420000D03*
X179070000Y-58420000D03*
X191770000Y-63500000D03*
X179070000Y-63500000D03*
X138430000Y-120650000D03*
X125730000Y-120650000D03*
D19*
X153670000Y-40640000D03*
X151130000Y-40640000D03*
X148590000Y-40640000D03*
X146050000Y-40640000D03*
X143510000Y-40640000D03*
X140970000Y-40640000D03*
X138430000Y-40640000D03*
X135890000Y-40640000D03*
X133350000Y-40640000D03*
X130810000Y-40640000D03*
X128270000Y-40640000D03*
X125730000Y-40640000D03*
X123190000Y-40640000D03*
X120650000Y-40640000D03*
X118110000Y-40640000D03*
X115570000Y-40640000D03*
X113030000Y-40640000D03*
X110490000Y-40640000D03*
X107950000Y-40640000D03*
X105410000Y-40640000D03*
D11*
X73660000Y-105410000D03*
X63500000Y-105410000D03*
X60960000Y-110490000D03*
X73660000Y-110490000D03*
D18*
X57150000Y-105410000D03*
X57150000Y-118110000D03*
D11*
X60960000Y-115570000D03*
X73660000Y-115570000D03*
D20*
X81280000Y-110490000D03*
X78740000Y-107950000D03*
X81280000Y-105410000D03*
D14*
X109220000Y-128270000D03*
X109220000Y-130810000D03*
X109220000Y-133350000D03*
X109220000Y-135890000D03*
X109220000Y-138430000D03*
X109220000Y-140970000D03*
X109220000Y-143510000D03*
X116840000Y-143510000D03*
X116840000Y-140970000D03*
X116840000Y-138430000D03*
X116840000Y-135890000D03*
X116840000Y-133350000D03*
X116840000Y-130810000D03*
X116840000Y-128270000D03*
D13*
X163830000Y-52070000D03*
X161290000Y-52070000D03*
X158750000Y-52070000D03*
X156210000Y-52070000D03*
X153670000Y-52070000D03*
X151130000Y-52070000D03*
X148590000Y-52070000D03*
X146050000Y-52070000D03*
X143510000Y-52070000D03*
X140970000Y-52070000D03*
X138430000Y-52070000D03*
X135890000Y-52070000D03*
X133350000Y-52070000D03*
X130810000Y-52070000D03*
X128270000Y-52070000D03*
X125730000Y-52070000D03*
X123190000Y-52070000D03*
X120650000Y-52070000D03*
X118110000Y-52070000D03*
X115570000Y-52070000D03*
X115570000Y-67310000D03*
X118110000Y-67310000D03*
X120650000Y-67310000D03*
X123190000Y-67310000D03*
X125730000Y-67310000D03*
X128270000Y-67310000D03*
X130810000Y-67310000D03*
X133350000Y-67310000D03*
X135890000Y-67310000D03*
X138430000Y-67310000D03*
X140970000Y-67310000D03*
X143510000Y-67310000D03*
X146050000Y-67310000D03*
X148590000Y-67310000D03*
X151130000Y-67310000D03*
X153670000Y-67310000D03*
X156210000Y-67310000D03*
X158750000Y-67310000D03*
X161290000Y-67310000D03*
X163830000Y-67310000D03*
D18*
X81280000Y-138430000D03*
X81280000Y-146050000D03*
D21*
X60960000Y-146050000D03*
X60960000Y-138430000D03*
D17*
X101600000Y-146050000D03*
X88900000Y-146050000D03*
X101600000Y-135890000D03*
X88900000Y-135890000D03*
D11*
X88900000Y-130810000D03*
X101600000Y-130810000D03*
X60960000Y-130810000D03*
X73660000Y-130810000D03*
D17*
X73660000Y-125730000D03*
X60960000Y-125730000D03*
X73660000Y-120650000D03*
X60960000Y-120650000D03*
X101600000Y-140970000D03*
X88900000Y-140970000D03*
D21*
X110490000Y-52070000D03*
X110490000Y-46990000D03*
D17*
X101600000Y-46990000D03*
X88900000Y-46990000D03*
X101600000Y-52070000D03*
X88900000Y-52070000D03*
D21*
X109220000Y-85090000D03*
X109220000Y-72390000D03*
X116840000Y-85090000D03*
X116840000Y-72390000D03*
D13*
X76200000Y-46990000D03*
X73660000Y-46990000D03*
X71120000Y-46990000D03*
X68580000Y-46990000D03*
X66040000Y-46990000D03*
X63500000Y-46990000D03*
X60960000Y-46990000D03*
X60960000Y-54610000D03*
X63500000Y-54610000D03*
X66040000Y-54610000D03*
X68580000Y-54610000D03*
X71120000Y-54610000D03*
X73660000Y-54610000D03*
X76200000Y-54610000D03*
X76200000Y-59690000D03*
X73660000Y-59690000D03*
X71120000Y-59690000D03*
X68580000Y-59690000D03*
X66040000Y-59690000D03*
X63500000Y-59690000D03*
X60960000Y-59690000D03*
X60960000Y-67310000D03*
X63500000Y-67310000D03*
X66040000Y-67310000D03*
X68580000Y-67310000D03*
X71120000Y-67310000D03*
X73660000Y-67310000D03*
X76200000Y-67310000D03*
D20*
X88900000Y-59690000D03*
X91440000Y-57150000D03*
X93980000Y-59690000D03*
X99060000Y-59690000D03*
X101600000Y-57150000D03*
X104140000Y-59690000D03*
D17*
X133350000Y-105410000D03*
X125730000Y-105410000D03*
D11*
X134620000Y-100330000D03*
X132080000Y-90170000D03*
X132080000Y-95250000D03*
X129540000Y-100330000D03*
D17*
X138430000Y-115570000D03*
X125730000Y-115570000D03*
X101600000Y-125730000D03*
X88900000Y-125730000D03*
X138430000Y-110490000D03*
X125730000Y-110490000D03*
X68580000Y-92710000D03*
X60960000Y-92710000D03*
D11*
X109220000Y-106680000D03*
X116840000Y-106680000D03*
D18*
X81280000Y-118110000D03*
X81280000Y-125730000D03*
D17*
X101600000Y-120650000D03*
X93980000Y-120650000D03*
D18*
X127000000Y-77470000D03*
X127000000Y-85090000D03*
D17*
X80010000Y-92710000D03*
X72390000Y-92710000D03*
D18*
X121920000Y-99060000D03*
X121920000Y-88900000D03*
X121920000Y-85090000D03*
X121920000Y-74930000D03*
D17*
X74930000Y-100330000D03*
X67310000Y-97790000D03*
X62230000Y-100330000D03*
X101600000Y-80010000D03*
X88900000Y-80010000D03*
D11*
X88900000Y-105410000D03*
X101600000Y-105410000D03*
D17*
X101600000Y-110490000D03*
X88900000Y-110490000D03*
D11*
X88900000Y-115570000D03*
X101600000Y-115570000D03*
X88900000Y-74930000D03*
X101600000Y-74930000D03*
D18*
X109220000Y-88900000D03*
X109220000Y-101600000D03*
X116840000Y-88900000D03*
X116840000Y-101600000D03*
D17*
X68580000Y-85090000D03*
X60960000Y-85090000D03*
D18*
X85090000Y-93980000D03*
X85090000Y-101600000D03*
D11*
X72390000Y-85090000D03*
X80010000Y-85090000D03*
X88900000Y-90170000D03*
X101600000Y-90170000D03*
D17*
X101600000Y-64770000D03*
X88900000Y-64770000D03*
D11*
X88900000Y-69850000D03*
X101600000Y-69850000D03*
D17*
X101600000Y-85090000D03*
X88900000Y-85090000D03*
D11*
X60960000Y-88900000D03*
X73660000Y-88900000D03*
D17*
X229870000Y-115570000D03*
X222250000Y-115570000D03*
D21*
X218440000Y-74930000D03*
X218440000Y-67310000D03*
D18*
X172720000Y-86360000D03*
X172720000Y-93980000D03*
X160020000Y-139700000D03*
X160020000Y-144780000D03*
D22*
X51816000Y-98375000D03*
X51816000Y-101145000D03*
X51816000Y-103915000D03*
X51816000Y-106685000D03*
X51816000Y-109455000D03*
X51816000Y-112225000D03*
X51816000Y-114995000D03*
X51816000Y-117765000D03*
X51816000Y-120535000D03*
X51816000Y-123305000D03*
X51816000Y-126075000D03*
X51816000Y-128845000D03*
X51816000Y-131615000D03*
X48976000Y-99760000D03*
X48976000Y-102530000D03*
X48976000Y-105300000D03*
X48976000Y-108070000D03*
X48976000Y-110840000D03*
X48976000Y-113610000D03*
X48976000Y-116380000D03*
X48976000Y-119150000D03*
X48976000Y-121920000D03*
X48976000Y-124690000D03*
X48976000Y-127460000D03*
X48976000Y-130230000D03*
D17*
X116840000Y-124460000D03*
X109220000Y-124460000D03*
D21*
X179070000Y-81280000D03*
X179070000Y-73660000D03*
X198120000Y-62865000D03*
X198120000Y-56515000D03*
D23*
X45466000Y-104145000D03*
X45466000Y-106685000D03*
X45466000Y-109225000D03*
X45466000Y-111765000D03*
X45466000Y-114305000D03*
X45466000Y-116845000D03*
D24*
X135890000Y-77470000D03*
X135890000Y-74930000D03*
X135890000Y-72390000D03*
X177165000Y-99060000D03*
X177165000Y-96520000D03*
X177165000Y-93980000D03*
D18*
X55880000Y-138430000D03*
X55880000Y-146050000D03*
D25*
X43180000Y-63500000D03*
X48680000Y-63500000D03*
X53180000Y-63500000D03*
X43180000Y-73660000D03*
X48680000Y-73660000D03*
X53180000Y-73660000D03*
X43180000Y-83820000D03*
X48680000Y-83820000D03*
X53180000Y-83820000D03*
X43180000Y-53340000D03*
X48680000Y-53340000D03*
X53180000Y-53340000D03*
D16*
X250190000Y-62230000D03*
X250190000Y-64770000D03*
X250190000Y-67310000D03*
X250190000Y-69850000D03*
X250190000Y-72390000D03*
X250190000Y-74930000D03*
X250190000Y-77470000D03*
X250190000Y-80010000D03*
X250190000Y-82550000D03*
X250190000Y-85090000D03*
X250190000Y-87630000D03*
X250190000Y-90170000D03*
X250190000Y-92710000D03*
X250190000Y-95250000D03*
X250190000Y-97790000D03*
X250190000Y-100330000D03*
X250190000Y-102870000D03*
X250190000Y-105410000D03*
X250190000Y-107950000D03*
X250190000Y-110490000D03*
X250190000Y-113030000D03*
X250190000Y-115570000D03*
X250190000Y-118110000D03*
X250190000Y-120650000D03*
X250190000Y-123190000D03*
X250190000Y-125730000D03*
X250190000Y-128270000D03*
X250190000Y-130810000D03*
X250190000Y-133350000D03*
X250190000Y-135890000D03*
X250190000Y-138430000D03*
X250190000Y-140970000D03*
X245110000Y-62230000D03*
X245110000Y-64770000D03*
X245110000Y-67310000D03*
X245110000Y-69850000D03*
X245110000Y-72390000D03*
X245110000Y-74930000D03*
X245110000Y-77470000D03*
X245110000Y-80010000D03*
X245110000Y-82550000D03*
X245110000Y-85090000D03*
X245110000Y-87630000D03*
X245110000Y-90170000D03*
X245110000Y-92710000D03*
X245110000Y-95250000D03*
X245110000Y-97790000D03*
X245110000Y-100330000D03*
X245110000Y-102870000D03*
X245110000Y-105410000D03*
X245110000Y-107950000D03*
X245110000Y-110490000D03*
X245110000Y-113030000D03*
X245110000Y-115570000D03*
X245110000Y-118110000D03*
X245110000Y-120650000D03*
X245110000Y-123190000D03*
X245110000Y-125730000D03*
X245110000Y-128270000D03*
X245110000Y-130810000D03*
X245110000Y-133350000D03*
X245110000Y-135890000D03*
X245110000Y-138430000D03*
X245110000Y-140970000D03*
D23*
X163830000Y-43180000D03*
X166370000Y-43180000D03*
X168910000Y-43180000D03*
X171450000Y-43180000D03*
X173990000Y-43180000D03*
X176530000Y-43180000D03*
X179070000Y-43180000D03*
X181610000Y-43180000D03*
X184150000Y-43180000D03*
X186690000Y-43180000D03*
X189230000Y-43180000D03*
X191770000Y-43180000D03*
X194310000Y-43180000D03*
X196850000Y-43180000D03*
X199390000Y-43180000D03*
X201930000Y-43180000D03*
X204470000Y-43180000D03*
X207010000Y-43180000D03*
X209550000Y-43180000D03*
X212090000Y-43180000D03*
X214630000Y-43180000D03*
X217170000Y-43180000D03*
X219710000Y-43180000D03*
X222250000Y-43180000D03*
X224790000Y-43180000D03*
X227330000Y-43180000D03*
X229870000Y-43180000D03*
X232410000Y-43180000D03*
X234950000Y-43180000D03*
X237490000Y-43180000D03*
X240030000Y-43180000D03*
X242570000Y-43180000D03*
X163830000Y-45720000D03*
X166370000Y-45720000D03*
X168910000Y-45720000D03*
X171450000Y-45720000D03*
X173990000Y-45720000D03*
X176530000Y-45720000D03*
X179070000Y-45720000D03*
X181610000Y-45720000D03*
X184150000Y-45720000D03*
X186690000Y-45720000D03*
X189230000Y-45720000D03*
X191770000Y-45720000D03*
X194310000Y-45720000D03*
X196850000Y-45720000D03*
X199390000Y-45720000D03*
D26*
X201930000Y-45720000D03*
X204470000Y-45720000D03*
D23*
X207010000Y-45720000D03*
X209550000Y-45720000D03*
X212090000Y-45720000D03*
X214630000Y-45720000D03*
X217170000Y-45720000D03*
X219710000Y-45720000D03*
X222250000Y-45720000D03*
X224790000Y-45720000D03*
X227330000Y-45720000D03*
X229870000Y-45720000D03*
X232410000Y-45720000D03*
X234950000Y-45720000D03*
X237490000Y-45720000D03*
X240030000Y-45720000D03*
X242570000Y-45720000D03*
D27*
X152400000Y-58420000D03*
X156210000Y-57150000D03*
D28*
X209550000Y-86360000D03*
D27*
X166370000Y-108585000D03*
X175895000Y-106680000D03*
D29*
X198120000Y-73660000D03*
D27*
X144145000Y-63500000D03*
X217170000Y-90170000D03*
D29*
X195580000Y-73660000D03*
X200660000Y-73660000D03*
D27*
X175895000Y-104775000D03*
X172085000Y-106680000D03*
D29*
X190500000Y-73660000D03*
D27*
X188595000Y-48260000D03*
X204470000Y-48260000D03*
D29*
X193040000Y-73660000D03*
D27*
X175895000Y-102870000D03*
X170815000Y-104775000D03*
X217170000Y-96520000D03*
X217170000Y-143510000D03*
X176530000Y-145415000D03*
X175895000Y-108585000D03*
D30*
X177800000Y-143510000D03*
D27*
X140335000Y-128270000D03*
X203200000Y-95250000D03*
X205740000Y-95250000D03*
X152400000Y-120015000D03*
X149225000Y-120015000D03*
X146050000Y-120015000D03*
X146050000Y-114935000D03*
X146050000Y-117475000D03*
X205740000Y-101600000D03*
D30*
X167640000Y-80645000D03*
X167640000Y-79375000D03*
X167640000Y-78105000D03*
D27*
X161290000Y-76200000D03*
X158750000Y-76200000D03*
X109220000Y-62230000D03*
D31*
X160591500Y-50482500D02*
X153670000Y-43561000D01*
X160972500Y-50482500D02*
X160591500Y-50482500D01*
X161290000Y-50800000D02*
X160972500Y-50482500D01*
X161290000Y-52070000D02*
X161290000Y-50800000D01*
X153670000Y-43561000D02*
X153670000Y-40640000D01*
X151130000Y-42545000D02*
X158750000Y-50165000D01*
X158750000Y-50165000D02*
X158750000Y-52070000D01*
X151130000Y-40640000D02*
X151130000Y-42545000D01*
X73660000Y-73660000D02*
X73660000Y-72390000D01*
X69850000Y-77470000D02*
X73660000Y-73660000D01*
X68580000Y-85090000D02*
X69850000Y-83820000D01*
X69850000Y-83820000D02*
X69850000Y-77470000D01*
X60960000Y-72390000D02*
X60960000Y-73660000D01*
X64770000Y-88900000D02*
X68580000Y-92710000D01*
X60960000Y-73660000D02*
X64770000Y-77470000D01*
X64770000Y-77470000D02*
X64770000Y-88900000D01*
X80010000Y-92710000D02*
X80010000Y-99060000D01*
X80010000Y-99060000D02*
X86360000Y-105410000D01*
X86360000Y-105410000D02*
X88900000Y-105410000D01*
X184150000Y-86360000D02*
X184150000Y-88265000D01*
X189230000Y-92075000D02*
X189230000Y-93980000D01*
X186055000Y-90170000D02*
X187325000Y-90170000D01*
X187325000Y-90170000D02*
X189230000Y-92075000D01*
X184150000Y-88265000D02*
X186055000Y-90170000D01*
X193675000Y-100965000D02*
X194310000Y-100330000D01*
X184150000Y-99060000D02*
X184150000Y-100330000D01*
X184150000Y-100330000D02*
X184785000Y-100965000D01*
X194310000Y-100330000D02*
X194310000Y-99060000D01*
X184785000Y-100965000D02*
X193675000Y-100965000D01*
D32*
X127000000Y-85090000D02*
X127000000Y-93980000D01*
X127000000Y-93980000D02*
X121920000Y-99060000D01*
D31*
X110490000Y-41910000D02*
X118110000Y-49530000D01*
X110490000Y-40640000D02*
X110490000Y-41910000D01*
X118110000Y-49530000D02*
X118110000Y-52070000D01*
X113030000Y-40640000D02*
X113030000Y-41910000D01*
X120650000Y-49530000D02*
X120650000Y-52070000D01*
X113030000Y-41910000D02*
X120650000Y-49530000D01*
X123190000Y-41910000D02*
X130810000Y-49530000D01*
X130810000Y-49530000D02*
X130810000Y-52070000D01*
X123190000Y-40640000D02*
X123190000Y-41910000D01*
X133350000Y-49530000D02*
X133350000Y-52070000D01*
X125730000Y-40640000D02*
X125730000Y-41910000D01*
X125730000Y-41910000D02*
X133350000Y-49530000D01*
X128270000Y-41910000D02*
X135890000Y-49530000D01*
X128270000Y-40640000D02*
X128270000Y-41910000D01*
X135890000Y-49530000D02*
X135890000Y-52070000D01*
X130810000Y-41910000D02*
X138430000Y-49530000D01*
X138430000Y-49530000D02*
X138430000Y-52070000D01*
X130810000Y-40640000D02*
X130810000Y-41910000D01*
X138430000Y-40640000D02*
X138430000Y-41910000D01*
X146050000Y-49530000D02*
X146050000Y-52070000D01*
X138430000Y-41910000D02*
X146050000Y-49530000D01*
X148590000Y-49530000D02*
X148590000Y-52070000D01*
X140970000Y-41910000D02*
X148590000Y-49530000D01*
X140970000Y-40640000D02*
X140970000Y-41910000D01*
X143510000Y-41910000D02*
X151130000Y-49530000D01*
X151130000Y-49530000D02*
X151130000Y-52070000D01*
X143510000Y-40640000D02*
X143510000Y-41910000D01*
X146050000Y-41910000D02*
X153670000Y-49530000D01*
X153670000Y-49530000D02*
X153670000Y-52070000D01*
X146050000Y-40640000D02*
X146050000Y-41910000D01*
X156210000Y-49530000D02*
X156210000Y-52070000D01*
X148590000Y-40640000D02*
X148590000Y-41910000D01*
X148590000Y-41910000D02*
X156210000Y-49530000D01*
X108585000Y-49530000D02*
X111760000Y-49530000D01*
X111760000Y-49530000D02*
X113030000Y-50800000D01*
X105410000Y-40640000D02*
X105410000Y-41910000D01*
X107950000Y-48895000D02*
X108585000Y-49530000D01*
X114935000Y-57150000D02*
X115570000Y-57785000D01*
X113030000Y-50800000D02*
X113030000Y-55245000D01*
X107950000Y-44450000D02*
X107950000Y-48895000D01*
X115570000Y-57785000D02*
X150495000Y-57785000D01*
X150495000Y-57785000D02*
X151130000Y-58420000D01*
X151130000Y-58420000D02*
X152400000Y-58420000D01*
X105410000Y-41910000D02*
X107950000Y-44450000D01*
X113030000Y-55245000D02*
X114935000Y-57150000D01*
X107950000Y-40640000D02*
X107950000Y-42545000D01*
X113665000Y-53975000D02*
X115570000Y-55880000D01*
X156210000Y-57150000D02*
X155575000Y-56515000D01*
X107950000Y-42545000D02*
X109220000Y-43815000D01*
X110490000Y-43815000D02*
X113665000Y-46990000D01*
X155575000Y-56515000D02*
X116205000Y-56515000D01*
X113665000Y-46990000D02*
X113665000Y-53975000D01*
X116205000Y-56515000D02*
X115570000Y-55880000D01*
X109220000Y-43815000D02*
X110490000Y-43815000D01*
D10*
X116840000Y-128270000D02*
X124460000Y-128270000D01*
X125730000Y-146050000D02*
X125730000Y-140970000D01*
D33*
X163830000Y-45720000D02*
X163830000Y-46990000D01*
D34*
X167005000Y-113665000D02*
X163830000Y-110490000D01*
X147320000Y-133350000D02*
X147320000Y-130810000D01*
D31*
X133985000Y-71755000D02*
X133985000Y-76835000D01*
X133985000Y-76835000D02*
X134620000Y-77470000D01*
D34*
X209550000Y-84455000D02*
X209550000Y-86360000D01*
X152400000Y-135890000D02*
X148590000Y-135890000D01*
D10*
X116205000Y-54610000D02*
X116840000Y-55245000D01*
X163830000Y-106680000D02*
X165100000Y-106680000D01*
D34*
X148590000Y-137160000D02*
X148590000Y-134620000D01*
D10*
X125730000Y-120650000D02*
X125730000Y-125730000D01*
D34*
X199390000Y-84455000D02*
X209550000Y-84455000D01*
D33*
X245110000Y-50800000D02*
X243840000Y-49530000D01*
D34*
X191135000Y-103505000D02*
X191770000Y-104140000D01*
X179705000Y-112395000D02*
X178435000Y-113665000D01*
D31*
X154940000Y-74930000D02*
X154940000Y-71120000D01*
D34*
X198755000Y-83820000D02*
X199390000Y-84455000D01*
D10*
X121285000Y-135890000D02*
X125730000Y-135890000D01*
D33*
X250190000Y-62230000D02*
X245110000Y-62230000D01*
D34*
X172720000Y-69850000D02*
X172720000Y-76200000D01*
D10*
X229870000Y-120650000D02*
X229870000Y-123190000D01*
D31*
X154305000Y-70485000D02*
X135255000Y-70485000D01*
D34*
X156210000Y-135890000D02*
X160020000Y-139700000D01*
D10*
X172720000Y-86360000D02*
X167005000Y-92075000D01*
X171767500Y-53657500D02*
X171450000Y-53975000D01*
D33*
X245110000Y-62230000D02*
X245110000Y-57150000D01*
D31*
X72390000Y-130810000D02*
X73660000Y-130810000D01*
D34*
X101600000Y-62230000D02*
X96520000Y-62230000D01*
D10*
X171767500Y-53657500D02*
X176530000Y-58420000D01*
X115570000Y-53975000D02*
X116205000Y-54610000D01*
D34*
X182880000Y-113665000D02*
X181610000Y-112395000D01*
X179705000Y-112395000D02*
X181610000Y-112395000D01*
X179705000Y-104140000D02*
X180340000Y-103505000D01*
X60960000Y-115570000D02*
X64770000Y-119380000D01*
D10*
X125730000Y-130810000D02*
X125730000Y-135890000D01*
D34*
X147320000Y-138430000D02*
X148590000Y-137160000D01*
D31*
X157480000Y-77470000D02*
X154940000Y-74930000D01*
D34*
X196215000Y-104140000D02*
X196850000Y-104775000D01*
X149860000Y-128270000D02*
X152400000Y-128270000D01*
D31*
X134620000Y-77470000D02*
X135890000Y-77470000D01*
D34*
X229870000Y-86360000D02*
X227965000Y-84455000D01*
D10*
X124460000Y-128270000D02*
X125730000Y-128270000D01*
X168910000Y-55245000D02*
X170180000Y-55245000D01*
D34*
X191770000Y-104140000D02*
X196215000Y-104140000D01*
D10*
X169545000Y-55245000D02*
X168910000Y-55245000D01*
D33*
X165100000Y-48260000D02*
X163830000Y-46990000D01*
D34*
X92710000Y-128270000D02*
X92710000Y-133350000D01*
D10*
X124460000Y-128270000D02*
X125730000Y-127000000D01*
X176530000Y-58420000D02*
X179070000Y-58420000D01*
D33*
X245110000Y-50800000D02*
X246380000Y-52070000D01*
D34*
X182880000Y-113665000D02*
X182880000Y-115570000D01*
D10*
X170815000Y-53340000D02*
X170815000Y-53975000D01*
X217170000Y-118110000D02*
X229870000Y-118110000D01*
D31*
X90170000Y-135890000D02*
X88900000Y-135890000D01*
D34*
X152400000Y-135890000D02*
X156210000Y-135890000D01*
D10*
X171450000Y-55245000D02*
X172720000Y-55245000D01*
D31*
X163195000Y-81915000D02*
X158115000Y-81915000D01*
D10*
X203200000Y-115570000D02*
X214630000Y-115570000D01*
X125730000Y-129540000D02*
X124460000Y-128270000D01*
X170815000Y-55245000D02*
X171450000Y-55245000D01*
D33*
X245110000Y-57150000D02*
X245110000Y-50800000D01*
D10*
X229870000Y-118110000D02*
X229870000Y-115570000D01*
X176530000Y-58420000D02*
X175895000Y-58420000D01*
D34*
X96520000Y-62230000D02*
X93980000Y-59690000D01*
X229870000Y-88900000D02*
X229870000Y-86360000D01*
D10*
X167005000Y-103505000D02*
X167005000Y-93980000D01*
D33*
X167640000Y-49530000D02*
X166370000Y-48260000D01*
X246380000Y-52070000D02*
X246380000Y-58420000D01*
D10*
X171132500Y-53022500D02*
X171767500Y-53657500D01*
X165100000Y-106680000D02*
X167005000Y-104775000D01*
X171132500Y-53022500D02*
X170815000Y-53340000D01*
X171450000Y-53975000D02*
X171450000Y-55245000D01*
D34*
X209550000Y-84455000D02*
X227965000Y-84455000D01*
D33*
X166370000Y-48260000D02*
X165100000Y-48260000D01*
D34*
X104140000Y-59690000D02*
X101600000Y-62230000D01*
D10*
X170180000Y-55245000D02*
X170180000Y-54610000D01*
D31*
X163830000Y-81280000D02*
X163195000Y-81915000D01*
X135255000Y-70485000D02*
X133985000Y-71755000D01*
X163830000Y-80010000D02*
X163830000Y-81280000D01*
D34*
X147320000Y-133350000D02*
X144780000Y-133350000D01*
X172720000Y-78740000D02*
X172720000Y-86360000D01*
D31*
X88900000Y-125730000D02*
X90170000Y-125730000D01*
D33*
X250190000Y-62230000D02*
X246380000Y-58420000D01*
D34*
X173990000Y-77470000D02*
X172720000Y-78740000D01*
X64770000Y-123190000D02*
X72390000Y-130810000D01*
D10*
X125730000Y-135890000D02*
X125730000Y-140970000D01*
X172720000Y-55245000D02*
X171450000Y-53975000D01*
X170180000Y-55245000D02*
X170815000Y-55245000D01*
X229870000Y-120650000D02*
X229870000Y-118110000D01*
D34*
X147320000Y-130810000D02*
X149860000Y-128270000D01*
D10*
X167005000Y-92075000D02*
X167005000Y-93980000D01*
X116840000Y-55245000D02*
X168910000Y-55245000D01*
X170815000Y-53975000D02*
X170815000Y-55245000D01*
X170815000Y-53975000D02*
X169545000Y-55245000D01*
D34*
X180340000Y-103505000D02*
X191135000Y-103505000D01*
X73660000Y-130810000D02*
X83820000Y-130810000D01*
X179705000Y-111125000D02*
X179705000Y-112395000D01*
D10*
X170180000Y-52070000D02*
X170180000Y-54610000D01*
D34*
X178435000Y-113665000D02*
X167005000Y-113665000D01*
D10*
X125730000Y-127000000D02*
X125730000Y-129540000D01*
D31*
X158115000Y-81915000D02*
X157480000Y-81280000D01*
D10*
X125730000Y-115570000D02*
X125730000Y-120650000D01*
X170180000Y-52070000D02*
X167640000Y-49530000D01*
X172720000Y-55245000D02*
X175895000Y-58420000D01*
D34*
X90170000Y-125730000D02*
X92710000Y-128270000D01*
D10*
X170180000Y-52070000D02*
X171132500Y-53022500D01*
D34*
X64770000Y-119380000D02*
X64770000Y-123190000D01*
X148590000Y-134620000D02*
X147320000Y-133350000D01*
D10*
X115570000Y-52070000D02*
X115570000Y-53975000D01*
D34*
X144780000Y-138430000D02*
X147320000Y-138430000D01*
D10*
X167005000Y-104775000D02*
X167005000Y-103505000D01*
X125730000Y-125730000D02*
X125730000Y-127000000D01*
D34*
X198755000Y-83820000D02*
X192405000Y-77470000D01*
D33*
X163830000Y-43180000D02*
X163830000Y-45720000D01*
D34*
X179070000Y-63500000D02*
X172720000Y-69850000D01*
D31*
X154940000Y-71120000D02*
X154305000Y-70485000D01*
D34*
X172720000Y-76200000D02*
X172720000Y-78740000D01*
D10*
X125730000Y-129540000D02*
X125730000Y-130810000D01*
X167005000Y-93980000D02*
X163830000Y-93980000D01*
D34*
X163830000Y-110490000D02*
X163830000Y-106680000D01*
X192405000Y-77470000D02*
X173990000Y-77470000D01*
X196850000Y-104775000D02*
X196850000Y-106680000D01*
X92710000Y-133350000D02*
X90170000Y-135890000D01*
X83820000Y-130810000D02*
X88900000Y-125730000D01*
X179705000Y-104140000D02*
X179705000Y-111125000D01*
D10*
X214630000Y-115570000D02*
X217170000Y-118110000D01*
D34*
X173990000Y-77470000D02*
X172720000Y-77470000D01*
X172720000Y-76200000D02*
X173990000Y-77470000D01*
D31*
X157480000Y-81280000D02*
X157480000Y-77470000D01*
D33*
X246380000Y-58420000D02*
X245110000Y-57150000D01*
D32*
X66040000Y-72390000D02*
X68580000Y-72390000D01*
D31*
X240030000Y-74930000D02*
X242570000Y-77470000D01*
X242570000Y-77470000D02*
X245110000Y-77470000D01*
X240030000Y-72390000D02*
X240030000Y-74930000D01*
X232410000Y-64770000D02*
X240030000Y-72390000D01*
X229870000Y-64770000D02*
X232410000Y-64770000D01*
D32*
X105410000Y-76200000D02*
X104140000Y-74930000D01*
X106045000Y-88900000D02*
X106045000Y-113030000D01*
X109220000Y-114300000D02*
X106680000Y-114300000D01*
X106045000Y-113030000D02*
X106045000Y-113665000D01*
X105410000Y-76200000D02*
X106045000Y-76835000D01*
X106045000Y-113665000D02*
X106680000Y-114300000D01*
X104140000Y-74930000D02*
X101600000Y-74930000D01*
X106045000Y-88900000D02*
X109220000Y-88900000D01*
X106045000Y-76835000D02*
X106045000Y-88900000D01*
D31*
X245110000Y-80010000D02*
X242570000Y-80010000D01*
X242570000Y-80010000D02*
X232410000Y-69850000D01*
X232410000Y-69850000D02*
X229870000Y-69850000D01*
X242570000Y-76200000D02*
X241300000Y-74930000D01*
X247650000Y-76200000D02*
X242570000Y-76200000D01*
X247650000Y-76200000D02*
X248920000Y-77470000D01*
X241300000Y-74930000D02*
X241300000Y-71120000D01*
X241300000Y-71120000D02*
X232410000Y-62230000D01*
X232410000Y-62230000D02*
X229870000Y-62230000D01*
X248920000Y-77470000D02*
X250190000Y-77470000D01*
X232410000Y-67310000D02*
X238760000Y-73660000D01*
X229870000Y-67310000D02*
X232410000Y-67310000D01*
X238760000Y-73660000D02*
X238760000Y-74930000D01*
X242570000Y-78740000D02*
X247650000Y-78740000D01*
X238760000Y-74930000D02*
X242570000Y-78740000D01*
X248920000Y-80010000D02*
X250190000Y-80010000D01*
X247650000Y-78740000D02*
X248920000Y-80010000D01*
X242570000Y-71755000D02*
X242570000Y-71120000D01*
X227965000Y-40640000D02*
X228600000Y-41275000D01*
X227965000Y-58420000D02*
X227965000Y-60325000D01*
X227965000Y-60325000D02*
X228600000Y-60960000D01*
X243205000Y-72390000D02*
X242570000Y-71755000D01*
X173990000Y-43180000D02*
X173990000Y-41275000D01*
X228600000Y-57785000D02*
X227965000Y-58420000D01*
X228600000Y-60960000D02*
X232410000Y-60960000D01*
X243205000Y-72390000D02*
X245110000Y-72390000D01*
X232410000Y-60960000D02*
X242570000Y-71120000D01*
X173990000Y-41275000D02*
X174625000Y-40640000D01*
X228600000Y-41275000D02*
X228600000Y-57785000D01*
X174625000Y-40640000D02*
X227965000Y-40640000D01*
X233680000Y-43815000D02*
X233680000Y-41275000D01*
X250190000Y-72390000D02*
X252730000Y-72390000D01*
X173990000Y-40005000D02*
X172720000Y-41275000D01*
X236220000Y-41275000D02*
X236220000Y-43815000D01*
X148590000Y-65405000D02*
X148590000Y-67310000D01*
X172720000Y-41275000D02*
X172720000Y-45720000D01*
X243205000Y-40005000D02*
X243840000Y-40640000D01*
X235585000Y-44450000D02*
X234315000Y-44450000D01*
X236220000Y-43815000D02*
X235585000Y-44450000D01*
X248920000Y-50165000D02*
X245110000Y-46355000D01*
X180975000Y-59690000D02*
X180340000Y-60325000D01*
X248920000Y-56515000D02*
X248920000Y-50165000D01*
X245110000Y-41910000D02*
X243840000Y-40640000D01*
X236855000Y-40640000D02*
X237490000Y-40005000D01*
X245110000Y-46355000D02*
X245110000Y-41910000D01*
X172720000Y-45720000D02*
X172720000Y-49530000D01*
X252730000Y-72390000D02*
X253365000Y-71755000D01*
X236855000Y-40640000D02*
X236220000Y-41275000D01*
X172720000Y-49530000D02*
X180975000Y-57785000D01*
X234315000Y-44450000D02*
X233680000Y-43815000D01*
X233680000Y-41275000D02*
X232410000Y-40005000D01*
X237490000Y-40005000D02*
X243205000Y-40005000D01*
X172720000Y-45720000D02*
X173990000Y-45720000D01*
X180975000Y-57785000D02*
X180975000Y-59690000D01*
X153670000Y-60325000D02*
X148590000Y-65405000D01*
X232410000Y-40005000D02*
X173990000Y-40005000D01*
X253365000Y-71755000D02*
X253365000Y-60960000D01*
X253365000Y-60960000D02*
X248920000Y-56515000D01*
X180340000Y-60325000D02*
X153670000Y-60325000D01*
D32*
X67310000Y-138430000D02*
X72390000Y-133350000D01*
X66040000Y-138430000D02*
X67310000Y-138430000D01*
X86360000Y-133350000D02*
X88900000Y-130810000D01*
X72390000Y-133350000D02*
X86360000Y-133350000D01*
D31*
X212090000Y-78740000D02*
X211455000Y-78105000D01*
X211455000Y-78105000D02*
X211455000Y-63500000D01*
X211455000Y-63500000D02*
X212725000Y-62230000D01*
X212725000Y-62230000D02*
X214630000Y-62230000D01*
X245110000Y-85090000D02*
X242570000Y-85090000D01*
X242570000Y-85090000D02*
X236220000Y-78740000D01*
X236220000Y-78740000D02*
X212090000Y-78740000D01*
X172085000Y-108585000D02*
X166370000Y-108585000D01*
X173355000Y-107315000D02*
X173990000Y-106680000D01*
X173990000Y-106680000D02*
X175895000Y-106680000D01*
X173355000Y-107315000D02*
X172085000Y-108585000D01*
X198120000Y-74930000D02*
X198120000Y-73660000D01*
X203200000Y-80010000D02*
X198120000Y-74930000D01*
X232410000Y-80010000D02*
X203200000Y-80010000D01*
X242570000Y-90170000D02*
X232410000Y-80010000D01*
X245110000Y-90170000D02*
X242570000Y-90170000D01*
X123825000Y-60960000D02*
X141605000Y-60960000D01*
X194310000Y-86360000D02*
X194310000Y-87630000D01*
X141605000Y-60960000D02*
X144145000Y-63500000D01*
X120650000Y-67310000D02*
X120650000Y-64135000D01*
X120650000Y-64135000D02*
X123825000Y-60960000D01*
X215900000Y-88900000D02*
X217170000Y-90170000D01*
X194310000Y-87630000D02*
X195580000Y-88900000D01*
X195580000Y-88900000D02*
X215900000Y-88900000D01*
X242570000Y-95250000D02*
X241300000Y-93980000D01*
X196215000Y-74930000D02*
X195580000Y-74295000D01*
X195580000Y-74295000D02*
X195580000Y-73660000D01*
X241300000Y-93980000D02*
X241300000Y-90170000D01*
X241300000Y-90170000D02*
X231775000Y-80645000D01*
X201930000Y-80645000D02*
X196215000Y-74930000D01*
X231775000Y-80645000D02*
X201930000Y-80645000D01*
X245110000Y-95250000D02*
X242570000Y-95250000D01*
X175895000Y-41275000D02*
X175304999Y-41865001D01*
X149860000Y-69215000D02*
X149225000Y-69850000D01*
X181610000Y-60325000D02*
X180340000Y-61595000D01*
X181610000Y-56515000D02*
X181610000Y-60325000D01*
X200660000Y-74930000D02*
X200660000Y-73660000D01*
X250190000Y-90170000D02*
X248920000Y-90170000D01*
X149860000Y-65405000D02*
X149860000Y-69215000D01*
X191770000Y-45720000D02*
X190500000Y-44450000D01*
X190500000Y-44450000D02*
X190500000Y-41910000D01*
X175304999Y-50209999D02*
X181610000Y-56515000D01*
X142875000Y-59055000D02*
X121285000Y-59055000D01*
X242570000Y-88900000D02*
X233045000Y-79375000D01*
X175304999Y-41865001D02*
X175304999Y-50209999D01*
X180340000Y-61595000D02*
X153670000Y-61595000D01*
X190500000Y-41910000D02*
X189865000Y-41275000D01*
X247650000Y-88900000D02*
X242570000Y-88900000D01*
X233045000Y-79375000D02*
X205105000Y-79375000D01*
X147320000Y-69215000D02*
X147320000Y-63500000D01*
X248920000Y-90170000D02*
X247650000Y-88900000D01*
X149225000Y-69850000D02*
X147955000Y-69850000D01*
X147955000Y-69850000D02*
X147320000Y-69215000D01*
X153670000Y-61595000D02*
X149860000Y-65405000D01*
X121285000Y-59055000D02*
X115570000Y-64770000D01*
X205105000Y-79375000D02*
X200660000Y-74930000D01*
X189865000Y-41275000D02*
X175895000Y-41275000D01*
X115570000Y-64770000D02*
X115570000Y-67310000D01*
X147320000Y-63500000D02*
X142875000Y-59055000D01*
X212090000Y-65405000D02*
X212725000Y-64770000D01*
X242570000Y-83820000D02*
X236855000Y-78105000D01*
X236855000Y-78105000D02*
X212725000Y-78105000D01*
X212725000Y-78105000D02*
X212090000Y-77470000D01*
X248920000Y-85090000D02*
X247650000Y-83820000D01*
X250190000Y-85090000D02*
X248920000Y-85090000D01*
X212090000Y-77470000D02*
X212090000Y-65405000D01*
X247650000Y-83820000D02*
X242570000Y-83820000D01*
X212725000Y-64770000D02*
X214630000Y-64770000D01*
X213360000Y-67310000D02*
X214630000Y-67310000D01*
X213360000Y-77470000D02*
X212725000Y-76835000D01*
X242570000Y-82550000D02*
X237490000Y-77470000D01*
X245110000Y-82550000D02*
X242570000Y-82550000D01*
X237490000Y-77470000D02*
X213360000Y-77470000D01*
X212725000Y-67945000D02*
X213360000Y-67310000D01*
X212725000Y-76835000D02*
X212725000Y-67945000D01*
X213995000Y-76835000D02*
X213360000Y-76200000D01*
X248920000Y-82550000D02*
X247650000Y-81280000D01*
X213360000Y-76200000D02*
X213360000Y-71120000D01*
X242570000Y-81280000D02*
X238125000Y-76835000D01*
X250190000Y-82550000D02*
X248920000Y-82550000D01*
X213360000Y-71120000D02*
X214630000Y-69850000D01*
X238125000Y-76835000D02*
X213995000Y-76835000D01*
X247650000Y-81280000D02*
X242570000Y-81280000D01*
X242570000Y-113030000D02*
X245110000Y-113030000D01*
X229870000Y-104140000D02*
X233680000Y-104140000D01*
X233680000Y-104140000D02*
X242570000Y-113030000D01*
X222250000Y-128270000D02*
X226060000Y-128270000D01*
X248920000Y-120650000D02*
X250190000Y-120650000D01*
X226060000Y-128270000D02*
X227330000Y-129540000D01*
X232410000Y-129540000D02*
X242570000Y-119380000D01*
X227330000Y-129540000D02*
X232410000Y-129540000D01*
X242570000Y-119380000D02*
X247650000Y-119380000D01*
X247650000Y-119380000D02*
X248920000Y-120650000D01*
X229870000Y-93980000D02*
X232410000Y-93980000D01*
X234950000Y-100330000D02*
X242570000Y-107950000D01*
X232410000Y-93980000D02*
X234950000Y-96520000D01*
X234950000Y-96520000D02*
X234950000Y-100330000D01*
X242570000Y-107950000D02*
X245110000Y-107950000D01*
X173990000Y-104775000D02*
X175895000Y-104775000D01*
X172085000Y-106680000D02*
X173990000Y-104775000D01*
X242570000Y-116840000D02*
X247650000Y-116840000D01*
X248920000Y-118110000D02*
X250190000Y-118110000D01*
X226060000Y-123190000D02*
X227330000Y-124460000D01*
X234950000Y-124460000D02*
X242570000Y-116840000D01*
X227330000Y-124460000D02*
X234950000Y-124460000D01*
X247650000Y-116840000D02*
X248920000Y-118110000D01*
X222250000Y-123190000D02*
X226060000Y-123190000D01*
X248920000Y-113030000D02*
X250190000Y-113030000D01*
X222250000Y-99060000D02*
X226060000Y-99060000D01*
X227330000Y-100330000D02*
X231140000Y-100330000D01*
X242570000Y-111760000D02*
X247650000Y-111760000D01*
X231140000Y-100330000D02*
X242570000Y-111760000D01*
X226060000Y-99060000D02*
X227330000Y-100330000D01*
X247650000Y-111760000D02*
X248920000Y-113030000D01*
X245110000Y-120650000D02*
X242570000Y-120650000D01*
X232410000Y-132080000D02*
X231140000Y-133350000D01*
X232410000Y-130810000D02*
X232410000Y-132080000D01*
X242570000Y-120650000D02*
X232410000Y-130810000D01*
X231140000Y-133350000D02*
X229870000Y-133350000D01*
X242570000Y-110490000D02*
X245110000Y-110490000D01*
X231140000Y-99060000D02*
X242570000Y-110490000D01*
X229870000Y-99060000D02*
X231140000Y-99060000D01*
X242570000Y-118110000D02*
X245110000Y-118110000D01*
X232410000Y-128270000D02*
X242570000Y-118110000D01*
X229870000Y-128270000D02*
X232410000Y-128270000D01*
X222250000Y-104140000D02*
X226060000Y-104140000D01*
X242570000Y-114300000D02*
X247650000Y-114300000D01*
X227330000Y-105410000D02*
X233680000Y-105410000D01*
X248920000Y-115570000D02*
X250190000Y-115570000D01*
X247650000Y-114300000D02*
X248920000Y-115570000D01*
X226060000Y-104140000D02*
X227330000Y-105410000D01*
X233680000Y-105410000D02*
X242570000Y-114300000D01*
X232410000Y-90170000D02*
X236220000Y-93980000D01*
X227330000Y-90170000D02*
X232410000Y-90170000D01*
X222250000Y-88900000D02*
X226060000Y-88900000D01*
X236220000Y-93980000D02*
X236220000Y-100330000D01*
X236220000Y-100330000D02*
X242570000Y-106680000D01*
X242570000Y-106680000D02*
X247650000Y-106680000D01*
X247650000Y-106680000D02*
X248920000Y-107950000D01*
X248920000Y-107950000D02*
X250190000Y-107950000D01*
X226060000Y-88900000D02*
X227330000Y-90170000D01*
X229870000Y-109220000D02*
X236220000Y-109220000D01*
X242570000Y-115570000D02*
X245110000Y-115570000D01*
X236220000Y-109220000D02*
X242570000Y-115570000D01*
X242570000Y-109220000D02*
X247650000Y-109220000D01*
X227330000Y-95250000D02*
X232410000Y-95250000D01*
X248920000Y-110490000D02*
X250190000Y-110490000D01*
X232410000Y-95250000D02*
X233680000Y-96520000D01*
X247650000Y-109220000D02*
X248920000Y-110490000D01*
X222250000Y-93980000D02*
X226060000Y-93980000D01*
X226060000Y-93980000D02*
X227330000Y-95250000D01*
X233680000Y-100330000D02*
X242570000Y-109220000D01*
X233680000Y-96520000D02*
X233680000Y-100330000D01*
D32*
X247015000Y-104140000D02*
X248285000Y-105410000D01*
X238760000Y-99695000D02*
X238760000Y-100330000D01*
X242570000Y-104140000D02*
X243205000Y-104140000D01*
X231140000Y-83185000D02*
X233045000Y-85090000D01*
X233045000Y-85090000D02*
X238760000Y-90805000D01*
X248285000Y-105410000D02*
X250190000Y-105410000D01*
X199390000Y-82550000D02*
X200025000Y-83185000D01*
X190500000Y-73660000D02*
X179070000Y-73660000D01*
X212090000Y-83185000D02*
X231140000Y-83185000D01*
X238760000Y-100330000D02*
X242570000Y-104140000D01*
X238760000Y-90805000D02*
X238760000Y-99695000D01*
X190500000Y-73660000D02*
X199390000Y-82550000D01*
X200025000Y-83185000D02*
X212090000Y-83185000D01*
X243205000Y-104140000D02*
X247015000Y-104140000D01*
D31*
X73310710Y-93694290D02*
X73310710Y-93630710D01*
D34*
X73660000Y-135890000D02*
X78740000Y-135890000D01*
X116840000Y-106680000D02*
X119380000Y-104140000D01*
X78740000Y-135890000D02*
X81280000Y-138430000D01*
X201295000Y-81915000D02*
X231775000Y-81915000D01*
X116840000Y-111760000D02*
X116840000Y-106680000D01*
X200660000Y-81280000D02*
X201295000Y-81915000D01*
X189230000Y-47625000D02*
X188595000Y-48260000D01*
X200660000Y-81280000D02*
X193040000Y-73660000D01*
X203835000Y-47625000D02*
X204470000Y-48260000D01*
X203200000Y-47625000D02*
X203835000Y-47625000D01*
D35*
X204470000Y-43180000D02*
X203200000Y-44450000D01*
D34*
X119380000Y-77470000D02*
X121920000Y-74930000D01*
D31*
X73310710Y-93630710D02*
X72390000Y-92710000D01*
X73025000Y-93980000D02*
X73310710Y-93694290D01*
D34*
X243205000Y-102870000D02*
X240030000Y-99695000D01*
X245110000Y-102870000D02*
X243205000Y-102870000D01*
X189865000Y-47625000D02*
X189230000Y-47625000D01*
X93980000Y-120650000D02*
X73660000Y-120650000D01*
X240030000Y-90170000D02*
X231775000Y-81915000D01*
X119380000Y-104140000D02*
X119380000Y-77470000D01*
X73025000Y-93980000D02*
X85090000Y-106045000D01*
X240030000Y-99695000D02*
X240030000Y-90170000D01*
D35*
X203200000Y-44450000D02*
X203200000Y-47625000D01*
D34*
X189865000Y-47625000D02*
X203200000Y-47625000D01*
X85090000Y-106045000D02*
X85090000Y-120650000D01*
D31*
X234950000Y-40640000D02*
X236855000Y-38735000D01*
X131445000Y-74295000D02*
X131445000Y-78740000D01*
X167005000Y-148590000D02*
X233045000Y-148590000D01*
X133277490Y-72317490D02*
X133277490Y-77542510D01*
X132080000Y-64770000D02*
X132080000Y-71120000D01*
X130175000Y-73025000D02*
X131445000Y-74295000D01*
X146050000Y-74295000D02*
X146050000Y-72390000D01*
X254635000Y-53340000D02*
X254635000Y-62865000D01*
X247650000Y-133985000D02*
X247650000Y-136525000D01*
X141532490Y-82622510D02*
X142240000Y-81915000D01*
X122555000Y-64135000D02*
X131445000Y-64135000D01*
X135890000Y-119380000D02*
X135890000Y-142240000D01*
X122555000Y-69850000D02*
X125730000Y-73025000D01*
X139700000Y-118110000D02*
X137160000Y-118110000D01*
X121920000Y-69850000D02*
X121920000Y-64770000D01*
X236855000Y-38735000D02*
X250190000Y-38735000D01*
X254635000Y-62865000D02*
X254000000Y-63500000D01*
X121920000Y-64770000D02*
X122555000Y-64135000D01*
X131445000Y-78740000D02*
X140335000Y-87630000D01*
X142240000Y-76835000D02*
X144145000Y-74930000D01*
X137160000Y-118110000D02*
X135890000Y-119380000D01*
X131445000Y-64135000D02*
X132080000Y-64770000D01*
X254000000Y-138430000D02*
X254000000Y-137160000D01*
X245110000Y-133350000D02*
X247015000Y-133350000D01*
X140335000Y-87630000D02*
X140335000Y-117475000D01*
X234950000Y-43180000D02*
X234950000Y-40640000D01*
X118110000Y-67310000D02*
X118110000Y-68580000D01*
X121920000Y-69850000D02*
X122555000Y-69850000D01*
X140335000Y-117475000D02*
X139700000Y-118110000D01*
X160655000Y-142240000D02*
X167005000Y-148590000D01*
X118110000Y-68580000D02*
X119380000Y-69850000D01*
X251460000Y-40005000D02*
X251460000Y-50165000D01*
X254000000Y-63500000D02*
X254000000Y-137160000D01*
X241935000Y-139700000D02*
X252730000Y-139700000D01*
X138357490Y-82622510D02*
X141532490Y-82622510D01*
X139700000Y-143510000D02*
X140970000Y-142240000D01*
X248285000Y-137160000D02*
X247650000Y-136525000D01*
X132080000Y-71120000D02*
X133277490Y-72317490D01*
X135890000Y-142240000D02*
X137160000Y-143510000D01*
X144145000Y-74930000D02*
X145415000Y-74930000D01*
X252730000Y-139700000D02*
X254000000Y-138430000D01*
X142240000Y-81915000D02*
X142240000Y-76835000D01*
X248285000Y-137160000D02*
X254000000Y-137160000D01*
X145415000Y-74930000D02*
X146050000Y-74295000D01*
X140970000Y-142240000D02*
X160655000Y-142240000D01*
X233045000Y-148590000D02*
X241935000Y-139700000D01*
X251460000Y-50165000D02*
X254635000Y-53340000D01*
X247015000Y-133350000D02*
X247650000Y-133985000D01*
X250190000Y-38735000D02*
X251460000Y-40005000D01*
X133277490Y-77542510D02*
X138357490Y-82622510D01*
X125730000Y-73025000D02*
X130175000Y-73025000D01*
X137160000Y-143510000D02*
X139700000Y-143510000D01*
X119380000Y-69850000D02*
X121920000Y-69850000D01*
D32*
X110490000Y-140970000D02*
X111760000Y-139700000D01*
X86360000Y-48260000D02*
X86360000Y-45720000D01*
X88900000Y-43180000D02*
X88900000Y-40640000D01*
X87630000Y-39370000D02*
X73660000Y-39370000D01*
X109220000Y-140970000D02*
X110490000Y-140970000D01*
X111760000Y-60960000D02*
X104140000Y-53340000D01*
X73660000Y-39370000D02*
X71120000Y-41910000D01*
X87630000Y-49530000D02*
X86360000Y-48260000D01*
X92710000Y-49530000D02*
X87630000Y-49530000D01*
X111760000Y-139700000D02*
X111760000Y-60960000D01*
X86360000Y-45720000D02*
X88900000Y-43180000D01*
X104140000Y-53340000D02*
X104140000Y-45720000D01*
X103505000Y-45085000D02*
X97155000Y-45085000D01*
X88900000Y-40640000D02*
X87630000Y-39370000D01*
X97155000Y-45085000D02*
X92710000Y-49530000D01*
X104140000Y-45720000D02*
X103505000Y-45085000D01*
D31*
X232410000Y-143510000D02*
X229870000Y-143510000D01*
X245110000Y-125730000D02*
X242570000Y-125730000D01*
X237490000Y-138430000D02*
X232410000Y-143510000D01*
X237490000Y-130810000D02*
X237490000Y-138430000D01*
X242570000Y-125730000D02*
X237490000Y-130810000D01*
X144780000Y-97155000D02*
X143510000Y-95885000D01*
X232412820Y-147955000D02*
X168275000Y-147955000D01*
X168275000Y-147955000D02*
X161925000Y-141605000D01*
X250190000Y-138430000D02*
X248283590Y-138430000D01*
X142240000Y-139065000D02*
X142240000Y-127000000D01*
X142875000Y-139700000D02*
X142240000Y-139065000D01*
X142240000Y-127000000D02*
X143510000Y-125730000D01*
X143510000Y-106680000D02*
X143510000Y-103505000D01*
X143510000Y-125730000D02*
X143510000Y-106680000D01*
X247015000Y-137161410D02*
X243206410Y-137161410D01*
X143510000Y-103505000D02*
X144780000Y-102235000D01*
X143510000Y-95885000D02*
X143510000Y-93980000D01*
X243206410Y-137161410D02*
X232412820Y-147955000D01*
X161925000Y-141605000D02*
X156845000Y-141605000D01*
X156845000Y-141605000D02*
X154940000Y-139700000D01*
X248283590Y-138430000D02*
X247015000Y-137161410D01*
X154940000Y-139700000D02*
X142875000Y-139700000D01*
X144780000Y-102235000D02*
X144780000Y-97155000D01*
X142240000Y-91440000D02*
X144780000Y-91440000D01*
X141605000Y-124460000D02*
X141605000Y-92075000D01*
X138430000Y-125730000D02*
X140335000Y-125730000D01*
X141605000Y-92075000D02*
X142240000Y-91440000D01*
X144780000Y-95885000D02*
X146050000Y-97155000D01*
X146050000Y-90170000D02*
X144780000Y-91440000D01*
X144780000Y-91440000D02*
X144780000Y-95885000D01*
X140335000Y-125730000D02*
X141605000Y-124460000D01*
X146050000Y-97155000D02*
X146050000Y-99060000D01*
X146050000Y-86360000D02*
X146050000Y-90170000D01*
X170815000Y-104775000D02*
X172085000Y-103505000D01*
X172085000Y-103505000D02*
X172720000Y-102870000D01*
X172720000Y-102870000D02*
X175895000Y-102870000D01*
X238760000Y-41910000D02*
X238760000Y-44450000D01*
X252730000Y-61595000D02*
X248285000Y-57150000D01*
X247650000Y-71755000D02*
X248285000Y-71120000D01*
X252730000Y-70485000D02*
X252730000Y-61595000D01*
X244475000Y-46990000D02*
X244475000Y-42545000D01*
X247650000Y-73025000D02*
X247650000Y-71755000D01*
X252095000Y-73660000D02*
X248285000Y-73660000D01*
X252730000Y-74295000D02*
X252095000Y-73660000D01*
X244475000Y-42545000D02*
X243205000Y-41275000D01*
X248285000Y-71120000D02*
X252095000Y-71120000D01*
X239395000Y-41275000D02*
X238760000Y-41910000D01*
X238760000Y-44450000D02*
X237490000Y-45720000D01*
X252730000Y-135255000D02*
X252730000Y-74295000D01*
X248285000Y-57150000D02*
X248285000Y-50800000D01*
X250190000Y-135890000D02*
X252095000Y-135890000D01*
X248285000Y-50800000D02*
X244475000Y-46990000D01*
X252095000Y-71120000D02*
X252730000Y-70485000D01*
X252095000Y-135890000D02*
X252730000Y-135255000D01*
X248285000Y-73660000D02*
X247650000Y-73025000D01*
X243205000Y-41275000D02*
X239395000Y-41275000D01*
X248285000Y-128270000D02*
X250190000Y-128270000D01*
X215900000Y-96520000D02*
X217170000Y-96520000D01*
X231775000Y-146050000D02*
X238760000Y-139065000D01*
X201930000Y-93980000D02*
X213360000Y-93980000D01*
X217170000Y-143510000D02*
X219710000Y-146050000D01*
X219710000Y-146050000D02*
X231775000Y-146050000D01*
X238760000Y-130810000D02*
X242570000Y-127000000D01*
X242570000Y-127000000D02*
X247015000Y-127000000D01*
X196850000Y-99060000D02*
X201930000Y-93980000D01*
X213360000Y-93980000D02*
X215900000Y-96520000D01*
X247015000Y-127000000D02*
X248285000Y-128270000D01*
X238760000Y-139065000D02*
X238760000Y-130810000D01*
X178435000Y-96520000D02*
X177165000Y-96520000D01*
X176530000Y-146050000D02*
X177165000Y-146685000D01*
X231775000Y-147320000D02*
X243205000Y-135890000D01*
X176530000Y-145415000D02*
X176530000Y-146050000D01*
X179070000Y-97155000D02*
X178435000Y-96520000D01*
X177800000Y-147320000D02*
X231775000Y-147320000D01*
X177165000Y-108585000D02*
X177800000Y-107950000D01*
X179070000Y-100965000D02*
X179070000Y-97155000D01*
X177800000Y-107950000D02*
X177800000Y-102235000D01*
X177165000Y-146685000D02*
X177800000Y-147320000D01*
X177800000Y-102235000D02*
X179070000Y-100965000D01*
X243205000Y-135890000D02*
X245110000Y-135890000D01*
X175895000Y-108585000D02*
X177165000Y-108585000D01*
X250190000Y-125730000D02*
X248920000Y-125730000D01*
X248920000Y-125730000D02*
X247650000Y-124460000D01*
X242570000Y-124460000D02*
X236220000Y-130810000D01*
X226060000Y-138430000D02*
X222250000Y-138430000D01*
X247650000Y-124460000D02*
X242570000Y-124460000D01*
X227330000Y-139700000D02*
X226060000Y-138430000D01*
X236220000Y-135890000D02*
X232410000Y-139700000D01*
X236220000Y-130810000D02*
X236220000Y-135890000D01*
X232410000Y-139700000D02*
X227330000Y-139700000D01*
X245110000Y-123190000D02*
X242570000Y-123190000D01*
X242570000Y-123190000D02*
X234950000Y-130810000D01*
X232410000Y-138430000D02*
X229870000Y-138430000D01*
X234950000Y-135890000D02*
X232410000Y-138430000D01*
X234950000Y-130810000D02*
X234950000Y-135890000D01*
X247650000Y-121920000D02*
X242570000Y-121920000D01*
X226060000Y-133350000D02*
X222250000Y-133350000D01*
X233680000Y-130810000D02*
X233680000Y-133350000D01*
X232410000Y-134620000D02*
X227330000Y-134620000D01*
X227330000Y-134620000D02*
X226060000Y-133350000D01*
X250190000Y-123190000D02*
X248920000Y-123190000D01*
X242570000Y-121920000D02*
X233680000Y-130810000D01*
X248920000Y-123190000D02*
X247650000Y-121920000D01*
X233680000Y-133350000D02*
X232410000Y-134620000D01*
X135890000Y-74930000D02*
X142875000Y-74930000D01*
X143510000Y-74295000D02*
X143510000Y-72390000D01*
X142875000Y-74930000D02*
X143510000Y-74295000D01*
X120650000Y-41910000D02*
X128270000Y-49530000D01*
X120650000Y-40640000D02*
X120650000Y-41910000D01*
X128270000Y-49530000D02*
X128270000Y-52070000D01*
D33*
X121285000Y-149860000D02*
X123825000Y-149860000D01*
X106680000Y-149860000D02*
X111760000Y-149860000D01*
D34*
X181610000Y-88900000D02*
X181610000Y-86360000D01*
D33*
X156845000Y-149860000D02*
X158115000Y-149860000D01*
D36*
X142240000Y-125730000D02*
X142240000Y-103505000D01*
D10*
X187960000Y-144780000D02*
X187960000Y-146050000D01*
X76200000Y-71120000D02*
X74930000Y-69850000D01*
D33*
X250190000Y-142240000D02*
X250190000Y-140970000D01*
D10*
X187960000Y-144780000D02*
X189230000Y-146050000D01*
D34*
X180340000Y-90170000D02*
X181610000Y-90170000D01*
D10*
X80010000Y-71120000D02*
X80010000Y-71755000D01*
D33*
X242570000Y-43180000D02*
X242570000Y-45720000D01*
X147320000Y-149860000D02*
X156845000Y-149860000D01*
X118745000Y-149860000D02*
X121285000Y-149860000D01*
D10*
X63500000Y-105410000D02*
X63500000Y-113030000D01*
X78740000Y-69850000D02*
X80010000Y-71120000D01*
X57150000Y-114300000D02*
X57150000Y-115570000D01*
D33*
X234315000Y-60960000D02*
X240030000Y-66675000D01*
X132080000Y-149860000D02*
X142240000Y-149860000D01*
D34*
X184150000Y-91440000D02*
X184150000Y-93980000D01*
D33*
X59690000Y-149860000D02*
X55880000Y-146050000D01*
D10*
X73660000Y-55880000D02*
X72390000Y-57150000D01*
D33*
X109220000Y-147320000D02*
X111760000Y-149860000D01*
D10*
X73660000Y-69850000D02*
X74930000Y-69850000D01*
D34*
X184150000Y-93980000D02*
X186690000Y-93980000D01*
D10*
X67310000Y-119380000D02*
X73660000Y-125730000D01*
D33*
X163195000Y-149860000D02*
X242570000Y-149860000D01*
D34*
X182880000Y-96520000D02*
X181610000Y-97790000D01*
D10*
X181610000Y-101600000D02*
X181610000Y-102235000D01*
X74930000Y-69850000D02*
X76200000Y-69850000D01*
D33*
X233045000Y-59690000D02*
X232410000Y-59690000D01*
D34*
X184150000Y-93980000D02*
X184150000Y-95250000D01*
D10*
X82550000Y-88900000D02*
X82550000Y-86360000D01*
D34*
X194310000Y-95885000D02*
X193675000Y-96520000D01*
D33*
X59690000Y-146050000D02*
X60960000Y-146050000D01*
D10*
X82550000Y-88900000D02*
X81280000Y-88900000D01*
D33*
X233045000Y-59690000D02*
X233045000Y-59055000D01*
D10*
X198755000Y-102235000D02*
X197950000Y-102235000D01*
D33*
X62865000Y-149860000D02*
X60960000Y-149860000D01*
X60960000Y-146050000D02*
X64770000Y-149860000D01*
X160020000Y-146685000D02*
X156845000Y-149860000D01*
D10*
X82550000Y-85090000D02*
X80010000Y-85090000D01*
X78740000Y-57150000D02*
X80010000Y-58420000D01*
X212090000Y-140970000D02*
X207010000Y-146050000D01*
D33*
X111760000Y-149860000D02*
X118745000Y-149860000D01*
D10*
X78740000Y-69850000D02*
X77470000Y-69850000D01*
X80010000Y-68580000D02*
X80010000Y-69850000D01*
D33*
X57785000Y-146050000D02*
X60960000Y-149225000D01*
D34*
X182880000Y-90170000D02*
X181610000Y-88900000D01*
D10*
X198120000Y-56515000D02*
X198120000Y-53340000D01*
X73660000Y-46990000D02*
X73660000Y-54610000D01*
X81280000Y-88900000D02*
X82550000Y-90170000D01*
D33*
X121285000Y-143510000D02*
X121285000Y-147320000D01*
D10*
X219075000Y-112395000D02*
X208915000Y-112395000D01*
X217170000Y-140970000D02*
X212090000Y-140970000D01*
D33*
X144780000Y-147320000D02*
X147320000Y-149860000D01*
X240030000Y-52070000D02*
X234315000Y-57785000D01*
D34*
X182880000Y-90170000D02*
X184150000Y-91440000D01*
D10*
X67310000Y-116840000D02*
X67310000Y-119380000D01*
D33*
X127000000Y-149860000D02*
X129540000Y-149860000D01*
X160020000Y-146685000D02*
X160020000Y-147955000D01*
D34*
X181610000Y-86360000D02*
X181610000Y-83820000D01*
D33*
X134540000Y-100330000D02*
X129540000Y-105330000D01*
X158115000Y-149860000D02*
X161925000Y-149860000D01*
X142240000Y-149860000D02*
X147320000Y-149860000D01*
D10*
X109220000Y-124460000D02*
X109220000Y-119380000D01*
X187960000Y-144780000D02*
X186690000Y-146050000D01*
X73660000Y-57150000D02*
X73660000Y-54610000D01*
X83820000Y-85090000D02*
X82550000Y-86360000D01*
D33*
X129540000Y-147320000D02*
X127000000Y-149860000D01*
D10*
X85090000Y-101600000D02*
X82550000Y-99060000D01*
D33*
X129540000Y-105330000D02*
X129540000Y-147320000D01*
D10*
X73660000Y-59690000D02*
X73660000Y-67310000D01*
X181610000Y-102235000D02*
X182245000Y-102235000D01*
X63500000Y-68580000D02*
X64770000Y-69850000D01*
D33*
X160020000Y-144780000D02*
X160020000Y-146685000D01*
X160020000Y-147955000D02*
X160020000Y-149860000D01*
X250190000Y-140970000D02*
X245110000Y-140970000D01*
X121285000Y-147320000D02*
X118745000Y-149860000D01*
X240030000Y-52070000D02*
X240030000Y-66675000D01*
X109220000Y-147320000D02*
X109220000Y-149860000D01*
D10*
X189230000Y-146050000D02*
X187960000Y-146050000D01*
D33*
X161925000Y-149860000D02*
X160020000Y-147955000D01*
D10*
X80010000Y-71755000D02*
X80010000Y-85090000D01*
X73660000Y-68580000D02*
X72390000Y-69850000D01*
D33*
X64770000Y-149860000D02*
X106680000Y-149860000D01*
D10*
X63500000Y-113030000D02*
X67310000Y-116840000D01*
D34*
X181610000Y-88900000D02*
X180340000Y-90170000D01*
D33*
X242570000Y-45720000D02*
X242570000Y-46990000D01*
D10*
X80010000Y-69850000D02*
X80010000Y-71755000D01*
X82550000Y-86360000D02*
X82550000Y-85090000D01*
D33*
X62865000Y-149225000D02*
X62865000Y-149860000D01*
D10*
X58420000Y-113030000D02*
X57150000Y-114300000D01*
D34*
X181610000Y-90170000D02*
X182880000Y-90170000D01*
D10*
X197950000Y-102235000D02*
X197485000Y-102235000D01*
D33*
X234315000Y-60960000D02*
X233045000Y-59690000D01*
D10*
X64770000Y-57150000D02*
X72390000Y-57150000D01*
D33*
X243205000Y-69850000D02*
X245110000Y-69850000D01*
X250190000Y-100330000D02*
X245110000Y-100330000D01*
D10*
X56575000Y-114875000D02*
X57150000Y-114300000D01*
D36*
X143510000Y-102235000D02*
X143510000Y-99060000D01*
D10*
X80010000Y-58420000D02*
X80010000Y-68580000D01*
X207010000Y-146050000D02*
X189230000Y-146050000D01*
X56575000Y-114995000D02*
X56575000Y-114875000D01*
X57150000Y-115570000D02*
X56575000Y-114995000D01*
D33*
X121285000Y-147320000D02*
X123825000Y-149860000D01*
D10*
X208915000Y-112395000D02*
X208597500Y-112077500D01*
D33*
X121285000Y-147320000D02*
X121285000Y-149860000D01*
X144780000Y-147320000D02*
X142240000Y-149860000D01*
X59690000Y-146050000D02*
X62865000Y-149225000D01*
X64770000Y-149860000D02*
X62865000Y-149860000D01*
D10*
X82550000Y-99060000D02*
X82550000Y-90170000D01*
X73660000Y-54610000D02*
X73660000Y-55880000D01*
X56575000Y-114995000D02*
X51816000Y-114995000D01*
D34*
X181610000Y-83820000D02*
X179070000Y-81280000D01*
D31*
X181610000Y-97790000D02*
X181610000Y-99060000D01*
X63500000Y-67310000D02*
X63500000Y-68580000D01*
D10*
X57150000Y-115570000D02*
X57150000Y-118110000D01*
D34*
X194310000Y-95885000D02*
X194310000Y-93980000D01*
D10*
X73660000Y-69850000D02*
X73660000Y-67310000D01*
D33*
X234315000Y-57785000D02*
X234315000Y-60960000D01*
X109220000Y-147320000D02*
X106680000Y-149860000D01*
D34*
X140970000Y-72390000D02*
X135890000Y-72390000D01*
D33*
X123825000Y-149860000D02*
X127000000Y-149860000D01*
D10*
X83820000Y-85090000D02*
X88900000Y-85090000D01*
X186690000Y-146050000D02*
X180340000Y-146050000D01*
D33*
X129540000Y-149860000D02*
X132080000Y-149860000D01*
X160020000Y-147955000D02*
X158115000Y-149860000D01*
X232410000Y-59690000D02*
X229870000Y-59690000D01*
X233045000Y-59055000D02*
X234315000Y-57785000D01*
X129540000Y-147320000D02*
X129540000Y-149860000D01*
D10*
X73660000Y-68580000D02*
X74930000Y-69850000D01*
D34*
X172720000Y-93980000D02*
X176530000Y-90170000D01*
D10*
X182245000Y-102235000D02*
X197485000Y-102235000D01*
X76200000Y-72390000D02*
X76200000Y-71120000D01*
D34*
X181610000Y-90170000D02*
X181610000Y-88900000D01*
D33*
X60960000Y-149860000D02*
X59690000Y-149860000D01*
D36*
X142240000Y-103505000D02*
X143510000Y-102235000D01*
D10*
X73660000Y-57150000D02*
X74930000Y-57150000D01*
X181610000Y-99060000D02*
X181610000Y-101600000D01*
X187960000Y-146050000D02*
X186690000Y-146050000D01*
D36*
X140335000Y-127635000D02*
X142240000Y-125730000D01*
D10*
X78740000Y-69850000D02*
X80010000Y-68580000D01*
D34*
X193675000Y-96520000D02*
X182880000Y-96520000D01*
D10*
X81280000Y-88900000D02*
X76200000Y-88900000D01*
X222250000Y-143510000D02*
X219710000Y-143510000D01*
D33*
X144780000Y-147320000D02*
X144780000Y-149860000D01*
X161925000Y-149860000D02*
X163195000Y-149860000D01*
X240030000Y-66675000D02*
X243205000Y-69850000D01*
D10*
X76200000Y-88900000D02*
X80010000Y-85090000D01*
X72390000Y-69850000D02*
X73660000Y-69850000D01*
D34*
X183515000Y-95885000D02*
X182880000Y-96520000D01*
D10*
X80010000Y-69850000D02*
X78740000Y-69850000D01*
X222250000Y-115570000D02*
X219075000Y-112395000D01*
D33*
X55880000Y-146050000D02*
X57785000Y-146050000D01*
X60960000Y-149225000D02*
X60960000Y-149860000D01*
D34*
X184150000Y-95250000D02*
X183515000Y-95885000D01*
D10*
X206545000Y-110025000D02*
X208597500Y-112077500D01*
X73660000Y-67310000D02*
X73660000Y-68580000D01*
X76200000Y-69850000D02*
X76200000Y-72390000D01*
D31*
X63500000Y-54610000D02*
X63500000Y-55880000D01*
D33*
X129540000Y-147320000D02*
X132080000Y-149860000D01*
D34*
X176530000Y-90170000D02*
X180340000Y-90170000D01*
D33*
X250190000Y-69850000D02*
X245110000Y-69850000D01*
D10*
X219710000Y-143510000D02*
X217170000Y-140970000D01*
D33*
X242570000Y-149860000D02*
X250190000Y-142240000D01*
D10*
X63500000Y-113030000D02*
X58420000Y-113030000D01*
D36*
X140335000Y-128270000D02*
X140335000Y-127635000D01*
D10*
X206545000Y-110025000D02*
X198755000Y-102235000D01*
D33*
X233045000Y-59690000D02*
X234315000Y-59690000D01*
D10*
X63500000Y-55880000D02*
X64770000Y-57150000D01*
D33*
X233045000Y-59055000D02*
X232410000Y-59690000D01*
X242570000Y-46990000D02*
X240030000Y-49530000D01*
X109220000Y-143510000D02*
X109220000Y-147320000D01*
X240030000Y-49530000D02*
X240030000Y-52070000D01*
D10*
X187960000Y-143510000D02*
X187960000Y-144780000D01*
X180340000Y-146050000D02*
X177800000Y-143510000D01*
X77470000Y-69850000D02*
X76200000Y-69850000D01*
X73660000Y-88900000D02*
X76200000Y-88900000D01*
D33*
X57785000Y-146050000D02*
X59690000Y-146050000D01*
D10*
X64770000Y-69850000D02*
X72390000Y-69850000D01*
X74930000Y-57150000D02*
X78740000Y-57150000D01*
X82550000Y-90170000D02*
X82550000Y-88900000D01*
X82550000Y-85090000D02*
X83820000Y-85090000D01*
D33*
X160020000Y-146685000D02*
X163195000Y-149860000D01*
D10*
X177800000Y-143510000D02*
X167640000Y-143510000D01*
D33*
X144780000Y-143510000D02*
X144780000Y-147320000D01*
D10*
X74930000Y-57150000D02*
X73660000Y-55880000D01*
X72390000Y-57150000D02*
X73660000Y-57150000D01*
X76200000Y-71120000D02*
X77470000Y-69850000D01*
D31*
X161290000Y-104140000D02*
X161290000Y-106680000D01*
X180340000Y-118110000D02*
X182880000Y-118110000D01*
X203200000Y-102870000D02*
X203200000Y-95250000D01*
X200660000Y-118110000D02*
X203200000Y-118110000D01*
X161290000Y-106680000D02*
X161290000Y-113030000D01*
X222250000Y-106680000D02*
X207010000Y-106680000D01*
X182880000Y-118110000D02*
X184785000Y-118110000D01*
X165100000Y-116840000D02*
X179070000Y-116840000D01*
X165100000Y-116840000D02*
X161290000Y-113030000D01*
X161290000Y-96520000D02*
X162560000Y-97790000D01*
X186055000Y-116840000D02*
X199390000Y-116840000D01*
X162560000Y-102870000D02*
X161290000Y-104140000D01*
X184785000Y-118110000D02*
X186055000Y-116840000D01*
X161290000Y-93980000D02*
X161290000Y-96520000D01*
X199390000Y-116840000D02*
X200660000Y-118110000D01*
X207010000Y-106680000D02*
X203200000Y-102870000D01*
X179070000Y-116840000D02*
X180340000Y-118110000D01*
X162560000Y-97790000D02*
X162560000Y-102870000D01*
X200660000Y-120650000D02*
X203200000Y-120650000D01*
X160020000Y-97790000D02*
X160020000Y-102870000D01*
X158750000Y-113030000D02*
X158750000Y-106680000D01*
X182880000Y-120650000D02*
X184785000Y-120650000D01*
X224155000Y-102870000D02*
X220345000Y-102870000D01*
X182880000Y-120650000D02*
X180340000Y-120650000D01*
X158750000Y-93980000D02*
X158750000Y-96520000D01*
X219710000Y-104775000D02*
X220345000Y-105410000D01*
X219710000Y-103505000D02*
X219710000Y-104775000D01*
X224155000Y-100330000D02*
X224790000Y-100965000D01*
X158750000Y-96520000D02*
X160020000Y-97790000D01*
X160020000Y-102870000D02*
X158750000Y-104140000D01*
X180340000Y-120650000D02*
X179070000Y-119380000D01*
X165100000Y-119380000D02*
X158750000Y-113030000D01*
X186055000Y-119380000D02*
X199390000Y-119380000D01*
X199390000Y-119380000D02*
X200660000Y-120650000D01*
X179070000Y-119380000D02*
X165100000Y-119380000D01*
X210820000Y-100330000D02*
X224155000Y-100330000D01*
X224790000Y-102235000D02*
X224155000Y-102870000D01*
X220345000Y-102870000D02*
X219710000Y-103505000D01*
X184785000Y-120650000D02*
X186055000Y-119380000D01*
X220345000Y-105410000D02*
X226060000Y-105410000D01*
X226060000Y-105410000D02*
X227330000Y-106680000D01*
X205740000Y-95250000D02*
X210820000Y-100330000D01*
X224790000Y-100965000D02*
X224790000Y-102235000D01*
X227330000Y-106680000D02*
X229870000Y-106680000D01*
X158750000Y-104140000D02*
X158750000Y-106680000D01*
X157480000Y-102870000D02*
X156210000Y-104140000D01*
X199390000Y-123190000D02*
X200660000Y-124460000D01*
X157480000Y-97790000D02*
X157480000Y-102870000D01*
X166370000Y-123190000D02*
X156210000Y-113030000D01*
X186055000Y-123190000D02*
X187960000Y-123190000D01*
X156210000Y-96520000D02*
X157480000Y-97790000D01*
X213360000Y-124460000D02*
X219710000Y-130810000D01*
X184785000Y-124460000D02*
X186055000Y-123190000D01*
X187960000Y-123190000D02*
X199390000Y-123190000D01*
X179070000Y-123190000D02*
X180340000Y-124460000D01*
X200660000Y-124460000D02*
X213360000Y-124460000D01*
X156210000Y-104140000D02*
X156210000Y-106680000D01*
X156210000Y-113030000D02*
X156210000Y-106680000D01*
X156210000Y-93980000D02*
X156210000Y-96520000D01*
X167640000Y-123190000D02*
X166370000Y-123190000D01*
X219710000Y-130810000D02*
X222250000Y-130810000D01*
X180340000Y-124460000D02*
X184785000Y-124460000D01*
X167640000Y-123190000D02*
X179070000Y-123190000D01*
X179070000Y-135890000D02*
X180340000Y-137160000D01*
X161290000Y-132080000D02*
X165100000Y-135890000D01*
X183515000Y-66675000D02*
X187325000Y-70485000D01*
X201295000Y-70485000D02*
X203200000Y-72390000D01*
X223520000Y-57150000D02*
X224790000Y-58420000D01*
X186055000Y-135890000D02*
X187960000Y-135890000D01*
X154940000Y-120650000D02*
X157480000Y-123190000D01*
X157480000Y-123190000D02*
X157480000Y-124460000D01*
X210185000Y-75565000D02*
X210185000Y-60325000D01*
X208915000Y-76835000D02*
X210185000Y-75565000D01*
X153035000Y-120650000D02*
X154940000Y-120650000D01*
X152400000Y-120015000D02*
X153035000Y-120650000D01*
X180295001Y-44405001D02*
X180295001Y-52660001D01*
X180295001Y-52660001D02*
X183515000Y-55880000D01*
X161290000Y-128270000D02*
X161290000Y-132080000D01*
X165100000Y-135890000D02*
X167640000Y-135890000D01*
X179070000Y-43180000D02*
X180295001Y-44405001D01*
X157480000Y-124460000D02*
X161290000Y-128270000D01*
X224155000Y-62230000D02*
X222250000Y-62230000D01*
X184785000Y-137160000D02*
X186055000Y-135890000D01*
X187325000Y-70485000D02*
X201295000Y-70485000D01*
X167640000Y-135890000D02*
X179070000Y-135890000D01*
X203200000Y-72390000D02*
X203200000Y-74930000D01*
X210185000Y-60325000D02*
X213360000Y-57150000D01*
X224790000Y-61595000D02*
X224155000Y-62230000D01*
X213360000Y-57150000D02*
X223520000Y-57150000D01*
X224790000Y-58420000D02*
X224790000Y-61595000D01*
X180340000Y-137160000D02*
X184785000Y-137160000D01*
X203200000Y-74930000D02*
X205105000Y-76835000D01*
X183515000Y-55880000D02*
X183515000Y-66675000D01*
X205105000Y-76835000D02*
X208915000Y-76835000D01*
X182880000Y-67310000D02*
X186690000Y-71120000D01*
X179070000Y-45720000D02*
X179070000Y-52705000D01*
X200660000Y-71120000D02*
X202565000Y-73025000D01*
X160020000Y-133350000D02*
X165100000Y-138430000D01*
X184785000Y-139700000D02*
X186055000Y-138430000D01*
X182880000Y-56515000D02*
X182880000Y-67310000D01*
X186690000Y-71120000D02*
X200660000Y-71120000D01*
X212090000Y-60960000D02*
X217805000Y-60960000D01*
X186055000Y-138430000D02*
X187960000Y-138430000D01*
X209550705Y-77470705D02*
X210635009Y-76386401D01*
X210820000Y-62230000D02*
X212090000Y-60960000D01*
X180340000Y-139700000D02*
X184785000Y-139700000D01*
X165100000Y-138430000D02*
X167640000Y-138430000D01*
X179705000Y-139065000D02*
X180340000Y-139700000D01*
X202565000Y-73025000D02*
X202565000Y-75565000D01*
X149225000Y-120015000D02*
X152400000Y-123190000D01*
X210820000Y-76200000D02*
X210820000Y-62230000D01*
X170180000Y-139065000D02*
X179705000Y-139065000D01*
X210635009Y-76386401D02*
X210635010Y-76384990D01*
X160020000Y-129540000D02*
X160020000Y-133350000D01*
X202565000Y-75565000D02*
X204470705Y-77470705D01*
X167640000Y-138430000D02*
X169545000Y-138430000D01*
X217805000Y-60960000D02*
X219075000Y-59690000D01*
X169545000Y-138430000D02*
X170180000Y-139065000D01*
X152400000Y-123190000D02*
X153670000Y-123190000D01*
X220650000Y-59690000D02*
X222250000Y-59690000D01*
X179070000Y-52705000D02*
X182880000Y-56515000D01*
X210635010Y-76384990D02*
X210820000Y-76200000D01*
X153670000Y-123190000D02*
X160020000Y-129540000D01*
X204470705Y-77470705D02*
X209550705Y-77470705D01*
X219075000Y-59690000D02*
X220650000Y-59690000D01*
X224155000Y-67310000D02*
X226060000Y-65405000D01*
X222250000Y-67310000D02*
X224155000Y-67310000D01*
X211455000Y-55880000D02*
X208915000Y-58420000D01*
X148164340Y-123190000D02*
X146050000Y-121075660D01*
X226060000Y-65405000D02*
X226060000Y-57150000D01*
X188595000Y-69215000D02*
X184785000Y-65405000D01*
X202565000Y-69215000D02*
X188595000Y-69215000D01*
X226060000Y-57150000D02*
X224790000Y-55880000D01*
X167640000Y-140970000D02*
X179070000Y-140970000D01*
X208915000Y-70485000D02*
X208280000Y-71120000D01*
X182880000Y-52705000D02*
X182880000Y-44450000D01*
X149860000Y-123190000D02*
X148164340Y-123190000D01*
X180340000Y-142240000D02*
X184785000Y-142240000D01*
X167640000Y-140970000D02*
X165100000Y-140970000D01*
X158750000Y-130810000D02*
X153670000Y-125730000D01*
X146050000Y-121075660D02*
X146050000Y-120015000D01*
X204470000Y-71120000D02*
X202565000Y-69215000D01*
X184785000Y-54610000D02*
X182880000Y-52705000D01*
X158750000Y-134620000D02*
X158750000Y-130810000D01*
X208915000Y-58420000D02*
X208915000Y-70485000D01*
X224790000Y-55880000D02*
X211455000Y-55880000D01*
X179070000Y-140970000D02*
X180340000Y-142240000D01*
X184785000Y-142240000D02*
X186055000Y-140970000D01*
X208280000Y-71120000D02*
X204470000Y-71120000D01*
X182880000Y-44450000D02*
X181610000Y-43180000D01*
X153670000Y-125730000D02*
X152400000Y-125730000D01*
X152400000Y-125730000D02*
X149860000Y-123190000D01*
X165100000Y-140970000D02*
X158750000Y-134620000D01*
X184785000Y-65405000D02*
X184785000Y-54610000D01*
X186055000Y-140970000D02*
X187960000Y-140970000D01*
X165100000Y-115570000D02*
X167640000Y-115570000D01*
X163830000Y-102870000D02*
X162560000Y-104140000D01*
X165100000Y-115570000D02*
X162560000Y-113030000D01*
X224790000Y-124460000D02*
X219710000Y-124460000D01*
X184785000Y-116840000D02*
X186055000Y-115570000D01*
X229870000Y-125730000D02*
X226060000Y-125730000D01*
X212090000Y-116840000D02*
X200660000Y-116840000D01*
X163830000Y-86360000D02*
X163830000Y-90170000D01*
X162560000Y-96520000D02*
X163830000Y-97790000D01*
X163830000Y-97790000D02*
X163830000Y-99060000D01*
X162560000Y-104140000D02*
X162560000Y-113030000D01*
X180340000Y-116840000D02*
X184785000Y-116840000D01*
X163830000Y-90170000D02*
X162560000Y-91440000D01*
X179070000Y-115570000D02*
X180340000Y-116840000D01*
X163830000Y-99060000D02*
X163830000Y-102870000D01*
X186055000Y-115570000D02*
X187960000Y-115570000D01*
X167640000Y-115570000D02*
X179070000Y-115570000D01*
X200660000Y-116840000D02*
X199390000Y-115570000D01*
X219710000Y-124460000D02*
X212090000Y-116840000D01*
X226060000Y-125730000D02*
X224790000Y-124460000D01*
X162560000Y-91440000D02*
X162560000Y-96520000D01*
X199390000Y-115570000D02*
X187960000Y-115570000D01*
X184785000Y-119380000D02*
X186055000Y-118110000D01*
X179070000Y-118110000D02*
X180340000Y-119380000D01*
X180340000Y-119380000D02*
X184785000Y-119380000D01*
X167640000Y-118110000D02*
X165100000Y-118110000D01*
X187960000Y-118110000D02*
X199390000Y-118110000D01*
X161290000Y-86360000D02*
X161290000Y-90170000D01*
X160020000Y-96520000D02*
X161290000Y-97790000D01*
X160020000Y-104140000D02*
X161290000Y-102870000D01*
X161290000Y-97790000D02*
X161290000Y-99060000D01*
X200660000Y-119380000D02*
X213360000Y-119380000D01*
X160020000Y-113030000D02*
X160020000Y-104140000D01*
X161290000Y-102870000D02*
X161290000Y-99060000D01*
X213360000Y-119380000D02*
X219710000Y-125730000D01*
X165100000Y-118110000D02*
X160020000Y-113030000D01*
X160020000Y-91440000D02*
X160020000Y-96520000D01*
X161290000Y-90170000D02*
X160020000Y-91440000D01*
X167640000Y-118110000D02*
X179070000Y-118110000D01*
X199390000Y-118110000D02*
X200660000Y-119380000D01*
X219710000Y-125730000D02*
X222250000Y-125730000D01*
X186055000Y-118110000D02*
X187960000Y-118110000D01*
X158750000Y-90170000D02*
X157480000Y-91440000D01*
X212090000Y-121920000D02*
X200660000Y-121920000D01*
X157480000Y-91440000D02*
X157480000Y-96520000D01*
X200660000Y-121920000D02*
X199390000Y-120650000D01*
X229870000Y-130810000D02*
X226060000Y-130810000D01*
X158750000Y-99060000D02*
X158750000Y-102870000D01*
X158750000Y-86360000D02*
X158750000Y-90170000D01*
X157480000Y-96520000D02*
X158750000Y-97790000D01*
X219710000Y-129540000D02*
X212090000Y-121920000D01*
X180340000Y-121920000D02*
X184785000Y-121920000D01*
X224790000Y-129540000D02*
X219710000Y-129540000D01*
X157480000Y-104140000D02*
X157480000Y-113030000D01*
X167640000Y-120650000D02*
X179070000Y-120650000D01*
X186055000Y-120650000D02*
X187960000Y-120650000D01*
X165100000Y-120650000D02*
X167640000Y-120650000D01*
X226060000Y-130810000D02*
X224790000Y-129540000D01*
X179070000Y-120650000D02*
X180340000Y-121920000D01*
X199390000Y-120650000D02*
X187960000Y-120650000D01*
X158750000Y-102870000D02*
X157480000Y-104140000D01*
X184785000Y-121920000D02*
X186055000Y-120650000D01*
X165100000Y-120650000D02*
X157480000Y-113030000D01*
X158750000Y-97790000D02*
X158750000Y-99060000D01*
X156210000Y-97790000D02*
X156210000Y-99060000D01*
X154940000Y-104140000D02*
X156210000Y-102870000D01*
X156210000Y-85090000D02*
X156845000Y-84455000D01*
X224790000Y-134620000D02*
X219710000Y-134620000D01*
X156845000Y-84455000D02*
X169545000Y-84455000D01*
X165100000Y-123190000D02*
X154940000Y-113030000D01*
X169545000Y-84455000D02*
X170815000Y-83185000D01*
X179070000Y-125730000D02*
X180340000Y-127000000D01*
X156210000Y-102870000D02*
X156210000Y-99060000D01*
X156210000Y-86360000D02*
X156210000Y-90170000D01*
X156210000Y-90170000D02*
X154940000Y-91440000D01*
X226060000Y-135890000D02*
X224790000Y-134620000D01*
X212090000Y-127000000D02*
X200660000Y-127000000D01*
X154940000Y-96520000D02*
X156210000Y-97790000D01*
X167640000Y-125730000D02*
X179070000Y-125730000D01*
X156210000Y-86360000D02*
X156210000Y-85090000D01*
X170815000Y-83185000D02*
X170815000Y-65405000D01*
X170815000Y-65405000D02*
X168275000Y-62865000D01*
X165100000Y-124460000D02*
X165100000Y-123190000D01*
X168275000Y-62865000D02*
X153670000Y-62865000D01*
X180340000Y-127000000D02*
X184785000Y-127000000D01*
X199390000Y-125730000D02*
X187960000Y-125730000D01*
X154940000Y-91440000D02*
X154940000Y-96520000D01*
X219710000Y-134620000D02*
X212090000Y-127000000D01*
X184785000Y-127000000D02*
X186055000Y-125730000D01*
X153670000Y-62865000D02*
X151130000Y-65405000D01*
X186055000Y-125730000D02*
X187960000Y-125730000D01*
X154940000Y-113030000D02*
X154940000Y-104140000D01*
X200660000Y-127000000D02*
X199390000Y-125730000D01*
X166370000Y-125730000D02*
X165100000Y-124460000D01*
X151130000Y-65405000D02*
X151130000Y-67310000D01*
X167640000Y-125730000D02*
X166370000Y-125730000D01*
X229870000Y-135890000D02*
X226060000Y-135890000D01*
X187960000Y-128270000D02*
X199390000Y-128270000D01*
X152400000Y-91440000D02*
X153670000Y-90170000D01*
X199390000Y-128270000D02*
X200660000Y-129540000D01*
X184785000Y-129540000D02*
X186055000Y-128270000D01*
X153670000Y-99060000D02*
X153670000Y-97790000D01*
X154305000Y-83820000D02*
X153670000Y-84455000D01*
X219710000Y-135890000D02*
X222250000Y-135890000D01*
X153670000Y-67310000D02*
X153670000Y-64770000D01*
X168910000Y-83820000D02*
X154305000Y-83820000D01*
X167640000Y-128270000D02*
X179070000Y-128270000D01*
X154940000Y-63500000D02*
X167640000Y-63500000D01*
X179070000Y-128270000D02*
X180340000Y-129540000D01*
X167640000Y-63500000D02*
X170180000Y-66040000D01*
X165100000Y-125730000D02*
X165100000Y-127000000D01*
X163830000Y-124460000D02*
X163830000Y-123190000D01*
X153670000Y-102870000D02*
X152400000Y-104140000D01*
X153670000Y-84455000D02*
X153670000Y-86360000D01*
X153670000Y-99060000D02*
X153670000Y-102870000D01*
X153670000Y-64770000D02*
X154940000Y-63500000D01*
X170180000Y-66040000D02*
X170180000Y-82550000D01*
X180340000Y-129540000D02*
X184785000Y-129540000D01*
X153670000Y-90170000D02*
X153670000Y-86360000D01*
X165100000Y-127000000D02*
X166370000Y-128270000D01*
X166370000Y-128270000D02*
X167640000Y-128270000D01*
X200660000Y-129540000D02*
X213360000Y-129540000D01*
X170180000Y-82550000D02*
X168910000Y-83820000D01*
X186055000Y-128270000D02*
X187960000Y-128270000D01*
X163830000Y-124460000D02*
X165100000Y-125730000D01*
X163830000Y-123190000D02*
X152400000Y-111760000D01*
X152400000Y-104140000D02*
X152400000Y-111760000D01*
X213360000Y-129540000D02*
X219710000Y-135890000D01*
X152400000Y-96520000D02*
X152400000Y-91440000D01*
X153670000Y-97790000D02*
X152400000Y-96520000D01*
X151130000Y-84455000D02*
X152400000Y-83185000D01*
X167005000Y-64135000D02*
X156845000Y-64135000D01*
X156210000Y-64770000D02*
X156210000Y-67310000D01*
X149860000Y-104140000D02*
X151130000Y-102870000D01*
X169545000Y-81915000D02*
X169545000Y-66675000D01*
X151130000Y-90170000D02*
X151130000Y-86360000D01*
X212090000Y-132080000D02*
X200660000Y-132080000D01*
X224790000Y-139700000D02*
X219710000Y-139700000D01*
X163830000Y-125730000D02*
X162560000Y-124460000D01*
X165100000Y-130810000D02*
X163830000Y-129540000D01*
X162560000Y-123190000D02*
X149860000Y-110490000D01*
X180340000Y-132080000D02*
X184785000Y-132080000D01*
X149860000Y-110490000D02*
X149860000Y-104140000D01*
X149860000Y-96520000D02*
X149860000Y-91440000D01*
X169545000Y-66675000D02*
X167005000Y-64135000D01*
X151130000Y-97790000D02*
X149860000Y-96520000D01*
X151130000Y-86360000D02*
X151130000Y-84455000D01*
X187960000Y-130810000D02*
X186055000Y-130810000D01*
X226060000Y-140970000D02*
X224790000Y-139700000D01*
X199390000Y-130810000D02*
X187960000Y-130810000D01*
X156845000Y-64135000D02*
X156210000Y-64770000D01*
X151130000Y-102870000D02*
X151130000Y-99060000D01*
X167640000Y-130810000D02*
X179070000Y-130810000D01*
X163830000Y-129540000D02*
X163830000Y-125730000D01*
X186055000Y-130810000D02*
X184785000Y-132080000D01*
X162560000Y-124460000D02*
X162560000Y-123190000D01*
X151130000Y-99060000D02*
X151130000Y-97790000D01*
X167640000Y-130810000D02*
X165100000Y-130810000D01*
X168275000Y-83185000D02*
X169545000Y-81915000D01*
X152400000Y-83185000D02*
X168275000Y-83185000D01*
X200660000Y-132080000D02*
X199390000Y-130810000D01*
X179070000Y-130810000D02*
X180340000Y-132080000D01*
X229870000Y-140970000D02*
X226060000Y-140970000D01*
X149860000Y-91440000D02*
X151130000Y-90170000D01*
X219710000Y-139700000D02*
X212090000Y-132080000D01*
X148590000Y-97155000D02*
X147320000Y-95885000D01*
X187960000Y-133350000D02*
X199390000Y-133350000D01*
X167640000Y-82550000D02*
X150495000Y-82550000D01*
X184785000Y-134620000D02*
X186055000Y-133350000D01*
X159385000Y-64770000D02*
X166370000Y-64770000D01*
X147320000Y-91440000D02*
X148590000Y-90170000D01*
X199390000Y-133350000D02*
X200660000Y-134620000D01*
X186055000Y-133350000D02*
X187960000Y-133350000D01*
X213360000Y-134620000D02*
X219710000Y-140970000D01*
X180340000Y-134620000D02*
X184785000Y-134620000D01*
X158750000Y-67310000D02*
X158750000Y-65405000D01*
X148590000Y-102870000D02*
X147320000Y-104140000D01*
X168910000Y-67310000D02*
X168910000Y-81280000D01*
X219710000Y-140970000D02*
X222250000Y-140970000D01*
X148590000Y-84455000D02*
X148590000Y-86360000D01*
X200660000Y-134620000D02*
X213360000Y-134620000D01*
X150495000Y-82550000D02*
X148590000Y-84455000D01*
X162560000Y-130810000D02*
X165100000Y-133350000D01*
X158750000Y-65405000D02*
X159385000Y-64770000D01*
X160020000Y-124460000D02*
X160020000Y-123190000D01*
X160020000Y-124460000D02*
X162560000Y-127000000D01*
X148590000Y-99060000D02*
X148590000Y-102870000D01*
X148590000Y-90170000D02*
X148590000Y-86360000D01*
X160020000Y-123190000D02*
X147320000Y-110490000D01*
X147320000Y-95885000D02*
X147320000Y-91440000D01*
X162560000Y-127000000D02*
X162560000Y-130810000D01*
X148590000Y-99060000D02*
X148590000Y-97155000D01*
X167640000Y-133350000D02*
X179070000Y-133350000D01*
X147320000Y-104140000D02*
X147320000Y-110490000D01*
X179070000Y-133350000D02*
X180340000Y-134620000D01*
X166370000Y-64770000D02*
X168910000Y-67310000D01*
X168910000Y-81280000D02*
X167640000Y-82550000D01*
X165100000Y-133350000D02*
X167640000Y-133350000D01*
X203835000Y-73025000D02*
X204470000Y-73660000D01*
X184150000Y-55245000D02*
X181610000Y-52705000D01*
X199390000Y-142240000D02*
X200660000Y-143510000D01*
X187960000Y-69850000D02*
X184150000Y-66040000D01*
X225425000Y-64135000D02*
X225425000Y-57785000D01*
X212725000Y-56515000D02*
X209550000Y-59690000D01*
X181610000Y-52705000D02*
X181610000Y-45720000D01*
X203200000Y-71120000D02*
X203835000Y-71755000D01*
X209550000Y-59690000D02*
X209550000Y-73025000D01*
X147320000Y-101600000D02*
X147320000Y-97155000D01*
X222250000Y-64770000D02*
X224790000Y-64770000D01*
X184785000Y-143510000D02*
X186055000Y-142240000D01*
X200660000Y-143510000D02*
X203200000Y-143510000D01*
X179070000Y-142240000D02*
X165100000Y-142240000D01*
X180340000Y-143510000D02*
X179070000Y-142240000D01*
X224155000Y-56515000D02*
X212725000Y-56515000D01*
X146050000Y-95885000D02*
X146050000Y-93980000D01*
X147320000Y-124460000D02*
X144780000Y-121920000D01*
X149860000Y-124460000D02*
X147320000Y-124460000D01*
X144780000Y-121920000D02*
X144780000Y-104140000D01*
X225425000Y-57785000D02*
X224155000Y-56515000D01*
X224790000Y-64770000D02*
X225425000Y-64135000D01*
X201930000Y-69850000D02*
X187960000Y-69850000D01*
X182880000Y-143510000D02*
X180340000Y-143510000D01*
X157480000Y-130810000D02*
X153670000Y-127000000D01*
X153670000Y-127000000D02*
X152400000Y-127000000D01*
X203835000Y-71755000D02*
X203835000Y-73025000D01*
X182880000Y-143510000D02*
X184785000Y-143510000D01*
X165100000Y-142240000D02*
X157480000Y-134620000D01*
X152400000Y-127000000D02*
X149860000Y-124460000D01*
X209550000Y-73025000D02*
X208915000Y-73660000D01*
X203200000Y-71120000D02*
X201930000Y-69850000D01*
X184150000Y-66040000D02*
X184150000Y-55245000D01*
X147320000Y-97155000D02*
X146050000Y-95885000D01*
X208915000Y-73660000D02*
X204470000Y-73660000D01*
X186055000Y-142240000D02*
X199390000Y-142240000D01*
X157480000Y-134620000D02*
X157480000Y-130810000D01*
X144780000Y-104140000D02*
X147320000Y-101600000D01*
X161925000Y-131445000D02*
X165100000Y-134620000D01*
X187960000Y-46990000D02*
X187960000Y-44450000D01*
X179070000Y-134620000D02*
X180340000Y-135890000D01*
X198120000Y-66675000D02*
X191135000Y-66675000D01*
X191135000Y-66675000D02*
X187325000Y-62865000D01*
X158750000Y-123190000D02*
X158750000Y-124460000D01*
X158750000Y-124460000D02*
X161925000Y-127635000D01*
X180340000Y-135890000D02*
X182880000Y-135890000D01*
X146050000Y-110490000D02*
X158750000Y-123190000D01*
X187960000Y-44450000D02*
X186690000Y-43180000D01*
X199390000Y-134620000D02*
X200660000Y-135890000D01*
X165100000Y-134620000D02*
X179070000Y-134620000D01*
X182880000Y-135890000D02*
X184785000Y-135890000D01*
X200660000Y-135890000D02*
X203200000Y-135890000D01*
X187325000Y-47625000D02*
X187960000Y-46990000D01*
X187325000Y-62865000D02*
X187325000Y-47625000D01*
X207010000Y-59690000D02*
X205105000Y-59690000D01*
X146050000Y-106680000D02*
X146050000Y-110490000D01*
X184785000Y-135890000D02*
X186055000Y-134620000D01*
X161925000Y-127635000D02*
X161925000Y-131445000D01*
X205105000Y-59690000D02*
X198120000Y-66675000D01*
X186055000Y-134620000D02*
X199390000Y-134620000D01*
X182880000Y-133350000D02*
X180340000Y-133350000D01*
X186690000Y-63500000D02*
X186690000Y-45720000D01*
X199634990Y-132324990D02*
X200660000Y-133350000D01*
X185606400Y-132530010D02*
X185606400Y-132528600D01*
X180340000Y-133350000D02*
X179070000Y-132080000D01*
X200330000Y-67310000D02*
X190500000Y-67310000D01*
X148590000Y-110490000D02*
X148590000Y-106680000D01*
X182880000Y-133350000D02*
X184786410Y-133350000D01*
X163195000Y-130175000D02*
X163195000Y-126365000D01*
X161290000Y-123190000D02*
X148590000Y-110490000D01*
X205410000Y-62230000D02*
X200330000Y-67310000D01*
X184786410Y-133350000D02*
X185606400Y-132530010D01*
X207010000Y-62230000D02*
X205410000Y-62230000D01*
X165100000Y-132080000D02*
X163195000Y-130175000D01*
X161290000Y-124460000D02*
X161290000Y-123190000D01*
X185810010Y-132324990D02*
X199634990Y-132324990D01*
X163195000Y-126365000D02*
X161290000Y-124460000D01*
X185606400Y-132528600D02*
X185810010Y-132324990D01*
X200660000Y-133350000D02*
X203200000Y-133350000D01*
X179070000Y-132080000D02*
X165100000Y-132080000D01*
X190500000Y-67310000D02*
X186690000Y-63500000D01*
X184785000Y-138430000D02*
X186055000Y-137160000D01*
X207010000Y-67310000D02*
X203835000Y-67310000D01*
X186055000Y-137160000D02*
X199390000Y-137160000D01*
X203835000Y-67310000D02*
X202565000Y-68580000D01*
X185420000Y-53340000D02*
X184150000Y-52070000D01*
X154940000Y-121920000D02*
X156210000Y-123190000D01*
X156210000Y-124460000D02*
X160655000Y-128905000D01*
X200660000Y-138430000D02*
X203200000Y-138430000D01*
X156210000Y-123190000D02*
X156210000Y-124460000D01*
X199390000Y-137160000D02*
X200660000Y-138430000D01*
X152400000Y-121920000D02*
X154940000Y-121920000D01*
X169545000Y-137160000D02*
X170180000Y-136525000D01*
X185420000Y-64770000D02*
X185420000Y-53340000D01*
X184150000Y-52070000D02*
X184150000Y-45720000D01*
X160655000Y-128905000D02*
X160655000Y-132715000D01*
X178435000Y-136525000D02*
X180340000Y-138430000D01*
X170180000Y-136525000D02*
X178435000Y-136525000D01*
X151130000Y-120650000D02*
X152400000Y-121920000D01*
X165100000Y-137160000D02*
X169545000Y-137160000D01*
X202565000Y-68580000D02*
X189230000Y-68580000D01*
X146050000Y-114935000D02*
X151130000Y-120015000D01*
X189230000Y-68580000D02*
X185420000Y-64770000D01*
X151130000Y-120015000D02*
X151130000Y-120650000D01*
X160655000Y-132715000D02*
X165100000Y-137160000D01*
X182880000Y-138430000D02*
X184785000Y-138430000D01*
X180340000Y-138430000D02*
X182880000Y-138430000D01*
X148590000Y-121920000D02*
X149860000Y-121920000D01*
X182880000Y-140970000D02*
X180340000Y-140970000D01*
X153670000Y-124460000D02*
X159385000Y-130175000D01*
X175260000Y-139700000D02*
X165100000Y-139700000D01*
X189865000Y-67945000D02*
X186055000Y-64135000D01*
X149860000Y-121920000D02*
X152400000Y-124460000D01*
X165100000Y-139700000D02*
X159385000Y-133985000D01*
X159385000Y-130175000D02*
X159385000Y-131445000D01*
X180340000Y-140970000D02*
X179070000Y-139700000D01*
X207010000Y-64770000D02*
X205105000Y-64770000D01*
X179070000Y-139700000D02*
X175260000Y-139700000D01*
X199390000Y-139700000D02*
X200660000Y-140970000D01*
X147320000Y-120650000D02*
X148590000Y-121920000D01*
X200660000Y-140970000D02*
X203200000Y-140970000D01*
X146050000Y-117475000D02*
X147320000Y-118745000D01*
X186055000Y-52070000D02*
X185375001Y-51390001D01*
X186055000Y-64135000D02*
X186055000Y-52070000D01*
X147320000Y-118745000D02*
X147320000Y-120650000D01*
X152400000Y-124460000D02*
X153670000Y-124460000D01*
X185375001Y-44405001D02*
X184150000Y-43180000D01*
X201930000Y-67945000D02*
X189865000Y-67945000D01*
X185375001Y-51390001D02*
X185375001Y-44405001D01*
X205105000Y-64770000D02*
X201930000Y-67945000D01*
X184785000Y-140970000D02*
X186055000Y-139700000D01*
X159385000Y-133985000D02*
X159385000Y-131445000D01*
X186055000Y-139700000D02*
X199390000Y-139700000D01*
X182880000Y-140970000D02*
X184785000Y-140970000D01*
X199390000Y-127000000D02*
X200660000Y-128270000D01*
X186055000Y-127000000D02*
X199390000Y-127000000D01*
X200660000Y-128270000D02*
X203200000Y-128270000D01*
X184785000Y-128270000D02*
X186055000Y-127000000D01*
X222250000Y-101600000D02*
X205740000Y-101600000D01*
X182880000Y-128270000D02*
X184785000Y-128270000D01*
X217805000Y-93345000D02*
X219710000Y-95250000D01*
X160655000Y-74930000D02*
X159520710Y-73795710D01*
X161925000Y-74930000D02*
X160655000Y-74930000D01*
X226060000Y-95250000D02*
X227330000Y-96520000D01*
X165100000Y-79375000D02*
X165100000Y-76200000D01*
X159520710Y-73795710D02*
X159520710Y-73160710D01*
X189865000Y-91440000D02*
X213360000Y-91440000D01*
X165100000Y-76200000D02*
X164465000Y-75565000D01*
X215265000Y-93345000D02*
X217805000Y-93345000D01*
X227330000Y-96520000D02*
X229870000Y-96520000D01*
X219710000Y-95250000D02*
X226060000Y-95250000D01*
X186690000Y-86360000D02*
X186690000Y-88265000D01*
X213360000Y-91440000D02*
X215265000Y-93345000D01*
X186690000Y-88265000D02*
X189865000Y-91440000D01*
X162560000Y-75565000D02*
X161925000Y-74930000D01*
X164465000Y-75565000D02*
X162560000Y-75565000D01*
X159520710Y-73160710D02*
X158750000Y-72390000D01*
X166370000Y-80645000D02*
X165100000Y-79375000D01*
X167640000Y-80645000D02*
X166370000Y-80645000D01*
X165735000Y-78740000D02*
X165735000Y-75565000D01*
X189230000Y-88265000D02*
X191770000Y-90805000D01*
X189230000Y-86360000D02*
X189230000Y-88265000D01*
X162060710Y-73795710D02*
X162060710Y-73160710D01*
X191770000Y-90805000D02*
X213995000Y-90805000D01*
X215265000Y-92075000D02*
X219075000Y-92075000D01*
X213995000Y-90805000D02*
X215265000Y-92075000D01*
X165100000Y-74930000D02*
X163195000Y-74930000D01*
X167640000Y-79375000D02*
X166370000Y-79375000D01*
X219075000Y-92075000D02*
X219710000Y-91440000D01*
X162060710Y-73160710D02*
X161290000Y-72390000D01*
X165735000Y-75565000D02*
X165100000Y-74930000D01*
X219710000Y-91440000D02*
X222250000Y-91440000D01*
X163195000Y-74930000D02*
X162060710Y-73795710D01*
X166370000Y-79375000D02*
X165735000Y-78740000D01*
X214630000Y-90170000D02*
X215900000Y-91440000D01*
X193675000Y-90170000D02*
X214630000Y-90170000D01*
X167640000Y-78105000D02*
X167005000Y-77470000D01*
X167005000Y-73025000D02*
X167005000Y-77470000D01*
X227330000Y-91440000D02*
X229870000Y-91440000D01*
X226304990Y-90414990D02*
X227330000Y-91440000D01*
X191770000Y-86360000D02*
X191770000Y-88265000D01*
X215900000Y-91440000D02*
X218440000Y-91440000D01*
X191770000Y-88265000D02*
X193675000Y-90170000D01*
X218440000Y-91440000D02*
X219465010Y-90414990D01*
X219465010Y-90414990D02*
X226304990Y-90414990D01*
X166370000Y-72390000D02*
X167005000Y-73025000D01*
X163830000Y-72390000D02*
X166370000Y-72390000D01*
X191770000Y-105410000D02*
X191770000Y-106680000D01*
X181610000Y-105410000D02*
X182245000Y-104775000D01*
X182245000Y-104775000D02*
X191135000Y-104775000D01*
X191135000Y-104775000D02*
X191770000Y-105410000D01*
X181610000Y-106680000D02*
X181610000Y-105410000D01*
X147955000Y-83820000D02*
X149860000Y-81915000D01*
X138430000Y-120650000D02*
X140335000Y-120650000D01*
X149860000Y-77470000D02*
X149860000Y-81915000D01*
X151130000Y-76200000D02*
X149860000Y-77470000D01*
X151130000Y-76200000D02*
X153035000Y-76200000D01*
X142240000Y-83820000D02*
X147955000Y-83820000D01*
X140335000Y-120650000D02*
X140970000Y-120015000D01*
X153035000Y-76200000D02*
X153670000Y-75565000D01*
X140970000Y-120015000D02*
X140970000Y-85090000D01*
X140970000Y-85090000D02*
X142240000Y-83820000D01*
X153670000Y-75565000D02*
X153670000Y-72390000D01*
X144780000Y-82550000D02*
X144780000Y-76200000D01*
X137465000Y-83185000D02*
X144145000Y-83185000D01*
X144145000Y-83185000D02*
X144780000Y-82550000D01*
X144780000Y-76200000D02*
X145415000Y-75565000D01*
X132232500Y-77952500D02*
X137465000Y-83185000D01*
X123190000Y-68910000D02*
X126200000Y-71920000D01*
X149860000Y-75565000D02*
X151130000Y-74295000D01*
X123190000Y-67310000D02*
X123190000Y-68910000D01*
X147955000Y-75565000D02*
X149860000Y-75565000D01*
X151130000Y-74295000D02*
X151130000Y-72390000D01*
X130975000Y-71920000D02*
X132232500Y-73177500D01*
X145415000Y-75565000D02*
X147955000Y-75565000D01*
X132232500Y-73177500D02*
X132232500Y-77952500D01*
X126200000Y-71920000D02*
X130975000Y-71920000D01*
X217170000Y-73025000D02*
X219710000Y-73025000D01*
X229870000Y-74930000D02*
X227965000Y-74930000D01*
X210818590Y-54610000D02*
X210185000Y-54610000D01*
X219710000Y-73025000D02*
X220345000Y-73660000D01*
X201930000Y-56515000D02*
X200025000Y-58420000D01*
X220345000Y-73660000D02*
X227330000Y-73660000D01*
X227965000Y-74930000D02*
X227330000Y-74295000D01*
X227330000Y-74295000D02*
X227330000Y-73660000D01*
X215265000Y-74930000D02*
X217170000Y-73025000D01*
X200025000Y-58420000D02*
X191770000Y-58420000D01*
X227330000Y-56513590D02*
X227330000Y-55880000D01*
X227330000Y-73660000D02*
X227330000Y-68580000D01*
X214630000Y-74930000D02*
X215265000Y-74930000D01*
X208280000Y-56515000D02*
X201930000Y-56515000D01*
X210185000Y-54610000D02*
X208280000Y-56515000D01*
X227330000Y-55880000D02*
X226060000Y-54610000D01*
X227330000Y-68580000D02*
X227330000Y-56513590D01*
X161290000Y-80010000D02*
X161290000Y-75565000D01*
X226060000Y-54610000D02*
X210818590Y-54610000D01*
X208280000Y-57785000D02*
X203200000Y-57785000D01*
X224155000Y-72390000D02*
X226695000Y-69850000D01*
X210820000Y-55245000D02*
X208280000Y-57785000D01*
X203200000Y-57785000D02*
X201295000Y-59690000D01*
X195580000Y-59690000D02*
X191770000Y-63500000D01*
X226695000Y-69850000D02*
X226695000Y-56515000D01*
X226695000Y-56515000D02*
X225425000Y-55245000D01*
X158750000Y-80010000D02*
X158750000Y-75565000D01*
X201295000Y-59690000D02*
X195580000Y-59690000D01*
X222250000Y-72390000D02*
X224155000Y-72390000D01*
X225425000Y-55245000D02*
X210820000Y-55245000D01*
X135890000Y-40640000D02*
X135890000Y-41910000D01*
X135890000Y-41910000D02*
X143510000Y-49530000D01*
X143510000Y-49530000D02*
X143510000Y-52070000D01*
X118110000Y-40640000D02*
X118110000Y-41910000D01*
X118110000Y-41910000D02*
X125730000Y-49530000D01*
X125730000Y-49530000D02*
X125730000Y-52070000D01*
X115570000Y-40640000D02*
X115570000Y-41910000D01*
X115570000Y-41910000D02*
X123190000Y-49530000D01*
X123190000Y-49530000D02*
X123190000Y-52070000D01*
X140970000Y-49530000D02*
X140970000Y-52070000D01*
X133350000Y-41910000D02*
X140970000Y-49530000D01*
X133350000Y-40640000D02*
X133350000Y-41910000D01*
D34*
X104140000Y-72390000D02*
X109220000Y-67310000D01*
X92710000Y-138430000D02*
X97790000Y-133350000D01*
X77470000Y-146050000D02*
X85090000Y-138430000D01*
X68580000Y-146050000D02*
X77470000Y-146050000D01*
X97790000Y-133350000D02*
X97790000Y-104140000D01*
X85090000Y-138430000D02*
X92710000Y-138430000D01*
X104140000Y-97790000D02*
X104140000Y-78740000D01*
X97790000Y-104140000D02*
X104140000Y-97790000D01*
X109220000Y-67310000D02*
X109220000Y-62230000D01*
X66040000Y-143510000D02*
X68580000Y-146050000D01*
X100330000Y-72390000D02*
X104140000Y-72390000D01*
X66040000Y-135890000D02*
X62230000Y-135890000D01*
X104140000Y-78740000D02*
X102870000Y-77470000D01*
X102870000Y-77470000D02*
X100330000Y-77470000D01*
X99060000Y-73660000D02*
X100330000Y-72390000D01*
X99060000Y-76200000D02*
X99060000Y-73660000D01*
X60960000Y-138430000D02*
X60960000Y-140970000D01*
X100330000Y-77470000D02*
X99060000Y-76200000D01*
X62230000Y-135890000D02*
X60960000Y-137160000D01*
D31*
X60960000Y-137160000D02*
X60960000Y-138430000D01*
D34*
X63500000Y-143510000D02*
X66040000Y-143510000D01*
X60960000Y-140970000D02*
X63500000Y-143510000D01*
D32*
X115570000Y-114300000D02*
X116840000Y-114300000D01*
X114300000Y-139700000D02*
X114300000Y-115570000D01*
X116840000Y-140970000D02*
X115570000Y-140970000D01*
X115570000Y-140970000D02*
X114300000Y-139700000D01*
X114300000Y-115570000D02*
X115570000Y-114300000D01*
X88900000Y-110490000D02*
X88900000Y-115570000D01*
X85090000Y-93980000D02*
X90170000Y-93980000D01*
X96520000Y-72390000D02*
X99060000Y-69850000D01*
X99060000Y-69850000D02*
X101600000Y-69850000D01*
X96520000Y-82550000D02*
X96520000Y-72390000D01*
X101600000Y-90170000D02*
X101600000Y-85090000D01*
X101600000Y-85090000D02*
X99060000Y-85090000D01*
X93980000Y-90170000D02*
X101600000Y-90170000D01*
X99060000Y-85090000D02*
X96520000Y-82550000D01*
X90170000Y-93980000D02*
X93980000Y-90170000D01*
D10*
X51871000Y-118110000D02*
X51816000Y-118165000D01*
D32*
X53340000Y-135890000D02*
X52070000Y-134620000D01*
X58420000Y-43815000D02*
X58420000Y-40640000D01*
X56515000Y-142240000D02*
X53340000Y-139065000D01*
X60325000Y-142240000D02*
X56515000Y-142240000D01*
X94615000Y-147955000D02*
X66040000Y-147955000D01*
X40005000Y-50165000D02*
X43180000Y-46990000D01*
X53340000Y-139065000D02*
X53340000Y-135890000D01*
X59690000Y-39370000D02*
X63500000Y-39370000D01*
X55245000Y-46990000D02*
X58420000Y-43815000D01*
X41275000Y-134620000D02*
X40005000Y-133350000D01*
X43180000Y-46990000D02*
X55245000Y-46990000D01*
X101600000Y-140970000D02*
X94615000Y-147955000D01*
X66040000Y-147955000D02*
X60325000Y-142240000D01*
X40005000Y-133350000D02*
X40005000Y-50165000D01*
X58420000Y-40640000D02*
X59690000Y-39370000D01*
X52070000Y-134620000D02*
X41275000Y-134620000D01*
X63500000Y-39370000D02*
X66040000Y-41910000D01*
D31*
X128905000Y-74295000D02*
X125730000Y-74295000D01*
X139065000Y-106045000D02*
X139065000Y-87630000D01*
X138430000Y-115570000D02*
X135890000Y-115570000D01*
X134620000Y-114300000D02*
X134620000Y-110490000D01*
X106680000Y-45085000D02*
X103505000Y-41910000D01*
X139065000Y-87630000D02*
X130175000Y-78740000D01*
X113665000Y-69850000D02*
X113665000Y-58420000D01*
X125730000Y-74295000D02*
X122299990Y-70864990D01*
X106680000Y-51435000D02*
X106680000Y-45085000D01*
X103505000Y-41910000D02*
X96520000Y-41910000D01*
X134620000Y-110490000D02*
X139065000Y-106045000D01*
X135890000Y-115570000D02*
X134620000Y-114300000D01*
X122299990Y-70864990D02*
X114679990Y-70864990D01*
X130175000Y-75565000D02*
X128905000Y-74295000D01*
X130175000Y-78740000D02*
X130175000Y-75565000D01*
X114679990Y-70864990D02*
X113665000Y-69850000D01*
X113665000Y-58420000D02*
X106680000Y-51435000D01*
X103505000Y-43815000D02*
X91440000Y-43815000D01*
X113030000Y-59690000D02*
X105410000Y-52070000D01*
X114300000Y-78740000D02*
X113030000Y-77470000D01*
X113030000Y-140970000D02*
X113030000Y-109220000D01*
D32*
X91440000Y-41910000D02*
X91440000Y-43815000D01*
D31*
X105410000Y-52070000D02*
X105410000Y-45720000D01*
X116840000Y-143510000D02*
X115570000Y-143510000D01*
X113030000Y-109220000D02*
X114300000Y-107950000D01*
D32*
X91440000Y-44450000D02*
X88900000Y-46990000D01*
D31*
X105410000Y-45720000D02*
X103505000Y-43815000D01*
X113030000Y-77470000D02*
X113030000Y-59690000D01*
X115570000Y-143510000D02*
X113030000Y-140970000D01*
X114300000Y-107950000D02*
X114300000Y-78740000D01*
D32*
X91440000Y-43815000D02*
X91440000Y-44450000D01*
X73660000Y-115570000D02*
X72390000Y-115570000D01*
X76200000Y-41910000D02*
X81280000Y-41910000D01*
X72390000Y-115570000D02*
X67310000Y-110490000D01*
X59055000Y-93980000D02*
X59055000Y-45085000D01*
X67310000Y-102235000D02*
X59055000Y-93980000D01*
X73660000Y-44450000D02*
X76200000Y-41910000D01*
X59690000Y-44450000D02*
X73660000Y-44450000D01*
X67310000Y-110490000D02*
X67310000Y-102235000D01*
X76200000Y-115570000D02*
X81280000Y-110490000D01*
X73660000Y-115570000D02*
X76200000Y-115570000D01*
X59055000Y-45085000D02*
X59690000Y-44450000D01*
X86360000Y-41910000D02*
X83820000Y-44450000D01*
X83820000Y-49530000D02*
X86360000Y-52070000D01*
X86360000Y-52070000D02*
X88900000Y-52070000D01*
X83820000Y-44450000D02*
X83820000Y-49530000D01*
X100330000Y-46990000D02*
X101600000Y-46990000D01*
X91440000Y-57150000D02*
X91440000Y-55880000D01*
X91440000Y-55880000D02*
X100330000Y-46990000D01*
G04 #@! TA.AperFunction,Conductor*
G36*
X245315203Y-57355649D02*
G01*
X245321681Y-57361681D01*
X249978319Y-62018319D01*
X250011804Y-62079642D01*
X250006820Y-62149334D01*
X249964948Y-62205267D01*
X249899484Y-62229684D01*
X249890638Y-62230000D01*
X245234000Y-62230000D01*
X245166961Y-62210315D01*
X245121206Y-62157511D01*
X245110000Y-62106000D01*
X245110000Y-57449362D01*
X245129685Y-57382323D01*
X245182489Y-57336568D01*
X245251647Y-57326624D01*
X245315203Y-57355649D01*
G37*
G04 #@! TD.AperFunction*
G04 #@! TA.AperFunction,Conductor*
G36*
X239949334Y-52253180D02*
G01*
X240005267Y-52295052D01*
X240029684Y-52360516D01*
X240030000Y-52369362D01*
X240030000Y-66375638D01*
X240010315Y-66442677D01*
X239957511Y-66488432D01*
X239888353Y-66498376D01*
X239824797Y-66469351D01*
X239818319Y-66463319D01*
X233081319Y-59726319D01*
X233047834Y-59664996D01*
X233045000Y-59638638D01*
X233045000Y-59106362D01*
X233064685Y-59039323D01*
X233081319Y-59018681D01*
X239818319Y-52281681D01*
X239879642Y-52248196D01*
X239949334Y-52253180D01*
G37*
G04 #@! TD.AperFunction*
G04 #@! TA.AperFunction,Conductor*
G36*
X82493039Y-85109685D02*
G01*
X82538794Y-85162489D01*
X82550000Y-85214000D01*
X82550000Y-88776000D01*
X82530315Y-88843039D01*
X82477511Y-88888794D01*
X82426000Y-88900000D01*
X76499362Y-88900000D01*
X76432323Y-88880315D01*
X76386568Y-88827511D01*
X76376624Y-88758353D01*
X76405649Y-88694797D01*
X76411681Y-88688319D01*
X78709574Y-86390425D01*
X78770895Y-86356942D01*
X78840587Y-86361926D01*
X78884934Y-86390427D01*
X79147250Y-86652743D01*
X79232649Y-86721561D01*
X79232654Y-86721564D01*
X79365467Y-86782219D01*
X79365471Y-86782220D01*
X79510001Y-86802999D01*
X79510003Y-86803000D01*
X80509990Y-86803000D01*
X80509991Y-86802999D01*
X80619049Y-86791274D01*
X80755854Y-86740249D01*
X80755855Y-86740248D01*
X80872738Y-86652752D01*
X80872756Y-86652736D01*
X81572743Y-85952749D01*
X81641561Y-85867350D01*
X81641564Y-85867345D01*
X81702219Y-85734532D01*
X81702220Y-85734528D01*
X81722999Y-85589998D01*
X81723000Y-85589997D01*
X81723000Y-85214000D01*
X81742685Y-85146961D01*
X81795489Y-85101206D01*
X81847000Y-85090000D01*
X82426000Y-85090000D01*
X82493039Y-85109685D01*
G37*
G04 #@! TD.AperFunction*
G04 #@! TA.AperFunction,Conductor*
G36*
X250133039Y-140989685D02*
G01*
X250178794Y-141042489D01*
X250190000Y-141094000D01*
X250190000Y-142188638D01*
X250170315Y-142255677D01*
X250153681Y-142276319D01*
X242606319Y-149823681D01*
X242544996Y-149857166D01*
X242518638Y-149860000D01*
X234439000Y-149860000D01*
X234371961Y-149840315D01*
X234326206Y-149787511D01*
X234315000Y-149736000D01*
X234315000Y-149276362D01*
X234334685Y-149209323D01*
X234351319Y-149188681D01*
X236345962Y-147194038D01*
X238429500Y-147194038D01*
X238429500Y-147445961D01*
X238468910Y-147694785D01*
X238546760Y-147934383D01*
X238589057Y-148017394D01*
X238651418Y-148139785D01*
X238661132Y-148158848D01*
X238809201Y-148362649D01*
X238809205Y-148362654D01*
X238987345Y-148540794D01*
X238987350Y-148540798D01*
X239053007Y-148588500D01*
X239191155Y-148688870D01*
X239334184Y-148761747D01*
X239415616Y-148803239D01*
X239415618Y-148803239D01*
X239415621Y-148803241D01*
X239655215Y-148881090D01*
X239904038Y-148920500D01*
X239904039Y-148920500D01*
X240155961Y-148920500D01*
X240155962Y-148920500D01*
X240404785Y-148881090D01*
X240644379Y-148803241D01*
X240868845Y-148688870D01*
X241072656Y-148540793D01*
X241250793Y-148362656D01*
X241398870Y-148158845D01*
X241513241Y-147934379D01*
X241591090Y-147694785D01*
X241630500Y-147445962D01*
X241630500Y-147194038D01*
X241591090Y-146945215D01*
X241513241Y-146705621D01*
X241513239Y-146705618D01*
X241513239Y-146705616D01*
X241429908Y-146542071D01*
X241398870Y-146481155D01*
X241303635Y-146350075D01*
X241250798Y-146277350D01*
X241250794Y-146277345D01*
X241072654Y-146099205D01*
X241072649Y-146099201D01*
X240868848Y-145951132D01*
X240868847Y-145951131D01*
X240868845Y-145951130D01*
X240798747Y-145915413D01*
X240644383Y-145836760D01*
X240404785Y-145758910D01*
X240348056Y-145749925D01*
X240155962Y-145719500D01*
X239904038Y-145719500D01*
X239779626Y-145739205D01*
X239655214Y-145758910D01*
X239415616Y-145836760D01*
X239191151Y-145951132D01*
X238987350Y-146099201D01*
X238987345Y-146099205D01*
X238809205Y-146277345D01*
X238809201Y-146277350D01*
X238661132Y-146481151D01*
X238546760Y-146705616D01*
X238468910Y-146945214D01*
X238429500Y-147194038D01*
X236345962Y-147194038D01*
X242533681Y-141006319D01*
X242595004Y-140972834D01*
X242621362Y-140970000D01*
X250066000Y-140970000D01*
X250133039Y-140989685D01*
G37*
G04 #@! TD.AperFunction*
M02*
