M48
; DRILL file {KiCad 8.0.2} date 2024-11-11T11:32:32+0100
; FORMAT={-:-/ absolute / inch / decimal}
; #@! TF.CreationDate,2024-11-11T11:32:32+01:00
; #@! TF.GenerationSoftware,Kicad,Pcbnew,8.0.2
; #@! TF.FileFunction,Plated,1,2,PTH
FMAT,2
INCH
; #@! TA.AperFunction,Plated,PTH,ViaDrill
T1C0.0157
; #@! TA.AperFunction,Plated,PTH,ViaDrill
T2C0.0236
; #@! TA.AperFunction,Plated,PTH,ComponentDrill
T3C0.0315
; #@! TA.AperFunction,Plated,PTH,ComponentDrill
T4C0.0319
; #@! TA.AperFunction,Plated,PTH,ComponentDrill
T5C0.0394
; #@! TA.AperFunction,Plated,PTH,ComponentDrill
T6C0.0472
%
G90
G05
T1
X6.6Y-3.075
X6.6Y-3.125
X6.6Y-3.175
X7.0Y-5.65
T2
X4.3Y-2.45
X5.525Y-5.05
X5.675Y-2.5
X5.75Y-4.525
X5.75Y-4.625
X5.75Y-4.725
X5.875Y-4.725
X6.0Y-2.3
X6.0Y-4.725
X6.15Y-2.25
X6.25Y-3.0
X6.35Y-3.0
X6.55Y-4.275
X6.725Y-4.125
X6.775Y-4.2
X6.925Y-4.05
X6.925Y-4.125
X6.925Y-4.2
X6.925Y-4.275
X6.95Y-5.725
X7.425Y-1.9
X7.5Y-2.9
X7.6Y-2.9
X7.7Y-2.9
X7.8Y-2.9
X7.9Y-2.9
X8.0Y-3.75
X8.05Y-1.9
X8.1Y-3.75
X8.1Y-4.0
X8.25Y-3.4
X8.55Y-3.55
X8.55Y-3.8
X8.55Y-5.65
T3
X2.2Y-5.45
X2.2Y-5.75
X2.25Y-4.15
X2.25Y-4.65
X2.4Y-1.85
X2.4Y-2.15
X2.4Y-2.35
X2.4Y-2.65
X2.4Y-2.85
X2.4Y-3.15
X2.4Y-3.35
X2.4Y-3.5
X2.4Y-3.65
X2.4Y-4.35
X2.4Y-4.55
X2.4Y-4.75
X2.4Y-4.95
X2.4Y-5.15
X2.4Y-5.45
X2.4Y-5.75
X2.45Y-3.95
X2.5Y-1.85
X2.5Y-2.15
X2.5Y-2.35
X2.5Y-2.65
X2.5Y-2.85
X2.5Y-3.15
X2.5Y-4.15
X2.6Y-1.85
X2.6Y-2.15
X2.6Y-2.35
X2.6Y-2.65
X2.6Y-2.85
X2.6Y-3.15
X2.6Y-5.35
X2.6Y-5.45
X2.6Y-5.55
X2.6Y-5.65
X2.65Y-3.85
X2.7Y-1.85
X2.7Y-2.15
X2.7Y-2.35
X2.7Y-2.65
X2.7Y-2.85
X2.7Y-3.15
X2.7Y-3.35
X2.7Y-3.65
X2.8Y-1.85
X2.8Y-2.15
X2.8Y-2.35
X2.8Y-2.65
X2.8Y-2.85
X2.8Y-3.15
X2.85Y-3.35
X2.85Y-3.65
X2.9Y-1.85
X2.9Y-2.15
X2.9Y-2.35
X2.9Y-2.65
X2.9Y-2.85
X2.9Y-3.15
X2.9Y-3.5
X2.9Y-4.15
X2.9Y-4.35
X2.9Y-4.55
X2.9Y-4.75
X2.9Y-4.95
X2.9Y-5.15
X2.9Y-5.35
X2.9Y-5.45
X2.9Y-5.55
X2.9Y-5.65
X2.95Y-3.95
X3.0Y-1.85
X3.0Y-2.15
X3.0Y-2.35
X3.0Y-2.65
X3.0Y-2.85
X3.0Y-3.15
X3.1Y-4.25
X3.15Y-3.35
X3.15Y-3.65
X3.2Y-4.15
X3.2Y-4.35
X3.2Y-4.65
X3.2Y-4.95
X3.2Y-5.45
X3.2Y-5.75
X3.35Y-3.7
X3.35Y-4.0
X3.5Y-1.85
X3.5Y-2.05
X3.5Y-2.35
X3.5Y-2.55
X3.5Y-2.75
X3.5Y-2.95
X3.5Y-3.15
X3.5Y-3.35
X3.5Y-3.55
X3.5Y-4.15
X3.5Y-4.35
X3.5Y-4.55
X3.5Y-4.95
X3.5Y-5.15
X3.5Y-5.35
X3.5Y-5.55
X3.5Y-5.75
X3.6Y-2.25
X3.7Y-2.35
X3.7Y-4.75
X3.9Y-2.35
X4.0Y-1.85
X4.0Y-2.05
X4.0Y-2.25
X4.0Y-2.55
X4.0Y-2.75
X4.0Y-2.95
X4.0Y-3.15
X4.0Y-3.35
X4.0Y-3.55
X4.0Y-4.15
X4.0Y-4.35
X4.0Y-4.55
X4.0Y-4.75
X4.0Y-4.95
X4.0Y-5.15
X4.0Y-5.35
X4.0Y-5.55
X4.0Y-5.75
X4.1Y-2.35
X4.15Y-1.6
X4.25Y-1.6
X4.3Y-2.85
X4.3Y-3.35
X4.3Y-3.5
X4.3Y-4.0
X4.3Y-4.2
X4.3Y-4.4
X4.3Y-4.5
X4.3Y-4.6
X4.3Y-4.7
X4.3Y-4.9
X4.3Y-5.05
X4.3Y-5.15
X4.3Y-5.25
X4.3Y-5.35
X4.3Y-5.45
X4.3Y-5.55
X4.3Y-5.65
X4.35Y-1.6
X4.35Y-1.85
X4.35Y-2.05
X4.45Y-1.6
X4.55Y-1.6
X4.55Y-2.05
X4.55Y-2.65
X4.6Y-2.85
X4.6Y-3.35
X4.6Y-3.5
X4.6Y-4.0
X4.6Y-4.2
X4.6Y-4.4
X4.6Y-4.5
X4.6Y-4.6
X4.6Y-4.7
X4.6Y-4.9
X4.6Y-5.05
X4.6Y-5.15
X4.6Y-5.25
X4.6Y-5.35
X4.6Y-5.45
X4.6Y-5.55
X4.6Y-5.65
X4.65Y-1.6
X4.65Y-2.05
X4.65Y-2.65
X4.75Y-1.6
X4.75Y-2.05
X4.75Y-2.65
X4.775Y-5.35
X4.775Y-5.65
X4.8Y-2.95
X4.8Y-3.35
X4.8Y-3.5
X4.8Y-3.9
X4.85Y-1.6
X4.85Y-2.05
X4.85Y-2.65
X4.95Y-1.6
X4.95Y-2.05
X4.95Y-2.65
X4.95Y-4.15
X4.95Y-4.35
X4.95Y-4.55
X4.95Y-4.75
X4.95Y-4.95
X4.95Y-5.15
X4.95Y-5.35
X4.95Y-5.55
X4.95Y-5.75
X5.0Y-3.05
X5.0Y-3.35
X5.05Y-1.6
X5.05Y-2.05
X5.05Y-2.65
X5.15Y-1.6
X5.15Y-2.05
X5.15Y-2.65
X5.25Y-1.6
X5.25Y-2.05
X5.25Y-2.65
X5.25Y-4.15
X5.35Y-1.6
X5.35Y-2.05
X5.35Y-2.65
X5.45Y-1.6
X5.45Y-2.05
X5.45Y-2.65
X5.45Y-4.35
X5.45Y-4.55
X5.45Y-4.75
X5.45Y-4.95
X5.45Y-5.15
X5.45Y-5.35
X5.45Y-5.55
X5.45Y-5.75
X5.55Y-1.6
X5.55Y-2.05
X5.55Y-2.65
X5.55Y-2.85
X5.55Y-3.15
X5.65Y-1.6
X5.65Y-2.05
X5.65Y-2.65
X5.65Y-2.85
X5.65Y-3.15
X5.65Y-3.4
X5.65Y-3.7
X5.65Y-3.9
X5.65Y-4.2
X5.7Y-5.05
X5.7Y-5.15
X5.7Y-5.25
X5.7Y-5.35
X5.7Y-5.45
X5.7Y-5.55
X5.7Y-5.65
X5.75Y-1.6
X5.75Y-2.05
X5.75Y-2.65
X5.75Y-2.85
X5.75Y-3.15
X5.75Y-3.4
X5.75Y-3.7
X5.75Y-3.9
X5.75Y-4.2
X5.85Y-1.6
X5.85Y-2.05
X5.85Y-2.65
X5.85Y-2.85
X5.85Y-3.15
X5.85Y-3.4
X5.85Y-3.7
X5.85Y-3.9
X5.85Y-4.2
X5.95Y-1.6
X5.95Y-2.05
X5.95Y-2.65
X5.95Y-2.85
X5.95Y-3.15
X5.95Y-3.4
X5.95Y-3.7
X5.95Y-3.9
X5.95Y-4.2
X6.0Y-5.05
X6.0Y-5.15
X6.0Y-5.25
X6.0Y-5.35
X6.0Y-5.45
X6.0Y-5.55
X6.0Y-5.65
X6.05Y-1.6
X6.05Y-2.05
X6.05Y-2.65
X6.05Y-2.85
X6.05Y-3.15
X6.05Y-3.4
X6.05Y-3.7
X6.05Y-3.9
X6.05Y-4.2
X6.15Y-2.05
X6.15Y-2.65
X6.15Y-2.85
X6.15Y-3.15
X6.15Y-3.4
X6.15Y-3.7
X6.15Y-3.9
X6.15Y-4.2
X6.25Y-2.05
X6.25Y-2.65
X6.25Y-2.85
X6.25Y-3.15
X6.25Y-3.4
X6.25Y-3.7
X6.25Y-3.9
X6.25Y-4.2
X6.3Y-5.5
X6.3Y-5.7
X6.35Y-2.05
X6.35Y-2.65
X6.35Y-2.85
X6.35Y-3.15
X6.35Y-3.4
X6.35Y-3.7
X6.35Y-3.9
X6.35Y-4.2
X6.45Y-1.7
X6.45Y-1.8
X6.45Y-2.05
X6.45Y-2.65
X6.45Y-2.85
X6.45Y-3.15
X6.45Y-3.4
X6.45Y-3.7
X6.45Y-3.9
X6.45Y-4.2
X6.55Y-1.7
X6.55Y-1.8
X6.6Y-4.55
X6.6Y-4.65
X6.6Y-4.75
X6.6Y-4.85
X6.6Y-4.95
X6.6Y-5.05
X6.6Y-5.15
X6.6Y-5.25
X6.6Y-5.35
X6.6Y-5.45
X6.6Y-5.55
X6.6Y-5.65
X6.65Y-1.7
X6.65Y-1.8
X6.75Y-1.7
X6.75Y-1.8
X6.8Y-3.4
X6.8Y-3.7
X6.85Y-1.7
X6.85Y-1.8
X6.95Y-1.7
X6.95Y-1.8
X7.05Y-1.7
X7.05Y-1.8
X7.05Y-2.3
X7.05Y-2.5
X7.05Y-2.9
X7.05Y-3.2
X7.15Y-1.7
X7.15Y-1.8
X7.15Y-3.4
X7.15Y-3.7
X7.15Y-3.9
X7.15Y-4.2
X7.2Y-4.55
X7.2Y-4.65
X7.2Y-4.75
X7.2Y-4.85
X7.2Y-4.95
X7.2Y-5.05
X7.2Y-5.15
X7.2Y-5.25
X7.2Y-5.35
X7.2Y-5.45
X7.2Y-5.55
X7.2Y-5.65
X7.25Y-1.7
X7.25Y-1.8
X7.25Y-3.4
X7.25Y-3.7
X7.25Y-3.9
X7.25Y-4.2
X7.35Y-1.7
X7.35Y-1.8
X7.35Y-3.4
X7.35Y-3.7
X7.35Y-3.9
X7.35Y-4.2
X7.4Y-4.55
X7.4Y-4.65
X7.4Y-4.75
X7.4Y-4.85
X7.4Y-4.95
X7.4Y-5.05
X7.4Y-5.15
X7.4Y-5.25
X7.4Y-5.35
X7.4Y-5.45
X7.4Y-5.55
X7.4Y-5.65
X7.45Y-1.7
X7.45Y-1.8
X7.45Y-3.4
X7.45Y-3.7
X7.45Y-3.9
X7.45Y-4.2
X7.55Y-1.7
X7.55Y-1.8
X7.55Y-2.3
X7.55Y-2.5
X7.55Y-3.4
X7.55Y-3.7
X7.55Y-3.9
X7.55Y-4.2
X7.65Y-1.7
X7.65Y-1.8
X7.65Y-3.4
X7.65Y-3.7
X7.65Y-3.9
X7.65Y-4.2
X7.75Y-1.7
X7.75Y-1.8
X7.75Y-3.4
X7.75Y-3.7
X7.75Y-3.9
X7.75Y-4.2
X7.8Y-2.225
X7.8Y-2.475
X7.85Y-1.7
X7.85Y-1.8
X7.95Y-1.7
X7.95Y-1.8
X8.0Y-4.55
X8.0Y-4.65
X8.0Y-4.75
X8.0Y-4.85
X8.0Y-4.95
X8.0Y-5.05
X8.0Y-5.15
X8.0Y-5.25
X8.0Y-5.35
X8.0Y-5.45
X8.0Y-5.55
X8.0Y-5.65
X8.05Y-1.7
X8.05Y-1.8
X8.15Y-1.7
X8.15Y-1.8
X8.15Y-2.35
X8.15Y-2.45
X8.15Y-2.55
X8.15Y-2.65
X8.15Y-2.75
X8.15Y-2.85
X8.15Y-2.95
X8.25Y-1.7
X8.25Y-1.8
X8.35Y-1.7
X8.35Y-1.8
X8.45Y-1.7
X8.45Y-1.8
X8.45Y-2.35
X8.45Y-2.45
X8.45Y-2.55
X8.45Y-2.65
X8.45Y-2.75
X8.45Y-2.85
X8.45Y-2.95
X8.55Y-1.7
X8.55Y-1.8
X8.6Y-2.65
X8.6Y-2.95
X8.65Y-1.7
X8.65Y-1.8
X8.75Y-1.7
X8.75Y-1.8
X8.75Y-2.35
X8.75Y-2.45
X8.75Y-2.55
X8.75Y-2.65
X8.75Y-2.75
X8.75Y-2.85
X8.75Y-2.95
X8.75Y-3.4
X8.75Y-3.5
X8.75Y-3.6
X8.75Y-3.7
X8.75Y-3.8
X8.75Y-3.9
X8.75Y-4.0
X8.75Y-4.1
X8.75Y-4.2
X8.75Y-4.3
X8.75Y-4.55
X8.75Y-4.75
X8.75Y-4.85
X8.75Y-4.95
X8.75Y-5.05
X8.75Y-5.15
X8.75Y-5.25
X8.75Y-5.35
X8.75Y-5.45
X8.75Y-5.55
X8.75Y-5.65
X8.85Y-1.7
X8.85Y-1.8
X8.95Y-1.7
X8.95Y-1.8
X9.05Y-1.7
X9.05Y-1.8
X9.05Y-2.35
X9.05Y-2.45
X9.05Y-2.55
X9.05Y-2.65
X9.05Y-2.75
X9.05Y-2.85
X9.05Y-2.95
X9.05Y-3.4
X9.05Y-3.5
X9.05Y-3.6
X9.05Y-3.7
X9.05Y-3.8
X9.05Y-3.9
X9.05Y-4.0
X9.05Y-4.1
X9.05Y-4.2
X9.05Y-4.3
X9.05Y-4.55
X9.05Y-4.75
X9.05Y-4.85
X9.05Y-4.95
X9.05Y-5.05
X9.05Y-5.15
X9.05Y-5.25
X9.05Y-5.35
X9.05Y-5.45
X9.05Y-5.55
X9.05Y-5.65
X9.15Y-1.7
X9.15Y-1.8
X9.25Y-1.7
X9.25Y-1.8
X9.35Y-1.7
X9.35Y-1.8
X9.45Y-1.7
X9.45Y-1.8
X9.55Y-1.7
X9.55Y-1.8
X9.65Y-2.45
X9.65Y-2.55
X9.65Y-2.65
X9.65Y-2.75
X9.65Y-2.85
X9.65Y-2.95
X9.65Y-3.05
X9.65Y-3.15
X9.65Y-3.25
X9.65Y-3.35
X9.65Y-3.45
X9.65Y-3.55
X9.65Y-3.65
X9.65Y-3.75
X9.65Y-3.85
X9.65Y-3.95
X9.65Y-4.05
X9.65Y-4.15
X9.65Y-4.25
X9.65Y-4.35
X9.65Y-4.45
X9.65Y-4.55
X9.65Y-4.65
X9.65Y-4.75
X9.65Y-4.85
X9.65Y-4.95
X9.65Y-5.05
X9.65Y-5.15
X9.65Y-5.25
X9.65Y-5.35
X9.65Y-5.45
X9.65Y-5.55
X9.85Y-2.45
X9.85Y-2.55
X9.85Y-2.65
X9.85Y-2.75
X9.85Y-2.85
X9.85Y-2.95
X9.85Y-3.05
X9.85Y-3.15
X9.85Y-3.25
X9.85Y-3.35
X9.85Y-3.45
X9.85Y-3.55
X9.85Y-3.65
X9.85Y-3.75
X9.85Y-3.85
X9.85Y-3.95
X9.85Y-4.05
X9.85Y-4.15
X9.85Y-4.25
X9.85Y-4.35
X9.85Y-4.45
X9.85Y-4.55
X9.85Y-4.65
X9.85Y-4.75
X9.85Y-4.85
X9.85Y-4.95
X9.85Y-5.05
X9.85Y-5.15
X9.85Y-5.25
X9.85Y-5.35
X9.85Y-5.45
X9.85Y-5.55
T4
X1.79Y-4.1002
X1.79Y-4.2002
X1.79Y-4.3002
X1.79Y-4.4002
X1.79Y-4.5002
X1.79Y-4.6002
T5
X1.9282Y-3.9276
X1.9282Y-4.0366
X1.9282Y-4.1457
X1.9282Y-4.2547
X1.9282Y-4.3638
X1.9282Y-4.4728
X1.9282Y-4.5819
X1.9282Y-4.6909
X1.9282Y-4.8
X1.9282Y-4.9091
X1.9282Y-5.0181
X1.9282Y-5.1272
X2.04Y-3.873
X2.04Y-3.9821
X2.04Y-4.0911
X2.04Y-4.2002
X2.04Y-4.3093
X2.04Y-4.4183
X2.04Y-4.5274
X2.04Y-4.6364
X2.04Y-4.7455
X2.04Y-4.8545
X2.04Y-4.9636
X2.04Y-5.0726
X2.04Y-5.1817
X5.1Y-3.95
X5.2Y-3.55
X5.2Y-3.75
X5.3Y-3.95
X5.35Y-2.85
X5.35Y-2.95
X5.35Y-3.05
X6.6Y-1.95
X6.975Y-3.7
X6.975Y-3.8
X6.975Y-3.9
X7.6Y-1.95
X7.7Y-1.95
X9.6Y-1.95
T6
X2.0Y-1.65
X2.2Y-1.65
X2.4Y-1.65
X2.6Y-1.65
X2.8Y-1.65
X3.0Y-1.65
X3.2Y-1.65
X3.4Y-1.65
X3.6Y-1.65
X3.8Y-1.65
X6.35Y-1.9
X7.65Y-2.1
X7.8Y-2.1
X7.95Y-2.1
X8.1Y-2.1
T5
G00X1.7Y-2.0705
M15
G01X1.7Y-2.1295
M16
G05
G00X1.7Y-2.4705
M15
G01X1.7Y-2.5295
M16
G05
G00X1.7Y-2.8705
M15
G01X1.7Y-2.9295
M16
G05
G00X1.7Y-3.2705
M15
G01X1.7Y-3.3295
M16
G05
G00X1.9165Y-2.0705
M15
G01X1.9165Y-2.1295
M16
G05
G00X1.9165Y-2.4705
M15
G01X1.9165Y-2.5295
M16
G05
G00X1.9165Y-2.8705
M15
G01X1.9165Y-2.9295
M16
G05
G00X1.9165Y-3.2705
M15
G01X1.9165Y-3.3295
M16
G05
G00X2.0937Y-2.0705
M15
G01X2.0937Y-2.1295
M16
G05
G00X2.0937Y-2.4705
M15
G01X2.0937Y-2.5295
M16
G05
G00X2.0937Y-2.8705
M15
G01X2.0937Y-2.9295
M16
G05
G00X2.0937Y-3.2705
M15
G01X2.0937Y-3.3295
M16
G05
M30
