M48
; DRILL file {KiCad 8.0.2} date 2024-11-11T10:52:25+0100
; FORMAT={-:-/ absolute / inch / decimal}
; #@! TF.CreationDate,2024-11-11T10:52:25+01:00
; #@! TF.GenerationSoftware,Kicad,Pcbnew,8.0.2
; #@! TF.FileFunction,Plated,1,2,PTH
FMAT,2
INCH
; #@! TA.AperFunction,Plated,PTH,ComponentDrill
T1C0.0319
%
G90
G05
T1
X3.6Y-2.5575
X3.6Y-2.7575
X3.6Y-3.7386
X3.6Y-3.9386
X3.7Y-2.5575
X3.7Y-2.7575
X3.7Y-3.7386
X3.7Y-3.9386
X3.8Y-2.5575
X3.8Y-2.7575
X3.8Y-3.7386
X3.8Y-3.9386
X3.9Y-2.5575
X3.9Y-2.7575
X3.9Y-3.7386
X3.9Y-3.9386
X4.0Y-2.5575
X4.0Y-2.7575
X4.0Y-3.7386
X4.0Y-3.9386
X4.1Y-2.5575
X4.1Y-2.7575
X4.1Y-3.7386
X4.1Y-3.9386
X4.2Y-2.5575
X4.2Y-2.7575
X4.2Y-3.7386
X4.2Y-3.9386
X4.3Y-2.5575
X4.3Y-2.7575
X4.3Y-3.7386
X4.3Y-3.9386
X4.4Y-2.5575
X4.4Y-2.7575
X4.4Y-3.7386
X4.4Y-3.9386
X4.5Y-2.5575
X4.5Y-2.7575
X4.5Y-3.7386
X4.5Y-3.9386
X4.6Y-2.5575
X4.6Y-2.7575
X4.6Y-3.7386
X4.6Y-3.9386
X4.7Y-2.5575
X4.7Y-2.7575
X4.7Y-3.7386
X4.7Y-3.9386
X4.8Y-2.5575
X4.8Y-2.7575
X4.8Y-3.7386
X4.8Y-3.9386
X4.9Y-2.5575
X4.9Y-2.7575
X4.9Y-3.7386
X4.9Y-3.9386
X5.0Y-2.5575
X5.0Y-2.7575
X5.0Y-3.7386
X5.0Y-3.9386
X5.1Y-2.5575
X5.1Y-2.7575
X5.1Y-3.7386
X5.1Y-3.9386
X5.2Y-2.5575
X5.2Y-2.7575
X5.2Y-3.7386
X5.2Y-3.9386
X5.3Y-2.5575
X5.3Y-2.7575
X5.3Y-3.7386
X5.3Y-3.9386
X5.4Y-2.5575
X5.4Y-2.7575
X5.4Y-3.7386
X5.4Y-3.9386
X5.5Y-2.5575
X5.5Y-2.7575
X5.5Y-3.7386
X5.5Y-3.9386
X5.6Y-2.5575
X5.6Y-2.7575
X5.6Y-3.7386
X5.6Y-3.9386
X5.7Y-2.5575
X5.7Y-2.7575
X5.7Y-3.7386
X5.7Y-3.9386
X5.8Y-2.5575
X5.8Y-2.7575
X5.8Y-3.7386
X5.8Y-3.9386
X5.9Y-2.5575
X5.9Y-2.7575
X5.9Y-3.7386
X5.9Y-3.9386
X6.0Y-2.5575
X6.0Y-2.7575
X6.0Y-3.7386
X6.0Y-3.9386
X6.1Y-2.5575
X6.1Y-2.7575
X6.1Y-3.7386
X6.1Y-3.9386
X6.2Y-2.5575
X6.2Y-2.7575
X6.2Y-3.7386
X6.2Y-3.9386
X6.3Y-2.5575
X6.3Y-2.7575
X6.3Y-3.7386
X6.3Y-3.9386
X6.4Y-2.5575
X6.4Y-2.7575
X6.4Y-3.7386
X6.4Y-3.9386
X6.5Y-2.5575
X6.5Y-2.7575
X6.5Y-3.7386
X6.5Y-3.9386
X6.6Y-2.5575
X6.6Y-2.7575
X6.6Y-3.7386
X6.6Y-3.9386
X6.7Y-2.5575
X6.7Y-2.7575
X6.7Y-3.7386
X6.7Y-3.9386
M30
