G04 #@! TF.GenerationSoftware,KiCad,Pcbnew,8.0.2*
G04 #@! TF.CreationDate,2024-12-08T11:28:11+01:00*
G04 #@! TF.ProjectId,junior-internal-bus,6a756e69-6f72-42d6-996e-7465726e616c,rev?*
G04 #@! TF.SameCoordinates,Original*
G04 #@! TF.FileFunction,Copper,L2,Bot*
G04 #@! TF.FilePolarity,Positive*
%FSLAX46Y46*%
G04 Gerber Fmt 4.6, Leading zero omitted, Abs format (unit mm)*
G04 Created by KiCad (PCBNEW 8.0.2) date 2024-12-08 11:28:11*
%MOMM*%
%LPD*%
G01*
G04 APERTURE LIST*
G04 Aperture macros list*
%AMRoundRect*
0 Rectangle with rounded corners*
0 $1 Rounding radius*
0 $2 $3 $4 $5 $6 $7 $8 $9 X,Y pos of 4 corners*
0 Add a 4 corners polygon primitive as box body*
4,1,4,$2,$3,$4,$5,$6,$7,$8,$9,$2,$3,0*
0 Add four circle primitives for the rounded corners*
1,1,$1+$1,$2,$3*
1,1,$1+$1,$4,$5*
1,1,$1+$1,$6,$7*
1,1,$1+$1,$8,$9*
0 Add four rect primitives between the rounded corners*
20,1,$1+$1,$2,$3,$4,$5,0*
20,1,$1+$1,$4,$5,$6,$7,0*
20,1,$1+$1,$6,$7,$8,$9,0*
20,1,$1+$1,$8,$9,$2,$3,0*%
G04 Aperture macros list end*
G04 #@! TA.AperFunction,ComponentPad*
%ADD10RoundRect,0.350000X-0.350000X-1.150000X0.350000X-1.150000X0.350000X1.150000X-0.350000X1.150000X0*%
G04 #@! TD*
G04 #@! TA.AperFunction,Conductor*
%ADD11C,0.250000*%
G04 #@! TD*
G04 #@! TA.AperFunction,Conductor*
%ADD12C,0.500000*%
G04 #@! TD*
G04 #@! TA.AperFunction,Conductor*
%ADD13C,0.300000*%
G04 #@! TD*
G04 #@! TA.AperFunction,Conductor*
%ADD14C,1.500000*%
G04 #@! TD*
G04 APERTURE END LIST*
D10*
X91440000Y-70040000D03*
X93980000Y-70040000D03*
X96520000Y-70040000D03*
X99060000Y-70040000D03*
X101600000Y-70040000D03*
X104140000Y-70040000D03*
X106680000Y-70040000D03*
X109220000Y-70040000D03*
X111760000Y-70040000D03*
X114300000Y-70040000D03*
X116840000Y-70040000D03*
X119380000Y-70040000D03*
X121920000Y-70040000D03*
X124460000Y-70040000D03*
X127000000Y-70040000D03*
X129540000Y-70040000D03*
X132080000Y-70040000D03*
X134620000Y-70040000D03*
X137160000Y-70040000D03*
X139700000Y-70040000D03*
X142240000Y-70040000D03*
X144780000Y-70040000D03*
X147320000Y-70040000D03*
X149860000Y-70040000D03*
X152400000Y-70040000D03*
X154940000Y-70040000D03*
X157480000Y-70040000D03*
X160020000Y-70040000D03*
X162560000Y-70040000D03*
X165100000Y-70040000D03*
X167640000Y-70040000D03*
X170180000Y-70040000D03*
X91440000Y-64960000D03*
X93980000Y-64960000D03*
X96520000Y-64960000D03*
X99060000Y-64960000D03*
X101600000Y-64960000D03*
X104140000Y-64960000D03*
X106680000Y-64960000D03*
X109220000Y-64960000D03*
X111760000Y-64960000D03*
X114300000Y-64960000D03*
X116840000Y-64960000D03*
X119380000Y-64960000D03*
X121920000Y-64960000D03*
X124460000Y-64960000D03*
X127000000Y-64960000D03*
X129540000Y-64960000D03*
X132080000Y-64960000D03*
X134620000Y-64960000D03*
X137160000Y-64960000D03*
X139700000Y-64960000D03*
X142240000Y-64960000D03*
X144780000Y-64960000D03*
X147320000Y-64960000D03*
X149860000Y-64960000D03*
X152400000Y-64960000D03*
X154940000Y-64960000D03*
X157480000Y-64960000D03*
X160020000Y-64960000D03*
X162560000Y-64960000D03*
X165100000Y-64960000D03*
X167640000Y-64960000D03*
X170180000Y-64960000D03*
X91440000Y-101640000D03*
X93980000Y-101640000D03*
X96520000Y-101640000D03*
X99060000Y-101640000D03*
X101600000Y-101640000D03*
X104140000Y-101640000D03*
X106680000Y-101640000D03*
X109220000Y-101640000D03*
X111760000Y-101640000D03*
X114300000Y-101640000D03*
X116840000Y-101640000D03*
X119380000Y-101640000D03*
X121920000Y-101640000D03*
X124460000Y-101640000D03*
X127000000Y-101640000D03*
X129540000Y-101640000D03*
X132080000Y-101640000D03*
X134620000Y-101640000D03*
X137160000Y-101640000D03*
X139700000Y-101640000D03*
X142240000Y-101640000D03*
X144780000Y-101640000D03*
X147320000Y-101640000D03*
X149860000Y-101640000D03*
X152400000Y-101640000D03*
X154940000Y-101640000D03*
X157480000Y-101640000D03*
X160020000Y-101640000D03*
X162560000Y-101640000D03*
X165100000Y-101640000D03*
X167640000Y-101640000D03*
X170180000Y-101640000D03*
X91440000Y-96560000D03*
X93980000Y-96560000D03*
X96520000Y-96560000D03*
X99060000Y-96560000D03*
X101600000Y-96560000D03*
X104140000Y-96560000D03*
X106680000Y-96560000D03*
X109220000Y-96560000D03*
X111760000Y-96560000D03*
X114300000Y-96560000D03*
X116840000Y-96560000D03*
X119380000Y-96560000D03*
X121920000Y-96560000D03*
X124460000Y-96560000D03*
X127000000Y-96560000D03*
X129540000Y-96560000D03*
X132080000Y-96560000D03*
X134620000Y-96560000D03*
X137160000Y-96560000D03*
X139700000Y-96560000D03*
X142240000Y-96560000D03*
X144780000Y-96560000D03*
X147320000Y-96560000D03*
X149860000Y-96560000D03*
X152400000Y-96560000D03*
X154940000Y-96560000D03*
X157480000Y-96560000D03*
X160020000Y-96560000D03*
X162560000Y-96560000D03*
X165100000Y-96560000D03*
X167640000Y-96560000D03*
X170180000Y-96560000D03*
D11*
X92710000Y-81470000D02*
X93980000Y-80200000D01*
X93980000Y-80200000D02*
X93980000Y-70040000D01*
X93980000Y-99695000D02*
X93980000Y-101640000D01*
X92710000Y-98425000D02*
X93980000Y-99695000D01*
X92710000Y-97830000D02*
X92710000Y-81470000D01*
X92710000Y-97830000D02*
X92710000Y-98425000D01*
X96520000Y-80200000D02*
X95250000Y-81470000D01*
X95250000Y-81470000D02*
X95250000Y-98425000D01*
X96520000Y-70040000D02*
X96520000Y-80200000D01*
X96520000Y-99695000D02*
X96520000Y-100040000D01*
X95250000Y-98425000D02*
X96520000Y-99695000D01*
X100330000Y-81470000D02*
X100330000Y-98425000D01*
X101600000Y-99695000D02*
X101600000Y-100040000D01*
X101600000Y-80200000D02*
X100330000Y-81470000D01*
X101600000Y-70040000D02*
X101600000Y-80200000D01*
X100330000Y-98425000D02*
X101600000Y-99695000D01*
X104140000Y-80200000D02*
X104140000Y-70040000D01*
X104140000Y-99695000D02*
X104140000Y-101640000D01*
X102870000Y-81470000D02*
X104140000Y-80200000D01*
X102870000Y-97830000D02*
X102870000Y-81470000D01*
X102870000Y-97830000D02*
X102870000Y-98425000D01*
X102870000Y-98425000D02*
X104140000Y-99695000D01*
X106680000Y-70040000D02*
X106680000Y-80200000D01*
X105410000Y-97830000D02*
X105410000Y-98425000D01*
X106680000Y-99695000D02*
X106680000Y-101640000D01*
X106680000Y-80200000D02*
X105410000Y-81470000D01*
X105410000Y-81470000D02*
X105410000Y-97830000D01*
X105410000Y-98425000D02*
X106680000Y-99695000D01*
X107950000Y-81470000D02*
X107950000Y-98425000D01*
X107950000Y-98425000D02*
X109220000Y-99695000D01*
X109220000Y-70040000D02*
X109220000Y-80200000D01*
X109220000Y-80200000D02*
X107950000Y-81470000D01*
X109220000Y-99695000D02*
X109220000Y-100040000D01*
X110490000Y-97830000D02*
X110490000Y-98425000D01*
X111760000Y-70040000D02*
X111760000Y-80200000D01*
X110490000Y-81470000D02*
X110490000Y-97830000D01*
X110490000Y-98425000D02*
X111760000Y-99695000D01*
X111760000Y-99695000D02*
X111760000Y-101640000D01*
X111760000Y-80200000D02*
X110490000Y-81470000D01*
X114300000Y-99695000D02*
X114300000Y-100040000D01*
X114300000Y-80200000D02*
X113030000Y-81470000D01*
X114300000Y-70040000D02*
X114300000Y-80200000D01*
X113030000Y-81470000D02*
X113030000Y-98425000D01*
X113030000Y-98425000D02*
X114300000Y-99695000D01*
X115570000Y-98425000D02*
X116840000Y-99695000D01*
X116840000Y-70040000D02*
X116840000Y-80200000D01*
X116840000Y-99695000D02*
X116840000Y-100040000D01*
X115570000Y-81470000D02*
X115570000Y-98425000D01*
X116840000Y-80200000D02*
X115570000Y-81470000D01*
X118110000Y-98425000D02*
X119380000Y-99695000D01*
X119380000Y-70040000D02*
X119380000Y-80200000D01*
X119380000Y-80200000D02*
X118110000Y-81470000D01*
X119380000Y-99695000D02*
X119380000Y-100040000D01*
X118110000Y-81470000D02*
X118110000Y-98425000D01*
X121920000Y-80200000D02*
X120650000Y-81470000D01*
X120650000Y-81470000D02*
X120650000Y-98425000D01*
X120650000Y-98425000D02*
X121920000Y-99695000D01*
X121920000Y-99695000D02*
X121920000Y-100040000D01*
X121920000Y-70040000D02*
X121920000Y-80200000D01*
X124460000Y-99695000D02*
X124460000Y-100040000D01*
X124460000Y-70040000D02*
X124460000Y-80200000D01*
X123190000Y-81470000D02*
X123190000Y-98425000D01*
X123190000Y-98425000D02*
X124460000Y-99695000D01*
X124460000Y-80200000D02*
X123190000Y-81470000D01*
X125730000Y-81470000D02*
X125730000Y-98425000D01*
X127000000Y-70040000D02*
X127000000Y-80200000D01*
X127000000Y-99695000D02*
X127000000Y-100040000D01*
X127000000Y-80200000D02*
X125730000Y-81470000D01*
X125730000Y-98425000D02*
X127000000Y-99695000D01*
X128270000Y-98425000D02*
X129540000Y-99695000D01*
X129540000Y-70040000D02*
X129540000Y-80200000D01*
X129540000Y-80200000D02*
X128270000Y-81470000D01*
X129540000Y-99695000D02*
X129540000Y-100040000D01*
X128270000Y-81470000D02*
X128270000Y-98425000D01*
X130810000Y-98425000D02*
X132080000Y-99695000D01*
X130810000Y-81470000D02*
X130810000Y-98425000D01*
X132080000Y-99695000D02*
X132080000Y-100040000D01*
X132080000Y-70040000D02*
X132080000Y-80200000D01*
X132080000Y-80200000D02*
X130810000Y-81470000D01*
D12*
X133350000Y-98425000D02*
X133350000Y-81470000D01*
X134620000Y-80200000D02*
X134620000Y-70040000D01*
X134620000Y-99695000D02*
X133350000Y-98425000D01*
X134620000Y-100040000D02*
X134620000Y-99695000D01*
X133350000Y-81470000D02*
X134620000Y-80200000D01*
D11*
X135890000Y-81470000D02*
X137160000Y-80200000D01*
X137160000Y-100040000D02*
X137160000Y-99695000D01*
X137160000Y-99695000D02*
X135890000Y-98425000D01*
X135890000Y-98425000D02*
X135890000Y-81470000D01*
X137160000Y-80200000D02*
X137160000Y-70040000D01*
X138430000Y-98425000D02*
X138430000Y-81470000D01*
X139700000Y-99695000D02*
X138430000Y-98425000D01*
X139700000Y-80200000D02*
X139700000Y-70040000D01*
X138430000Y-81470000D02*
X139700000Y-80200000D01*
X139700000Y-100040000D02*
X139700000Y-99695000D01*
X140970000Y-81470000D02*
X140970000Y-98425000D01*
X142240000Y-80200000D02*
X140970000Y-81470000D01*
X140970000Y-98425000D02*
X142240000Y-99695000D01*
X142240000Y-70040000D02*
X142240000Y-80200000D01*
X142240000Y-99695000D02*
X142240000Y-100040000D01*
X143510000Y-81470000D02*
X143510000Y-98425000D01*
X144780000Y-80200000D02*
X143510000Y-81470000D01*
X144780000Y-99695000D02*
X144780000Y-100040000D01*
X143510000Y-98425000D02*
X144780000Y-99695000D01*
X144780000Y-70040000D02*
X144780000Y-80200000D01*
X147320000Y-70040000D02*
X147320000Y-80200000D01*
X147320000Y-80200000D02*
X146050000Y-81470000D01*
X146050000Y-98425000D02*
X147320000Y-99695000D01*
X147320000Y-99695000D02*
X147320000Y-100040000D01*
X146050000Y-81470000D02*
X146050000Y-98425000D01*
X148590000Y-98425000D02*
X149860000Y-99695000D01*
X149860000Y-99695000D02*
X149860000Y-100040000D01*
X148590000Y-81470000D02*
X148590000Y-98425000D01*
X149860000Y-70040000D02*
X149860000Y-80200000D01*
X149860000Y-80200000D02*
X148590000Y-81470000D01*
X152400000Y-70040000D02*
X152400000Y-80200000D01*
X151130000Y-98425000D02*
X152400000Y-99695000D01*
X152400000Y-80200000D02*
X151130000Y-81470000D01*
X151130000Y-81470000D02*
X151130000Y-98425000D01*
X152400000Y-99695000D02*
X152400000Y-100040000D01*
X153670000Y-98425000D02*
X154940000Y-99695000D01*
X154940000Y-70040000D02*
X154940000Y-80200000D01*
X153670000Y-81470000D02*
X153670000Y-98425000D01*
X154940000Y-99695000D02*
X154940000Y-100040000D01*
X154940000Y-80200000D02*
X153670000Y-81470000D01*
X156210000Y-98425000D02*
X157480000Y-99695000D01*
X157480000Y-99695000D02*
X157480000Y-100040000D01*
X156210000Y-81470000D02*
X156210000Y-98425000D01*
X157480000Y-80200000D02*
X156210000Y-81470000D01*
X157480000Y-70040000D02*
X157480000Y-80200000D01*
X158750000Y-98425000D02*
X160020000Y-99695000D01*
X158750000Y-81470000D02*
X158750000Y-98425000D01*
X160020000Y-99695000D02*
X160020000Y-100040000D01*
X160020000Y-80200000D02*
X158750000Y-81470000D01*
X160020000Y-70040000D02*
X160020000Y-80200000D01*
X161290000Y-98425000D02*
X162560000Y-99695000D01*
X161290000Y-81470000D02*
X161290000Y-98425000D01*
X162560000Y-70040000D02*
X162560000Y-80200000D01*
X162560000Y-80200000D02*
X161290000Y-81470000D01*
X162560000Y-99695000D02*
X162560000Y-100040000D01*
X163830000Y-98425000D02*
X165100000Y-99695000D01*
X165100000Y-70040000D02*
X165100000Y-80200000D01*
X163830000Y-81470000D02*
X163830000Y-98425000D01*
X165100000Y-99695000D02*
X165100000Y-100040000D01*
X165100000Y-80200000D02*
X163830000Y-81470000D01*
X167640000Y-80200000D02*
X166370000Y-81470000D01*
X166370000Y-98425000D02*
X167640000Y-99695000D01*
X166370000Y-81470000D02*
X166370000Y-98425000D01*
X167640000Y-70040000D02*
X167640000Y-80200000D01*
X167640000Y-100040000D02*
X167640000Y-99695000D01*
D13*
X93980000Y-81470000D02*
X95250000Y-80200000D01*
X95250000Y-67500000D02*
X93980000Y-66230000D01*
X93980000Y-66230000D02*
X93980000Y-64960000D01*
X93980000Y-94615000D02*
X93980000Y-81470000D01*
X95250000Y-80200000D02*
X95250000Y-67500000D01*
X93980000Y-94615000D02*
X93980000Y-96560000D01*
D11*
X96520000Y-66230000D02*
X97790000Y-67500000D01*
X97790000Y-67500000D02*
X97790000Y-80200000D01*
X96520000Y-64960000D02*
X96520000Y-66230000D01*
X97790000Y-80200000D02*
X96520000Y-81470000D01*
X96520000Y-81470000D02*
X96520000Y-96560000D01*
X101600000Y-66230000D02*
X102870000Y-67500000D01*
X101600000Y-95000000D02*
X101600000Y-91480000D01*
X101600000Y-64960000D02*
X101600000Y-66230000D01*
X101600000Y-81470000D02*
X101600000Y-91480000D01*
X102870000Y-67500000D02*
X102870000Y-80200000D01*
X101600000Y-91480000D02*
X101600000Y-96560000D01*
X102870000Y-80200000D02*
X101600000Y-81470000D01*
X104140000Y-90360000D02*
X104140000Y-81470000D01*
X105410000Y-80200000D02*
X105410000Y-67500000D01*
X104140000Y-81470000D02*
X105410000Y-80200000D01*
X104140000Y-90000000D02*
X104140000Y-96560000D01*
X104140000Y-66230000D02*
X104140000Y-64960000D01*
X105410000Y-67500000D02*
X104140000Y-66230000D01*
X106680000Y-90360000D02*
X106680000Y-81470000D01*
X107950000Y-67500000D02*
X106680000Y-66230000D01*
X106680000Y-90000000D02*
X106680000Y-96560000D01*
X107950000Y-80200000D02*
X107950000Y-67500000D01*
X106680000Y-81470000D02*
X107950000Y-80200000D01*
X106680000Y-66230000D02*
X106680000Y-64960000D01*
X109220000Y-81470000D02*
X109220000Y-96560000D01*
X109220000Y-66230000D02*
X110490000Y-67500000D01*
X110490000Y-80200000D02*
X109220000Y-81470000D01*
X109220000Y-64960000D02*
X109220000Y-66230000D01*
X110490000Y-67500000D02*
X110490000Y-80200000D01*
X113030000Y-67500000D02*
X111760000Y-66230000D01*
X111760000Y-90000000D02*
X111760000Y-81470000D01*
X111760000Y-81470000D02*
X113030000Y-80200000D01*
X113030000Y-80200000D02*
X113030000Y-67500000D01*
X111760000Y-90000000D02*
X111760000Y-92500000D01*
X111760000Y-91480000D02*
X111760000Y-96560000D01*
X111760000Y-66230000D02*
X111760000Y-64960000D01*
X116840000Y-64960000D02*
X116840000Y-66230000D01*
X118110000Y-67500000D02*
X118110000Y-80200000D01*
X116840000Y-81470000D02*
X116840000Y-94960000D01*
X118110000Y-80200000D02*
X116840000Y-81470000D01*
X116840000Y-66230000D02*
X118110000Y-67500000D01*
X119380000Y-66230000D02*
X119380000Y-64960000D01*
X120650000Y-67500000D02*
X119380000Y-66230000D01*
X119380000Y-81470000D02*
X120650000Y-80200000D01*
X119380000Y-90360000D02*
X119380000Y-81470000D01*
X119380000Y-90000000D02*
X119380000Y-96560000D01*
X120650000Y-80200000D02*
X120650000Y-67500000D01*
X121920000Y-90360000D02*
X121920000Y-81470000D01*
X121920000Y-81470000D02*
X123190000Y-80200000D01*
X123190000Y-67500000D02*
X121920000Y-66230000D01*
X123190000Y-80200000D02*
X123190000Y-67500000D01*
X121920000Y-66230000D02*
X121920000Y-64960000D01*
X121920000Y-90000000D02*
X121920000Y-96560000D01*
X124460000Y-66230000D02*
X125730000Y-67500000D01*
X124460000Y-64960000D02*
X124460000Y-66230000D01*
X124460000Y-81470000D02*
X124460000Y-96560000D01*
X125730000Y-80200000D02*
X124460000Y-81470000D01*
X125730000Y-67500000D02*
X125730000Y-80200000D01*
X127000000Y-90360000D02*
X127000000Y-81470000D01*
X128270000Y-80200000D02*
X128270000Y-67500000D01*
X127000000Y-81470000D02*
X128270000Y-80200000D01*
X127000000Y-90000000D02*
X127000000Y-96560000D01*
X127000000Y-66230000D02*
X127000000Y-64960000D01*
X128270000Y-67500000D02*
X127000000Y-66230000D01*
X130810000Y-80200000D02*
X129540000Y-81470000D01*
X130810000Y-67500000D02*
X130810000Y-80200000D01*
X129540000Y-64960000D02*
X129540000Y-66230000D01*
X129540000Y-81470000D02*
X129540000Y-96560000D01*
X129540000Y-66230000D02*
X130810000Y-67500000D01*
D12*
X133350000Y-67500000D02*
X132080000Y-66230000D01*
X132080000Y-94960000D02*
X132080000Y-81470000D01*
X133350000Y-80200000D02*
X133350000Y-67500000D01*
X132080000Y-81470000D02*
X133350000Y-80200000D01*
X132080000Y-66230000D02*
X132080000Y-64960000D01*
D11*
X135890000Y-80200000D02*
X135890000Y-67500000D01*
X134620000Y-66230000D02*
X134620000Y-64960000D01*
X134620000Y-90360000D02*
X134620000Y-81470000D01*
X134620000Y-81470000D02*
X135890000Y-80200000D01*
X135890000Y-67500000D02*
X134620000Y-66230000D01*
X134620000Y-90000000D02*
X134620000Y-96560000D01*
X137160000Y-64960000D02*
X137160000Y-66230000D01*
X138430000Y-67500000D02*
X138430000Y-80200000D01*
X138430000Y-80200000D02*
X137160000Y-81470000D01*
X137160000Y-66230000D02*
X138430000Y-67500000D01*
X137160000Y-81470000D02*
X137160000Y-96560000D01*
X140970000Y-80200000D02*
X140970000Y-67500000D01*
X139700000Y-66230000D02*
X139700000Y-64960000D01*
X139700000Y-91480000D02*
X139700000Y-94960000D01*
X139700000Y-91480000D02*
X139700000Y-90000000D01*
X139700000Y-90360000D02*
X139700000Y-81470000D01*
X139700000Y-81470000D02*
X140970000Y-80200000D01*
X140970000Y-67500000D02*
X139700000Y-66230000D01*
X142240000Y-81470000D02*
X143510000Y-80200000D01*
X143510000Y-80200000D02*
X143510000Y-67500000D01*
X142240000Y-66230000D02*
X142240000Y-64960000D01*
X142240000Y-90360000D02*
X142240000Y-81470000D01*
X142240000Y-90000000D02*
X142240000Y-96560000D01*
X143510000Y-67500000D02*
X142240000Y-66230000D01*
X146050000Y-67500000D02*
X144780000Y-66230000D01*
X146050000Y-80200000D02*
X146050000Y-67500000D01*
X144780000Y-66230000D02*
X144780000Y-64960000D01*
X144780000Y-90000000D02*
X144780000Y-96560000D01*
X144780000Y-90360000D02*
X144780000Y-81470000D01*
X144780000Y-81470000D02*
X146050000Y-80200000D01*
X148590000Y-67500000D02*
X147320000Y-66230000D01*
X148590000Y-80200000D02*
X148590000Y-67500000D01*
X147320000Y-90000000D02*
X147320000Y-96560000D01*
X147320000Y-66230000D02*
X147320000Y-64960000D01*
X147320000Y-81470000D02*
X148590000Y-80200000D01*
X147320000Y-90360000D02*
X147320000Y-81470000D01*
X149860000Y-81470000D02*
X151130000Y-80200000D01*
X149860000Y-66230000D02*
X149860000Y-64960000D01*
X149860000Y-92500000D02*
X149860000Y-90000000D01*
X151130000Y-80200000D02*
X151130000Y-67500000D01*
X149860000Y-90360000D02*
X149860000Y-81470000D01*
X151130000Y-67500000D02*
X149860000Y-66230000D01*
X149860000Y-92500000D02*
X149860000Y-94960000D01*
X153670000Y-67500000D02*
X153670000Y-80200000D01*
X152400000Y-81470000D02*
X152400000Y-96560000D01*
X152400000Y-64960000D02*
X152400000Y-66230000D01*
X153670000Y-80200000D02*
X152400000Y-81470000D01*
X152400000Y-66230000D02*
X153670000Y-67500000D01*
X154940000Y-90000000D02*
X154940000Y-96560000D01*
X154940000Y-90360000D02*
X154940000Y-81470000D01*
X156210000Y-80200000D02*
X156210000Y-67500000D01*
X154940000Y-66230000D02*
X154940000Y-64960000D01*
X156210000Y-67500000D02*
X154940000Y-66230000D01*
X154940000Y-81470000D02*
X156210000Y-80200000D01*
X158750000Y-80200000D02*
X157480000Y-81470000D01*
X157480000Y-66230000D02*
X158750000Y-67500000D01*
X158750000Y-67500000D02*
X158750000Y-80200000D01*
X157480000Y-64960000D02*
X157480000Y-66230000D01*
X157480000Y-81470000D02*
X157480000Y-96560000D01*
X160020000Y-90000000D02*
X160020000Y-96560000D01*
X161290000Y-67500000D02*
X160020000Y-66230000D01*
X160020000Y-81470000D02*
X161290000Y-80200000D01*
X160020000Y-66230000D02*
X160020000Y-64960000D01*
X160020000Y-90360000D02*
X160020000Y-81470000D01*
X161290000Y-80200000D02*
X161290000Y-67500000D01*
D14*
X170180000Y-62420000D02*
X170180000Y-64960000D01*
X99060000Y-64960000D02*
X99060000Y-67500000D01*
X168910000Y-61150000D02*
X171450000Y-63690000D01*
X99060000Y-67500000D02*
X99060000Y-70040000D01*
X171450000Y-63690000D02*
X171450000Y-100370000D01*
X100330000Y-61150000D02*
X168910000Y-61150000D01*
X170180000Y-70040000D02*
X170180000Y-64960000D01*
X99060000Y-64960000D02*
X99060000Y-62420000D01*
X99060000Y-62420000D02*
X100330000Y-61150000D01*
X171450000Y-100370000D02*
X170180000Y-101640000D01*
X170180000Y-101640000D02*
X170180000Y-70040000D01*
X99060000Y-101640000D02*
X99060000Y-70040000D01*
X168910000Y-61150000D02*
X170180000Y-62420000D01*
D11*
X163830000Y-67500000D02*
X163830000Y-80200000D01*
X162560000Y-64960000D02*
X162560000Y-66230000D01*
X162560000Y-81470000D02*
X162560000Y-96560000D01*
X163830000Y-80200000D02*
X162560000Y-81470000D01*
X162560000Y-66230000D02*
X163830000Y-67500000D01*
X165100000Y-90000000D02*
X165100000Y-96560000D01*
X165100000Y-90360000D02*
X165100000Y-81470000D01*
X166370000Y-67500000D02*
X165100000Y-66230000D01*
X165100000Y-81470000D02*
X166370000Y-80200000D01*
X166370000Y-80200000D02*
X166370000Y-67500000D01*
X165100000Y-66230000D02*
X165100000Y-64960000D01*
X167640000Y-81470000D02*
X168910000Y-80200000D01*
X167640000Y-90360000D02*
X167640000Y-81470000D01*
X167640000Y-66230000D02*
X167640000Y-64960000D01*
X168910000Y-67500000D02*
X167640000Y-66230000D01*
X168910000Y-80200000D02*
X168910000Y-67500000D01*
X167640000Y-90000000D02*
X167640000Y-96560000D01*
D14*
X91440000Y-101640000D02*
X91440000Y-70040000D01*
X91440000Y-70040000D02*
X91440000Y-64960000D01*
D11*
X114300000Y-90000000D02*
X114300000Y-92500000D01*
X115570000Y-67500000D02*
X114300000Y-66230000D01*
X114300000Y-91480000D02*
X114300000Y-94960000D01*
X115570000Y-80200000D02*
X115570000Y-67500000D01*
X114300000Y-90000000D02*
X114300000Y-81470000D01*
X114300000Y-81470000D02*
X115570000Y-80200000D01*
X114300000Y-66230000D02*
X114300000Y-64960000D01*
G04 #@! TA.AperFunction,Conductor*
G36*
X91358968Y-63933107D02*
G01*
X91415464Y-63976103D01*
X91439746Y-64042818D01*
X91440000Y-64050809D01*
X91440000Y-101295810D01*
X91419998Y-101363931D01*
X91366342Y-101410424D01*
X91296068Y-101420528D01*
X91231488Y-101391034D01*
X91224905Y-101384905D01*
X88936905Y-99096905D01*
X88902879Y-99034593D01*
X88900000Y-99007810D01*
X88900000Y-66302778D01*
X88920002Y-66234657D01*
X88937614Y-66212978D01*
X91225615Y-63961007D01*
X91288195Y-63927480D01*
X91358968Y-63933107D01*
G37*
G04 #@! TD.AperFunction*
M02*
