%TF.GenerationSoftware,KiCad,Pcbnew,8.0.2*%
%TF.CreationDate,2024-12-08T11:28:18+01:00*%
%TF.ProjectId,junior-internal-bus,6a756e69-6f72-42d6-996e-7465726e616c,rev?*%
%TF.SameCoordinates,Original*%
%TF.FileFunction,Drillmap*%
%TF.FilePolarity,Positive*%
%FSLAX45Y45*%
G04 Gerber Fmt 4.5, Leading zero omitted, Abs format (unit mm)*
G04 Created by KiCad (PCBNEW 8.0.2) date 2024-12-08 11:28:18*
%MOMM*%
%LPD*%
G01*
G04 APERTURE LIST*
%ADD10C,0.050000*%
%ADD11C,0.200000*%
%ADD12C,0.100000*%
G04 APERTURE END LIST*
D10*
X8128000Y-10668000D02*
X8128000Y-5988000D01*
X18034000Y-10668000D02*
X8128000Y-10668000D01*
X8128000Y-5988000D02*
X18034000Y-5988000D01*
X18034000Y-5988000D02*
X18034000Y-10668000D01*
D11*
D12*
X9103500Y-6455500D02*
X9184500Y-6536500D01*
X9184500Y-6455500D02*
X9103500Y-6536500D01*
X9103500Y-6963500D02*
X9184500Y-7044500D01*
X9184500Y-6963500D02*
X9103500Y-7044500D01*
X9103500Y-9615500D02*
X9184500Y-9696500D01*
X9184500Y-9615500D02*
X9103500Y-9696500D01*
X9103500Y-10123500D02*
X9184500Y-10204500D01*
X9184500Y-10123500D02*
X9103500Y-10204500D01*
X9357500Y-6455500D02*
X9438500Y-6536500D01*
X9438500Y-6455500D02*
X9357500Y-6536500D01*
X9357500Y-6963500D02*
X9438500Y-7044500D01*
X9438500Y-6963500D02*
X9357500Y-7044500D01*
X9357500Y-9615500D02*
X9438500Y-9696500D01*
X9438500Y-9615500D02*
X9357500Y-9696500D01*
X9357500Y-10123500D02*
X9438500Y-10204500D01*
X9438500Y-10123500D02*
X9357500Y-10204500D01*
X9611500Y-6455500D02*
X9692500Y-6536500D01*
X9692500Y-6455500D02*
X9611500Y-6536500D01*
X9611500Y-6963500D02*
X9692500Y-7044500D01*
X9692500Y-6963500D02*
X9611500Y-7044500D01*
X9611500Y-9615500D02*
X9692500Y-9696500D01*
X9692500Y-9615500D02*
X9611500Y-9696500D01*
X9611500Y-10123500D02*
X9692500Y-10204500D01*
X9692500Y-10123500D02*
X9611500Y-10204500D01*
X9865500Y-6455500D02*
X9946500Y-6536500D01*
X9946500Y-6455500D02*
X9865500Y-6536500D01*
X9865500Y-6963500D02*
X9946500Y-7044500D01*
X9946500Y-6963500D02*
X9865500Y-7044500D01*
X9865500Y-9615500D02*
X9946500Y-9696500D01*
X9946500Y-9615500D02*
X9865500Y-9696500D01*
X9865500Y-10123500D02*
X9946500Y-10204500D01*
X9946500Y-10123500D02*
X9865500Y-10204500D01*
X10119500Y-6455500D02*
X10200500Y-6536500D01*
X10200500Y-6455500D02*
X10119500Y-6536500D01*
X10119500Y-6963500D02*
X10200500Y-7044500D01*
X10200500Y-6963500D02*
X10119500Y-7044500D01*
X10119500Y-9615500D02*
X10200500Y-9696500D01*
X10200500Y-9615500D02*
X10119500Y-9696500D01*
X10119500Y-10123500D02*
X10200500Y-10204500D01*
X10200500Y-10123500D02*
X10119500Y-10204500D01*
X10373500Y-6455500D02*
X10454500Y-6536500D01*
X10454500Y-6455500D02*
X10373500Y-6536500D01*
X10373500Y-6963500D02*
X10454500Y-7044500D01*
X10454500Y-6963500D02*
X10373500Y-7044500D01*
X10373500Y-9615500D02*
X10454500Y-9696500D01*
X10454500Y-9615500D02*
X10373500Y-9696500D01*
X10373500Y-10123500D02*
X10454500Y-10204500D01*
X10454500Y-10123500D02*
X10373500Y-10204500D01*
X10627500Y-6455500D02*
X10708500Y-6536500D01*
X10708500Y-6455500D02*
X10627500Y-6536500D01*
X10627500Y-6963500D02*
X10708500Y-7044500D01*
X10708500Y-6963500D02*
X10627500Y-7044500D01*
X10627500Y-9615500D02*
X10708500Y-9696500D01*
X10708500Y-9615500D02*
X10627500Y-9696500D01*
X10627500Y-10123500D02*
X10708500Y-10204500D01*
X10708500Y-10123500D02*
X10627500Y-10204500D01*
X10881500Y-6455500D02*
X10962500Y-6536500D01*
X10962500Y-6455500D02*
X10881500Y-6536500D01*
X10881500Y-6963500D02*
X10962500Y-7044500D01*
X10962500Y-6963500D02*
X10881500Y-7044500D01*
X10881500Y-9615500D02*
X10962500Y-9696500D01*
X10962500Y-9615500D02*
X10881500Y-9696500D01*
X10881500Y-10123500D02*
X10962500Y-10204500D01*
X10962500Y-10123500D02*
X10881500Y-10204500D01*
X11135500Y-6455500D02*
X11216500Y-6536500D01*
X11216500Y-6455500D02*
X11135500Y-6536500D01*
X11135500Y-6963500D02*
X11216500Y-7044500D01*
X11216500Y-6963500D02*
X11135500Y-7044500D01*
X11135500Y-9615500D02*
X11216500Y-9696500D01*
X11216500Y-9615500D02*
X11135500Y-9696500D01*
X11135500Y-10123500D02*
X11216500Y-10204500D01*
X11216500Y-10123500D02*
X11135500Y-10204500D01*
X11389500Y-6455500D02*
X11470500Y-6536500D01*
X11470500Y-6455500D02*
X11389500Y-6536500D01*
X11389500Y-6963500D02*
X11470500Y-7044500D01*
X11470500Y-6963500D02*
X11389500Y-7044500D01*
X11389500Y-9615500D02*
X11470500Y-9696500D01*
X11470500Y-9615500D02*
X11389500Y-9696500D01*
X11389500Y-10123500D02*
X11470500Y-10204500D01*
X11470500Y-10123500D02*
X11389500Y-10204500D01*
X11643500Y-6455500D02*
X11724500Y-6536500D01*
X11724500Y-6455500D02*
X11643500Y-6536500D01*
X11643500Y-6963500D02*
X11724500Y-7044500D01*
X11724500Y-6963500D02*
X11643500Y-7044500D01*
X11643500Y-9615500D02*
X11724500Y-9696500D01*
X11724500Y-9615500D02*
X11643500Y-9696500D01*
X11643500Y-10123500D02*
X11724500Y-10204500D01*
X11724500Y-10123500D02*
X11643500Y-10204500D01*
X11897500Y-6455500D02*
X11978500Y-6536500D01*
X11978500Y-6455500D02*
X11897500Y-6536500D01*
X11897500Y-6963500D02*
X11978500Y-7044500D01*
X11978500Y-6963500D02*
X11897500Y-7044500D01*
X11897500Y-9615500D02*
X11978500Y-9696500D01*
X11978500Y-9615500D02*
X11897500Y-9696500D01*
X11897500Y-10123500D02*
X11978500Y-10204500D01*
X11978500Y-10123500D02*
X11897500Y-10204500D01*
X12151500Y-6455500D02*
X12232500Y-6536500D01*
X12232500Y-6455500D02*
X12151500Y-6536500D01*
X12151500Y-6963500D02*
X12232500Y-7044500D01*
X12232500Y-6963500D02*
X12151500Y-7044500D01*
X12151500Y-9615500D02*
X12232500Y-9696500D01*
X12232500Y-9615500D02*
X12151500Y-9696500D01*
X12151500Y-10123500D02*
X12232500Y-10204500D01*
X12232500Y-10123500D02*
X12151500Y-10204500D01*
X12405500Y-6455500D02*
X12486500Y-6536500D01*
X12486500Y-6455500D02*
X12405500Y-6536500D01*
X12405500Y-6963500D02*
X12486500Y-7044500D01*
X12486500Y-6963500D02*
X12405500Y-7044500D01*
X12405500Y-9615500D02*
X12486500Y-9696500D01*
X12486500Y-9615500D02*
X12405500Y-9696500D01*
X12405500Y-10123500D02*
X12486500Y-10204500D01*
X12486500Y-10123500D02*
X12405500Y-10204500D01*
X12659500Y-6455500D02*
X12740500Y-6536500D01*
X12740500Y-6455500D02*
X12659500Y-6536500D01*
X12659500Y-6963500D02*
X12740500Y-7044500D01*
X12740500Y-6963500D02*
X12659500Y-7044500D01*
X12659500Y-9615500D02*
X12740500Y-9696500D01*
X12740500Y-9615500D02*
X12659500Y-9696500D01*
X12659500Y-10123500D02*
X12740500Y-10204500D01*
X12740500Y-10123500D02*
X12659500Y-10204500D01*
X12913500Y-6455500D02*
X12994500Y-6536500D01*
X12994500Y-6455500D02*
X12913500Y-6536500D01*
X12913500Y-6963500D02*
X12994500Y-7044500D01*
X12994500Y-6963500D02*
X12913500Y-7044500D01*
X12913500Y-9615500D02*
X12994500Y-9696500D01*
X12994500Y-9615500D02*
X12913500Y-9696500D01*
X12913500Y-10123500D02*
X12994500Y-10204500D01*
X12994500Y-10123500D02*
X12913500Y-10204500D01*
X13167500Y-6455500D02*
X13248500Y-6536500D01*
X13248500Y-6455500D02*
X13167500Y-6536500D01*
X13167500Y-6963500D02*
X13248500Y-7044500D01*
X13248500Y-6963500D02*
X13167500Y-7044500D01*
X13167500Y-9615500D02*
X13248500Y-9696500D01*
X13248500Y-9615500D02*
X13167500Y-9696500D01*
X13167500Y-10123500D02*
X13248500Y-10204500D01*
X13248500Y-10123500D02*
X13167500Y-10204500D01*
X13421500Y-6455500D02*
X13502500Y-6536500D01*
X13502500Y-6455500D02*
X13421500Y-6536500D01*
X13421500Y-6963500D02*
X13502500Y-7044500D01*
X13502500Y-6963500D02*
X13421500Y-7044500D01*
X13421500Y-9615500D02*
X13502500Y-9696500D01*
X13502500Y-9615500D02*
X13421500Y-9696500D01*
X13421500Y-10123500D02*
X13502500Y-10204500D01*
X13502500Y-10123500D02*
X13421500Y-10204500D01*
X13675500Y-6455500D02*
X13756500Y-6536500D01*
X13756500Y-6455500D02*
X13675500Y-6536500D01*
X13675500Y-6963500D02*
X13756500Y-7044500D01*
X13756500Y-6963500D02*
X13675500Y-7044500D01*
X13675500Y-9615500D02*
X13756500Y-9696500D01*
X13756500Y-9615500D02*
X13675500Y-9696500D01*
X13675500Y-10123500D02*
X13756500Y-10204500D01*
X13756500Y-10123500D02*
X13675500Y-10204500D01*
X13929500Y-6455500D02*
X14010500Y-6536500D01*
X14010500Y-6455500D02*
X13929500Y-6536500D01*
X13929500Y-6963500D02*
X14010500Y-7044500D01*
X14010500Y-6963500D02*
X13929500Y-7044500D01*
X13929500Y-9615500D02*
X14010500Y-9696500D01*
X14010500Y-9615500D02*
X13929500Y-9696500D01*
X13929500Y-10123500D02*
X14010500Y-10204500D01*
X14010500Y-10123500D02*
X13929500Y-10204500D01*
X14183500Y-6455500D02*
X14264500Y-6536500D01*
X14264500Y-6455500D02*
X14183500Y-6536500D01*
X14183500Y-6963500D02*
X14264500Y-7044500D01*
X14264500Y-6963500D02*
X14183500Y-7044500D01*
X14183500Y-9615500D02*
X14264500Y-9696500D01*
X14264500Y-9615500D02*
X14183500Y-9696500D01*
X14183500Y-10123500D02*
X14264500Y-10204500D01*
X14264500Y-10123500D02*
X14183500Y-10204500D01*
X14437500Y-6455500D02*
X14518500Y-6536500D01*
X14518500Y-6455500D02*
X14437500Y-6536500D01*
X14437500Y-6963500D02*
X14518500Y-7044500D01*
X14518500Y-6963500D02*
X14437500Y-7044500D01*
X14437500Y-9615500D02*
X14518500Y-9696500D01*
X14518500Y-9615500D02*
X14437500Y-9696500D01*
X14437500Y-10123500D02*
X14518500Y-10204500D01*
X14518500Y-10123500D02*
X14437500Y-10204500D01*
X14691500Y-6455500D02*
X14772500Y-6536500D01*
X14772500Y-6455500D02*
X14691500Y-6536500D01*
X14691500Y-6963500D02*
X14772500Y-7044500D01*
X14772500Y-6963500D02*
X14691500Y-7044500D01*
X14691500Y-9615500D02*
X14772500Y-9696500D01*
X14772500Y-9615500D02*
X14691500Y-9696500D01*
X14691500Y-10123500D02*
X14772500Y-10204500D01*
X14772500Y-10123500D02*
X14691500Y-10204500D01*
X14945500Y-6455500D02*
X15026500Y-6536500D01*
X15026500Y-6455500D02*
X14945500Y-6536500D01*
X14945500Y-6963500D02*
X15026500Y-7044500D01*
X15026500Y-6963500D02*
X14945500Y-7044500D01*
X14945500Y-9615500D02*
X15026500Y-9696500D01*
X15026500Y-9615500D02*
X14945500Y-9696500D01*
X14945500Y-10123500D02*
X15026500Y-10204500D01*
X15026500Y-10123500D02*
X14945500Y-10204500D01*
X15199500Y-6455500D02*
X15280500Y-6536500D01*
X15280500Y-6455500D02*
X15199500Y-6536500D01*
X15199500Y-6963500D02*
X15280500Y-7044500D01*
X15280500Y-6963500D02*
X15199500Y-7044500D01*
X15199500Y-9615500D02*
X15280500Y-9696500D01*
X15280500Y-9615500D02*
X15199500Y-9696500D01*
X15199500Y-10123500D02*
X15280500Y-10204500D01*
X15280500Y-10123500D02*
X15199500Y-10204500D01*
X15453500Y-6455500D02*
X15534500Y-6536500D01*
X15534500Y-6455500D02*
X15453500Y-6536500D01*
X15453500Y-6963500D02*
X15534500Y-7044500D01*
X15534500Y-6963500D02*
X15453500Y-7044500D01*
X15453500Y-9615500D02*
X15534500Y-9696500D01*
X15534500Y-9615500D02*
X15453500Y-9696500D01*
X15453500Y-10123500D02*
X15534500Y-10204500D01*
X15534500Y-10123500D02*
X15453500Y-10204500D01*
X15707500Y-6455500D02*
X15788500Y-6536500D01*
X15788500Y-6455500D02*
X15707500Y-6536500D01*
X15707500Y-6963500D02*
X15788500Y-7044500D01*
X15788500Y-6963500D02*
X15707500Y-7044500D01*
X15707500Y-9615500D02*
X15788500Y-9696500D01*
X15788500Y-9615500D02*
X15707500Y-9696500D01*
X15707500Y-10123500D02*
X15788500Y-10204500D01*
X15788500Y-10123500D02*
X15707500Y-10204500D01*
X15961500Y-6455500D02*
X16042500Y-6536500D01*
X16042500Y-6455500D02*
X15961500Y-6536500D01*
X15961500Y-6963500D02*
X16042500Y-7044500D01*
X16042500Y-6963500D02*
X15961500Y-7044500D01*
X15961500Y-9615500D02*
X16042500Y-9696500D01*
X16042500Y-9615500D02*
X15961500Y-9696500D01*
X15961500Y-10123500D02*
X16042500Y-10204500D01*
X16042500Y-10123500D02*
X15961500Y-10204500D01*
X16215500Y-6455500D02*
X16296500Y-6536500D01*
X16296500Y-6455500D02*
X16215500Y-6536500D01*
X16215500Y-6963500D02*
X16296500Y-7044500D01*
X16296500Y-6963500D02*
X16215500Y-7044500D01*
X16215500Y-9615500D02*
X16296500Y-9696500D01*
X16296500Y-9615500D02*
X16215500Y-9696500D01*
X16215500Y-10123500D02*
X16296500Y-10204500D01*
X16296500Y-10123500D02*
X16215500Y-10204500D01*
X16469500Y-6455500D02*
X16550500Y-6536500D01*
X16550500Y-6455500D02*
X16469500Y-6536500D01*
X16469500Y-6963500D02*
X16550500Y-7044500D01*
X16550500Y-6963500D02*
X16469500Y-7044500D01*
X16469500Y-9615500D02*
X16550500Y-9696500D01*
X16550500Y-9615500D02*
X16469500Y-9696500D01*
X16469500Y-10123500D02*
X16550500Y-10204500D01*
X16550500Y-10123500D02*
X16469500Y-10204500D01*
X16723500Y-6455500D02*
X16804500Y-6536500D01*
X16804500Y-6455500D02*
X16723500Y-6536500D01*
X16723500Y-6963500D02*
X16804500Y-7044500D01*
X16804500Y-6963500D02*
X16723500Y-7044500D01*
X16723500Y-9615500D02*
X16804500Y-9696500D01*
X16804500Y-9615500D02*
X16723500Y-9696500D01*
X16723500Y-10123500D02*
X16804500Y-10204500D01*
X16804500Y-10123500D02*
X16723500Y-10204500D01*
X16977500Y-6455500D02*
X17058500Y-6536500D01*
X17058500Y-6455500D02*
X16977500Y-6536500D01*
X16977500Y-6963500D02*
X17058500Y-7044500D01*
X17058500Y-6963500D02*
X16977500Y-7044500D01*
X16977500Y-9615500D02*
X17058500Y-9696500D01*
X17058500Y-9615500D02*
X16977500Y-9696500D01*
X16977500Y-10123500D02*
X17058500Y-10204500D01*
X17058500Y-10123500D02*
X16977500Y-10204500D01*
D11*
X8386277Y-10981984D02*
X8386277Y-10781984D01*
X8386277Y-10781984D02*
X8433896Y-10781984D01*
X8433896Y-10781984D02*
X8462467Y-10791508D01*
X8462467Y-10791508D02*
X8481515Y-10810555D01*
X8481515Y-10810555D02*
X8491039Y-10829603D01*
X8491039Y-10829603D02*
X8500563Y-10867698D01*
X8500563Y-10867698D02*
X8500563Y-10896270D01*
X8500563Y-10896270D02*
X8491039Y-10934365D01*
X8491039Y-10934365D02*
X8481515Y-10953412D01*
X8481515Y-10953412D02*
X8462467Y-10972460D01*
X8462467Y-10972460D02*
X8433896Y-10981984D01*
X8433896Y-10981984D02*
X8386277Y-10981984D01*
X8586277Y-10981984D02*
X8586277Y-10848650D01*
X8586277Y-10886746D02*
X8595801Y-10867698D01*
X8595801Y-10867698D02*
X8605324Y-10858174D01*
X8605324Y-10858174D02*
X8624372Y-10848650D01*
X8624372Y-10848650D02*
X8643420Y-10848650D01*
X8710086Y-10981984D02*
X8710086Y-10848650D01*
X8710086Y-10781984D02*
X8700563Y-10791508D01*
X8700563Y-10791508D02*
X8710086Y-10801031D01*
X8710086Y-10801031D02*
X8719610Y-10791508D01*
X8719610Y-10791508D02*
X8710086Y-10781984D01*
X8710086Y-10781984D02*
X8710086Y-10801031D01*
X8833896Y-10981984D02*
X8814848Y-10972460D01*
X8814848Y-10972460D02*
X8805324Y-10953412D01*
X8805324Y-10953412D02*
X8805324Y-10781984D01*
X8938658Y-10981984D02*
X8919610Y-10972460D01*
X8919610Y-10972460D02*
X8910086Y-10953412D01*
X8910086Y-10953412D02*
X8910086Y-10781984D01*
X9167229Y-10981984D02*
X9167229Y-10781984D01*
X9167229Y-10781984D02*
X9233896Y-10924841D01*
X9233896Y-10924841D02*
X9300563Y-10781984D01*
X9300563Y-10781984D02*
X9300563Y-10981984D01*
X9481515Y-10981984D02*
X9481515Y-10877222D01*
X9481515Y-10877222D02*
X9471991Y-10858174D01*
X9471991Y-10858174D02*
X9452944Y-10848650D01*
X9452944Y-10848650D02*
X9414848Y-10848650D01*
X9414848Y-10848650D02*
X9395801Y-10858174D01*
X9481515Y-10972460D02*
X9462467Y-10981984D01*
X9462467Y-10981984D02*
X9414848Y-10981984D01*
X9414848Y-10981984D02*
X9395801Y-10972460D01*
X9395801Y-10972460D02*
X9386277Y-10953412D01*
X9386277Y-10953412D02*
X9386277Y-10934365D01*
X9386277Y-10934365D02*
X9395801Y-10915317D01*
X9395801Y-10915317D02*
X9414848Y-10905793D01*
X9414848Y-10905793D02*
X9462467Y-10905793D01*
X9462467Y-10905793D02*
X9481515Y-10896270D01*
X9576753Y-10848650D02*
X9576753Y-11048650D01*
X9576753Y-10858174D02*
X9595801Y-10848650D01*
X9595801Y-10848650D02*
X9633896Y-10848650D01*
X9633896Y-10848650D02*
X9652944Y-10858174D01*
X9652944Y-10858174D02*
X9662467Y-10867698D01*
X9662467Y-10867698D02*
X9671991Y-10886746D01*
X9671991Y-10886746D02*
X9671991Y-10943889D01*
X9671991Y-10943889D02*
X9662467Y-10962936D01*
X9662467Y-10962936D02*
X9652944Y-10972460D01*
X9652944Y-10972460D02*
X9633896Y-10981984D01*
X9633896Y-10981984D02*
X9595801Y-10981984D01*
X9595801Y-10981984D02*
X9576753Y-10972460D01*
X9757705Y-10962936D02*
X9767229Y-10972460D01*
X9767229Y-10972460D02*
X9757705Y-10981984D01*
X9757705Y-10981984D02*
X9748182Y-10972460D01*
X9748182Y-10972460D02*
X9757705Y-10962936D01*
X9757705Y-10962936D02*
X9757705Y-10981984D01*
X9757705Y-10858174D02*
X9767229Y-10867698D01*
X9767229Y-10867698D02*
X9757705Y-10877222D01*
X9757705Y-10877222D02*
X9748182Y-10867698D01*
X9748182Y-10867698D02*
X9757705Y-10858174D01*
X9757705Y-10858174D02*
X9757705Y-10877222D01*
D12*
X8044500Y-11270000D02*
X8125500Y-11351000D01*
X8125500Y-11270000D02*
X8044500Y-11351000D01*
D11*
X8424372Y-11201984D02*
X8443420Y-11201984D01*
X8443420Y-11201984D02*
X8462467Y-11211508D01*
X8462467Y-11211508D02*
X8471991Y-11221031D01*
X8471991Y-11221031D02*
X8481515Y-11240079D01*
X8481515Y-11240079D02*
X8491039Y-11278174D01*
X8491039Y-11278174D02*
X8491039Y-11325793D01*
X8491039Y-11325793D02*
X8481515Y-11363888D01*
X8481515Y-11363888D02*
X8471991Y-11382936D01*
X8471991Y-11382936D02*
X8462467Y-11392460D01*
X8462467Y-11392460D02*
X8443420Y-11401984D01*
X8443420Y-11401984D02*
X8424372Y-11401984D01*
X8424372Y-11401984D02*
X8405324Y-11392460D01*
X8405324Y-11392460D02*
X8395801Y-11382936D01*
X8395801Y-11382936D02*
X8386277Y-11363888D01*
X8386277Y-11363888D02*
X8376753Y-11325793D01*
X8376753Y-11325793D02*
X8376753Y-11278174D01*
X8376753Y-11278174D02*
X8386277Y-11240079D01*
X8386277Y-11240079D02*
X8395801Y-11221031D01*
X8395801Y-11221031D02*
X8405324Y-11211508D01*
X8405324Y-11211508D02*
X8424372Y-11201984D01*
X8576753Y-11382936D02*
X8586277Y-11392460D01*
X8586277Y-11392460D02*
X8576753Y-11401984D01*
X8576753Y-11401984D02*
X8567229Y-11392460D01*
X8567229Y-11392460D02*
X8576753Y-11382936D01*
X8576753Y-11382936D02*
X8576753Y-11401984D01*
X8700563Y-11287698D02*
X8681515Y-11278174D01*
X8681515Y-11278174D02*
X8671991Y-11268650D01*
X8671991Y-11268650D02*
X8662467Y-11249603D01*
X8662467Y-11249603D02*
X8662467Y-11240079D01*
X8662467Y-11240079D02*
X8671991Y-11221031D01*
X8671991Y-11221031D02*
X8681515Y-11211508D01*
X8681515Y-11211508D02*
X8700563Y-11201984D01*
X8700563Y-11201984D02*
X8738658Y-11201984D01*
X8738658Y-11201984D02*
X8757705Y-11211508D01*
X8757705Y-11211508D02*
X8767229Y-11221031D01*
X8767229Y-11221031D02*
X8776753Y-11240079D01*
X8776753Y-11240079D02*
X8776753Y-11249603D01*
X8776753Y-11249603D02*
X8767229Y-11268650D01*
X8767229Y-11268650D02*
X8757705Y-11278174D01*
X8757705Y-11278174D02*
X8738658Y-11287698D01*
X8738658Y-11287698D02*
X8700563Y-11287698D01*
X8700563Y-11287698D02*
X8681515Y-11297222D01*
X8681515Y-11297222D02*
X8671991Y-11306746D01*
X8671991Y-11306746D02*
X8662467Y-11325793D01*
X8662467Y-11325793D02*
X8662467Y-11363888D01*
X8662467Y-11363888D02*
X8671991Y-11382936D01*
X8671991Y-11382936D02*
X8681515Y-11392460D01*
X8681515Y-11392460D02*
X8700563Y-11401984D01*
X8700563Y-11401984D02*
X8738658Y-11401984D01*
X8738658Y-11401984D02*
X8757705Y-11392460D01*
X8757705Y-11392460D02*
X8767229Y-11382936D01*
X8767229Y-11382936D02*
X8776753Y-11363888D01*
X8776753Y-11363888D02*
X8776753Y-11325793D01*
X8776753Y-11325793D02*
X8767229Y-11306746D01*
X8767229Y-11306746D02*
X8757705Y-11297222D01*
X8757705Y-11297222D02*
X8738658Y-11287698D01*
X8967229Y-11401984D02*
X8852944Y-11401984D01*
X8910086Y-11401984D02*
X8910086Y-11201984D01*
X8910086Y-11201984D02*
X8891039Y-11230555D01*
X8891039Y-11230555D02*
X8871991Y-11249603D01*
X8871991Y-11249603D02*
X8852944Y-11259127D01*
X9091039Y-11201984D02*
X9110086Y-11201984D01*
X9110086Y-11201984D02*
X9129134Y-11211508D01*
X9129134Y-11211508D02*
X9138658Y-11221031D01*
X9138658Y-11221031D02*
X9148182Y-11240079D01*
X9148182Y-11240079D02*
X9157705Y-11278174D01*
X9157705Y-11278174D02*
X9157705Y-11325793D01*
X9157705Y-11325793D02*
X9148182Y-11363888D01*
X9148182Y-11363888D02*
X9138658Y-11382936D01*
X9138658Y-11382936D02*
X9129134Y-11392460D01*
X9129134Y-11392460D02*
X9110086Y-11401984D01*
X9110086Y-11401984D02*
X9091039Y-11401984D01*
X9091039Y-11401984D02*
X9071991Y-11392460D01*
X9071991Y-11392460D02*
X9062467Y-11382936D01*
X9062467Y-11382936D02*
X9052944Y-11363888D01*
X9052944Y-11363888D02*
X9043420Y-11325793D01*
X9043420Y-11325793D02*
X9043420Y-11278174D01*
X9043420Y-11278174D02*
X9052944Y-11240079D01*
X9052944Y-11240079D02*
X9062467Y-11221031D01*
X9062467Y-11221031D02*
X9071991Y-11211508D01*
X9071991Y-11211508D02*
X9091039Y-11201984D01*
X9243420Y-11401984D02*
X9243420Y-11268650D01*
X9243420Y-11287698D02*
X9252944Y-11278174D01*
X9252944Y-11278174D02*
X9271991Y-11268650D01*
X9271991Y-11268650D02*
X9300563Y-11268650D01*
X9300563Y-11268650D02*
X9319610Y-11278174D01*
X9319610Y-11278174D02*
X9329134Y-11297222D01*
X9329134Y-11297222D02*
X9329134Y-11401984D01*
X9329134Y-11297222D02*
X9338658Y-11278174D01*
X9338658Y-11278174D02*
X9357705Y-11268650D01*
X9357705Y-11268650D02*
X9386277Y-11268650D01*
X9386277Y-11268650D02*
X9405325Y-11278174D01*
X9405325Y-11278174D02*
X9414848Y-11297222D01*
X9414848Y-11297222D02*
X9414848Y-11401984D01*
X9510086Y-11401984D02*
X9510086Y-11268650D01*
X9510086Y-11287698D02*
X9519610Y-11278174D01*
X9519610Y-11278174D02*
X9538658Y-11268650D01*
X9538658Y-11268650D02*
X9567229Y-11268650D01*
X9567229Y-11268650D02*
X9586277Y-11278174D01*
X9586277Y-11278174D02*
X9595801Y-11297222D01*
X9595801Y-11297222D02*
X9595801Y-11401984D01*
X9595801Y-11297222D02*
X9605325Y-11278174D01*
X9605325Y-11278174D02*
X9624372Y-11268650D01*
X9624372Y-11268650D02*
X9652944Y-11268650D01*
X9652944Y-11268650D02*
X9671991Y-11278174D01*
X9671991Y-11278174D02*
X9681515Y-11297222D01*
X9681515Y-11297222D02*
X9681515Y-11401984D01*
X10071991Y-11192460D02*
X9900563Y-11449603D01*
X10329134Y-11201984D02*
X10348182Y-11201984D01*
X10348182Y-11201984D02*
X10367229Y-11211508D01*
X10367229Y-11211508D02*
X10376753Y-11221031D01*
X10376753Y-11221031D02*
X10386277Y-11240079D01*
X10386277Y-11240079D02*
X10395801Y-11278174D01*
X10395801Y-11278174D02*
X10395801Y-11325793D01*
X10395801Y-11325793D02*
X10386277Y-11363888D01*
X10386277Y-11363888D02*
X10376753Y-11382936D01*
X10376753Y-11382936D02*
X10367229Y-11392460D01*
X10367229Y-11392460D02*
X10348182Y-11401984D01*
X10348182Y-11401984D02*
X10329134Y-11401984D01*
X10329134Y-11401984D02*
X10310087Y-11392460D01*
X10310087Y-11392460D02*
X10300563Y-11382936D01*
X10300563Y-11382936D02*
X10291039Y-11363888D01*
X10291039Y-11363888D02*
X10281515Y-11325793D01*
X10281515Y-11325793D02*
X10281515Y-11278174D01*
X10281515Y-11278174D02*
X10291039Y-11240079D01*
X10291039Y-11240079D02*
X10300563Y-11221031D01*
X10300563Y-11221031D02*
X10310087Y-11211508D01*
X10310087Y-11211508D02*
X10329134Y-11201984D01*
X10481515Y-11382936D02*
X10491039Y-11392460D01*
X10491039Y-11392460D02*
X10481515Y-11401984D01*
X10481515Y-11401984D02*
X10471991Y-11392460D01*
X10471991Y-11392460D02*
X10481515Y-11382936D01*
X10481515Y-11382936D02*
X10481515Y-11401984D01*
X10614848Y-11201984D02*
X10633896Y-11201984D01*
X10633896Y-11201984D02*
X10652944Y-11211508D01*
X10652944Y-11211508D02*
X10662468Y-11221031D01*
X10662468Y-11221031D02*
X10671991Y-11240079D01*
X10671991Y-11240079D02*
X10681515Y-11278174D01*
X10681515Y-11278174D02*
X10681515Y-11325793D01*
X10681515Y-11325793D02*
X10671991Y-11363888D01*
X10671991Y-11363888D02*
X10662468Y-11382936D01*
X10662468Y-11382936D02*
X10652944Y-11392460D01*
X10652944Y-11392460D02*
X10633896Y-11401984D01*
X10633896Y-11401984D02*
X10614848Y-11401984D01*
X10614848Y-11401984D02*
X10595801Y-11392460D01*
X10595801Y-11392460D02*
X10586277Y-11382936D01*
X10586277Y-11382936D02*
X10576753Y-11363888D01*
X10576753Y-11363888D02*
X10567229Y-11325793D01*
X10567229Y-11325793D02*
X10567229Y-11278174D01*
X10567229Y-11278174D02*
X10576753Y-11240079D01*
X10576753Y-11240079D02*
X10586277Y-11221031D01*
X10586277Y-11221031D02*
X10595801Y-11211508D01*
X10595801Y-11211508D02*
X10614848Y-11201984D01*
X10748182Y-11201984D02*
X10871991Y-11201984D01*
X10871991Y-11201984D02*
X10805325Y-11278174D01*
X10805325Y-11278174D02*
X10833896Y-11278174D01*
X10833896Y-11278174D02*
X10852944Y-11287698D01*
X10852944Y-11287698D02*
X10862468Y-11297222D01*
X10862468Y-11297222D02*
X10871991Y-11316269D01*
X10871991Y-11316269D02*
X10871991Y-11363888D01*
X10871991Y-11363888D02*
X10862468Y-11382936D01*
X10862468Y-11382936D02*
X10852944Y-11392460D01*
X10852944Y-11392460D02*
X10833896Y-11401984D01*
X10833896Y-11401984D02*
X10776753Y-11401984D01*
X10776753Y-11401984D02*
X10757706Y-11392460D01*
X10757706Y-11392460D02*
X10748182Y-11382936D01*
X11062468Y-11401984D02*
X10948182Y-11401984D01*
X11005325Y-11401984D02*
X11005325Y-11201984D01*
X11005325Y-11201984D02*
X10986277Y-11230555D01*
X10986277Y-11230555D02*
X10967229Y-11249603D01*
X10967229Y-11249603D02*
X10948182Y-11259127D01*
X11157706Y-11401984D02*
X11195801Y-11401984D01*
X11195801Y-11401984D02*
X11214848Y-11392460D01*
X11214848Y-11392460D02*
X11224372Y-11382936D01*
X11224372Y-11382936D02*
X11243420Y-11354365D01*
X11243420Y-11354365D02*
X11252944Y-11316269D01*
X11252944Y-11316269D02*
X11252944Y-11240079D01*
X11252944Y-11240079D02*
X11243420Y-11221031D01*
X11243420Y-11221031D02*
X11233896Y-11211508D01*
X11233896Y-11211508D02*
X11214848Y-11201984D01*
X11214848Y-11201984D02*
X11176753Y-11201984D01*
X11176753Y-11201984D02*
X11157706Y-11211508D01*
X11157706Y-11211508D02*
X11148182Y-11221031D01*
X11148182Y-11221031D02*
X11138658Y-11240079D01*
X11138658Y-11240079D02*
X11138658Y-11287698D01*
X11138658Y-11287698D02*
X11148182Y-11306746D01*
X11148182Y-11306746D02*
X11157706Y-11316269D01*
X11157706Y-11316269D02*
X11176753Y-11325793D01*
X11176753Y-11325793D02*
X11214848Y-11325793D01*
X11214848Y-11325793D02*
X11233896Y-11316269D01*
X11233896Y-11316269D02*
X11243420Y-11306746D01*
X11243420Y-11306746D02*
X11252944Y-11287698D01*
X11329134Y-11201984D02*
X11329134Y-11240079D01*
X11405325Y-11201984D02*
X11405325Y-11240079D01*
X11700563Y-11478174D02*
X11691039Y-11468650D01*
X11691039Y-11468650D02*
X11671991Y-11440079D01*
X11671991Y-11440079D02*
X11662468Y-11421031D01*
X11662468Y-11421031D02*
X11652944Y-11392460D01*
X11652944Y-11392460D02*
X11643420Y-11344841D01*
X11643420Y-11344841D02*
X11643420Y-11306746D01*
X11643420Y-11306746D02*
X11652944Y-11259127D01*
X11652944Y-11259127D02*
X11662468Y-11230555D01*
X11662468Y-11230555D02*
X11671991Y-11211508D01*
X11671991Y-11211508D02*
X11691039Y-11182936D01*
X11691039Y-11182936D02*
X11700563Y-11173412D01*
X11881515Y-11401984D02*
X11767229Y-11401984D01*
X11824372Y-11401984D02*
X11824372Y-11201984D01*
X11824372Y-11201984D02*
X11805325Y-11230555D01*
X11805325Y-11230555D02*
X11786277Y-11249603D01*
X11786277Y-11249603D02*
X11767229Y-11259127D01*
X11957706Y-11221031D02*
X11967229Y-11211508D01*
X11967229Y-11211508D02*
X11986277Y-11201984D01*
X11986277Y-11201984D02*
X12033896Y-11201984D01*
X12033896Y-11201984D02*
X12052944Y-11211508D01*
X12052944Y-11211508D02*
X12062468Y-11221031D01*
X12062468Y-11221031D02*
X12071991Y-11240079D01*
X12071991Y-11240079D02*
X12071991Y-11259127D01*
X12071991Y-11259127D02*
X12062468Y-11287698D01*
X12062468Y-11287698D02*
X11948182Y-11401984D01*
X11948182Y-11401984D02*
X12071991Y-11401984D01*
X12186277Y-11287698D02*
X12167229Y-11278174D01*
X12167229Y-11278174D02*
X12157706Y-11268650D01*
X12157706Y-11268650D02*
X12148182Y-11249603D01*
X12148182Y-11249603D02*
X12148182Y-11240079D01*
X12148182Y-11240079D02*
X12157706Y-11221031D01*
X12157706Y-11221031D02*
X12167229Y-11211508D01*
X12167229Y-11211508D02*
X12186277Y-11201984D01*
X12186277Y-11201984D02*
X12224372Y-11201984D01*
X12224372Y-11201984D02*
X12243420Y-11211508D01*
X12243420Y-11211508D02*
X12252944Y-11221031D01*
X12252944Y-11221031D02*
X12262468Y-11240079D01*
X12262468Y-11240079D02*
X12262468Y-11249603D01*
X12262468Y-11249603D02*
X12252944Y-11268650D01*
X12252944Y-11268650D02*
X12243420Y-11278174D01*
X12243420Y-11278174D02*
X12224372Y-11287698D01*
X12224372Y-11287698D02*
X12186277Y-11287698D01*
X12186277Y-11287698D02*
X12167229Y-11297222D01*
X12167229Y-11297222D02*
X12157706Y-11306746D01*
X12157706Y-11306746D02*
X12148182Y-11325793D01*
X12148182Y-11325793D02*
X12148182Y-11363888D01*
X12148182Y-11363888D02*
X12157706Y-11382936D01*
X12157706Y-11382936D02*
X12167229Y-11392460D01*
X12167229Y-11392460D02*
X12186277Y-11401984D01*
X12186277Y-11401984D02*
X12224372Y-11401984D01*
X12224372Y-11401984D02*
X12243420Y-11392460D01*
X12243420Y-11392460D02*
X12252944Y-11382936D01*
X12252944Y-11382936D02*
X12262468Y-11363888D01*
X12262468Y-11363888D02*
X12262468Y-11325793D01*
X12262468Y-11325793D02*
X12252944Y-11306746D01*
X12252944Y-11306746D02*
X12243420Y-11297222D01*
X12243420Y-11297222D02*
X12224372Y-11287698D01*
X12500563Y-11401984D02*
X12500563Y-11201984D01*
X12586277Y-11401984D02*
X12586277Y-11297222D01*
X12586277Y-11297222D02*
X12576753Y-11278174D01*
X12576753Y-11278174D02*
X12557706Y-11268650D01*
X12557706Y-11268650D02*
X12529134Y-11268650D01*
X12529134Y-11268650D02*
X12510087Y-11278174D01*
X12510087Y-11278174D02*
X12500563Y-11287698D01*
X12710087Y-11401984D02*
X12691039Y-11392460D01*
X12691039Y-11392460D02*
X12681515Y-11382936D01*
X12681515Y-11382936D02*
X12671991Y-11363888D01*
X12671991Y-11363888D02*
X12671991Y-11306746D01*
X12671991Y-11306746D02*
X12681515Y-11287698D01*
X12681515Y-11287698D02*
X12691039Y-11278174D01*
X12691039Y-11278174D02*
X12710087Y-11268650D01*
X12710087Y-11268650D02*
X12738658Y-11268650D01*
X12738658Y-11268650D02*
X12757706Y-11278174D01*
X12757706Y-11278174D02*
X12767230Y-11287698D01*
X12767230Y-11287698D02*
X12776753Y-11306746D01*
X12776753Y-11306746D02*
X12776753Y-11363888D01*
X12776753Y-11363888D02*
X12767230Y-11382936D01*
X12767230Y-11382936D02*
X12757706Y-11392460D01*
X12757706Y-11392460D02*
X12738658Y-11401984D01*
X12738658Y-11401984D02*
X12710087Y-11401984D01*
X12891039Y-11401984D02*
X12871991Y-11392460D01*
X12871991Y-11392460D02*
X12862468Y-11373412D01*
X12862468Y-11373412D02*
X12862468Y-11201984D01*
X13043420Y-11392460D02*
X13024372Y-11401984D01*
X13024372Y-11401984D02*
X12986277Y-11401984D01*
X12986277Y-11401984D02*
X12967230Y-11392460D01*
X12967230Y-11392460D02*
X12957706Y-11373412D01*
X12957706Y-11373412D02*
X12957706Y-11297222D01*
X12957706Y-11297222D02*
X12967230Y-11278174D01*
X12967230Y-11278174D02*
X12986277Y-11268650D01*
X12986277Y-11268650D02*
X13024372Y-11268650D01*
X13024372Y-11268650D02*
X13043420Y-11278174D01*
X13043420Y-11278174D02*
X13052944Y-11297222D01*
X13052944Y-11297222D02*
X13052944Y-11316269D01*
X13052944Y-11316269D02*
X12957706Y-11335317D01*
X13129134Y-11392460D02*
X13148182Y-11401984D01*
X13148182Y-11401984D02*
X13186277Y-11401984D01*
X13186277Y-11401984D02*
X13205325Y-11392460D01*
X13205325Y-11392460D02*
X13214849Y-11373412D01*
X13214849Y-11373412D02*
X13214849Y-11363888D01*
X13214849Y-11363888D02*
X13205325Y-11344841D01*
X13205325Y-11344841D02*
X13186277Y-11335317D01*
X13186277Y-11335317D02*
X13157706Y-11335317D01*
X13157706Y-11335317D02*
X13138658Y-11325793D01*
X13138658Y-11325793D02*
X13129134Y-11306746D01*
X13129134Y-11306746D02*
X13129134Y-11297222D01*
X13129134Y-11297222D02*
X13138658Y-11278174D01*
X13138658Y-11278174D02*
X13157706Y-11268650D01*
X13157706Y-11268650D02*
X13186277Y-11268650D01*
X13186277Y-11268650D02*
X13205325Y-11278174D01*
X13281515Y-11478174D02*
X13291039Y-11468650D01*
X13291039Y-11468650D02*
X13310087Y-11440079D01*
X13310087Y-11440079D02*
X13319611Y-11421031D01*
X13319611Y-11421031D02*
X13329134Y-11392460D01*
X13329134Y-11392460D02*
X13338658Y-11344841D01*
X13338658Y-11344841D02*
X13338658Y-11306746D01*
X13338658Y-11306746D02*
X13329134Y-11259127D01*
X13329134Y-11259127D02*
X13319611Y-11230555D01*
X13319611Y-11230555D02*
X13310087Y-11211508D01*
X13310087Y-11211508D02*
X13291039Y-11182936D01*
X13291039Y-11182936D02*
X13281515Y-11173412D01*
M02*
